<svg width="24" height="24" viewBox="0 0 24 24" fill="none" xmlns="http://www.w3.org/2000/svg">
<path fill-rule="evenodd" clip-rule="evenodd" d="M3 0C2.44772 0 2 0.447716 2 1V23C2 23.5523 2.44772 24 3 24H21C21.5523 24 22 23.5523 22 23V4L18 0H3Z" fill="#E4E7EC"/>
<path fill-rule="evenodd" clip-rule="evenodd" d="M18 0V4H22L18 0Z" fill="#98A2B3"/>
<rect x="1" y="10" width="22" height="10" rx="1" fill="#CC400C"/>
<path d="M4.6637 17.9091V12.0909H6.84551C7.29248 12.0909 7.66748 12.1742 7.97051 12.3409C8.27544 12.5075 8.50555 12.7367 8.66086 13.0284C8.81805 13.3182 8.89665 13.6477 8.89665 14.017C8.89665 14.3901 8.81805 14.7216 8.66086 15.0113C8.50366 15.3011 8.27165 15.5293 7.96483 15.696C7.65801 15.8608 7.28017 15.9432 6.83131 15.9432H5.38529V15.0767H6.68926C6.95063 15.0767 7.16464 15.0312 7.33131 14.9403C7.49798 14.8494 7.62108 14.7244 7.70063 14.5653C7.78207 14.4062 7.82279 14.2235 7.82279 14.017C7.82279 13.8106 7.78207 13.6288 7.70063 13.4716C7.62108 13.3144 7.49703 13.1922 7.32847 13.1051C7.1618 13.0161 6.94684 12.9716 6.68358 12.9716H5.71767V17.9091H4.6637Z" fill="white"/>
<path d="M11.7837 17.9091H9.81213V12.0909H11.8235C12.4011 12.0909 12.8974 12.2074 13.3121 12.4403C13.7288 12.6714 14.0489 13.0038 14.2724 13.4375C14.4958 13.8712 14.6076 14.3901 14.6076 14.9943C14.6076 15.6004 14.4949 16.1212 14.2695 16.5568C14.046 16.9924 13.7231 17.3267 13.3008 17.5596C12.8803 17.7926 12.3746 17.9091 11.7837 17.9091ZM10.8661 16.9971H11.7326C12.1379 16.9971 12.476 16.9233 12.7468 16.7755C13.0176 16.6259 13.2212 16.4034 13.3576 16.1079C13.494 15.8106 13.5621 15.4394 13.5621 14.9943C13.5621 14.5492 13.494 14.1799 13.3576 13.8863C13.2212 13.5909 13.0195 13.3702 12.7525 13.2244C12.4873 13.0767 12.1578 13.0028 11.7638 13.0028H10.8661V16.9971Z" fill="white"/>
<path d="M15.609 17.9091V12.0909H19.3363V12.9744H16.663V14.5539H19.0806V15.4375H16.663V17.9091H15.609Z" fill="white"/>
</svg>
