<svg width="104" height="64" viewBox="0 0 104 64" fill="none" xmlns="http://www.w3.org/2000/svg">
<rect x="0.5" y="0.5" width="103" height="63" rx="4.5" stroke="#9747FF" stroke-dasharray="10 5"/>
<path fill-rule="evenodd" clip-rule="evenodd" d="M32 22C31.5235 22 31.0529 22.1052 30.6218 22.3081L24.2968 25.2845C22.8948 25.9443 22 27.3544 22 28.9038V36C22 36.9978 22.5762 37.9058 23.479 38.3306L30.6218 41.6919C31.0529 41.8948 31.5235 42 32 42C32.4765 42 32.9471 41.8948 33.3782 41.6919L40.521 38.3306C41.4238 37.9058 42 36.9978 42 36V28.9038C42 27.3544 41.1052 25.9443 39.7032 25.2845L33.3782 22.3081C32.9471 22.1052 32.4765 22 32 22ZM40 34.382L33 30.882V24.3405L38.8516 27.0942C39.5526 27.4241 40 28.1291 40 28.9038V34.382ZM32 32.618L39.7343 36.4852C39.7136 36.4984 39.692 36.5104 39.6694 36.521L32.5266 39.8823C32.3619 39.9598 32.1821 40 32 40C31.8179 40 31.6381 39.9598 31.4734 39.8823L24.3306 36.521C24.308 36.5104 24.2864 36.4984 24.2657 36.4852L32 32.618ZM31 30.882L24 34.382V28.9038C24 28.1291 24.4474 27.4241 25.1484 27.0942L31 24.3405V30.882Z" fill="black"/>
<path d="M71 23.2354L64.7226 26.1894C63.6711 26.6842 63 27.7418 63 28.9039V34.882L70.2111 31.2765C70.4655 31.1493 70.7299 31.0509 71 30.9811V23.2354Z" fill="black"/>
<path d="M73 30.9811C73.2701 31.0509 73.5345 31.1493 73.7889 31.2765L81 34.882V28.9039C81 27.7418 80.3289 26.6842 79.2774 26.1894L73 23.2354V30.9811Z" fill="black"/>
<path d="M71.1056 33.0653L64.2603 36.4879L71.4734 39.8823C71.6381 39.9599 71.8179 40.0001 72 40.0001C72.1821 40.0001 72.3619 39.9599 72.5266 39.8823L79.7397 36.4879L72.8944 33.0653C72.3314 32.7838 71.6686 32.7838 71.1056 33.0653Z" fill="black"/>
</svg>
