<svg width="104" height="64" viewBox="0 0 104 64" fill="none" xmlns="http://www.w3.org/2000/svg">
<path fill-rule="evenodd" clip-rule="evenodd" d="M28.0237 22.4586C27.3755 20.5138 24.6245 20.5138 23.9763 22.4586C23.7374 23.1752 23.1752 23.7374 22.4586 23.9763C20.5138 24.6245 20.5138 27.3755 22.4586 28.0237C23.1752 28.2626 23.7374 28.8248 23.9763 29.5414C24.6245 31.4862 27.3755 31.4862 28.0237 29.5414C28.2626 28.8248 28.8248 28.2626 29.5414 28.0237C31.4862 27.3755 31.4862 24.6245 29.5414 23.9763C28.8248 23.7374 28.2626 23.1752 28.0237 22.4586ZM25.8736 23.0911C25.8897 23.0428 25.9085 23.0285 25.9183 23.0219C25.9342 23.0111 25.9624 23 26 23C26.0376 23 26.0658 23.0111 26.0817 23.0219C26.0915 23.0285 26.1103 23.0428 26.1264 23.0911C26.5643 24.4048 27.5952 25.4357 28.9089 25.8736C28.9572 25.8897 28.9715 25.9085 28.9781 25.9183C28.9889 25.9342 29 25.9624 29 26C29 26.0376 28.9889 26.0658 28.9781 26.0817C28.9715 26.0915 28.9572 26.1103 28.9089 26.1264C27.5952 26.5643 26.5643 27.5952 26.1264 28.9089C26.1103 28.9572 26.0915 28.9715 26.0817 28.9781C26.0658 28.9889 26.0376 29 26 29C25.9624 29 25.9342 28.9889 25.9183 28.9781C25.9085 28.9715 25.8897 28.9572 25.8736 28.9089C25.4357 27.5952 24.4048 26.5643 23.0911 26.1264C23.0428 26.1103 23.0285 26.0915 23.0219 26.0817C23.0111 26.0658 23 26.0376 23 26C23 25.9624 23.0111 25.9342 23.0219 25.9183C23.0285 25.9085 23.0428 25.8897 23.0911 25.8736C24.4048 25.4357 25.4357 24.4048 25.8736 23.0911Z" fill="black"/>
<path fill-rule="evenodd" clip-rule="evenodd" d="M37.83 29.0398C36.9235 26.3201 33.0765 26.3201 32.17 29.0398C31.6774 30.5177 30.5177 31.6774 29.0398 32.17C26.3201 33.0765 26.3201 36.9235 29.0398 37.83C30.5177 38.3227 31.6774 39.4823 32.17 40.9602C33.0765 43.6799 36.9235 43.6799 37.83 40.9602C38.3226 39.4823 39.4823 38.3227 40.9602 37.83C43.6799 36.9235 43.6799 33.0765 40.9602 32.17C39.4823 31.6774 38.3227 30.5177 37.83 29.0398ZM34.0673 29.6722C34.3661 28.7759 35.6339 28.7759 35.9327 29.6722C36.6244 31.7473 38.2527 33.3756 40.3278 34.0673C41.2241 34.3661 41.2241 35.6339 40.3278 35.9327C38.2527 36.6244 36.6244 38.2527 35.9327 40.3278C35.6339 41.2241 34.3661 41.2241 34.0673 40.3278C33.3756 38.2527 31.7473 36.6244 29.6722 35.9327C28.7759 35.6339 28.7759 34.3661 29.6722 34.0673C31.7473 33.3756 33.3756 31.7473 34.0673 29.6722Z" fill="black"/>
<path d="M64.925 29.2251C64.5866 28.21 63.79 27.4134 62.7749 27.075C61.7417 26.7307 61.7417 25.2693 62.7749 24.925C63.79 24.5866 64.5866 23.79 64.925 22.7749C65.2693 21.7417 66.7307 21.7417 67.075 22.7749C67.4134 23.79 68.21 24.5866 69.2251 24.925C70.2583 25.2693 70.2583 26.7307 69.2251 27.075C68.21 27.4134 67.4134 28.21 67.075 29.2251C66.7307 30.2583 65.2693 30.2583 64.925 29.2251Z" fill="black"/>
<path d="M73.1187 40.644C72.5265 38.8675 71.1325 37.4735 69.356 36.8813C67.548 36.2787 67.548 33.7213 69.356 33.1187C71.1325 32.5265 72.5265 31.1325 73.1187 29.356C73.7213 27.548 76.2787 27.548 76.8813 29.356C77.4735 31.1325 78.8675 32.5265 80.644 33.1187C82.452 33.7213 82.452 36.2787 80.644 36.8813C78.8675 37.4735 77.4735 38.8675 76.8813 40.644C76.2787 42.452 73.7213 42.452 73.1187 40.644Z" fill="black"/>
</svg>
