<svg width="104" height="64" viewBox="0 0 104 64" fill="none" xmlns="http://www.w3.org/2000/svg">
<path fill-rule="evenodd" clip-rule="evenodd" d="M31.5 39.5C31.5 40.8807 30.3807 42 29 42C27.6193 42 26.5 40.8807 26.5 39.5V34.6907C26.5 33.2615 25.8934 31.8994 24.831 30.9433L24.0678 30.2564C23.0699 29.3582 22.5 28.0787 22.5 26.7361V26.1478C22.5 23.857 24.357 22 26.6478 22C28.1542 22 29.5421 22.8167 30.2737 24.1335L30.7627 25.0137C31.2462 25.8841 31.5 26.8634 31.5 27.8591V39.5ZM24.5 26.1478C24.5 24.9616 25.4616 24 26.6478 24C27.4278 24 28.1465 24.4229 28.5253 25.1047L29.0144 25.985C29.3329 26.5583 29.5 27.2033 29.5 27.8591V39.5C29.5 39.7761 29.2761 40 29 40C28.7239 40 28.5 39.7761 28.5 39.5V34.6907C28.5 32.6945 27.6527 30.7921 26.169 29.4567L25.4057 28.7698C24.8292 28.2509 24.5 27.5117 24.5 26.7361V26.1478Z" fill="black"/>
<path fill-rule="evenodd" clip-rule="evenodd" d="M32.5 39.5C32.5 40.8807 33.6193 42 35 42C36.3807 42 37.5 40.8807 37.5 39.5V34.6907C37.5 33.2615 38.1066 31.8994 39.169 30.9433L39.9322 30.2564C40.9301 29.3582 41.5 28.0787 41.5 26.7361V26.1478C41.5 23.857 39.643 22 37.3522 22C35.8458 22 34.4579 22.8167 33.7263 24.1335L33.2373 25.0137C32.7538 25.8841 32.5 26.8634 32.5 27.8591V39.5ZM39.5 26.1478C39.5 24.9616 38.5384 24 37.3522 24C36.5722 24 35.8535 24.4229 35.4747 25.1047L34.9856 25.985C34.6671 26.5583 34.5 27.2033 34.5 27.8591V39.5C34.5 39.7761 34.7239 40 35 40C35.2761 40 35.5 39.7761 35.5 39.5V34.6907C35.5 32.6945 36.3473 30.7921 37.831 29.4567L38.5943 28.7698C39.1708 28.2509 39.5 27.5117 39.5 26.7361V26.1478Z" fill="black"/>
<path d="M66.6475 23C67.7906 23 68.8442 23.6198 69.3994 24.6191L69.8887 25.499C70.2897 26.2209 70.5 27.0336 70.5 27.8594V39.5C70.5 40.3284 69.8284 41 69 41C68.1716 41 67.5 40.3284 67.5 39.5V34.6904C67.4999 32.9779 66.7729 31.3459 65.5 30.2002L64.7363 29.5127C63.9494 28.8042 63.5001 27.7952 63.5 26.7363V26.1475C63.5002 24.4093 64.9093 23.0002 66.6475 23ZM77.3525 23C79.0907 23.0002 80.4998 24.4093 80.5 26.1475V26.7363C80.4999 27.7952 80.0506 28.8042 79.2637 29.5127L78.5 30.2002C77.2271 31.3459 76.5001 32.9779 76.5 34.6904V39.5C76.5 40.3284 75.8284 41 75 41C74.1716 41 73.5 40.3284 73.5 39.5V27.8594C73.5 27.0336 73.7103 26.2209 74.1113 25.499L74.6006 24.6191C75.1558 23.6198 76.2094 23 77.3525 23Z" fill="black"/>
</svg>
