<svg width="104" height="64" viewBox="0 0 104 64" fill="none" xmlns="http://www.w3.org/2000/svg">
<path fill-rule="evenodd" clip-rule="evenodd" d="M32 21C30.3431 21 29 22.3431 29 24V27.4648L23.8906 30.8711C23.3342 31.242 23 31.8665 23 32.5352V34.6126C23 35.9777 24.3374 36.9416 25.6325 36.5099L29 35.3874V37.5858L27 39.5858C25.7401 40.8457 26.6324 43 28.4142 43H29.8769C30.0404 43 30.2033 42.9799 30.362 42.9403L32 42.5308L33.638 42.9403C33.7967 42.9799 33.9596 43 34.1231 43H35.5858C37.3676 43 38.2599 40.8457 37 39.5858L35 37.5858V35.3874L38.3675 36.5099C39.6626 36.9416 41 35.9777 41 34.6126V32.5352C41 31.8665 40.6658 31.242 40.1094 30.8711L35 27.4648V24C35 22.3431 33.6569 21 32 21ZM31 24C31 23.4477 31.4477 23 32 23C32.5523 23 33 23.4477 33 24V27.4648C33 28.1335 33.3342 28.758 33.8906 29.1289L39 32.5352V34.6126L35.6325 33.4901C34.3374 33.0584 33 34.0223 33 35.3874V37.5858C33 38.1162 33.2107 38.6249 33.5858 39L35.5858 41H34.1231L32.4851 40.5905C32.1666 40.5109 31.8334 40.5109 31.5149 40.5905L29.8769 41H28.4142L30.4142 39C30.7893 38.6249 31 38.1162 31 37.5858V35.3874C31 34.0223 29.6626 33.0584 28.3675 33.4901L25 34.6126V32.5352L30.1094 29.1289C30.6658 28.758 31 28.1335 31 27.4648V24Z" fill="black"/>
<path d="M72 22C73.1046 22 74 22.8954 74 24V27.4648C74 27.7992 74.1671 28.1114 74.4453 28.2969L79.5547 31.7031C79.8329 31.8886 80 32.2008 80 32.5352V34.6126C80 35.2951 79.3313 35.7771 78.6838 35.5613L75.3162 34.4387C74.6687 34.2229 74 34.7049 74 35.3874V37.5858C74 37.851 74.1054 38.1054 74.2929 38.2929L76.2929 40.2929C76.9229 40.9229 76.4767 42 75.5858 42H74.1231C74.0413 42 73.9599 41.99 73.8806 41.9701L72.2425 41.5606C72.0833 41.5208 71.9167 41.5208 71.7575 41.5606L70.1194 41.9701C70.0401 41.99 69.9587 42 69.8769 42H68.4142C67.5233 42 67.0771 40.9229 67.7071 40.2929L69.7071 38.2929C69.8946 38.1054 70 37.851 70 37.5858V35.3874C70 34.7049 69.3313 34.2229 68.6838 34.4387L65.3162 35.5613C64.6687 35.7771 64 35.2951 64 34.6126V32.5352C64 32.2008 64.1671 31.8886 64.4453 31.7031L69.5547 28.2969C69.8329 28.1114 70 27.7992 70 27.4648V24C70 22.8954 70.8954 22 72 22Z" fill="black"/>
</svg>
