<svg width="104" height="64" viewBox="0 0 104 64" fill="none" xmlns="http://www.w3.org/2000/svg">
<path d="M21.8046 24.5305C21.4141 24.921 21.4141 25.5542 21.8046 25.9447C22.1951 26.3352 22.8283 26.3352 23.2188 25.9447L25.6937 23.4698C26.0842 23.0793 26.0842 22.4461 25.6937 22.0556C25.3032 21.6651 24.67 21.6651 24.2795 22.0556L21.8046 24.5305Z" fill="black"/>
<path d="M31.999 29C31.999 28.4477 31.5513 28 30.999 28C30.4467 28 29.999 28.4477 29.999 29V34C29.999 34.5523 30.4467 35 30.999 35H33.999C34.5513 35 34.999 34.5523 34.999 34C34.999 33.4477 34.5513 33 33.999 33H31.999V29Z" fill="black"/>
<path fill-rule="evenodd" clip-rule="evenodd" d="M31.999 22C26.4762 22 21.999 26.4772 21.999 32C21.999 37.5229 26.4762 42 31.999 42C37.5219 42 41.999 37.5229 41.999 32C41.999 26.4772 37.5219 22 31.999 22ZM23.999 32C23.999 27.5817 27.5807 24 31.999 24C36.4173 24 39.999 27.5817 39.999 32C39.999 36.4183 36.4173 40 31.999 40C27.5807 40 23.999 36.4183 23.999 32Z" fill="black"/>
<path d="M38.2919 22.2929C38.6824 21.9024 39.3156 21.9024 39.7061 22.2929L42.181 24.7678C42.5715 25.1583 42.5715 25.7915 42.181 26.182C41.7905 26.5725 41.1573 26.5725 40.7668 26.182L38.2919 23.7071C37.9014 23.3166 37.9014 22.6834 38.2919 22.2929Z" fill="black"/>
<path d="M61.8046 24.5305C61.4141 24.921 61.4141 25.5542 61.8046 25.9447C62.1951 26.3352 62.8283 26.3352 63.2188 25.9447L65.6937 23.4698C66.0842 23.0793 66.0842 22.4461 65.6937 22.0556C65.3032 21.6651 64.67 21.6651 64.2795 22.0556L61.8046 24.5305Z" fill="black"/>
<path d="M78.2919 22.2929C78.6824 21.9024 79.3156 21.9024 79.7061 22.2929L82.181 24.7678C82.5715 25.1583 82.5715 25.7915 82.181 26.182C81.7905 26.5725 81.1573 26.5725 80.7668 26.182L78.2919 23.7071C77.9014 23.3166 77.9014 22.6834 78.2919 22.2929Z" fill="black"/>
<path fill-rule="evenodd" clip-rule="evenodd" d="M71.999 41C76.9696 41 80.999 36.9706 80.999 32C80.999 27.0295 76.9696 23 71.999 23C67.0285 23 62.999 27.0295 62.999 32C62.999 36.9706 67.0285 41 71.999 41ZM71.999 29C71.999 28.4477 71.5513 28 70.999 28C70.4467 28 69.999 28.4477 69.999 29V34C69.999 34.5523 70.4467 35 70.999 35H73.999C74.5513 35 74.999 34.5523 74.999 34C74.999 33.4477 74.5513 33 73.999 33H71.999V29Z" fill="black"/>
</svg>
