<svg width="104" height="64" viewBox="0 0 104 64" fill="none" xmlns="http://www.w3.org/2000/svg">
<path d="M22 26C22 23.7909 23.7909 22 26 22H28C28.5523 22 29 22.4477 29 23C29 23.5523 28.5523 24 28 24H26C24.8954 24 24 24.8954 24 26V28C24 28.5523 23.5523 29 23 29C22.4477 29 22 28.5523 22 28V26Z" fill="black"/>
<path d="M42 26C42 23.7909 40.2091 22 38 22H36C35.4477 22 35 22.4477 35 23C35 23.5523 35.4477 24 36 24H38C39.1046 24 40 24.8954 40 26V28C40 28.5523 40.4477 29 41 29C41.5523 29 42 28.5523 42 28V26Z" fill="black"/>
<path d="M26 42C23.7909 42 22 40.2091 22 38V36C22 35.4477 22.4477 35 23 35C23.5523 35 24 35.4477 24 36V38C24 39.1046 24.8954 40 26 40H28C28.5523 40 29 40.4477 29 41C29 41.5523 28.5523 42 28 42H26Z" fill="black"/>
<path d="M42 38C42 40.2091 40.2091 42 38 42H36C35.4477 42 35 41.5523 35 41C35 40.4477 35.4477 40 36 40H38C39.1046 40 40 39.1046 40 38V36C40 35.4477 40.4477 35 41 35C41.5523 35 42 35.4477 42 36V38Z" fill="black"/>
<path fill-rule="evenodd" clip-rule="evenodd" d="M32 26C31.6699 26 31.3438 26.0729 31.0451 26.2135L28.2968 27.5068C26.8948 28.1665 26 29.5766 26 31.126V34.3682C26 35.0056 26.3681 35.5856 26.9448 35.857L31.0451 37.7865C31.3438 37.9271 31.6699 38 32 38C32.3301 38 32.6562 37.9271 32.9549 37.7865L37.0552 35.857C37.6319 35.5856 38 35.0056 38 34.3682V31.126C38 29.5766 37.1052 28.1665 35.7032 27.5068L32.9549 26.2135C32.6562 26.0729 32.3301 26 32 26ZM33 31.159V28.4451L34.8516 29.3164C35.5526 29.6463 36 30.3513 36 31.126V32.9771L33 31.159ZM32.1033 35.9769L34.9109 34.6557L32 32.8915L29.0891 34.6557L31.8967 35.9769C31.929 35.9921 31.9643 36 32 36C32.0357 36 32.071 35.9921 32.1033 35.9769ZM31 28.4451V31.159L28 32.9771V31.126C28 30.3513 28.4474 29.6463 29.1484 29.3164L31 28.4451Z" fill="black"/>
<path d="M62 26C62 23.7909 63.7909 22 66 22H68C68.5523 22 69 22.4477 69 23C69 23.5523 68.5523 24 68 24H66C64.8954 24 64 24.8954 64 26V28C64 28.5523 63.5523 29 63 29C62.4477 29 62 28.5523 62 28V26Z" fill="black"/>
<path d="M82 26C82 23.7909 80.2091 22 78 22H76C75.4477 22 75 22.4477 75 23C75 23.5523 75.4477 24 76 24H78C79.1046 24 80 24.8954 80 26V28C80 28.5523 80.4477 29 81 29C81.5523 29 82 28.5523 82 28V26Z" fill="black"/>
<path d="M62 38C62 40.2091 63.7909 42 66 42H68C68.5523 42 69 41.5523 69 41C69 40.4477 68.5523 40 68 40H66C64.8954 40 64 39.1046 64 38V36C64 35.4477 63.5523 35 63 35C62.4477 35 62 35.4477 62 36V38Z" fill="black"/>
<path d="M82 38C82 40.2091 80.2091 42 78 42H76C75.4477 42 75 41.5523 75 41C75 40.4477 75.4477 40 76 40H78C79.1046 40 80 39.1046 80 38V36C80 35.4477 80.4477 35 81 35C81.5523 35 82 35.4477 82 36V38Z" fill="black"/>
<path d="M67.957 28.7621L71.4444 27V31.6203C71.2944 31.6619 71.1475 31.7206 71.0062 31.7964L67 33.9471V30.3812C67 29.688 67.3729 29.0572 67.957 28.7621Z" fill="black"/>
<path d="M72.5556 31.6203C72.7056 31.6619 72.8525 31.7206 72.9938 31.7964L77 33.9471V30.3812C77 29.688 76.6271 29.0572 76.043 28.7621L72.5556 27V31.6203Z" fill="black"/>
<path d="M71.5031 32.8635L67.7002 34.9051L71.7074 36.9298C71.799 36.976 71.8989 37 72 37C72.1011 37 72.201 36.976 72.2926 36.9298L76.2998 34.9051L72.4969 32.8635C72.1841 32.6956 71.8159 32.6956 71.5031 32.8635Z" fill="black"/>
</svg>
