<svg width="104" height="64" viewBox="0 0 104 64" fill="none" xmlns="http://www.w3.org/2000/svg">
<path d="M22.2929 32.7071C21.9024 32.3166 21.9024 31.6834 22.2929 31.2929L26.2929 27.2929C26.6834 26.9024 27.3166 26.9024 27.7071 27.2929C28.0976 27.6834 28.0976 28.3166 27.7071 28.7071L25.4142 31L41 31C41.5523 31 42 31.4477 42 32C42 32.5523 41.5523 33 41 33L25.4142 33L27.7071 35.2929C28.0976 35.6834 28.0976 36.3166 27.7071 36.7071C27.3166 37.0976 26.6834 37.0976 26.2929 36.7071L22.2929 32.7071Z" fill="black"/>
<path fill-rule="evenodd" clip-rule="evenodd" d="M65 22C63.3431 22 62 23.3431 62 25V39C62 40.6569 63.3431 42 65 42H79C80.6569 42 82 40.6569 82 39V25C82 23.3431 80.6569 22 79 22H65ZM64.2929 31.2929C63.9024 31.6834 63.9024 32.3166 64.2929 32.7071L68.2929 36.7071C68.6834 37.0976 69.3166 37.0976 69.7071 36.7071C70.0976 36.3166 70.0976 35.6834 69.7071 35.2929L67.4142 33H79C79.5523 33 80 32.5523 80 32C80 31.4477 79.5523 31 79 31H67.4142L69.7071 28.7071C70.0976 28.3166 70.0976 27.6834 69.7071 27.2929C69.3166 26.9024 68.6834 26.9024 68.2929 27.2929L64.2929 31.2929Z" fill="black"/>
</svg>
