<svg width="104" height="64" viewBox="0 0 104 64" fill="none" xmlns="http://www.w3.org/2000/svg">
<path d="M36.7071 37.7071L32.7071 41.7071C32.3166 42.0976 31.6834 42.0976 31.2929 41.7071L27.2929 37.7071C26.9024 37.3166 26.9024 36.6834 27.2929 36.2929C27.6834 35.9024 28.3166 35.9024 28.7071 36.2929L31 38.5858V23C31 22.4477 31.4477 22 32 22C32.5523 22 33 22.4477 33 23V38.5858L35.2929 36.2929C35.6834 35.9024 36.3166 35.9024 36.7071 36.2929C37.0976 36.6834 37.0976 37.3166 36.7071 37.7071Z" fill="black"/>
<path fill-rule="evenodd" clip-rule="evenodd" d="M65 22C63.3431 22 62 23.3431 62 25V39C62 40.6569 63.3431 42 65 42H79C80.6569 42 82 40.6569 82 39V25C82 23.3431 80.6569 22 79 22H65ZM76.7071 35.7071L72.7071 39.7071C72.3166 40.0976 71.6834 40.0976 71.2929 39.7071L67.2929 35.7071C66.9024 35.3166 66.9024 34.6834 67.2929 34.2929C67.6834 33.9024 68.3166 33.9024 68.7071 34.2929L71 36.5858V25C71 24.4477 71.4477 24 72 24C72.5523 24 73 24.4477 73 25V36.5858L75.2929 34.2929C75.6834 33.9024 76.3166 33.9024 76.7071 34.2929C77.0976 34.6834 77.0976 35.3166 76.7071 35.7071Z" fill="black"/>
</svg>
