<svg width="104" height="64" viewBox="0 0 104 64" fill="none" xmlns="http://www.w3.org/2000/svg">
<path fill-rule="evenodd" clip-rule="evenodd" d="M65 22C63.3431 22 62 23.3431 62 25V39C62 40.6569 63.3431 42 65 42H79C80.6569 42 82 40.6569 82 39V25C82 23.3431 80.6569 22 79 22H65ZM72.7071 24.2929C72.3166 23.9024 71.6834 23.9024 71.2929 24.2929L67.2929 28.2929C66.9024 28.6834 66.9024 29.3166 67.2929 29.7071C67.6834 30.0976 68.3166 30.0976 68.7071 29.7071L71 27.4142V39C71 39.5523 71.4477 40 72 40C72.5523 40 73 39.5523 73 39V27.4142L75.2929 29.7071C75.6834 30.0976 76.3166 30.0976 76.7071 29.7071C77.0976 29.3166 77.0976 28.6834 76.7071 28.2929L72.7071 24.2929Z" fill="black"/>
<path d="M31.2929 22.2929C31.6834 21.9024 32.3166 21.9024 32.7071 22.2929L36.7071 26.2929C37.0976 26.6834 37.0976 27.3166 36.7071 27.7071C36.3166 28.0976 35.6834 28.0976 35.2929 27.7071L33 25.4142V41C33 41.5523 32.5523 42 32 42C31.4477 42 31 41.5523 31 41V25.4142L28.7071 27.7071C28.3166 28.0976 27.6834 28.0976 27.2929 27.7071C26.9024 27.3166 26.9024 26.6834 27.2929 26.2929L31.2929 22.2929Z" fill="black"/>
</svg>
