<svg width="104" height="64" viewBox="0 0 104 64" fill="none" xmlns="http://www.w3.org/2000/svg">
<path d="M39.3646 38.3639C39.3646 38.9162 38.9169 39.3639 38.3646 39.3639H32.7078C32.1555 39.3639 31.7078 38.9162 31.7078 38.3639C31.7078 37.8116 32.1555 37.3639 32.7078 37.3639H35.9504L24.9296 26.3431C24.5391 25.9526 24.5391 25.3194 24.9296 24.9289C25.3201 24.5384 25.9533 24.5384 26.3438 24.9289L37.3646 35.9497V32.7071C37.3646 32.1548 37.8124 31.7071 38.3646 31.7071C38.9169 31.7071 39.3646 32.1548 39.3646 32.7071V38.3639Z" fill="black"/>
<path fill-rule="evenodd" clip-rule="evenodd" d="M65 22C63.3431 22 62 23.3431 62 25V39C62 40.6569 63.3431 42 65 42H79C80.6569 42 82 40.6569 82 39V25C82 23.3431 80.6569 22 79 22H65ZM79.3641 38.364C79.3641 38.9162 78.9164 39.364 78.3641 39.364H72.7072C72.1549 39.364 71.7072 38.9162 71.7072 38.364C71.7072 37.8117 72.1549 37.364 72.7072 37.364H75.9499L64.929 26.3431C64.5385 25.9526 64.5385 25.3195 64.929 24.9289C65.3196 24.5384 65.9527 24.5384 66.3433 24.9289L77.3641 35.9497V32.7071C77.3641 32.1548 77.8118 31.7071 78.3641 31.7071C78.9164 31.7071 79.3641 32.1548 79.3641 32.7071V38.364Z" fill="black"/>
</svg>
