<svg width="104" height="64" viewBox="0 0 104 64" fill="none" xmlns="http://www.w3.org/2000/svg">
<path d="M24.6367 25.636C24.6367 25.0837 25.0844 24.636 25.6367 24.636H31.2936C31.8459 24.636 32.2936 25.0837 32.2936 25.636C32.2936 26.1883 31.8459 26.636 31.2936 26.636L28.0509 26.636L39.0717 37.6568C39.4623 38.0473 39.4623 38.6805 39.0717 39.071C38.6812 39.4615 38.0481 39.4615 37.6575 39.071L26.6367 28.0502L26.6367 31.2928C26.6367 31.8451 26.189 32.2928 25.6367 32.2928C25.0844 32.2928 24.6367 31.8451 24.6367 31.2928V25.636Z" fill="black"/>
<path fill-rule="evenodd" clip-rule="evenodd" d="M65 22C63.3431 22 62 23.3431 62 25V39C62 40.6569 63.3431 42 65 42H79C80.6569 42 82 40.6569 82 39V25C82 23.3431 80.6569 22 79 22H65ZM64.6359 25.636C64.6359 25.0838 65.0836 24.636 65.6359 24.636H71.2928C71.8451 24.636 72.2928 25.0838 72.2928 25.636C72.2928 26.1883 71.8451 26.636 71.2928 26.636H68.0501L79.071 37.6569C79.4615 38.0474 79.4615 38.6805 79.071 39.0711C78.6804 39.4616 78.0473 39.4616 77.6567 39.0711L66.6359 28.0503V31.2929C66.6359 31.8452 66.1882 32.2929 65.6359 32.2929C65.0836 32.2929 64.6359 31.8452 64.6359 31.2929L64.6359 25.636Z" fill="black"/>
</svg>
