<svg width="104" height="64" viewBox="0 0 104 64" fill="none" xmlns="http://www.w3.org/2000/svg">
<path d="M40.779 24.2218C40.779 23.6695 40.3313 23.2218 39.779 23.2218H35.5364C34.9841 23.2218 34.5364 23.6695 34.5364 24.2218C34.5364 24.7741 34.9841 25.2218 35.5364 25.2218H37.3648L25.2227 37.3639L25.2227 35.5355C25.2227 34.9832 24.7749 34.5355 24.2227 34.5355C23.6704 34.5355 23.2227 34.9832 23.2227 35.5355V39.7782C23.2227 40.3304 23.6704 40.7782 24.2227 40.7782H28.4653C29.0176 40.7782 29.4653 40.3304 29.4653 39.7782C29.4653 39.2259 29.0176 38.7782 28.4653 38.7782L26.6369 38.7781L38.779 26.636V28.4644C38.779 29.0167 39.2267 29.4644 39.779 29.4644C40.3313 29.4644 40.779 29.0167 40.779 28.4644V24.2218Z" fill="black"/>
<path fill-rule="evenodd" clip-rule="evenodd" d="M65 22C63.3431 22 62 23.3431 62 25V39C62 40.6569 63.3431 42 65 42H79C80.6569 42 82 40.6569 82 39V25C82 23.3431 80.6569 22 79 22H65ZM79.571 25.6213C79.571 25.069 79.1233 24.6213 78.571 24.6213H74.3284C73.7761 24.6213 73.3284 25.069 73.3284 25.6213C73.3284 26.1736 73.7761 26.6213 74.3284 26.6213H76.1568L66.4289 36.3492L66.4289 34.5208C66.4289 33.9685 65.9812 33.5208 65.4289 33.5208C64.8766 33.5208 64.4289 33.9685 64.4289 34.5208L64.4289 38.7635C64.4289 39.3157 64.8766 39.7635 65.4289 39.7635H69.6715C70.2238 39.7635 70.6715 39.3157 70.6715 38.7635C70.6715 38.2112 70.2238 37.7635 69.6715 37.7635H67.8431L77.571 28.0355V29.864C77.571 30.4162 78.0187 30.864 78.571 30.864C79.1233 30.864 79.571 30.4162 79.571 29.864V25.6213Z" fill="black"/>
</svg>
