<svg width="104" height="64" viewBox="0 0 104 64" fill="none" xmlns="http://www.w3.org/2000/svg">
<path d="M24.6367 38.3639C24.6367 38.9162 25.0844 39.3639 25.6367 39.3639H31.2936C31.8459 39.3639 32.2936 38.9162 32.2936 38.3639C32.2936 37.8116 31.8459 37.3639 31.2936 37.3639H28.0509L39.0717 26.3431C39.4623 25.9526 39.4623 25.3194 39.0717 24.9289C38.6812 24.5384 38.0481 24.5384 37.6575 24.9289L26.6367 35.9497L26.6367 32.7071C26.6367 32.1548 26.189 31.7071 25.6367 31.7071C25.0844 31.7071 24.6367 32.1548 24.6367 32.7071V38.3639Z" fill="black"/>
<path fill-rule="evenodd" clip-rule="evenodd" d="M65 22C63.3431 22 62 23.3431 62 25V39C62 40.6569 63.3431 42 65 42H79C80.6569 42 82 40.6569 82 39V25C82 23.3431 80.6569 22 79 22H65ZM64.6359 38.364C64.6359 38.9162 65.0836 39.364 65.6359 39.364H71.2928C71.8451 39.364 72.2928 38.9162 72.2928 38.364C72.2928 37.8117 71.8451 37.364 71.2928 37.364H68.0501L79.071 26.3431C79.4615 25.9526 79.4615 25.3195 79.071 24.9289C78.6804 24.5384 78.0473 24.5384 77.6567 24.9289L66.6359 35.9497V32.7071C66.6359 32.1548 66.1882 31.7071 65.6359 31.7071C65.0836 31.7071 64.6359 32.1548 64.6359 32.7071L64.6359 38.364Z" fill="black"/>
</svg>
