<svg width="104" height="64" viewBox="0 0 104 64" fill="none" xmlns="http://www.w3.org/2000/svg">
<path d="M32.7078 24.636C32.1555 24.636 31.7078 25.0837 31.7078 25.636C31.7078 26.1883 32.1555 26.636 32.7078 26.636H35.9504L24.9296 37.6568C24.5391 38.0473 24.5391 38.6805 24.9296 39.071C25.3201 39.4615 25.9533 39.4615 26.3438 39.071L37.3646 28.0502V31.2928C37.3646 31.8451 37.8124 32.2928 38.3646 32.2928C38.9169 32.2928 39.3646 31.8451 39.3646 31.2928V25.636C39.3646 25.0837 38.9169 24.636 38.3646 24.636H32.7078Z" fill="black"/>
<path fill-rule="evenodd" clip-rule="evenodd" d="M65 22C63.3431 22 62 23.3431 62 25V39C62 40.6569 63.3431 42 65 42H79C80.6569 42 82 40.6569 82 39V25C82 23.3431 80.6569 22 79 22H65ZM79.3641 25.636C79.3641 25.0838 78.9164 24.636 78.3641 24.636H72.7072C72.1549 24.636 71.7072 25.0838 71.7072 25.636C71.7072 26.1883 72.1549 26.636 72.7072 26.636H75.9499L64.929 37.6569C64.5385 38.0474 64.5385 38.6805 64.929 39.0711C65.3196 39.4616 65.9527 39.4616 66.3433 39.0711L77.3641 28.0503V31.2929C77.3641 31.8452 77.8118 32.2929 78.3641 32.2929C78.9164 32.2929 79.3641 31.8452 79.3641 31.2929V25.636Z" fill="black"/>
</svg>
