<svg width="104" height="64" viewBox="0 0 104 64" fill="none" xmlns="http://www.w3.org/2000/svg">
<path d="M41.7071 32.7071C42.0976 32.3166 42.0976 31.6834 41.7071 31.2929L37.7071 27.2929C37.3166 26.9024 36.6834 26.9024 36.2929 27.2929C35.9024 27.6834 35.9024 28.3166 36.2929 28.7071L38.5858 31L23 31C22.4477 31 22 31.4477 22 32C22 32.5523 22.4477 33 23 33L38.5858 33L36.2929 35.2929C35.9024 35.6834 35.9024 36.3166 36.2929 36.7071C36.6834 37.0976 37.3166 37.0976 37.7071 36.7071L41.7071 32.7071Z" fill="black"/>
<path fill-rule="evenodd" clip-rule="evenodd" d="M65 22C63.3431 22 62 23.3431 62 25V39C62 40.6569 63.3431 42 65 42H79C80.6569 42 82 40.6569 82 39V25C82 23.3431 80.6569 22 79 22H65ZM79.7071 32.7071C80.0976 32.3166 80.0976 31.6834 79.7071 31.2929L75.7071 27.2929C75.3166 26.9024 74.6834 26.9024 74.2929 27.2929C73.9024 27.6834 73.9024 28.3166 74.2929 28.7071L76.5858 31H65C64.4477 31 64 31.4477 64 32C64 32.5523 64.4477 33 65 33H76.5858L74.2929 35.2929C73.9024 35.6834 73.9024 36.3166 74.2929 36.7071C74.6834 37.0976 75.3166 37.0976 75.7071 36.7071L79.7071 32.7071Z" fill="black"/>
</svg>
