<svg width="104" height="64" viewBox="0 0 104 64" fill="none" xmlns="http://www.w3.org/2000/svg">
<path d="M38.2652 21.8568C37.8409 21.5032 37.2104 21.5606 36.8568 21.9848C36.5032 22.4091 36.5606 23.0397 36.9849 23.3932L38.3295 24.5138C35.4905 25.3451 33.1875 27.3913 32 30.0379C30.8126 27.3913 28.5096 25.3451 25.6705 24.5138L27.0152 23.3932C27.4395 23.0397 27.4968 22.4091 27.1433 21.9848C26.7897 21.5606 26.1591 21.5032 25.7349 21.8568L22.737 24.355C22.531 24.5257 22.3937 24.7782 22.3768 25.0663C22.3657 25.2539 22.4072 25.4325 22.4884 25.5878L24.4806 29.5722C24.7276 30.0662 25.3283 30.2664 25.8222 30.0195C26.3162 29.7725 26.5165 29.1718 26.2695 28.6778L25.1541 26.4471C28.4798 27.4432 30.875 30.5252 30.875 34.1397L30.875 41.625C30.875 42.1773 31.3228 42.625 31.875 42.625C31.9174 42.625 31.9591 42.6224 32 42.6173C32.041 42.6224 32.0827 42.625 32.125 42.625C32.6773 42.625 33.125 42.1773 33.125 41.625V34.1397C33.125 30.5252 35.5202 27.4432 38.846 26.4471L37.7306 28.6778C37.4836 29.1718 37.6838 29.7725 38.1778 30.0195C38.6718 30.2664 39.2725 30.0662 39.5195 29.5722L41.5117 25.5878C41.5929 25.4325 41.6344 25.2539 41.6233 25.0663C41.6064 24.7782 41.469 24.5257 41.2631 24.355L38.2652 21.8568Z" fill="black"/>
<path fill-rule="evenodd" clip-rule="evenodd" d="M62 25C62 23.3431 63.3431 22 65 22H79C80.6569 22 82 23.3431 82 25V39C82 40.6569 80.6569 42 79 42H65C63.3431 42 62 40.6569 62 39V25ZM75.797 23.7747C76.1506 23.3504 76.7811 23.2931 77.2054 23.6466L79.6381 25.6739C79.844 25.8446 79.9813 26.097 79.9983 26.3851C80.0093 26.5728 79.9679 26.7514 79.8866 26.9066L78.2712 30.1374C78.0242 30.6314 77.4236 30.8316 76.9296 30.5846C76.4356 30.3377 76.2354 29.737 76.4824 29.243L77.1827 27.8423C74.7863 28.752 73.1015 31.0688 73.1015 33.7601V39.8351C73.1014 40.3874 72.6537 40.8351 72.1015 40.8351C72.0672 40.8351 72.0334 40.8334 72 40.8301C71.9666 40.8334 71.9328 40.8351 71.8986 40.8351C71.3463 40.8351 70.8986 40.3874 70.8986 39.8351L70.8986 33.7601C70.8986 31.0688 69.2137 28.752 66.8173 27.8423L67.5176 29.243C67.7646 29.737 67.5644 30.3377 67.0704 30.5846C66.5764 30.8316 65.9758 30.6314 65.7288 30.1374L64.1134 26.9066C64.0321 26.7514 63.9907 26.5728 64.0017 26.3851C64.0187 26.097 64.156 25.8446 64.3619 25.6739L66.7946 23.6466C67.2189 23.2931 67.8494 23.3504 68.203 23.7747C68.5566 24.199 68.4992 24.8295 68.075 25.1831L67.2484 25.8719C69.3249 26.5761 71.0246 28.0731 72 29.9942C72.9754 28.0731 74.6751 26.5761 76.7516 25.8719L75.925 25.1831C75.5008 24.8295 75.4434 24.199 75.797 23.7747Z" fill="black"/>
</svg>
