<svg width="104" height="64" viewBox="0 0 104 64" fill="none" xmlns="http://www.w3.org/2000/svg">
<path d="M24.7929 26.2071C24.4024 25.8166 24.4024 25.1834 24.7929 24.7929C25.1834 24.4024 25.8166 24.4024 26.2071 24.7929L29.4645 28.0503V26.2218C29.4645 25.6695 29.9122 25.2218 30.4645 25.2218C31.0168 25.2218 31.4645 25.6695 31.4645 26.2218V30.4645C31.4645 31.0168 31.0168 31.4645 30.4645 31.4645L26.2218 31.4645C25.6695 31.4645 25.2218 31.0168 25.2218 30.4645C25.2218 29.9122 25.6695 29.4645 26.2218 29.4645H28.0503L24.7929 26.2071Z" fill="black"/>
<path d="M33.5355 32.5355L37.7782 32.5355C38.3305 32.5355 38.7782 32.9832 38.7782 33.5355C38.7782 34.0878 38.3305 34.5355 37.7782 34.5355L35.9497 34.5355L39.2071 37.7929C39.5976 38.1834 39.5976 38.8166 39.2071 39.2071C38.8166 39.5976 38.1834 39.5976 37.7929 39.2071L34.5355 35.9497L34.5355 37.7782C34.5355 38.3305 34.0878 38.7782 33.5355 38.7782C32.9832 38.7782 32.5355 38.3305 32.5355 37.7782L32.5355 33.5355C32.5355 32.9833 32.9833 32.5355 33.5355 32.5355Z" fill="black"/>
<path fill-rule="evenodd" clip-rule="evenodd" d="M65 22C63.3431 22 62 23.3431 62 25V39C62 40.6569 63.3431 42 65 42H79C80.6569 42 82 40.6569 82 39V25C82 23.3431 80.6569 22 79 22H65ZM64.7929 24.7929C64.4024 25.1834 64.4024 25.8166 64.7929 26.2071L68.0503 29.4645H66.2219C65.6696 29.4645 65.2219 29.9122 65.2219 30.4645C65.2219 31.0168 65.6696 31.4645 66.2219 31.4645H70.4645C71.0168 31.4645 71.4645 31.0168 71.4645 30.4645V26.2218C71.4645 25.6695 71.0168 25.2218 70.4645 25.2218C69.9122 25.2218 69.4645 25.6695 69.4645 26.2218V28.0503L66.2071 24.7929C65.8166 24.4024 65.1834 24.4024 64.7929 24.7929ZM77.7782 32.5355L73.5356 32.5355C72.9833 32.5355 72.5356 32.9833 72.5356 33.5355L72.5356 37.7782C72.5356 38.3305 72.9833 38.7782 73.5356 38.7782C74.0878 38.7782 74.5356 38.3305 74.5356 37.7782L74.5356 35.9497L77.7929 39.2071C78.1834 39.5976 78.8166 39.5976 79.2071 39.2071C79.5977 38.8166 79.5977 38.1834 79.2071 37.7929L75.9498 34.5355L77.7782 34.5355C78.3305 34.5355 78.7782 34.0878 78.7782 33.5355C78.7782 32.9832 78.3305 32.5355 77.7782 32.5355Z" fill="black"/>
</svg>
