<svg width="104" height="64" viewBox="0 0 104 64" fill="none" xmlns="http://www.w3.org/2000/svg">
<g clip-path="url(#clip0_8791_25358)">
<path d="M40 32C40 32 39.994 34.5181 39.5 36C39.4815 36.0556 39.4628 36.1129 39.4439 36.1718C38.8225 38.1138 35.7755 38.0203 35.5 36M28 33.4C28 36.155 30.699 38.1003 33.3126 37.2291L33.4718 37.1761C33.8224 37.0592 34.1558 36.8961 34.4632 36.6912L35.5 36M35.5 36C35.26 34.9878 35.8969 34.3882 36.1988 33.0694C36.4267 32.0735 36.1214 31.0637 35.4519 30.292C34.74 29.4713 33.707 29 32.6206 29L32.3473 29C29.9464 29 28 30.9464 28 33.3473L28 33.6154M34.5 40L31.964 40.2415C27.6933 40.6483 24 37.2899 24 33C24 28.5817 27.5817 25 32 25L32.5333 25C36.6571 25 40 28.3429 40 32.4667" stroke="black" stroke-width="2" stroke-linecap="round" stroke-linejoin="round"/>
</g>
<g clip-path="url(#clip1_8791_25358)">
<path d="M80 32C80 32 79.994 34.5181 79.5 36C79.4815 36.0556 79.4628 36.1129 79.4439 36.1718C78.8225 38.1138 75.7755 38.0203 75.5 36M68 33.4C68 36.155 70.699 38.1003 73.3126 37.2291L73.4718 37.1761C73.8224 37.0592 74.1558 36.8961 74.4632 36.6912L75.5 36M75.5 36C75.26 34.9878 75.8969 34.3882 76.1988 33.0694C76.4267 32.0735 76.1214 31.0637 75.4519 30.292C74.74 29.4713 73.707 29 72.6206 29L72.3473 29C69.9464 29 68 30.9464 68 33.3473L68 33.6154M74.5 40L71.964 40.2415C67.6933 40.6483 64 37.2899 64 33C64 28.5817 67.5817 25 72 25L72.5333 25C76.6571 25 80 28.3429 80 32.4667" stroke="black" stroke-width="2" stroke-linecap="round" stroke-linejoin="round"/>
</g>
<defs>
<clipPath id="clip0_8791_25358">
<rect width="24" height="24" fill="white" transform="translate(20 20)"/>
</clipPath>
<clipPath id="clip1_8791_25358">
<rect width="24" height="24" fill="white" transform="translate(60 20)"/>
</clipPath>
</defs>
</svg>
