<svg width="104" height="64" viewBox="0 0 104 64" fill="none" xmlns="http://www.w3.org/2000/svg">
<path fill-rule="evenodd" clip-rule="evenodd" d="M29.1545 26.7825C30.9206 25.8999 33 27.1832 33 29.1586V29.3586L38.1545 26.7825C39.9206 25.8999 42 27.1832 42 29.1586V34.8414C42 36.8169 39.9206 38.1002 38.1545 37.2175L33 34.6415V34.8414C33 36.8169 30.9206 38.1002 29.1545 37.2175L23.4691 34.3761C21.5103 33.3972 21.5103 30.6028 23.4691 29.6239L29.1545 26.7825ZM31 29.1586C31 28.6713 30.4863 28.3528 30.0486 28.5715L24.3632 31.4129C23.8789 31.6549 23.8789 32.3451 24.3632 32.5871L30.0486 35.4285C30.4863 35.6473 31 35.3287 31 34.8414V29.1586ZM33 32.0015C33.0005 32.234 33.1216 32.4664 33.3632 32.5871L39.0486 35.4285C39.4863 35.6473 40 35.3287 40 34.8414V29.1586C40 28.6713 39.4863 28.3528 39.0486 28.5715L33.3632 31.4129C33.1216 31.5337 33.0005 31.766 33 31.9986V32.0015Z" fill="black"/>
<path d="M69.6016 27.4771L63.9161 30.3184C62.6946 30.9289 62.6946 32.6712 63.9161 33.2817L69.6016 36.123C70.7035 36.6737 72 35.8728 72 34.6414V31.8022C72.0007 32.3897 72.3061 32.9768 72.9161 33.2817L78.6016 36.123C79.7035 36.6737 81 35.8728 81 34.6414V28.9587C81 27.7273 79.7035 26.9264 78.6016 27.4771L72.9161 30.3184C72.3061 30.6233 72.0007 31.2104 72 31.7979V28.9587C72 27.7273 70.7035 26.9264 69.6016 27.4771Z" fill="black"/>
</svg>
