<svg width="104" height="64" viewBox="0 0 104 64" fill="none" xmlns="http://www.w3.org/2000/svg">
<path fill-rule="evenodd" clip-rule="evenodd" d="M40.4806 27.9877C40.0627 26.327 38.6199 25.144 36.9447 25.0123C36.8603 24.7469 36.7636 24.4845 36.653 24.2284C36.2931 23.3954 35.7658 22.5833 34.9889 21.9772C34.1975 21.3598 33.2023 21 32 21C30.7977 21 29.8026 21.3598 29.0111 21.9772C28.2342 22.5833 27.7069 23.3954 27.347 24.2284C27.2364 24.4845 27.1397 24.7469 27.0553 25.0123C25.3801 25.144 23.9373 26.327 23.5194 27.9877C22.5224 31.9485 22.034 34.8632 22.0017 37.0021C21.9697 39.1254 22.3841 40.6872 23.4272 41.6981C24.4566 42.6958 25.8779 42.9346 27.2675 42.9874C27.9795 43.0145 28.7475 42.9933 29.5312 42.9672L29.8185 42.9575C30.5222 42.9336 31.2458 42.9091 32 42.9091C32.7541 42.9091 33.4776 42.9336 34.1813 42.9575L34.4688 42.9672C35.2525 42.9933 36.0205 43.0145 36.7325 42.9874C38.1221 42.9345 39.5434 42.6958 40.5727 41.6981C41.6158 40.6872 42.0303 39.1254 41.9983 37.0021C41.966 34.8632 41.4776 31.9485 40.4806 27.9877ZM28.5 29C28.5 28.4218 28.5357 27.7193 28.6457 27H35.3543C35.4643 27.7193 35.5 28.4218 35.5 29C35.5 29.5523 35.9477 30 36.5 30C37.0523 30 37.5 29.5523 37.5 29C37.5 28.4854 37.4755 27.845 37.3931 27.1524C37.9522 27.3858 38.3885 27.8693 38.5411 28.4758C39.5274 32.3945 39.9698 35.1292 39.9985 37.0323C40.0275 38.9508 39.6333 39.8234 39.1808 40.262C38.7147 40.7138 37.9535 40.9395 36.6565 40.9888C36.0252 41.0128 35.324 40.9945 34.5352 40.9683L34.2508 40.9587C33.5497 40.9349 32.7905 40.9091 32 40.9091C31.2094 40.9091 30.4503 40.9349 29.7492 40.9587L29.4648 40.9683C28.676 40.9945 27.9748 41.0128 27.3435 40.9888C26.0465 40.9395 25.2853 40.7138 24.8192 40.262C24.3667 39.8234 23.9725 38.9508 24.0015 37.0323C24.0302 35.1292 24.4726 32.3945 25.4589 28.4758C25.6115 27.8693 26.0478 27.3858 26.6069 27.1524C26.5245 27.845 26.5 28.4854 26.5 29C26.5 29.5523 26.9477 30 27.5 30C28.0523 30 28.5 29.5523 28.5 29ZM33.7586 23.5541C34.1917 23.8919 34.5388 24.3848 34.8076 25H29.1924C29.4612 24.3848 29.8083 23.8919 30.2414 23.5541C30.665 23.2236 31.2223 23 32 23C32.7777 23 33.335 23.2236 33.7586 23.5541Z" fill="black"/>
<path fill-rule="evenodd" clip-rule="evenodd" d="M66.7836 26.0578C66.9109 25.4434 67.092 24.8188 67.347 24.2284C67.7069 23.3954 68.2342 22.5833 69.0111 21.9772C69.8026 21.3598 70.7977 21 72 21C73.2023 21 74.1975 21.3598 74.9889 21.9772C75.7658 22.5833 76.2931 23.3954 76.653 24.2284C76.908 24.8188 77.0891 25.4434 77.2164 26.0578C78.3183 26.2785 79.229 27.112 79.5109 28.2318C83.0412 42.2578 79.9015 42.1512 74.2161 41.9581C73.5137 41.9343 72.7724 41.9091 72 41.9091C71.2276 41.9091 70.4863 41.9343 69.7839 41.9581C64.0986 42.1512 60.9588 42.2578 64.4891 28.2318C64.771 27.112 65.6817 26.2785 66.7836 26.0578ZM68.8504 26C68.9392 25.6626 69.0487 25.3326 69.183 25.0216C69.4531 24.3963 69.8033 23.8959 70.2414 23.5541C70.665 23.2236 71.2223 23 72 23C72.7777 23 73.335 23.2236 73.7586 23.5541C74.1967 23.8958 74.5469 24.3963 74.817 25.0216C74.9514 25.3326 75.0609 25.6626 75.1496 26H68.8504Z" fill="black"/>
</svg>
