<svg width="104" height="64" viewBox="0 0 104 64" fill="none" xmlns="http://www.w3.org/2000/svg">
<path fill-rule="evenodd" clip-rule="evenodd" d="M34.0071 27.0082C32.7659 26.2882 31.2341 26.2882 29.9929 27.0082L29.3375 27.3884L28.6805 27.7659C27.4364 28.4808 26.6705 29.8074 26.6734 31.2423L26.675 32L26.6734 32.7577C26.6705 34.1926 27.4364 35.5192 28.6805 36.2341L29.3357 36.6106L29.3393 36.6126L29.9929 36.9918C31.2341 37.7118 32.7659 37.7118 34.0071 36.9918L34.6607 36.6126L34.6643 36.6106L35.3195 36.2341C36.5636 35.5192 37.3295 34.1926 37.3266 32.7577L37.325 32.0021V31.9979L37.3266 31.2423C37.3295 29.8074 36.5636 28.4808 35.3195 27.7659L34.6643 27.3894L34.0071 27.0082ZM30.3393 29.1194L30.9965 28.7382C31.6171 28.3782 32.3829 28.3782 33.0035 28.7382L33.6607 29.1194L33.6643 29.1215L34.323 29.5C34.9451 29.8575 35.328 30.5207 35.3266 31.2382L35.325 31.9979V32.0021L35.3266 32.7618C35.328 33.4793 34.9451 34.1425 34.323 34.5L33.6643 34.8785L33.6607 34.8806L33.0036 35.2618C32.3829 35.6218 31.6171 35.6218 30.9964 35.2618L30.3393 34.8806L30.3357 34.8785L29.677 34.5C29.0549 34.1425 28.672 33.4793 28.6734 32.7618L28.675 32.0021L28.6734 31.2382C28.672 30.5207 29.0549 29.8575 29.677 29.5L30.3357 29.1215L30.3393 29.1194Z" fill="black"/>
<path fill-rule="evenodd" clip-rule="evenodd" d="M32 21C25.9249 21 21 25.9249 21 32C21 38.0751 25.9249 43 32 43C38.0751 43 43 38.0751 43 32C43 26.3634 38.7614 21.7183 33.2971 21.0758C32.8713 21.0257 32.4385 21 32 21ZM23 32C23 31.8399 23.0042 31.6808 23.0124 31.5228C24.3831 31.4518 25.6267 30.6814 26.2988 29.4759L26.6678 28.8141L27.0394 28.1539C27.6903 26.9975 27.7223 25.6006 27.1413 24.4228C28.5428 23.5223 30.2104 23 32 23C32.0609 23 32.1216 23.0006 32.1822 23.0018C32.2392 24.3688 32.9925 25.6173 34.1859 26.303L34.8411 26.6795L34.8446 26.6815L35.4982 27.0607C36.7235 27.7715 38.232 27.7806 39.4645 27.0881L39.5248 27.0609C40.4574 28.4789 41 30.1762 41 32C41 32.1715 40.9952 32.3418 40.9857 32.5109C39.552 32.5091 38.2268 33.2748 37.5124 34.518L37.136 35.1732L37.1339 35.1768L36.7548 35.8304C36.0636 37.0219 36.0359 38.4811 36.6717 39.6941C35.3099 40.5227 33.7107 41 32 41H31.9973C31.9346 39.6399 31.1826 38.3993 29.9945 37.7165L29.3393 37.3401L29.3357 37.338L28.6821 36.9588C27.4665 36.2537 25.9723 36.2391 24.7452 36.9151L24.5164 37.0013C23.5586 35.5709 23 33.8507 23 32ZM24.5519 28.502C24.2929 28.9667 23.864 29.3021 23.3671 29.4476C23.7801 28.0485 24.5239 26.7913 25.508 25.7667C25.6106 26.2384 25.5405 26.7394 25.2966 27.1728L24.9239 27.8349L24.9219 27.8385L24.5519 28.502ZM35.1823 24.5689C34.6923 24.2873 34.3506 23.8159 34.2284 23.2778C35.7421 23.6633 37.1026 24.4327 38.2001 25.4762C37.6462 25.6814 37.0228 25.633 36.5018 25.3307L35.8446 24.9495L35.841 24.9474L35.1823 24.5689ZM39.2465 35.5145C39.5452 34.9947 40.0574 34.6419 40.6364 34.5407C40.1981 36.0328 39.3837 37.364 38.3028 38.4245C38.1413 37.8986 38.202 37.3214 38.4848 36.8339L38.866 36.1768L38.868 36.1732L39.2465 35.5145ZM28.998 39.4506C29.4958 39.7367 29.8404 40.2185 29.9576 40.7672C28.401 40.4061 26.9993 39.641 25.8688 38.5885C26.4492 38.3327 27.1223 38.3661 27.6786 38.6888L28.3357 39.0701L28.3393 39.0721L28.998 39.4506Z" fill="black"/>
<path d="M62.019 31.3789C62.0064 31.5843 62 31.7914 62 32Z" fill="black"/>
<path d="M62.36 29.3316L62.1895 30.3552L62.019 31.3789" fill="black"/>
<path d="M70.9965 28.7382L70.3357 29.1215L69.677 29.5C69.0549 29.8574 68.672 30.5207 68.6734 31.2382L68.675 32.002L68.6734 32.7618C68.672 33.4792 69.0549 34.1425 69.677 34.5L70.3393 34.8805L70.9964 35.2618C71.6171 35.6218 72.3829 35.6218 73.0036 35.2618L73.6643 34.8785L74.323 34.5C74.9451 34.1425 75.328 33.4792 75.3266 32.7618L75.325 32.002V31.9979L75.3266 31.2382C75.328 30.5207 74.9451 29.8574 74.323 29.5L73.6607 29.1194L73.0035 28.7382C72.3829 28.3782 71.6171 28.3782 70.9965 28.7382Z" fill="black"/>
<path d="M69.8781 41.7744C68.0403 41.3773 66.3905 40.475 65.0813 39.2202C65.7775 38.858 66.6135 38.875 67.2966 39.2712L68.0195 39.6906L68.023 39.6926L68.7476 40.109C69.3654 40.464 69.7781 41.0812 69.8781 41.7744Z" fill="black"/>
<path d="M81.184 35.9629C80.6453 37.2098 79.8601 38.3252 78.8898 39.2478C78.6418 38.604 78.6941 37.875 79.0467 37.2672L79.4661 36.5443L79.4681 36.5407L79.8845 35.8161C80.2545 35.1722 80.9095 34.7511 81.6383 34.6746C81.5158 35.1171 81.3636 35.5473 81.184 35.9629Z" fill="black"/>
<path d="M64.9111 24.9468C63.716 26.1479 62.8242 27.651 62.36 29.3316C63.0037 29.1959 63.5671 28.7882 63.8945 28.2009L64.3034 27.4674L64.7134 26.7392C65.0244 26.1866 65.0896 25.5386 64.9111 24.9468Z" fill="black"/>
<path d="M78.9997 24.8582C78.3284 25.1605 77.5468 25.1245 76.9018 24.7503L76.1789 24.3309L76.1753 24.3289L75.4507 23.9125C74.8402 23.5617 74.4299 22.9547 74.3239 22.2714C76.1184 22.6985 77.7255 23.6092 78.9997 24.8582Z" fill="black"/>
<path fill-rule="evenodd" clip-rule="evenodd" d="M62.0841 31.3764L62 32C62 34.0848 62.638 36.0206 63.7294 37.6229L64.0617 37.4977C65.382 36.7675 66.9913 36.782 68.3001 37.5412L69.0195 37.9585L69.023 37.9606L69.7441 38.3749C71.049 39.1247 71.8644 40.5004 71.9005 41.9995C71.9336 41.9998 71.9668 42 72 42C73.9347 42 75.7411 41.4505 77.2716 40.4992C76.543 39.1795 76.5581 37.5715 77.3167 36.2636L77.734 35.5443L77.7361 35.5407L78.1504 34.8197C78.9187 33.4827 80.344 32.6594 81.886 32.662H81.9784C81.9927 32.4432 82 32.2225 82 32C82 31.7429 81.9903 31.488 81.9712 31.2357C81.8378 29.4699 81.2456 27.8321 80.3137 26.441L80.1659 26.5075C78.8402 27.2542 77.2167 27.2451 75.8982 26.4803L75.1789 26.063L75.1753 26.0609L74.4543 25.6466C73.1443 24.8939 72.3275 23.5103 72.2975 22.0043C72.1987 22.0015 72.0995 22 72 22C69.9792 22 68.0984 22.5994 66.5257 23.6301C67.1915 24.9125 67.1706 26.4511 66.4562 27.7202L66.0463 28.4485L65.6413 29.1748C64.9149 30.4779 63.5672 31.308 62.0841 31.3764ZM74.6643 27.3894L74.0071 27.0082C72.7659 26.2882 71.2341 26.2882 69.9929 27.0082L69.3375 27.3884L68.6805 27.7659C67.4364 28.4808 66.6705 29.8074 66.6734 31.2423L66.675 32L66.6734 32.7577C66.6705 34.1926 67.4364 35.5191 68.6805 36.2341L69.3357 36.6105L69.3393 36.6126L69.9929 36.9917C71.2341 37.7118 72.7659 37.7118 74.0071 36.9917L74.6607 36.6126L74.6643 36.6105L75.3195 36.2341C76.5636 35.5191 77.3295 34.1926 77.3266 32.7577L77.325 32.002V31.9979L77.3266 31.2423C77.3295 29.8074 76.5636 28.4808 75.3195 27.7659L74.6643 27.3894Z" fill="black"/>
<path d="M62.019 31.3789L62 32L62.0841 31.3764C62.0624 31.3774 62.0407 31.3782 62.019 31.3789Z" fill="black"/>
</svg>
