<svg width="104" height="64" viewBox="0 0 104 64" fill="none" xmlns="http://www.w3.org/2000/svg">
<path fill-rule="evenodd" clip-rule="evenodd" d="M32.6325 22.1567C32.2219 22.0199 31.7781 22.0199 31.3675 22.1567L23.3675 24.8234C22.5509 25.0956 22 25.8599 22 26.7207V29C22 30.1046 22.8954 31 24 31H25V36H24C22.8954 36 22 36.8954 22 38V40C22 41.1046 22.8954 42 24 42H40C41.1046 42 42 41.1046 42 40V38C42 36.8954 41.1046 36 40 36H39V31H40C41.1046 31 42 30.1046 42 29V26.7207C42 25.8599 41.4491 25.0956 40.6325 24.8234L32.6325 22.1567ZM37 36V31H35V36H37ZM33 36V31H31V36H33ZM29 36V31H27V36H29ZM24 38V40H40V38H24ZM24 29L24 26.7207L32 24.0541L40 26.7207V29H24Z" fill="black"/>
<path fill-rule="evenodd" clip-rule="evenodd" d="M71.6838 23.1054L63.6838 25.7721C63.2754 25.9082 63 26.2903 63 26.7207V29C63 29.5523 63.4477 30 64 30H65V37H64C63.4477 37 63 37.4477 63 38V40C63 40.5523 63.4477 41 64 41H80C80.5523 41 81 40.5523 81 40V38C81 37.4477 80.5523 37 80 37H79V30H80C80.5523 30 81 29.5523 81 29V26.7207C81 26.2903 80.7246 25.9082 80.3162 25.7721L72.3162 23.1054C72.111 23.037 71.889 23.037 71.6838 23.1054ZM77 37V30H75V37H77ZM73 37V30H71V37H73ZM69 37V30H67V37H69Z" fill="black"/>
</svg>
