<svg width="104" height="64" viewBox="0 0 104 64" fill="none" xmlns="http://www.w3.org/2000/svg">
<path fill-rule="evenodd" clip-rule="evenodd" d="M33 24.5C33 23.1193 31.8807 22 30.5 22H24.5C23.1193 22 22 23.1193 22 24.5V28.5C22 29.8807 23.1193 31 24.5 31H30.5C31.8807 31 33 29.8807 33 28.5V24.5ZM30.5 24C30.7761 24 31 24.2239 31 24.5V28.5C31 28.7761 30.7761 29 30.5 29L24.5 29C24.2239 29 24 28.7761 24 28.5L24 24.5C24 24.2239 24.2239 24 24.5 24L30.5 24Z" fill="black"/>
<path fill-rule="evenodd" clip-rule="evenodd" d="M42 35.5C42 34.1193 40.8807 33 39.5 33L24.5 33C23.1193 33 22 34.1193 22 35.5V39.5C22 40.8807 23.1193 42 24.5 42H39.5C40.8807 42 42 40.8807 42 39.5V35.5ZM39.5 35C39.7761 35 40 35.2239 40 35.5V39.5C40 39.7761 39.7761 40 39.5 40H24.5C24.2239 40 24 39.7761 24 39.5L24 35.5C24 35.2239 24.2239 35 24.5 35L39.5 35Z" fill="black"/>
<path d="M72 28.5V24.5C72 23.6716 71.3284 23 70.5 23L64.5 23C63.6716 23 63 23.6716 63 24.5L63 28.5C63 29.3284 63.6716 30 64.5 30L70.5 30C71.3284 30 72 29.3284 72 28.5Z" fill="black"/>
<path d="M81 39.5V35.5C81 34.6716 80.3284 34 79.5 34H64.5C63.6716 34 63 34.6716 63 35.5L63 39.5C63 40.3284 63.6716 41 64.5 41H79.5C80.3284 41 81 40.3284 81 39.5Z" fill="black"/>
</svg>
