<svg width="104" height="64" viewBox="0 0 104 64" fill="none" xmlns="http://www.w3.org/2000/svg">
<path fill-rule="evenodd" clip-rule="evenodd" d="M35.5 22C34.1193 22 33 23.1193 33 24.5V39.5C33 40.8807 34.1193 42 35.5 42H39.5C40.8807 42 42 40.8807 42 39.5V24.5C42 23.1193 40.8807 22 39.5 22H35.5ZM35 24.5C35 24.2239 35.2239 24 35.5 24H39.5C39.7761 24 40 24.2239 40 24.5V39.5C40 39.7761 39.7761 40 39.5 40H35.5C35.2239 40 35 39.7761 35 39.5V24.5Z" fill="black"/>
<path fill-rule="evenodd" clip-rule="evenodd" d="M24.5 31C23.1193 31 22 32.1193 22 33.5V39.5C22 40.8807 23.1193 42 24.5 42H28.5C29.8807 42 31 40.8807 31 39.5V33.5C31 32.1193 29.8807 31 28.5 31H24.5ZM24 33.5C24 33.2239 24.2239 33 24.5 33H28.5C28.7761 33 29 33.2239 29 33.5V39.5C29 39.7761 28.7761 40 28.5 40H24.5C24.2239 40 24 39.7761 24 39.5V33.5Z" fill="black"/>
<path d="M68.5 32H64.5C63.6716 32 63 32.6716 63 33.5V39.5C63 40.3284 63.6716 41 64.5 41H68.5C69.3284 41 70 40.3284 70 39.5V33.5C70 32.6716 69.3284 32 68.5 32Z" fill="black"/>
<path d="M79.5 23H75.5C74.6716 23 74 23.6716 74 24.5V39.5C74 40.3284 74.6716 41 75.5 41H79.5C80.3284 41 81 40.3284 81 39.5V24.5C81 23.6716 80.3284 23 79.5 23Z" fill="black"/>
</svg>
