<svg width="104" height="64" viewBox="0 0 104 64" fill="none" xmlns="http://www.w3.org/2000/svg">
<path fill-rule="evenodd" clip-rule="evenodd" d="M32 29.5257C32 28.1 30.0366 27.7139 29.4968 29.0334L28.2436 32.0967C27.8938 32.9519 28.5228 33.8889 29.4469 33.8889H30V34.4743C30 35.9 31.9634 36.2861 32.5032 34.9666L33.7564 31.9033C34.1062 31.0481 33.4772 30.1111 32.5531 30.1111H32V29.5257ZM30.4895 31.8889L30.5085 31.8425C30.5295 31.8586 30.5509 31.8741 30.5729 31.8889H30.4895ZM31.4915 32.1575C31.4705 32.1414 31.4491 32.1259 31.4271 32.1111H31.5105L31.4915 32.1575Z" fill="black"/>
<path fill-rule="evenodd" clip-rule="evenodd" d="M26 25C23.7909 25 22 26.7909 22 29V35C22 37.2091 23.7909 39 26 39H36C38.2091 39 40 37.2091 40 35V34.792C40.883 34.4062 41.5 33.5252 41.5 32.5V31.5C41.5 30.4748 40.883 29.5938 40 29.208V29C40 26.7909 38.2091 25 36 25H26ZM38 29C38 27.8954 37.1046 27 36 27H26C24.8954 27 24 27.8954 24 29V35C24 36.1046 24.8954 37 26 37H36C37.1046 37 38 36.1046 38 35V29Z" fill="black"/>
<path d="M70.4895 31.8889L70.5085 31.8425C70.5295 31.8586 70.5509 31.8741 70.5729 31.8889H70.4895Z" fill="black"/>
<path d="M71.4915 32.1575C71.4705 32.1414 71.4491 32.1259 71.4271 32.1111H71.5105L71.4915 32.1575Z" fill="black"/>
<path fill-rule="evenodd" clip-rule="evenodd" d="M76 26H66C64.3431 26 63 27.3431 63 29V35C63 36.6569 64.3431 38 66 38H76C77.6569 38 79 36.6569 79 35V34C79.8284 34 80.5 33.3284 80.5 32.5V31.5C80.5 30.6716 79.8284 30 79 30V29C79 27.3431 77.6569 26 76 26ZM72 29.5257C72 28.1 70.0366 27.7139 69.4968 29.0334L68.2436 32.0967C67.8938 32.9519 68.5228 33.8889 69.4469 33.8889H70V34.4743C70 35.9 71.9634 36.2861 72.5032 34.9666L73.7564 31.9033C74.1062 31.0481 73.4772 30.1111 72.5531 30.1111H72V29.5257Z" fill="black"/>
</svg>
