<svg width="104" height="64" viewBox="0 0 104 64" fill="none" xmlns="http://www.w3.org/2000/svg">
<path d="M26.5 28C27.0523 28 27.5 28.4477 27.5 29V35C27.5 35.5523 27.0523 36 26.5 36C25.9477 36 25.5 35.5523 25.5 35V29C25.5 28.4477 25.9477 28 26.5 28Z" fill="black"/>
<path d="M30.5 29C30.5 28.4477 30.0523 28 29.5 28C28.9477 28 28.5 28.4477 28.5 29V35C28.5 35.5523 28.9477 36 29.5 36C30.0523 36 30.5 35.5523 30.5 35V29Z" fill="black"/>
<path d="M32.5 28C33.0523 28 33.5 28.4477 33.5 29V35C33.5 35.5523 33.0523 36 32.5 36C31.9477 36 31.5 35.5523 31.5 35V29C31.5 28.4477 31.9477 28 32.5 28Z" fill="black"/>
<path d="M36.5 29C36.5 28.4477 36.0523 28 35.5 28C34.9477 28 34.5 28.4477 34.5 29V35C34.5 35.5523 34.9477 36 35.5 36C36.0523 36 36.5 35.5523 36.5 35V29Z" fill="black"/>
<path fill-rule="evenodd" clip-rule="evenodd" d="M22 29C22 26.7909 23.7909 25 26 25H36C38.2091 25 40 26.7909 40 29V29.208C40.883 29.5938 41.5 30.4748 41.5 31.5V32.5C41.5 33.5252 40.883 34.4062 40 34.792V35C40 37.2091 38.2091 39 36 39H26C23.7909 39 22 37.2091 22 35V29ZM38 35C38 36.1046 37.1046 37 36 37H26C24.8954 37 24 36.1046 24 35V29C24 27.8954 24.8954 27 26 27H36C37.1046 27 38 27.8954 38 29V35Z" fill="black"/>
<path fill-rule="evenodd" clip-rule="evenodd" d="M66 26H76C77.6569 26 79 27.3431 79 29V30C79.8284 30 80.5 30.6716 80.5 31.5V32.5C80.5 33.3284 79.8284 34 79 34V35C79 36.6569 77.6569 38 76 38H66C64.3431 38 63 36.6569 63 35V29C63 27.3431 64.3431 26 66 26ZM66.5 28C67.0523 28 67.5 28.4477 67.5 29V35C67.5 35.5523 67.0523 36 66.5 36C65.9477 36 65.5 35.5523 65.5 35V29C65.5 28.4477 65.9477 28 66.5 28ZM70.5 29C70.5 28.4477 70.0523 28 69.5 28C68.9477 28 68.5 28.4477 68.5 29V35C68.5 35.5523 68.9477 36 69.5 36C70.0523 36 70.5 35.5523 70.5 35V29ZM72.5 28C73.0523 28 73.5 28.4477 73.5 29V35C73.5 35.5523 73.0523 36 72.5 36C71.9477 36 71.5 35.5523 71.5 35V29C71.5 28.4477 71.9477 28 72.5 28ZM76.5 29C76.5 28.4477 76.0523 28 75.5 28C74.9477 28 74.5 28.4477 74.5 29V35C74.5 35.5523 74.9477 36 75.5 36C76.0523 36 76.5 35.5523 76.5 35V29Z" fill="black"/>
</svg>
