<svg width="104" height="64" viewBox="0 0 104 64" fill="none" xmlns="http://www.w3.org/2000/svg">
<path fill-rule="evenodd" clip-rule="evenodd" d="M26 25C23.7909 25 22 26.7909 22 29V35C22 37.2091 23.7909 39 26 39H36.4571C38.6663 39 40.4571 37.2091 40.4571 35V34.9854C41.3275 34.8733 42 34.1295 42 33.2286V30.7714C42 29.8705 41.3275 29.1267 40.4571 29.0146V29C40.4571 26.7909 38.6663 25 36.4571 25H26ZM24 29C24 27.8954 24.8954 27 26 27H36.4571C37.5617 27 38.4571 27.8954 38.4571 29V35C38.4571 36.1046 37.5617 37 36.4571 37H26C24.8954 37 24 36.1046 24 35V29Z" fill="black"/>
<path d="M66 26H76.4571C78.114 26 79.4571 27.3431 79.4571 29C80.8615 29 82 30.1385 82 31.5429V32.4571C82 33.8615 80.8615 35 79.4571 35C79.4571 36.6569 78.114 38 76.4571 38H66C64.3431 38 63 36.6569 63 35V29C63 27.3431 64.3431 26 66 26Z" fill="black"/>
</svg>
