<svg width="104" height="64" viewBox="0 0 104 64" fill="none" xmlns="http://www.w3.org/2000/svg">
<path fill-rule="evenodd" clip-rule="evenodd" d="M23 24C21.8954 24 21 24.8954 21 26V27C21 28.1046 21.8954 29 23 29C21.8954 29 21 29.8954 21 31V38C21 39.0626 21.8287 39.9316 22.875 39.9962V40C22.875 40.5523 23.3227 41 23.875 41C24.4273 41 24.875 40.5523 24.875 40H39.125C39.125 40.5523 39.5727 41 40.125 41C40.6773 41 41.125 40.5523 41.125 40V39.9962C42.1713 39.9316 43 39.0626 43 38V31C43 29.8954 42.1046 29 41 29H28C29.1046 29 30 28.1046 30 27V26C30 24.8954 29.1046 24 28 24H23ZM23 26H28V27H23V26ZM23 31H41V38H23V31Z" fill="black"/>
<path d="M63 25H68C68.5523 25 69 25.4477 69 26V27C69 27.5523 68.5523 28 68 28H63C62.4477 28 62 27.5523 62 27V26C62 25.4477 62.4477 25 63 25Z" fill="black"/>
<path d="M63 30H81C81.5523 30 82 30.4477 82 31V38C82 38.5523 81.5523 39 81 39C81 39.5523 80.5523 40 80 40C79.4477 40 79 39.5523 79 39H65C65 39.5523 64.5523 40 64 40C63.4477 40 63 39.5523 63 39C62.4477 39 62 38.5523 62 38V31C62 30.4477 62.4477 30 63 30Z" fill="black"/>
</svg>
