<svg width="104" height="64" viewBox="0 0 104 64" fill="none" xmlns="http://www.w3.org/2000/svg">
<path d="M31 26C30.4477 26 30 26.4477 30 27H25.7324C25.3866 26.4022 24.7403 26 24 26C22.8954 26 22 26.8954 22 28C22 29.1046 22.8954 30 24 30C24.7403 30 25.3866 29.5978 25.7324 29H27.6359C24.2997 30.6207 22 34.0418 22 38V39C22 39.5523 22.4477 40 23 40C23.5523 40 24 39.5523 24 39V38C24 33.5817 27.5817 30 32 30C36.4183 30 40 33.5817 40 38V39C40 39.5523 40.4477 40 41 40C41.5523 40 42 39.5523 42 39V38C42 34.0418 39.7003 30.6207 36.3641 29H39.2676C39.6134 29.5978 40.2597 30 41 30C42.1046 30 43 29.1046 43 28C43 26.8954 42.1046 26 41 26C40.2597 26 39.6134 26.4022 39.2676 27H34C34 26.4477 33.5523 26 33 26H31Z" fill="black"/>
<path d="M71 26C70.4477 26 70 26.4477 70 27H65.7324C65.3866 26.4022 64.7403 26 64 26C62.8954 26 62 26.8954 62 28C62 29.1046 62.8954 30 64 30C64.7403 30 65.3866 29.5978 65.7324 29H67.6359C64.2997 30.6207 62 34.0418 62 38V39C62 39.5523 62.4477 40 63 40C63.5523 40 64 39.5523 64 39V38C64 33.5817 67.5817 30 72 30C76.4183 30 80 33.5817 80 38V39C80 39.5523 80.4477 40 81 40C81.5523 40 82 39.5523 82 39V38C82 34.0418 79.7003 30.6207 76.3641 29H79.2676C79.6134 29.5978 80.2597 30 81 30C82.1046 30 83 29.1046 83 28C83 26.8954 82.1046 26 81 26C80.2597 26 79.6134 26.4022 79.2676 27H74C74 26.4477 73.5523 26 73 26H71Z" fill="black"/>
</svg>
