<svg width="104" height="64" viewBox="0 0 104 64" fill="none" xmlns="http://www.w3.org/2000/svg">
<path d="M33 23.5709C34.2071 23.7435 35.3149 24.2241 36.2412 24.9304L34.8089 26.3627C34.0083 25.8182 33.0413 25.5 32 25.5C29.2384 25.5 27 27.7377 27 30.4989V34.1716L23.8326 37.339C23.9149 36.9323 24.067 36.5377 24.2691 36.1776C24.4841 35.7947 24.6784 35.4151 24.8163 35.0855C24.8851 34.9211 24.9343 34.782 24.9652 34.6703C24.9805 34.6152 24.9897 34.5724 24.9949 34.5409C24.9992 34.5146 24.9999 34.5015 25 34.4996L25 34.4917V30.4989C25 26.9722 27.6079 24.0559 31 23.5709V23C31 22.4477 31.4477 22 32 22C32.5523 22 33 22.4477 33 23V23.5709Z" fill="black"/>
<path d="M36.9605 29.8679L38.6174 28.211C38.8654 28.9281 39 29.698 39 30.4994V34.4993C39 34.4993 39.0004 34.5124 39.0051 34.5409C39.0103 34.5724 39.0196 34.6152 39.0348 34.6703C39.0658 34.782 39.115 34.9211 39.1838 35.0855C39.3216 35.4151 39.516 35.7947 39.7309 36.1776C40.1351 36.8975 40.3388 37.7554 40.1859 38.5712C40.0246 39.4316 39.4708 40.1819 38.525 40.542C37.68 40.8637 36.5554 41.1579 35.0701 41.333C35.0348 41.3637 34.993 41.3987 34.945 41.4371C34.7947 41.5574 34.58 41.7132 34.3086 41.8682C33.7701 42.176 32.9738 42.5 32 42.5C31.0262 42.5 30.2299 42.176 29.6914 41.8682C29.42 41.7132 29.2053 41.5574 29.055 41.4371C29.007 41.3987 28.9652 41.3637 28.9299 41.333C27.7733 41.1966 26.8354 40.9881 26.0779 40.7505L27.7163 39.1121C28.7686 39.3356 30.1661 39.5 32 39.5C34.924 39.5 36.7384 39.0822 37.8133 38.6729C38.0731 38.574 38.18 38.4166 38.2201 38.2027C38.2685 37.9444 38.2143 37.5616 37.9869 37.1566C37.7531 36.74 37.518 36.2861 37.3386 35.8571C37.1735 35.4623 37 34.9629 37 34.5V30.4994C37 30.2855 36.9866 30.0747 36.9605 29.8679Z" fill="black"/>
<path d="M40.7071 23.2929C41.0976 23.6834 41.0976 24.3166 40.7071 24.7071L24.7071 40.7071C24.3166 41.0976 23.6834 41.0976 23.2929 40.7071C22.9024 40.3166 22.9024 39.6834 23.2929 39.2929L39.2929 23.2929C39.6834 22.9024 40.3166 22.9024 40.7071 23.2929Z" fill="black"/>
<path d="M73 22C73 21.4477 72.5523 21 72 21C71.4477 21 71 21.4477 71 22V23.5C71 23.5277 71.0011 23.5552 71.0033 23.5824C68.164 24.0569 66 26.5247 66 29.4989V33.5C66 34.0002 65.5899 34.8676 65.1411 35.6671C65.0258 35.8725 64.9354 36.0856 64.8719 36.2996L76.0754 25.0962C75.2362 24.3193 74.1745 23.7793 72.9966 23.5824C72.9988 23.5552 73 23.5277 73 23.5V22Z" fill="black"/>
<path d="M80.7071 24.7071C81.0976 24.3166 81.0976 23.6834 80.7071 23.2929C80.3166 22.9024 79.6834 22.9024 79.2929 23.2929L63.2929 39.2929C62.9024 39.6834 62.9024 40.3166 63.2929 40.7071C63.6834 41.0976 64.3166 41.0976 64.7071 40.7071L80.7071 24.7071Z" fill="black"/>
<path d="M67.699 39.1294L77.9665 28.8619C77.9886 29.0714 78 29.284 78 29.4994V33.5C78 34.0002 78.4101 34.8676 78.8589 35.6671C79.4904 36.7921 79.3748 38.1484 78.1691 38.6075C76.9565 39.0692 75.0167 39.5 72 39.5C70.2124 39.5 68.803 39.3487 67.699 39.1294Z" fill="black"/>
<path d="M68.9201 40.3246C68.9574 40.3572 69.0025 40.3952 69.055 40.4372C69.2053 40.5574 69.42 40.7132 69.6914 40.8683C70.2299 41.176 71.0262 41.5 72 41.5C72.9738 41.5 73.7701 41.176 74.3086 40.8683C74.58 40.7132 74.7947 40.5574 74.945 40.4372C74.9975 40.3952 75.0426 40.3572 75.0799 40.3246C74.2056 40.4335 73.186 40.5 72 40.5C70.814 40.5 69.7944 40.4335 68.9201 40.3246Z" fill="black"/>
</svg>
