<svg width="104" height="64" viewBox="0 0 104 64" fill="none" xmlns="http://www.w3.org/2000/svg">
<path fill-rule="evenodd" clip-rule="evenodd" d="M33.0004 23C33.0004 22.4477 32.5526 22 32.0004 22C31.4481 22 31.0004 22.4477 31.0004 23V23.5709C27.6082 24.0559 25.0004 26.9722 25.0004 30.4989L25.0004 34.4993C25.0003 34.4993 25.0004 34.4991 25.0004 34.4993C25.0003 34.5012 24.9996 34.5146 24.9952 34.5409C24.99 34.5724 24.9808 34.6152 24.9655 34.6703C24.9346 34.782 24.8854 34.9211 24.8166 35.0855C24.6788 35.4151 24.4844 35.7947 24.2694 36.1776C23.8653 36.8975 23.6616 37.7554 23.8145 38.5712C23.9758 39.4316 24.5296 40.1819 25.4754 40.542C26.3203 40.8637 27.445 41.1579 28.9302 41.333C28.9656 41.3637 29.0073 41.3987 29.0553 41.4371C29.2056 41.5574 29.4204 41.7132 29.6917 41.8682C30.2303 42.176 31.0266 42.5 32.0004 42.5C32.9741 42.5 33.7704 42.176 34.309 41.8682C34.5804 41.7132 34.7951 41.5574 34.9454 41.4371C34.9934 41.3987 35.0352 41.3637 35.0705 41.333C36.5557 41.1579 37.6804 40.8637 38.5253 40.542C39.4711 40.1819 40.0249 39.4316 40.1862 38.5712C40.3391 37.7554 40.1354 36.8975 39.7313 36.1776C39.5163 35.7947 39.3219 35.4151 39.1841 35.0855C39.1153 34.9211 39.0661 34.782 39.0352 34.6703C39.0199 34.6152 39.0107 34.5724 39.0055 34.5409C39.0011 34.5146 39.0005 34.5015 39.0004 34.4996C39.0004 34.4994 39.0004 34.4996 39.0004 34.4996L39.0004 34.4911V30.4994C39.0004 26.9728 36.3925 24.056 33.0004 23.5709V23ZM27.0004 30.4989C27.0004 27.7377 29.2387 25.5 32.0004 25.5C34.7619 25.5 37.0004 27.7381 37.0004 30.4994V34.5C37.0004 34.9629 37.1738 35.4623 37.3389 35.8571C37.5183 36.2861 37.7534 36.74 37.9873 37.1566C38.2146 37.5616 38.2689 37.9444 38.2204 38.2027C38.1803 38.4166 38.0735 38.574 37.8136 38.6729C36.7387 39.0822 34.9243 39.5 32.0004 39.5C29.0764 39.5 27.262 39.0822 26.1871 38.6729C25.9272 38.574 25.8204 38.4166 25.7803 38.2027C25.7318 37.9444 25.7861 37.5616 26.0134 37.1566C26.2473 36.74 26.4824 36.2861 26.6618 35.8571C26.8269 35.4623 27.0004 34.9629 27.0004 34.5V30.4989Z" fill="black"/>
<path d="M73.0002 23C73.0002 22.4477 72.5525 22 72.0002 22C71.4479 22 71.0002 22.4477 71.0002 23V24.5C71.0002 24.5277 71.0013 24.5552 71.0035 24.5824C68.1642 25.0569 66.0002 27.5247 66.0002 30.4989V34.5C66.0002 35.0002 65.5901 35.8676 65.1413 36.6671C64.5098 37.7921 64.6254 39.1484 65.8311 39.6075C67.0437 40.0692 68.9835 40.5 72.0002 40.5C75.0169 40.5 76.9567 40.0692 78.1693 39.6075C79.375 39.1484 79.4906 37.7921 78.8591 36.6671C78.4103 35.8676 78.0002 35.0002 78.0002 34.5V30.4994C78.0002 27.5252 75.8362 25.057 72.9969 24.5824C72.9991 24.5552 73.0002 24.5277 73.0002 24.5V23Z" fill="black"/>
<path d="M68.9203 41.3246C68.9576 41.3572 69.0027 41.3952 69.0552 41.4372C69.2055 41.5574 69.4202 41.7132 69.6916 41.8683C70.2301 42.176 71.0264 42.5 72.0002 42.5C72.974 42.5 73.7703 42.176 74.3089 41.8683C74.5802 41.7132 74.7949 41.5574 74.9452 41.4372C74.9977 41.3952 75.0428 41.3572 75.0801 41.3246C74.2058 41.4335 73.1862 41.5 72.0002 41.5C70.8142 41.5 69.7947 41.4335 68.9203 41.3246Z" fill="black"/>
</svg>
