<svg width="104" height="64" viewBox="0 0 104 64" fill="none" xmlns="http://www.w3.org/2000/svg">
<path fill-rule="evenodd" clip-rule="evenodd" d="M22.5 24C22.5 23.4477 22.9477 23 23.5 23H25C25.5523 23 26 23.4477 26 24V25.6667L27 27H33.6338C33.5487 26.8529 33.5 26.6821 33.5 26.5C33.5 25.9477 33.9477 25.5 34.5 25.5H38C38.5523 25.5 39 25.9477 39 26.5C39 27.0523 38.5523 27.5 38 27.5H37.0352L36.5826 28.1788L37.4702 31.5073C37.5629 31.5025 37.6561 31.5 37.75 31.5C40.6495 31.5 43 33.8505 43 36.75C43 39.6495 40.6495 42 37.75 42C34.8505 42 32.5 39.6495 32.5 36.75C32.5 35.9627 32.6733 35.2159 32.9838 34.5456L30.1834 33.2727C31.0027 34.1988 31.5 35.4163 31.5 36.75C31.5 39.6495 29.1495 42 26.25 42C23.3505 42 21 39.6495 21 36.75C21 34.1051 22.9558 31.9171 25.5 31.5532V28.3333L24.2 26.6C24.0702 26.4269 24 26.2164 24 26V25H23.5C22.9477 25 22.5 24.5523 22.5 24ZM35.5294 31.9914C35.0347 32.2226 34.582 32.5287 34.1859 32.8951L27.5 29.8561V29H34.7317L35.5294 31.9914ZM34.8051 35.3735C34.6093 35.7915 34.5 36.258 34.5 36.75C34.5 38.5449 35.9551 40 37.75 40C39.5449 40 41 38.5449 41 36.75C41 35.0406 39.6803 33.6395 38.0042 33.5098L38.4662 35.2423C38.5659 35.6159 38.4412 36.0135 38.146 36.2633C37.8509 36.5131 37.4382 36.5704 37.0862 36.4104L34.8051 35.3735ZM25.5 35.5V33.587C24.0666 33.9255 23 35.2132 23 36.75C23 38.5449 24.4551 40 26.25 40C28.0449 40 29.5 38.5449 29.5 36.75C29.5 35.398 28.6745 34.2389 27.5 33.7491V35.5C27.5 36.0523 27.0523 36.5 26.5 36.5C25.9477 36.5 25.5 36.0523 25.5 35.5Z" fill="black"/>
<path fill-rule="evenodd" clip-rule="evenodd" d="M62.5 24C62.5 23.4477 62.9477 23 63.5 23H65C65.5523 23 66 23.4477 66 24V25.6667L67 27H73.6338C73.5487 26.8529 73.5 26.6821 73.5 26.5C73.5 25.9477 73.9477 25.5 74.5 25.5H78C78.5523 25.5 79 25.9477 79 26.5C79 27.0523 78.5523 27.5 78 27.5H77.0352L76.5826 28.1788L78.4662 35.2423C78.5659 35.6159 78.4412 36.0135 78.146 36.2633C77.8509 36.5131 77.4382 36.5704 77.0862 36.4104L67.5 32.053V35.5C67.5 36.0523 67.0523 36.5 66.5 36.5C65.9477 36.5 65.5 36.0523 65.5 35.5V28.3333L64.2 26.6C64.0702 26.4269 64 26.2164 64 26V25H63.5C62.9477 25 62.5 24.5523 62.5 24ZM67.5 29V29.8561L75.989 33.7147L74.7317 29H67.5Z" fill="black"/>
<path d="M64.75 32.353C63.134 33.0357 62 34.6354 62 36.5C62 38.9853 64.0147 41 66.5 41C68.9853 41 71 38.9853 71 36.5C71 35.6486 70.7636 34.8524 70.3527 34.1736L68.25 33.2178V35.5C68.25 36.4665 67.4665 37.25 66.5 37.25C65.5335 37.25 64.75 36.4665 64.75 35.5V32.353Z" fill="black"/>
<path d="M73 36.5C73 36.1329 73.044 35.7761 73.1269 35.4345L76.7758 37.0931C77.3918 37.3731 78.1141 37.2729 78.6306 36.8358C79.1471 36.3986 79.3653 35.7029 79.1909 35.0491L78.4019 32.0904C80.455 32.5081 82 34.3236 82 36.5C82 38.9853 79.9853 41 77.5 41C75.0147 41 73 38.9853 73 36.5Z" fill="black"/>
</svg>
