<svg width="104" height="64" viewBox="0 0 104 64" fill="none" xmlns="http://www.w3.org/2000/svg">
<path d="M29.5001 21.75C29.0844 21.75 28.7121 22.0071 28.5649 22.3959L28.3353 23.0021C27.8431 22.953 27.3897 22.9039 27.0226 22.8626C26.7482 22.8318 26.5226 22.8055 26.3659 22.7869L26.1852 22.7652L26.1238 22.7577C25.5757 22.6898 25.0756 23.079 25.0077 23.6271C24.9398 24.1752 25.3291 24.6745 25.8772 24.7424L25.944 24.7506L26.13 24.7729C26.2903 24.792 26.5202 24.8188 26.7994 24.8502C27.3574 24.9128 28.1147 24.9937 28.9092 25.0662C29.981 25.164 31.1558 25.25 32.0001 25.25C32.8444 25.25 34.0192 25.164 35.091 25.0662C35.8855 24.9937 36.6428 24.9128 37.2008 24.8502C37.48 24.8188 37.7099 24.792 37.8702 24.7729L38.0562 24.7506L38.1229 24.7424C38.671 24.6746 39.0604 24.1752 38.9925 23.6271C38.9247 23.079 38.4253 22.6897 37.8772 22.7576L37.8151 22.7652L37.6343 22.7869C37.4776 22.8055 37.252 22.8318 36.9776 22.8626C36.6105 22.9039 36.1571 22.953 35.6649 23.0021L35.4353 22.3959C35.2881 22.0071 34.9158 21.75 34.5001 21.75H29.5001Z" fill="black"/>
<path d="M31.0001 31.75C31.0001 31.1977 30.5524 30.75 30.0001 30.75C29.4478 30.75 29.0001 31.1977 29.0001 31.75V36.75C29.0001 37.3023 29.4478 37.75 30.0001 37.75C30.5524 37.75 31.0001 37.3023 31.0001 36.75V31.75Z" fill="black"/>
<path d="M34.0001 30.75C34.5524 30.75 35.0001 31.1977 35.0001 31.75V36.75C35.0001 37.3023 34.5524 37.75 34.0001 37.75C33.4478 37.75 33.0001 37.3023 33.0001 36.75V31.75C33.0001 31.1977 33.4478 30.75 34.0001 30.75Z" fill="black"/>
<path fill-rule="evenodd" clip-rule="evenodd" d="M38.9098 28.0506C39.0004 26.7818 37.9065 25.7646 36.6634 25.9083C35.3914 26.0553 33.4284 26.25 32.0001 26.25C30.5718 26.25 28.6088 26.0553 27.3368 25.9083C26.0937 25.7646 24.9998 26.7818 25.0905 28.0506L25.9472 40.0448C26.0121 40.954 26.6894 41.7228 27.6187 41.8626C28.6154 42.0124 30.444 42.2518 32.0013 42.25C33.5393 42.2482 35.3755 42.0099 36.3765 41.8614C37.3074 41.7232 37.9881 40.954 38.0532 40.0421L38.9098 28.0506ZM36.893 27.8951C36.8965 27.8947 36.8991 27.8949 36.8991 27.8949L36.9018 27.8955C36.904 27.8963 36.9075 27.8981 36.9109 27.9014C36.9132 27.9035 36.9149 27.9062 36.9149 27.9062L36.9148 27.9081L36.0592 39.8865C35.0685 40.0329 33.3706 40.2484 31.9989 40.25C30.6124 40.2516 28.925 40.0359 27.9411 39.8885L27.0854 27.9081L27.0853 27.9062C27.0853 27.9062 27.087 27.9035 27.0893 27.9014C27.0927 27.8981 27.0962 27.8963 27.0984 27.8955L27.1011 27.8949C27.1011 27.8949 27.1037 27.8947 27.1072 27.8951C28.3815 28.0423 30.4456 28.25 32.0001 28.25C33.5547 28.25 35.6187 28.0423 36.893 27.8951Z" fill="black"/>
<path d="M69.5001 22.75C69.0844 22.75 68.7121 23.0071 68.5649 23.3959L68.3353 24.0021C67.8431 23.953 67.3897 23.9039 67.0226 23.8626C66.7482 23.8318 66.5226 23.8055 66.3659 23.7869L66.1852 23.7652L66.1238 23.7577C65.5757 23.6898 65.0756 24.079 65.0077 24.6271C64.9398 25.1752 65.3291 25.6745 65.8772 25.7424L65.944 25.7506L66.13 25.7729C66.2903 25.792 66.5202 25.8188 66.7994 25.8502C67.3574 25.9128 68.1147 25.9937 68.9092 26.0662C69.981 26.164 71.1558 26.25 72.0001 26.25C72.8444 26.25 74.0192 26.164 75.091 26.0662C75.8855 25.9937 76.6428 25.9128 77.2008 25.8502C77.48 25.8188 77.7099 25.792 77.8702 25.7729L78.0562 25.7506L78.1229 25.7424C78.671 25.6746 79.0604 25.1752 78.9925 24.6271C78.9247 24.079 78.4253 23.6897 77.8772 23.7576L77.8151 23.7652L77.6343 23.7869C77.4776 23.8055 77.252 23.8318 76.9776 23.8626C76.6105 23.9039 76.1571 23.953 75.6649 24.0021L75.4353 23.3959C75.2881 23.0071 74.9158 22.75 74.5001 22.75H69.5001Z" fill="black"/>
<path fill-rule="evenodd" clip-rule="evenodd" d="M77.9123 27.9793L77.0558 39.9708C77.0231 40.4287 76.6838 40.8048 76.2297 40.8721C75.2357 41.0196 73.4605 41.2483 72.0001 41.25C70.5223 41.2517 68.7558 41.0223 67.7675 40.8736C67.3148 40.8056 66.9773 40.4301 66.9447 39.9735L66.0879 27.9793C66.0427 27.3457 66.591 26.8287 67.222 26.9017C68.4952 27.0488 70.5087 27.25 72.0001 27.25C73.4916 27.25 75.5051 27.0488 76.7782 26.9017C77.4092 26.8287 77.9576 27.3457 77.9123 27.9793ZM71.0001 31.75C71.0001 31.1977 70.5524 30.75 70.0001 30.75C69.4478 30.75 69.0001 31.1977 69.0001 31.75V36.75C69.0001 37.3022 69.4478 37.75 70.0001 37.75C70.5524 37.75 71.0001 37.3022 71.0001 36.75V31.75ZM74.0001 30.75C74.5524 30.75 75.0001 31.1977 75.0001 31.75V36.75C75.0001 37.3022 74.5524 37.75 74.0001 37.75C73.4478 37.75 73.0001 37.3022 73.0001 36.75V31.75C73.0001 31.1977 73.4478 30.75 74.0001 30.75Z" fill="black"/>
</svg>
