<svg width="104" height="64" viewBox="0 0 104 64" fill="none" xmlns="http://www.w3.org/2000/svg">
<path fill-rule="evenodd" clip-rule="evenodd" d="M33.1094 24.2044C31.7803 23.3183 30 24.2711 30 25.8685V29.9194L27.6247 28.0191C27.1935 27.6741 26.5642 27.744 26.2192 28.1753C25.8742 28.6066 25.9441 29.2359 26.3753 29.5809L29.3993 32L26.3753 34.4191C25.9441 34.7641 25.8742 35.3934 26.2192 35.8247C26.5642 36.256 27.1935 36.3259 27.6247 35.9809L30 34.0806V38.1315C30 39.7289 31.7803 40.6817 33.1094 39.7956L36.3067 37.6641C37.4941 36.8725 37.4941 35.1275 36.3067 34.3359L32.8028 32L36.3067 29.6641C37.4941 28.8725 37.4941 27.1275 36.3067 26.3359L33.1094 24.2044ZM35.1973 28L32 30.1315V25.8685L35.1973 28ZM35.1973 36L32 38.1315V33.8685L35.1973 36Z" fill="black"/>
<path d="M75.1972 36L72 38.1315V33.8685L75.1972 36Z" fill="black"/>
<path d="M72 25.8685V30.1315L75.1972 28L72 25.8685Z" fill="black"/>
<path fill-rule="evenodd" clip-rule="evenodd" d="M63 39V25C63 23.3431 64.3431 22 66 22H78C79.6569 22 81 23.3431 81 25V39C81 40.6569 79.6569 42 78 42H66C64.3431 42 63 40.6569 63 39ZM73.1094 24.2044C71.7803 23.3183 70 24.2711 70 25.8685V29.9194L67.6247 28.0191C67.1934 27.6741 66.5641 27.744 66.2191 28.1753C65.8741 28.6066 65.944 29.2359 66.3753 29.5809L69.3992 32L66.3753 34.4191C65.944 34.7641 65.8741 35.3934 66.2191 35.8247C66.5641 36.256 67.1934 36.3259 67.6247 35.9809L70 34.0806V38.1315C70 39.7289 71.7803 40.6817 73.1094 39.7956L76.3066 37.6641C77.4941 36.8725 77.4941 35.1275 76.3066 34.3359L72.8028 32L76.3066 29.6641C77.4941 28.8725 77.4941 27.1275 76.3066 26.3359L73.1094 24.2044Z" fill="black"/>
</svg>
