<svg width="104" height="64" viewBox="0 0 104 64" fill="none" xmlns="http://www.w3.org/2000/svg">
<path d="M34.5 41H25.1386C25.0621 41 25 40.9379 25 40.8614L25 32H34.5C36.9853 32 39 34.0147 39 36.5C39 38.9853 36.9853 41 34.5 41Z" stroke="black" stroke-width="2" stroke-linecap="round" stroke-linejoin="round"/>
<path d="M33.5 32H25.1287C25.0576 32 25 31.9424 25 31.8713L25 23H33.5C35.9853 23 38 25.0147 38 27.5C38 29.9853 35.9853 32 33.5 32Z" stroke="black" stroke-width="2" stroke-linecap="round" stroke-linejoin="round"/>
<path d="M74.5 41H65.1386C65.0621 41 65 40.9379 65 40.8614L65 32H74.5C76.9853 32 79 34.0147 79 36.5C79 38.9853 76.9853 41 74.5 41Z" stroke="black" stroke-width="2" stroke-linecap="round" stroke-linejoin="round"/>
<path d="M73.5 32H65.1287C65.0576 32 65 31.9424 65 31.8713L65 23H73.5C75.9853 23 78 25.0147 78 27.5C78 29.9853 75.9853 32 73.5 32Z" stroke="black" stroke-width="2" stroke-linecap="round" stroke-linejoin="round"/>
</svg>
