<svg width="104" height="64" viewBox="0 0 104 64" fill="none" xmlns="http://www.w3.org/2000/svg">
<path fill-rule="evenodd" clip-rule="evenodd" d="M27.4286 21C25.0187 21 23 22.8904 23 25.3013V39.7948C23 42.9156 26.9913 44.0975 28.8679 41.7744L31.4247 38.6091C31.7108 38.2549 32.2892 38.2549 32.5753 38.609L35.1321 41.7744C37.0087 44.0975 41 42.9156 41 39.7948V25.3013C41 22.8904 38.9813 21 36.5714 21H27.4286ZM25 25.3013C25 24.0656 26.0513 23 27.4286 23H36.5714C37.9487 23 39 24.0656 39 25.3013V39.7948C39 40.8651 37.4837 41.5028 36.688 40.5176L34.1311 37.3523C33.0445 36.0071 30.9555 36.0071 29.8689 37.3523L27.312 40.5177C26.5163 41.5028 25 40.8651 25 39.7948V25.3013Z" fill="black"/>
<path d="M64 25.3013C64 23.478 65.535 22 67.4286 22H76.5714C78.465 22 80 23.478 80 25.3013V39.7948C80 41.8904 77.2462 42.8001 75.9101 41.146L73.3532 37.9807C72.6668 37.131 71.3332 37.131 70.6468 37.9807L68.0899 41.146C66.7538 42.8001 64 41.8904 64 39.7948V25.3013Z" fill="black"/>
</svg>
