<svg width="104" height="64" viewBox="0 0 104 64" fill="none" xmlns="http://www.w3.org/2000/svg">
<path d="M25.6364 23.8183C24.6387 23.8183 23.8182 24.6351 23.8182 25.6572V33.8013C23.8182 34.7075 24.9466 35.053 25.4584 34.3498L25.7079 34.007C26.1526 33.396 26.7862 33.0343 27.4545 32.9221V34.8253C27.3502 34.8864 27.2556 34.9703 27.1779 35.077L26.9285 35.4197C25.362 37.5721 22 36.4364 22 33.8013V25.6572C22 23.6439 23.6216 22 25.6364 22H30.1818C32.1897 22 33.8071 23.6326 33.8181 25.6365H31.9999C31.9889 24.6241 31.1728 23.8183 30.1818 23.8183H25.6364Z" fill="black"/>
<path fill-rule="evenodd" clip-rule="evenodd" d="M38.5584 26.5456C40.4129 26.5456 42 27.9825 42 29.8558V39.4878C42 40.7114 41.1693 41.5614 40.2317 41.8664C39.2967 42.1706 38.1314 41.9789 37.3671 41.0472L35.4785 38.745C35.4134 38.6657 35.3083 38.6141 35.1818 38.6141C35.0553 38.6141 34.9502 38.6657 34.8851 38.745L32.9965 41.0472C32.2322 41.9789 31.0669 42.1706 30.1319 41.8664C29.1943 41.5614 28.3636 40.7114 28.3636 39.4878V29.8558C28.3636 27.9825 29.9508 26.5456 31.8052 26.5456H38.5584ZM40.1818 29.8558C40.1818 29.0769 39.5013 28.3639 38.5584 28.3639H31.8052C30.8623 28.3639 30.1818 29.0769 30.1818 29.8558V39.4878C30.1818 39.7884 30.3681 40.0312 30.6943 40.1373C31.0231 40.2443 31.3683 40.1653 31.5909 39.8939L33.4795 37.5918C34.3501 36.5305 36.0135 36.5305 36.8842 37.5918L38.7728 39.8939C38.9954 40.1653 39.3405 40.2443 39.6693 40.1373C39.9955 40.0312 40.1818 39.7884 40.1818 39.4878V29.8558Z" fill="black"/>
<path d="M63 33.7829V25.7205C63 24.218 64.2088 23 65.7 23H70.2C71.6912 23 72.9 24.218 72.9 25.7205V26.15H70.8429C69.2452 26.15 67.95 27.3561 67.95 28.8438V33.775C67.404 33.775 66.8581 34.022 66.4985 34.5161L66.2515 34.8554C65.2228 36.2689 63 35.5357 63 33.7829Z" fill="black"/>
<path d="M78.4929 27.5H71.8071C70.4225 27.5 69.3 28.5642 69.3 29.8769V39.4123C69.3 40.9211 71.3137 41.5761 72.2908 40.3851L74.1605 38.1061C74.6624 37.4943 75.6376 37.4943 76.1395 38.1061L78.0092 40.3851C78.9863 41.5761 81 40.9211 81 39.4123V29.8769C81 28.5642 79.8775 27.5 78.4929 27.5Z" fill="black"/>
</svg>
