<svg width="104" height="64" viewBox="0 0 104 64" fill="none" xmlns="http://www.w3.org/2000/svg">
<path fill-rule="evenodd" clip-rule="evenodd" d="M28 28.2848V40C28 41.1046 27.1046 42 26 42H24C22.8954 42 22 41.1046 22 40V24C22 22.8954 22.8954 22 24 22H26C26.7485 22 27.4009 22.4111 27.7438 23.0199C27.9883 22.7866 28.2952 22.6122 28.647 22.526L30.5894 22.0496C31.6622 21.7865 32.7451 22.4429 33.0082 23.5157L36 35.7152V24C36 22.8954 36.8954 22 38 22H40C41.1046 22 42 22.8954 42 24V40C42 41.1046 41.1046 42 40 42H38C37.2515 42 36.5991 41.5889 36.2562 40.9801C36.0117 41.2134 35.7047 41.3878 35.353 41.474L33.4106 41.9504C32.3378 42.2135 31.2548 41.5571 30.9918 40.4843L28 28.2848ZM29.1233 24.4684L31.0658 23.992L34.8766 39.5316L32.9342 40.0079L29.1233 24.4684ZM26 24L24 24V40H26V24ZM40 24L38 24V40H40V24Z" fill="black"/>
<path d="M68.8852 23.4972L70.8276 23.0208C71.364 22.8893 71.9055 23.2175 72.037 23.7539L75.8479 39.2934C75.9794 39.8298 75.6512 40.3713 75.1148 40.5028L73.1724 40.9792C72.636 41.1107 72.0945 40.7825 71.963 40.2461L68.1521 24.7066C68.0206 24.1702 68.3488 23.6287 68.8852 23.4972Z" fill="black"/>
<path d="M66 23H64C63.4477 23 63 23.4477 63 24V40C63 40.5523 63.4477 41 64 41H66C66.5523 41 67 40.5523 67 40V24C67 23.4477 66.5523 23 66 23Z" fill="black"/>
<path d="M80 23H78C77.4477 23 77 23.4477 77 24V40C77 40.5523 77.4477 41 78 41H80C80.5523 41 81 40.5523 81 40V24C81 23.4477 80.5523 23 80 23Z" fill="black"/>
</svg>
