<svg width="104" height="64" viewBox="0 0 104 64" fill="none" xmlns="http://www.w3.org/2000/svg">
<path d="M27.4286 21C25.0187 21 23 22.8904 23 25.3013V39.7948C23 42.9156 26.9913 44.0975 28.8679 41.7744L31.4247 38.6091C31.7108 38.2549 32.2892 38.2549 32.5753 38.6091L35.1321 41.7744C37.0087 44.0975 41 42.9156 41 39.7948V30.5C41 29.9477 40.5523 29.5 40 29.5C39.4477 29.5 39 29.9477 39 30.5V39.7948C39 40.8651 37.4837 41.5028 36.688 40.5177L34.1311 37.3523C33.0445 36.0071 30.9555 36.0071 29.8689 37.3523L27.312 40.5177C26.5163 41.5028 25 40.8651 25 39.7948V25.3013C25 24.0656 26.0513 23 27.4286 23H34.5C35.0523 23 35.5 22.5523 35.5 22C35.5 21.4477 35.0523 21 34.5 21H27.4286Z" fill="black"/>
<path d="M39 22C39 21.4477 38.5523 21 38 21C37.4477 21 37 21.4477 37 22V24H35C34.4477 24 34 24.4477 34 25C34 25.5523 34.4477 26 35 26H37V28C37 28.5523 37.4477 29 38 29C38.5523 29 39 28.5523 39 28V26H41C41.5523 26 42 25.5523 42 25C42 24.4477 41.5523 24 41 24H39V22Z" fill="black"/>
<path d="M79 22C79 21.4477 78.5523 21 78 21C77.4477 21 77 21.4477 77 22V24H75C74.4477 24 74 24.4477 74 25C74 25.5523 74.4477 26 75 26H77V28C77 28.5523 77.4477 29 78 29C78.5523 29 79 28.5523 79 28V26H81C81.5523 26 82 25.5523 82 25C82 24.4477 81.5523 24 81 24H79V22Z" fill="black"/>
<path d="M67.4286 22H75C73.3431 22 72 23.3431 72 25C72 26.6569 73.3431 28 75 28C75 29.6569 76.3431 31 78 31C78.7684 31 79.4692 30.7111 80 30.2361V39.7948C80 41.8904 77.2462 42.8001 75.9101 41.146L73.3532 37.9807C72.6668 37.131 71.3332 37.131 70.6468 37.9807L68.0899 41.146C66.7538 42.8001 64 41.8904 64 39.7948V25.3013C64 23.478 65.535 22 67.4286 22Z" fill="black"/>
</svg>
