<svg width="104" height="64" viewBox="0 0 104 64" fill="none" xmlns="http://www.w3.org/2000/svg">
<path fill-rule="evenodd" clip-rule="evenodd" d="M26.6667 22C24.6299 22 23 23.6683 23 25.7V37.9789C23 40.1879 24.7719 42 26.9838 42H38.4563C38.8534 42 39.3623 41.9101 39.7383 41.5051C40.1161 41.0981 40.1491 40.5997 40.1243 40.278C40.099 39.9499 40.0011 39.6198 39.9054 39.3446C39.815 39.0847 39.7026 38.8085 39.5993 38.5545L39.5715 38.4862C39.3288 37.8889 39.1545 37.4279 39.1148 37.0769C39.1098 37.0328 39.1079 36.9969 39.1076 36.9682C39.4112 36.9222 39.7032 36.8233 39.968 36.6515C40.3661 36.3932 40.6075 36.0319 40.7509 35.6696C41.0003 35.0393 41.0002 34.2528 41 33.6578L41 25.7C41 23.6683 39.3701 22 37.3333 22H26.6667ZM37.1275 37.3017C37.1166 37.2057 37.1093 37.1046 37.1079 37H25V37.9789C25 39.1069 25.8999 40 26.9838 40H38.0158C37.9434 39.7919 37.8505 39.5635 37.742 39.2967L37.7109 39.2202C37.4955 38.6901 37.2031 37.9708 37.1275 37.3017ZM38.8715 34.9763C38.8478 34.9846 38.787 35 38.6667 35H25V25.7C25 24.7494 25.7579 24 26.6667 24H37.3333C38.2421 24 39 24.7494 39 25.7V33.6155C39 33.9483 38.9975 34.2231 38.9779 34.462C38.9581 34.7039 38.9245 34.8495 38.8912 34.9337C38.8829 34.9547 38.8761 34.9682 38.8715 34.9763ZM38.8818 34.9723L38.8837 34.9713C38.8837 34.9713 38.8831 34.9716 38.8818 34.9723ZM38.1309 40.4431C38.1308 40.4461 38.1308 40.4478 38.1309 40.4478C38.1309 40.4479 38.1309 40.4471 38.1309 40.4454" fill="black"/>
<path fill-rule="evenodd" clip-rule="evenodd" d="M66.6667 23H77.3333C78.8061 23 80 24.2088 80 25.7V35.9863C80.0051 36.3532 79.8072 36.7012 79.4741 36.8805C79.4701 36.9121 79.4671 36.9725 79.4789 37.0716C79.5212 37.4286 79.6957 37.8945 79.9349 38.4899L79.9638 38.5619C80.0656 38.8148 80.1757 39.0887 80.2647 39.346C80.3597 39.6203 80.4562 39.946 80.4843 40.2681C80.5112 40.5781 80.4903 41.0721 80.1297 41.4838C79.7606 41.9051 79.249 42 78.8536 42H67.8594C65.6839 42 64.0109 40.1591 64.0001 37.9999L64 37.9789V25.7C64 24.2088 65.1939 23 66.6667 23ZM66 37.9789C66 37.4383 66.4383 37 66.9789 37H77.4711C77.4732 37.1065 77.4812 37.2094 77.4928 37.3069C77.5716 37.9723 77.8596 38.6892 78.0734 39.2215L78.1045 39.2987C78.2109 39.5636 78.3026 39.7917 78.3747 40L67.8594 40C66.8836 40 66 39.1477 66 37.9789ZM78.8897 39.9987L78.8937 39.9982C78.8938 39.9983 78.8925 39.9985 78.8897 39.9987Z" fill="black"/>
</svg>
