<svg width="104" height="64" viewBox="0 0 104 64" fill="none" xmlns="http://www.w3.org/2000/svg">
<path d="M25.5528 30.8944C25.0588 30.6474 24.8586 30.0468 25.1056 29.5528C25.3526 29.0588 25.9532 28.8586 26.4472 29.1056L29.4472 30.6056C29.9412 30.8526 30.1414 31.4532 29.8944 31.9472C29.6474 32.4412 29.0468 32.6414 28.5528 32.3944L25.5528 30.8944Z" fill="black"/>
<path d="M25.5528 33.8944C25.0588 33.6474 24.8586 33.0468 25.1056 32.5528C25.3526 32.0588 25.9532 31.8586 26.4472 32.1056L29.4472 33.6056C29.9412 33.8526 30.1414 34.4532 29.8944 34.9472C29.6474 35.4412 29.0468 35.6414 28.5528 35.3944L25.5528 33.8944Z" fill="black"/>
<path d="M38.8944 29.5528C39.1414 30.0468 38.9412 30.6474 38.4472 30.8944L35.4472 32.3944C34.9532 32.6414 34.3526 32.4412 34.1056 31.9472C33.8586 31.4532 34.0588 30.8526 34.5528 30.6056L37.5528 29.1056C38.0468 28.8586 38.6474 29.0588 38.8944 29.5528Z" fill="black"/>
<path d="M38.8944 32.5528C39.1414 33.0468 38.9412 33.6474 38.4472 33.8944L35.4472 35.3944C34.9532 35.6414 34.3526 35.4412 34.1056 34.9472C33.8586 34.4532 34.0588 33.8526 34.5528 33.6056L37.5528 32.1056C38.0468 31.8586 38.6474 32.0588 38.8944 32.5528Z" fill="black"/>
<path fill-rule="evenodd" clip-rule="evenodd" d="M32 40C32.3502 40.9367 32.3502 40.9367 32.3503 40.9366L32.3594 40.9332L32.3835 40.9241L32.4742 40.8897C32.5525 40.8598 32.6658 40.8162 32.8071 40.7608C33.0897 40.6501 33.4855 40.492 33.9405 40.3017C34.844 39.9237 36.0062 39.4082 36.9787 38.878C38.0587 38.2892 39.6546 37.6167 40.6095 37.2305C41.4414 36.894 42 36.0865 42 35.1753V25.5692C42 24.128 40.6204 23.0474 39.2006 23.4837C38.2643 23.7714 37.0382 24.175 36.1008 24.5831C35.1215 25.0095 33.9538 25.66 33.0529 26.1884C32.6398 26.4306 32.2753 26.6517 32 26.8211C31.7247 26.6517 31.3602 26.4306 30.9471 26.1884C30.0462 25.66 28.8785 25.0095 27.8992 24.5831C26.9618 24.175 25.7357 23.7714 24.7994 23.4837C23.3796 23.0474 22 24.128 22 25.5692V35.1753C22 36.0865 22.5586 36.894 23.3905 37.2305C24.3454 37.6167 25.9413 38.2892 27.0213 38.878C27.9938 39.4082 29.156 39.9237 30.0595 40.3017C30.5145 40.492 30.9103 40.6501 31.1929 40.7608C31.3342 40.8162 31.4475 40.8598 31.5258 40.8897L31.6165 40.9241L31.6406 40.9332L31.649 40.9364C31.649 40.9364 31.6498 40.9367 32 40ZM24.2119 25.3954C24.12 25.3672 24 25.4291 24 25.5692V35.1753C24 35.2578 24.0513 35.3404 24.1405 35.3764C25.0946 35.7624 26.7869 36.4723 27.9787 37.122C28.8606 37.6028 29.9484 38.0872 30.8313 38.4566C30.8885 38.4805 30.9448 38.5039 31 38.5268V28.5542C30.7294 28.3872 30.3584 28.1617 29.9353 27.9135C29.047 27.3925 27.9647 26.793 27.1008 26.4169C26.2725 26.0563 25.1367 25.6797 24.2119 25.3954ZM33 28.5542V38.5268C33.0552 38.5039 33.1115 38.4805 33.1687 38.4566C34.0516 38.0872 35.1394 37.6028 36.0213 37.122C37.2131 36.4723 38.9054 35.7624 39.8595 35.3764C39.9487 35.3404 40 35.2578 40 35.1753V25.5692C40 25.4291 39.88 25.3672 39.7881 25.3954C38.8633 25.6797 37.7275 26.0563 36.8992 26.4169C36.0353 26.793 34.953 27.3925 34.0647 27.9135C33.6416 28.1617 33.2706 28.3872 33 28.5542Z" fill="black"/>
<path d="M32 40L32.3503 40.9366C32.1245 41.0211 31.8748 41.0208 31.649 40.9364L32 40Z" fill="black"/>
<path fill-rule="evenodd" clip-rule="evenodd" d="M81 25.5692V35.1753C81 35.6721 80.695 36.1172 80.2345 36.3034C79.28 36.6895 77.6359 37.3807 76.5 38C74.6456 39.011 72 40 72 40C72 40 69.3544 39.011 67.5 38C66.3641 37.3807 64.72 36.6895 63.7655 36.3034C63.305 36.1172 63 35.6721 63 35.1753V25.5692C63 24.7785 63.7498 24.2073 64.5056 24.4395C65.4362 24.7255 66.6171 25.1156 67.5 25.5C69.3432 26.3025 72 28 72 28C72 28 74.6568 26.3025 76.5 25.5C77.3829 25.1156 78.5638 24.7255 79.4944 24.4395C80.2502 24.2073 81 24.7785 81 25.5692ZM78.8944 29.5528C79.1414 30.0468 78.9412 30.6474 78.4472 30.8944L75.4472 32.3944C74.9532 32.6414 74.3526 32.4412 74.1056 31.9472C73.8586 31.4532 74.0588 30.8526 74.5528 30.6056L77.5528 29.1056C78.0468 28.8586 78.6474 29.0588 78.8944 29.5528ZM65.5528 30.8944C65.0588 30.6474 64.8586 30.0468 65.1056 29.5528C65.3526 29.0588 65.9532 28.8586 66.4472 29.1056L69.4472 30.6056C69.9412 30.8526 70.1414 31.4532 69.8944 31.9472C69.6474 32.4412 69.0468 32.6414 68.5528 32.3944L65.5528 30.8944ZM78.8944 32.5528C79.1414 33.0468 78.9412 33.6474 78.4472 33.8944L75.4472 35.3944C74.9532 35.6414 74.3526 35.4412 74.1056 34.9472C73.8586 34.4532 74.0588 33.8526 74.5528 33.6056L77.5528 32.1056C78.0468 31.8586 78.6474 32.0588 78.8944 32.5528ZM65.5528 33.8944C65.0588 33.6474 64.8586 33.0468 65.1056 32.5528C65.3526 32.0588 65.9532 31.8586 66.4472 32.1056L69.4472 33.6056C69.9412 33.8526 70.1414 34.4532 69.8944 34.9472C69.6474 35.4412 69.0468 35.6414 68.5528 35.3944L65.5528 33.8944Z" fill="black"/>
</svg>
