<svg width="104" height="64" viewBox="0 0 104 64" fill="none" xmlns="http://www.w3.org/2000/svg">
<path d="M27 32.25C27 32.9404 27.5596 33.5 28.25 33.5C28.9404 33.5 29.5 32.9404 29.5 32.25C29.5 31.5596 28.9404 31 28.25 31C27.5596 31 27 31.5596 27 32.25Z" fill="black"/>
<path d="M35.25 33.5C34.5596 33.5 34 32.9404 34 32.25C34 31.5596 34.5596 31 35.25 31C35.9404 31 36.5 31.5596 36.5 32.25C36.5 32.9404 35.9404 33.5 35.25 33.5Z" fill="black"/>
<path d="M29.1056 35.5528C29.3526 35.0588 29.9532 34.8586 30.4472 35.1056L30.6584 35.2111C31.5029 35.6334 32.4971 35.6334 33.3416 35.2111L33.5528 35.1056C34.0468 34.8586 34.6474 35.0588 34.8944 35.5528C35.1414 36.0468 34.9412 36.6474 34.4472 36.8944L34.2361 37C32.8284 37.7038 31.1716 37.7038 29.7639 37L29.5528 36.8944C29.0588 36.6474 28.8586 36.0468 29.1056 35.5528Z" fill="black"/>
<path fill-rule="evenodd" clip-rule="evenodd" d="M36.7071 21.2929C36.3166 20.9024 35.6834 20.9024 35.2929 21.2929L34.5858 22H33C32.6512 22 32.3276 22.1817 32.1461 22.4796L31.2194 24H27C23.6863 24 21 26.6863 21 30V38C21 40.2091 22.7909 42 25 42H39C41.2091 42 43 40.2091 43 38V30C43 26.6863 40.3137 24 37 24H35C35.2652 24 35.5196 23.8946 35.7071 23.7071L36.7071 22.7071C37.0976 22.3166 37.0976 21.6834 36.7071 21.2929ZM27 26C24.7909 26 23 27.7909 23 30V38C23 39.1046 23.8954 40 25 40H39C40.1046 40 41 39.1046 41 38V30C41 27.7909 39.2091 26 37 26H27Z" fill="black"/>
<path fill-rule="evenodd" clip-rule="evenodd" d="M76.7071 21.2929C76.3166 20.9024 75.6834 20.9024 75.2929 21.2929L74.5858 22H73C72.6512 22 72.3276 22.1817 72.1461 22.4796L71.1461 24.1203C70.9782 24.3958 70.9593 24.7204 71.0667 25H67C64.2386 25 62 27.2386 62 30V38C62 39.6569 63.3431 41 65 41H79C80.6569 41 82 39.6569 82 38V30C82 27.2386 79.7614 25 77 25H72.9521L73.5616 24H75C75.2652 24 75.5196 23.8946 75.7071 23.7071L76.7071 22.7071C77.0976 22.3166 77.0976 21.6834 76.7071 21.2929ZM67 32.25C67 32.9404 67.5596 33.5 68.25 33.5C68.9404 33.5 69.5 32.9404 69.5 32.25C69.5 31.5596 68.9404 31 68.25 31C67.5596 31 67 31.5596 67 32.25ZM75.25 33.5C74.5596 33.5 74 32.9404 74 32.25C74 31.5596 74.5596 31 75.25 31C75.9404 31 76.5 31.5596 76.5 32.25C76.5 32.9404 75.9404 33.5 75.25 33.5ZM69.1056 35.5528C69.3526 35.0588 69.9532 34.8586 70.4472 35.1056L70.6584 35.2111C71.5029 35.6334 72.4971 35.6334 73.3416 35.2111L73.5528 35.1056C74.0468 34.8586 74.6474 35.0588 74.8944 35.5528C75.1414 36.0468 74.9412 36.6474 74.4472 36.8944L74.2361 37C72.8284 37.7038 71.1716 37.7038 69.7639 37L69.5528 36.8944C69.0588 36.6474 68.8586 36.0468 69.1056 35.5528Z" fill="black"/>
</svg>
