<svg width="104" height="64" viewBox="0 0 104 64" fill="none" xmlns="http://www.w3.org/2000/svg">
<path fill-rule="evenodd" clip-rule="evenodd" d="M25 22.5C23.3431 22.5 22 23.8431 22 25.5V27.5C22 28.2403 22.4022 28.8866 23 29.2324V37.5C23 39.7091 24.7909 41.5 27 41.5H37C39.2091 41.5 41 39.7091 41 37.5V29.2324C41.5978 28.8866 42 28.2403 42 27.5V25.5C42 23.8431 40.6569 22.5 39 22.5H25ZM27 39.5C25.8954 39.5 25 38.6046 25 37.5V29.5H39V37.5C39 38.6046 38.1046 39.5 37 39.5H27ZM39 24.5C39.5523 24.5 40 24.9477 40 25.5V27.5H24V25.5C24 24.9477 24.4477 24.5 25 24.5H39Z" fill="black"/>
<path d="M65 24H79C80.1046 24 81 24.8954 81 26V28C81 28.5523 80.5523 29 80 29H64C63.4477 29 63 28.5523 63 28V26C63 24.8954 63.8954 24 65 24Z" fill="black"/>
<path d="M64 30.5V37.5C64 39.1569 65.3431 40.5 67 40.5H77C78.6569 40.5 80 39.1569 80 37.5V30.5H64Z" fill="black"/>
</svg>
