<svg width="104" height="64" viewBox="0 0 104 64" fill="none" xmlns="http://www.w3.org/2000/svg">
<path fill-rule="evenodd" clip-rule="evenodd" d="M20.8884 26.9055C20.9115 26.7203 20.9479 26.4728 21.0256 26.2454C21.0732 26.0141 21.1781 25.8293 21.2704 25.7008C21.3971 25.5242 21.5523 25.3801 21.6947 25.266C21.9798 25.0375 22.347 24.8247 22.7318 24.6302C23.5114 24.2362 24.544 23.8282 25.6062 23.4485C27.7409 22.6853 30.1304 21.9886 31.1803 21.6909C31.727 21.5359 32.2952 21.5432 32.8368 21.7101C33.8829 22.0326 36.2674 22.7827 38.3965 23.5629C39.4568 23.9514 40.4807 24.3572 41.2498 24.7286C41.6292 24.9118 41.9856 25.1051 42.2608 25.3021C42.3963 25.3991 42.5501 25.5236 42.6796 25.6767C42.7657 25.7784 42.9047 25.967 42.9672 26.2273C43.0493 26.4596 43.087 26.7153 43.1107 26.9054C43.1464 27.1925 43.1709 27.5392 43.1878 27.9185C43.2216 28.6798 43.2273 29.6357 43.2174 30.638C43.1976 32.6461 43.1143 34.8948 43.0565 36.2631C43.0068 37.4416 42.2671 38.4702 41.1803 38.9049L33.1137 42.1315C32.3985 42.4176 31.6006 42.4176 30.8854 42.1315L22.8188 38.9049C21.732 38.4702 20.9923 37.4416 20.9426 36.2631C20.8848 34.8948 20.8016 32.6461 20.7817 30.638C20.7718 29.6357 20.7775 28.6798 20.8114 27.9185C20.8282 27.5392 20.8527 27.1925 20.8884 26.9055ZM30.9995 40.0231V31.1746C30.962 31.1613 30.9247 31.1472 30.8876 31.1324L22.8143 27.9031L22.8094 28.0073C22.7779 28.7149 22.7718 29.6288 22.7816 30.6182C22.8012 32.5936 22.8833 34.8167 22.9408 36.1787C22.957 36.5618 23.1972 36.9022 23.5616 37.0479L30.9995 40.0231ZM32.9995 40.0231V31.1746C33.037 31.1613 33.0743 31.1473 33.1115 31.1324L41.1849 27.9031L41.1898 28.0074C41.2212 28.715 41.2273 29.6288 41.2175 30.6182C41.198 32.5936 41.1158 34.8168 41.0583 36.1787C41.0421 36.5618 40.8019 36.9022 40.4375 37.0479L32.9995 40.0231ZM37.7084 25.4408C38.5007 25.7311 39.2389 26.0194 39.8454 26.2848L37.0159 27.4166L29.6716 24.2198C30.5246 23.9596 31.2572 23.7479 31.7258 23.6151C31.8995 23.5658 32.0736 23.5678 32.2477 23.6214C33.2857 23.9413 35.6298 24.6791 37.7084 25.4408ZM26.7969 25.1498L34.4045 28.4611L32.3687 29.2755C32.1303 29.3708 31.8688 29.3708 31.6304 29.2755L24.0179 26.2305C24.6406 25.9439 25.426 25.6369 26.2795 25.3317C26.4504 25.2706 26.6232 25.2099 26.7969 25.1498Z" fill="black"/>
<path d="M68.5341 23.5253C69.7511 23.1423 70.8338 22.8286 71.453 22.653C71.8133 22.5509 72.1844 22.5555 72.5423 22.6658C74.2014 23.1772 79.2128 24.7603 81.1873 25.8178L77.6941 27.2886L68.5341 23.5253Z" fill="black"/>
<path d="M66.3457 24.2479C64.891 24.7552 63.5113 25.3012 62.7109 25.7805C62.7376 25.7884 62.7642 25.7978 62.7905 25.8089L71.9995 29.6863L75.7447 28.1094L66.3457 24.2479Z" fill="black"/>
<path d="M61.8925 26.9408C61.6571 28.5995 61.839 33.7903 61.9417 36.2209C61.9746 37.0017 62.4646 37.6862 63.1902 37.9764L71.2568 41.203C71.2645 41.2061 71.2722 41.2091 71.2799 41.2121C71.2601 41.1449 71.2495 41.0737 71.2495 41V30.998L62.2085 27.1914C62.0774 27.1362 61.9702 27.0481 61.8925 26.9408Z" fill="black"/>
<path d="M72.7191 41.2122C72.7268 41.2092 72.7346 41.2061 72.7423 41.203L80.8089 37.9764C81.5345 37.6862 82.0244 37.0017 82.0574 36.2209C82.1601 33.7903 82.3421 28.5993 82.1066 26.9407C82.0289 27.0481 81.9216 27.1362 81.7905 27.1914L72.7495 30.998V41C72.7495 41.0737 72.7389 41.1449 72.7191 41.2122Z" fill="black"/>
</svg>
