<svg width="104" height="64" viewBox="0 0 104 64" fill="none" xmlns="http://www.w3.org/2000/svg">
<path fill-rule="evenodd" clip-rule="evenodd" d="M27.5 27.3293C28.6652 26.9175 29.5 25.8062 29.5 24.5C29.5 22.8431 28.1569 21.5 26.5 21.5C24.8431 21.5 23.5 22.8431 23.5 24.5C23.5 25.8062 24.3348 26.9175 25.5 27.3293V32.6707C24.3348 33.0825 23.5 34.1938 23.5 35.5C23.5 36.8071 24.3359 37.9189 25.5023 38.3301C25.5009 38.3521 25.5001 38.3742 25.5001 38.3966V41.5C25.5001 42.0523 25.9478 42.5 26.5001 42.5C27.0524 42.5 27.5001 42.0523 27.5001 41.5V38.3966C27.5001 38.3742 27.4994 38.352 27.4979 38.33C28.265 38.0595 28.8892 37.4859 29.2266 36.7531C32.8992 36.7655 35.3335 35.9362 36.7866 34.0849C38.1354 32.3665 38.4466 29.976 38.4932 27.3317C39.6619 26.9218 40.5 25.8088 40.5 24.5C40.5 22.8431 39.1569 21.5 37.5 21.5C35.8431 21.5 34.5 22.8431 34.5 24.5C34.5 25.8034 35.3311 26.9126 36.4923 27.3266C36.4418 29.9032 36.1296 31.6828 35.2134 32.85C34.3383 33.9649 32.7129 34.7389 29.4063 34.7531C29.1575 33.7823 28.4352 33.0012 27.5 32.6707V27.3293ZM27.5 24.5C27.5 23.9477 27.0523 23.5 26.5 23.5C25.9477 23.5 25.5 23.9477 25.5 24.5C25.5 25.0523 25.9477 25.5 26.5 25.5C27.0523 25.5 27.5 25.0523 27.5 24.5ZM37.5 25.5C38.0523 25.5 38.5 25.0523 38.5 24.5C38.5 23.9477 38.0523 23.5 37.5 23.5C36.9477 23.5 36.5 23.9477 36.5 24.5C36.5 25.0523 36.9477 25.5 37.5 25.5ZM27.5 35.5C27.5 34.9477 27.0523 34.5 26.5 34.5C25.9477 34.5 25.5 34.9477 25.5 35.5C25.5 36.0523 25.9477 36.5 26.5 36.5C27.0523 36.5 27.5 36.0523 27.5 35.5Z" fill="black"/>
<path d="M65.5 26.792C64.617 26.4062 64 25.5252 64 24.5C64 23.1193 65.1193 22 66.5 22C67.8807 22 69 23.1193 69 24.5C69 25.5252 68.383 26.4062 67.5 26.792V33.2241C67.5 33.3827 67.4631 33.5327 67.3974 33.6659C67.9316 33.8714 68.3775 34.2551 68.6621 34.7441C72.4739 34.8491 74.275 34.0455 75.2134 32.85C76.1917 31.6037 76.4813 29.6591 76.4991 26.7916C75.6166 26.4056 75 25.5248 75 24.5C75 23.1193 76.1193 22 77.5 22C78.8807 22 80 23.1193 80 24.5C80 25.5255 79.3826 26.4067 78.4992 26.7923C78.4839 29.6498 78.2266 32.2504 76.7866 34.0849C75.289 35.9929 72.7492 36.8153 68.8857 36.7496C68.6678 37.4437 68.1554 38.0074 67.4949 38.2942C67.4984 38.3278 67.5001 38.362 67.5001 38.3966V41.5C67.5001 42.0523 67.0524 42.5 66.5001 42.5C65.9478 42.5 65.5001 42.0523 65.5001 41.5V38.3966C65.5001 38.362 65.5019 38.3279 65.5053 38.2943C64.6195 37.9097 64 37.0272 64 36C64 34.9356 64.6652 34.0265 65.6026 33.6659C65.5369 33.5327 65.5 33.3827 65.5 33.2241V26.792Z" fill="black"/>
</svg>
