<svg width="104" height="64" viewBox="0 0 104 64" fill="none" xmlns="http://www.w3.org/2000/svg">
<path fill-rule="evenodd" clip-rule="evenodd" d="M32.0005 21C30.6198 21 29.5005 22.1193 29.5005 23.5V26C29.5005 26.5523 29.0528 27 28.5005 27H26.0005C24.3436 27 23.0005 28.3431 23.0005 30V33.9377L22.2892 39.6279C22.0654 41.4185 23.4616 43 25.2661 43H38.7349C40.5394 43 41.9356 41.4185 41.7118 39.6279L41.0005 33.9377V30C41.0005 28.3431 39.6574 27 38.0005 27H35.5005C34.9482 27 34.5005 26.5523 34.5005 26V23.5C34.5005 22.1193 33.3812 21 32.0005 21ZM24.2738 39.876L24.8833 35H39.1177L39.7272 39.876C39.8018 40.4728 39.3364 41 38.7349 41H36.8678L36.4905 38.3586C36.4123 37.8118 35.9058 37.4319 35.3591 37.5101C34.8123 37.5882 34.4324 38.0947 34.5106 38.6414L34.8475 41H25.2661C24.6646 41 24.1992 40.4728 24.2738 39.876ZM38.0005 29C38.5528 29 39.0005 29.4477 39.0005 30V33H25.0005V30C25.0005 29.4477 25.4482 29 26.0005 29H28.5005C30.1574 29 31.5005 27.6569 31.5005 26V23.5C31.5005 23.2239 31.7244 23 32.0005 23C32.2766 23 32.5005 23.2239 32.5005 23.5V26C32.5005 27.6569 33.8436 29 35.5005 29H38.0005Z" fill="black"/>
<path d="M73.5007 23V25.5C73.5007 26.6046 74.3962 27.5 75.5007 27.5H78.0007C79.1053 27.5 80.0007 28.3954 80.0007 29.5V33.5H64.0007V29.5C64.0007 28.3954 64.8962 27.5 66.0007 27.5H68.5007C69.6053 27.5 70.5007 26.6046 70.5007 25.5V23C70.5007 22.1716 71.1723 21.5 72.0007 21.5C72.8292 21.5 73.5007 22.1716 73.5007 23Z" fill="black"/>
<path d="M63.7578 35H80.2437L80.9368 39.7087C81.1146 40.9163 80.1787 42 78.9581 42H77.1224C77.1223 41.9453 77.1178 41.8898 77.1084 41.8341L76.5932 38.7716C76.5016 38.227 75.9858 37.8597 75.4412 37.9514C74.8965 38.043 74.5293 38.5588 74.6209 39.1034L75.1082 42H65.0434C63.8228 42 62.8869 40.9163 63.0647 39.7087L63.7578 35Z" fill="black"/>
</svg>
