<svg width="104" height="64" viewBox="0 0 104 64" fill="none" xmlns="http://www.w3.org/2000/svg">
<path fill-rule="evenodd" clip-rule="evenodd" d="M25.0092 31.8637C25.0031 31.8129 25 31.7612 25 31.7087V25C25 23.8954 25.8954 23 27 23H28V22C28 21.4477 28.4477 21 29 21C29.5523 21 30 21.4477 30 22V23H30.5V22C30.5 21.4477 30.9477 21 31.5 21C32.0523 21 32.5 21.4477 32.5 22V23.0247C35.0267 23.2755 37 25.4073 37 28C37 29.2708 36.5259 30.4308 35.745 31.3129C37.646 32.021 39 33.8524 39 36C39 38.7614 36.7614 41 34 41H32.5V42C32.5 42.5523 32.0523 43 31.5 43C30.9477 43 30.5 42.5523 30.5 42V41H30V42C30 42.5523 29.5523 43 29 43C28.4477 43 28 42.5523 28 42V41H27C25.8954 41 25 40.1046 25 39V32C25 31.9538 25.0031 31.9083 25.0092 31.8637ZM27 31H32C33.6569 31 35 29.6569 35 28C35 26.3431 33.6569 25 32 25H27V31ZM27 33V39H34C35.6569 39 37 37.6569 37 36C37 34.3431 35.6569 33 34 33H27Z" fill="black"/>
<path fill-rule="evenodd" clip-rule="evenodd" d="M65.0092 31.8637C65.0031 31.8129 65 31.7612 65 31.7087V25C65 23.8954 65.8954 23 67 23H68V22C68 21.4477 68.4477 21 69 21C69.5523 21 70 21.4477 70 22V23H70.5V22C70.5 21.4477 70.9477 21 71.5 21C72.0523 21 72.5 21.4477 72.5 22V23.0247C75.0267 23.2755 77 25.4073 77 28C77 29.2708 76.5259 30.4308 75.745 31.3129C77.646 32.021 79 33.8524 79 36C79 38.7614 76.7614 41 74 41H72.5V42C72.5 42.5523 72.0523 43 71.5 43C70.9477 43 70.5 42.5523 70.5 42V41H70V42C70 42.5523 69.5523 43 69 43C68.4477 43 68 42.5523 68 42V41H67C65.8954 41 65 40.1046 65 39V32C65 31.9538 65.0031 31.9083 65.0092 31.8637ZM67 31H72C73.6569 31 75 29.6569 75 28C75 26.3431 73.6569 25 72 25H67V31ZM67 33V39H74C75.6569 39 77 37.6569 77 36C77 34.3431 75.6569 33 74 33H67Z" fill="black"/>
</svg>
