<svg width="104" height="64" viewBox="0 0 104 64" fill="none" xmlns="http://www.w3.org/2000/svg">
<path fill-rule="evenodd" clip-rule="evenodd" d="M27.1992 25.0802L27.3023 24.6679C27.8412 22.5122 29.778 21 32 21C34.222 21 36.1588 22.5122 36.6977 24.6679L36.8008 25.0802C37.9688 25.3175 38.9518 26.0638 39.5085 27.0773L40.2929 26.2929C40.6834 25.9024 41.3166 25.9024 41.7071 26.2929C42.0976 26.6834 42.0976 27.3166 41.7071 27.7071L40 29.4142V32L41.5 32C42.0523 32 42.5 32.4477 42.5 33C42.5 33.5523 42.0523 34 41.5 34L39.9381 34C39.8186 34.9588 39.5293 35.8648 39.1015 36.6872L40.7071 38.2929C41.0976 38.6834 41.0976 39.3166 40.7071 39.7071C40.3166 40.0976 39.6834 40.0976 39.2929 39.7071L37.9422 38.3564C36.478 39.9797 34.3582 41 32 41C29.6418 41 27.522 39.9797 26.0578 38.3564L24.7071 39.7071C24.3166 40.0976 23.6834 40.0976 23.2929 39.7071C22.9024 39.3166 22.9024 38.6834 23.2929 38.2929L24.8985 36.6872C24.4707 35.8648 24.1815 34.9588 24.0619 34L22.5 34C21.9477 34 21.5 33.5523 21.5 33C21.5 32.4477 21.9477 32 22.5 32L24 32V29.4142L22.2929 27.7071C21.9024 27.3166 21.9024 26.6834 22.2929 26.2929C22.6834 25.9024 23.3166 25.9024 23.7071 26.2929L24.4915 27.0773C25.0482 26.0638 26.0312 25.3175 27.1992 25.0802ZM32 39C28.6863 39 26 36.3137 26 33V29C26 27.8954 26.8954 27 28 27H36C37.1046 27 38 27.8954 38 29V33C38 36.3137 35.3137 39 32 39ZM34.7147 25C34.3481 23.8167 33.251 23 32 23C30.749 23 29.6519 23.8167 29.2853 25H34.7147Z" fill="black"/>
<path d="M68.2724 24.9104L68.25 25H75.75L75.7276 24.9104C75.3 23.1999 73.7631 22 72 22C70.2369 22 68.7 23.1999 68.2724 24.9104Z" fill="black"/>
<path d="M79 32L79 30.3663C79.074 30.3235 79.1438 30.2704 79.2071 30.2071L81.2071 28.2071C81.5976 27.8166 81.5976 27.1834 81.2071 26.7929C80.8166 26.4024 80.1834 26.4024 79.7929 26.7929L78.761 27.8247C78.3038 26.752 77.2397 26 76 26H68C66.7603 26 65.6962 26.752 65.239 27.8247L64.2071 26.7929C63.8166 26.4024 63.1834 26.4024 62.7929 26.7929C62.4024 27.1834 62.4024 27.8166 62.7929 28.2071L64.7929 30.2071C64.8562 30.2704 64.926 30.3235 65 30.3663L65 32L62.5 32C61.9477 32 61.5 32.4477 61.5 33C61.5 33.5523 61.9477 34 62.5 34L65 34C65.0237 34 65.0472 33.9992 65.0705 33.9976C65.1682 34.682 65.3649 35.3346 65.6456 35.9402L63.7929 37.7929C63.4024 38.1834 63.4024 38.8166 63.7929 39.2071C64.1834 39.5976 64.8166 39.5976 65.2071 39.2071L66.766 37.6482C68.0482 39.091 69.918 40 72 40C74.082 40 75.9518 39.091 77.234 37.6482L78.7929 39.2071C79.1834 39.5976 79.8166 39.5976 80.2071 39.2071C80.5976 38.8166 80.5976 38.1834 80.2071 37.7929L78.3544 35.9402C78.6351 35.3346 78.8318 34.682 78.9295 33.9976C78.9528 33.9992 78.9763 34 79 34L80.5 34C81.0523 34 81.5 33.5523 81.5 33C81.5 32.4477 81.0523 32 80.5 32L79 32Z" fill="black"/>
</svg>
