<svg width="104" height="64" viewBox="0 0 104 64" fill="none" xmlns="http://www.w3.org/2000/svg">
<path d="M36 34C36 34.5523 35.5523 35 35 35H34C33.4477 35 33 34.5523 33 34C33 33.4477 33.4477 33 34 33H35C35.5523 33 36 33.4477 36 34Z" fill="black"/>
<path d="M35 32C35.5523 32 36 31.5523 36 31C36 30.4477 35.5523 30 35 30H34C33.4477 30 33 30.4477 33 31C33 31.5523 33.4477 32 34 32H35Z" fill="black"/>
<path d="M31 34C31 34.5523 30.5523 35 30 35H29C28.4477 35 28 34.5523 28 34C28 33.4477 28.4477 33 29 33H30C30.5523 33 31 33.4477 31 34Z" fill="black"/>
<path d="M30 32C30.5523 32 31 31.5523 31 31C31 30.4477 30.5523 30 30 30H29C28.4477 30 28 30.4477 28 31C28 31.5523 28.4477 32 29 32H30Z" fill="black"/>
<path fill-rule="evenodd" clip-rule="evenodd" d="M32.9782 24.3995C32.3667 24.0598 31.622 24.0643 31.0146 24.4113L25.0077 27.8439C24.3846 28.1999 24 28.8626 24 29.5803V39C23.4477 39 23 39.4477 23 40C23 40.5523 23.4477 41 24 41H40C40.5523 41 41 40.5523 41 40C41 39.4477 40.5523 39 40 39V29.5662C40 28.8637 39.6314 28.2127 39.029 27.8512L37.5 26.9338V26C37.5 25.4477 37.0523 25 36.5 25C36.0125 25 35.6065 25.3488 35.5179 25.8105L32.9782 24.3995ZM33 39V37C33 36.4477 32.5523 36 32 36C31.4477 36 31 36.4477 31 37V39H26V29.5803L32.0069 26.1478L35.9998 28.3661L38 29.5662V39H33Z" fill="black"/>
<path fill-rule="evenodd" clip-rule="evenodd" d="M65 39V29.5802C65 29.2214 65.1923 28.89 65.5039 28.712L71.5108 25.2795C71.8145 25.1059 72.1868 25.1037 72.4926 25.2735L75.5015 26.9452C75.5299 26.4184 75.9661 26 76.5 26C77.0523 26 77.5 26.4477 77.5 27V28.0999L78.5145 28.7086C78.8157 28.8893 79 29.2148 79 29.5661V39H80C80.5523 39 81 39.4477 81 40C81 40.5523 80.5523 41 80 41H64C63.4477 41 63 40.5523 63 40C63 39.4477 63.4477 39 64 39H65ZM71 39H73V36.9999C73 36.4476 72.5523 35.9999 72 35.9999C71.4477 35.9999 71 36.4476 71 36.9999V39ZM76 33.9999C76 34.5522 75.5523 34.9999 75 34.9999H74C73.4477 34.9999 73 34.5522 73 33.9999C73 33.4476 73.4477 32.9999 74 32.9999H75C75.5523 32.9999 76 33.4476 76 33.9999ZM75 31.9999C75.5523 31.9999 76 31.5522 76 30.9999C76 30.4476 75.5523 29.9999 75 29.9999H74C73.4477 29.9999 73 30.4476 73 30.9999C73 31.5522 73.4477 31.9999 74 31.9999H75ZM71 33.9999C71 34.5522 70.5523 34.9999 70 34.9999H69C68.4477 34.9999 68 34.5522 68 33.9999C68 33.4476 68.4477 32.9999 69 32.9999H70C70.5523 32.9999 71 33.4476 71 33.9999ZM70 31.9999C70.5523 31.9999 71 31.5522 71 30.9999C71 30.4476 70.5523 29.9999 70 29.9999H69C68.4477 29.9999 68 30.4476 68 30.9999C68 31.5522 68.4477 31.9999 69 31.9999H70Z" fill="black"/>
</svg>
