<svg width="104" height="64" viewBox="0 0 104 64" fill="none" xmlns="http://www.w3.org/2000/svg">
<path d="M29.5 27C29.5 27.5523 29.0523 28 28.5 28H27.5C26.9477 28 26.5 27.5523 26.5 27C26.5 26.4477 26.9477 26 27.5 26H28.5C29.0523 26 29.5 26.4477 29.5 27Z" fill="black"/>
<path d="M32.5 31C33.0523 31 33.5 30.5523 33.5 30C33.5 29.4477 33.0523 29 32.5 29H31.5C30.9477 29 30.5 29.4477 30.5 30C30.5 30.5523 30.9477 31 31.5 31H32.5Z" fill="black"/>
<path d="M29.5 33C29.5 33.5523 29.0523 34 28.5 34H27.5C26.9477 34 26.5 33.5523 26.5 33C26.5 32.4477 26.9477 32 27.5 32H28.5C29.0523 32 29.5 32.4477 29.5 33Z" fill="black"/>
<path d="M32.5 28C33.0523 28 33.5 27.5523 33.5 27C33.5 26.4477 33.0523 26 32.5 26H31.5C30.9477 26 30.5 26.4477 30.5 27C30.5 27.5523 30.9477 28 31.5 28H32.5Z" fill="black"/>
<path d="M29.5 30C29.5 30.5523 29.0523 31 28.5 31H27.5C26.9477 31 26.5 30.5523 26.5 30C26.5 29.4477 26.9477 29 27.5 29H28.5C29.0523 29 29.5 29.4477 29.5 30Z" fill="black"/>
<path d="M32.5 34C33.0523 34 33.5 33.5523 33.5 33C33.5 32.4477 33.0523 32 32.5 32H31.5C30.9477 32 30.5 32.4477 30.5 33C30.5 33.5523 30.9477 34 31.5 34H32.5Z" fill="black"/>
<path d="M29.5 36C29.5 36.5523 29.0523 37 28.5 37H27.5C26.9477 37 26.5 36.5523 26.5 36C26.5 35.4477 26.9477 35 27.5 35H28.5C29.0523 35 29.5 35.4477 29.5 36Z" fill="black"/>
<path d="M32.5 37C33.0523 37 33.5 36.5523 33.5 36C33.5 35.4477 33.0523 35 32.5 35H31.5C30.9477 35 30.5 35.4477 30.5 36C30.5 36.5523 30.9477 37 31.5 37H32.5Z" fill="black"/>
<path fill-rule="evenodd" clip-rule="evenodd" d="M24 25C24 23.8954 24.8954 23 26 23H34C35.1046 23 36 23.8954 36 25V29H39C40.1046 29 41 29.8954 41 31V39H42C42.5523 39 43 39.4477 43 40C43 40.5523 42.5523 41 42 41H22C21.4477 41 21 40.5523 21 40C21 39.4477 21.4477 39 22 39H24V25ZM26 39H34V25H26V39ZM39 35V34H38.5C37.9477 34 37.5 33.5523 37.5 33C37.5 32.4477 37.9477 32 38.5 32H39V31H36V39H39V37H38.5C37.9477 37 37.5 36.5523 37.5 36C37.5 35.4477 37.9477 35 38.5 35H39Z" fill="black"/>
<path fill-rule="evenodd" clip-rule="evenodd" d="M80 39H82C82.5523 39 83 39.4477 83 40C83 40.5523 82.5523 41 82 41H62C61.4477 41 61 40.5523 61 40C61 39.4477 61.4477 39 62 39H65V25C65 24.4477 65.4477 24 66 24H74C74.5523 24 75 24.4477 75 25V30H79C79.5523 30 80 30.4477 80 31V32H79C78.4477 32 78 32.4477 78 33C78 33.5523 78.4477 34 79 34H80V35H79C78.4477 35 78 35.4477 78 36C78 36.5523 78.4477 37 79 37H80V39ZM68.5 28C69.0523 28 69.5 27.5523 69.5 27C69.5 26.4477 69.0523 26 68.5 26H67.5C66.9477 26 66.5 26.4477 66.5 27C66.5 27.5523 66.9477 28 67.5 28H68.5ZM73.5 30C73.5 30.5523 73.0523 31 72.5 31H71.5C70.9477 31 70.5 30.5523 70.5 30C70.5 29.4477 70.9477 29 71.5 29H72.5C73.0523 29 73.5 29.4477 73.5 30ZM68.5 34C69.0523 34 69.5 33.5523 69.5 33C69.5 32.4477 69.0523 32 68.5 32H67.5C66.9477 32 66.5 32.4477 66.5 33C66.5 33.5523 66.9477 34 67.5 34H68.5ZM73.5 27C73.5 27.5523 73.0523 28 72.5 28H71.5C70.9477 28 70.5 27.5523 70.5 27C70.5 26.4477 70.9477 26 71.5 26H72.5C73.0523 26 73.5 26.4477 73.5 27ZM68.5 31C69.0523 31 69.5 30.5523 69.5 30C69.5 29.4477 69.0523 29 68.5 29H67.5C66.9477 29 66.5 29.4477 66.5 30C66.5 30.5523 66.9477 31 67.5 31H68.5ZM73.5 33C73.5 33.5523 73.0523 34 72.5 34H71.5C70.9477 34 70.5 33.5523 70.5 33C70.5 32.4477 70.9477 32 71.5 32H72.5C73.0523 32 73.5 32.4477 73.5 33ZM68.5 37C69.0523 37 69.5 36.5523 69.5 36C69.5 35.4477 69.0523 35 68.5 35H67.5C66.9477 35 66.5 35.4477 66.5 36C66.5 36.5523 66.9477 37 67.5 37H68.5ZM73.5 36C73.5 36.5523 73.0523 37 72.5 37H71.5C70.9477 37 70.5 36.5523 70.5 36C70.5 35.4477 70.9477 35 71.5 35H72.5C73.0523 35 73.5 35.4477 73.5 36Z" fill="black"/>
</svg>
