<svg width="104" height="64" viewBox="0 0 104 64" fill="none" xmlns="http://www.w3.org/2000/svg">
<path d="M35 31C35.5523 31 36 30.5523 36 30C36 29.4477 35.5523 29 35 29H34C33.4477 29 33 29.4477 33 30C33 30.5523 33.4477 31 34 31H35Z" fill="black"/>
<path d="M31 33C31 33.5523 30.5523 34 30 34H29C28.4477 34 28 33.5523 28 33C28 32.4477 28.4477 32 29 32H30C30.5523 32 31 32.4477 31 33Z" fill="black"/>
<path d="M30 31C30.5523 31 31 30.5523 31 30C31 29.4477 30.5523 29 30 29H29C28.4477 29 28 29.4477 28 30C28 30.5523 28.4477 31 29 31H30Z" fill="black"/>
<path d="M36 33C36 33.5523 35.5523 34 35 34H34C33.4477 34 33 33.5523 33 33C33 32.4477 33.4477 32 34 32H35C35.5523 32 36 32.4477 36 33Z" fill="black"/>
<path d="M30 37C30.5523 37 31 36.5523 31 36C31 35.4477 30.5523 35 30 35H29C28.4477 35 28 35.4477 28 36C28 36.5523 28.4477 37 29 37H30Z" fill="black"/>
<path d="M36 36C36 36.5523 35.5523 37 35 37H34C33.4477 37 33 36.5523 33 36C33 35.4477 33.4477 35 34 35H35C35.5523 35 36 35.4477 36 36Z" fill="black"/>
<path fill-rule="evenodd" clip-rule="evenodd" d="M32.9923 24.4152C32.3774 24.0639 31.6226 24.0639 31.0077 24.4152L25.0077 27.8438C24.3846 28.1999 24 28.8626 24 29.5803V39H22.5C21.9477 39 21.5 39.4477 21.5 40C21.5 40.5523 21.9477 41 22.5 41H41.5C42.0523 41 42.5 40.5523 42.5 40C42.5 39.4477 42.0523 39 41.5 39H40V29.5803C40 28.8626 39.6154 28.1999 38.9923 27.8438L32.9923 24.4152ZM33 39V38C33 37.4477 32.5523 37 32 37C31.4477 37 31 37.4477 31 38V39H26V29.5803L32 26.1517L38 29.5803V39H33Z" fill="black"/>
<path fill-rule="evenodd" clip-rule="evenodd" d="M79 39H81C81.5523 39 82 39.4477 82 40C82 40.5523 81.5523 41 81 41H62.5C61.9477 41 61.5 40.5523 61.5 40C61.5 39.4477 61.9477 39 62.5 39H65V29.5804C65 29.2216 65.1923 28.8902 65.5039 28.7122L71.5039 25.2836C71.8113 25.1079 72.1887 25.1079 72.4961 25.2836L78.4961 28.7122C78.8077 28.8902 79 29.2216 79 29.5804V39ZM71 39H73V38.0001C73 37.4478 72.5523 37.0001 72 37.0001C71.4477 37.0001 71 37.4478 71 38.0001V39ZM76 30.0001C76 30.5524 75.5523 31.0001 75 31.0001H74C73.4477 31.0001 73 30.5524 73 30.0001C73 29.4478 73.4477 29.0001 74 29.0001H75C75.5523 29.0001 76 29.4478 76 30.0001ZM70 34.0001C70.5523 34.0001 71 33.5524 71 33.0001C71 32.4478 70.5523 32.0001 70 32.0001H69C68.4477 32.0001 68 32.4478 68 33.0001C68 33.5524 68.4477 34.0001 69 34.0001H70ZM71 30.0001C71 30.5524 70.5523 31.0001 70 31.0001H69C68.4477 31.0001 68 30.5524 68 30.0001C68 29.4478 68.4477 29.0001 69 29.0001H70C70.5523 29.0001 71 29.4478 71 30.0001ZM75 34.0001C75.5523 34.0001 76 33.5524 76 33.0001C76 32.4478 75.5523 32.0001 75 32.0001H74C73.4477 32.0001 73 32.4478 73 33.0001C73 33.5524 73.4477 34.0001 74 34.0001H75ZM71 36.0001C71 36.5524 70.5523 37.0001 70 37.0001H69C68.4477 37.0001 68 36.5524 68 36.0001C68 35.4478 68.4477 35.0001 69 35.0001H70C70.5523 35.0001 71 35.4478 71 36.0001ZM75 37.0001C75.5523 37.0001 76 36.5524 76 36.0001C76 35.4478 75.5523 35.0001 75 35.0001H74C73.4477 35.0001 73 35.4478 73 36.0001C73 36.5524 73.4477 37.0001 74 37.0001H75Z" fill="black"/>
</svg>
