<svg width="104" height="64" viewBox="0 0 104 64" fill="none" xmlns="http://www.w3.org/2000/svg">
<path d="M31.5 27C31.5 27.5523 31.0523 28 30.5 28H29.5C28.9477 28 28.5 27.5523 28.5 27C28.5 26.4477 28.9477 26 29.5 26H30.5C31.0523 26 31.5 26.4477 31.5 27Z" fill="black"/>
<path d="M34.5 31C35.0523 31 35.5 30.5523 35.5 30C35.5 29.4477 35.0523 29 34.5 29H33.5C32.9477 29 32.5 29.4477 32.5 30C32.5 30.5523 32.9477 31 33.5 31H34.5Z" fill="black"/>
<path d="M31.5 33C31.5 33.5523 31.0523 34 30.5 34H29.5C28.9477 34 28.5 33.5523 28.5 33C28.5 32.4477 28.9477 32 29.5 32H30.5C31.0523 32 31.5 32.4477 31.5 33Z" fill="black"/>
<path d="M34.5 28C35.0523 28 35.5 27.5523 35.5 27C35.5 26.4477 35.0523 26 34.5 26H33.5C32.9477 26 32.5 26.4477 32.5 27C32.5 27.5523 32.9477 28 33.5 28H34.5Z" fill="black"/>
<path d="M31.5 30C31.5 30.5523 31.0523 31 30.5 31H29.5C28.9477 31 28.5 30.5523 28.5 30C28.5 29.4477 28.9477 29 29.5 29H30.5C31.0523 29 31.5 29.4477 31.5 30Z" fill="black"/>
<path d="M34.5 34C35.0523 34 35.5 33.5523 35.5 33C35.5 32.4477 35.0523 32 34.5 32H33.5C32.9477 32 32.5 32.4477 32.5 33C32.5 33.5523 32.9477 34 33.5 34H34.5Z" fill="black"/>
<path d="M31.5 36C31.5 36.5523 31.0523 37 30.5 37H29.5C28.9477 37 28.5 36.5523 28.5 36C28.5 35.4477 28.9477 35 29.5 35H30.5C31.0523 35 31.5 35.4477 31.5 36Z" fill="black"/>
<path d="M34.5 37C35.0523 37 35.5 36.5523 35.5 36C35.5 35.4477 35.0523 35 34.5 35H33.5C32.9477 35 32.5 35.4477 32.5 36C32.5 36.5523 32.9477 37 33.5 37H34.5Z" fill="black"/>
<path fill-rule="evenodd" clip-rule="evenodd" d="M26 25C26 23.8954 26.8954 23 28 23H36C37.1046 23 38 23.8954 38 25V39H40C40.5523 39 41 39.4477 41 40C41 40.5523 40.5523 41 40 41H24C23.4477 41 23 40.5523 23 40C23 39.4477 23.4477 39 24 39H26V25ZM28 39H36V25H28V39Z" fill="black"/>
<path fill-rule="evenodd" clip-rule="evenodd" d="M67 39V25C67 24.4477 67.4477 24 68 24H76C76.5523 24 77 24.4477 77 25V39H80C80.5523 39 81 39.4477 81 40C81 40.5523 80.5523 41 80 41H64C63.4477 41 63 40.5523 63 40C63 39.4477 63.4477 39 64 39H67ZM70.5 28C71.0523 28 71.5 27.5523 71.5 27C71.5 26.4477 71.0523 26 70.5 26H69.5C68.9477 26 68.5 26.4477 68.5 27C68.5 27.5523 68.9477 28 69.5 28H70.5ZM75.5 30C75.5 30.5523 75.0523 31 74.5 31H73.5C72.9477 31 72.5 30.5523 72.5 30C72.5 29.4477 72.9477 29 73.5 29H74.5C75.0523 29 75.5 29.4477 75.5 30ZM70.5 34C71.0523 34 71.5 33.5523 71.5 33C71.5 32.4477 71.0523 32 70.5 32H69.5C68.9477 32 68.5 32.4477 68.5 33C68.5 33.5523 68.9477 34 69.5 34H70.5ZM75.5 27C75.5 27.5523 75.0523 28 74.5 28H73.5C72.9477 28 72.5 27.5523 72.5 27C72.5 26.4477 72.9477 26 73.5 26H74.5C75.0523 26 75.5 26.4477 75.5 27ZM70.5 31C71.0523 31 71.5 30.5523 71.5 30C71.5 29.4477 71.0523 29 70.5 29H69.5C68.9477 29 68.5 29.4477 68.5 30C68.5 30.5523 68.9477 31 69.5 31H70.5ZM75.5 33C75.5 33.5523 75.0523 34 74.5 34H73.5C72.9477 34 72.5 33.5523 72.5 33C72.5 32.4477 72.9477 32 73.5 32H74.5C75.0523 32 75.5 32.4477 75.5 33ZM70.5 37C71.0523 37 71.5 36.5523 71.5 36C71.5 35.4477 71.0523 35 70.5 35H69.5C68.9477 35 68.5 35.4477 68.5 36C68.5 36.5523 68.9477 37 69.5 37H70.5ZM75.5 36C75.5 36.5523 75.0523 37 74.5 37H73.5C72.9477 37 72.5 36.5523 72.5 36C72.5 35.4477 72.9477 35 73.5 35H74.5C75.0523 35 75.5 35.4477 75.5 36Z" fill="black"/>
</svg>
