<svg width="104" height="64" viewBox="0 0 104 64" fill="none" xmlns="http://www.w3.org/2000/svg">
<path fill-rule="evenodd" clip-rule="evenodd" d="M27 25C27 23.8954 27.8954 23 29 23H35C36.1046 23 37 23.8954 37 25V39H40C40.5523 39 41 39.4477 41 40C41 40.5523 40.5523 41 40 41H24C23.4477 41 23 40.5523 23 40C23 39.4477 23.4477 39 24 39H27V25ZM35 35H33C32.4477 35 32 35.4477 32 36C32 36.5523 32.4477 37 33 37H35V39H29V37H30C30.5523 37 31 36.5523 31 36C31 35.4477 30.5523 35 30 35H29V34H31C31.5523 34 32 33.5523 32 33C32 32.4477 31.5523 32 31 32H29V31H30C30.5523 31 31 30.5523 31 30C31 29.4477 30.5523 29 30 29H29V28H31C31.5523 28 32 27.5523 32 27C32 26.4477 31.5523 26 31 26H29V25H35V26H34C33.4477 26 33 26.4477 33 27C33 27.5523 33.4477 28 34 28H35V29H33C32.4477 29 32 29.4477 32 30C32 30.5523 32.4477 31 33 31H35V32H34C33.4477 32 33 32.4477 33 33C33 33.5523 33.4477 34 34 34H35V35Z" fill="black"/>
<path d="M68 26V25C68 24.4477 68.4477 24 69 24H75C75.5523 24 76 24.4477 76 25V26H75C74.4477 26 74 26.4477 74 27C74 27.5523 74.4477 28 75 28H76V29H74C73.4477 29 73 29.4477 73 30C73 30.5523 73.4477 31 74 31H76V32H75C74.4477 32 74 32.4477 74 33C74 33.5523 74.4477 34 75 34H76V35H74C73.4477 35 73 35.4477 73 36C73 36.5523 73.4477 37 74 37H76V39H80C80.5523 39 81 39.4477 81 40C81 40.5523 80.5523 41 80 41H64C63.4477 41 63 40.5523 63 40C63 39.4477 63.4477 39 64 39H68V37H69C69.5523 37 70 36.5523 70 36C70 35.4477 69.5523 35 69 35H68V34H70C70.5523 34 71 33.5523 71 33C71 32.4477 70.5523 32 70 32H68V31H69C69.5523 31 70 30.5523 70 30C70 29.4477 69.5523 29 69 29H68V28H70C70.5523 28 71 27.5523 71 27C71 26.4477 70.5523 26 70 26H68Z" fill="black"/>
</svg>
