<svg width="104" height="64" viewBox="0 0 104 64" fill="none" xmlns="http://www.w3.org/2000/svg">
<path d="M36 34.0001C36 34.5523 35.5523 35.0001 35 35.0001H34C33.4477 35.0001 33 34.5523 33 34.0001C33 33.4478 33.4477 33.0001 34 33.0001H35C35.5523 33.0001 36 33.4478 36 34.0001Z" fill="black"/>
<path d="M35 32.0001C35.5523 32.0001 36 31.5523 36 31.0001C36 30.4478 35.5523 30.0001 35 30.0001H34C33.4477 30.0001 33 30.4478 33 31.0001C33 31.5523 33.4477 32.0001 34 32.0001H35Z" fill="black"/>
<path d="M31 34.0001C31 34.5523 30.5523 35.0001 30 35.0001H29C28.4477 35.0001 28 34.5523 28 34.0001C28 33.4478 28.4477 33.0001 29 33.0001H30C30.5523 33.0001 31 33.4478 31 34.0001Z" fill="black"/>
<path d="M30 32.0001C30.5523 32.0001 31 31.5523 31 31.0001C31 30.4478 30.5523 30.0001 30 30.0001H29C28.4477 30.0001 28 30.4478 28 31.0001C28 31.5523 28.4477 32.0001 29 32.0001H30Z" fill="black"/>
<path fill-rule="evenodd" clip-rule="evenodd" d="M33.1094 24.5378C32.4376 24.0899 31.5624 24.0899 30.8906 24.5378L25.8906 27.8711C25.3342 28.2421 25 28.8665 25 29.5352V39.0001H24C23.4477 39.0001 23 39.4478 23 40.0001C23 40.5523 23.4477 41.0001 24 41.0001H40C40.5523 41.0001 41 40.5523 41 40.0001C41 39.4478 40.5523 39.0001 40 39.0001H39V29.5352C39 28.8665 38.6658 28.2421 38.1094 27.8711L33.1094 24.5378ZM33 39.0001V37.0001C33 36.4478 32.5523 36.0001 32 36.0001C31.4477 36.0001 31 36.4478 31 37.0001V39.0001H27V29.5352L32 26.2019L37 29.5352V39.0001H33Z" fill="black"/>
<path fill-rule="evenodd" clip-rule="evenodd" d="M78 39H80C80.5523 39 81 39.4477 81 40C81 40.5523 80.5523 41 80 41H64C63.4477 41 63 40.5523 63 40C63 39.4477 63.4477 39 64 39H66V29.5352C66 29.2009 66.1671 28.8887 66.4453 28.7032L71.4453 25.3699C71.7812 25.1459 72.2188 25.1459 72.5547 25.3699L77.5547 28.7032C77.8329 28.8887 78 29.2009 78 29.5352V39ZM71 39H73V37.0001C73 36.4478 72.5523 36.0001 72 36.0001C71.4477 36.0001 71 36.4478 71 37.0001V39ZM75 35.0001C75.5523 35.0001 76 34.5523 76 34.0001C76 33.4478 75.5523 33.0001 75 33.0001H74C73.4477 33.0001 73 33.4478 73 34.0001C73 34.5523 73.4477 35.0001 74 35.0001H75ZM76 31.0001C76 31.5523 75.5523 32.0001 75 32.0001H74C73.4477 32.0001 73 31.5523 73 31.0001C73 30.4478 73.4477 30.0001 74 30.0001H75C75.5523 30.0001 76 30.4478 76 31.0001ZM70 35.0001C70.5523 35.0001 71 34.5523 71 34.0001C71 33.4478 70.5523 33.0001 70 33.0001H69C68.4477 33.0001 68 33.4478 68 34.0001C68 34.5523 68.4477 35.0001 69 35.0001H70ZM71 31.0001C71 31.5523 70.5523 32.0001 70 32.0001H69C68.4477 32.0001 68 31.5523 68 31.0001C68 30.4478 68.4477 30.0001 69 30.0001H70C70.5523 30.0001 71 30.4478 71 31.0001Z" fill="black"/>
</svg>
