<svg width="104" height="64" viewBox="0 0 104 64" fill="none" xmlns="http://www.w3.org/2000/svg">
<path d="M32 22C33.9875 22 35.7945 22.7731 37.1366 24.035L35.7214 25.4501C34.7421 24.5497 33.4352 24 32 24C28.9624 24 26.5 26.4624 26.5 29.5C26.5 30.9345 27.0491 32.2416 27.95 33.2215L26.5351 34.6364C25.2737 33.2949 24.5 31.4882 24.5 29.5C24.5 25.3579 27.8579 22 32 22Z" fill="black"/>
<path d="M37.4975 29.331L39.2512 27.5772C39.4135 28.1908 39.5 28.8353 39.5 29.5C39.5 32.2622 38.0066 34.674 35.7871 35.9748L35.0438 38.9479C34.8892 39.5662 34.3337 40 33.6963 40C33.5583 40 33.4174 40.0127 33.2624 40.0348C33.6874 40.1501 34 40.5385 34 41C34 41.5523 33.5523 42 33 42H31C30.4477 42 30 41.5523 30 41C30 40.5385 30.3126 40.1501 30.7376 40.0348C30.5826 40.0127 30.4417 40 30.3037 40C29.6663 40 29.1108 39.5662 28.9562 38.9479L28.7411 38.0874L30.3903 36.4381L30.7874 38.0263C31.098 38.0584 31.3873 38.114 31.6314 38.161L31.6645 38.1674C31.7298 38.1799 31.792 38.1918 31.8538 38.2034C31.9356 38.2187 31.9835 38.222 32 38.222C32.0165 38.222 32.0644 38.2187 32.1462 38.2034C32.208 38.1918 32.2702 38.1799 32.3355 38.1674L32.3686 38.161C32.6127 38.114 32.902 38.0584 33.2126 38.0263L33.9531 35.0646C34.0236 34.7826 34.2133 34.5452 34.4729 34.4143C36.2706 33.5076 37.5 31.6465 37.5 29.5C37.5 29.4435 37.4991 29.3871 37.4975 29.331Z" fill="black"/>
<path d="M40.7071 23.2929C41.0976 23.6834 41.0976 24.3166 40.7071 24.7071L26.2071 39.2071C25.8166 39.5976 25.1834 39.5976 24.7929 39.2071C24.4024 38.8166 24.4024 38.1834 24.7929 37.7929L39.2929 23.2929C39.6834 22.9024 40.3166 22.9024 40.7071 23.2929Z" fill="black"/>
<path d="M80.7071 23.2929C81.0976 23.6834 81.0976 24.3166 80.7071 24.7071L66.2071 39.2071C65.8166 39.5976 65.1834 39.5976 64.7929 39.2071C64.4024 38.8166 64.4024 38.1834 64.7929 37.7929L79.2929 23.2929C79.6834 22.9024 80.3166 22.9024 80.7071 23.2929Z" fill="black"/>
<path d="M70 41C70 40.4477 70.4477 40 71 40H73C73.5523 40 74 40.4477 74 41C74 41.5523 73.5523 42 73 42H71C70.4477 42 70 41.5523 70 41Z" fill="black"/>
<path d="M72 23C73.7114 23 75.2683 23.6614 76.4291 24.7425L67.2425 33.9291C66.1614 32.7683 65.5 31.2114 65.5 29.5C65.5 25.9101 68.4101 23 72 23Z" fill="black"/>
<path d="M69.5657 37.2627L78.4104 28.4181C78.4693 28.7699 78.5 29.1314 78.5 29.5C78.5 32.0385 77.0449 34.2371 74.9232 35.3072L74.0736 38.7054C74.0304 38.8785 73.8748 39 73.6963 39C73.3017 39 72.9124 39.0748 72.5242 39.1494C72.4594 39.1618 72.3945 39.1743 72.3298 39.1864C72.2157 39.2077 72.1014 39.222 72 39.222C71.8986 39.222 71.7843 39.2077 71.6702 39.1864C71.6055 39.1743 71.5407 39.1619 71.4759 39.1494C71.0877 39.0748 70.6983 39 70.3037 39C70.1252 39 69.9696 38.8785 69.9264 38.7054L69.5657 37.2627Z" fill="black"/>
</svg>
