<svg width="104" height="64" viewBox="0 0 104 64" fill="none" xmlns="http://www.w3.org/2000/svg">
<path d="M33.1917 27.29C33.5366 27.632 33.5802 28.1631 33.321 28.5529C33.5751 28.639 33.7888 28.8256 33.9061 29.077C34.0704 29.4289 34.0161 29.8442 33.7667 30.1421L32.5104 31.6421C32.1558 32.0655 31.5251 32.1213 31.1017 31.7667C30.7214 31.4481 30.6377 30.9067 30.8816 30.493C30.5264 30.4508 30.2168 30.2204 30.0769 29.8846C29.9217 29.512 30.0057 29.0825 30.29 28.7958L31.7775 27.2958C32.1664 26.9037 32.7996 26.9011 33.1917 27.29Z" fill="black"/>
<path fill-rule="evenodd" clip-rule="evenodd" d="M24.5 29.5C24.5 25.3579 27.8579 22 32 22C36.1421 22 39.5 25.3579 39.5 29.5C39.5 32.2622 38.0066 34.674 35.7871 35.9748L35.0438 38.9479C34.8892 39.5662 34.3337 40 33.6963 40C33.5583 40 33.4174 40.0127 33.2624 40.0348C33.6874 40.1501 34 40.5385 34 41C34 41.5523 33.5523 42 33 42H31C30.4477 42 30 41.5523 30 41C30 40.5385 30.3126 40.1501 30.7376 40.0348C30.5826 40.0127 30.4417 40 30.3037 40C29.6663 40 29.1108 39.5662 28.9562 38.9479L28.2129 35.9748C25.9934 34.674 24.5 32.2622 24.5 29.5ZM32 24C28.9624 24 26.5 26.4624 26.5 29.5C26.5 31.6465 27.7294 33.5076 29.5271 34.4143C29.7867 34.5452 29.9764 34.7826 30.0469 35.0646L30.7874 38.0263C31.098 38.0584 31.3873 38.114 31.6314 38.161L31.6645 38.1674C31.7298 38.1799 31.792 38.1918 31.8538 38.2034C31.9356 38.2187 31.9835 38.222 32 38.222C32.0165 38.222 32.0644 38.2187 32.1462 38.2034C32.208 38.1918 32.2702 38.1799 32.3355 38.1674L32.3686 38.161C32.6127 38.114 32.902 38.0584 33.2126 38.0263L33.9531 35.0646C34.0236 34.7826 34.2133 34.5452 34.4729 34.4143C36.2706 33.5076 37.5 31.6465 37.5 29.5C37.5 26.4624 35.0376 24 32 24Z" fill="black"/>
<path fill-rule="evenodd" clip-rule="evenodd" d="M74.9232 35.3072C77.0449 34.2371 78.5 32.0385 78.5 29.5C78.5 25.9101 75.5899 23 72 23C68.4101 23 65.5 25.9101 65.5 29.5C65.5 32.0385 66.9551 34.2371 69.0768 35.3072L69.9264 38.7054C69.9696 38.8785 70.1252 39 70.3037 39C70.6983 39 71.0876 39.0748 71.4758 39.1494C71.5406 39.1618 71.6055 39.1743 71.6702 39.1864C71.7843 39.2077 71.8986 39.222 72 39.222C72.1014 39.222 72.2157 39.2077 72.3298 39.1864C72.3945 39.1743 72.4592 39.1619 72.524 39.1494C72.9122 39.0748 73.3017 39 73.6963 39C73.8748 39 74.0304 38.8785 74.0736 38.7054L74.9232 35.3072ZM73.321 28.5529C73.5802 28.1631 73.5366 27.632 73.1917 27.29C72.7996 26.9011 72.1664 26.9037 71.7775 27.2958L70.29 28.7958C70.0057 29.0825 69.9217 29.512 70.0769 29.8846C70.2168 30.2204 70.5264 30.4508 70.8816 30.493C70.6377 30.9067 70.7214 31.4481 71.1017 31.7667C71.5251 32.1213 72.1558 32.0655 72.5104 31.6421L73.7667 30.1421C74.0161 29.8442 74.0704 29.4289 73.9061 29.077C73.7888 28.8256 73.5751 28.639 73.321 28.5529Z" fill="black"/>
<path d="M71 40C70.4477 40 70 40.4477 70 41C70 41.5523 70.4477 42 71 42H73C73.5523 42 74 41.5523 74 41C74 40.4477 73.5523 40 73 40H71Z" fill="black"/>
</svg>
