<svg width="104" height="64" viewBox="0 0 104 64" fill="none" xmlns="http://www.w3.org/2000/svg">
<path fill-rule="evenodd" clip-rule="evenodd" d="M27 24C26.4477 24 26 24.4477 26 25V35C26 35.5523 26.4477 36 27 36H37C37.5523 36 38 35.5523 38 35V25C38 24.4477 37.5523 24 37 24H27ZM28 34V26H36V34H28Z" fill="black"/>
<path fill-rule="evenodd" clip-rule="evenodd" d="M26 21C24.3431 21 23 22.3431 23 24V32.6337C22.6176 32.4126 22.1201 32.4657 21.7929 32.7929C21.4024 33.1834 21.4024 33.8166 21.7929 34.2071L23 35.4142V38C23 39.3062 23.8348 40.4175 25 40.8293V41C25 42.1046 25.8954 43 27 43H28C29.1046 43 30 42.1046 30 41H34C34 42.1046 34.8954 43 36 43H37C38.1046 43 39 42.1046 39 41V40.8293C40.1652 40.4175 41 39.3062 41 38V35.4142L42.2071 34.2071C42.5976 33.8166 42.5976 33.1834 42.2071 32.7929C41.8799 32.4657 41.3824 32.4126 41 32.6337V24C41 22.3431 39.6569 21 38 21H26ZM25 24C25 23.4477 25.4477 23 26 23H38C38.5523 23 39 23.4477 39 24V38C39 38.5523 38.5523 39 38 39H26C25.4477 39 25 38.5523 25 38V24Z" fill="black"/>
<path fill-rule="evenodd" clip-rule="evenodd" d="M66 22H78C79.1046 22 80 22.8954 80 24V33.5858L80.7929 32.7929C81.1834 32.4024 81.8166 32.4024 82.2071 32.7929C82.5976 33.1834 82.5976 33.8166 82.2071 34.2071L80.7071 35.7071C80.5118 35.9024 80.2559 36 80 36V38C80 39.1046 79.1046 40 78 40V41C78 41.5523 77.5523 42 77 42H76C75.4477 42 75 41.5523 75 41V40H69V41C69 41.5523 68.5523 42 68 42H67C66.4477 42 66 41.5523 66 41V40C64.8954 40 64 39.1046 64 38V36C63.7441 36 63.4882 35.9024 63.2929 35.7071L61.7929 34.2071C61.4024 33.8166 61.4024 33.1834 61.7929 32.7929C62.1834 32.4024 62.8166 32.4024 63.2071 32.7929L64 33.5858V24C64 22.8954 64.8954 22 66 22ZM77 25H67V35H77V25Z" fill="black"/>
</svg>
