<svg width="104" height="64" viewBox="0 0 104 64" fill="none" xmlns="http://www.w3.org/2000/svg">
<path fill-rule="evenodd" clip-rule="evenodd" d="M29 22C29 21.4477 28.5523 21 28 21C27.4477 21 27 21.4477 27 22V23H26C23.7909 23 22 24.7909 22 27V38C22 40.2091 23.7909 42 26 42H35C35.5523 42 36 41.5523 36 41C36 40.4477 35.5523 40 35 40H26C24.8954 40 24 39.1046 24 38V29.5H40V36C40 36.5523 40.4477 37 41 37C41.5523 37 42 36.5523 42 36V27C42 24.7909 40.2091 23 38 23H37V22C37 21.4477 36.5523 21 36 21C35.4477 21 35 21.4477 35 22V23H29V22ZM36 26C35.4477 26 35 25.5523 35 25H29C29 25.5523 28.5523 26 28 26C27.4477 26 27 25.5523 27 25H26C24.8954 25 24 25.8954 24 27V27.5H40V27C40 25.8954 39.1046 25 38 25H37C37 25.5523 36.5523 26 36 26Z" fill="black"/>
<path d="M42.6961 40.2071C43.0866 39.8166 43.0866 39.1834 42.6961 38.7929C42.3056 38.4024 41.6724 38.4024 41.2819 38.7929L39.3431 40.7316L39.0613 40.4497C38.6707 40.0592 38.0376 40.0592 37.647 40.4497C37.2565 40.8403 37.2565 41.4734 37.647 41.8639L38.636 42.8529C39.0266 43.2435 39.6597 43.2435 40.0503 42.8529L42.6961 40.2071Z" fill="black"/>
<path d="M67 21C67.5523 21 68 21.4477 68 22V23.5H66V22C66 21.4477 66.4477 21 67 21Z" fill="black"/>
<path d="M74 24H68V25C68 25.5523 67.5523 26 67 26C66.4477 26 66 25.5523 66 25V24H65C63.3431 24 62 25.3431 62 27V27.5H80V27C80 25.3431 78.6569 24 77 24H76V25C76 25.5523 75.5523 26 75 26C74.4477 26 74 25.5523 74 25V24Z" fill="black"/>
<path d="M62 29.5V38C62 39.6569 63.3431 41 65 41H74.3582C74.3954 40.2853 74.6869 39.5814 75.2328 39.0355C75.9881 38.2803 77.0458 38.0119 78.016 38.2303L78.8677 37.3787C79.1981 37.0482 79.5864 36.811 80 36.667V29.5H62Z" fill="black"/>
<path d="M76 22C76 21.4477 75.5523 21 75 21C74.4477 21 74 21.4477 74 22V23.5H76V22Z" fill="black"/>
<path d="M81.6961 40.2071C82.0866 39.8166 82.0866 39.1834 81.6961 38.7929C81.3056 38.4024 80.6724 38.4024 80.2819 38.7929L78.3431 40.7316L78.0613 40.4497C77.6707 40.0592 77.0376 40.0592 76.647 40.4497C76.2565 40.8403 76.2565 41.4734 76.647 41.8639L77.636 42.8529C78.0266 43.2435 78.6597 43.2435 79.0503 42.8529L81.6961 40.2071Z" fill="black"/>
</svg>
