<svg width="104" height="64" viewBox="0 0 104 64" fill="none" xmlns="http://www.w3.org/2000/svg">
<path fill-rule="evenodd" clip-rule="evenodd" d="M28 21C28.5523 21 29 21.4477 29 22V23H35V22C35 21.4477 35.4477 21 36 21C36.5523 21 37 21.4477 37 22V23H38C40.2091 23 42 24.7909 42 27V38C42 40.2091 40.2091 42 38 42H26C23.7909 42 22 40.2091 22 38V27C22 24.7909 23.7909 23 26 23H27V22C27 21.4477 27.4477 21 28 21ZM35 25C35 25.5523 35.4477 26 36 26C36.5523 26 37 25.5523 37 25H38C39.1046 25 40 25.8954 40 27V27.5H24V27C24 25.8954 24.8954 25 26 25H27C27 25.5523 27.4477 26 28 26C28.5523 26 29 25.5523 29 25H35ZM40 29.5H24V38C24 39.1046 24.8954 40 26 40H38C39.1046 40 40 39.1046 40 38V29.5Z" fill="black"/>
<path d="M68 21C68.5523 21 69 21.4477 69 22V23.5H67V22C67 21.4477 67.4477 21 68 21Z" fill="black"/>
<path d="M75 24H69V25C69 25.5523 68.5523 26 68 26C67.4477 26 67 25.5523 67 25V24H66C64.3431 24 63 25.3431 63 27V27.5H81V27C81 25.3431 79.6569 24 78 24H77V25C77 25.5523 76.5523 26 76 26C75.4477 26 75 25.5523 75 25V24Z" fill="black"/>
<path d="M63 29.5V38C63 39.6569 64.3431 41 66 41H78C79.6569 41 81 39.6569 81 38V29.5H63Z" fill="black"/>
<path d="M77 22C77 21.4477 76.5523 21 76 21C75.4477 21 75 21.4477 75 22V23.5H77V22Z" fill="black"/>
</svg>
