<svg width="104" height="64" viewBox="0 0 104 64" fill="none" xmlns="http://www.w3.org/2000/svg">
<path fill-rule="evenodd" clip-rule="evenodd" d="M29 22C29 21.4477 28.5523 21 28 21C27.4477 21 27 21.4477 27 22V23H26C23.7909 23 22 24.7909 22 27V38C22 40.2091 23.7909 42 26 42H35C35.5523 42 36 41.5523 36 41C36 40.4477 35.5523 40 35 40H26C24.8954 40 24 39.1046 24 38V29.5H40V35.5C40 36.0523 40.4477 36.5 41 36.5C41.5523 36.5 42 36.0523 42 35.5V27C42 24.7909 40.2091 23 38 23H37V22C37 21.4477 36.5523 21 36 21C35.4477 21 35 21.4477 35 22V23H29V22ZM36 26C35.4477 26 35 25.5523 35 25H29C29 25.5523 28.5523 26 28 26C27.4477 26 27 25.5523 27 25H26C24.8954 25 24 25.8954 24 27V27.5H40V27C40 25.8954 39.1046 25 38 25H37C37 25.5523 36.5523 26 36 26Z" fill="black"/>
<path d="M41.9497 39.1213C42.3402 38.7308 42.3402 38.0976 41.9497 37.7071C41.5592 37.3166 40.926 37.3166 40.5355 37.7071L39.8284 38.4142L39.1213 37.7071C38.7307 37.3166 38.0976 37.3166 37.707 37.7071C37.3165 38.0976 37.3165 38.7308 37.707 39.1213L38.4142 39.8284L37.707 40.5355C37.3165 40.9261 37.3165 41.5592 37.707 41.9497C38.0976 42.3403 38.7307 42.3403 39.1213 41.9497L39.8284 41.2426L40.5355 41.9497C40.926 42.3403 41.5592 42.3403 41.9497 41.9497C42.3402 41.5592 42.3402 40.9261 41.9497 40.5355L41.2426 39.8284L41.9497 39.1213Z" fill="black"/>
<path d="M68 21C68.5523 21 69 21.4477 69 22V23.5H67V22C67 21.4477 67.4477 21 68 21Z" fill="black"/>
<path d="M75 24H69V25C69 25.5523 68.5523 26 68 26C67.4477 26 67 25.5523 67 25V24H66C64.3431 24 63 25.3431 63 27V27.5H81V27C81 25.3431 79.6569 24 78 24H77V25C77 25.5523 76.5523 26 76 26C75.4477 26 75 25.5523 75 25V24Z" fill="black"/>
<path d="M63 29.5V38C63 39.6569 64.3431 41 66 41H75.6144C75.6623 40.6543 75.7706 40.3153 75.9391 40.0001C75.3321 38.865 75.5072 37.4218 76.4645 36.4645C77.4217 35.5073 78.8649 35.3322 80 35.9392C80.3152 35.7706 80.6542 35.6623 81 35.6144V29.5H63Z" fill="black"/>
<path d="M77 22C77 21.4477 76.5523 21 76 21C75.4477 21 75 21.4477 75 22V23.5H77V22Z" fill="black"/>
<path d="M81.9497 39.1213C82.3402 38.7308 82.3402 38.0976 81.9497 37.7071C81.5592 37.3166 80.926 37.3166 80.5355 37.7071L79.8284 38.4142L79.1213 37.7071C78.7307 37.3166 78.0976 37.3166 77.707 37.7071C77.3165 38.0976 77.3165 38.7308 77.707 39.1213L78.4142 39.8284L77.707 40.5355C77.3165 40.9261 77.3165 41.5592 77.707 41.9497C78.0976 42.3403 78.7307 42.3403 79.1213 41.9497L79.8284 41.2426L80.5355 41.9497C80.926 42.3403 81.5592 42.3403 81.9497 41.9497C82.3402 41.5592 82.3402 40.9261 81.9497 40.5355L81.2426 39.8284L81.9497 39.1213Z" fill="black"/>
</svg>
