<svg width="104" height="64" viewBox="0 0 104 64" fill="none" xmlns="http://www.w3.org/2000/svg">
<path d="M25 37.5C25 36.9477 25.4477 36.5 26 36.5H33C33.5523 36.5 34 36.9477 34 37.5C34 38.0523 33.5523 38.5 33 38.5H26C25.4477 38.5 25 38.0523 25 37.5Z" fill="black"/>
<path d="M36 36.5C35.4477 36.5 35 36.9477 35 37.5C35 38.0523 35.4477 38.5 36 38.5H38C38.5523 38.5 39 38.0523 39 37.5C39 36.9477 38.5523 36.5 38 36.5H36Z" fill="black"/>
<path fill-rule="evenodd" clip-rule="evenodd" d="M28 21.5C28.5523 21.5 29 21.9477 29 22.5V23.5H35V22.5C35 21.9477 35.4477 21.5 36 21.5C36.5523 21.5 37 21.9477 37 22.5V23.5H38C40.2091 23.5 42 25.2909 42 27.5V38.5C42 40.7091 40.2091 42.5 38 42.5H26C23.7909 42.5 22 40.7091 22 38.5V27.5C22 25.2909 23.7909 23.5 26 23.5H27V22.5C27 21.9477 27.4477 21.5 28 21.5ZM35 25.5C35 26.0523 35.4477 26.5 36 26.5C36.5523 26.5 37 26.0523 37 25.5H38C39.1046 25.5 40 26.3954 40 27.5V28H24V27.5C24 26.3954 24.8954 25.5 26 25.5H27C27 26.0523 27.4477 26.5 28 26.5C28.5523 26.5 29 26.0523 29 25.5H35ZM40 30H24V38.5C24 39.6046 24.8954 40.5 26 40.5H38C39.1046 40.5 40 39.6046 40 38.5V30Z" fill="black"/>
<path d="M68 22C68.5523 22 69 22.4477 69 23V24.5H67V23C67 22.4477 67.4477 22 68 22Z" fill="black"/>
<path d="M75 25H69V26C69 26.5523 68.5523 27 68 27C67.4477 27 67 26.5523 67 26V25H66C64.3431 25 63 26.3431 63 28V28.5H81V28C81 26.3431 79.6569 25 78 25H77V26C77 26.5523 76.5523 27 76 27C75.4477 27 75 26.5523 75 26V25Z" fill="black"/>
<path fill-rule="evenodd" clip-rule="evenodd" d="M63 30.5V39C63 40.6569 64.3431 42 66 42H78C79.6569 42 81 40.6569 81 39V30.5H63ZM65 38C65 37.4477 65.4477 37 66 37H73C73.5523 37 74 37.4477 74 38C74 38.5523 73.5523 39 73 39H66C65.4477 39 65 38.5523 65 38ZM76 37C75.4477 37 75 37.4477 75 38C75 38.5523 75.4477 39 76 39H78C78.5523 39 79 38.5523 79 38C79 37.4477 78.5523 37 78 37H76Z" fill="black"/>
<path d="M77 23C77 22.4477 76.5523 22 76 22C75.4477 22 75 22.4477 75 23V24.5H77V23Z" fill="black"/>
</svg>
