<svg width="104" height="64" viewBox="0 0 104 64" fill="none" xmlns="http://www.w3.org/2000/svg">
<path fill-rule="evenodd" clip-rule="evenodd" d="M29 22C29 21.4477 28.5523 21 28 21C27.4477 21 27 21.4477 27 22V23H26C23.7909 23 22 24.7909 22 27V38C22 40.2091 23.7909 42 26 42H35C35.5523 42 36 41.5523 36 41C36 40.4477 35.5523 40 35 40H26C24.8954 40 24 39.1046 24 38V29.5H40V36C40 36.5523 40.4477 37 41 37C41.5523 37 42 36.5523 42 36V27C42 24.7909 40.2091 23 38 23H37V22C37 21.4477 36.5523 21 36 21C35.4477 21 35 21.4477 35 22V23H29V22ZM36 26C35.4477 26 35 25.5523 35 25H29C29 25.5523 28.5523 26 28 26C27.4477 26 27 25.5523 27 25H26C24.8954 25 24 25.8954 24 27V27.5H40V27C40 25.8954 39.1046 25 38 25H37C37 25.5523 36.5523 26 36 26Z" fill="black"/>
<path d="M38 39C37.4477 39 37 39.4477 37 40C37 40.5523 37.4477 41 38 41H42C42.5523 41 43 40.5523 43 40C43 39.4477 42.5523 39 42 39H38Z" fill="black"/>
<path d="M68 22C68.5523 22 69 22.4477 69 23V24.5H67V23C67 22.4477 67.4477 22 68 22Z" fill="black"/>
<path d="M75 25H69V26C69 26.5523 68.5523 27 68 27C67.4477 27 67 26.5523 67 26V25H66C64.3431 25 63 26.3431 63 28V28.5H81V28C81 26.3431 79.6569 25 78 25H77V26C77 26.5523 76.5523 27 76 27C75.4477 27 75 26.5523 75 26V25Z" fill="black"/>
<path d="M63 30.5V39C63 40.6569 64.3431 42 66 42H75.1707C75.0602 41.6872 75 41.3506 75 41C75 39.3431 76.3431 38 78 38H81V30.5H63Z" fill="black"/>
<path d="M77 23C77 22.4477 76.5523 22 76 22C75.4477 22 75 22.4477 75 23V24.5H77V23Z" fill="black"/>
<path d="M78 40C77.4477 40 77 40.4477 77 41C77 41.5523 77.4477 42 78 42H82C82.5523 42 83 41.5523 83 41C83 40.4477 82.5523 40 82 40H78Z" fill="black"/>
</svg>
