<svg width="104" height="64" viewBox="0 0 104 64" fill="none" xmlns="http://www.w3.org/2000/svg">
<path fill-rule="evenodd" clip-rule="evenodd" d="M23.6821 23.3432C22.9437 24.0816 22.4387 25.1881 22.7267 26.3867C23.1683 28.2242 24.4972 31.5726 28.4602 35.5356C32.4232 39.4986 35.7717 40.8275 37.6092 41.2691C38.8078 41.5572 39.9143 41.0521 40.6526 40.3138L41.1882 39.7782C42.7503 38.2161 42.7503 35.6835 41.1882 34.1214L40.2593 33.1925C38.986 31.9193 37.0189 31.6537 35.4536 32.5438L35.3571 32.5987C34.7157 32.9634 33.9788 32.9336 33.4568 32.5558C33.0355 32.2509 32.6329 31.9301 32.3493 31.6465C32.0657 31.3629 31.7449 30.9603 31.44 30.5391C31.0622 30.017 31.0324 29.2802 31.3972 28.6387L31.4521 28.5422C32.3421 26.9769 32.0766 25.0098 30.8033 23.7366L29.8744 22.8077C28.3123 21.2456 25.7797 21.2456 24.2176 22.8077L23.6821 23.3432ZM24.6714 25.9193C24.5876 25.5707 24.7094 25.1443 25.0963 24.7574L25.6318 24.2219C26.4129 23.4408 27.6792 23.4408 28.4602 24.2219L29.3891 25.1508C30.0257 25.7874 30.1585 26.7709 29.7135 27.5536L29.6586 27.6501C28.9537 28.8898 28.9289 30.4807 29.8198 31.7116C30.1471 32.1638 30.5403 32.6659 30.9351 33.0607C31.3299 33.4555 31.832 33.8488 32.2842 34.176C33.5152 35.0669 35.1061 35.0422 36.3457 34.3373L36.4422 34.2824C37.2249 33.8373 38.2084 33.9701 38.8451 34.6067L39.7739 35.5356C40.555 36.3167 40.555 37.583 39.7739 38.364L39.2384 38.8996C38.8516 39.2864 38.4252 39.4083 38.0765 39.3245C36.6075 38.9714 33.5841 37.8311 29.8744 34.1214C26.1648 30.4117 25.0244 27.3883 24.6714 25.9193Z" fill="black"/>
<path d="M33.736 29.3265C33.7658 29.8325 34.1695 30.2362 34.6755 30.266L36.679 30.3839C37.2303 30.4163 37.7036 29.9956 37.736 29.4443C37.7644 28.962 37.446 28.5394 36.9967 28.4195L38.9769 26.4393C39.3674 26.0488 39.3674 25.4156 38.9769 25.0251C38.5864 24.6346 37.9532 24.6346 37.5627 25.0251L35.5825 27.0053C35.4626 26.556 35.04 26.2376 34.5577 26.266C34.0064 26.2984 33.5857 26.7717 33.6181 27.323L33.736 29.3265Z" fill="black"/>
<path d="M64.9258 23.5148L64.3903 24.0503C63.8277 24.6129 63.5142 25.3794 63.7001 26.153C64.0975 27.8063 65.3321 30.9922 69.1684 34.8285C73.0048 38.6648 76.1907 39.8995 77.844 40.2968C78.6176 40.4827 79.384 40.1693 79.9466 39.6067L80.4822 39.0711C81.6537 37.8996 81.6537 36.0001 80.4822 34.8285L79.5533 33.8996C78.5983 32.9447 77.123 32.7455 75.949 33.4131L75.8525 33.468C74.912 34.0028 73.7481 34.0002 72.8716 33.3659C72.4349 33.0499 71.9825 32.6928 71.6433 32.3536C71.3041 32.0144 70.9471 31.5621 70.631 31.1254C69.9967 30.2489 69.9942 29.085 70.529 28.1444L70.5839 28.0479C71.2514 26.8739 71.0523 25.3986 70.0973 24.4437L69.1684 23.5148C67.9969 22.3432 66.0974 22.3432 64.9258 23.5148Z" fill="black"/>
<path d="M73.7371 29.3267C73.7669 29.8328 74.1706 30.2365 74.6766 30.2663L76.6801 30.3841C77.2314 30.4165 77.7047 29.9959 77.7371 29.4446C77.7655 28.9622 77.4471 28.5397 76.9978 28.4197L78.978 26.4396C79.3685 26.049 79.3685 25.4159 78.978 25.0253C78.5875 24.6348 77.9543 24.6348 77.5638 25.0253L75.5836 27.0055C75.4637 26.5563 75.0411 26.2379 74.5588 26.2662C74.0075 26.2987 73.5868 26.7719 73.6192 27.3232L73.7371 29.3267Z" fill="black"/>
</svg>
