<svg width="104" height="64" viewBox="0 0 104 64" fill="none" xmlns="http://www.w3.org/2000/svg">
<path fill-rule="evenodd" clip-rule="evenodd" d="M22.7267 26.3867C22.4387 25.1881 22.9437 24.0816 23.6821 23.3432L24.2176 22.8077C25.7797 21.2456 28.3123 21.2456 29.8744 22.8077L30.8033 23.7366C32.0766 25.0098 32.3421 26.9769 31.4521 28.5422L31.3972 28.6387C31.0324 29.2802 31.0622 30.017 31.44 30.5391C31.7449 30.9603 32.0657 31.3629 32.3493 31.6465C32.6329 31.9301 33.0355 32.2509 33.4568 32.5558C33.9788 32.9336 34.7157 32.9634 35.3571 32.5987L35.4536 32.5438C37.0189 31.6537 38.986 31.9193 40.2593 33.1925L41.1882 34.1214C42.7503 35.6835 42.7503 38.2161 41.1882 39.7782L40.6526 40.3138C39.9143 41.0521 38.8078 41.5572 37.6092 41.2691C35.7717 40.8275 32.4232 39.4986 28.4602 35.5356C24.4972 31.5726 23.1683 28.2242 22.7267 26.3867ZM25.0963 24.7574C24.7094 25.1443 24.5876 25.5707 24.6714 25.9193C25.0244 27.3883 26.1648 30.4117 29.8744 34.1214C33.5841 37.8311 36.6075 38.9714 38.0765 39.3245C38.4252 39.4083 38.8516 39.2864 39.2384 38.8996L39.7739 38.364C40.555 37.583 40.555 36.3167 39.7739 35.5356L38.8451 34.6067C38.2084 33.9701 37.2249 33.8373 36.4422 34.2824L36.3457 34.3373C35.1061 35.0422 33.5152 35.0669 32.2842 34.176C31.832 33.8488 31.3299 33.4555 30.9351 33.0607C30.5403 32.6659 30.1471 32.1638 29.8198 31.7116C28.9289 30.4807 28.9537 28.8898 29.6586 27.6501L29.7135 27.5536C30.1585 26.7709 30.0257 25.7874 29.3891 25.1508L28.4602 24.2219C27.6792 23.4408 26.4129 23.4408 25.6318 24.2219L25.0963 24.7574Z" fill="black"/>
<path d="M38.0088 23.0064C38.6231 23.269 39.1826 23.648 39.656 24.1214C40.1294 24.5947 40.5083 25.1542 40.771 25.7686C41.0336 26.383 41.1752 27.0413 41.1859 27.7063C41.1967 28.3715 41.0763 29.0306 40.8299 29.6453C40.7421 29.8643 40.639 30.0761 40.5214 30.2792C40.2447 30.7572 39.6329 30.9203 39.155 30.6436C38.677 30.3669 38.5139 29.7551 38.7906 29.2772C38.8601 29.157 38.9213 29.0315 38.9734 28.9013C39.1198 28.5361 39.1927 28.1412 39.1862 27.7386C39.1797 27.3359 39.0939 26.9334 38.932 26.5547C38.7701 26.176 38.5356 25.8294 38.2418 25.5356C37.9479 25.2417 37.6014 25.0073 37.2226 24.8454C36.8439 24.6835 36.4415 24.5977 36.0387 24.5912C35.6361 24.5847 35.2412 24.6576 34.876 24.8039C34.7459 24.8561 34.6203 24.9172 34.5002 24.9868C34.0222 25.2635 33.4104 25.1003 33.1337 24.6224C32.857 24.1444 33.0201 23.5326 33.4981 23.2559C33.7012 23.1383 33.913 23.0352 34.132 22.9474C34.7468 22.7011 35.4058 22.5807 36.071 22.5914C36.7361 22.6022 37.3944 22.7437 38.0088 23.0064Z" fill="black"/>
<path d="M37.6204 26.2071C37.321 25.9077 36.9584 25.6851 36.559 25.5484C36.1605 25.4121 35.738 25.3654 35.3185 25.4006C34.8993 25.4358 34.4884 25.5521 34.1069 25.7357C33.8877 25.8413 33.6793 25.9685 33.4849 26.1142C33.0431 26.4456 32.9535 27.0724 33.2849 27.5142C33.6163 27.9561 34.2431 28.0456 34.6849 27.7142C34.7773 27.6449 34.8746 27.5858 34.9744 27.5378C35.1488 27.4538 35.3233 27.4072 35.4857 27.3936C35.6477 27.38 35.7914 27.3996 35.9115 27.4407C36.0308 27.4815 36.1289 27.544 36.2062 27.6214C36.2835 27.6987 36.3461 27.7968 36.3869 27.9161C36.428 28.0362 36.4476 28.1798 36.434 28.3419C36.4203 28.5042 36.3737 28.6788 36.2898 28.8532C36.2418 28.953 36.1827 29.0502 36.1133 29.1427C35.782 29.5845 35.8715 30.2113 36.3133 30.5427C36.7552 30.874 37.382 30.7845 37.7133 30.3427C37.8591 30.1483 37.9863 29.9399 38.0918 29.7207C38.2755 29.3392 38.3918 28.9283 38.427 28.5091C38.4622 28.0896 38.4155 27.667 38.2792 27.2685C38.1425 26.8692 37.9198 26.5065 37.6204 26.2071Z" fill="black"/>
<path d="M78.0099 23.0064C78.6242 23.269 79.1837 23.648 79.6571 24.1213C80.1305 24.5947 80.5094 25.1542 80.7721 25.7686C81.0347 26.383 81.1763 27.0413 81.187 27.7063C81.1978 28.3715 81.0774 29.0306 80.831 29.6453C80.7432 29.8643 80.6401 30.0761 80.5225 30.2792C80.2458 30.7572 79.634 30.9203 79.1561 30.6436C78.6781 30.3669 78.515 29.7551 78.7917 29.2772C78.8612 29.157 78.9224 29.0315 78.9745 28.9013C79.1209 28.5361 79.1938 28.1412 79.1873 27.7386C79.1808 27.3359 79.095 26.9334 78.9331 26.5547C78.7712 26.176 78.5367 25.8294 78.2429 25.5356C77.949 25.2417 77.6025 25.0073 77.2237 24.8454C76.845 24.6835 76.4426 24.5977 76.0398 24.5912C75.6372 24.5847 75.2423 24.6576 74.8771 24.8039C74.747 24.8561 74.6214 24.9172 74.5013 24.9868C74.0233 25.2635 73.4115 25.1003 73.1348 24.6224C72.8581 24.1444 73.0212 23.5326 73.4992 23.2559C73.7023 23.1383 73.9141 23.0352 74.1331 22.9474C74.7479 22.7011 75.4069 22.5807 76.0721 22.5914C76.7372 22.6021 77.3955 22.7437 78.0099 23.0064Z" fill="black"/>
<path d="M64.3903 24.0503L64.9258 23.5148C66.0974 22.3432 67.9969 22.3432 69.1684 23.5148L70.0973 24.4437C71.0523 25.3986 71.2514 26.8739 70.5839 28.0479L70.529 28.1444C69.9942 29.085 69.9967 30.2488 70.631 31.1254C70.9471 31.562 71.3041 32.0144 71.6433 32.3536C71.9825 32.6928 72.4349 33.0499 72.8716 33.3659C73.7481 34.0002 74.912 34.0028 75.8525 33.468L75.949 33.4131C77.123 32.7455 78.5983 32.9447 79.5533 33.8996L80.4822 34.8285C81.6537 36.0001 81.6537 37.8996 80.4822 39.0711L79.9466 39.6067C79.384 40.1693 78.6176 40.4827 77.844 40.2968C76.1907 39.8995 73.0048 38.6648 69.1684 34.8285C65.3321 30.9922 64.0975 27.8062 63.7001 26.153C63.5142 25.3794 63.8277 24.6129 64.3903 24.0503Z" fill="black"/>
<path d="M77.6215 26.2071C77.3221 25.9077 76.9595 25.6851 76.5601 25.5484C76.1617 25.412 75.7391 25.3654 75.3196 25.4006C74.9004 25.4358 74.4895 25.5521 74.108 25.7357C73.8888 25.8413 73.6804 25.9685 73.486 26.1142C73.0442 26.4456 72.9546 27.0724 73.286 27.5142C73.6174 27.9561 74.2442 28.0456 74.686 27.7142C74.7785 27.6449 74.8757 27.5858 74.9755 27.5378C75.1499 27.4538 75.3245 27.4072 75.4868 27.3936C75.6488 27.38 75.7925 27.3996 75.9126 27.4407C76.0319 27.4815 76.13 27.544 76.2073 27.6213C76.2846 27.6986 76.3472 27.7968 76.388 27.916C76.4291 28.0362 76.4487 28.1798 76.4351 28.3419C76.4214 28.5042 76.3749 28.6788 76.2909 28.8532C76.2429 28.953 76.1838 29.0502 76.1144 29.1427C75.7831 29.5845 75.8726 30.2113 76.3144 30.5427C76.7563 30.874 77.3831 30.7845 77.7144 30.3427C77.8602 30.1483 77.9874 29.9399 78.0929 29.7207C78.2766 29.3392 78.3929 28.9283 78.4281 28.5091C78.4633 28.0896 78.4166 27.667 78.2803 27.2685C78.1436 26.8692 77.9209 26.5065 77.6215 26.2071Z" fill="black"/>
</svg>
