<svg width="104" height="64" viewBox="0 0 104 64" fill="none" xmlns="http://www.w3.org/2000/svg">
<path fill-rule="evenodd" clip-rule="evenodd" d="M29.8744 22.8076C28.3123 21.2455 25.7797 21.2455 24.2176 22.8076L23.6821 23.3431C22.9437 24.0815 22.4387 25.1879 22.7267 26.3865C23.1683 28.224 24.4972 31.5725 28.4602 35.5355C32.4232 39.4985 35.7717 40.8274 37.6092 41.269C38.8078 41.5571 39.9143 41.052 40.6526 40.3137L41.1882 39.7781C42.7503 38.216 42.7503 35.6834 41.1882 34.1213L40.2593 33.1924C38.986 31.9191 37.0189 31.6536 35.4536 32.5437L35.3571 32.5985C34.7157 32.9633 33.9788 32.9335 33.4568 32.5557C33.0355 32.2508 32.6329 31.93 32.3493 31.6464C32.0657 31.3628 31.7449 30.9602 31.44 30.539C31.0622 30.0169 31.0324 29.28 31.3972 28.6386L31.4521 28.5421C32.3421 26.9768 32.0766 25.0097 30.8033 23.7364L29.8744 22.8076ZM25.6318 24.2218C26.4129 23.4407 27.6792 23.4407 28.4602 24.2218L29.3891 25.1506C30.0257 25.7873 30.1585 26.7708 29.7135 27.5535L29.6586 27.65C28.9537 28.8897 28.9289 30.4805 29.8198 31.7115C30.1471 32.1637 30.5403 32.6658 30.9351 33.0606C31.3299 33.4554 31.832 33.8487 32.2842 34.1759C33.5152 35.0668 35.1061 35.042 36.3457 34.3371L36.4422 34.2822C37.2249 33.8372 38.2084 33.97 38.8451 34.6066L39.7739 35.5355C40.555 36.3165 40.555 37.5829 39.7739 38.3639L39.2384 38.8994C38.8516 39.2863 38.4252 39.4082 38.0765 39.3244C36.6075 38.9713 33.5841 37.8309 29.8744 34.1213C26.1648 30.4116 25.0244 27.3882 24.6714 25.9192C24.5876 25.5705 24.7094 25.1442 25.0963 24.7573L25.6318 24.2218Z" fill="black"/>
<path d="M64.3903 24.0503L64.9258 23.5147C66.0974 22.3432 67.9969 22.3432 69.1684 23.5147L70.0973 24.4436C71.0523 25.3985 71.2514 26.8739 70.5839 28.0478L70.529 28.1444C69.9942 29.0849 69.9967 30.2488 70.631 31.1253C70.9471 31.562 71.3041 32.0144 71.6433 32.3536C71.9825 32.6928 72.4349 33.0498 72.8716 33.3658C73.7481 34.0002 74.912 34.0027 75.8525 33.4679L75.949 33.413C77.123 32.7455 78.5983 32.9446 79.5533 33.8996L80.4822 34.8284C81.6537 36 81.6537 37.8995 80.4822 39.0711L79.9466 39.6066C79.384 40.1692 78.6176 40.4827 77.844 40.2967C76.1907 39.8994 73.0048 38.6648 69.1684 34.8284C65.3321 30.9921 64.0975 27.8062 63.7001 26.1529C63.5142 25.3793 63.8277 24.6129 64.3903 24.0503Z" fill="black"/>
</svg>
