<svg width="104" height="64" viewBox="0 0 104 64" fill="none" xmlns="http://www.w3.org/2000/svg">
<path fill-rule="evenodd" clip-rule="evenodd" d="M27 33C27 30.2386 29.2386 28 32 28C34.7614 28 37 30.2386 37 33C37 35.7614 34.7614 38 32 38C29.2386 38 27 35.7614 27 33ZM32 30C30.3431 30 29 31.3431 29 33C29 34.6569 30.3431 36 32 36C33.6569 36 35 34.6569 35 33C35 31.3431 33.6569 30 32 30Z" fill="black"/>
<path d="M35.8477 29.1923C36.2486 29.326 36.5631 29.6405 36.6968 30.0415C36.8328 30.4495 37.4099 30.4495 37.5459 30.0415C37.6795 29.6405 37.9941 29.326 38.395 29.1923C38.803 29.0563 38.803 28.4792 38.395 28.3432C37.9941 28.2096 37.6795 27.895 37.5459 27.4941C37.4099 27.0861 36.8328 27.0861 36.6968 27.4941C36.5631 27.895 36.2486 28.2096 35.8477 28.3432C35.4396 28.4792 35.4396 29.0563 35.8477 29.1923Z" fill="black"/>
<path fill-rule="evenodd" clip-rule="evenodd" d="M27.4142 23.6716C28.1644 22.9214 29.1818 22.5 30.2426 22.5H33.7574C34.8182 22.5 35.8356 22.9214 36.5858 23.6716L37.2717 24.3575C37.4632 24.549 37.6916 24.6996 37.9431 24.8002L40.4856 25.8172C42.0042 26.4246 43 27.8955 43 29.5311V37.5C43 39.7091 41.2091 41.5 39 41.5H25C22.7909 41.5 21 39.7091 21 37.5V29.5311C21 27.8955 21.9958 26.4246 23.5144 25.8172L26.0569 24.8002C26.3084 24.6996 26.5368 24.549 26.7283 24.3575L27.4142 23.6716ZM30.2426 24.5C29.7122 24.5 29.2035 24.7107 28.8284 25.0858L28.1425 25.7717C27.7595 26.1547 27.3026 26.456 26.7997 26.6572L24.2572 27.6741C23.4979 27.9779 23 28.7133 23 29.5311V37.5C23 38.6046 23.8954 39.5 25 39.5H39C40.1046 39.5 41 38.6046 41 37.5V29.5311C41 28.7133 40.5021 27.9779 39.7428 27.6741L37.2003 26.6572C36.6974 26.456 36.2405 26.1547 35.8575 25.7717L35.1716 25.0858C34.7965 24.7107 34.2878 24.5 33.7574 24.5H30.2426Z" fill="black"/>
<path d="M72 30C70.3431 30 69 31.3431 69 33C69 34.6569 70.3431 36 72 36C73.6569 36 75 34.6569 75 33C75 31.3431 73.6569 30 72 30Z" fill="black"/>
<path fill-rule="evenodd" clip-rule="evenodd" d="M70.2426 23.5H73.7574C74.553 23.5 75.3161 23.8161 75.8787 24.3787L76.5646 25.0646C76.8519 25.3519 77.1945 25.5778 77.5717 25.7287L80.1142 26.7457C81.2531 27.2013 82 28.3044 82 29.5311V37.5C82 39.1569 80.6569 40.5 79 40.5H65C63.3431 40.5 62 39.1569 62 37.5V29.5311C62 28.3044 62.7469 27.2013 63.8858 26.7457L66.4283 25.7287C66.8055 25.5778 67.1481 25.3519 67.4354 25.0646L68.1213 24.3787C68.6839 23.8161 69.447 23.5 70.2426 23.5ZM67 33C67 30.2386 69.2386 28 72 28C74.7614 28 77 30.2386 77 33C77 35.7614 74.7614 38 72 38C69.2386 38 67 35.7614 67 33ZM75.8477 29.1923C76.2486 29.326 76.5631 29.6405 76.6968 30.0415C76.8328 30.4495 77.4099 30.4495 77.5459 30.0415C77.6795 29.6405 77.9941 29.326 78.395 29.1923C78.803 29.0563 78.803 28.4792 78.395 28.3432C77.9941 28.2096 77.6795 27.895 77.5459 27.4941C77.4099 27.0861 76.8328 27.0861 76.6968 27.4941C76.5631 27.895 76.2486 28.2096 75.8477 28.3432C75.4396 28.4792 75.4396 29.0563 75.8477 29.1923Z" fill="black"/>
</svg>
