<svg width="104" height="64" viewBox="0 0 104 64" fill="none" xmlns="http://www.w3.org/2000/svg">
<path d="M42.7071 21.2929C43.0976 21.6834 43.0976 22.3166 42.7071 22.7071L22.7071 42.7071C22.3166 43.0976 21.6834 43.0976 21.2929 42.7071C20.9024 42.3166 20.9024 41.6834 21.2929 41.2929L41.2929 21.2929C41.6834 20.9024 42.3166 20.9024 42.7071 21.2929Z" fill="black"/>
<path d="M32 28C32.3634 28 32.7178 28.0388 33.0592 28.1124L31.0013 30.1702C30.1478 30.4714 29.4714 31.1478 29.1702 32.0013L27.1124 34.0592C27.0388 33.7178 27 33.3634 27 33C27 30.2386 29.2386 28 32 28Z" fill="black"/>
<path d="M32 36C31.6491 36 31.3123 35.9398 30.9994 35.8291L29.4983 37.3301C30.2341 37.7561 31.0886 38 32 38C34.7614 38 37 35.7614 37 33C37 32.0886 36.7561 31.2341 36.3301 30.4983L34.8291 31.9994C34.9398 32.3123 35 32.6491 35 33C35 34.6569 33.6569 36 32 36Z" fill="black"/>
<path d="M37.5459 30.0415C37.4174 30.427 36.8951 30.4482 36.7231 30.1053L38.4588 28.3696C38.8018 28.5416 38.7805 29.0639 38.395 29.1924C37.9941 29.326 37.6795 29.6406 37.5459 30.0415Z" fill="black"/>
<path d="M36.5858 23.6716L37.0429 24.1287L35.6287 25.5429L35.1716 25.0858C34.7965 24.7107 34.2878 24.5 33.7574 24.5H30.2426C29.7122 24.5 29.2035 24.7107 28.8284 25.0858L28.1425 25.7717C27.7595 26.1547 27.3026 26.456 26.7997 26.6572L24.2572 27.6741C23.4979 27.9779 23 28.7133 23 29.5311V37.5C23 37.7034 23.0304 37.8998 23.0868 38.0847L21.586 39.5855C21.2143 38.9783 21 38.2642 21 37.5V29.5311C21 27.8955 21.9958 26.4246 23.5144 25.8172L26.0569 24.8002C26.3084 24.6996 26.5368 24.549 26.7283 24.3575L27.4142 23.6716C28.1644 22.9214 29.1818 22.5 30.2426 22.5H33.7574C34.8182 22.5 35.8356 22.9214 36.5858 23.6716Z" fill="black"/>
<path d="M39 39.5H27.3284L25.3284 41.5H39C41.2091 41.5 43 39.7091 43 37.5V29.5311C43 28.0287 42.1598 26.6653 40.846 25.9824L39.3224 27.506L39.7428 27.6741C40.5021 27.9779 41 28.7133 41 29.5311V37.5C41 38.6046 40.1046 39.5 39 39.5Z" fill="black"/>
<path d="M82.7071 22.7071C83.0976 22.3166 83.0976 21.6834 82.7071 21.2929C82.3166 20.9024 81.6834 20.9024 81.2929 21.2929L61.2929 41.2929C60.9024 41.6834 60.9024 42.3166 61.2929 42.7071C61.6834 43.0976 62.3166 43.0976 62.7071 42.7071L82.7071 22.7071Z" fill="black"/>
<path d="M76.3358 24.8358L75.8787 24.3787C75.3161 23.8161 74.553 23.5 73.7574 23.5H70.2426C69.447 23.5 68.6839 23.8161 68.1213 24.3787L67.4354 25.0646C67.1481 25.3519 66.8055 25.5778 66.4283 25.7287L63.8858 26.7457C62.7469 27.2013 62 28.3044 62 29.5311V37.5C62 37.986 62.1155 38.4449 62.3207 38.8509L67.1124 34.0592C67.0388 33.7178 67 33.3634 67 33C67 30.2386 69.2386 28 72 28C72.3634 28 72.7178 28.0388 73.0592 28.1124L76.3358 24.8358Z" fill="black"/>
<path d="M71.0013 30.1702C70.1478 30.4714 69.4714 31.1478 69.1702 32.0013L71.0013 30.1702Z" fill="black"/>
<path d="M66.3284 40.5H79C80.6569 40.5 82 39.1569 82 37.5V29.5311C82 28.3044 81.2531 27.2013 80.1142 26.7457L80.0917 26.7367L78.4588 28.3696C78.8018 28.5416 78.7805 29.0639 78.395 29.1924C77.9941 29.326 77.6795 29.6406 77.5459 30.0415C77.4174 30.427 76.8951 30.4482 76.7231 30.1053L76.3301 30.4983C76.7561 31.2341 77 32.0886 77 33C77 35.7614 74.7614 38 72 38C71.0886 38 70.2341 37.7561 69.4983 37.3301L66.3284 40.5Z" fill="black"/>
<path d="M70.9994 35.8291C71.3123 35.9398 71.6491 36 72 36C73.6569 36 75 34.6569 75 33C75 32.6491 74.9398 32.3123 74.8291 31.9994L70.9994 35.8291Z" fill="black"/>
</svg>
