<svg width="104" height="64" viewBox="0 0 104 64" fill="none" xmlns="http://www.w3.org/2000/svg">
<path fill-rule="evenodd" clip-rule="evenodd" d="M28 23V25H28.5C29.8807 25 31 26.1193 31 27.5V30.5C31 31.8807 29.8807 33 28.5 33H28V41C28 41.5523 27.5523 42 27 42C26.4477 42 26 41.5523 26 41L26 33H25.5C24.1193 33 23 31.8807 23 30.5V27.5C23 26.1193 24.1193 25 25.5 25H26L26 23C26 22.4477 26.4477 22 27 22C27.5523 22 28 22.4477 28 23ZM25.5 27H28.5C28.7761 27 29 27.2239 29 27.5V30.5C29 30.7761 28.7761 31 28.5 31H25.5C25.2239 31 25 30.7761 25 30.5V27.5C25 27.2239 25.2239 27 25.5 27Z" fill="black"/>
<path fill-rule="evenodd" clip-rule="evenodd" d="M36 39V41C36 41.5523 36.4477 42 37 42C37.5523 42 38 41.5523 38 41V39H38.5C39.8807 39 41 37.8807 41 36.5V30.5C41 29.1193 39.8807 28 38.5 28H38V23C38 22.4477 37.5523 22 37 22C36.4477 22 36 22.4477 36 23V28H35.5C34.1193 28 33 29.1193 33 30.5V36.5C33 37.8807 34.1193 39 35.5 39H36ZM35.5 30C35.2239 30 35 30.2239 35 30.5V36.5C35 36.7761 35.2239 37 35.5 37H38.5C38.7761 37 39 36.7761 39 36.5V30.5C39 30.2239 38.7761 30 38.5 30H35.5Z" fill="black"/>
<path d="M66 23L66 26H65.5C64.6716 26 64 26.6716 64 27.5V30.5C64 31.3284 64.6716 32 65.5 32H66L66 41C66 41.5523 66.4477 42 67 42C67.5523 42 68 41.5523 68 41L68 32H68.5C69.3284 32 70 31.3284 70 30.5V27.5C70 26.6716 69.3284 26 68.5 26H68L68 23C68 22.4477 67.5523 22 67 22C66.4477 22 66 22.4477 66 23Z" fill="black"/>
<path d="M78 29H78.5C79.3284 29 80 29.6716 80 30.5V36.5C80 37.3284 79.3284 38 78.5 38H78V41C78 41.5523 77.5523 42 77 42C76.4477 42 76 41.5523 76 41V38H75.5C74.6716 38 74 37.3284 74 36.5V30.5C74 29.6716 74.6716 29 75.5 29H76V23C76 22.4477 76.4477 22 77 22C77.5523 22 78 22.4477 78 23V29Z" fill="black"/>
</svg>
