<svg width="104" height="64" viewBox="0 0 104 64" fill="none" xmlns="http://www.w3.org/2000/svg">
<path fill-rule="evenodd" clip-rule="evenodd" d="M36.5 23C37.8807 23 39 24.1193 39 25.5V26H41C41.5523 26 42 26.4477 42 27C42 27.5523 41.5523 28 41 28H39V28.5C39 29.8807 37.8807 31 36.5 31H33.5C32.1193 31 31 29.8807 31 28.5V28L23 28C22.4477 28 22 27.5523 22 27C22 26.4477 22.4477 26 23 26L31 26V25.5C31 24.1193 32.1193 23 33.5 23H36.5ZM37 25.5V28.5C37 28.7761 36.7761 29 36.5 29H33.5C33.2239 29 33 28.7761 33 28.5V25.5C33 25.2239 33.2239 25 33.5 25L36.5 25C36.7761 25 37 25.2239 37 25.5Z" fill="black"/>
<path fill-rule="evenodd" clip-rule="evenodd" d="M25 36H23C22.4477 36 22 36.4477 22 37C22 37.5523 22.4477 38 23 38H25V38.5C25 39.8807 26.1193 41 27.5 41H33.5C34.8807 41 36 39.8807 36 38.5V38H41C41.5523 38 42 37.5523 42 37C42 36.4477 41.5523 36 41 36H36V35.5C36 34.1193 34.8807 33 33.5 33H27.5C26.1193 33 25 34.1193 25 35.5V36ZM34 35.5C34 35.2239 33.7761 35 33.5 35H27.5C27.2239 35 27 35.2239 27 35.5V38.5C27 38.7761 27.2239 39 27.5 39H33.5C33.7761 39 34 38.7761 34 38.5V35.5Z" fill="black"/>
<path d="M78 28.5V28L81 28C81.5523 28 82 27.5523 82 27C82 26.4477 81.5523 26 81 26H78V25.5C78 24.6716 77.3284 24 76.5 24H73.5C72.6716 24 72 24.6716 72 25.5V26L63 26C62.4477 26 62 26.4477 62 27C62 27.5523 62.4477 28 63 28L72 28V28.5C72 29.3284 72.6716 30 73.5 30H76.5C77.3284 30 78 29.3284 78 28.5Z" fill="black"/>
<path d="M75 38V38.5C75 39.3284 74.3284 40 73.5 40H67.5C66.6716 40 66 39.3284 66 38.5L66 38H63C62.4477 38 62 37.5523 62 37C62 36.4477 62.4477 36 63 36H66V35.5C66 34.6716 66.6716 34 67.5 34H73.5C74.3284 34 75 34.6716 75 35.5V36H81C81.5523 36 82 36.4477 82 37C82 37.5523 81.5523 38 81 38H75Z" fill="black"/>
</svg>
