<svg width="104" height="64" viewBox="0 0 104 64" fill="none" xmlns="http://www.w3.org/2000/svg">
<path fill-rule="evenodd" clip-rule="evenodd" d="M37 41C35.8954 41 35 40.1046 35 39V38H29V39C29 40.1046 28.1046 41 27 41H24.5C23.3954 41 22.5 40.1046 22.5 39V37.792C21.617 37.4062 21 36.5252 21 35.5V32C21 31.5534 21.1464 31.1409 21.3938 30.8081L21.2929 30.7071C20.9024 30.3166 20.9024 29.6834 21.2929 29.2929C21.6364 28.9494 22.1676 28.908 22.5563 29.1688L23.5955 26.0513C24.0038 24.8263 25.1502 24 26.4415 24H37.5585C38.8498 24 39.9962 24.8263 40.4045 26.0513L41.4437 29.1688C41.8324 28.908 42.3636 28.9494 42.7071 29.2929C43.0976 29.6834 43.0976 30.3166 42.7071 30.7071L42.6062 30.8081C42.8536 31.1409 43 31.5534 43 32V35.5C43 36.5252 42.383 37.4062 41.5 37.792V39C41.5 40.1046 40.6046 41 39.5 41H37ZM25.4928 26.6838C25.6289 26.2754 26.0111 26 26.4415 26H37.5585C37.9889 26 38.371 26.2754 38.5072 26.6838L39.6126 30H24.3874L25.4928 26.6838ZM23.5 36C23.2239 36 23 35.7761 23 35.5V32H41V35.5C41 35.7761 40.7761 36 40.5 36H23.5ZM37 38H39.5V39H37V38ZM24.5 38H27V39H24.5V38Z" fill="black"/>
<path d="M63.1464 30.5607L63 31H81L80.8536 30.5607L81.7071 29.7071C82.0976 29.3166 82.0976 28.6834 81.7071 28.2929C81.3166 27.9024 80.6834 27.9024 80.2929 28.2929L80.1464 28.4393L79.4558 26.3675C79.1836 25.5509 78.4193 25 77.5585 25H66.4415C65.5807 25 64.8164 25.5509 64.5442 26.3675L63.8536 28.4393L63.7071 28.2929C63.3166 27.9024 62.6834 27.9024 62.2929 28.2929C61.9024 28.6834 61.9024 29.3166 62.2929 29.7071L63.1464 30.5607Z" fill="black"/>
<path d="M82 32V35.5C82 36.3284 81.3284 37 80.5 37H63.5C62.6716 37 62 36.3284 62 35.5V32H82Z" fill="black"/>
<path d="M63.5 40V38H68V40C68 40.5523 67.5523 41 67 41H64.5C63.9477 41 63.5 40.5523 63.5 40Z" fill="black"/>
<path d="M76 38H80.5V40C80.5 40.5523 80.0523 41 79.5 41H77C76.4477 41 76 40.5523 76 40V38Z" fill="black"/>
</svg>
