<svg width="104" height="64" viewBox="0 0 104 64" fill="none" xmlns="http://www.w3.org/2000/svg">
<path fill-rule="evenodd" clip-rule="evenodd" d="M21 26.5C21 24.2909 22.7909 22.5 25 22.5H39C41.2091 22.5 43 24.2909 43 26.5V34.25C43 34.8023 42.5523 35.25 42 35.25C41.4477 35.25 41 34.8023 41 34.25V29H23V37.5C23 38.6046 23.8954 39.5 25 39.5H34.5C35.0523 39.5 35.5 39.9477 35.5 40.5C35.5 41.0523 35.0523 41.5 34.5 41.5H25C22.7909 41.5 21 39.7091 21 37.5V26.5ZM23 27H41V26.5C41 25.3954 40.1046 24.5 39 24.5H25C23.8954 24.5 23 25.3954 23 26.5V27Z" fill="black"/>
<path d="M24 36C24 35.4477 24.4477 35 25 35H33C33.5523 35 34 35.4477 34 36C34 36.5523 33.5523 37 33 37H25C24.4477 37 24 36.5523 24 36Z" fill="black"/>
<path d="M41.4141 40.6644L42.7474 39.1644C43.0842 38.7855 43.0842 38.2145 42.7474 37.8356L41.4141 36.3356C41.0472 35.9229 40.4151 35.8857 40.0023 36.2526C39.6412 36.5736 39.5675 37.0975 39.8004 37.5H37C36.4477 37.5 36 37.9477 36 38.5C36 39.0523 36.4477 39.5 37 39.5H39.8004C39.5675 39.9025 39.6412 40.4264 40.0023 40.7474C40.4151 41.1143 41.0472 41.0771 41.4141 40.6644Z" fill="black"/>
<path d="M65 23.5H79C80.6569 23.5 82 24.8431 82 26.5V27H62V26.5C62 24.8431 63.3431 23.5 65 23.5Z" fill="black"/>
<path fill-rule="evenodd" clip-rule="evenodd" d="M62 29V37.5C62 39.1569 63.3431 40.5 65 40.5H74.7639C74.2889 39.9692 74 39.2684 74 38.5C74 37.5978 74.3983 36.7885 75.0286 36.2386C75.0099 36.1621 75 36.0822 75 36C75 35.4477 75.4477 35 76 35H78C78.1304 35 78.2549 35.0249 78.3691 35.0703C78.4616 34.9605 78.5631 34.856 78.6736 34.7578C79.615 33.9209 80.9367 33.7848 82 34.3117V29H62ZM64 36C64 35.4477 64.4477 35 65 35H73C73.5523 35 74 35.4477 74 36C74 36.5523 73.5523 37 73 37H65C64.4477 37 64 36.5523 64 36Z" fill="black"/>
<path d="M81.4141 40.6644L82.7474 39.1644C83.0842 38.7855 83.0842 38.2145 82.7474 37.8356L81.4141 36.3356C81.0472 35.9229 80.4151 35.8857 80.0023 36.2526C79.6412 36.5736 79.5675 37.0975 79.8004 37.5H77C76.4477 37.5 76 37.9477 76 38.5C76 39.0523 76.4477 39.5 77 39.5H79.8004C79.5675 39.9025 79.6412 40.4264 80.0023 40.7474C80.4151 41.1143 81.0472 41.0771 81.4141 40.6644Z" fill="black"/>
</svg>
