<svg width="104" height="64" viewBox="0 0 104 64" fill="none" xmlns="http://www.w3.org/2000/svg">
<path fill-rule="evenodd" clip-rule="evenodd" d="M21 26.5C21 24.2909 22.7909 22.5 25 22.5H39C41.2091 22.5 43 24.2909 43 26.5V34.25C43 34.8023 42.5523 35.25 42 35.25C41.4477 35.25 41 34.8023 41 34.25V29H23V37.5C23 38.6046 23.8954 39.5 25 39.5H34.5C35.0523 39.5 35.5 39.9477 35.5 40.5C35.5 41.0523 35.0523 41.5 34.5 41.5H25C22.7909 41.5 21 39.7091 21 37.5V26.5ZM23 27H41V26.5C41 25.3954 40.1046 24.5 39 24.5H25C23.8954 24.5 23 25.3954 23 26.5V27Z" fill="black"/>
<path d="M24 36C24 35.4477 24.4477 35 25 35H33C33.5523 35 34 35.4477 34 36C34 36.5523 33.5523 37 33 37H25C24.4477 37 24 36.5523 24 36Z" fill="black"/>
<path d="M41.2426 38.8284L41.9497 38.1213C42.3402 37.7308 42.3402 37.0976 41.9497 36.7071C41.5592 36.3166 40.926 36.3166 40.5355 36.7071L39.8284 37.4142L39.1213 36.7071C38.7307 36.3166 38.0976 36.3166 37.707 36.7071C37.3165 37.0976 37.3165 37.7308 37.707 38.1213L38.4142 38.8284L37.707 39.5355C37.3165 39.9261 37.3165 40.5592 37.707 40.9497C38.0976 41.3403 38.7307 41.3403 39.1213 40.9497L39.8284 40.2426L40.5355 40.9497C40.926 41.3403 41.5592 41.3403 41.9497 40.9497C42.3402 40.5592 42.3402 39.9261 41.9497 39.5355L41.2426 38.8284Z" fill="black"/>
<path d="M65 23.5H79C80.6569 23.5 82 24.8431 82 26.5V27H62V26.5C62 24.8431 63.3431 23.5 65 23.5Z" fill="black"/>
<path fill-rule="evenodd" clip-rule="evenodd" d="M62 29V37.5C62 39.1569 63.3431 40.5 65 40.5H75.587C75.5724 39.9847 75.6897 39.4663 75.9391 39C75.5986 38.3633 75.5042 37.6297 75.6559 36.9392C75.2731 36.799 75 36.4314 75 36C75 35.4477 75.4477 35 76 35H77.0633C77.964 34.4688 79.0826 34.4485 80 34.9391C80.618 34.6086 81.3274 34.51 82 34.6432V29H62ZM64 36C64 35.4477 64.4477 35 65 35H73C73.5523 35 74 35.4477 74 36C74 36.5523 73.5523 37 73 37H65C64.4477 37 64 36.5523 64 36Z" fill="black"/>
<path d="M81.2426 38.8284L81.9497 38.1213C82.3402 37.7308 82.3402 37.0976 81.9497 36.7071C81.5592 36.3166 80.926 36.3166 80.5355 36.7071L79.8284 37.4142L79.1213 36.7071C78.7307 36.3166 78.0976 36.3166 77.707 36.7071C77.3165 37.0976 77.3165 37.7308 77.707 38.1213L78.4142 38.8284L77.707 39.5355C77.3165 39.9261 77.3165 40.5592 77.707 40.9497C78.0976 41.3403 78.7307 41.3403 79.1213 40.9497L79.8284 40.2426L80.5355 40.9497C80.926 41.3403 81.5592 41.3403 81.9497 40.9497C82.3402 40.5592 82.3402 39.9261 81.9497 39.5355L81.2426 38.8284Z" fill="black"/>
</svg>
