<svg width="104" height="64" viewBox="0 0 104 64" fill="none" xmlns="http://www.w3.org/2000/svg">
<path fill-rule="evenodd" clip-rule="evenodd" d="M21 26.5C21 24.2909 22.7909 22.5 25 22.5H39C41.2091 22.5 43 24.2909 43 26.5V34.25C43 34.8023 42.5523 35.25 42 35.25C41.4477 35.25 41 34.8023 41 34.25V29H23V37.5C23 38.6046 23.8954 39.5 25 39.5H34.5C35.0523 39.5 35.5 39.9477 35.5 40.5C35.5 41.0523 35.0523 41.5 34.5 41.5H25C22.7909 41.5 21 39.7091 21 37.5V26.5ZM23 27H41V26.5C41 25.3954 40.1046 24.5 39 24.5H25C23.8954 24.5 23 25.3954 23 26.5V27Z" fill="black"/>
<path d="M24 36C24 35.4477 24.4477 35 25 35H33C33.5523 35 34 35.4477 34 36C34 36.5523 33.5523 37 33 37H25C24.4477 37 24 36.5523 24 36Z" fill="black"/>
<path d="M42.6961 38.4962C43.0866 38.1056 43.0866 37.4725 42.6961 37.0819C42.3056 36.6914 41.6724 36.6914 41.2819 37.0819L39.3431 39.0207L39.0613 38.7388C38.6707 38.3483 38.0376 38.3483 37.647 38.7388C37.2565 39.1293 37.2565 39.7625 37.647 40.153L38.636 41.142C39.0266 41.5325 39.6597 41.5325 40.0503 41.142L42.6961 38.4962Z" fill="black"/>
<path d="M65 23.5H79C80.6569 23.5 82 24.8431 82 26.5V27H62V26.5C62 24.8431 63.3431 23.5 65 23.5Z" fill="black"/>
<path fill-rule="evenodd" clip-rule="evenodd" d="M62 29V37.5C62 39.1569 63.3431 40.5 65 40.5H75.5447C75.1449 39.4326 75.3743 38.1831 76.2328 37.3246C76.3534 37.204 76.4818 37.0958 76.6162 37H76C75.4477 37 75 36.5523 75 36C75 35.4477 75.4477 35 76 35H78C78.5523 35 79 35.4477 79 36C79 36.1783 78.9533 36.3457 78.8716 36.4906C78.9199 36.499 78.9681 36.5086 79.016 36.5194L79.8677 35.6677C80.4563 35.0791 81.2286 34.7863 82 34.7891V29H62ZM64 36C64 35.4477 64.4477 35 65 35H73C73.5523 35 74 35.4477 74 36C74 36.5523 73.5523 37 73 37H65C64.4477 37 64 36.5523 64 36Z" fill="black"/>
<path d="M82.6961 38.4962C83.0866 38.1056 83.0866 37.4725 82.6961 37.0819C82.3056 36.6914 81.6724 36.6914 81.2819 37.0819L79.3431 39.0207L79.0613 38.7388C78.6707 38.3483 78.0376 38.3483 77.647 38.7388C77.2565 39.1293 77.2565 39.7625 77.647 40.153L78.636 41.142C79.0266 41.5325 79.6597 41.5325 80.0503 41.142L82.6961 38.4962Z" fill="black"/>
</svg>
