<svg width="104" height="64" viewBox="0 0 104 64" fill="none" xmlns="http://www.w3.org/2000/svg">
<path fill-rule="evenodd" clip-rule="evenodd" d="M21 26.5C21 24.2909 22.7909 22.5 25 22.5H39C41.2091 22.5 43 24.2909 43 26.5V34.25C43 34.8023 42.5523 35.25 42 35.25C41.4477 35.25 41 34.8023 41 34.25V29H23V37.5C23 38.6046 23.8954 39.5 25 39.5H34.5C35.0523 39.5 35.5 39.9477 35.5 40.5C35.5 41.0523 35.0523 41.5 34.5 41.5H25C22.7909 41.5 21 39.7091 21 37.5V26.5ZM23 27H41V26.5C41 25.3954 40.1046 24.5 39 24.5H25C23.8954 24.5 23 25.3954 23 26.5V27Z" fill="black"/>
<path d="M24 36C24 35.4477 24.4477 35 25 35H33C33.5523 35 34 35.4477 34 36C34 36.5523 33.5523 37 33 37H25C24.4477 37 24 36.5523 24 36Z" fill="black"/>
<path d="M40.1644 35.2526C39.7855 34.9158 39.2145 34.9158 38.8356 35.2526L37.3356 36.5859C36.9229 36.9528 36.8857 37.5849 37.2526 37.9977C37.5736 38.3588 38.0975 38.4325 38.5 38.1996V41C38.5 41.5523 38.9477 42 39.5 42C40.0523 42 40.5 41.5523 40.5 41V38.1996C40.9025 38.4325 41.4264 38.3588 41.7474 37.9977C42.1143 37.5849 42.0771 36.9528 41.6644 36.5859L40.1644 35.2526Z" fill="black"/>
<path d="M65 23.5H79C80.6569 23.5 82 24.8431 82 26.5V27H62V26.5C62 24.8431 63.3431 23.5 65 23.5Z" fill="black"/>
<path fill-rule="evenodd" clip-rule="evenodd" d="M62 29V37.5C62 39.1569 63.3431 40.5 65 40.5H76.5V39.9323C76.2286 39.7757 75.9774 39.5735 75.7578 39.3264C75.0433 38.5227 74.8396 37.4418 75.1232 36.4812C75.0447 36.3384 75 36.1744 75 36C75 35.4477 75.4477 35 76 35H76.1094L77.5069 33.7578C78.6436 32.7474 80.3564 32.7474 81.4931 33.7578L82 34.2084V29H62ZM64 36C64 35.4477 64.4477 35 65 35H73C73.5523 35 74 35.4477 74 36C74 36.5523 73.5523 37 73 37H65C64.4477 37 64 36.5523 64 36Z" fill="black"/>
<path d="M80.1644 35.2526C79.7855 34.9158 79.2145 34.9158 78.8356 35.2526L77.3356 36.5859C76.9229 36.9528 76.8857 37.5849 77.2526 37.9977C77.5736 38.3588 78.0975 38.4325 78.5 38.1996V41C78.5 41.5523 78.9477 42 79.5 42C80.0523 42 80.5 41.5523 80.5 41V38.1996C80.9025 38.4325 81.4264 38.3588 81.7474 37.9977C82.1143 37.5849 82.0771 36.9528 81.6644 36.5859L80.1644 35.2526Z" fill="black"/>
</svg>
