<svg width="104" height="64" viewBox="0 0 104 64" fill="none" xmlns="http://www.w3.org/2000/svg">
<path fill-rule="evenodd" clip-rule="evenodd" d="M21 26.5C21 24.2909 22.7909 22.5 25 22.5H39C41.2091 22.5 43 24.2909 43 26.5V34.25C43 34.8023 42.5523 35.25 42 35.25C41.4477 35.25 41 34.8023 41 34.25V29H23V37.5C23 38.6046 23.8954 39.5 25 39.5H34.5C35.0523 39.5 35.5 39.9477 35.5 40.5C35.5 41.0523 35.0523 41.5 34.5 41.5H25C22.7909 41.5 21 39.7091 21 37.5V26.5ZM23 27H41V26.5C41 25.3954 40.1046 24.5 39 24.5H25C23.8954 24.5 23 25.3954 23 26.5V27Z" fill="black"/>
<path d="M24 36C24 35.4477 24.4477 35 25 35H33C33.5523 35 34 35.4477 34 36C34 36.5523 33.5523 37 33 37H25C24.4477 37 24 36.5523 24 36Z" fill="black"/>
<path d="M36.2526 39.1644C35.9158 38.7855 35.9158 38.2145 36.2526 37.8356L37.5859 36.3356C37.9528 35.9229 38.5849 35.8857 38.9977 36.2526C39.3588 36.5736 39.4325 37.0975 39.1996 37.5H42C42.5523 37.5 43 37.9477 43 38.5C43 39.0523 42.5523 39.5 42 39.5H39.1996C39.4325 39.9025 39.3588 40.4264 38.9977 40.7474C38.5849 41.1143 37.9528 41.0771 37.5859 40.6644L36.2526 39.1644Z" fill="black"/>
<path d="M65 23.5H79C80.6569 23.5 82 24.8431 82 26.5V27H62V26.5C62 24.8431 63.3431 23.5 65 23.5Z" fill="black"/>
<path fill-rule="evenodd" clip-rule="evenodd" d="M62 29V37.5C62 39.1569 63.3431 40.5 65 40.5H74.7639L74.7578 40.4931C73.7474 39.3564 73.7474 37.6436 74.7578 36.5069L75.022 36.2096C75.0076 36.142 75 36.0719 75 36C75 35.4477 75.4477 35 76 35H76.0973C77.1989 33.7681 79.0904 33.6591 80.3264 34.7578C80.5735 34.9774 80.7757 35.2286 80.9323 35.5H82V29H62ZM64 36C64 35.4477 64.4477 35 65 35H73C73.5523 35 74 35.4477 74 36C74 36.5523 73.5523 37 73 37H65C64.4477 37 64 36.5523 64 36Z" fill="black"/>
<path d="M76.2526 39.1644C75.9158 38.7855 75.9158 38.2145 76.2526 37.8356L77.5859 36.3356C77.9528 35.9229 78.5849 35.8857 78.9977 36.2526C79.3588 36.5736 79.4325 37.0975 79.1996 37.5H82C82.5523 37.5 83 37.9477 83 38.5C83 39.0523 82.5523 39.5 82 39.5H79.1996C79.4325 39.9025 79.3588 40.4264 78.9977 40.7474C78.5849 41.1143 77.9528 41.0771 77.5859 40.6644L76.2526 39.1644Z" fill="black"/>
</svg>
