<svg width="104" height="64" viewBox="0 0 104 64" fill="none" xmlns="http://www.w3.org/2000/svg">
<path fill-rule="evenodd" clip-rule="evenodd" d="M21 26.5C21 24.2909 22.7909 22.5 25 22.5H39C41.2091 22.5 43 24.2909 43 26.5V34.25C43 34.8023 42.5523 35.25 42 35.25C41.4477 35.25 41 34.8023 41 34.25V29H23V37.5C23 38.6046 23.8954 39.5 25 39.5H34.5C35.0523 39.5 35.5 39.9477 35.5 40.5C35.5 41.0523 35.0523 41.5 34.5 41.5H25C22.7909 41.5 21 39.7091 21 37.5V26.5ZM23 27H41V26.5C41 25.3954 40.1046 24.5 39 24.5H25C23.8954 24.5 23 25.3954 23 26.5V27Z" fill="black"/>
<path d="M24 36C24 35.4477 24.4477 35 25 35H33C33.5523 35 34 35.4477 34 36C34 36.5523 33.5523 37 33 37H25C24.4477 37 24 36.5523 24 36Z" fill="black"/>
<path d="M41.6644 40.4141L40.1644 41.7474C39.7855 42.0842 39.2145 42.0842 38.8356 41.7474L37.3356 40.4141C36.9229 40.0472 36.8857 39.4151 37.2526 39.0023C37.5736 38.6412 38.0975 38.5675 38.5 38.8004V36C38.5 35.4477 38.9477 35 39.5 35C40.0523 35 40.5 35.4477 40.5 36V38.8004C40.9025 38.5675 41.4264 38.6412 41.7474 39.0023C42.1143 39.4151 42.0771 40.0472 41.6644 40.4141Z" fill="black"/>
<path d="M65 23.5H79C80.6569 23.5 82 24.8431 82 26.5V27H62V26.5C62 24.8431 63.3431 23.5 65 23.5Z" fill="black"/>
<path fill-rule="evenodd" clip-rule="evenodd" d="M62 29V37.5C62 39.1569 63.3431 40.5 65 40.5H75.1177C74.8423 39.5441 75.048 38.4721 75.7578 37.6736C75.9774 37.4265 76.2286 37.2243 76.5 37.0677V37H76C75.4477 37 75 36.5523 75 36C75 35.4477 75.4477 35 76 35H76.6707C77.0825 33.8348 78.1938 33 79.5 33C80.5435 33 81.4625 33.5328 82 34.3411V29H62ZM64 36C64 35.4477 64.4477 35 65 35H73C73.5523 35 74 35.4477 74 36C74 36.5523 73.5523 37 73 37H65C64.4477 37 64 36.5523 64 36Z" fill="black"/>
<path d="M81.6644 40.4141L80.1644 41.7474C79.7855 42.0842 79.2145 42.0842 78.8356 41.7474L77.3356 40.4141C76.9229 40.0472 76.8857 39.4151 77.2526 39.0023C77.5736 38.6412 78.0975 38.5675 78.5 38.8004V36C78.5 35.4477 78.9477 35 79.5 35C80.0523 35 80.5 35.4477 80.5 36V38.8004C80.9025 38.5675 81.4264 38.6412 81.7474 39.0023C82.1143 39.4151 82.0771 40.0472 81.6644 40.4141Z" fill="black"/>
</svg>
