<svg width="104" height="64" viewBox="0 0 104 64" fill="none" xmlns="http://www.w3.org/2000/svg">
<path d="M24 36C24 35.4477 24.4477 35 25 35H33C33.5523 35 34 35.4477 34 36C34 36.5523 33.5523 37 33 37H25C24.4477 37 24 36.5523 24 36Z" fill="black"/>
<path d="M36 35C35.4477 35 35 35.4477 35 36C35 36.5523 35.4477 37 36 37H38C38.5523 37 39 36.5523 39 36C39 35.4477 38.5523 35 38 35H36Z" fill="black"/>
<path fill-rule="evenodd" clip-rule="evenodd" d="M21 26.5C21 24.2909 22.7909 22.5 25 22.5H39C41.2091 22.5 43 24.2909 43 26.5V37.5C43 39.7091 41.2091 41.5 39 41.5H25C22.7909 41.5 21 39.7091 21 37.5V26.5ZM25 24.5C23.8954 24.5 23 25.3954 23 26.5V27H41V26.5C41 25.3954 40.1046 24.5 39 24.5H25ZM41 29H23V37.5C23 38.6046 23.8954 39.5 25 39.5H39C40.1046 39.5 41 38.6046 41 37.5V29Z" fill="black"/>
<path d="M65 23.5H79C80.6569 23.5 82 24.8431 82 26.5V27H62V26.5C62 24.8431 63.3431 23.5 65 23.5Z" fill="black"/>
<path fill-rule="evenodd" clip-rule="evenodd" d="M62 29V37.5C62 39.1569 63.3431 40.5 65 40.5H79C80.6569 40.5 82 39.1569 82 37.5V29H62ZM64 36C64 35.4477 64.4477 35 65 35H73C73.5523 35 74 35.4477 74 36C74 36.5523 73.5523 37 73 37H65C64.4477 37 64 36.5523 64 36ZM76 35C75.4477 35 75 35.4477 75 36C75 36.5523 75.4477 37 76 37H78C78.5523 37 79 36.5523 79 36C79 35.4477 78.5523 35 78 35H76Z" fill="black"/>
</svg>
