<svg width="104" height="64" viewBox="0 0 104 64" fill="none" xmlns="http://www.w3.org/2000/svg">
<path fill-rule="evenodd" clip-rule="evenodd" d="M21 26.5C21 24.2909 22.7909 22.5 25 22.5H39C41.2091 22.5 43 24.2909 43 26.5V34.25C43 34.8023 42.5523 35.25 42 35.25C41.4477 35.25 41 34.8023 41 34.25V29H23V37.5C23 38.6046 23.8954 39.5 25 39.5H34.5C35.0523 39.5 35.5 39.9477 35.5 40.5C35.5 41.0523 35.0523 41.5 34.5 41.5H25C22.7909 41.5 21 39.7091 21 37.5V26.5ZM23 27H41V26.5C41 25.3954 40.1046 24.5 39 24.5H25C23.8954 24.5 23 25.3954 23 26.5V27Z" fill="black"/>
<path d="M24 36C24 35.4477 24.4477 35 25 35H33C33.5523 35 34 35.4477 34 36C34 36.5523 33.5523 37 33 37H25C24.4477 37 24 36.5523 24 36Z" fill="black"/>
<path d="M41 37C41 36.4477 40.5523 36 40 36C39.4477 36 39 36.4477 39 37V38H38C37.4477 38 37 38.4477 37 39C37 39.5523 37.4477 40 38 40H39V41C39 41.5523 39.4477 42 40 42C40.5523 42 41 41.5523 41 41V40H42C42.5523 40 43 39.5523 43 39C43 38.4477 42.5523 38 42 38H41V37Z" fill="black"/>
<path d="M65 23.5H79C80.6569 23.5 82 24.8431 82 26.5V27H62V26.5C62 24.8431 63.3431 23.5 65 23.5Z" fill="black"/>
<path fill-rule="evenodd" clip-rule="evenodd" d="M62 29V37.5C62 39.1569 63.3431 40.5 65 40.5H75.4013C75.1461 40.0587 75 39.5464 75 39C75 38.2204 75.2974 37.5103 75.7849 36.9768C75.336 36.8784 75 36.4784 75 36C75 35.4477 75.4477 35 76 35H77.7639C78.3132 34.3863 79.1115 34 80 34C80.7684 34 81.4692 34.2889 82 34.7639V29H62ZM64 36C64 35.4477 64.4477 35 65 35H73C73.5523 35 74 35.4477 74 36C74 36.5523 73.5523 37 73 37H65C64.4477 37 64 36.5523 64 36Z" fill="black"/>
<path d="M81 37C81 36.4477 80.5523 36 80 36C79.4477 36 79 36.4477 79 37V38H78C77.4477 38 77 38.4477 77 39C77 39.5523 77.4477 40 78 40H79V41C79 41.5523 79.4477 42 80 42C80.5523 42 81 41.5523 81 41V40H82C82.5523 40 83 39.5523 83 39C83 38.4477 82.5523 38 82 38H81V37Z" fill="black"/>
</svg>
