<svg width="104" height="64" viewBox="0 0 104 64" fill="none" xmlns="http://www.w3.org/2000/svg">
<path fill-rule="evenodd" clip-rule="evenodd" d="M21.5 22C21.5 21.4477 21.9477 21 22.5 21C24.2143 21 25.6689 22.2414 25.9656 23.9275L26.5061 27H35.9014C36.9965 27 37.884 27 38.5922 27.062C39.3175 27.1255 39.9714 27.2612 40.5496 27.6079C41.3703 28.1 41.9976 28.8554 42.3163 29.7527C42.543 30.391 42.5321 31.0532 42.4325 31.7573C42.3357 32.4415 42.1357 33.2795 41.891 34.3051L41.8707 34.3902C41.7098 35.065 41.5758 35.6266 41.4289 36.0822C41.275 36.5597 41.0872 36.9871 40.7865 37.3748C40.3509 37.9363 39.7758 38.3764 39.1192 38.6563C38.6689 38.8482 38.2049 38.9273 37.695 38.9644C37.2056 39 36.6115 39 35.8909 39H35.3984C33.7781 39 32.4918 39 31.4541 38.9025C30.389 38.8024 29.4931 38.5932 28.6804 38.1183C28.1194 37.7904 27.6132 37.3796 27.1805 36.8996C26.5506 36.2009 26.1797 35.3741 25.8936 34.3692C25.6161 33.3948 25.3966 32.1681 25.1218 30.6321L24.6823 28.1761L24.6818 28.1733L23.9958 24.274C23.8648 23.5293 23.2284 23 22.5 23C21.9477 23 21.5 22.5523 21.5 22ZM38.4177 29.0544C37.8071 29.0009 37.0076 29 35.8547 29H26.8615L27.0811 30.2274C27.3675 31.8278 27.5704 32.9551 27.8171 33.8214C28.0583 34.6683 28.3178 35.1743 28.666 35.5605C28.9593 35.8858 29.3043 36.1664 29.6895 36.3915C30.1517 36.6617 30.7248 36.8251 31.6413 36.9113C32.5745 36.999 33.7668 37 35.4487 37H35.8547C36.6204 37 37.1416 36.9994 37.5499 36.9697C37.946 36.9409 38.1668 36.8881 38.3349 36.8165C38.6839 36.6677 38.9831 36.4365 39.2062 36.1489C39.3105 36.0145 39.4096 35.8278 39.5254 35.4686C39.6456 35.0958 39.7621 34.6103 39.9341 33.8892C40.1931 32.8036 40.3701 32.0572 40.4522 31.4771C40.533 30.9061 40.5012 30.6179 40.4316 30.4221C40.2721 29.9729 39.9536 29.5825 39.5211 29.3232C39.3229 29.2043 39.0212 29.1072 38.4177 29.0544Z" fill="black"/>
<path d="M29.25 42C29.9404 42 30.5 41.4404 30.5 40.75C30.5 40.0596 29.9404 39.5 29.25 39.5C28.5596 39.5 28 40.0596 28 40.75C28 41.4404 28.5596 42 29.25 42Z" fill="black"/>
<path d="M39.5 40.75C39.5 41.4404 38.9404 42 38.25 42C37.5596 42 37 41.4404 37 40.75C37 40.0596 37.5596 39.5 38.25 39.5C38.9404 39.5 39.5 40.0596 39.5 40.75Z" fill="black"/>
<path d="M38 23C37.4477 23 37 23.4477 37 24C37 24.5523 37.4477 25 38 25H42C42.5523 25 43 24.5523 43 24C43 23.4477 42.5523 23 42 23H38Z" fill="black"/>
<path d="M63.6895 22C63.1372 22 62.6895 22.4477 62.6895 23C62.6895 23.5523 63.1372 24 63.6895 24C64.4179 24 65.0542 24.5293 65.1853 25.274L65.8712 29.1733C65.8772 29.2069 65.8847 29.2399 65.8938 29.2721L66.0962 30.4035C66.6618 33.5646 66.9447 35.1451 67.9227 36.2301C68.2857 36.6327 68.7113 36.9784 69.1844 37.2549C70.4593 38 72.1223 38 75.4482 38H75.8542C77.3568 38 78.1082 38 78.7266 37.7364C79.2294 37.522 79.6665 37.1864 79.9958 36.7619C80.4009 36.2398 80.5694 35.5336 80.9063 34.1212C81.4153 31.9881 81.6697 30.9215 81.3735 30.0874C81.1343 29.4142 80.6615 28.8412 80.0348 28.4655C79.2584 28 78.1237 28 75.8542 28H67.6956L67.155 24.9275C66.8584 23.2414 65.4038 22 63.6895 22Z" fill="black"/>
<path d="M70.4995 40.75C70.4995 41.4404 69.9399 42 69.2495 42C68.5592 42 67.9995 41.4404 67.9995 40.75C67.9995 40.0596 68.5592 39.5 69.2495 39.5C69.9399 39.5 70.4995 40.0596 70.4995 40.75Z" fill="black"/>
<path d="M79.4995 40.75C79.4995 41.4404 78.9399 42 78.2495 42C77.5592 42 76.9995 41.4404 76.9995 40.75C76.9995 40.0596 77.5592 39.5 78.2495 39.5C78.9399 39.5 79.4995 40.0596 79.4995 40.75Z" fill="black"/>
<path d="M77.9995 23C77.4472 23 76.9995 23.4477 76.9995 24C76.9995 24.5523 77.4472 25 77.9995 25H81.9995C82.5518 25 82.9995 24.5523 82.9995 24C82.9995 23.4477 82.5518 23 81.9995 23H77.9995Z" fill="black"/>
</svg>
