<svg width="104" height="64" viewBox="0 0 104 64" fill="none" xmlns="http://www.w3.org/2000/svg">
<path fill-rule="evenodd" clip-rule="evenodd" d="M22.5 21C21.9477 21 21.5 21.4477 21.5 22C21.5 22.5523 21.9477 23 22.5 23C23.2284 23 23.8648 23.5293 23.9958 24.274L24.6817 28.1727L24.6823 28.1761L25.1218 30.6321C25.3966 32.1681 25.6161 33.3948 25.8936 34.3692C26.1797 35.3741 26.5506 36.2009 27.1805 36.8996C27.6132 37.3796 28.1194 37.7904 28.6804 38.1183C29.4931 38.5932 30.389 38.8024 31.4541 38.9025C32.4918 39 33.778 39 35.3983 39H35.8909C36.6115 39 37.2056 39 37.695 38.9644C38.2049 38.9273 38.6689 38.8482 39.1192 38.6563C39.7758 38.3764 40.3509 37.9363 40.7865 37.3748C41.0872 36.9871 41.275 36.5597 41.4289 36.0822C41.5758 35.6266 41.7098 35.065 41.8707 34.3902L41.891 34.3051C42.1357 33.2795 42.3357 32.4415 42.4325 31.7573C42.5321 31.0532 42.543 30.391 42.3163 29.7527C41.9976 28.8554 41.3703 28.1 40.5496 27.6079C39.9714 27.2612 39.3175 27.1255 38.5922 27.062C37.884 27 36.9965 27 35.9014 27H26.5061L25.9656 23.9275C25.6689 22.2414 24.2143 21 22.5 21ZM35.8547 29C37.0076 29 37.8071 29.0009 38.4177 29.0544C39.0212 29.1072 39.3229 29.2043 39.5211 29.3232C39.9536 29.5825 40.2721 29.9729 40.4316 30.4221C40.5012 30.6179 40.533 30.9061 40.4522 31.4771C40.3701 32.0572 40.1931 32.8036 39.9341 33.8892C39.7621 34.6103 39.6456 35.0958 39.5254 35.4686C39.4096 35.8278 39.3105 36.0145 39.2062 36.1489C38.9831 36.4365 38.6839 36.6677 38.3349 36.8165C38.1668 36.8881 37.946 36.9409 37.5499 36.9697C37.1416 36.9994 36.6204 37 35.8547 37H35.4487C33.7668 37 32.5745 36.999 31.6413 36.9113C30.7248 36.8251 30.1517 36.6617 29.6895 36.3915C29.3043 36.1664 28.9593 35.8858 28.666 35.5605C28.3178 35.1743 28.0583 34.6683 27.8171 33.8214C27.5704 32.9551 27.3675 31.8278 27.0811 30.2274L26.8615 29H35.8547Z" fill="black"/>
<path d="M30.5 40.75C30.5 41.4404 29.9404 42 29.25 42C28.5596 42 28 41.4404 28 40.75C28 40.0596 28.5596 39.5 29.25 39.5C29.9404 39.5 30.5 40.0596 30.5 40.75Z" fill="black"/>
<path d="M38.25 42C38.9404 42 39.5 41.4404 39.5 40.75C39.5 40.0596 38.9404 39.5 38.25 39.5C37.5596 39.5 37 40.0596 37 40.75C37 41.4404 37.5596 42 38.25 42Z" fill="black"/>
<path d="M63.6895 22C63.1372 22 62.6895 22.4477 62.6895 23C62.6895 23.5523 63.1372 24 63.6895 24C64.4179 24 65.0542 24.5293 65.1853 25.274L65.8712 29.1733C65.8772 29.2069 65.8847 29.2399 65.8938 29.2721L66.0962 30.4035C66.6618 33.5646 66.9447 35.1451 67.9227 36.2301C68.2857 36.6327 68.7113 36.9784 69.1844 37.2549C70.4593 38 72.1223 38 75.4482 38H75.8542C77.3568 38 78.1082 38 78.7266 37.7364C79.2294 37.522 79.6665 37.1864 79.9958 36.7619C80.4009 36.2398 80.5694 35.5336 80.9063 34.1212C81.4153 31.9881 81.6697 30.9215 81.3735 30.0874C81.1343 29.4142 80.6615 28.8412 80.0348 28.4655C79.2584 28 78.1237 28 75.8542 28H67.6956L67.155 24.9275C66.8584 23.2414 65.4038 22 63.6895 22Z" fill="black"/>
<path d="M70.4995 40.75C70.4995 41.4404 69.9399 42 69.2495 42C68.5592 42 67.9995 41.4404 67.9995 40.75C67.9995 40.0596 68.5592 39.5 69.2495 39.5C69.9399 39.5 70.4995 40.0596 70.4995 40.75Z" fill="black"/>
<path d="M78.2495 42C78.9399 42 79.4995 41.4404 79.4995 40.75C79.4995 40.0596 78.9399 39.5 78.2495 39.5C77.5592 39.5 76.9995 40.0596 76.9995 40.75C76.9995 41.4404 77.5592 42 78.2495 42Z" fill="black"/>
</svg>
