<svg width="104" height="64" viewBox="0 0 104 64" fill="none" xmlns="http://www.w3.org/2000/svg">
<path fill-rule="evenodd" clip-rule="evenodd" d="M22.5 21C21.9477 21 21.5 21.4477 21.5 22C21.5 22.5523 21.9477 23 22.5 23C23.3085 23 24.0005 23.5798 24.1421 24.3758L24.8684 28.4608L25.2792 30.8415C25.5367 32.3337 25.7424 33.5252 26.0023 34.4717C26.2701 35.4467 26.6179 36.2529 27.2125 36.9368C27.6206 37.4061 28.0991 37.8091 28.631 38.1314C29.4061 38.6011 30.2597 38.8067 31.266 38.9048C32.2429 39 33.452 39 34.9661 39H35.4352C36.1078 39 36.6675 39 37.1298 38.9652C37.6136 38.9287 38.0597 38.8504 38.4938 38.6585C39.1219 38.3809 39.6679 37.9462 40.0794 37.3964C40.3637 37.0163 40.54 36.5991 40.684 36.1359C40.8217 35.6932 40.9472 35.1476 41.098 34.4922L41.117 34.4097C41.3463 33.4132 41.5336 32.5993 41.6243 31.9347C41.7175 31.2515 41.7278 30.6093 41.5154 29.9894C41.2167 29.1174 40.626 28.3753 39.8432 27.8886C39.2867 27.5427 38.6586 27.4087 37.9718 27.3463C37.3038 27.2857 36.4686 27.2857 35.4461 27.2857H26.6908L26.1112 24.0257C25.7999 22.2752 24.278 21 22.5 21ZM27.2413 30.4505L27.0403 29.2857H35.3983C36.4803 29.2857 37.2242 29.2867 37.7909 29.3381C38.3491 29.3888 38.6163 29.4809 38.7872 29.5872C39.1786 29.8305 39.474 30.2016 39.6234 30.6376C39.6886 30.828 39.7184 31.109 39.6426 31.6643C39.5657 32.2282 39.3998 32.9534 39.1572 34.0078C38.996 34.7084 38.8868 35.18 38.7742 35.542C38.6655 35.8916 38.5732 36.071 38.478 36.1982C38.2723 36.4731 37.9992 36.6904 37.6852 36.8293C37.5399 36.8935 37.3443 36.9433 36.9793 36.9708C36.6012 36.9993 36.1171 37 35.3983 37H35.0179C33.4403 37 32.3286 36.9989 31.46 36.9142C30.6096 36.8314 30.087 36.6751 29.6675 36.421C29.3129 36.2061 28.9939 35.9374 28.7218 35.6245C28.4 35.2544 28.1572 34.766 27.9309 33.942C27.6998 33.1004 27.5096 32.0052 27.2413 30.4505Z" fill="black"/>
<path d="M29.25 42C29.9404 42 30.5 41.4404 30.5 40.75C30.5 40.0596 29.9404 39.5 29.25 39.5C28.5596 39.5 28 40.0596 28 40.75C28 41.4404 28.5596 42 29.25 42Z" fill="black"/>
<path d="M39.5 40.75C39.5 41.4404 38.9404 42 38.25 42C37.5596 42 37 41.4404 37 40.75C37 40.0596 37.5596 39.5 38.25 39.5C38.9404 39.5 39.5 40.0596 39.5 40.75Z" fill="black"/>
<path d="M38.7071 22.2929C38.3166 21.9024 37.6834 21.9024 37.2929 22.2929C36.9024 22.6834 36.9024 23.3166 37.2929 23.7071L38 24.4142L37.2929 25.1213C36.9024 25.5118 36.9024 26.145 37.2929 26.5355C37.6834 26.9261 38.3166 26.9261 38.7071 26.5355L39.4142 25.8284L40.1213 26.5355C40.5118 26.9261 41.145 26.9261 41.5355 26.5355C41.9261 26.145 41.9261 25.5118 41.5355 25.1213L40.8284 24.4142L41.5355 23.7071C41.9261 23.3166 41.9261 22.6834 41.5355 22.2929C41.145 21.9024 40.5118 21.9024 40.1213 22.2929L39.4142 23L38.7071 22.2929Z" fill="black"/>
<path d="M78.7066 22.2929C78.3161 21.9024 77.6829 21.9024 77.2924 22.2929C76.9019 22.6834 76.9019 23.3166 77.2924 23.7071L77.9995 24.4142L77.2924 25.1213C76.9019 25.5118 76.9019 26.145 77.2924 26.5355C77.6829 26.9261 78.3161 26.9261 78.7066 26.5355L79.4137 25.8284L80.1208 26.5355C80.5114 26.9261 81.1445 26.9261 81.535 26.5355C81.9256 26.145 81.9256 25.5118 81.535 25.1213L80.8279 24.4142L81.535 23.7071C81.9256 23.3166 81.9256 22.6834 81.535 22.2929C81.1445 21.9024 80.5114 21.9024 80.1208 22.2929L79.4137 23L78.7066 22.2929Z" fill="black"/>
<path d="M63.6895 22C63.1372 22 62.6895 22.4477 62.6895 23C62.6895 23.5523 63.1372 24 63.6895 24C64.4179 24 65.0542 24.5293 65.1853 25.274L65.8712 29.1733C65.8772 29.2069 65.8847 29.2399 65.8938 29.2721L66.0962 30.4035C66.6618 33.5646 66.9447 35.1451 67.9227 36.2301C68.2857 36.6327 68.7113 36.9784 69.1844 37.2549C70.4593 38 72.1223 38 75.4482 38H75.8542C77.3568 38 78.1082 38 78.7266 37.7364C79.2294 37.522 79.6665 37.1864 79.9958 36.7619C80.4009 36.2398 80.5694 35.5336 80.9063 34.1212C81.4153 31.9881 81.6697 30.9215 81.3735 30.0874C81.1343 29.4142 80.6615 28.8412 80.0348 28.4655C79.2584 28 78.1237 28 75.8542 28H67.6956L67.155 24.9275C66.8584 23.2414 65.4038 22 63.6895 22Z" fill="black"/>
<path d="M70.4995 40.75C70.4995 41.4404 69.9399 42 69.2495 42C68.5592 42 67.9995 41.4404 67.9995 40.75C67.9995 40.0596 68.5592 39.5 69.2495 39.5C69.9399 39.5 70.4995 40.0596 70.4995 40.75Z" fill="black"/>
<path d="M79.4995 40.75C79.4995 41.4404 78.9399 42 78.2495 42C77.5592 42 76.9995 41.4404 76.9995 40.75C76.9995 40.0596 77.5592 39.5 78.2495 39.5C78.9399 39.5 79.4995 40.0596 79.4995 40.75Z" fill="black"/>
</svg>
