<svg width="104" height="64" viewBox="0 0 104 64" fill="none" xmlns="http://www.w3.org/2000/svg">
<path d="M25.2929 34.9597C24.9024 35.3502 24.9024 35.9833 25.2929 36.3739C25.6834 36.7644 26.3166 36.7644 26.7071 36.3739L30.0678 33.0132L31.3675 34.0746C31.7759 34.4081 32.3731 34.3673 32.7322 33.9812L36.0028 30.4652L37.2705 31.8174C37.6482 32.2203 38.281 32.2407 38.6839 31.863C39.0869 31.4852 39.1073 30.8524 38.7295 30.4495L36.7295 28.3162C36.54 28.114 36.2751 27.9996 35.9981 28.0001C35.721 28.0006 35.4565 28.1161 35.2678 28.319L31.9064 31.9325L30.6325 30.8922C30.2349 30.5675 29.6559 30.5966 29.2929 30.9597L25.2929 34.9597Z" fill="black"/>
<path fill-rule="evenodd" clip-rule="evenodd" d="M25 23C22.7909 23 21 24.7909 21 27V37C21 39.2091 22.7909 41 25 41H39C41.2091 41 43 39.2091 43 37V27C43 24.7909 41.2091 23 39 23H25ZM23 27C23 25.8954 23.8954 25 25 25H39C40.1046 25 41 25.8954 41 27V37C41 38.1046 40.1046 39 39 39H25C23.8954 39 23 38.1046 23 37V27Z" fill="black"/>
<path fill-rule="evenodd" clip-rule="evenodd" d="M65 24H79C80.6569 24 82 25.3431 82 27V37C82 38.6569 80.6569 40 79 40H65C63.3431 40 62 38.6569 62 37V27C62 25.3431 63.3431 24 65 24ZM65.2929 34.9597C64.9024 35.3502 64.9024 35.9833 65.2929 36.3739C65.6834 36.7644 66.3166 36.7644 66.7071 36.3739L70.0678 33.0132L71.3675 34.0746C71.7759 34.4081 72.3731 34.3673 72.7322 33.9812L76.0028 30.4652L77.2705 31.8174C77.6482 32.2203 78.281 32.2407 78.6839 31.863C79.0869 31.4852 79.1073 30.8524 78.7295 30.4495L76.7295 28.3162C76.54 28.114 76.2751 27.9996 75.9981 28.0001C75.721 28.0006 75.4565 28.1161 75.2678 28.319L71.9064 31.9325L70.6325 30.8922C70.2349 30.5675 69.6559 30.5966 69.2929 30.9597L65.2929 34.9597Z" fill="black"/>
</svg>
