<svg width="104" height="64" viewBox="0 0 104 64" fill="none" xmlns="http://www.w3.org/2000/svg">
<path d="M25.2929 34.3739C24.9024 33.9833 24.9024 33.3502 25.2929 32.9597L29.2929 28.9597C29.6559 28.5966 30.2349 28.5675 30.6325 28.8922L31.9064 29.9325L35.2678 26.319C35.4565 26.1161 35.721 26.0006 35.9981 26.0001C36.2751 25.9996 36.54 26.114 36.7295 26.3162L38.7295 28.4495C39.1073 28.8524 39.0869 29.4852 38.6839 29.863C38.281 30.2407 37.6482 30.2203 37.2705 29.8174L36.0028 28.4652L32.7322 31.9812C32.3731 32.3673 31.7759 32.4081 31.3675 32.0746L30.0678 31.0132L26.7071 34.3739C26.3166 34.7644 25.6834 34.7644 25.2929 34.3739Z" fill="black"/>
<path fill-rule="evenodd" clip-rule="evenodd" d="M21 25C21 22.7909 22.7909 21 25 21H39C41.2091 21 43 22.7909 43 25V35C43 37.2091 41.2091 39 39 39H34.4142L36.7071 41.2929C37.0976 41.6834 37.0976 42.3166 36.7071 42.7071C36.3166 43.0976 35.6834 43.0976 35.2929 42.7071L32 39.4142L28.7071 42.7071C28.3166 43.0976 27.6834 43.0976 27.2929 42.7071C26.9024 42.3166 26.9024 41.6834 27.2929 41.2929L29.5858 39H25C22.7909 39 21 37.2091 21 35V25ZM39 37C40.1046 37 41 36.1046 41 35V25C41 23.8954 40.1046 23 39 23H25C23.8954 23 23 23.8954 23 25V35C23 36.1046 23.8954 37 25 37H39Z" fill="black"/>
<path fill-rule="evenodd" clip-rule="evenodd" d="M79 22H65C63.3431 22 62 23.3431 62 25V35C62 36.6569 63.3431 38 65 38H70.5858L67.2929 41.2929C66.9024 41.6834 66.9024 42.3166 67.2929 42.7071C67.6834 43.0976 68.3166 43.0976 68.7071 42.7071L72 39.4142L75.2929 42.7071C75.6834 43.0976 76.3166 43.0976 76.7071 42.7071C77.0976 42.3166 77.0976 41.6834 76.7071 41.2929L73.4142 38H79C80.6569 38 82 36.6569 82 35V25C82 23.3431 80.6569 22 79 22ZM65.2929 34.3739C64.9024 33.9833 64.9024 33.3502 65.2929 32.9597L69.2929 28.9597C69.6559 28.5966 70.2349 28.5675 70.6325 28.8922L71.9064 29.9325L75.2678 26.319C75.4565 26.1161 75.721 26.0006 75.9981 26.0001C76.2751 25.9996 76.54 26.114 76.7295 26.3162L78.7295 28.4495C79.1073 28.8524 79.0869 29.4852 78.6839 29.863C78.281 30.2407 77.6482 30.2203 77.2705 29.8174L76.0028 28.4652L72.7322 31.9812C72.3731 32.3673 71.7759 32.4081 71.3675 32.0746L70.0678 31.0132L66.7071 34.3739C66.3166 34.7644 65.6834 34.7644 65.2929 34.3739Z" fill="black"/>
</svg>
