<svg width="104" height="64" viewBox="0 0 104 64" fill="none" xmlns="http://www.w3.org/2000/svg">
<path d="M25.2929 29.7071C24.9024 29.3166 24.9024 28.6834 25.2929 28.2929C25.6834 27.9024 26.3166 27.9024 26.7071 28.2929L30.0678 31.6535L31.3675 30.5921C31.7759 30.2586 32.3731 30.2995 32.7322 30.6856L36.0028 34.2015L37.2705 32.8494C37.6482 32.4465 38.281 32.4261 38.6839 32.8038C39.0869 33.1815 39.1073 33.8144 38.7295 34.2173L36.7295 36.3506C36.54 36.5527 36.2751 36.6672 35.9981 36.6667C35.721 36.6661 35.4565 36.5506 35.2678 36.3478L31.9064 32.7342L30.6325 33.7745C30.2349 34.0993 29.6559 34.0701 29.2929 33.7071L25.2929 29.7071Z" fill="black"/>
<path fill-rule="evenodd" clip-rule="evenodd" d="M25 23C22.7909 23 21 24.7909 21 27V37C21 39.2091 22.7909 41 25 41H39C41.2091 41 43 39.2091 43 37V27C43 24.7909 41.2091 23 39 23H25ZM23 27C23 25.8954 23.8954 25 25 25H39C40.1046 25 41 25.8954 41 27V37C41 38.1046 40.1046 39 39 39H25C23.8954 39 23 38.1046 23 37V27Z" fill="black"/>
<path fill-rule="evenodd" clip-rule="evenodd" d="M65 24H79C80.6569 24 82 25.3431 82 27V37C82 38.6569 80.6569 40 79 40H65C63.3431 40 62 38.6569 62 37V27C62 25.3431 63.3431 24 65 24ZM65.2929 29.7071C64.9024 29.3166 64.9024 28.6834 65.2929 28.2929C65.6834 27.9024 66.3166 27.9024 66.7071 28.2929L70.0678 31.6535L71.3675 30.5921C71.7759 30.2586 72.3731 30.2995 72.7322 30.6856L76.0028 34.2015L77.2705 32.8494C77.6482 32.4465 78.281 32.4261 78.6839 32.8038C79.0869 33.1815 79.1073 33.8144 78.7295 34.2173L76.7295 36.3506C76.54 36.5527 76.2751 36.6672 75.9981 36.6667C75.721 36.6661 75.4565 36.5506 75.2678 36.3478L71.9064 32.7342L70.6325 33.7745C70.2349 34.0993 69.6559 34.0701 69.2929 33.7071L65.2929 29.7071Z" fill="black"/>
</svg>
