<svg width="104" height="64" viewBox="0 0 104 64" fill="none" xmlns="http://www.w3.org/2000/svg">
<path d="M26 35C25.4477 35 25 34.5523 25 34C25 33.4477 25.4477 33 26 33C26.5523 33 27 33.4477 27 34C27 34.5523 26.5523 35 26 35Z" fill="black"/>
<path d="M29 34C29 34.5523 29.4477 35 30 35C30.5523 35 31 34.5523 31 34C31 33.4477 30.5523 33 30 33C29.4477 33 29 33.4477 29 34Z" fill="black"/>
<path d="M34 35C33.4477 35 33 34.5523 33 34C33 33.4477 33.4477 33 34 33C34.5523 33 35 33.4477 35 34C35 34.5523 34.5523 35 34 35Z" fill="black"/>
<path fill-rule="evenodd" clip-rule="evenodd" d="M40.478 33.448L37.9964 33.7582C37.9988 33.8385 38 33.9191 38 34C38 38.4183 34.4183 42 30 42C29.3391 42 28.6956 41.9196 28.0793 41.7677L23.7804 41.2303C22.7231 41.0982 21.9883 40.1126 22.1634 39.0616L22.4271 37.4794L22.2323 35.9207C22.0804 35.3044 22 34.6609 22 34C22 29.5817 25.5817 26 30 26C30.1136 26 30.2267 26.0024 30.3392 26.0071C31.1609 23.6734 33.3839 22 36 22C39.3137 22 42 24.6863 42 28C42 28.4894 41.9412 28.9665 41.8298 29.4238L41.6979 30.4794L41.8794 31.5684C42.0312 32.4793 41.3944 33.3335 40.478 33.448ZM36 24C38.2091 24 40 25.7909 40 28C40 28.344 39.9568 28.6765 39.876 28.993L39.8605 29.0539L39.7065 30.2856C39.687 30.4414 39.6903 30.5993 39.7161 30.7543L39.8424 31.5119L37.6883 31.7812C36.9424 29.192 34.924 27.142 32.3539 26.3519C32.982 24.9646 34.3793 24 36 24ZM30 28C26.6863 28 24 30.6863 24 34C24 34.5153 24.0647 35.014 24.186 35.4891L24.2015 35.55L24.414 37.2494C24.4364 37.4293 24.4327 37.6114 24.4029 37.7902L24.1576 39.2619L28.45 39.7985L28.5109 39.814C28.986 39.9353 29.4847 40 30 40C33.3137 40 36 37.3137 36 34C36 30.6863 33.3137 28 30 28Z" fill="black"/>
<path d="M70 27C73.866 27 77 30.134 77 34C77 37.866 73.866 41 70 41C69.4007 41 68.8189 40.9249 68.2637 40.7832L63.9043 40.2383C63.4109 40.1766 63.0677 39.716 63.1494 39.2256L63.417 37.626C63.4309 37.5425 63.4324 37.457 63.4219 37.373L63.2168 35.7363C63.0751 35.1811 63 34.5993 63 34C63 30.134 66.134 27 70 27ZM66 33C65.4477 33 65 33.4477 65 34C65 34.5523 65.4477 35 66 35C66.5523 35 67 34.5523 67 34C67 33.4477 66.5523 33 66 33ZM70 33C69.4477 33 69 33.4477 69 34C69 34.5523 69.4477 35 70 35C70.5523 35 71 34.5523 71 34C71 33.4477 70.5523 33 70 33ZM74 33C73.4477 33 73 33.4477 73 34C73 34.5523 73.4477 35 74 35C74.5523 35 75 34.5523 75 34C75 33.4477 74.5523 33 74 33Z" fill="black"/>
<path d="M75.999 23C78.7604 23 80.999 25.2386 80.999 28C80.999 28.4281 80.945 28.8436 80.8438 29.2402L80.6982 30.4092C80.6907 30.4691 80.6922 30.5302 80.7021 30.5898L80.8926 31.7324C80.951 32.0827 80.7058 32.4119 80.3535 32.4561L78.4004 32.6992C77.8542 29.1423 75.1026 26.3136 71.5859 25.6494C72.4272 24.0731 74.0875 23.0001 75.999 23Z" fill="black"/>
</svg>
