<svg width="104" height="64" viewBox="0 0 104 64" fill="none" xmlns="http://www.w3.org/2000/svg">
<path d="M26 30C26 29.4477 26.4477 29 27 29H32C32.5523 29 33 29.4477 33 30C33 30.5523 32.5523 31 32 31H27C26.4477 31 26 30.5523 26 30Z" fill="black"/>
<path d="M27 33C26.4477 33 26 33.4477 26 34C26 34.5523 26.4477 35 27 35H36C36.5523 35 37 34.5523 37 34C37 33.4477 36.5523 33 36 33H27Z" fill="black"/>
<path fill-rule="evenodd" clip-rule="evenodd" d="M22 32C22 26.4772 26.4772 22 32 22C37.5228 22 42 26.4772 42 32C42 37.5228 37.5228 42 32 42C31.1677 42 30.3578 41.8981 29.5827 41.7056L24.0388 41.0126C22.8405 40.8628 22.0077 39.7459 22.2063 38.5547L22.5491 36.4974C22.5511 36.4854 22.5514 36.4733 22.5499 36.4613L22.2944 34.4173C22.1019 33.6422 22 32.8323 22 32ZM32 24C27.5817 24 24 27.5817 24 32C24 32.6866 24.0863 33.3515 24.248 33.9853L24.2636 34.0462L24.5344 36.2132C24.5599 36.4171 24.5557 36.6235 24.5219 36.8262L24.179 38.8835C24.1674 38.9536 24.2164 39.0193 24.2868 39.0281L29.9538 39.7364L30.0147 39.752C30.6485 39.9137 31.3135 40 32 40C36.4183 40 40 36.4183 40 32C40 27.5817 36.4183 24 32 24Z" fill="black"/>
<path fill-rule="evenodd" clip-rule="evenodd" d="M72 41C76.9706 41 81 36.9706 81 32C81 27.0294 76.9706 23 72 23C67.0294 23 63 27.0294 63 32C63 32.7706 63.0969 33.5187 63.2791 34.2326L63.5422 36.3373C63.5556 36.4452 63.5534 36.5545 63.5355 36.6618L63.1927 38.7191C63.0875 39.3497 63.5284 39.9411 64.1628 40.0204L69.7674 40.7209C70.4813 40.9031 71.2294 41 72 41ZM66 30C66 29.4477 66.4477 29 67 29H72C72.5523 29 73 29.4477 73 30C73 30.5523 72.5523 31 72 31H67C66.4477 31 66 30.5523 66 30ZM67 33C66.4477 33 66 33.4477 66 34C66 34.5523 66.4477 35 67 35H76C76.5523 35 77 34.5523 77 34C77 33.4477 76.5523 33 76 33H67Z" fill="black"/>
</svg>
