<svg width="104" height="64" viewBox="0 0 104 64" fill="none" xmlns="http://www.w3.org/2000/svg">
<path d="M35.75 32C35.75 32.6904 36.3096 33.25 37 33.25C37.6904 33.25 38.25 32.6904 38.25 32C38.25 31.3096 37.6904 30.75 37 30.75C36.3096 30.75 35.75 31.3096 35.75 32Z" fill="black"/>
<path d="M32 33.25C31.3096 33.25 30.75 32.6904 30.75 32C30.75 31.3096 31.3096 30.75 32 30.75C32.6904 30.75 33.25 31.3096 33.25 32C33.25 32.6904 32.6904 33.25 32 33.25Z" fill="black"/>
<path d="M25.75 32C25.75 32.6904 26.3096 33.25 27 33.25C27.6904 33.25 28.25 32.6904 28.25 32C28.25 31.3096 27.6904 30.75 27 30.75C26.3096 30.75 25.75 31.3096 25.75 32Z" fill="black"/>
<path fill-rule="evenodd" clip-rule="evenodd" d="M32 22C26.4772 22 22 26.4772 22 32C22 32.8323 22.1019 33.6422 22.2944 34.4173L22.5499 36.4613C22.5514 36.4733 22.5511 36.4854 22.5491 36.4974L22.2063 38.5547C22.0077 39.7459 22.8405 40.8628 24.0388 41.0126L29.5827 41.7056C30.3578 41.8981 31.1677 42 32 42C37.5228 42 42 37.5228 42 32C42 26.4772 37.5228 22 32 22ZM24 32C24 27.5817 27.5817 24 32 24C36.4183 24 40 27.5817 40 32C40 36.4183 36.4183 40 32 40C31.3135 40 30.6485 39.9137 30.0147 39.752L29.9538 39.7364L24.2868 39.0281C24.2164 39.0193 24.1674 38.9536 24.179 38.8835L24.5219 36.8262C24.5557 36.6235 24.5599 36.4171 24.5344 36.2132L24.2636 34.0462L24.248 33.9853C24.0863 33.3515 24 32.6866 24 32Z" fill="black"/>
<path fill-rule="evenodd" clip-rule="evenodd" d="M81 32C81 36.9706 76.9706 41 72 41C71.2294 41 70.4813 40.9031 69.7674 40.7209L64.1628 40.0204C63.5284 39.9411 63.0875 39.3497 63.1927 38.7191L63.5355 36.6618C63.5534 36.5545 63.5556 36.4452 63.5422 36.3373L63.2791 34.2326C63.0969 33.5187 63 32.7706 63 32C63 27.0294 67.0294 23 72 23C76.9706 23 81 27.0294 81 32ZM75.75 32C75.75 32.6904 76.3096 33.25 77 33.25C77.6904 33.25 78.25 32.6904 78.25 32C78.25 31.3096 77.6904 30.75 77 30.75C76.3096 30.75 75.75 31.3096 75.75 32ZM72 33.25C71.3096 33.25 70.75 32.6904 70.75 32C70.75 31.3096 71.3096 30.75 72 30.75C72.6904 30.75 73.25 31.3096 73.25 32C73.25 32.6904 72.6904 33.25 72 33.25ZM65.75 32C65.75 32.6904 66.3096 33.25 67 33.25C67.6904 33.25 68.25 32.6904 68.25 32C68.25 31.3096 67.6904 30.75 67 30.75C66.3096 30.75 65.75 31.3096 65.75 32Z" fill="black"/>
</svg>
