<svg width="104" height="64" viewBox="0 0 104 64" fill="none" xmlns="http://www.w3.org/2000/svg">
<path d="M35.6754 30.7375C36.0827 30.3644 36.1105 29.7319 35.7375 29.3246C35.3644 28.9173 34.7319 28.8895 34.3246 29.2625L30.6325 32.644L29.6754 31.7674C29.2681 31.3944 28.6356 31.4221 28.2626 31.8294C27.8895 32.2367 27.9173 32.8693 28.3246 33.2423L29.9571 34.7374C30.3393 35.0875 30.9257 35.0875 31.3079 34.7374L35.6754 30.7375Z" fill="black"/>
<path fill-rule="evenodd" clip-rule="evenodd" d="M32 22C26.4772 22 22 26.4772 22 32C22 37.5228 26.4772 42 32 42C37.5228 42 42 37.5228 42 32C42 26.4772 37.5228 22 32 22ZM24 32C24 27.5817 27.5817 24 32 24C36.4183 24 40 27.5817 40 32C40 36.4183 36.4183 40 32 40C27.5817 40 24 36.4183 24 32Z" fill="black"/>
<path fill-rule="evenodd" clip-rule="evenodd" d="M72 41C76.9706 41 81 36.9706 81 32C81 27.0294 76.9706 23 72 23C67.0294 23 63 27.0294 63 32C63 36.9706 67.0294 41 72 41ZM75.6754 30.7375C76.0827 30.3644 76.1105 29.7319 75.7375 29.3246C75.3644 28.9173 74.7319 28.8895 74.3246 29.2625L70.6325 32.644L69.6754 31.7674C69.2681 31.3944 68.6356 31.4221 68.2626 31.8294C67.8895 32.2367 67.9173 32.8693 68.3246 33.2423L69.9571 34.7374C70.3393 35.0875 70.9257 35.0875 71.3079 34.7374L75.6754 30.7375Z" fill="black"/>
</svg>
