<svg width="104" height="64" viewBox="0 0 104 64" fill="none" xmlns="http://www.w3.org/2000/svg">
<path d="M39.3132 25.7734C39.7147 25.3943 40.347 25.4121 40.7263 25.8135C41.1055 26.2149 41.0876 26.8473 40.6862 27.2266L29.0398 38.2266C28.6544 38.5906 28.0521 38.5906 27.6667 38.2266L23.3132 34.1152C22.9117 33.736 22.8939 33.1027 23.2732 32.7012C23.6524 32.3002 24.2849 32.2822 24.6862 32.6611L28.3532 36.124L39.3132 25.7734Z" fill="black"/>
<path d="M79.3132 25.7734C79.7147 25.3943 80.347 25.4121 80.7263 25.8135C81.1055 26.2149 81.0876 26.8473 80.6862 27.2266L69.0398 38.2266C68.6544 38.5906 68.0521 38.5906 67.6667 38.2266L63.3132 34.1152C62.9117 33.736 62.8939 33.1027 63.2732 32.7012C63.6524 32.3002 64.2849 32.2822 64.6862 32.6611L68.3532 36.124L79.3132 25.7734Z" fill="black"/>
</svg>
