<svg width="104" height="64" viewBox="0 0 104 64" fill="none" xmlns="http://www.w3.org/2000/svg">
<path d="M36.7176 29.6965C37.1022 29.3001 37.0928 28.6671 36.6965 28.2824C36.3001 27.8978 35.6671 27.9072 35.2824 28.3035L30.1767 33.5642L28.7176 32.0608C28.333 31.6645 27.6999 31.655 27.3035 32.0397C26.9072 32.4243 26.8978 33.0574 27.2824 33.4537L29.4591 35.6965C29.6474 35.8905 29.9063 36 30.1767 36C30.4471 36 30.706 35.8905 30.8943 35.6965L36.7176 29.6965Z" fill="black"/>
<path fill-rule="evenodd" clip-rule="evenodd" d="M27 23C24.7909 23 23 24.7909 23 27V37C23 39.2091 24.7909 41 27 41H37C39.2091 41 41 39.2091 41 37V27C41 24.7909 39.2091 23 37 23H27ZM25 27C25 25.8954 25.8954 25 27 25H37C38.1046 25 39 25.8954 39 27V37C39 38.1046 38.1046 39 37 39H27C25.8954 39 25 38.1046 25 37V27Z" fill="black"/>
<path fill-rule="evenodd" clip-rule="evenodd" d="M67 24H77C78.6569 24 80 25.3431 80 27V37C80 38.6569 78.6569 40 77 40H67C65.3431 40 64 38.6569 64 37V27C64 25.3431 65.3431 24 67 24ZM76.7176 29.6965C77.1022 29.3001 77.0928 28.6671 76.6965 28.2824C76.3001 27.8978 75.6671 27.9072 75.2824 28.3035L70.1767 33.5642L68.7176 32.0608C68.333 31.6645 67.6999 31.655 67.3035 32.0397C66.9072 32.4243 66.8978 33.0574 67.2824 33.4537L69.4591 35.6965C69.6474 35.8905 69.9063 36 70.1767 36C70.4471 36 70.706 35.8905 70.8943 35.6965L76.7176 29.6965Z" fill="black"/>
</svg>
