<svg width="104" height="64" viewBox="0 0 104 64" fill="none" xmlns="http://www.w3.org/2000/svg">
<path fill-rule="evenodd" clip-rule="evenodd" d="M27 23C24.7909 23 23 24.7909 23 27V37C23 39.2091 24.7909 41 27 41H37C39.2091 41 41 39.2091 41 37V27C41 24.7909 39.2091 23 37 23H27ZM25 27C25 25.8954 25.8954 25 27 25H37C38.1046 25 39 25.8954 39 27V37C39 38.1046 38.1046 39 37 39H27C25.8954 39 25 38.1046 25 37V27Z" fill="black"/>
<path d="M64 27C64 25.3431 65.3431 24 67 24H77C78.6569 24 80 25.3431 80 27V37C80 38.6569 78.6569 40 77 40H67C65.3431 40 64 38.6569 64 37V27Z" fill="black"/>
</svg>
