<svg width="104" height="64" viewBox="0 0 104 64" fill="none" xmlns="http://www.w3.org/2000/svg">
<path d="M41.2071 33.2071C41.3946 33.0196 41.5 32.7652 41.5 32.5C41.5 32.2348 41.3946 31.9804 41.2071 31.7929L35.2071 25.7929C34.8166 25.4024 34.1834 25.4024 33.7929 25.7929C33.4024 26.1834 33.4024 26.8166 33.7929 27.2071L39.0858 32.5L33.7929 37.7929C33.4024 38.1834 33.4024 38.8166 33.7929 39.2071C34.1834 39.5976 34.8166 39.5976 35.2071 39.2071L41.2071 33.2071Z" fill="black"/>
<path d="M22.7929 33.2071C22.6054 33.0196 22.5 32.7652 22.5 32.5C22.5 32.2348 22.6054 31.9804 22.7929 31.7929L28.7929 25.7929C29.1834 25.4024 29.8166 25.4024 30.2071 25.7929C30.5976 26.1834 30.5976 26.8166 30.2071 27.2071L24.9142 32.5L30.2071 37.7929C30.5976 38.1834 30.5976 38.8166 30.2071 39.2071C29.8166 39.5976 29.1834 39.5976 28.7929 39.2071L22.7929 33.2071Z" fill="black"/>
<path fill-rule="evenodd" clip-rule="evenodd" d="M62 25C62 23.3431 63.3431 22 65 22H79C80.6569 22 82 23.3431 82 25V39C82 40.6569 80.6569 42 79 42H65C63.3431 42 62 40.6569 62 39V25ZM80.5 32C80.5 32.2652 80.3946 32.5196 80.2071 32.7071L75.2071 37.7071C74.8166 38.0976 74.1834 38.0976 73.7929 37.7071C73.4024 37.3166 73.4024 36.6834 73.7929 36.2929L78.0858 32L73.7929 27.7071C73.4024 27.3166 73.4024 26.6834 73.7929 26.2929C74.1834 25.9024 74.8166 25.9024 75.2071 26.2929L80.2071 31.2929C80.3946 31.4804 80.5 31.7348 80.5 32ZM63.7929 32.7071C63.6054 32.5196 63.5 32.2652 63.5 32C63.5 31.7348 63.6054 31.4804 63.7929 31.2929L68.7929 26.2929C69.1834 25.9024 69.8166 25.9024 70.2071 26.2929C70.5976 26.6834 70.5976 27.3166 70.2071 27.7071L65.9142 32L70.2071 36.2929C70.5976 36.6834 70.5976 37.3166 70.2071 37.7071C69.8166 38.0976 69.1834 38.0976 68.7929 37.7071L63.7929 32.7071Z" fill="black"/>
</svg>
