<svg width="104" height="64" viewBox="0 0 104 64" fill="none" xmlns="http://www.w3.org/2000/svg">
<path d="M36.0832 33.3707C36.808 32.6006 36.808 31.3994 36.0832 30.6293L28.7282 22.8146C28.3497 22.4125 27.7168 22.3933 27.3146 22.7718C26.9125 23.1503 26.8933 23.7832 27.2718 24.1854L34.6268 32L27.2718 39.8146C26.8933 40.2168 26.9125 40.8497 27.3146 41.2282C27.7168 41.6067 28.3497 41.5875 28.7282 41.1854L36.0832 33.3707Z" fill="black"/>
<path fill-rule="evenodd" clip-rule="evenodd" d="M65 22C63.3431 22 62 23.3431 62 25V39C62 40.6569 63.3431 42 65 42H79C80.6569 42 82 40.6569 82 39V25C82 23.3431 80.6569 22 79 22H65ZM75.7014 30.6984C76.3434 31.4474 76.3434 32.5526 75.7014 33.3016L70.2593 39.6508C69.8998 40.0701 69.2685 40.1187 68.8492 39.7593C68.4299 39.3998 68.3813 38.7685 68.7407 38.3492L74.1829 32L68.7407 25.6508C68.3813 25.2315 68.4299 24.6002 68.8492 24.2407C69.2685 23.8813 69.8998 23.9299 70.2593 24.3492L75.7014 30.6984Z" fill="black"/>
</svg>
