<svg width="104" height="64" viewBox="0 0 104 64" fill="none" xmlns="http://www.w3.org/2000/svg">
<path d="M27.9166 33.3707C27.1918 32.6006 27.1918 31.3994 27.9166 30.6293L35.2716 22.8146C35.6501 22.4125 36.283 22.3933 36.6852 22.7718C37.0873 23.1503 37.1065 23.7832 36.728 24.1854L29.373 32L36.728 39.8146C37.1065 40.2168 37.0873 40.8497 36.6852 41.2282C36.283 41.6067 35.6501 41.5875 35.2716 41.1854L27.9166 33.3707Z" fill="black"/>
<path fill-rule="evenodd" clip-rule="evenodd" d="M65 22C63.3431 22 62 23.3431 62 25V39C62 40.6569 63.3431 42 65 42H79C80.6569 42 82 40.6569 82 39V25C82 23.3431 80.6569 22 79 22H65ZM68.2986 30.6984C67.6566 31.4474 67.6566 32.5526 68.2986 33.3016L73.7407 39.6508C74.1002 40.0701 74.7315 40.1187 75.1508 39.7593C75.5701 39.3998 75.6187 38.7685 75.2593 38.3492L69.8171 32L75.2593 25.6508C75.6187 25.2315 75.5701 24.6002 75.1508 24.2407C74.7315 23.8813 74.1002 23.9299 73.7407 24.3492L68.2986 30.6984Z" fill="black"/>
</svg>
