<svg width="104" height="64" viewBox="0 0 104 64" fill="none" xmlns="http://www.w3.org/2000/svg">
<path d="M30.6293 27.9169C31.3994 27.1921 32.6006 27.1921 33.3707 27.9169L41.1854 35.2718C41.5875 35.6504 41.6067 36.2832 41.2282 36.6854C40.8497 37.0876 40.2168 37.1068 39.8146 36.7282L32 29.3733L24.1854 36.7282C23.7832 37.1068 23.1503 37.0876 22.7718 36.6854C22.3933 36.2832 22.4125 35.6504 22.8146 35.2718L30.6293 27.9169Z" fill="black"/>
<path fill-rule="evenodd" clip-rule="evenodd" d="M65 22C63.3431 22 62 23.3431 62 25V39C62 40.6569 63.3431 42 65 42H79C80.6569 42 82 40.6569 82 39V25C82 23.3431 80.6569 22 79 22H65ZM70.6984 28.2986C71.4474 27.6566 72.5526 27.6566 73.3016 28.2986L79.6508 33.7407C80.0701 34.1002 80.1187 34.7315 79.7593 35.1508C79.3998 35.5701 78.7685 35.6187 78.3492 35.2593L72 29.8171L65.6508 35.2593C65.2315 35.6187 64.6002 35.5701 64.2407 35.1508C63.8813 34.7315 63.9299 34.1002 64.3492 33.7407L70.6984 28.2986Z" fill="black"/>
</svg>
