<svg width="104" height="64" viewBox="0 0 104 64" fill="none" xmlns="http://www.w3.org/2000/svg">
<path d="M22.8146 28.7282L30.6293 36.0832C31.3994 36.808 32.6006 36.808 33.3707 36.0832L41.1854 28.7282C41.5875 28.3497 41.6067 27.7168 41.2282 27.3146C40.8497 26.9125 40.2168 26.8933 39.8146 27.2718L32 34.6268L24.1854 27.2718C23.7832 26.8933 23.1503 26.9125 22.7718 27.3146C22.3933 27.7168 22.4125 28.3497 22.8146 28.7282Z" fill="black"/>
<path fill-rule="evenodd" clip-rule="evenodd" d="M65 22C63.3431 22 62 23.3431 62 25V39C62 40.6569 63.3431 42 65 42H79C80.6569 42 82 40.6569 82 39V25C82 23.3431 80.6569 22 79 22H65ZM70.6984 35.7014C71.4474 36.3434 72.5526 36.3434 73.3016 35.7014L79.6508 30.2593C80.0701 29.8998 80.1187 29.2685 79.7593 28.8492C79.3998 28.4299 78.7685 28.3813 78.3492 28.7407L72 34.1829L65.6508 28.7407C65.2315 28.3813 64.6002 28.4299 64.2407 28.8492C63.8813 29.2685 63.9299 29.8998 64.3492 30.2593L70.6984 35.7014Z" fill="black"/>
</svg>
