<svg width="104" height="64" viewBox="0 0 104 64" fill="none" xmlns="http://www.w3.org/2000/svg">
<path d="M32.7071 23.2929C32.5196 23.1054 32.2652 23 32 23C31.7348 23 31.4804 23.1054 31.2929 23.2929L25.2929 29.2929C24.9024 29.6834 24.9024 30.3166 25.2929 30.7071C25.6834 31.0976 26.3166 31.0976 26.7071 30.7071L32 25.4142L37.2929 30.7071C37.6834 31.0976 38.3166 31.0976 38.7071 30.7071C39.0976 30.3166 39.0976 29.6834 38.7071 29.2929L32.7071 23.2929Z" fill="black"/>
<path d="M32.7071 41.7071C32.5196 41.8946 32.2652 42 32 42C31.7348 42 31.4804 41.8946 31.2929 41.7071L25.2929 35.7071C24.9024 35.3166 24.9024 34.6834 25.2929 34.2929C25.6834 33.9024 26.3166 33.9024 26.7071 34.2929L32 39.5858L37.2929 34.2929C37.6834 33.9024 38.3166 33.9024 38.7071 34.2929C39.0976 34.6834 39.0976 35.3166 38.7071 35.7071L32.7071 41.7071Z" fill="black"/>
<path fill-rule="evenodd" clip-rule="evenodd" d="M62 25C62 23.3431 63.3431 22 65 22H79C80.6569 22 82 23.3431 82 25V39C82 40.6569 80.6569 42 79 42H65C63.3431 42 62 40.6569 62 39V25ZM72 23.5C72.2652 23.5 72.5196 23.6054 72.7071 23.7929L77.7071 28.7929C78.0976 29.1834 78.0976 29.8166 77.7071 30.2071C77.3166 30.5976 76.6834 30.5976 76.2929 30.2071L72 25.9142L67.7071 30.2071C67.3166 30.5976 66.6834 30.5976 66.2929 30.2071C65.9024 29.8166 65.9024 29.1834 66.2929 28.7929L71.2929 23.7929C71.4804 23.6054 71.7348 23.5 72 23.5ZM72.7071 40.2071C72.5196 40.3946 72.2652 40.5 72 40.5C71.7348 40.5 71.4804 40.3946 71.2929 40.2071L66.2929 35.2071C65.9024 34.8166 65.9024 34.1834 66.2929 33.7929C66.6834 33.4024 67.3166 33.4024 67.7071 33.7929L72 38.0858L76.2929 33.7929C76.6834 33.4024 77.3166 33.4024 77.7071 33.7929C78.0976 34.1834 78.0976 34.8166 77.7071 35.2071L72.7071 40.2071Z" fill="black"/>
</svg>
