<svg width="104" height="64" viewBox="0 0 104 64" fill="none" xmlns="http://www.w3.org/2000/svg">
<path fill-rule="evenodd" clip-rule="evenodd" d="M30 21C28.6938 21 27.5825 21.8348 27.1707 23H27C24.7909 23 23 24.7909 23 27V38C23 40.2091 24.7909 42 27 42H37C39.2091 42 41 40.2091 41 38V27C41 24.7909 39.2091 23 37 23H36.8293C36.4175 21.8348 35.3062 21 34 21H30ZM29 24C29 23.4477 29.4477 23 30 23H34C34.5523 23 35 23.4477 35 24C35 24.5523 34.5523 25 34 25H30C29.4477 25 29 24.5523 29 24ZM25 27C25 25.8954 25.8954 25 27 25H27.1707C27.5825 26.1652 28.6938 27 30 27H34C35.3062 27 36.4175 26.1652 36.8293 25H37C38.1046 25 39 25.8954 39 27V38C39 39.1046 38.1046 40 37 40H27C25.8954 40 25 39.1046 25 38V27Z" fill="black"/>
<path fill-rule="evenodd" clip-rule="evenodd" d="M70 22C68.3431 22 67 23.3431 67 25C65.3431 25 64 26.3431 64 28V39C64 40.6569 65.3431 42 67 42H77C78.6569 42 80 40.6569 80 39V28C80 26.3431 78.6569 25 77 25C77 23.3431 75.6569 22 74 22H70ZM69 25C69 24.4477 69.4477 24 70 24H74C74.5523 24 75 24.4477 75 25C75 25.5523 74.5523 26 74 26H70C69.4477 26 69 25.5523 69 25Z" fill="black"/>
</svg>
