<svg width="104" height="64" viewBox="0 0 104 64" fill="none" xmlns="http://www.w3.org/2000/svg">
<path d="M32 28.5C32 27.9477 31.5523 27.5 31 27.5C30.4477 27.5 30 27.9477 30 28.5V33.5C30 34.0523 30.4477 34.5 31 34.5H34C34.5523 34.5 35 34.0523 35 33.5C35 32.9477 34.5523 32.5 34 32.5H32V28.5Z" fill="black"/>
<path fill-rule="evenodd" clip-rule="evenodd" d="M32 22C26.4772 22 22 26.4772 22 32C22 37.5228 26.4772 42 32 42C37.5228 42 42 37.5228 42 32C42 26.4772 37.5228 22 32 22ZM24 32C24 27.5817 27.5817 24 32 24C36.4183 24 40 27.5817 40 32C40 36.4183 36.4183 40 32 40C27.5817 40 24 36.4183 24 32Z" fill="black"/>
<path fill-rule="evenodd" clip-rule="evenodd" d="M72 41C76.9706 41 81 36.9706 81 32C81 27.0294 76.9706 23 72 23C67.0294 23 63 27.0294 63 32C63 36.9706 67.0294 41 72 41ZM72 28.5C72 27.9477 71.5523 27.5 71 27.5C70.4477 27.5 70 27.9477 70 28.5V33.5C70 34.0523 70.4477 34.5 71 34.5H74C74.5523 34.5 75 34.0523 75 33.5C75 32.9477 74.5523 32.5 74 32.5H72V28.5Z" fill="black"/>
</svg>
