<svg width="104" height="64" viewBox="0 0 104 64" fill="none" xmlns="http://www.w3.org/2000/svg">
<path d="M26 29.5C26 26.4624 28.4624 24 31.5 24C34.1907 24 36.432 25.9332 36.907 28.4867C36.9736 28.8448 37.2297 29.1383 37.5754 29.2529C39.5661 29.9132 41 31.7905 41 34C41 36.7614 38.7614 39 36 39C35.4477 39 35 39.4477 35 40C35 40.5523 35.4477 41 36 41C39.866 41 43 37.866 43 34C43 31.1075 41.2462 28.627 38.7463 27.5596C37.8909 24.358 34.9717 22 31.5 22C27.3579 22 24 25.3579 24 29.5C24 29.6003 24.002 29.7001 24.0059 29.7996C22.2105 30.8354 21 32.7754 21 35C21 38.3137 23.6863 41 27 41C27.5523 41 28 40.5523 28 40C28 39.4477 27.5523 39 27 39C24.7909 39 23 37.2091 23 35C23 33.3427 24.0082 31.9185 25.4487 31.3117C25.8655 31.1361 26.1126 30.7026 26.0512 30.2544C26.0175 30.0083 26 29.7564 26 29.5Z" fill="black"/>
<path d="M34.1644 41.4141L32.6644 42.7474C32.2855 43.0842 31.7145 43.0842 31.3356 42.7474L29.8356 41.4141C29.4229 41.0472 29.3857 40.4151 29.7526 40.0023C30.0736 39.6412 30.5975 39.5675 31 39.8004V35C31 34.4477 31.4477 34 32 34C32.5523 34 33 34.4477 33 35V39.8004C33.4025 39.5675 33.9264 39.6412 34.2474 40.0023C34.6143 40.4151 34.5771 41.0472 34.1644 41.4141Z" fill="black"/>
<path d="M62 35C62 37.7614 64.2386 40 67 40H67.5744C67.6828 39.5227 67.9096 39.0652 68.2578 38.6736C68.4774 38.4265 68.7286 38.2243 69 38.0677V35C69 33.3431 70.3431 32 72 32C73.6569 32 75 33.3431 75 35V38.0677C75.2714 38.2243 75.5226 38.4265 75.7422 38.6736C76.0868 39.0612 76.3126 39.5134 76.4222 39.9854C79.5389 39.7687 82 37.1718 82 34C82 31.3467 80.2777 29.0957 77.8902 28.3038C77.3287 25.2853 74.6812 23 71.5 23C67.9101 23 65 25.9101 65 29.5C65 29.802 65.0206 30.0991 65.0604 30.3901C63.2623 31.1476 62 32.9264 62 35Z" fill="black"/>
<path d="M74.1644 41.4141L72.6644 42.7474C72.2855 43.0842 71.7145 43.0842 71.3356 42.7474L69.8356 41.4141C69.4229 41.0472 69.3857 40.4151 69.7526 40.0023C70.0736 39.6412 70.5975 39.5675 71 39.8004V35C71 34.4477 71.4477 34 72 34C72.5523 34 73 34.4477 73 35V39.8004C73.4025 39.5675 73.9264 39.6412 74.2474 40.0023C74.6143 40.4151 74.5771 41.0472 74.1644 41.4141Z" fill="black"/>
</svg>
