<svg width="104" height="64" viewBox="0 0 104 64" fill="none" xmlns="http://www.w3.org/2000/svg">
<path d="M26 29.5C26 26.4624 28.4624 24 31.5 24C34.1907 24 36.432 25.9332 36.907 28.4867C36.9736 28.8448 37.2297 29.1383 37.5754 29.2529C39.5661 29.9132 41 31.7905 41 34C41 36.7614 38.7614 39 36 39C35.4477 39 35 39.4477 35 40C35 40.5523 35.4477 41 36 41C39.866 41 43 37.866 43 34C43 31.1075 41.2462 28.627 38.7463 27.5596C37.8909 24.358 34.9717 22 31.5 22C27.3579 22 24 25.3579 24 29.5C24 29.6003 24.002 29.7001 24.0059 29.7996C22.2105 30.8354 21 32.7754 21 35C21 38.3137 23.6863 41 27 41C27.5523 41 28 40.5523 28 40C28 39.4477 27.5523 39 27 39C24.7909 39 23 37.2091 23 35C23 33.3427 24.0082 31.9185 25.4487 31.3117C25.8655 31.1361 26.1126 30.7026 26.0512 30.2544C26.0175 30.0083 26 29.7564 26 29.5Z" fill="black"/>
<path d="M33.0745 35.5376C33.3714 35.0719 33.2346 34.4537 32.7689 34.1568C32.3032 33.8599 31.685 33.9967 31.3881 34.4624L29.1568 37.9624C28.9605 38.2703 28.9476 38.6607 29.1232 38.9808C29.2988 39.301 29.6349 39.5 30 39.5H31.3259L30.2352 41.526C29.9734 42.0122 30.1553 42.6187 30.6416 42.8805C31.1279 43.1423 31.7344 42.9603 31.9962 42.474L33.8805 38.974C34.0473 38.6641 34.039 38.2893 33.8585 37.9872C33.678 37.685 33.352 37.5 33 37.5H31.8235L33.0745 35.5376Z" fill="black"/>
<path d="M62 35C62 37.7614 64.2386 40 67 40H67.4019C67.391 39.981 67.3802 39.9618 67.3696 39.9425C66.8429 38.9821 66.8815 37.8109 67.4703 36.8873L69.7017 33.3873C70.5923 31.9902 72.4469 31.5797 73.844 32.4703C75.1181 33.2826 75.5717 34.8966 74.9662 36.2341C75.2033 36.4398 75.4098 36.6842 75.5755 36.9616C76.117 37.868 76.142 38.9924 75.6415 39.9221L75.5996 40H76C79.3137 40 82 37.3137 82 34C82 31.3467 80.2777 29.0957 77.8902 28.3038C77.3287 25.2853 74.6812 23 71.5 23C67.9101 23 65 25.9101 65 29.5C65 29.802 65.0206 30.0991 65.0604 30.3901C63.2623 31.1476 62 32.9264 62 35Z" fill="black"/>
<path d="M73.0745 35.5376C73.3714 35.0719 73.2346 34.4537 72.7689 34.1568C72.3032 33.8599 71.685 33.9967 71.3881 34.4624L69.1568 37.9624C68.9605 38.2703 68.9476 38.6607 69.1232 38.9808C69.2988 39.301 69.6349 39.5 70 39.5H71.3259L70.2352 41.526C69.9734 42.0122 70.1553 42.6187 70.6416 42.8805C71.1279 43.1423 71.7344 42.9603 71.9962 42.474L73.8805 38.974C74.0473 38.6641 74.039 38.2893 73.8585 37.9872C73.678 37.685 73.352 37.5 73 37.5H71.8235L73.0745 35.5376Z" fill="black"/>
</svg>
