<svg width="104" height="64" viewBox="0 0 104 64" fill="none" xmlns="http://www.w3.org/2000/svg">
<path d="M26 29.5C26 26.4624 28.4624 24 31.5 24C34.1907 24 36.432 25.9332 36.907 28.4867C36.9736 28.8448 37.2297 29.1383 37.5754 29.2529C39.5661 29.9132 41 31.7905 41 34C41 36.7614 38.7614 39 36 39C35.4477 39 35 39.4477 35 40C35 40.5523 35.4477 41 36 41C39.866 41 43 37.866 43 34C43 31.1075 41.2462 28.627 38.7463 27.5596C37.8909 24.358 34.9717 22 31.5 22C27.3579 22 24 25.3579 24 29.5C24 29.6003 24.002 29.7001 24.0059 29.7996C22.2105 30.8354 21 32.7754 21 35C21 38.3137 23.6863 41 27 41C27.5523 41 28 40.5523 28 40C28 39.4477 27.5523 39 27 39C24.7909 39 23 37.2091 23 35C23 33.3427 24.0082 31.9185 25.4487 31.3117C25.8655 31.1361 26.1126 30.7026 26.0512 30.2544C26.0175 30.0083 26 29.7564 26 29.5Z" fill="black"/>
<path d="M31.3356 34.2526C31.7145 33.9158 32.2855 33.9158 32.6644 34.2526L34.1644 35.5859C34.5771 35.9528 34.6143 36.5849 34.2474 36.9977C33.9264 37.3588 33.4025 37.4325 33 37.1996V42C33 42.5523 32.5523 43 32 43C31.4477 43 31 42.5523 31 42V37.1996C30.5975 37.4325 30.0736 37.3588 29.7526 36.9977C29.3857 36.5849 29.4229 35.9528 29.8356 35.5859L31.3356 34.2526Z" fill="black"/>
<path d="M62 35C62 37.7614 64.2386 40 67 40H69V38.9323C68.7286 38.7757 68.4774 38.5735 68.2578 38.3264C67.157 37.0881 67.2686 35.1919 68.5069 34.0911L70.0069 32.7578C71.1436 31.7474 72.8564 31.7474 73.9931 32.7578L75.4931 34.0911C76.7314 35.1919 76.843 37.0881 75.7422 38.3264C75.5226 38.5735 75.2714 38.7757 75 38.9323V40H76C79.3137 40 82 37.3137 82 34C82 31.3467 80.2777 29.0957 77.8902 28.3038C77.3287 25.2853 74.6812 23 71.5 23C67.9101 23 65 25.9101 65 29.5C65 29.802 65.0206 30.0991 65.0604 30.3901C63.2623 31.1476 62 32.9264 62 35Z" fill="black"/>
<path d="M72.6644 34.2526C72.2855 33.9158 71.7145 33.9158 71.3356 34.2526L69.8356 35.5859C69.4229 35.9528 69.3857 36.5849 69.7526 36.9977C70.0736 37.3588 70.5975 37.4325 71 37.1996V42C71 42.5523 71.4477 43 72 43C72.5523 43 73 42.5523 73 42V37.1996C73.4025 37.4325 73.9264 37.3588 74.2474 36.9977C74.6143 36.5849 74.5771 35.9528 74.1644 35.5859L72.6644 34.2526Z" fill="black"/>
</svg>
