<svg width="104" height="64" viewBox="0 0 104 64" fill="none" xmlns="http://www.w3.org/2000/svg">
<path d="M41 21C41.5523 21 42 21.4477 42 22V25C42 25.5523 41.5523 26 41 26C40.4477 26 40 25.5523 40 25V22C40 21.4477 40.4477 21 41 21Z" fill="black"/>
<path fill-rule="evenodd" clip-rule="evenodd" d="M31.5 22C27.3579 22 24 25.3579 24 29.5C24 29.6003 24.002 29.7001 24.0059 29.7996C22.2105 30.8354 21 32.7754 21 35C21 38.3137 23.6863 41 27 41H36C39.866 41 43 37.866 43 34C43 31.1075 41.2462 28.627 38.7463 27.5596C37.8909 24.358 34.9717 22 31.5 22ZM26 29.5C26 26.4624 28.4624 24 31.5 24C34.1907 24 36.432 25.9332 36.907 28.4867C36.9736 28.8448 37.2297 29.1383 37.5754 29.2529C39.5661 29.9132 41 31.7905 41 34C41 36.7614 38.7614 39 36 39H27C24.7909 39 23 37.2091 23 35C23 33.3427 24.0082 31.9185 25.4487 31.3117C25.8655 31.1361 26.1126 30.7026 26.0512 30.2544C26.0175 30.0083 26 29.7564 26 29.5Z" fill="black"/>
<path d="M40 27.25C40 27.8023 40.4477 28.25 41 28.25C41.5523 28.25 42 27.8023 42 27.25C42 26.6977 41.5523 26.25 41 26.25C40.4477 26.25 40 26.6977 40 27.25Z" fill="black"/>
<path d="M81 21C81.5523 21 82 21.4477 82 22V25C82 25.5523 81.5523 26 81 26C80.4477 26 80 25.5523 80 25V22C80 21.4477 80.4477 21 81 21Z" fill="black"/>
<path d="M62 35C62 37.7614 64.2386 40 67 40H76C79.3137 40 82 37.3137 82 34C82 31.3467 80.2777 29.0957 77.8902 28.3038C77.3287 25.2853 74.6812 23 71.5 23C67.9101 23 65 25.9101 65 29.5C65 29.802 65.0206 30.0991 65.0604 30.3901C63.2623 31.1476 62 32.9264 62 35Z" fill="black"/>
<path d="M80 27.25C80 27.8023 80.4477 28.25 81 28.25C81.5523 28.25 82 27.8023 82 27.25C82 26.6977 81.5523 26.25 81 26.25C80.4477 26.25 80 26.6977 80 27.25Z" fill="black"/>
</svg>
