<svg width="104" height="64" viewBox="0 0 104 64" fill="none" xmlns="http://www.w3.org/2000/svg">
<path d="M29.6 23C27.2374 23 25.4 24.8197 25.4 26.9706C25.4 27.1539 25.4131 27.3337 25.4382 27.5094C25.5036 27.9653 25.2491 28.4069 24.8219 28.5789C23.7286 29.0191 23 30.0336 23 31.1765C23 32.2927 23.7036 33.2947 24.7523 33.7464C24.3537 34.2761 24.0579 34.8877 23.8946 35.5513C22.1992 34.7907 21 33.1383 21 31.1765C21 29.4138 21.9748 27.8947 23.4006 27.0555C23.4002 27.0272 23.4 26.9989 23.4 26.9706C23.4 23.6311 26.2188 21 29.6 21C32.3404 21 34.7028 22.7218 35.5074 25.1527C34.8042 24.8923 34.0437 24.75 33.25 24.75C33.1941 24.75 33.1383 24.7507 33.0828 24.7521C32.3343 23.7043 31.0658 23 29.6 23Z" fill="black"/>
<path fill-rule="evenodd" clip-rule="evenodd" d="M33.6 26C30.2188 26 27.4 28.6311 27.4 31.9706C27.4 31.9989 27.4002 32.0272 27.4006 32.0555C25.9748 32.8947 25 34.4138 25 36.1765C25 38.8825 27.2816 41 30 41H37.2C40.3603 41 43 38.5401 43 35.4118C43 33.1112 41.5655 31.1662 39.5551 30.3038C38.7999 27.7935 36.3968 26 33.6 26ZM29.4 31.9706C29.4 29.8197 31.2374 28 33.6 28C35.6888 28 37.377 29.4302 37.7305 31.2469C37.8005 31.6061 38.061 31.8985 38.4099 32.0091C39.9411 32.4945 41 33.8558 41 35.4118C41 37.3514 39.3417 39 37.2 39H30C28.3001 39 27 37.6938 27 36.1765C27 35.0336 27.7286 34.0191 28.8219 33.5789C29.2491 33.4069 29.5036 32.9653 29.4382 32.5094C29.4131 32.3337 29.4 32.1539 29.4 31.9706Z" fill="black"/>
<path d="M62 31.1765C62 32.6812 62.9093 33.9829 64.2313 34.6069C64.7571 33.5003 65.6774 32.6174 66.8104 32.1401C66.7706 31.8491 66.75 31.552 66.75 31.25C66.75 27.6601 69.6601 24.75 73.25 24.75C73.6062 24.75 73.9557 24.7787 74.2963 24.8338C73.4603 23.158 71.6716 22 69.6 22C66.7281 22 64.4 24.2254 64.4 26.9706C64.4 27.2015 64.4165 27.4287 64.4484 27.6513C63.0099 28.2305 62 29.5908 62 31.1765Z" fill="black"/>
<path d="M70 40C67.7909 40 66 38.2881 66 36.1765C66 34.5908 67.0099 33.2305 68.4484 32.6513C68.4165 32.4287 68.4 32.2015 68.4 31.9706C68.4 29.2254 70.7281 27 73.6 27C76.145 27 78.2629 28.7476 78.7121 31.0558C80.6222 31.6614 82 33.3828 82 35.4118C82 37.9458 79.851 40 77.2 40H70Z" fill="black"/>
</svg>
