<svg width="104" height="64" viewBox="0 0 104 64" fill="none" xmlns="http://www.w3.org/2000/svg">
<path d="M26 29.5C26 26.4624 28.4624 24 31.5 24C34.1907 24 36.432 25.9332 36.907 28.4867C36.9736 28.8448 37.2297 29.1383 37.5754 29.2529C39.5661 29.9132 41 31.7905 41 34C41 36.4765 39.1985 38.5342 36.8345 38.9308C36.2899 39.0222 35.9224 39.5378 36.0138 40.0825C36.1052 40.6272 36.6208 40.9946 37.1655 40.9033C40.4769 40.3477 43 37.4695 43 34C43 31.1075 41.2462 28.627 38.7463 27.5596C37.8909 24.358 34.9717 22 31.5 22C27.3579 22 24 25.3579 24 29.5C24 29.6003 24.002 29.7001 24.0059 29.7996C22.2105 30.8354 21 32.7754 21 35C21 37.9039 23.062 40.324 25.8011 40.88C26.3423 40.9899 26.8701 40.6402 26.98 40.0989C27.0899 39.5577 26.7402 39.0298 26.1989 38.92C24.3736 38.5494 23 36.934 23 35C23 33.3427 24.0082 31.9185 25.4487 31.3117C25.8655 31.1361 26.1126 30.7026 26.0512 30.2544C26.0175 30.0083 26 29.7564 26 29.5Z" fill="black"/>
<path d="M27.4939 38.1923C27.8948 38.326 28.2094 38.6405 28.343 39.0415C28.479 39.4495 29.0561 39.4495 29.1921 39.0415C29.3258 38.6405 29.6404 38.326 30.0413 38.1923C30.4493 38.0563 30.4493 37.4792 30.0413 37.3432C29.6404 37.2096 29.3258 36.895 29.1921 36.4941C29.0561 36.0861 28.479 36.0861 28.343 36.4941C28.2094 36.895 27.8948 37.2096 27.4939 37.3432C27.0859 37.4792 27.0859 38.0563 27.4939 38.1923Z" fill="black"/>
<path d="M31.343 42.0415C31.2094 41.6405 30.8948 41.326 30.4939 41.1923C30.0859 41.0563 30.0859 40.4792 30.4939 40.3432C30.8948 40.2096 31.2094 39.895 31.343 39.4941C31.479 39.0861 32.0561 39.0861 32.1921 39.4941C32.3258 39.895 32.6404 40.2096 33.0413 40.3432C33.4493 40.4792 33.4493 41.0563 33.0413 41.1923C32.6404 41.326 32.3258 41.6405 32.1921 42.0415C32.0561 42.4495 31.479 42.4495 31.343 42.0415Z" fill="black"/>
<path d="M33.4939 38.1923C33.8948 38.326 34.2094 38.6405 34.343 39.0415C34.479 39.4495 35.0561 39.4495 35.1921 39.0415C35.3258 38.6405 35.6404 38.326 36.0413 38.1923C36.4493 38.0563 36.4493 37.4792 36.0413 37.3432C35.6404 37.2096 35.3258 36.895 35.1921 36.4941C35.0561 36.0861 34.479 36.0861 34.343 36.4941C34.2094 36.895 33.8948 37.2096 33.4939 37.3432C33.0859 37.4792 33.0859 38.0563 33.4939 38.1923Z" fill="black"/>
<path d="M62 35C62 37.7614 64.2386 40 67 40H67.545C67.1987 39.4169 66.6515 38.97 65.9954 38.7513C65.129 38.4625 65.129 37.237 65.9954 36.9482C66.8467 36.6644 67.5147 35.9964 67.7985 35.1451C68.0873 34.2788 69.3127 34.2788 69.6015 35.1451C69.8853 35.9964 70.5533 36.6644 71.4046 36.9482C71.4755 36.9719 71.5407 37.0018 71.6 37.037C71.6593 37.0018 71.7245 36.9719 71.7954 36.9482C72.6467 36.6644 73.3147 35.9964 73.5985 35.1451C73.8873 34.2788 75.1127 34.2788 75.4015 35.1451C75.6853 35.9964 76.3533 36.6644 77.2046 36.9482C78.071 37.237 78.071 38.4625 77.2046 38.7513C76.5485 38.97 76.0013 39.4169 75.655 40H76C79.3137 40 82 37.3137 82 34C82 31.3467 80.2777 29.0957 77.8902 28.3038C77.3287 25.2853 74.6812 23 71.5 23C67.9101 23 65 25.9101 65 29.5C65 29.802 65.0206 30.0991 65.0604 30.3901C63.2623 31.1476 62 32.9264 62 35Z" fill="black"/>
<path d="M67.4938 38.1923C67.8947 38.326 68.2093 38.6405 68.343 39.0415C68.479 39.4495 69.0561 39.4495 69.1921 39.0415C69.3257 38.6405 69.6403 38.326 70.0412 38.1923C70.4492 38.0563 70.4492 37.4792 70.0412 37.3432C69.6403 37.2096 69.3257 36.895 69.1921 36.4941C69.0561 36.0861 68.479 36.0861 68.343 36.4941C68.2093 36.895 67.8947 37.2096 67.4938 37.3432C67.0858 37.4792 67.0858 38.0563 67.4938 38.1923Z" fill="black"/>
<path d="M71.343 42.0415C71.2093 41.6405 70.8947 41.326 70.4938 41.1923C70.0858 41.0563 70.0858 40.4792 70.4938 40.3432C70.8947 40.2096 71.2093 39.895 71.343 39.4941C71.479 39.0861 72.0561 39.0861 72.1921 39.4941C72.3257 39.895 72.6403 40.2096 73.0412 40.3432C73.4492 40.4792 73.4492 41.0563 73.0412 41.1923C72.6403 41.326 72.3257 41.6405 72.1921 42.0415C72.0561 42.4495 71.479 42.4495 71.343 42.0415Z" fill="black"/>
<path d="M73.4938 38.1923C73.8947 38.326 74.2093 38.6405 74.343 39.0415C74.479 39.4495 75.0561 39.4495 75.1921 39.0415C75.3257 38.6405 75.6403 38.326 76.0412 38.1923C76.4492 38.0563 76.4492 37.4792 76.0412 37.3432C75.6403 37.2096 75.3257 36.895 75.1921 36.4941C75.0561 36.0861 74.479 36.0861 74.343 36.4941C74.2093 36.895 73.8947 37.2096 73.4938 37.3432C73.0858 37.4792 73.0858 38.0563 73.4938 38.1923Z" fill="black"/>
</svg>
