<svg width="104" height="64" viewBox="0 0 104 64" fill="none" xmlns="http://www.w3.org/2000/svg">
<path d="M26 29.5C26 26.4624 28.4624 24 31.5 24C34.1907 24 36.432 25.9332 36.907 28.4867C36.9736 28.8448 37.2297 29.1383 37.5754 29.2529C39.5661 29.9132 41 31.7905 41 34C41 36.4765 39.1985 38.5342 36.8345 38.9308C36.2899 39.0222 35.9224 39.5378 36.0138 40.0825C36.1052 40.6272 36.6208 40.9946 37.1655 40.9033C40.4769 40.3477 43 37.4695 43 34C43 31.1075 41.2462 28.627 38.7463 27.5596C37.8909 24.358 34.9717 22 31.5 22C27.3579 22 24 25.3579 24 29.5C24 29.6003 24.002 29.7001 24.0059 29.7996C22.2105 30.8354 21 32.7754 21 35C21 37.9039 23.062 40.324 25.8011 40.88C26.3423 40.9899 26.8701 40.6402 26.98 40.0989C27.0899 39.5577 26.7402 39.0298 26.1989 38.92C24.3736 38.5494 23 36.934 23 35C23 33.3427 24.0082 31.9185 25.4487 31.3117C25.8655 31.1361 26.1126 30.7026 26.0512 30.2544C26.0175 30.0083 26 29.7564 26 29.5Z" fill="black"/>
<path d="M30.4615 37.7747C30.6132 37.2437 30.3058 36.6902 29.7747 36.5385C29.2437 36.3868 28.6902 36.6942 28.5385 37.2253L27.5385 40.7253C27.3868 41.2563 27.6942 41.8098 28.2253 41.9615C28.7563 42.1132 29.3098 41.8058 29.4615 41.2747L30.4615 37.7747Z" fill="black"/>
<path d="M32.2747 36.5385C32.8058 36.6902 33.1132 37.2437 32.9615 37.7747L31.9615 41.2747C31.8098 41.8058 31.2563 42.1132 30.7253 41.9615C30.1942 41.8098 29.8868 41.2563 30.0385 40.7253L31.0385 37.2253C31.1902 36.6942 31.7437 36.3868 32.2747 36.5385Z" fill="black"/>
<path d="M35.4615 37.7747C35.6132 37.2437 35.3058 36.6902 34.7747 36.5385C34.2437 36.3868 33.6902 36.6942 33.5385 37.2253L32.5385 40.7253C32.3868 41.2563 32.6942 41.8098 33.2253 41.9615C33.7563 42.1132 34.3098 41.8058 34.4615 41.2747L35.4615 37.7747Z" fill="black"/>
<path d="M62 35C62 37.3166 63.5755 39.2652 65.7134 39.8329L66.6154 36.6758C67.0706 35.0827 68.7311 34.1603 70.3242 34.6154C70.4722 34.6577 70.6145 34.7105 70.7504 34.7726C71.3782 34.4846 72.108 34.4108 72.8242 34.6154C72.9722 34.6577 73.1145 34.7105 73.2504 34.7726C73.8782 34.4846 74.608 34.4108 75.3242 34.6154C76.9173 35.0706 77.8397 36.7311 77.3846 38.3242L76.9261 39.929C79.8001 39.4837 82 36.9988 82 34C82 31.3467 80.2777 29.0957 77.8902 28.3038C77.3287 25.2853 74.6812 23 71.5 23C67.9101 23 65 25.9101 65 29.5C65 29.802 65.0206 30.0991 65.0604 30.3901C63.2623 31.1476 62 32.9264 62 35Z" fill="black"/>
<path d="M70.4615 37.7747C70.6132 37.2437 70.3058 36.6902 69.7747 36.5385C69.2437 36.3868 68.6902 36.6942 68.5385 37.2253L67.5385 40.7253C67.3868 41.2563 67.6942 41.8098 68.2253 41.9615C68.7563 42.1132 69.3098 41.8058 69.4615 41.2747L70.4615 37.7747Z" fill="black"/>
<path d="M72.2747 36.5385C72.8058 36.6902 73.1132 37.2437 72.9615 37.7747L71.9615 41.2747C71.8098 41.8058 71.2563 42.1132 70.7253 41.9615C70.1942 41.8098 69.8868 41.2563 70.0385 40.7253L71.0385 37.2253C71.1902 36.6942 71.7437 36.3868 72.2747 36.5385Z" fill="black"/>
<path d="M75.4615 37.7747C75.6132 37.2437 75.3058 36.6902 74.7747 36.5385C74.2437 36.3868 73.6902 36.6942 73.5385 37.2253L72.5385 40.7253C72.3868 41.2563 72.6942 41.8098 73.2253 41.9615C73.7563 42.1132 74.3098 41.8058 74.4615 41.2747L75.4615 37.7747Z" fill="black"/>
</svg>
