<svg width="104" height="64" viewBox="0 0 104 64" fill="none" xmlns="http://www.w3.org/2000/svg">
<path d="M22.7071 42.7071L42.7071 22.7071C43.0976 22.3166 43.0976 21.6834 42.7071 21.2929C42.3166 20.9024 41.6834 20.9024 41.2929 21.2929L21.2929 41.2929C20.9024 41.6834 20.9024 42.3166 21.2929 42.7071C21.6834 43.0976 22.3166 43.0976 22.7071 42.7071Z" fill="black"/>
<path d="M37.5754 29.253L39.104 27.7244C41.4119 28.8681 43 31.2476 43 34C43 37.866 39.866 41 36 41H27C26.6329 41 26.2735 40.967 25.9245 40.9039L27.8284 39H36C38.7614 39 41 36.7614 41 34C41 31.7905 39.5662 29.9133 37.5754 29.253Z" fill="black"/>
<path d="M21 35C21 36.4459 21.5114 37.7723 22.3633 38.8083L23.7877 37.3839C23.2928 36.7181 23 35.8933 23 35C23 33.3427 24.0082 31.9185 25.4487 31.3117C25.8655 31.1361 26.1126 30.7026 26.0512 30.2544C26.0175 30.0083 26 29.7564 26 29.5C26 26.4624 28.4624 24 31.5 24C33.062 24 34.4725 24.6515 35.474 25.6976L36.8883 24.2832C35.5251 22.8752 33.6151 22 31.5 22C27.3579 22 24 25.3579 24 29.5C24 29.6003 24.002 29.7001 24.0059 29.7996C22.2105 30.8354 21 32.7754 21 35Z" fill="black"/>
<path d="M82.7071 22.7071C83.0976 22.3166 83.0976 21.6834 82.7071 21.2929C82.3166 20.9024 81.6834 20.9024 81.2929 21.2929L61.2929 41.2929C60.9024 41.6834 60.9024 42.3166 61.2929 42.7071C61.6834 43.0976 62.3166 43.0976 62.7071 42.7071L82.7071 22.7071Z" fill="black"/>
<path d="M71.5 23C72.9781 23 74.341 23.4934 75.4329 24.3244L62.5249 37.2325C62.189 36.5605 62 35.8023 62 35C62 32.9264 63.2623 31.1476 65.0604 30.3901C65.0206 30.0991 65 29.802 65 29.5C65 25.9101 67.9101 23 71.5 23Z" fill="black"/>
<path d="M76 40H68.2426L79.2725 28.9702C80.9146 30.0407 82 31.8936 82 34C82 37.3137 79.3137 40 76 40Z" fill="black"/>
</svg>
