<svg width="104" height="64" viewBox="0 0 104 64" fill="none" xmlns="http://www.w3.org/2000/svg">
<path d="M35.4417 25.3364C35.6275 24.8163 35.3564 24.244 34.8363 24.0583C34.3162 23.8725 33.744 24.1436 33.5583 24.6637L28.5583 38.6637C28.3725 39.1838 28.6436 39.756 29.1637 39.9418C29.6838 40.1275 30.256 39.8565 30.4417 39.3364L35.4417 25.3364Z" fill="black"/>
<path d="M28.8321 27.4453C29.1384 27.9049 29.0142 28.5257 28.5547 28.8321L23.8028 32L28.5547 35.168C29.0142 35.4743 29.1384 36.0952 28.8321 36.5547C28.5257 37.0143 27.9048 37.1384 27.4453 36.8321L21.4453 32.8321C21.1671 32.6466 21 32.3344 21 32C21 31.6657 21.1671 31.3534 21.4453 31.168L27.4453 27.168C27.9048 26.8616 28.5257 26.9858 28.8321 27.4453Z" fill="black"/>
<path d="M35.1679 27.4453C34.8616 27.9049 34.9858 28.5257 35.4453 28.8321L40.1972 32L35.4453 35.168C34.9858 35.4743 34.8616 36.0952 35.1679 36.5547C35.4743 37.0143 36.0952 37.1384 36.5547 36.8321L42.5547 32.8321C42.8329 32.6466 43 32.3344 43 32C43 31.6657 42.8329 31.3534 42.5547 31.168L36.5547 27.168C36.0952 26.8616 35.4743 26.9858 35.1679 27.4453Z" fill="black"/>
<path d="M75.4417 25.3364C75.6275 24.8163 75.3564 24.244 74.8363 24.0583C74.3162 23.8725 73.744 24.1436 73.5583 24.6637L68.5583 38.6637C68.3725 39.1838 68.6436 39.756 69.1637 39.9418C69.6838 40.1275 70.256 39.8565 70.4417 39.3364L75.4417 25.3364Z" fill="black"/>
<path d="M68.8321 27.4453C69.1384 27.9049 69.0142 28.5257 68.5547 28.8321L63.8028 32L68.5547 35.168C69.0142 35.4743 69.1384 36.0952 68.8321 36.5547C68.5257 37.0143 67.9048 37.1384 67.4453 36.8321L61.4453 32.8321C61.1671 32.6466 61 32.3344 61 32C61 31.6657 61.1671 31.3534 61.4453 31.168L67.4453 27.168C67.9048 26.8616 68.5257 26.9858 68.8321 27.4453Z" fill="black"/>
<path d="M75.1679 27.4453C74.8616 27.9049 74.9858 28.5257 75.4453 28.8321L80.1972 32L75.4453 35.168C74.9858 35.4743 74.8616 36.0952 75.1679 36.5547C75.4743 37.0143 76.0952 37.1384 76.5547 36.8321L82.5547 32.8321C82.8329 32.6466 83 32.3344 83 32C83 31.6657 82.8329 31.3534 82.5547 31.168L76.5547 27.168C76.0952 26.8616 75.4743 26.9858 75.1679 27.4453Z" fill="black"/>
</svg>
