<svg width="104" height="64" viewBox="0 0 104 64" fill="none" xmlns="http://www.w3.org/2000/svg">
<path d="M28 22C25.7909 22 24 23.7909 24 26V29.1459C24 29.9034 23.572 30.596 22.8944 30.9348L22.5528 31.1056C22.214 31.275 22 31.6212 22 32C22 32.3788 22.214 32.725 22.5528 32.8944L22.8944 33.0652C23.572 33.404 24 34.0966 24 34.8541V38C24 40.2091 25.7909 42 28 42H29.5C30.0523 42 30.5 41.5523 30.5 41C30.5 40.4477 30.0523 40 29.5 40H28C26.8954 40 26 39.1046 26 38V34.8541C26 33.7636 25.5565 32.7405 24.8027 32C25.5565 31.2595 26 30.2364 26 29.1459V26C26 24.8954 26.8954 24 28 24H29.5C30.0523 24 30.5 23.5523 30.5 23C30.5 22.4477 30.0523 22 29.5 22H28Z" fill="black"/>
<path d="M36 22C38.2091 22 40 23.7909 40 26V29.1459C40 29.9034 40.428 30.596 41.1056 30.9348L41.4472 31.1056C41.786 31.275 42 31.6212 42 32C42 32.3788 41.786 32.725 41.4472 32.8944L41.1056 33.0652C40.428 33.404 40 34.0966 40 34.8541V38C40 40.2091 38.2091 42 36 42H34.5C33.9477 42 33.5 41.5523 33.5 41C33.5 40.4477 33.9477 40 34.5 40H36C37.1046 40 38 39.1046 38 38V34.8541C38 33.7636 38.4435 32.7405 39.1973 32C38.4435 31.2595 38 30.2364 38 29.1459V26C38 24.8954 37.1046 24 36 24H34.5C33.9477 24 33.5 23.5523 33.5 23C33.5 22.4477 33.9477 22 34.5 22H36Z" fill="black"/>
<path d="M68 22C65.7909 22 64 23.7909 64 26V29.1459C64 29.9034 63.572 30.596 62.8944 30.9348L62.5528 31.1056C62.214 31.275 62 31.6212 62 32C62 32.3788 62.214 32.725 62.5528 32.8944L62.8944 33.0652C63.572 33.404 64 34.0966 64 34.8541V38C64 40.2091 65.7909 42 68 42H69.5C70.0523 42 70.5 41.5523 70.5 41C70.5 40.4477 70.0523 40 69.5 40H68C66.8954 40 66 39.1046 66 38V34.8541C66 33.7636 65.5565 32.7405 64.8027 32C65.5565 31.2595 66 30.2364 66 29.1459V26C66 24.8954 66.8954 24 68 24H69.5C70.0523 24 70.5 23.5523 70.5 23C70.5 22.4477 70.0523 22 69.5 22H68Z" fill="black"/>
<path d="M76 22C78.2091 22 80 23.7909 80 26V29.1459C80 29.9034 80.428 30.596 81.1056 30.9348L81.4472 31.1056C81.786 31.275 82 31.6212 82 32C82 32.3788 81.786 32.725 81.4472 32.8944L81.1056 33.0652C80.428 33.404 80 34.0966 80 34.8541V38C80 40.2091 78.2091 42 76 42H74.5C73.9477 42 73.5 41.5523 73.5 41C73.5 40.4477 73.9477 40 74.5 40H76C77.1046 40 78 39.1046 78 38V34.8541C78 33.7636 78.4435 32.7405 79.1973 32C78.4435 31.2595 78 30.2364 78 29.1459V26C78 24.8954 77.1046 24 76 24H74.5C73.9477 24 73.5 23.5523 73.5 23C73.5 22.4477 73.9477 22 74.5 22H76Z" fill="black"/>
</svg>
