<svg width="104" height="64" viewBox="0 0 104 64" fill="none" xmlns="http://www.w3.org/2000/svg">
<path d="M23 30C22.4477 30 22 29.5523 22 29C22 26.5107 22.8388 24.7335 24.0661 23.5829C24.4493 23.2236 24.8629 22.9326 25.2883 22.7029C24.9957 22.4066 24.909 21.9459 25.1056 21.5528C25.3526 21.0588 25.9532 20.8586 26.4472 21.1055L28.4472 22.1055C28.9412 22.3525 29.1414 22.9532 28.8944 23.4472L27.8944 25.4472C27.6474 25.9412 27.0468 26.1414 26.5528 25.8944C26.0588 25.6474 25.8586 25.0467 26.1056 24.5528L26.1159 24.5321C25.8795 24.6711 25.6494 24.8401 25.4339 25.042C24.6612 25.7665 24 26.9893 24 29C24 29.5523 23.5523 30 23 30Z" fill="black"/>
<path d="M25.7905 36.5077C26.4319 36.7215 26.9353 37.2249 27.1491 37.8663C27.3667 38.5191 28.2901 38.5191 28.5077 37.8663C28.7215 37.2249 29.2248 36.7215 29.8663 36.5077C30.5191 36.2901 30.5191 35.3667 29.8663 35.1491C29.2248 34.9353 28.7215 34.432 28.5077 33.7905C28.2901 33.1377 27.3667 33.1377 27.1491 33.7905C26.9353 34.432 26.4319 34.9353 25.7905 35.1491C25.1377 35.3667 25.1377 36.2901 25.7905 36.5077Z" fill="black"/>
<path fill-rule="evenodd" clip-rule="evenodd" d="M28.5 28.5C28.5 28.8478 28.5254 29.1901 28.5747 29.525C28.3853 29.5084 28.1936 29.5 28 29.5C24.4101 29.5 21.5 32.4101 21.5 36C21.5 39.5898 24.4101 42.5 28 42.5C31.5899 42.5 34.5 39.5898 34.5 36C34.5 35.8063 34.4915 35.6147 34.4749 35.4253C34.8098 35.4745 35.1521 35.5 35.5 35.5C39.366 35.5 42.5 32.366 42.5 28.5C42.5 24.634 39.366 21.5 35.5 21.5C31.634 21.5 28.5 24.634 28.5 28.5ZM35.5 23.5C32.7386 23.5 30.5 25.7386 30.5 28.5C30.5 29.0673 30.5941 29.6107 30.7668 30.1166C32.1335 30.7604 33.2396 31.8664 33.8834 33.2332C34.3893 33.4059 34.9326 33.5 35.5 33.5C38.2614 33.5 40.5 31.2614 40.5 28.5C40.5 25.7386 38.2614 23.5 35.5 23.5ZM28 31.5C25.5147 31.5 23.5 33.5147 23.5 36C23.5 38.4853 25.5147 40.5 28 40.5C30.4853 40.5 32.5 38.4853 32.5 36C32.5 33.5147 30.4853 31.5 28 31.5Z" fill="black"/>
<path d="M42 35C42 34.4477 41.5523 34 41 34C40.4477 34 40 34.4477 40 35C40 37.0107 39.3388 38.2335 38.5661 38.9579C38.3506 39.1599 38.1205 39.3288 37.8841 39.4678L37.8944 39.4472C38.1414 38.9532 37.9412 38.3525 37.4472 38.1055C36.9532 37.8586 36.3526 38.0588 36.1056 38.5528L35.1056 40.5528C34.8586 41.0467 35.0588 41.6474 35.5528 41.8944L37.5528 42.8944C38.0468 43.1414 38.6474 42.9412 38.8944 42.4472C39.091 42.054 39.0043 41.5933 38.7117 41.2971C39.1371 41.0673 39.5507 40.7763 39.9339 40.417C41.1612 39.2665 42 37.4893 42 35Z" fill="black"/>
<path d="M62 29C62 29.5523 62.4477 30 63 30C63.5523 30 64 29.5523 64 29C64 26.9893 64.6612 25.7665 65.4339 25.042C65.6494 24.8401 65.8795 24.6711 66.1159 24.5321L66.1056 24.5528C65.8586 25.0467 66.0588 25.6474 66.5528 25.8944C67.0468 26.1414 67.6474 25.9412 67.8944 25.4472L68.8944 23.4472C69.1414 22.9532 68.9412 22.3525 68.4472 22.1055L66.4472 21.1055C65.9532 20.8586 65.3526 21.0588 65.1056 21.5528C64.909 21.9459 64.9957 22.4066 65.2883 22.7029C64.8629 22.9326 64.4493 23.2236 64.0661 23.5829C62.8388 24.7335 62 26.5107 62 29Z" fill="black"/>
<path d="M82 28C82 31.3137 79.3137 34 76 34C75.9151 34 75.8306 33.9982 75.7466 33.9947C75.0221 31.1878 72.8122 28.9779 70.0053 28.2534C70.0018 28.1693 70 28.0849 70 28C70 24.6863 72.6863 22 76 22C79.3137 22 82 24.6863 82 28Z" fill="black"/>
<path fill-rule="evenodd" clip-rule="evenodd" d="M74 36C74 39.3137 71.3137 42 68 42C64.6863 42 62 39.3137 62 36C62 32.6863 64.6863 30 68 30C71.3137 30 74 32.6863 74 36ZM67.3207 38.0379C67.1069 37.3965 66.6035 36.8931 65.9621 36.6793C65.3093 36.4617 65.3093 35.5383 65.9621 35.3207C66.6035 35.1069 67.1069 34.6036 67.3207 33.9621C67.5383 33.3093 68.4617 33.3093 68.6793 33.9621C68.8931 34.6036 69.3965 35.1069 70.0379 35.3207C70.6907 35.5383 70.6907 36.4617 70.0379 36.6793C69.3965 36.8931 68.8931 37.3965 68.6793 38.0379C68.4617 38.6907 67.5383 38.6907 67.3207 38.0379Z" fill="black"/>
<path d="M81 34C81.5523 34 82 34.4477 82 35C82 37.4893 81.1612 39.2665 79.9339 40.417C79.5507 40.7763 79.1371 41.0673 78.7117 41.2971C79.0043 41.5933 79.091 42.054 78.8944 42.4472C78.6474 42.9412 78.0468 43.1414 77.5528 42.8944L75.5528 41.8944C75.0588 41.6474 74.8586 41.0467 75.1056 40.5528L76.1056 38.5528C76.3526 38.0588 76.9532 37.8586 77.4472 38.1055C77.9412 38.3525 78.1414 38.9532 77.8944 39.4472L77.8841 39.4678C78.1205 39.3288 78.3506 39.1599 78.5661 38.9579C79.3388 38.2335 80 37.0107 80 35C80 34.4477 80.4477 34 81 34Z" fill="black"/>
</svg>
