<svg width="104" height="64" viewBox="0 0 104 64" fill="none" xmlns="http://www.w3.org/2000/svg">
<path d="M27.3207 38.038C27.1069 37.3965 26.6035 36.8932 25.9621 36.6794C25.3093 36.4618 25.3093 35.5384 25.9621 35.3208C26.6035 35.1069 27.1069 34.6036 27.3207 33.9622C27.5383 33.3094 28.4617 33.3094 28.6793 33.9622C28.8931 34.6036 29.3965 35.1069 30.0379 35.3208C30.6907 35.5384 30.6907 36.4618 30.0379 36.6794C29.3965 36.8932 28.8931 37.3965 28.6793 38.038C28.4617 38.6908 27.5383 38.6908 27.3207 38.038Z" fill="black"/>
<path fill-rule="evenodd" clip-rule="evenodd" d="M28.5747 29.5251C28.5254 29.1902 28.5 28.8479 28.5 28.5C28.5 24.634 31.634 21.5 35.5 21.5C39.366 21.5 42.5 24.634 42.5 28.5C42.5 32.366 39.366 35.5 35.5 35.5C35.1521 35.5 34.8098 35.4746 34.4749 35.4253C34.4915 35.6147 34.5 35.8064 34.5 36C34.5 39.5899 31.5899 42.5 28 42.5C24.4101 42.5 21.5 39.5899 21.5 36C21.5 32.4101 24.4101 29.5 28 29.5C28.1936 29.5 28.3853 29.5085 28.5747 29.5251ZM30.5 28.5C30.5 25.7386 32.7386 23.5 35.5 23.5C38.2614 23.5 40.5 25.7386 40.5 28.5C40.5 31.2614 38.2614 33.5 35.5 33.5C34.9326 33.5 34.3893 33.4059 33.8834 33.2332C33.2396 31.8665 32.1335 30.7604 30.7668 30.1166C30.5941 29.6107 30.5 29.0674 30.5 28.5ZM28 31.5C25.5147 31.5 23.5 33.5147 23.5 36C23.5 38.4853 25.5147 40.5 28 40.5C30.4853 40.5 32.5 38.4853 32.5 36C32.5 33.5147 30.4853 31.5 28 31.5Z" fill="black"/>
<path d="M82 28C82 31.3137 79.3137 34 76 34C75.9151 34 75.8306 33.9982 75.7466 33.9947C75.0221 31.1878 72.8122 28.9779 70.0053 28.2534C70.0018 28.1694 70 28.0849 70 28C70 24.6863 72.6863 22 76 22C79.3137 22 82 24.6863 82 28Z" fill="black"/>
<path fill-rule="evenodd" clip-rule="evenodd" d="M74 36C74 39.3137 71.3137 42 68 42C64.6863 42 62 39.3137 62 36C62 32.6863 64.6863 30 68 30C71.3137 30 74 32.6863 74 36ZM67.3207 38.038C67.1069 37.3965 66.6035 36.8932 65.9621 36.6794C65.3093 36.4618 65.3093 35.5384 65.9621 35.3208C66.6035 35.1069 67.1069 34.6036 67.3207 33.9622C67.5383 33.3094 68.4617 33.3094 68.6793 33.9622C68.8931 34.6036 69.3965 35.1069 70.0379 35.3208C70.6907 35.5384 70.6907 36.4618 70.0379 36.6794C69.3965 36.8932 68.8931 37.3965 68.6793 38.038C68.4617 38.6908 67.5383 38.6908 67.3207 38.038Z" fill="black"/>
</svg>
