<svg width="104" height="64" viewBox="0 0 104 64" fill="none" xmlns="http://www.w3.org/2000/svg">
<path fill-rule="evenodd" clip-rule="evenodd" d="M34 27.4701V26.5C34 25.073 33.093 23.9241 31.926 23.1815C30.7471 22.4313 29.1796 22 27.5 22C25.8204 22 24.2529 22.4313 23.074 23.1815C21.907 23.9241 21 25.073 21 26.5V37.5C21 38.927 21.907 40.0759 23.074 40.8185C24.2529 41.5687 25.8204 42 27.5 42C29.1796 42 30.7471 41.5687 31.926 40.8185C32.4576 40.4802 32.9352 40.0576 33.2978 39.5628C33.5867 40.1591 34.0609 40.6564 34.6089 41.0294C35.5194 41.649 36.7213 42 38 42C39.2787 42 40.4806 41.649 41.3911 41.0294C42.2963 40.4133 43 39.4583 43 38.2778V29.7222C43 28.5417 42.2963 27.5867 41.3911 26.9706C40.4806 26.351 39.2787 26 38 26C36.7213 26 35.5194 26.351 34.6089 26.9706C34.3921 27.1182 34.1868 27.2852 34 27.4701ZM23 26.5C23 25.994 23.3242 25.3929 24.1478 24.8688C24.9595 24.3522 26.142 24 27.5 24C28.858 24 30.0405 24.3522 30.8522 24.8688C31.6758 25.3929 32 25.994 32 26.5C32 27.006 31.6758 27.6071 30.8522 28.1312C30.0405 28.6478 28.858 29 27.5 29C26.142 29 24.9595 28.6478 24.1478 28.1312C23.3242 27.6071 23 27.006 23 26.5ZM31.926 29.8185C31.9508 29.8028 31.9754 29.7868 32 29.7706V30.5C32 31.006 31.6758 31.6071 30.8522 32.1312C30.0405 32.6478 28.858 33 27.5 33C26.142 33 24.9595 32.6478 24.1478 32.1312C23.3242 31.6071 23 31.006 23 30.5V29.7706C23.0246 29.7868 23.0492 29.8028 23.074 29.8185C24.2529 30.5687 25.8204 31 27.5 31C29.1796 31 30.7471 30.5687 31.926 29.8185ZM31.926 33.8185C31.9508 33.8028 31.9754 33.7868 32 33.7706V34.5C32 35.006 31.6758 35.6071 30.8522 36.1312C30.0405 36.6478 28.858 37 27.5 37C26.142 37 24.9595 36.6478 24.1478 36.1312C23.3242 35.6071 23 35.006 23 34.5V33.7706C23.0246 33.7868 23.0492 33.8028 23.074 33.8185C24.2529 34.5687 25.8204 35 27.5 35C29.1796 35 30.7471 34.5687 31.926 33.8185ZM31.926 37.8185L31.9646 37.7937C31.8608 38.2289 31.5213 38.7054 30.8522 39.1312C30.0405 39.6478 28.858 40 27.5 40C26.142 40 24.9595 39.6478 24.1478 39.1312C23.4787 38.7054 23.1392 38.2289 23.0354 37.7937L23.074 37.8185C24.2529 38.5687 25.8204 39 27.5 39C29.1796 39 30.7471 38.5687 31.926 37.8185ZM35 29.7222C35 29.3993 35.1917 28.9932 35.7342 28.624C36.2714 28.2584 37.0695 28 38 28C38.9305 28 39.7286 28.2584 40.2658 28.624C40.8083 28.9932 41 29.3993 41 29.7222C41 30.0452 40.8083 30.4512 40.2658 30.8204C39.7286 31.186 38.9305 31.4444 38 31.4444C37.0695 31.4444 36.2714 31.186 35.7342 30.8204C35.1917 30.4512 35 30.0452 35 29.7222ZM38 33.4444C39.1031 33.4444 40.149 33.1832 41 32.7137V32.8333C41 33.1563 40.8083 33.5623 40.2658 33.9315C39.7286 34.2972 38.9305 34.5556 38 34.5556C37.0695 34.5556 36.2714 34.2972 35.7342 33.9315C35.1917 33.5623 35 33.1563 35 32.8333V32.7137C35.851 33.1832 36.8969 33.4444 38 33.4444ZM38 36.5556C39.1031 36.5556 40.149 36.2944 41 35.8248V35.9444C41 36.2674 40.8083 36.6735 40.2658 37.0426C39.7286 37.4083 38.9305 37.6667 38 37.6667C37.0695 37.6667 36.2714 37.4083 35.7342 37.0426C35.1917 36.6735 35 36.2674 35 35.9444V35.8248C35.851 36.2944 36.8969 36.5556 38 36.5556ZM38 39.6667C38.911 39.6667 39.7831 39.4885 40.5386 39.1619C40.4597 39.234 40.3691 39.3057 40.2658 39.376C39.7286 39.7416 38.9305 40 38 40C37.0695 40 36.2714 39.7416 35.7342 39.376C35.6309 39.3057 35.5403 39.234 35.4614 39.1619C36.2169 39.4885 37.089 39.6667 38 39.6667Z" fill="black"/>
<path d="M63.6707 23.5148C62.7071 24.128 62.25 24.8829 62.25 25.5983C62.25 26.3137 62.7071 27.0686 63.6707 27.6819C64.6254 28.2894 65.9901 28.6897 67.5365 28.6897C69.0828 28.6897 70.4475 28.2894 71.4022 27.6819C72.3658 27.0686 72.8229 26.3137 72.8229 25.5983C72.8229 24.8829 72.3658 24.128 71.4022 23.5148C70.4475 22.9073 69.0828 22.507 67.5365 22.507C65.9901 22.507 64.6254 22.9073 63.6707 23.5148Z" fill="black"/>
<path d="M72.8229 28.4983C72.6302 28.6597 72.424 28.8096 72.2075 28.9474C70.9775 29.7301 69.324 30.1897 67.5365 30.1897C65.7489 30.1897 64.0954 29.7301 62.8654 28.9474C62.6489 28.8096 62.4427 28.6597 62.25 28.4983V29.9885C62.25 30.7039 62.7071 31.4588 63.6707 32.072C64.6254 32.6796 65.9901 33.0799 67.5365 33.0799C69.0828 33.0799 70.4475 32.6796 71.4022 32.072C72.3658 31.4588 72.8229 30.7039 72.8229 29.9885V28.4983Z" fill="black"/>
<path d="M72.8229 32.8885C72.6302 33.0498 72.424 33.1998 72.2075 33.3375C70.9775 34.1203 69.324 34.5799 67.5365 34.5799C65.7489 34.5799 64.0954 34.1203 62.8654 33.3375C62.6489 33.1998 62.4427 33.0498 62.25 32.8885V34.3786C62.25 35.094 62.7071 35.8489 63.6707 36.4622C64.6254 37.0697 65.9901 37.47 67.5365 37.47C69.0828 37.47 70.4475 37.0697 71.4022 36.4622C72.3658 35.8489 72.8229 35.094 72.8229 34.3786V32.8885Z" fill="black"/>
<path d="M72.8229 37.2786C72.6302 37.44 72.424 37.5899 72.2075 37.7276C70.9775 38.5104 69.324 38.97 67.5365 38.97C65.7489 38.97 64.0954 38.5104 62.8654 37.7276C62.6489 37.5899 62.4427 37.44 62.25 37.2786V37.6713C62.25 38.3867 62.7071 39.1416 63.6707 39.7548C64.6254 40.3623 65.9901 40.7626 67.5365 40.7626C69.0828 40.7626 70.4475 40.3623 71.4022 39.7548C72.3658 39.1416 72.8229 38.3867 72.8229 37.6713V37.2786Z" fill="black"/>
<path d="M75.0487 27.9831C74.3519 28.4265 74.0598 28.9468 74.0598 29.4032C74.0598 29.8595 74.3519 30.3798 75.0487 30.8233C75.7366 31.261 76.7327 31.5563 77.8719 31.5563C79.0111 31.5563 80.0073 31.261 80.6952 30.8233C81.392 30.3798 81.6841 29.8595 81.6841 29.4032C81.6841 28.9468 81.392 28.4265 80.6952 27.9831C80.0073 27.5453 79.0111 27.25 77.8719 27.25C76.7327 27.25 75.7366 27.5453 75.0487 27.9831Z" fill="black"/>
<path d="M81.6841 31.9659C81.6239 32.0082 81.5627 32.0492 81.5005 32.0888C80.5373 32.7017 79.2523 33.0563 77.8719 33.0563C76.4915 33.0563 75.2066 32.7017 74.2434 32.0888C74.1812 32.0492 74.12 32.0082 74.0598 31.9659V32.7211C74.0598 33.1774 74.3519 33.6977 75.0487 34.1412C75.7366 34.5789 76.7327 34.8742 77.8719 34.8742C79.0111 34.8742 80.0073 34.5789 80.6952 34.1412C81.392 33.6977 81.6841 33.1774 81.6841 32.7211V31.9659Z" fill="black"/>
<path d="M81.6841 35.2838C81.6239 35.3261 81.5627 35.3671 81.5005 35.4067C80.5373 36.0196 79.2523 36.3742 77.8719 36.3742C76.4915 36.3742 75.2066 36.0196 74.2434 35.4067C74.1812 35.3671 74.12 35.3261 74.0598 35.2838V36.039C74.0598 36.4953 74.3519 37.0157 75.0487 37.4591C75.7366 37.8968 76.7327 38.1921 77.8719 38.1921C79.0111 38.1921 80.0073 37.8968 80.6952 37.4591C81.392 37.0157 81.6841 36.4953 81.6841 36.039V35.2838Z" fill="black"/>
<path d="M81.6814 38.6036C81.6221 38.6453 81.5618 38.6856 81.5005 38.7246C80.5373 39.3375 79.2523 39.6921 77.8719 39.6921C76.4915 39.6921 75.2066 39.3375 74.2434 38.7246C74.1821 38.6856 74.1218 38.6453 74.0625 38.6036C74.0933 39.041 74.3904 39.5286 75.0487 39.9475C75.7366 40.3853 76.7327 40.6806 77.8719 40.6806C79.0111 40.6806 80.0073 40.3853 80.6952 39.9475C81.3535 39.5286 81.6505 39.041 81.6814 38.6036Z" fill="black"/>
</svg>
