<svg width="104" height="64" viewBox="0 0 104 64" fill="none" xmlns="http://www.w3.org/2000/svg">
<path d="M32.0007 29.1716L36.2433 24.9289C37.0244 24.1479 38.2907 24.1479 39.0717 24.9289C39.8528 25.71 39.8528 26.9763 39.0717 27.7574L34.8291 32M32.0007 29.1716L32.7078 29.8787M32.0007 29.1716L31.2936 28.4645M34.8291 32L35.5362 32.7071M34.8291 32L34.122 31.2929M32.7078 29.8787L24.9296 37.6568C24.5391 38.0474 24.5391 38.6805 24.9296 39.0711C25.3201 39.4616 25.9533 39.4616 26.3438 39.0711L34.122 31.2929M32.7078 29.8787L34.122 31.2929" stroke="black" stroke-width="2" stroke-linecap="round" stroke-linejoin="round"/>
<path d="M76.2433 24.9289C77.0244 24.1479 78.2907 24.1479 79.0717 24.9289C79.8528 25.71 79.8528 26.9763 79.0717 27.7574L75.5362 31.2929C75.1457 31.6834 74.5125 31.6834 74.122 31.2929L72.7078 29.8787C72.3173 29.4881 72.3173 28.855 72.7078 28.4645L76.2433 24.9289Z" fill="black"/>
<path d="M74.122 31.2929L72.7078 29.8787L64.9296 37.6568C64.5391 38.0474 64.5391 38.6805 64.9296 39.0711C65.3201 39.4616 65.9533 39.4616 66.3438 39.0711L74.122 31.2929Z" fill="black"/>
<path d="M74.122 31.2929C74.5125 31.6834 75.1457 31.6834 75.5362 31.2929L79.0717 27.7574C79.8528 26.9763 79.8528 25.71 79.0717 24.9289C78.2907 24.1479 77.0244 24.1479 76.2433 24.9289L72.7078 28.4645C72.3173 28.855 72.3173 29.4881 72.7078 29.8787M74.122 31.2929L72.7078 29.8787M74.122 31.2929L75.5362 32.7071M74.122 31.2929L66.3438 39.0711C65.9533 39.4616 65.3201 39.4616 64.9296 39.0711C64.5391 38.6805 64.5391 38.0474 64.9296 37.6568L72.7078 29.8787M72.7078 29.8787L71.2936 28.4645" stroke="black" stroke-width="2" stroke-linecap="round" stroke-linejoin="round"/>
</svg>
