<svg width="104" height="64" viewBox="0 0 104 64" fill="none" xmlns="http://www.w3.org/2000/svg">
<path fill-rule="evenodd" clip-rule="evenodd" d="M21 39.5C21 40.8807 22.1193 42 23.5 42H28.5C29.8807 42 31 40.8807 31 39.5V24.5C31 23.1193 29.8807 22 28.5 22H23.5C22.1193 22 21 23.1193 21 24.5V39.5ZM23.5 40C23.2239 40 23 39.7761 23 39.5L23 24.5C23 24.2239 23.2239 24 23.5 24L28.5 24C28.7761 24 29 24.2239 29 24.5V39.5C29 39.7761 28.7761 40 28.5 40H23.5Z" fill="black"/>
<path fill-rule="evenodd" clip-rule="evenodd" d="M34.5 22C33.1193 22 32 23.1193 32 24.5V39.5C32 40.8807 33.1193 42 34.5 42H39.5C40.8807 42 42 40.8807 42 39.5V24.5C42 23.1193 40.8807 22 39.5 22H34.5ZM34 24.5C34 24.2239 34.2239 24 34.5 24H39.5C39.7761 24 40 24.2239 40 24.5V39.5C40 39.7761 39.7761 40 39.5 40H34.5C34.2239 40 34 39.7761 34 39.5V24.5Z" fill="black"/>
<path d="M79.5 23H74.5C73.6716 23 73 23.6716 73 24.5V39.5C73 40.3284 73.6716 41 74.5 41H79.5C80.3284 41 81 40.3284 81 39.5V24.5C81 23.6716 80.3284 23 79.5 23Z" fill="black"/>
<path d="M62 24.5L62 39.5C62 40.3284 62.6716 41 63.5 41H68.5C69.3284 41 70 40.3284 70 39.5V24.5C70 23.6716 69.3284 23 68.5 23L63.5 23C62.6716 23 62 23.6716 62 24.5Z" fill="black"/>
</svg>
