<svg width="104" height="64" viewBox="0 0 104 64" fill="none" xmlns="http://www.w3.org/2000/svg">
<path fill-rule="evenodd" clip-rule="evenodd" d="M72 42C77.5228 42 82 37.5228 82 32C82 26.4772 77.5228 22 72 22C66.4772 22 62 26.4772 62 32C62 37.5228 66.4772 42 72 42ZM73.0427 28.4789L69.9264 30.2088C69.6035 30.3881 69.4057 30.7307 69.4119 31.1L69.4719 34.6637C69.4846 35.4186 70.2971 35.8876 70.9571 35.5212L74.0734 33.7913C74.3963 33.612 74.5941 33.2694 74.5879 32.9001L74.528 29.3364C74.5153 28.5815 73.7028 28.1124 73.0427 28.4789Z" fill="black"/>
<path fill-rule="evenodd" clip-rule="evenodd" d="M35.5278 29.3195C35.5024 27.8099 33.8775 26.8717 32.5574 27.6045L29.4411 29.3345C28.7953 29.693 28.3997 30.3783 28.4121 31.1168L28.472 34.6806C28.4974 36.1902 30.1224 37.1284 31.4425 36.3956L34.5588 34.6656C35.2046 34.3071 35.6002 33.6218 35.5878 32.8833L35.5278 29.3195ZM30.4118 31.0831L33.5281 29.3532L33.5881 32.917L30.4718 34.6469L30.4118 31.0831Z" fill="black"/>
<path fill-rule="evenodd" clip-rule="evenodd" d="M32 21C25.9249 21 21 25.9249 21 32C21 38.0751 25.9249 43 32 43C38.0751 43 43 38.0751 43 32C43 25.9249 38.0751 21 32 21ZM23 32C23 27.0294 27.0294 23 32 23C36.9706 23 41 27.0294 41 32C41 36.9706 36.9706 41 32 41C27.0294 41 23 36.9706 23 32Z" fill="black"/>
</svg>
