<svg width="104" height="64" viewBox="0 0 104 64" fill="none" xmlns="http://www.w3.org/2000/svg">
<path fill-rule="evenodd" clip-rule="evenodd" d="M27.559 21C27.2376 21 26.9357 21.1545 26.7478 21.4153C26.5598 21.6761 26.5087 22.0113 26.6103 22.3162L27.3024 24.3925C27.4724 24.9024 27.559 25.4363 27.559 25.9737V29.0887C27.559 29.633 27.4205 30.1684 27.1564 30.6443L22.7735 38.5446C21.6642 40.5442 23.1102 43 25.3969 43H38.6035C40.8901 43 42.3361 40.5442 41.2268 38.5447L37.0868 31.082C36.6657 30.323 36.4495 29.4675 36.4594 28.5996L36.4901 25.8955C36.4956 25.407 36.5728 24.9218 36.719 24.4556L37.3955 22.2993C37.4908 21.9956 37.4358 21.6647 37.2474 21.4081C37.059 21.1515 36.7597 21 36.4414 21H27.559ZM29.1998 23.7601L28.9465 23H35.0796L34.8107 23.857C34.606 24.5096 34.498 25.1888 34.4902 25.8728L34.4595 28.5769C34.4457 29.792 34.7484 30.9897 35.3379 32.0523L39.4779 39.5149C39.8477 40.1814 39.3657 41 38.6035 41H25.3969C24.6347 41 24.1527 40.1814 24.5224 39.5149L28.9053 31.6146C29.1706 31.1364 29.3579 30.6213 29.4621 30.0887H31.0002C31.5525 30.0887 32.0002 29.641 32.0002 29.0887C32.0002 28.5364 31.5525 28.0887 31.0002 28.0887H29.559V27H31.0002C31.5525 27 32.0002 26.5523 32.0002 26C32.0002 25.4477 31.5525 25 31.0002 25H29.491C29.4319 24.5794 29.3346 24.1643 29.1998 23.7601Z" fill="black"/>
<path d="M67.5595 22H76.4419L75.7654 24.1563C75.5899 24.7157 75.4973 25.2979 75.4907 25.8842L75.4599 28.5883C75.4481 29.6297 75.7076 30.6564 76.2129 31.5671L80.3529 39.0298C81.0924 40.3628 80.1284 42 78.604 42H65.3974C63.873 42 62.909 40.3628 63.6485 39.0298L68.0314 31.1294C68.2148 30.7988 68.3521 30.4463 68.4407 30.0817C68.4796 30.0863 68.5193 30.0887 68.5595 30.0887H71.0007C71.553 30.0887 72.0007 29.641 72.0007 29.0887C72.0007 28.5364 71.553 28.0887 71.0007 28.0887H69.5595V27H71.0007C71.553 27 72.0007 26.5523 72.0007 26C72.0007 25.4477 71.553 25 71.0007 25H68.5595C68.5329 25 68.5066 25.001 68.4805 25.0031C68.429 24.6891 68.3526 24.3791 68.2516 24.0763L67.5595 22Z" fill="black"/>
</svg>
