<svg width="104" height="64" viewBox="0 0 104 64" fill="none" xmlns="http://www.w3.org/2000/svg">
<path fill-rule="evenodd" clip-rule="evenodd" d="M34 22C31.7909 22 30 23.7909 30 26V28H26C23.7909 28 22 29.7909 22 32V38C22 40.2091 23.7909 42 26 42H30C32.2091 42 34 40.2091 34 38V36H38C40.2091 36 42 34.2091 42 32V26C42 23.7909 40.2091 22 38 22H34ZM34 34H38C39.1046 34 40 33.1046 40 32V26C40 24.8954 39.1046 24 38 24H34C32.8954 24 32 24.8954 32 26V28.5351C33.1956 29.2267 34 30.5194 34 32V34ZM24 32C24 30.8954 24.8954 30 26 30H30C31.1046 30 32 30.8954 32 32V38C32 39.1046 31.1046 40 30 40H26C24.8954 40 24 39.1046 24 38V32Z" fill="black"/>
<path d="M78 35C79.6569 35 81 33.6569 81 32V26C81 24.3431 79.6569 23 78 23H74C72.3431 23 71 24.3431 71 26V27.7H71.5C73.1569 27.7 74.5 29.0431 74.5 30.7V35H78Z" fill="black"/>
<path d="M66 29C64.3431 29 63 30.3431 63 32V38C63 39.6569 64.3431 41 66 41H70C71.6569 41 73 39.6569 73 38V32C73 30.3431 71.6569 29 70 29H66Z" fill="black"/>
</svg>
