<svg width="104" height="64" viewBox="0 0 104 64" fill="none" xmlns="http://www.w3.org/2000/svg">
<path d="M28.2071 22.7929C27.8166 22.4024 27.1834 22.4024 26.7929 22.7929L22.7929 26.7929C22.4024 27.1834 22.4024 27.8166 22.7929 28.2071C23.1834 28.5976 23.8166 28.5976 24.2071 28.2071L26.5 25.9142V27.5C26.5 35.232 32.768 41.5 40.5 41.5C41.0523 41.5 41.5 41.0523 41.5 40.5C41.5 39.9477 41.0523 39.5 40.5 39.5C33.8726 39.5 28.5 34.1274 28.5 27.5V25.9142L30.7929 28.2071C31.1834 28.5976 31.8166 28.5976 32.2071 28.2071C32.5976 27.8166 32.5976 27.1834 32.2071 26.7929L28.2071 22.7929Z" fill="black"/>
<path fill-rule="evenodd" clip-rule="evenodd" d="M65 22C63.3431 22 62 23.3431 62 25V39C62 40.6569 63.3431 42 65 42H79C80.6569 42 82 40.6569 82 39V25C82 23.3431 80.6569 22 79 22H65ZM69.2071 23.7929C68.8166 23.4024 68.1834 23.4024 67.7929 23.7929L63.7929 27.7929C63.4024 28.1834 63.4024 28.8166 63.7929 29.2071C64.1834 29.5976 64.8166 29.5976 65.2071 29.2071L67.5 26.9142L67.5 28.5C67.5 35.1274 72.8726 40.5 79.5 40.5C80.0523 40.5 80.5 40.0523 80.5 39.5C80.5 38.9477 80.0523 38.5 79.5 38.5C73.9772 38.5 69.5 34.0228 69.5 28.5V26.9142L71.7929 29.2071C72.1834 29.5976 72.8166 29.5976 73.2071 29.2071C73.5976 28.8166 73.5976 28.1834 73.2071 27.7929L69.2071 23.7929Z" fill="black"/>
</svg>
