<svg width="104" height="64" viewBox="0 0 104 64" fill="none" xmlns="http://www.w3.org/2000/svg">
<path d="M28.2071 41.2071C27.8166 41.5976 27.1834 41.5976 26.7929 41.2071L22.7929 37.2071C22.4024 36.8166 22.4024 36.1834 22.7929 35.7929C23.1834 35.4024 23.8166 35.4024 24.2071 35.7929L26.5 38.0858V36.5C26.5 28.768 32.768 22.5 40.5 22.5C41.0523 22.5 41.5 22.9477 41.5 23.5C41.5 24.0523 41.0523 24.5 40.5 24.5C33.8726 24.5 28.5 29.8726 28.5 36.5V38.0858L30.7929 35.7929C31.1834 35.4024 31.8166 35.4024 32.2071 35.7929C32.5976 36.1834 32.5976 36.8166 32.2071 37.2071L28.2071 41.2071Z" fill="black"/>
<path fill-rule="evenodd" clip-rule="evenodd" d="M65 22C63.3431 22 62 23.3431 62 25V39C62 40.6569 63.3431 42 65 42H79C80.6569 42 82 40.6569 82 39V25C82 23.3431 80.6569 22 79 22H65ZM69.2071 40.2071C68.8166 40.5976 68.1834 40.5976 67.7929 40.2071L63.7929 36.2071C63.4024 35.8166 63.4024 35.1834 63.7929 34.7929C64.1834 34.4024 64.8166 34.4024 65.2071 34.7929L67.5 37.0858L67.5 35.5C67.5 28.8726 72.8726 23.5 79.5 23.5C80.0523 23.5 80.5 23.9477 80.5 24.5C80.5 25.0523 80.0523 25.5 79.5 25.5C73.9772 25.5 69.5 29.9772 69.5 35.5V37.0858L71.7929 34.7929C72.1834 34.4024 72.8166 34.4024 73.2071 34.7929C73.5976 35.1834 73.5976 35.8166 73.2071 36.2071L69.2071 40.2071Z" fill="black"/>
</svg>
