<svg width="104" height="64" viewBox="0 0 104 64" fill="none" xmlns="http://www.w3.org/2000/svg">
<path d="M35.7929 22.7929C36.1834 22.4024 36.8166 22.4024 37.2071 22.7929L41.2071 26.7929C41.5976 27.1834 41.5976 27.8166 41.2071 28.2071C40.8166 28.5976 40.1834 28.5976 39.7929 28.2071L37.5 25.9142V27.5C37.5 35.232 31.232 41.5 23.5 41.5C22.9477 41.5 22.5 41.0523 22.5 40.5C22.5 39.9477 22.9477 39.5 23.5 39.5C30.1274 39.5 35.5 34.1274 35.5 27.5V25.9142L33.2071 28.2071C32.8166 28.5976 32.1834 28.5976 31.7929 28.2071C31.4024 27.8166 31.4024 27.1834 31.7929 26.7929L35.7929 22.7929Z" fill="black"/>
<path fill-rule="evenodd" clip-rule="evenodd" d="M65 22C63.3431 22 62 23.3431 62 25V39C62 40.6569 63.3431 42 65 42H79C80.6569 42 82 40.6569 82 39V25C82 23.3431 80.6569 22 79 22H65ZM74.7929 23.7929C75.1834 23.4024 75.8166 23.4024 76.2071 23.7929L80.2071 27.7929C80.5976 28.1834 80.5976 28.8166 80.2071 29.2071C79.8166 29.5976 79.1834 29.5976 78.7929 29.2071L76.5 26.9142V28.5C76.5 35.1274 71.1274 40.5 64.5 40.5C63.9477 40.5 63.5 40.0523 63.5 39.5C63.5 38.9477 63.9477 38.5 64.5 38.5C70.0228 38.5 74.5 34.0228 74.5 28.5V26.9142L72.2071 29.2071C71.8166 29.5976 71.1834 29.5976 70.7929 29.2071C70.4024 28.8166 70.4024 28.1834 70.7929 27.7929L74.7929 23.7929Z" fill="black"/>
</svg>
