<svg width="104" height="64" viewBox="0 0 104 64" fill="none" xmlns="http://www.w3.org/2000/svg">
<path d="M22.7929 28.2071C22.4024 27.8166 22.4024 27.1834 22.7929 26.7929L26.7929 22.7929C27.1834 22.4024 27.8166 22.4024 28.2071 22.7929C28.5976 23.1834 28.5976 23.8166 28.2071 24.2071L25.9142 26.5H27.5C35.232 26.5 41.5 32.768 41.5 40.5C41.5 41.0523 41.0523 41.5 40.5 41.5C39.9477 41.5 39.5 41.0523 39.5 40.5C39.5 33.8726 34.1274 28.5 27.5 28.5H25.9142L28.2071 30.7929C28.5976 31.1834 28.5976 31.8166 28.2071 32.2071C27.8166 32.5976 27.1834 32.5976 26.7929 32.2071L22.7929 28.2071Z" fill="black"/>
<path fill-rule="evenodd" clip-rule="evenodd" d="M65 22C63.3431 22 62 23.3431 62 25V39C62 40.6569 63.3431 42 65 42H79C80.6569 42 82 40.6569 82 39V25C82 23.3431 80.6569 22 79 22H65ZM63.7929 29.2071C63.4024 28.8166 63.4024 28.1834 63.7929 27.7929L67.7929 23.7929C68.1834 23.4024 68.8166 23.4024 69.2071 23.7929C69.5976 24.1834 69.5976 24.8166 69.2071 25.2071L66.9142 27.5H68.5C75.1274 27.5 80.5 32.8726 80.5 39.5C80.5 40.0523 80.0523 40.5 79.5 40.5C78.9477 40.5 78.5 40.0523 78.5 39.5C78.5 33.9772 74.0228 29.5 68.5 29.5H66.9142L69.2071 31.7929C69.5976 32.1834 69.5976 32.8166 69.2071 33.2071C68.8166 33.5976 68.1834 33.5976 67.7929 33.2071L63.7929 29.2071Z" fill="black"/>
</svg>
