<svg width="104" height="64" viewBox="0 0 104 64" fill="none" xmlns="http://www.w3.org/2000/svg">
<path d="M25 24C25 23.4477 24.5523 23 24 23C23.4477 23 23 23.4477 23 24V35C23 38.3137 25.6863 41 29 41H40C40.5523 41 41 40.5523 41 40C41 39.4477 40.5523 39 40 39H29C26.7909 39 25 37.2091 25 35V24Z" fill="black"/>
<path d="M65 24C65 23.4477 64.5523 23 64 23C63.4477 23 63 23.4477 63 24V35C63 38.3137 65.6863 41 69 41H80C80.5523 41 81 40.5523 81 40C81 39.4477 80.5523 39 80 39H69C66.7909 39 65 37.2091 65 35V24Z" fill="black"/>
</svg>
