<svg width="104" height="64" viewBox="0 0 104 64" fill="none" xmlns="http://www.w3.org/2000/svg">
<path d="M41.2071 35.7929C41.5976 36.1834 41.5976 36.8166 41.2071 37.2071L37.2071 41.2071C36.8166 41.5976 36.1834 41.5976 35.7929 41.2071C35.4024 40.8166 35.4024 40.1834 35.7929 39.7929L38.0858 37.5L36.5 37.5C28.768 37.5 22.5 31.232 22.5 23.5C22.5 22.9477 22.9477 22.5 23.5 22.5C24.0523 22.5 24.5 22.9477 24.5 23.5C24.5 30.1274 29.8726 35.5 36.5 35.5L38.0858 35.5L35.7929 33.2071C35.4024 32.8166 35.4024 32.1834 35.7929 31.7929C36.1834 31.4024 36.8166 31.4024 37.2071 31.7929L41.2071 35.7929Z" fill="black"/>
<path fill-rule="evenodd" clip-rule="evenodd" d="M65 22C63.3431 22 62 23.3431 62 25V39C62 40.6569 63.3431 42 65 42H79C80.6569 42 82 40.6569 82 39V25C82 23.3431 80.6569 22 79 22H65ZM80.2071 34.7929C80.5976 35.1834 80.5976 35.8166 80.2071 36.2071L76.2071 40.2071C75.8166 40.5976 75.1834 40.5976 74.7929 40.2071C74.4024 39.8166 74.4024 39.1834 74.7929 38.7929L77.0858 36.5H75.5C68.8726 36.5 63.5 31.1274 63.5 24.5C63.5 23.9477 63.9477 23.5 64.5 23.5C65.0523 23.5 65.5 23.9477 65.5 24.5C65.5 30.0228 69.9772 34.5 75.5 34.5H77.0858L74.7929 32.2071C74.4024 31.8166 74.4024 31.1834 74.7929 30.7929C75.1834 30.4024 75.8166 30.4024 76.2071 30.7929L80.2071 34.7929Z" fill="black"/>
</svg>
