<svg width="104" height="64" viewBox="0 0 104 64" fill="none" xmlns="http://www.w3.org/2000/svg">
<path d="M35.7929 41.2071C36.1834 41.5976 36.8166 41.5976 37.2071 41.2071L41.2071 37.2071C41.5976 36.8166 41.5976 36.1834 41.2071 35.7929C40.8166 35.4024 40.1834 35.4024 39.7929 35.7929L37.5 38.0858V36.5C37.5 28.768 31.232 22.5 23.5 22.5C22.9477 22.5 22.5 22.9477 22.5 23.5C22.5 24.0523 22.9477 24.5 23.5 24.5C30.1274 24.5 35.5 29.8726 35.5 36.5V38.0858L33.2071 35.7929C32.8166 35.4024 32.1834 35.4024 31.7929 35.7929C31.4024 36.1834 31.4024 36.8166 31.7929 37.2071L35.7929 41.2071Z" fill="black"/>
<path fill-rule="evenodd" clip-rule="evenodd" d="M65 22C63.3431 22 62 23.3431 62 25V39C62 40.6569 63.3431 42 65 42H79C80.6569 42 82 40.6569 82 39V25C82 23.3431 80.6569 22 79 22H65ZM74.7929 40.2071C75.1834 40.5976 75.8166 40.5976 76.2071 40.2071L80.2071 36.2071C80.5976 35.8166 80.5976 35.1834 80.2071 34.7929C79.8166 34.4024 79.1834 34.4024 78.7929 34.7929L76.5 37.0858V35.5C76.5 28.8726 71.1274 23.5 64.5 23.5C63.9477 23.5 63.5 23.9477 63.5 24.5C63.5 25.0523 63.9477 25.5 64.5 25.5C70.0228 25.5 74.5 29.9772 74.5 35.5V37.0858L72.2071 34.7929C71.8166 34.4024 71.1834 34.4024 70.7929 34.7929C70.4024 35.1834 70.4024 35.8166 70.7929 36.2071L74.7929 40.2071Z" fill="black"/>
</svg>
