<svg width="104" height="64" viewBox="0 0 104 64" fill="none" xmlns="http://www.w3.org/2000/svg">
<path d="M41.2071 28.2071C41.5976 27.8166 41.5976 27.1834 41.2071 26.7929L37.2071 22.7929C36.8166 22.4024 36.1834 22.4024 35.7929 22.7929C35.4024 23.1834 35.4024 23.8166 35.7929 24.2071L38.0858 26.5H36.5C28.768 26.5 22.5 32.768 22.5 40.5C22.5 41.0523 22.9477 41.5 23.5 41.5C24.0523 41.5 24.5 41.0523 24.5 40.5C24.5 33.8726 29.8726 28.5 36.5 28.5H38.0858L35.7929 30.7929C35.4024 31.1834 35.4024 31.8166 35.7929 32.2071C36.1834 32.5976 36.8166 32.5976 37.2071 32.2071L41.2071 28.2071Z" fill="black"/>
<path fill-rule="evenodd" clip-rule="evenodd" d="M65 22C63.3431 22 62 23.3431 62 25V39C62 40.6569 63.3431 42 65 42H79C80.6569 42 82 40.6569 82 39V25C82 23.3431 80.6569 22 79 22H65ZM80.2071 29.2071C80.5976 28.8166 80.5976 28.1834 80.2071 27.7929L76.2071 23.7929C75.8166 23.4024 75.1834 23.4024 74.7929 23.7929C74.4024 24.1834 74.4024 24.8166 74.7929 25.2071L77.0858 27.5H75.5C68.8726 27.5 63.5 32.8726 63.5 39.5C63.5 40.0523 63.9477 40.5 64.5 40.5C65.0523 40.5 65.5 40.0523 65.5 39.5C65.5 33.9772 69.9772 29.5 75.5 29.5H77.0858L74.7929 31.7929C74.4024 32.1834 74.4024 32.8166 74.7929 33.2071C75.1834 33.5976 75.8166 33.5976 76.2071 33.2071L80.2071 29.2071Z" fill="black"/>
</svg>
