<svg width="104" height="64" viewBox="0 0 104 64" fill="none" xmlns="http://www.w3.org/2000/svg">
<path d="M22.7929 37.2071C22.4024 36.8166 22.4024 36.1834 22.7929 35.7929L26.7929 31.7929C27.1834 31.4024 27.8166 31.4024 28.2071 31.7929C28.5976 32.1834 28.5976 32.8166 28.2071 33.2071L25.9142 35.5L27.5 35.5C34.1274 35.5 39.5 30.1274 39.5 23.5C39.5 22.9477 39.9477 22.5 40.5 22.5C41.0523 22.5 41.5 22.9477 41.5 23.5C41.5 31.232 35.232 37.5 27.5 37.5L25.9142 37.5L28.2071 39.7929C28.5976 40.1834 28.5976 40.8166 28.2071 41.2071C27.8166 41.5976 27.1834 41.5976 26.7929 41.2071L22.7929 37.2071Z" fill="black"/>
<path fill-rule="evenodd" clip-rule="evenodd" d="M65 22C63.3431 22 62 23.3431 62 25V39C62 40.6569 63.3431 42 65 42H79C80.6569 42 82 40.6569 82 39V25C82 23.3431 80.6569 22 79 22H65ZM63.7929 34.7929C63.4024 35.1834 63.4024 35.8166 63.7929 36.2071L67.7929 40.2071C68.1834 40.5976 68.8166 40.5976 69.2071 40.2071C69.5976 39.8166 69.5976 39.1834 69.2071 38.7929L66.9142 36.5H68.5C75.1274 36.5 80.5 31.1274 80.5 24.5C80.5 23.9477 80.0523 23.5 79.5 23.5C78.9477 23.5 78.5 23.9477 78.5 24.5C78.5 30.0228 74.0228 34.5 68.5 34.5H66.9142L69.2071 32.2071C69.5976 31.8166 69.5976 31.1834 69.2071 30.7929C68.8166 30.4024 68.1834 30.4024 67.7929 30.7929L63.7929 34.7929Z" fill="black"/>
</svg>
