<svg width="104" height="64" viewBox="0 0 104 64" fill="none" xmlns="http://www.w3.org/2000/svg">
<path fill-rule="evenodd" clip-rule="evenodd" d="M27 22C27 21.4477 26.5523 21 26 21C25.4477 21 25 21.4477 25 22V25H23C22.4477 25 22 25.4477 22 26C22 26.5523 22.4477 27 23 27H25V37C25 38.1046 25.8954 39 27 39H37V42C37 42.5523 37.4477 43 38 43C38.5523 43 39 42.5523 39 42V39H41C41.5523 39 42 38.5523 42 38C42 37.4477 41.5523 37 41 37H39V27C39 25.8954 38.1046 25 37 25H27V22ZM27 37V27H37V37H27Z" fill="black"/>
<path fill-rule="evenodd" clip-rule="evenodd" d="M67 22C67 21.4477 66.5523 21 66 21C65.4477 21 65 21.4477 65 22V25H63C62.4477 25 62 25.4477 62 26C62 26.5523 62.4477 27 63 27H65V37C65 38.1046 65.8954 39 67 39H77V42C77 42.5523 77.4477 43 78 43C78.5523 43 79 42.5523 79 42V39H81C81.5523 39 82 38.5523 82 38C82 37.4477 81.5523 37 81 37H79V27C79 25.8954 78.1046 25 77 25H67V22ZM67 37V27H77V37H67Z" fill="black"/>
</svg>
