<svg width="104" height="64" viewBox="0 0 104 64" fill="none" xmlns="http://www.w3.org/2000/svg">
<path fill-rule="evenodd" clip-rule="evenodd" d="M23 23.5C22.4477 23.5 22 23.9477 22 24.5V36.5C22 38.7091 23.7909 40.5 26 40.5H34C35.8638 40.5 37.4299 39.2253 37.874 37.5001H38.6826C41.067 37.5001 43 35.5671 43 33.1826V30.8616C43 28.9862 41.5538 27.7653 40.1907 27.3232C39.4945 27.0973 38.7168 27.0318 38 27.2189V24.5C38 23.9477 37.5523 23.5 37 23.5H23ZM38 29.8961V35.5L38.6826 35.5001C39.9625 35.5001 41 34.4625 41 33.1826V30.8616C41 30.1511 40.4363 29.5054 39.5736 29.2256C39.161 29.0918 38.7768 29.0819 38.5006 29.1552C38.246 29.2228 38.1088 29.3473 38.0346 29.5185C38.0196 29.5532 38 29.6371 38 29.8961ZM36 25.5H24V36.5C24 37.6046 24.8954 38.5 26 38.5H34C35.1046 38.5 36 37.6046 36 36.5V25.5Z" fill="black"/>
<path fill-rule="evenodd" clip-rule="evenodd" d="M63 25.5V37.5C63 39.1569 64.3431 40.5 66 40.5H75C76.6568 40.5 78 39.1569 78 37.5001H78.6826C81.067 37.5001 83 35.5671 83 33.1826V30.8616C83 28.9862 81.5538 27.7653 80.1907 27.3232C79.4945 27.0973 78.7168 27.0318 78 27.2189V25.5C78 24.9477 77.5523 24.5 77 24.5H64C63.4477 24.5 63 24.9477 63 25.5ZM78 29.8961V35.5001H78.6826C79.9625 35.5001 81 34.4625 81 33.1826V30.8616C81 30.1511 80.4363 29.5054 79.5736 29.2256C79.161 29.0918 78.7768 29.0819 78.5006 29.1552C78.246 29.2228 78.1088 29.3473 78.0346 29.5185C78.0196 29.5532 78 29.6371 78 29.8961Z" fill="black"/>
</svg>
