<svg width="104" height="64" viewBox="0 0 104 64" fill="none" xmlns="http://www.w3.org/2000/svg">
<path fill-rule="evenodd" clip-rule="evenodd" d="M33 26.8293C34.1652 26.4175 35 25.3062 35 24C35 22.3431 33.6569 21 32 21C30.3431 21 29 22.3431 29 24C29 25.3062 29.8348 26.4175 31 26.8293V31H27C24.7909 31 23 32.7909 23 35V37.1707C21.8348 37.5825 21 38.6938 21 40C21 41.6569 22.3431 43 24 43C25.6569 43 27 41.6569 27 40C27 38.6938 26.1652 37.5825 25 37.1707V35C25 33.8954 25.8954 33 27 33H31L31 37.1707C29.8348 37.5825 29 38.6938 29 40C29 41.6569 30.3431 43 32 43C33.6569 43 35 41.6569 35 40C35 38.6938 34.1652 37.5825 33 37.1707L33 33H37C38.1046 33 39 33.8954 39 35V37.1707C37.8348 37.5825 37 38.6938 37 40C37 41.6569 38.3431 43 40 43C41.6569 43 43 41.6569 43 40C43 38.6938 42.1652 37.5825 41 37.1707V35C41 32.7909 39.2091 31 37 31H33V26.8293ZM32 23C32.5523 23 33 23.4477 33 24C33 24.5523 32.5523 25 32 25C31.4477 25 31 24.5523 31 24C31 23.4477 31.4477 23 32 23ZM40 39C39.4477 39 39 39.4477 39 40C39 40.5523 39.4477 41 40 41C40.5523 41 41 40.5523 41 40C41 39.4477 40.5523 39 40 39ZM32 39C32.5523 39 33 39.4477 33 40C33 40.5523 32.5523 41 32 41C31.4477 41 31 40.5523 31 40C31 39.4477 31.4477 39 32 39ZM24 39C24.5523 39 25 39.4477 25 40C25 40.5523 24.5523 41 24 41C23.4477 41 23 40.5523 23 40C23 39.4477 23.4477 39 24 39Z" fill="black"/>
<path d="M71 26.792C70.117 26.4062 69.5 25.5252 69.5 24.5C69.5 23.1193 70.6193 22 72 22C73.3807 22 74.5 23.1193 74.5 24.5C74.5 25.5252 73.883 26.4062 73 26.792V31H77C79.2091 31 81 32.7909 81 35V36.208C81.883 36.5938 82.5 37.4748 82.5 38.5C82.5 39.8807 81.3807 41 80 41C78.6193 41 77.5 39.8807 77.5 38.5C77.5 37.4748 78.117 36.5938 79 36.208V35C79 33.8954 78.1046 33 77 33H73L73 36.208C73.883 36.5938 74.5 37.4748 74.5 38.5C74.5 39.8807 73.3807 41 72 41C70.6193 41 69.5 39.8807 69.5 38.5C69.5 37.4748 70.117 36.5938 71 36.208L71 33H67C65.8954 33 65 33.8954 65 35V36.208C65.883 36.5938 66.5 37.4748 66.5 38.5C66.5 39.8807 65.3807 41 64 41C62.6193 41 61.5 39.8807 61.5 38.5C61.5 37.4748 62.117 36.5938 63 36.208V35C63 32.7909 64.7909 31 67 31H71V26.792Z" fill="black"/>
</svg>
