<svg width="104" height="64" viewBox="0 0 104 64" fill="none" xmlns="http://www.w3.org/2000/svg">
<path fill-rule="evenodd" clip-rule="evenodd" d="M21 25.8999C21 23.6908 22.7909 21.8999 25 21.8999H35C37.2091 21.8999 39 23.6908 39 25.8999V26.9999C39 27.0565 38.9953 27.1119 38.9863 27.1659C40.1586 27.5738 41 28.6887 41 30V38C41 39.6569 39.6569 41 38 41H34C32.7238 41 31.6338 40.2032 31.2002 39.0799C31.1355 39.093 31.0686 39.0999 31 39.0999H26.8C26.2477 39.0999 25.8 38.6522 25.8 38.0999C25.8 37.5476 26.2477 37.0999 26.8 37.0999H29V36.6999H25C22.7909 36.6999 21 34.909 21 32.6999V25.8999ZM31 34.6999V30C31 28.3431 32.3431 27 34 27H37C37 27 37 27 37 27V25.8999C37 24.7953 36.1046 23.8999 35 23.8999H25C23.8954 23.8999 23 24.7953 23 25.8999V32.6999C23 33.8045 23.8954 34.6999 25 34.6999H31ZM33 30C33 29.4477 33.4477 29 34 29H34.2707C34.4531 29.1944 34.7124 29.3158 35 29.3158H37C37.2876 29.3158 37.5469 29.1944 37.7293 29H38C38.5523 29 39 29.4477 39 30V38C39 38.5523 38.5523 39 38 39H34C33.4477 39 33 38.5523 33 38V30Z" fill="black"/>
<path d="M65 22.8999H75C76.6569 22.8999 78 24.243 78 25.8999V28.2501H74.75C73.3693 28.2501 72.25 29.3693 72.25 30.7501V35.6999H71V37.0999C71.5523 37.0999 72 37.5476 72 38.0999C72 38.6522 71.5523 39.0999 71 39.0999H66.8C66.2477 39.0999 65.8 38.6522 65.8 38.0999C65.8 37.5476 66.2477 37.0999 66.8 37.0999H69V35.6999L65 35.6999C63.3431 35.6999 62 34.3568 62 32.6999V25.8999C62 24.2431 63.3431 22.8999 65 22.8999Z" fill="black"/>
<path d="M75 29H75.1338C75.3067 29.2989 75.6299 29.5 76 29.5H78C78.3701 29.5 78.6933 29.2989 78.8662 29H79C80.1046 29 81 29.8954 81 31V39C81 40.1046 80.1046 41 79 41H75C73.8954 41 73 40.1046 73 39V31C73 29.8954 73.8954 29 75 29Z" fill="black"/>
</svg>
