<svg width="104" height="64" viewBox="0 0 104 64" fill="none" xmlns="http://www.w3.org/2000/svg">
<path fill-rule="evenodd" clip-rule="evenodd" d="M27.5977 36.2079C27.1614 36.7123 26.522 37.0307 25.8095 37.0307L25.0553 37.0307C24.874 37.0307 24.7182 37.0308 24.5771 37.0167C23.2206 36.8808 22.1474 35.7892 22.0138 34.4094C21.9999 34.2658 21.9999 34.1074 22 33.923V26.5766C21.9999 26.3922 21.9999 26.2337 22.0138 26.0902C22.1474 24.7104 23.2206 23.6188 24.5771 23.4829C24.7182 23.4688 24.874 23.4688 25.0553 23.4689L25.8095 23.4689C26.5908 23.4689 27.2842 23.8517 27.7183 24.443L29.6938 23.1871C30.0772 22.9428 30.4166 22.7265 30.8061 22.6128C31.1956 22.4992 31.5961 22.4997 32.0485 22.5002L35.9264 22.5001C36.5149 22.4993 37.0368 22.4985 37.5271 22.6859C38.0174 22.8733 38.4097 23.2234 38.852 23.6182L40.3735 24.9725L40.4827 25.0694C41.0144 25.5411 41.4866 25.96 41.7444 26.5376C42.0021 27.1153 42.001 27.7527 41.9998 28.4703L41.9997 28.6176L41.9997 29.9512C41.9997 30.7524 41.9998 31.443 41.9309 31.999C41.8573 32.5931 41.692 33.167 41.2637 33.6498C41.1983 33.7235 41.1292 33.7938 41.0567 33.8603C40.5821 34.296 40.0178 34.4641 39.4338 34.5389C38.8871 34.609 38.2082 34.609 37.4205 34.6089L37.2379 34.6089C36.625 34.6089 36.2586 34.6108 36.0049 34.6439L35.9823 34.647L35.9897 34.6689C36.074 34.9145 36.2362 35.2487 36.5103 35.8063L37.2332 37.2768L37.2433 37.2975C37.9387 38.7274 37.3708 40.4601 35.9711 41.1796L35.9508 41.19L35.9363 41.1973C34.9074 41.7164 33.6729 41.5583 32.8026 40.7961L27.5977 36.2079ZM34.0454 39.3279C34.3355 39.582 34.747 39.6347 35.09 39.4617L35.099 39.4571L35.112 39.4505C35.5785 39.2107 35.7678 38.6331 35.536 38.1565L34.7813 36.6211C34.5411 36.1326 34.3212 35.6853 34.1915 35.3078C34.0554 34.9115 33.9429 34.3868 34.1712 33.8453C34.2456 33.6688 34.3454 33.5045 34.4673 33.3579C34.8414 32.9079 35.3532 32.7757 35.7625 32.7223C36.1525 32.6714 36.6441 32.6715 37.1811 32.6715L37.3621 32.6715C38.2248 32.6715 38.7823 32.6697 39.1957 32.6167C39.5852 32.5668 39.7116 32.4854 39.7806 32.422C39.8048 32.3998 39.8278 32.3764 39.8496 32.3518C39.9119 32.2816 39.992 32.153 40.0411 31.7568C40.0932 31.3363 40.095 30.7693 40.095 29.8918V28.6176C40.095 27.6648 40.0751 27.4844 40.0098 27.3382C39.9446 27.192 39.8242 27.058 39.1193 26.4306L37.6879 25.1566C37.1026 24.6357 36.9816 24.5471 36.8572 24.4995C36.7327 24.4519 36.5842 24.4376 35.8065 24.4376H32.14C31.5449 24.4376 31.4303 24.4462 31.3312 24.4752C31.2321 24.5041 31.1304 24.5585 30.6258 24.8793L28.1904 26.4276V34.1666L34.0454 39.3279ZM25.8095 35.0933C26.0725 35.0933 26.2857 34.8764 26.2857 34.6089V25.8907C26.2857 25.6232 26.0725 25.4063 25.8095 25.4063H25.0952C24.8514 25.4063 24.7986 25.4075 24.7638 25.411C24.3116 25.4563 23.9539 25.8201 23.9093 26.2801C23.9059 26.3155 23.9048 26.3692 23.9048 26.6172V33.8824C23.9048 34.1303 23.9059 34.1841 23.9093 34.2195C23.9539 34.6794 24.3116 35.0433 24.7638 35.0886C24.7986 35.0921 24.8514 35.0933 25.0952 35.0933H25.8095Z" fill="black"/>
<path d="M68.3803 36.0825L73.4954 40.5156C74.1046 41.0402 74.9688 41.1489 75.689 40.7917L75.7014 40.7856L75.7188 40.7768C76.6987 40.2816 77.0962 39.0891 76.6094 38.1051L75.8416 36.5695C75.2913 35.4688 75.0161 34.9185 75.199 34.4921C75.2381 34.401 75.2905 34.3162 75.3545 34.2405C75.6541 33.8862 76.2694 33.8862 77.5 33.8862H77.6305C79.3895 33.8862 80.269 33.8862 80.8399 33.371C80.8907 33.3252 80.939 33.2769 80.9848 33.2261C81.5 32.6552 81.5 31.7757 81.5 30.0167V28.7013C81.5 27.8079 81.5 27.3612 81.3213 26.9673C81.1425 26.5734 80.8064 26.2793 80.134 25.691L78.6311 24.3759C78.0718 23.8865 77.7921 23.6418 77.452 23.514C77.1119 23.3862 76.7403 23.3862 75.9971 23.3862H72.1472C71.5774 23.3862 71.2925 23.3862 71.0222 23.4637C70.752 23.5412 70.5104 23.6922 70.0272 23.9942L68.88 24.7112C67.961 25.2856 67.5014 25.5728 67.2507 26.0252C67 26.4775 67 27.0194 67 28.1032V25.8862C67 25.0578 66.3284 24.3862 65.5 24.3862H64.5C63.3954 24.3862 62.5 25.2817 62.5 26.3862V34.3862C62.5 35.4908 63.3954 36.3862 64.5 36.3862H65.5C66.3284 36.3862 67 35.7147 67 34.8862V33.0597C67 33.9586 67 34.408 67.1807 34.8037C67.3614 35.1994 67.701 35.4938 68.3803 36.0825Z" fill="black"/>
</svg>
