<svg width="104" height="64" viewBox="0 0 104 64" fill="none" xmlns="http://www.w3.org/2000/svg">
<path d="M30.7675 30.7726C31.2556 30.2844 31.2556 29.493 30.7675 29.0048C30.2793 28.5167 29.4879 28.5167 28.9997 29.0048C28.5116 29.493 28.5116 30.2844 28.9997 30.7726C29.4879 31.2607 30.2793 31.2607 30.7675 30.7726Z" fill="black"/>
<path d="M35.0102 33.2475C35.4983 33.7357 35.4983 34.5271 35.0102 35.0153C34.522 35.5034 33.7306 35.5034 33.2424 35.0153C32.7542 34.5271 32.7542 33.7357 33.2424 33.2475C33.7306 32.7593 34.522 32.7593 35.0102 33.2475Z" fill="black"/>
<path d="M29.1729 33.4143C28.7824 33.8048 28.7824 34.438 29.1729 34.8285C29.5634 35.219 30.1966 35.219 30.5871 34.8285L34.8297 30.5858C35.2203 30.1953 35.2203 29.5621 34.8297 29.1716C34.4392 28.7811 33.8061 28.7811 33.4155 29.1716L29.1729 33.4143Z" fill="black"/>
<path fill-rule="evenodd" clip-rule="evenodd" d="M34.5031 22.0289C33.1082 20.6795 30.8944 20.6795 29.4995 22.0289C29.1452 22.3717 28.6526 22.5318 28.1645 22.4627C26.2428 22.1909 24.4518 23.4921 24.1165 25.4038C24.0313 25.8893 23.7268 26.3084 23.2914 26.5394C21.5769 27.4491 20.8928 29.5545 21.7452 31.2982C21.9616 31.741 21.9616 32.259 21.7452 32.7019C20.8928 34.4456 21.5769 36.551 23.2914 37.4606C23.7268 37.6917 24.0313 38.1107 24.1165 38.5963C24.4518 40.5079 26.2428 41.8092 28.1645 41.5373C28.6526 41.4683 29.1452 41.6284 29.4995 41.9711C30.8944 43.3206 33.1082 43.3206 34.5031 41.9711C34.8574 41.6284 35.3501 41.4683 35.8382 41.5373C37.7599 41.8092 39.5509 40.5079 39.8862 38.5963C39.9714 38.1107 40.2758 37.6917 40.7113 37.4606C42.4258 36.551 43.1099 34.4456 42.2575 32.7019C42.041 32.259 42.041 31.741 42.2575 31.2982C43.1099 29.5545 42.4258 27.4491 40.7113 26.5394C40.2758 26.3084 39.9714 25.8893 39.8862 25.4038C39.5509 23.4921 37.7599 22.1909 35.8382 22.4627C35.3501 22.5318 34.8574 22.3717 34.5031 22.0289ZM30.8901 23.4664C31.5097 22.867 32.493 22.867 33.1126 23.4664C33.9102 24.2381 35.0194 24.5984 36.1183 24.443C36.9718 24.3223 37.7673 24.9002 37.9163 25.7493C38.108 26.8425 38.7935 27.786 39.7739 28.3062C40.5354 28.7102 40.8393 29.6454 40.4607 30.4198C39.9733 31.4169 39.9733 32.5831 40.4607 33.5802C40.8393 34.3547 40.5354 35.2899 39.7739 35.6939C38.7935 36.2141 38.108 37.1576 37.9163 38.2507C37.7673 39.0998 36.9718 39.6778 36.1183 39.5571C35.0194 39.4016 33.9102 39.762 33.1126 40.5337C32.493 41.1331 31.5097 41.1331 30.8901 40.5337C30.0924 39.762 28.9833 39.4016 27.8844 39.5571C27.0308 39.6778 26.2353 39.0998 26.0864 38.2507C25.8946 37.1576 25.2091 36.2141 24.2287 35.6939C23.4672 35.2899 23.1634 34.3547 23.542 33.5802C24.0294 32.5831 24.0294 31.4169 23.542 30.4198C23.1634 29.6454 23.4672 28.7102 24.2287 28.3062C25.2091 27.786 25.8946 26.8425 26.0864 25.7493C26.2353 24.9002 27.0308 24.3223 27.8844 24.443C28.9833 24.5984 30.0924 24.2381 30.8901 23.4664Z" fill="black"/>
<path fill-rule="evenodd" clip-rule="evenodd" d="M73.8057 22.7477C72.7985 21.7732 71.1999 21.7732 70.1927 22.7477C69.6167 23.3049 68.8158 23.5651 68.0223 23.4529C66.6347 23.2566 65.3414 24.1962 65.0993 25.5765C64.9608 26.3659 64.4658 27.0472 63.7579 27.4228C62.5199 28.0796 62.0259 29.5999 62.6414 30.859C62.9934 31.579 62.9934 32.4211 62.6414 33.1411C62.0259 34.4001 62.5199 35.9204 63.7579 36.5773C64.4658 36.9529 64.9608 37.6342 65.0993 38.4235C65.3414 39.8039 66.6347 40.7435 68.0223 40.5472C68.8158 40.435 69.6167 40.6952 70.1927 41.2524C71.1999 42.2268 72.7985 42.2268 73.8057 41.2524C74.3817 40.6952 75.1826 40.435 75.9761 40.5472C77.3637 40.7435 78.657 39.8039 78.8991 38.4235C79.0376 37.6342 79.5325 36.9529 80.2405 36.5773C81.4785 35.9204 81.9724 34.4001 81.357 33.1411C81.005 32.4211 81.005 31.579 81.357 30.859C81.9724 29.5999 81.4785 28.0796 80.2405 27.4228C79.5325 27.0472 79.0376 26.3659 78.8991 25.5765C78.657 24.1962 77.3637 23.2566 75.9761 23.4529C75.1826 23.5651 74.3817 23.3049 73.8057 22.7477ZM70.7653 30.7726C71.2535 30.2844 71.2535 29.493 70.7653 29.0048C70.2772 28.5167 69.4857 28.5167 68.9976 29.0048C68.5094 29.493 68.5094 30.2844 68.9976 30.7726C69.4857 31.2607 70.2772 31.2607 70.7653 30.7726ZM75.008 33.2475C75.4962 33.7357 75.4962 34.5271 75.008 35.0153C74.5199 35.5034 73.7284 35.5034 73.2403 35.0153C72.7521 34.5271 72.7521 33.7357 73.2403 33.2475C73.7284 32.7593 74.5199 32.7593 75.008 33.2475ZM69.1707 33.4143C68.7802 33.8048 68.7802 34.438 69.1707 34.8285C69.5613 35.219 70.1944 35.219 70.585 34.8285L74.8276 30.5858C75.2181 30.1953 75.2181 29.5621 74.8276 29.1716C74.4371 28.7811 73.8039 28.7811 73.4134 29.1716L69.1707 33.4143Z" fill="black"/>
</svg>
