<svg width="104" height="64" viewBox="0 0 104 64" fill="none" xmlns="http://www.w3.org/2000/svg">
<path fill-rule="evenodd" clip-rule="evenodd" d="M33 22C33 21.4477 32.5523 21 32 21C31.4477 21 31 21.4477 31 22V23C28.2386 23 26 25.2386 26 28C26 30.7614 28.2386 33 31 33V39C29.3431 39 28 37.6569 28 36C28 35.4477 27.5523 35 27 35C26.4477 35 26 35.4477 26 36C26 38.7614 28.2386 41 31 41V42C31 42.5523 31.4477 43 32 43C32.5523 43 33 42.5523 33 42V41C35.7614 41 38 38.7614 38 36C38 33.2386 35.7614 31 33 31V25C34.6569 25 36 26.3431 36 28C36 28.5523 36.4477 29 37 29C37.5523 29 38 28.5523 38 28C38 25.2386 35.7614 23 33 23V22ZM31 25C29.3431 25 28 26.3431 28 28C28 29.6569 29.3431 31 31 31V25ZM33 33V39C34.6569 39 36 37.6569 36 36C36 34.3431 34.6569 33 33 33Z" fill="black"/>
<path fill-rule="evenodd" clip-rule="evenodd" d="M73 22C73 21.4477 72.5523 21 72 21C71.4477 21 71 21.4477 71 22V23C68.2386 23 66 25.2386 66 28C66 30.7614 68.2386 33 71 33V39C69.3431 39 68 37.6569 68 36C68 35.4477 67.5523 35 67 35C66.4477 35 66 35.4477 66 36C66 38.7614 68.2386 41 71 41V42C71 42.5523 71.4477 43 72 43C72.5523 43 73 42.5523 73 42V41C75.7614 41 78 38.7614 78 36C78 33.2386 75.7614 31 73 31V25C74.6569 25 76 26.3431 76 28C76 28.5523 76.4477 29 77 29C77.5523 29 78 28.5523 78 28C78 25.2386 75.7614 23 73 23V22ZM71 25C69.3431 25 68 26.3431 68 28C68 29.6569 69.3431 31 71 31V25ZM73 33V39C74.6569 39 76 37.6569 76 36C76 34.3431 74.6569 33 73 33Z" fill="black"/>
</svg>
