<svg width="104" height="64" viewBox="0 0 104 64" fill="none" xmlns="http://www.w3.org/2000/svg">
<path d="M32 30.75C31.3096 30.75 30.75 31.3096 30.75 32C30.75 32.6904 31.3096 33.25 32 33.25C32.6904 33.25 33.25 32.6904 33.25 32C33.25 31.3096 32.6904 30.75 32 30.75Z" fill="black"/>
<path d="M35.25 32C35.25 31.3096 35.8096 30.75 36.5 30.75C37.1904 30.75 37.75 31.3096 37.75 32C37.75 32.6904 37.1904 33.25 36.5 33.25C35.8096 33.25 35.25 32.6904 35.25 32Z" fill="black"/>
<path d="M27.5 30.75C26.8096 30.75 26.25 31.3096 26.25 32C26.25 32.6904 26.8096 33.25 27.5 33.25C28.1904 33.25 28.75 32.6904 28.75 32C28.75 31.3096 28.1904 30.75 27.5 30.75Z" fill="black"/>
<path fill-rule="evenodd" clip-rule="evenodd" d="M32 22C26.4772 22 22 26.4772 22 32C22 37.5228 26.4772 42 32 42C37.5228 42 42 37.5228 42 32C42 26.4772 37.5228 22 32 22ZM24 32C24 27.5817 27.5817 24 32 24C36.4183 24 40 27.5817 40 32C40 36.4183 36.4183 40 32 40C27.5817 40 24 36.4183 24 32Z" fill="black"/>
<path fill-rule="evenodd" clip-rule="evenodd" d="M72 41C76.9706 41 81 36.9706 81 32C81 27.0294 76.9706 23 72 23C67.0294 23 63 27.0294 63 32C63 36.9706 67.0294 41 72 41ZM72 30.75C71.3096 30.75 70.75 31.3096 70.75 32C70.75 32.6904 71.3096 33.25 72 33.25C72.6904 33.25 73.25 32.6904 73.25 32C73.25 31.3096 72.6904 30.75 72 30.75ZM75.25 32C75.25 31.3096 75.8096 30.75 76.5 30.75C77.1904 30.75 77.75 31.3096 77.75 32C77.75 32.6904 77.1904 33.25 76.5 33.25C75.8096 33.25 75.25 32.6904 75.25 32ZM67.5 30.75C66.8096 30.75 66.25 31.3096 66.25 32C66.25 32.6904 66.8096 33.25 67.5 33.25C68.1904 33.25 68.75 32.6904 68.75 32C68.75 31.3096 68.1904 30.75 67.5 30.75Z" fill="black"/>
</svg>
