<svg width="104" height="64" viewBox="0 0 104 64" fill="none" xmlns="http://www.w3.org/2000/svg">
<path d="M33.5 24C33.5 24.8284 32.8284 25.5 32 25.5C31.1716 25.5 30.5 24.8284 30.5 24C30.5 23.1716 31.1716 22.5 32 22.5C32.8284 22.5 33.5 23.1716 33.5 24Z" fill="black"/>
<path d="M33.5 32C33.5 32.8284 32.8284 33.5 32 33.5C31.1716 33.5 30.5 32.8284 30.5 32C30.5 31.1716 31.1716 30.5 32 30.5C32.8284 30.5 33.5 31.1716 33.5 32Z" fill="black"/>
<path d="M32 41.5C32.8284 41.5 33.5 40.8284 33.5 40C33.5 39.1716 32.8284 38.5 32 38.5C31.1716 38.5 30.5 39.1716 30.5 40C30.5 40.8284 31.1716 41.5 32 41.5Z" fill="black"/>
<path d="M74 24.5C74 25.6046 73.1046 26.5 72 26.5C70.8954 26.5 70 25.6046 70 24.5C70 23.3954 70.8954 22.5 72 22.5C73.1046 22.5 74 23.3954 74 24.5Z" fill="black"/>
<path d="M74 32C74 33.1046 73.1046 34 72 34C70.8954 34 70 33.1046 70 32C70 30.8954 70.8954 30 72 30C73.1046 30 74 30.8954 74 32Z" fill="black"/>
<path d="M72 41.5C73.1046 41.5 74 40.6046 74 39.5C74 38.3954 73.1046 37.5 72 37.5C70.8954 37.5 70 38.3954 70 39.5C70 40.6046 70.8954 41.5 72 41.5Z" fill="black"/>
</svg>
