<svg width="104" height="64" viewBox="0 0 104 64" fill="none" xmlns="http://www.w3.org/2000/svg">
<path d="M22.5 32C22.5 32.8284 23.1716 33.5 24 33.5C24.8284 33.5 25.5 32.8284 25.5 32C25.5 31.1716 24.8284 30.5 24 30.5C23.1716 30.5 22.5 31.1716 22.5 32Z" fill="black"/>
<path d="M32 33.5C31.1716 33.5 30.5 32.8284 30.5 32C30.5 31.1716 31.1716 30.5 32 30.5C32.8284 30.5 33.5 31.1716 33.5 32C33.5 32.8284 32.8284 33.5 32 33.5Z" fill="black"/>
<path d="M40 33.5C39.1716 33.5 38.5 32.8284 38.5 32C38.5 31.1716 39.1716 30.5 40 30.5C40.8284 30.5 41.5 31.1716 41.5 32C41.5 32.8284 40.8284 33.5 40 33.5Z" fill="black"/>
<path d="M62 32C62 33.1046 62.8954 34 64 34C65.1046 34 66 33.1046 66 32C66 30.8954 65.1046 30 64 30C62.8954 30 62 30.8954 62 32Z" fill="black"/>
<path d="M72 34C70.8954 34 70 33.1046 70 32C70 30.8954 70.8954 30 72 30C73.1046 30 74 30.8954 74 32C74 33.1046 73.1046 34 72 34Z" fill="black"/>
<path d="M80 34C78.8954 34 78 33.1046 78 32C78 30.8954 78.8954 30 80 30C81.1046 30 82 30.8954 82 32C82 33.1046 81.1046 34 80 34Z" fill="black"/>
</svg>
