<svg width="104" height="64" viewBox="0 0 104 64" fill="none" xmlns="http://www.w3.org/2000/svg">
<path d="M30.75 32C30.75 32.6904 31.3096 33.25 32 33.25C32.6904 33.25 33.25 32.6904 33.25 32C33.25 31.3096 32.6904 30.75 32 30.75C31.3096 30.75 30.75 31.3096 30.75 32Z" fill="black"/>
<path d="M32 28.75C31.3096 28.75 30.75 28.1904 30.75 27.5C30.75 26.8096 31.3096 26.25 32 26.25C32.6904 26.25 33.25 26.8096 33.25 27.5C33.25 28.1904 32.6904 28.75 32 28.75Z" fill="black"/>
<path d="M30.75 36.5C30.75 37.1904 31.3096 37.75 32 37.75C32.6904 37.75 33.25 37.1904 33.25 36.5C33.25 35.8096 32.6904 35.25 32 35.25C31.3096 35.25 30.75 35.8096 30.75 36.5Z" fill="black"/>
<path fill-rule="evenodd" clip-rule="evenodd" d="M32 22C26.4772 22 22 26.4772 22 32C22 37.5228 26.4772 42 32 42C37.5228 42 42 37.5228 42 32C42 26.4772 37.5228 22 32 22ZM24 32C24 27.5817 27.5817 24 32 24C36.4183 24 40 27.5817 40 32C40 36.4183 36.4183 40 32 40C27.5817 40 24 36.4183 24 32Z" fill="black"/>
<path fill-rule="evenodd" clip-rule="evenodd" d="M72 41C76.9706 41 81 36.9706 81 32C81 27.0294 76.9706 23 72 23C67.0294 23 63 27.0294 63 32C63 36.9706 67.0294 41 72 41ZM70.75 32C70.75 32.6904 71.3096 33.25 72 33.25C72.6904 33.25 73.25 32.6904 73.25 32C73.25 31.3096 72.6904 30.75 72 30.75C71.3096 30.75 70.75 31.3096 70.75 32ZM72 28.75C71.3096 28.75 70.75 28.1904 70.75 27.5C70.75 26.8096 71.3096 26.25 72 26.25C72.6904 26.25 73.25 26.8096 73.25 27.5C73.25 28.1904 72.6904 28.75 72 28.75ZM70.75 36.5C70.75 37.1904 71.3096 37.75 72 37.75C72.6904 37.75 73.25 37.1904 73.25 36.5C73.25 35.8096 72.6904 35.25 72 35.25C71.3096 35.25 70.75 35.8096 70.75 36.5Z" fill="black"/>
</svg>
