<svg width="104" height="64" viewBox="0 0 104 64" fill="none" xmlns="http://www.w3.org/2000/svg">
<path d="M36.7071 33.7071L32.7071 37.7071C32.3166 38.0976 31.6834 38.0976 31.2929 37.7071L27.2929 33.7071C26.9024 33.3166 26.9024 32.6834 27.2929 32.2929C27.6834 31.9024 28.3166 31.9024 28.7071 32.2929L31 34.5858V23C31 22.4477 31.4477 22 32 22C32.5523 22 33 22.4477 33 23V34.5858L35.2929 32.2929C35.6834 31.9024 36.3166 31.9024 36.7071 32.2929C37.0976 32.6834 37.0976 33.3166 36.7071 33.7071Z" fill="black"/>
<path d="M24 37.5C24 36.9477 23.5523 36.5 23 36.5C22.4477 36.5 22 36.9477 22 37.5V39C22 41.2091 23.7909 43 26 43H38C40.2091 43 42 41.2091 42 39V37.5C42 36.9477 41.5523 36.5 41 36.5C40.4477 36.5 40 36.9477 40 37.5V39C40 40.1046 39.1046 41 38 41H26C24.8954 41 24 40.1046 24 39V37.5Z" fill="black"/>
<path d="M76.7071 33.7071L72.7071 37.7071C72.3166 38.0976 71.6834 38.0976 71.2929 37.7071L67.2929 33.7071C66.9024 33.3166 66.9024 32.6834 67.2929 32.2929C67.6834 31.9024 68.3166 31.9024 68.7071 32.2929L71 34.5858V23C71 22.4477 71.4477 22 72 22C72.5523 22 73 22.4477 73 23V34.5858L75.2929 32.2929C75.6834 31.9024 76.3166 31.9024 76.7071 32.2929C77.0976 32.6834 77.0976 33.3166 76.7071 33.7071Z" fill="black"/>
<path d="M73.4142 38.4142L74.3284 37.5H81V39C81 40.6569 79.6569 42 78 42H66C64.3431 42 63 40.6569 63 39V37.5H69.6716L70.5858 38.4142C71.3668 39.1953 72.6332 39.1953 73.4142 38.4142Z" fill="black"/>
</svg>
