<svg width="104" height="64" viewBox="0 0 104 64" fill="none" xmlns="http://www.w3.org/2000/svg">
<path fill-rule="evenodd" clip-rule="evenodd" d="M24 31.5C22.6193 31.5 21.5 30.3807 21.5 29L21.5 24C21.5 22.6193 22.6193 21.5 24 21.5H29C30.3807 21.5 31.5 22.6193 31.5 24V29C31.5 30.3807 30.3807 31.5 29 31.5H24ZM23.5 29C23.5 29.2761 23.7239 29.5 24 29.5L29 29.5C29.2761 29.5 29.5 29.2761 29.5 29V24C29.5 23.7239 29.2761 23.5 29 23.5L24 23.5C23.7239 23.5 23.5 23.7239 23.5 24L23.5 29Z" fill="black"/>
<path fill-rule="evenodd" clip-rule="evenodd" d="M27.676 33.1942C26.7504 32.2686 25.2496 32.2686 24.324 33.1942L21.6942 35.824C20.7686 36.7496 20.7686 38.2504 21.6942 39.176L24.324 41.8058C25.2496 42.7314 26.7504 42.7314 27.676 41.8058L30.3058 39.176C31.2314 38.2504 31.2314 36.7496 30.3058 35.824L27.676 33.1942ZM25.7382 34.6085C25.8828 34.4639 26.1172 34.4639 26.2618 34.6085L28.8915 37.2382C29.0361 37.3828 29.0361 37.6172 28.8915 37.7618L26.2618 40.3915C26.1172 40.5361 25.8828 40.5361 25.7382 40.3916L23.1085 37.7618C22.9638 37.6172 22.9638 37.3828 23.1085 37.2382L25.7382 34.6085Z" fill="black"/>
<path fill-rule="evenodd" clip-rule="evenodd" d="M32.5 40C32.5 41.3807 33.6193 42.5 35 42.5H40C41.3807 42.5 42.5 41.3807 42.5 40V35C42.5 33.6193 41.3807 32.5 40 32.5H35C33.6193 32.5 32.5 33.6193 32.5 35V40ZM35 40.5C34.7239 40.5 34.5 40.2761 34.5 40V35C34.5 34.7239 34.7239 34.5 35 34.5H40C40.2761 34.5 40.5 34.7239 40.5 35V40C40.5 40.2761 40.2761 40.5 40 40.5H35Z" fill="black"/>
<path fill-rule="evenodd" clip-rule="evenodd" d="M32.5 26.5C32.5 29.2614 34.7386 31.5 37.5 31.5C40.2614 31.5 42.5 29.2614 42.5 26.5C42.5 23.7386 40.2614 21.5 37.5 21.5C34.7386 21.5 32.5 23.7386 32.5 26.5ZM37.5 23.5C39.1569 23.5 40.5 24.8431 40.5 26.5C40.5 28.1569 39.1569 29.5 37.5 29.5C35.8431 29.5 34.5 28.1569 34.5 26.5C34.5 24.8431 35.8431 23.5 37.5 23.5Z" fill="black"/>
<path d="M73.5 35V40C73.5 40.8284 74.1716 41.5 75 41.5H80C80.8284 41.5 81.5 40.8284 81.5 40V35C81.5 34.1716 80.8284 33.5 80 33.5H75C74.1716 33.5 73.5 34.1716 73.5 35Z" fill="black"/>
<path d="M65.0311 33.9013L62.4013 36.5311C61.8662 37.0662 61.8662 37.9338 62.4013 38.4689L65.0311 41.0987C65.5662 41.6338 66.4338 41.6338 66.9689 41.0987L69.5987 38.4689C70.1338 37.9338 70.1338 37.0662 69.5987 36.5311L66.9689 33.9013C66.4338 33.3662 65.5662 33.3662 65.0311 33.9013Z" fill="black"/>
<path d="M62.5 24L62.5 29C62.5 29.8284 63.1716 30.5 64 30.5H69C69.8284 30.5 70.5 29.8284 70.5 29V24C70.5 23.1716 69.8284 22.5 69 22.5L64 22.5C63.1716 22.5 62.5 23.1716 62.5 24Z" fill="black"/>
<path d="M77.5 30.5C79.7091 30.5 81.5 28.7091 81.5 26.5C81.5 24.2909 79.7091 22.5 77.5 22.5C75.2909 22.5 73.5 24.2909 73.5 26.5C73.5 28.7091 75.2909 30.5 77.5 30.5Z" fill="black"/>
</svg>
