<svg width="104" height="64" viewBox="0 0 104 64" fill="none" xmlns="http://www.w3.org/2000/svg">
<path d="M32 24C27.5817 24 24 27.5817 24 32C24 36.4183 27.5817 40 32 40C36.4183 40 40 36.4183 40 32C40 31.5446 39.962 31.0988 39.8893 30.6655C39.798 30.1208 40.1654 29.6052 40.7101 29.5138C41.2548 29.4224 41.7704 29.7899 41.8618 30.3345C41.9528 30.8768 42 31.4333 42 32C42 37.5228 37.5228 42 32 42C26.4772 42 22 37.5228 22 32C22 26.4772 26.4772 22 32 22C33.5947 22 35.1049 22.374 36.445 23.04C36.9396 23.2858 37.1413 23.886 36.8955 24.3806C36.6497 24.8751 36.0495 25.0768 35.555 24.831C34.4852 24.2994 33.279 24 32 24Z" fill="black"/>
<path d="M40 23C40.5523 23 41 23.4477 41 24V25H42C42.5523 25 43 25.4477 43 26C43 26.5523 42.5523 27 42 27H41V28C41 28.5523 40.5523 29 40 29C39.4477 29 39 28.5523 39 28V27H38C37.4477 27 37 26.5523 37 26C37 25.4477 37.4477 25 38 25H39V24C39 23.4477 39.4477 23 40 23Z" fill="black"/>
<path d="M29.2929 35.2929C29.6834 34.9024 30.3166 34.9024 30.7071 35.2929C31.4212 36.0069 32.5788 36.0069 33.2929 35.2929C33.6834 34.9024 34.3166 34.9024 34.7071 35.2929C35.0976 35.6834 35.0976 36.3166 34.7071 36.7071C33.212 38.2022 30.788 38.2022 29.2929 36.7071C28.9024 36.3166 28.9024 35.6834 29.2929 35.2929Z" fill="black"/>
<path d="M30.2 29.5C30.2 28.6716 29.5284 28 28.7 28C27.8716 28 27.2 28.6716 27.2 29.5C27.2 30.3284 27.8716 31 28.7 31C29.5284 31 30.2 30.3284 30.2 29.5Z" fill="black"/>
<path d="M35.3 28C36.1284 28 36.8 28.6716 36.8 29.5C36.8 30.3284 36.1284 31 35.3 31C34.4716 31 33.8 30.3284 33.8 29.5C33.8 28.6716 34.4716 28 35.3 28Z" fill="black"/>
<path fill-rule="evenodd" clip-rule="evenodd" d="M72 23C73.7691 23 75.419 23.5104 76.8104 24.3921C76.3187 24.7564 76 25.341 76 26C76 27.1046 76.8954 28 78 28C78 29.1046 78.8954 30 80 30C80.2627 30 80.5136 29.9494 80.7434 29.8573C80.9111 30.544 81 31.2616 81 32C81 36.9706 76.9706 41 72 41C67.0294 41 63 36.9706 63 32C63 27.0294 67.0294 23 72 23ZM70.7071 35.2929C70.3166 34.9024 69.6834 34.9024 69.2929 35.2929C68.9024 35.6834 68.9024 36.3166 69.2929 36.7071C70.788 38.2022 73.212 38.2022 74.7071 36.7071C75.0976 36.3166 75.0976 35.6834 74.7071 35.2929C74.3166 34.9024 73.6834 34.9024 73.2929 35.2929C72.5788 36.0069 71.4212 36.0069 70.7071 35.2929ZM70.2 29.5C70.2 28.6716 69.5284 28 68.7 28C67.8716 28 67.2 28.6716 67.2 29.5C67.2 30.3284 67.8716 31 68.7 31C69.5284 31 70.2 30.3284 70.2 29.5ZM75.3 28C76.1284 28 76.8 28.6716 76.8 29.5C76.8 30.3284 76.1284 31 75.3 31C74.4716 31 73.8 30.3284 73.8 29.5C73.8 28.6716 74.4716 28 75.3 28Z" fill="black"/>
<path d="M81 24C81 23.4477 80.5523 23 80 23C79.4477 23 79 23.4477 79 24V25H78C77.4477 25 77 25.4477 77 26C77 26.5523 77.4477 27 78 27H79V28C79 28.5523 79.4477 29 80 29C80.5523 29 81 28.5523 81 28V27H82C82.5523 27 83 26.5523 83 26C83 25.4477 82.5523 25 82 25H81V24Z" fill="black"/>
</svg>
