<svg width="104" height="64" viewBox="0 0 104 64" fill="none" xmlns="http://www.w3.org/2000/svg">
<path d="M28.7 28C29.5284 28 30.2 28.6716 30.2 29.5C30.2 30.3284 29.5284 31 28.7 31C27.8716 31 27.2 30.3284 27.2 29.5C27.2 28.6716 27.8716 28 28.7 28Z" fill="black"/>
<path d="M36.8 29.5C36.8 28.6716 36.1284 28 35.3 28C34.4716 28 33.8 28.6716 33.8 29.5C33.8 30.3284 34.4716 31 35.3 31C36.1284 31 36.8 30.3284 36.8 29.5Z" fill="black"/>
<path d="M30.7071 35.2929C30.3166 34.9024 29.6834 34.9024 29.2929 35.2929C28.9024 35.6834 28.9024 36.3166 29.2929 36.7071C30.788 38.2022 33.212 38.2022 34.7071 36.7071C35.0976 36.3166 35.0976 35.6834 34.7071 35.2929C34.3166 34.9024 33.6834 34.9024 33.2929 35.2929C32.5788 36.0069 31.4212 36.0069 30.7071 35.2929Z" fill="black"/>
<path fill-rule="evenodd" clip-rule="evenodd" d="M32 22C26.4772 22 22 26.4772 22 32C22 37.5228 26.4772 42 32 42C37.5228 42 42 37.5228 42 32C42 26.4772 37.5228 22 32 22ZM24 32C24 27.5817 27.5817 24 32 24C36.4183 24 40 27.5817 40 32C40 36.4183 36.4183 40 32 40C27.5817 40 24 36.4183 24 32Z" fill="black"/>
<path fill-rule="evenodd" clip-rule="evenodd" d="M72 41C76.9706 41 81 36.9706 81 32C81 27.0294 76.9706 23 72 23C67.0294 23 63 27.0294 63 32C63 36.9706 67.0294 41 72 41ZM70.7071 35.2929C70.3166 34.9024 69.6834 34.9024 69.2929 35.2929C68.9024 35.6834 68.9024 36.3166 69.2929 36.7071C70.788 38.2022 73.212 38.2022 74.7071 36.7071C75.0976 36.3166 75.0976 35.6834 74.7071 35.2929C74.3166 34.9024 73.6834 34.9024 73.2929 35.2929C72.5788 36.0069 71.4212 36.0069 70.7071 35.2929ZM70.2 29.5C70.2 28.6716 69.5284 28 68.7 28C67.8716 28 67.2 28.6716 67.2 29.5C67.2 30.3284 67.8716 31 68.7 31C69.5284 31 70.2 30.3284 70.2 29.5ZM75.3 28C76.1284 28 76.8 28.6716 76.8 29.5C76.8 30.3284 76.1284 31 75.3 31C74.4716 31 73.8 30.3284 73.8 29.5C73.8 28.6716 74.4716 28 75.3 28Z" fill="black"/>
</svg>
