<svg width="104" height="64" viewBox="0 0 104 64" fill="none" xmlns="http://www.w3.org/2000/svg">
<path fill-rule="evenodd" clip-rule="evenodd" d="M38.5165 31.1781L32.412 32.9223C32.1427 32.9992 31.8572 32.9992 31.5878 32.9223L25.4833 31.1781C24.4257 30.8759 24.0422 29.5759 24.7666 28.7481L30.871 21.7715C31.4687 21.0885 32.5312 21.0885 33.1288 21.7715L39.2333 28.7481C39.9576 29.5759 39.5741 30.8759 38.5165 31.1781ZM26.7909 29.4717L31.9999 30.96L37.2089 29.4717L31.9999 23.5186L26.7909 29.4717Z" fill="black"/>
<path fill-rule="evenodd" clip-rule="evenodd" d="M33.2075 42.0469C32.608 42.8605 31.3918 42.8605 30.7923 42.0469L25.0644 34.2732C24.2155 33.1213 25.3082 31.548 26.684 31.9411L31.9999 33.46L37.3158 31.9411C38.6917 31.548 39.7843 33.1212 38.9355 34.2732L33.2075 42.0469ZM27.544 34.2669L31.9999 40.3142L36.4558 34.2669L32.412 35.4223C32.1427 35.4992 31.8572 35.4992 31.5878 35.4223L27.544 34.2669Z" fill="black"/>
<path d="M65.7575 30.2166L71.862 31.9607C71.9517 31.9864 72.0469 31.9864 72.1367 31.9607L78.2412 30.2166C78.5937 30.1159 78.7215 29.6825 78.4801 29.4066L72.3756 22.43C72.1764 22.2024 71.8222 22.2024 71.623 22.43L65.5185 29.4066C65.2771 29.6825 65.4049 30.1159 65.7575 30.2166Z" fill="black"/>
<path d="M71.5968 41.4537L65.8688 33.68C65.5859 33.296 65.9501 32.7716 66.4087 32.9027L71.862 34.4607C71.9517 34.4864 72.0469 34.4864 72.1367 34.4607L77.5899 32.9027C78.0485 32.7716 78.4128 33.296 78.1298 33.68L72.4018 41.4537C72.202 41.7249 71.7966 41.7249 71.5968 41.4537Z" fill="black"/>
</svg>
