<svg width="104" height="64" viewBox="0 0 104 64" fill="none" xmlns="http://www.w3.org/2000/svg">
<path d="M32.6904 23C29.3102 23 26.5316 25.6432 26.3452 29H23.5C22.9477 29 22.5 29.4477 22.5 30C22.5 30.5523 22.9477 31 23.5 31H26.2808L26.2339 32.5H23.5C22.9477 32.5 22.5 32.9477 22.5 33.5C22.5 34.0523 22.9477 34.5 23.5 34.5H26.1714L26.0972 36.8751C26.0266 39.1321 27.8371 41 30.0952 41H37C37.5523 41 38 40.5523 38 40C38 39.4477 37.5523 39 37 39H30.0952C28.9662 39 28.0609 38.066 28.0962 36.9375L28.1724 34.5H32.5C33.0523 34.5 33.5 34.0523 33.5 33.5C33.5 32.9477 33.0523 32.5 32.5 32.5H28.2349L28.2817 31H32.5C33.0523 31 33.5 30.5523 33.5 30C33.5 29.4477 33.0523 29 32.5 29H28.3497C28.5318 26.7529 30.4116 25 32.6904 25H33.7639C34.7556 25 35.6621 25.5603 36.1056 26.4472C36.3526 26.9412 36.9532 27.1414 37.4472 26.8944C37.9412 26.6474 38.1414 26.0468 37.8944 25.5528C37.1122 23.9883 35.5131 23 33.7639 23H32.6904Z" fill="black"/>
<path d="M72.6904 23C69.3102 23 66.5316 25.6432 66.3452 29H63.5C62.9477 29 62.5 29.4477 62.5 30C62.5 30.5523 62.9477 31 63.5 31H66.2808L66.2339 32.5H63.5C62.9477 32.5 62.5 32.9477 62.5 33.5C62.5 34.0523 62.9477 34.5 63.5 34.5H66.1714L66.0972 36.8751C66.0266 39.1321 67.8371 41 70.0952 41H77C77.5523 41 78 40.5523 78 40C78 39.4477 77.5523 39 77 39H70.0952C68.9662 39 68.0609 38.066 68.0962 36.9375L68.1724 34.5H72.5C73.0523 34.5 73.5 34.0523 73.5 33.5C73.5 32.9477 73.0523 32.5 72.5 32.5H68.2349L68.2817 31H72.5C73.0523 31 73.5 30.5523 73.5 30C73.5 29.4477 73.0523 29 72.5 29H68.3497C68.5318 26.7529 70.4116 25 72.6904 25H73.7639C74.7556 25 75.6621 25.5603 76.1056 26.4472C76.3526 26.9412 76.9532 27.1414 77.4472 26.8944C77.9412 26.6474 78.1414 26.0468 77.8944 25.5528C77.1122 23.9883 75.5131 23 73.7639 23H72.6904Z" fill="black"/>
</svg>
