<svg width="104" height="64" viewBox="0 0 104 64" fill="none" xmlns="http://www.w3.org/2000/svg">
<path d="M26 22C23.7909 22 22 23.7909 22 26V28C22 28.5523 22.4477 29 23 29C23.5523 29 24 28.5523 24 28V26C24 24.8954 24.8954 24 26 24H28C28.5523 24 29 23.5523 29 23C29 22.4477 28.5523 22 28 22H26Z" fill="black"/>
<path d="M38 22C40.2091 22 42 23.7909 42 26V28C42 28.5523 41.5523 29 41 29C40.4477 29 40 28.5523 40 28V26C40 24.8954 39.1046 24 38 24H36C35.4477 24 35 23.5523 35 23C35 22.4477 35.4477 22 36 22H38Z" fill="black"/>
<path d="M22 38C22 40.2091 23.7909 42 26 42H28C28.5523 42 29 41.5523 29 41C29 40.4477 28.5523 40 28 40H26C24.8954 40 24 39.1046 24 38V36C24 35.4477 23.5523 35 23 35C22.4477 35 22 35.4477 22 36V38Z" fill="black"/>
<path d="M38 42C40.2091 42 42 40.2091 42 38V36C42 35.4477 41.5523 35 41 35C40.4477 35 40 35.4477 40 36V38C40 39.1046 39.1046 40 38 40H36C35.4477 40 35 40.4477 35 41C35 41.5523 35.4477 42 36 42H38Z" fill="black"/>
<path fill-rule="evenodd" clip-rule="evenodd" d="M62 25C62 23.3431 63.3431 22 65 22H79C80.6569 22 82 23.3431 82 25V39C82 40.6569 80.6569 42 79 42H65C63.3431 42 62 40.6569 62 39V25ZM63.5 26.5C63.5 24.8431 64.8431 23.5 66.5 23.5H68.5C69.0523 23.5 69.5 23.9477 69.5 24.5C69.5 25.0523 69.0523 25.5 68.5 25.5H66.5C65.9477 25.5 65.5 25.9477 65.5 26.5V28.5C65.5 29.0523 65.0523 29.5 64.5 29.5C63.9477 29.5 63.5 29.0523 63.5 28.5V26.5ZM77.5 23.5C79.1569 23.5 80.5 24.8431 80.5 26.5V28.5C80.5 29.0523 80.0523 29.5 79.5 29.5C78.9477 29.5 78.5 29.0523 78.5 28.5V26.5C78.5 25.9477 78.0523 25.5 77.5 25.5H74.5C73.9477 25.5 73.5 25.0523 73.5 24.5C73.5 23.9477 73.9477 23.5 74.5 23.5H77.5ZM63.5 37.5C63.5 39.1569 64.8431 40.5 66.5 40.5H68.5C69.0523 40.5 69.5 40.0523 69.5 39.5C69.5 38.9477 69.0523 38.5 68.5 38.5H66.5C65.9477 38.5 65.5 38.0523 65.5 37.5V34.5C65.5 33.9477 65.0523 33.5 64.5 33.5C63.9477 33.5 63.5 33.9477 63.5 34.5V37.5ZM77.5 40.5C79.1569 40.5 80.5 39.1569 80.5 37.5V34.5C80.5 33.9477 80.0523 33.5 79.5 33.5C78.9477 33.5 78.5 33.9477 78.5 34.5V37.5C78.5 38.0523 78.0523 38.5 77.5 38.5H74.5C73.9477 38.5 73.5 38.9477 73.5 39.5C73.5 40.0523 73.9477 40.5 74.5 40.5H77.5Z" fill="black"/>
</svg>
