<svg width="104" height="64" viewBox="0 0 104 64" fill="none" xmlns="http://www.w3.org/2000/svg">
<path d="M40.7069 23.2929C41.0974 23.6834 41.0974 24.3166 40.7069 24.7071L24.7069 40.7071C24.3163 41.0976 23.6832 41.0976 23.2926 40.7071C22.9021 40.3166 22.9021 39.6834 23.2926 39.2929L39.2926 23.2929C39.6832 22.9024 40.3163 22.9024 40.7069 23.2929Z" fill="black"/>
<path d="M35.7993 25.372C34.673 24.8416 33.403 24.5 31.9997 24.5C29.0556 24.5 26.6985 26.0037 25.0233 27.5997C23.3443 29.1993 22.2549 30.9797 21.8236 31.7498C21.541 32.2545 21.5073 32.8571 21.7393 33.3924C21.9013 33.7662 22.1768 34.3452 22.5829 35.0172C22.8686 35.4899 23.4833 35.6415 23.956 35.3559C24.4287 35.0702 24.5803 34.4555 24.2946 33.9828C23.968 33.4423 23.7414 32.9749 23.6039 32.6644C24.0096 31.9493 24.9706 30.4123 26.4029 29.0477C27.8824 27.6382 29.7698 26.5 31.9997 26.5C32.8018 26.5 33.5595 26.6472 34.2699 26.9014L35.7993 25.372Z" fill="black"/>
<path d="M37.6903 29.1379C39.0708 30.4795 39.9987 31.965 40.3956 32.6644C40.2581 32.9749 40.0315 33.4423 39.7048 33.9828C39.4192 34.4555 39.5708 35.0702 40.0435 35.3559C40.5161 35.6415 41.1309 35.4899 41.4165 35.0172C41.8226 34.3452 42.0982 33.7662 42.2602 33.3924C42.4922 32.8571 42.4585 32.2545 42.1759 31.7498C41.7557 30.9995 40.7108 29.2903 39.1046 27.7235L37.6903 29.1379Z" fill="black"/>
<path d="M31.9998 28C32.3632 28 32.7175 28.0388 33.0589 28.1124L31.0011 30.1702C30.1476 30.4714 29.4712 31.1478 29.17 32.0013L27.1122 34.0592C27.0385 33.7178 26.9998 33.3634 26.9998 33C26.9998 30.2386 29.2383 28 31.9998 28Z" fill="black"/>
<path d="M31.9998 36C31.6489 36 31.3121 35.9398 30.9991 35.8291L29.4981 37.3301C30.2339 37.7561 31.0883 38 31.9998 38C34.7612 38 36.9998 35.7614 36.9998 33C36.9998 32.0886 36.7559 31.2341 36.3299 30.4983L34.8288 31.9994C34.9395 32.3123 34.9998 32.6491 34.9998 33C34.9998 34.6569 33.6566 36 31.9998 36Z" fill="black"/>
<path d="M80.7069 23.2929C81.0974 23.6834 81.0974 24.3166 80.7069 24.7071L64.7069 40.7071C64.3163 41.0976 63.6832 41.0976 63.2926 40.7071C62.9021 40.3166 62.9021 39.6834 63.2926 39.2929L79.2926 23.2929C79.6832 22.9024 80.3163 22.9024 80.7069 23.2929Z" fill="black"/>
<path d="M75.7993 25.372C74.673 24.8416 73.403 24.5 71.9997 24.5C69.0556 24.5 66.6985 26.0037 65.0233 27.5997C63.3443 29.1993 62.2549 30.9797 61.8236 31.7498C61.541 32.2545 61.5073 32.8571 61.7393 33.3924C61.9013 33.7662 62.1768 34.3452 62.5829 35.0172C62.8686 35.4899 63.4833 35.6415 63.956 35.3559C64.4287 35.0702 64.5803 34.4555 64.2946 33.9828C63.968 33.4423 63.7414 32.9749 63.6039 32.6644C64.0096 31.9493 64.9706 30.4123 66.4029 29.0477C67.8824 27.6382 69.7698 26.5 71.9997 26.5C72.8018 26.5 73.5595 26.6472 74.2699 26.9014L75.7993 25.372Z" fill="black"/>
<path d="M77.6903 29.1379C79.0708 30.4795 79.9987 31.965 80.3956 32.6644C80.2581 32.9749 80.0315 33.4423 79.7048 33.9828C79.4192 34.4555 79.5708 35.0702 80.0435 35.3559C80.5161 35.6415 81.1309 35.4899 81.4165 35.0172C81.8226 34.3452 82.0982 33.7662 82.2602 33.3924C82.4922 32.8571 82.4585 32.2545 82.1759 31.7498C81.7557 30.9995 80.7108 29.2903 79.1046 27.7235L77.6903 29.1379Z" fill="black"/>
<path d="M71.9998 29C72.0561 29 72.1121 29.0012 72.1679 29.0035L68.0032 33.1681C68.0009 33.1124 67.9998 33.0563 67.9998 33C67.9998 30.7909 69.7906 29 71.9998 29Z" fill="black"/>
<path d="M71.9998 37C71.367 37 70.7686 36.8531 70.2367 36.5915L75.5912 31.2369C75.8528 31.7688 75.9998 32.3672 75.9998 33C75.9998 35.2091 74.2089 37 71.9998 37Z" fill="black"/>
</svg>
