<svg width="104" height="64" viewBox="0 0 104 64" fill="none" xmlns="http://www.w3.org/2000/svg">
<path d="M24.2946 33.9828C24.5803 34.4555 24.4287 35.0702 23.956 35.3559C23.4833 35.6415 22.8686 35.4899 22.5829 35.0172C22.1768 34.3452 21.9013 33.7662 21.7393 33.3924C21.5073 32.8571 21.541 32.2545 21.8236 31.7498C22.2549 30.9797 23.3443 29.1993 25.0233 27.5997C26.6985 26.0037 29.0556 24.5 31.9997 24.5C34.9438 24.5 37.301 26.0037 38.9761 27.5997C40.6552 29.1993 41.7446 30.9797 42.1759 31.7498C42.4585 32.2545 42.4922 32.8571 42.2602 33.3924C42.0982 33.7662 41.8226 34.3452 41.4165 35.0172C41.1309 35.4899 40.5161 35.6415 40.0435 35.3559C39.5708 35.0702 39.4192 34.4555 39.7048 33.9828C40.0315 33.4423 40.2581 32.9749 40.3956 32.6644C39.9898 31.9493 39.0289 30.4123 37.5966 29.0477C36.1171 27.6382 34.2297 26.5 31.9997 26.5C29.7698 26.5 27.8824 27.6382 26.4029 29.0477C24.9706 30.4123 24.0096 31.9493 23.6039 32.6644C23.7414 32.9749 23.968 33.4423 24.2946 33.9828Z" fill="black"/>
<path fill-rule="evenodd" clip-rule="evenodd" d="M31.9997 28C29.2383 28 26.9997 30.2386 26.9997 33C26.9997 35.7614 29.2383 38 31.9997 38C34.7612 38 36.9997 35.7614 36.9997 33C36.9997 30.2386 34.7612 28 31.9997 28ZM28.9997 33C28.9997 31.3431 30.3429 30 31.9997 30C33.6566 30 34.9997 31.3431 34.9997 33C34.9997 34.6569 33.6566 36 31.9997 36C30.3429 36 28.9997 34.6569 28.9997 33Z" fill="black"/>
<path d="M64.2946 33.9828C64.5803 34.4555 64.4287 35.0702 63.956 35.3559C63.4833 35.6415 62.8686 35.4899 62.5829 35.0172C62.1768 34.3452 61.9013 33.7662 61.7393 33.3924C61.5073 32.8571 61.541 32.2545 61.8236 31.7498C62.2549 30.9797 63.3443 29.1993 65.0233 27.5997C66.6985 26.0037 69.0556 24.5 71.9997 24.5C74.9438 24.5 77.301 26.0037 78.9761 27.5997C80.6552 29.1993 81.7446 30.9797 82.1759 31.7498C82.4585 32.2545 82.4922 32.8571 82.2602 33.3924C82.0982 33.7662 81.8226 34.3452 81.4165 35.0172C81.1309 35.4899 80.5161 35.6415 80.0435 35.3559C79.5708 35.0702 79.4192 34.4555 79.7048 33.9828C80.0315 33.4423 80.2581 32.9749 80.3956 32.6644C79.9898 31.9493 79.0289 30.4123 77.5966 29.0477C76.1171 27.6382 74.2297 26.5 71.9997 26.5C69.7698 26.5 67.8824 27.6382 66.4029 29.0477C64.9706 30.4123 64.0096 31.9493 63.6039 32.6644C63.7414 32.9749 63.968 33.4423 64.2946 33.9828Z" fill="black"/>
<path d="M71.9997 37C74.2089 37 75.9997 35.2091 75.9997 33C75.9997 30.7909 74.2089 29 71.9997 29C69.7906 29 67.9997 30.7909 67.9997 33C67.9997 35.2091 69.7906 37 71.9997 37Z" fill="black"/>
</svg>
