<svg width="104" height="64" viewBox="0 0 104 64" fill="none" xmlns="http://www.w3.org/2000/svg">
<path d="M26 22C23.7909 22 22 23.7909 22 26V28C22 28.5523 22.4477 29 23 29C23.5523 29 24 28.5523 24 28V26C24 24.8954 24.8954 24 26 24H28C28.5523 24 29 23.5523 29 23C29 22.4477 28.5523 22 28 22H26Z" fill="black"/>
<path d="M38 22C40.2091 22 42 23.7909 42 26V28C42 28.5523 41.5523 29 41 29C40.4477 29 40 28.5523 40 28V26C40 24.8954 39.1046 24 38 24H36C35.4477 24 35 23.5523 35 23C35 22.4477 35.4477 22 36 22H38Z" fill="black"/>
<path d="M22 38C22 40.2091 23.7909 42 26 42H28C28.5523 42 29 41.5523 29 41C29 40.4477 28.5523 40 28 40H26C24.8954 40 24 39.1046 24 38V36C24 35.4477 23.5523 35 23 35C22.4477 35 22 35.4477 22 36V38Z" fill="black"/>
<path d="M38 42C40.2091 42 42 40.2091 42 38V36C42 35.4477 41.5523 35 41 35C40.4477 35 40 35.4477 40 36V38C40 39.1046 39.1046 40 38 40H36C35.4477 40 35 40.4477 35 41C35 41.5523 35.4477 42 36 42H38Z" fill="black"/>
<path d="M26.75 28.25C26.75 28.9404 27.3096 29.5 28 29.5C28.6904 29.5 29.25 28.9404 29.25 28.25C29.25 27.5596 28.6904 27 28 27C27.3096 27 26.75 27.5596 26.75 28.25Z" fill="black"/>
<path d="M36 29.5C35.3096 29.5 34.75 28.9404 34.75 28.25C34.75 27.5596 35.3096 27 36 27C36.6904 27 37.25 27.5596 37.25 28.25C37.25 28.9404 36.6904 29.5 36 29.5Z" fill="black"/>
<path d="M29.1056 35.5528C29.3526 35.0588 29.9532 34.8586 30.4472 35.1056C31.4247 35.5943 32.5753 35.5943 33.5528 35.1056C34.0468 34.8586 34.6474 35.0588 34.8944 35.5528C35.1414 36.0468 34.9412 36.6474 34.4472 36.8944C32.9067 37.6647 31.0933 37.6647 29.5528 36.8944C29.0588 36.6474 28.8586 36.0468 29.1056 35.5528Z" fill="black"/>
<path d="M32.8944 30.0528C32.6474 29.5588 32.0468 29.3586 31.5528 29.6056C31.0588 29.8526 30.8586 30.4532 31.1056 30.9472L31.6328 32.0017C31.5483 32.1484 31.5 32.3186 31.5 32.5C31.5 33.0523 31.9477 33.5 32.5 33.5H32.6764C33.5685 33.5 34.1486 32.5612 33.7497 31.7633L32.8944 30.0528Z" fill="black"/>
<path d="M66 22C63.7909 22 62 23.7909 62 26V28C62 28.5523 62.4477 29 63 29C63.5523 29 64 28.5523 64 28V26C64 24.8954 64.8954 24 66 24H68C68.5523 24 69 23.5523 69 23C69 22.4477 68.5523 22 68 22H66Z" fill="black"/>
<path d="M78 22C80.2091 22 82 23.7909 82 26V28C82 28.5523 81.5523 29 81 29C80.4477 29 80 28.5523 80 28V26C80 24.8954 79.1046 24 78 24H76C75.4477 24 75 23.5523 75 23C75 22.4477 75.4477 22 76 22H78Z" fill="black"/>
<path d="M62 38C62 40.2091 63.7909 42 66 42H68C68.5523 42 69 41.5523 69 41C69 40.4477 68.5523 40 68 40H66C64.8954 40 64 39.1046 64 38V36C64 35.4477 63.5523 35 63 35C62.4477 35 62 35.4477 62 36V38Z" fill="black"/>
<path d="M78 42C80.2091 42 82 40.2091 82 38V36C82 35.4477 81.5523 35 81 35C80.4477 35 80 35.4477 80 36V38C80 39.1046 79.1046 40 78 40H76C75.4477 40 75 40.4477 75 41C75 41.5523 75.4477 42 76 42H78Z" fill="black"/>
<path d="M66.75 28.25C66.75 28.9404 67.3096 29.5 68 29.5C68.6904 29.5 69.25 28.9404 69.25 28.25C69.25 27.5596 68.6904 27 68 27C67.3096 27 66.75 27.5596 66.75 28.25Z" fill="black"/>
<path d="M76 29.5C75.3096 29.5 74.75 28.9404 74.75 28.25C74.75 27.5596 75.3096 27 76 27C76.6904 27 77.25 27.5596 77.25 28.25C77.25 28.9404 76.6904 29.5 76 29.5Z" fill="black"/>
<path d="M69.1056 35.5528C69.3526 35.0588 69.9532 34.8586 70.4472 35.1056C71.4247 35.5943 72.5753 35.5943 73.5528 35.1056C74.0468 34.8586 74.6474 35.0588 74.8944 35.5528C75.1414 36.0468 74.9412 36.6474 74.4472 36.8944C72.9067 37.6647 71.0933 37.6647 69.5528 36.8944C69.0588 36.6474 68.8586 36.0468 69.1056 35.5528Z" fill="black"/>
<path d="M72.8944 30.0528C72.6474 29.5588 72.0468 29.3586 71.5528 29.6056C71.0588 29.8526 70.8586 30.4532 71.1056 30.9472L71.6328 32.0017C71.5483 32.1484 71.5 32.3186 71.5 32.5C71.5 33.0523 71.9477 33.5 72.5 33.5H72.6764C73.5685 33.5 74.1486 32.5612 73.7497 31.7633L72.8944 30.0528Z" fill="black"/>
</svg>
