<svg width="104" height="64" viewBox="0 0 104 64" fill="none" xmlns="http://www.w3.org/2000/svg">
<path fill-rule="evenodd" clip-rule="evenodd" d="M40.9664 22.0006C41.4965 21.9823 41.9487 22.3812 41.9967 22.9095C42.1315 24.3921 41.9842 25.6131 41.56 26.5985C41.1274 27.6035 40.4344 28.2979 39.6067 28.7518C38.546 29.3335 37.2786 29.5075 36.0889 29.5341C36.4141 30.6795 36.2248 31.7253 35.6009 32.5226C34.7753 33.5774 33.2712 34.0032 32.0536 33.3944C30.8419 32.7886 29.9774 32.7976 29.328 33.0432C28.6413 33.3028 28.0111 33.8959 27.4303 34.8021C26.4103 36.3936 25.7645 38.574 25.2155 40.4279C25.1274 40.7252 25.0418 41.0144 24.9575 41.2912C24.8054 41.7911 24.294 42.0896 23.7839 41.9762C23.2738 41.8628 22.937 41.3759 23.0109 40.8586C23.4456 37.8158 24.8437 33.254 27.6536 29.3758C30.481 25.4734 34.7828 22.2138 40.9664 22.0006ZM28.9039 31.076C30.1195 30.7076 31.4753 30.8692 32.9481 31.6056C33.2305 31.7468 33.7264 31.6726 34.0258 31.29C34.2469 31.0075 34.5052 30.3093 33.6688 29.0547C33.459 28.74 33.4447 28.3338 33.6319 28.0051C33.8191 27.6765 34.1757 27.4815 34.5534 27.5014C36.1652 27.5862 37.6358 27.5517 38.645 26.9982C39.1089 26.7438 39.4785 26.3756 39.723 25.8077C39.9049 25.3851 40.0307 24.8201 40.044 24.0644C35.1535 24.5401 31.678 27.23 29.2731 30.5492C29.147 30.7233 29.024 30.899 28.9039 31.076Z" fill="black"/>
<path d="M23.6127 26.6498C23.4524 26.1687 23.0749 25.7912 22.5938 25.6308C22.1042 25.4676 22.1042 24.7751 22.5938 24.6119C23.0749 24.4515 23.4524 24.074 23.6127 23.5929C23.7759 23.1033 24.4685 23.1033 24.6317 23.5929C24.792 24.074 25.1695 24.4515 25.6506 24.6119C26.1402 24.7751 26.1402 25.4676 25.6506 25.6308C25.1695 25.7912 24.792 26.1687 24.6317 26.6498C24.4685 27.1394 23.7759 27.1394 23.6127 26.6498Z" fill="black"/>
<path d="M32.5937 38.6308C33.0748 38.7912 33.4523 39.1687 33.6127 39.6497C33.7759 40.1394 34.4684 40.1394 34.6316 39.6497C34.792 39.1687 35.1695 38.7912 35.6506 38.6308C36.1402 38.4676 36.1402 37.7751 35.6506 37.6119C35.1695 37.4515 34.792 37.074 34.6316 36.5929C34.4684 36.1033 33.7759 36.1033 33.6127 36.5929C33.4523 37.074 33.0748 37.4515 32.5937 37.6119C32.1041 37.7751 32.1041 38.4676 32.5937 38.6308Z" fill="black"/>
<path d="M80.9049 23.0036C70.6329 23.4147 65.9059 32.7611 64.4094 38.9088C64.2799 39.4407 64.2642 40.1699 64.8007 40.2789C65.1455 40.3489 65.5289 40.132 65.6858 39.604C66.8675 35.6251 68.0009 30.6267 72.5009 32.5C73.9724 33.2358 76.4062 31.5656 74.61 28.6696C74.5666 28.5997 74.6173 28.5061 74.6995 28.51C77.8065 28.6566 81.4463 28.3888 81.0092 23.0967C81.0049 23.0438 80.9579 23.0015 80.9049 23.0036Z" fill="black"/>
<path d="M63.6127 26.6498C63.4524 26.1687 63.0749 25.7912 62.5938 25.6308C62.1042 25.4676 62.1042 24.7751 62.5938 24.6119C63.0749 24.4515 63.4524 24.074 63.6127 23.5929C63.7759 23.1033 64.4685 23.1033 64.6317 23.5929C64.792 24.074 65.1695 24.4515 65.6506 24.6119C66.1402 24.7751 66.1402 25.4676 65.6506 25.6308C65.1695 25.7912 64.792 26.1687 64.6317 26.6498C64.4685 27.1394 63.7759 27.1394 63.6127 26.6498Z" fill="black"/>
<path d="M72.5937 38.6308C73.0748 38.7912 73.4523 39.1687 73.6127 39.6498C73.7759 40.1394 74.4684 40.1394 74.6316 39.6498C74.792 39.1687 75.1695 38.7912 75.6506 38.6308C76.1402 38.4676 76.1402 37.7751 75.6506 37.6119C75.1695 37.4515 74.792 37.074 74.6316 36.5929C74.4684 36.1033 73.7759 36.1033 73.6127 36.5929C73.4523 37.074 73.0748 37.4515 72.5937 37.6119C72.1041 37.7751 72.1041 38.4676 72.5937 38.6308Z" fill="black"/>
</svg>
