<svg width="104" height="64" viewBox="0 0 104 64" fill="none" xmlns="http://www.w3.org/2000/svg">
<path fill-rule="evenodd" clip-rule="evenodd" d="M41.9959 22.9095C41.9479 22.3812 41.4957 21.9823 40.9655 22.0006C34.7819 22.2138 30.4801 25.4733 27.6527 29.3758C24.8429 33.2539 23.4447 37.8158 23.0101 40.8586C22.9362 41.3759 23.273 41.8628 23.7831 41.9762C24.2932 42.0895 24.8045 41.7911 24.9567 41.2912C25.0409 41.0144 25.1265 40.7255 25.2145 40.4281C25.7636 38.5742 26.4094 36.3935 27.4294 34.8021C28.0102 33.8959 28.6405 33.3028 29.3272 33.0432C29.9765 32.7976 30.8411 32.7886 32.0528 33.3944C33.2703 34.0032 34.7745 33.5774 35.6 32.5226C36.2239 31.7253 36.4133 30.6795 36.088 29.5341C37.2777 29.5075 38.5452 29.3335 39.6058 28.7518C40.4336 28.2979 41.1265 27.6035 41.5591 26.5985C41.9833 25.6131 42.1307 24.3921 41.9959 22.9095ZM32.9472 31.6056C31.4744 30.8692 30.1187 30.7075 28.903 31.076C29.0231 30.899 29.1462 30.7233 29.2723 30.5492C31.6771 27.23 35.1526 24.54 40.0431 24.0643C40.0298 24.8201 39.9041 25.385 39.7221 25.8077C39.4777 26.3756 39.1081 26.7438 38.6442 26.9982C37.6349 27.5517 36.1643 27.5862 34.5526 27.5014C34.1748 27.4815 33.8182 27.6764 33.631 28.0051C33.4439 28.3338 33.4581 28.74 33.668 29.0547C34.5044 30.3093 34.2461 31.0075 34.025 31.2899C33.7255 31.6726 33.2297 31.7468 32.9472 31.6056Z" fill="black"/>
<path d="M25 23C25 22.4477 24.5523 22 24 22C23.4477 22 23 22.4477 23 23V24H22C21.4477 24 21 24.4477 21 25C21 25.5523 21.4477 26 22 26H23V27C23 27.5523 23.4477 28 24 28C24.5523 28 25 27.5523 25 27V26H26C26.5523 26 27 25.5523 27 25C27 24.4477 26.5523 24 26 24H25V23Z" fill="black"/>
<path d="M65 23C65 22.4477 64.5523 22 64 22C63.4477 22 63 22.4477 63 23V24H62C61.4477 24 61 24.4477 61 25C61 25.5523 61.4477 26 62 26H63V27C63 27.5523 63.4477 28 64 28C64.5523 28 65 27.5523 65 27V26H66C66.5523 26 67 25.5523 67 25C67 24.4477 66.5523 24 66 24H65V23Z" fill="black"/>
<path d="M64.395 38.9545C65.8915 32.8069 70.6184 23.4605 80.8905 23.0494C80.9435 23.0473 80.9905 23.0896 80.9948 23.1425C81.4319 28.4345 77.7921 28.7023 74.6851 28.5558C74.6029 28.5519 74.5522 28.6455 74.5956 28.7154C76.3918 31.6114 73.9579 33.2816 72.4864 32.5458C68.2586 30.7858 67.0024 35.0915 65.8859 38.9185C65.8141 39.1648 65.7428 39.4091 65.6713 39.6497C65.5145 40.1778 65.1311 40.3947 64.7863 40.3247C64.2497 40.2156 64.2655 39.4865 64.395 38.9545Z" fill="black"/>
</svg>
