<svg width="104" height="64" viewBox="0 0 104 64" fill="none" xmlns="http://www.w3.org/2000/svg">
<path fill-rule="evenodd" clip-rule="evenodd" d="M41.996 22.9095C41.948 22.3812 41.4958 21.9823 40.9656 22.0006C34.782 22.2138 30.4802 25.4733 27.6528 29.3758C24.843 33.2539 23.4448 37.8158 23.0102 40.8586C22.9363 41.3759 23.2731 41.8628 23.7832 41.9762C24.2933 42.0895 24.8046 41.7911 24.9568 41.2912C25.041 41.0143 25.1266 40.7253 25.2147 40.4279C25.7638 38.5739 26.4095 36.3935 27.4295 34.8021C28.0103 33.8959 28.6406 33.3028 29.3273 33.0432C29.9766 32.7976 30.8412 32.7886 32.0529 33.3944C33.2704 34.0032 34.7746 33.5774 35.6001 32.5226C36.224 31.7253 36.4134 30.6795 36.0881 29.5341C37.2778 29.5075 38.5453 29.3335 39.6059 28.7518C40.4337 28.2979 41.1266 27.6035 41.5592 26.5985C41.9834 25.6131 42.1308 24.3921 41.996 22.9095ZM32.9473 31.6056C31.4745 30.8692 30.1188 30.7075 28.9031 31.076C29.0232 30.899 29.1463 30.7233 29.2724 30.5492C31.6772 27.23 35.1527 24.54 40.0432 24.0643C40.0299 24.8201 39.9042 25.385 39.7222 25.8077C39.4778 26.3756 39.1082 26.7438 38.6443 26.9982C37.635 27.5517 36.1644 27.5862 34.5527 27.5014C34.1749 27.4815 33.8183 27.6764 33.6311 28.0051C33.444 28.3338 33.4582 28.74 33.6681 29.0547C34.5045 30.3093 34.2462 31.0075 34.0251 31.2899C33.7256 31.6726 33.2298 31.7468 32.9473 31.6056Z" fill="black"/>
<path d="M64.3957 38.9545C65.8922 32.8069 70.6192 23.4605 80.8912 23.0494C80.9442 23.0473 80.9912 23.0896 80.9956 23.1425C81.4327 28.4345 77.7928 28.7023 74.6858 28.5558C74.6036 28.5519 74.5529 28.6455 74.5963 28.7154C76.3926 31.6114 73.9587 33.2816 72.4872 32.5458C68.2593 30.7858 67.0032 35.0915 65.8867 38.9185C65.8148 39.1648 65.7435 39.4091 65.6721 39.6497C65.5152 40.1778 65.1318 40.3947 64.787 40.3247C64.2505 40.2156 64.2662 39.4865 64.3957 38.9545Z" fill="black"/>
</svg>
