<svg width="104" height="64" viewBox="0 0 104 64" fill="none" xmlns="http://www.w3.org/2000/svg">
<path fill-rule="evenodd" clip-rule="evenodd" d="M27 23C25.8954 23 25 23.8954 25 25V39C25 40.1046 25.8954 41 27 41H29C29.5523 41 30 41.4477 30 42C30 42.5523 29.5523 43 29 43H27C24.7909 43 23 41.2091 23 39V25C23 22.7909 24.7909 21 27 21H33.5949C34.782 21 35.9078 21.5273 36.6678 22.4393L40.0729 26.5254C40.6719 27.2443 41 28.1504 41 29.0861V39C41 41.2091 39.2091 43 37 43H35C34.4477 43 34 42.5523 34 42C34 41.4477 34.4477 41 35 41H37C38.1046 41 39 40.1046 39 39V30H37C34.7909 30 33 28.2091 33 26V23H27ZM38.5364 27.8058C38.5882 27.8679 38.6359 27.9327 38.6794 28H37C35.8954 28 35 27.1046 35 26V23.5767C35.0458 23.622 35.0897 23.6697 35.1313 23.7196L38.5364 27.8058Z" fill="black"/>
<path d="M34.1644 40.4141L32.6644 41.7474C32.2855 42.0842 31.7145 42.0842 31.3356 41.7474L29.8356 40.4141C29.4229 40.0472 29.3857 39.4151 29.7526 39.0023C30.0736 38.6412 30.5975 38.5675 31 38.8004V34C31 33.4477 31.4477 33 32 33C32.5523 33 33 33.4477 33 34V38.8004C33.4025 38.5675 33.9264 38.6412 34.2474 39.0023C34.6143 39.4151 34.5771 40.0472 34.1644 40.4141Z" fill="black"/>
<path d="M73 22H67C65.3431 22 64 23.3431 64 25V39C64 40.6569 65.3431 42 67 42H68.6094L68.5069 41.9089C67.2686 40.8081 67.157 38.9119 68.2578 37.6736C68.4774 37.4265 68.7286 37.2243 69 37.0677V34C69 32.3431 70.3431 31 72 31C73.6569 31 75 32.3431 75 34V37.0677C75.2714 37.2243 75.5226 37.4265 75.7422 37.6736C76.843 38.9119 76.7314 40.8081 75.4931 41.9089L75.3906 42H77C78.6569 42 80 40.6569 80 39V30H77C74.7909 30 73 28.2091 73 26V22Z" fill="black"/>
<path d="M79.7965 28C79.6797 27.6993 79.5143 27.4172 79.3047 27.1656L75.8995 23.0794C75.6469 22.7763 75.3405 22.5299 75 22.3494V26C75 27.1046 75.8954 28 77 28H79.7965Z" fill="black"/>
<path d="M74.1644 40.4141L72.6644 41.7474C72.2855 42.0842 71.7145 42.0842 71.3356 41.7474L69.8356 40.4141C69.4229 40.0472 69.3857 39.4151 69.7526 39.0023C70.0736 38.6412 70.5975 38.5675 71 38.8004V34C71 33.4477 71.4477 33 72 33C72.5523 33 73 33.4477 73 34V38.8004C73.4025 38.5675 73.9264 38.6412 74.2474 39.0023C74.6143 39.4151 74.5771 40.0472 74.1644 40.4141Z" fill="black"/>
</svg>
