<svg width="104" height="64" viewBox="0 0 104 64" fill="none" xmlns="http://www.w3.org/2000/svg">
<path d="M73 22H67C65.3431 22 64 23.3431 64 25V34.5H67.1602C67.6908 34.5 68.2017 34.7163 68.5897 35.1051L70.8344 37.3551C71.7219 38.2446 71.7219 39.7554 70.8344 40.6449L69.4825 42H77C78.6569 42 80 40.6569 80 39V30H77C74.7909 30 73 28.2091 73 26V22Z" fill="black"/>
<path d="M79.7965 28C79.6797 27.6993 79.5143 27.4172 79.3047 27.1656L75.8995 23.0794C75.6469 22.7763 75.3405 22.5299 75 22.3494V26C75 27.1046 75.8954 28 77 28H79.7965Z" fill="black"/>
<path d="M64.7071 36.2929C65.0976 36.6834 65.0976 37.3166 64.7071 37.7071L63.4142 39L64.7071 40.2929C65.0976 40.6834 65.0976 41.3166 64.7071 41.7071C64.3166 42.0976 63.6834 42.0976 63.2929 41.7071L61.2929 39.7071C61.1054 39.5196 61 39.2652 61 39C61 38.7348 61.1054 38.4804 61.2929 38.2929L63.2929 36.2929C63.6834 35.9024 64.3166 35.9024 64.7071 36.2929Z" fill="black"/>
<path d="M66.2929 37.7071C65.9024 37.3166 65.9024 36.6834 66.2929 36.2929C66.6834 35.9024 67.3166 35.9024 67.7071 36.2929L69.7071 38.2929C69.8946 38.4804 70 38.7348 70 39C70 39.2652 69.8946 39.5196 69.7071 39.7071L67.7071 41.7071C67.3166 42.0976 66.6834 42.0976 66.2929 41.7071C65.9024 41.3166 65.9024 40.6834 66.2929 40.2929L67.5858 39L66.2929 37.7071Z" fill="black"/>
<path fill-rule="evenodd" clip-rule="evenodd" d="M27 21C24.7909 21 23 22.7909 23 25V34C23 34.5523 23.4477 35 24 35C24.5523 35 25 34.5523 25 34V25C25 23.8954 25.8954 23 27 23H33V26C33 28.2091 34.7909 30 37 30H39V39C39 40.1046 38.1046 41 37 41H30C29.4477 41 29 41.4477 29 42C29 42.5523 29.4477 43 30 43H37C39.2091 43 41 41.2091 41 39V29.0861C41 28.1504 40.6719 27.2443 40.0729 26.5254L36.6678 22.4393C35.9078 21.5273 34.782 21 33.5949 21H27ZM38.6794 28C38.6359 27.9327 38.5882 27.8679 38.5364 27.8058L35.1313 23.7196C35.0897 23.6697 35.0458 23.622 35 23.5767V26C35 27.1046 35.8954 28 37 28H38.6794Z" fill="black"/>
<path d="M24.7071 36.2929C25.0976 36.6834 25.0976 37.3166 24.7071 37.7071L23.4142 39L24.7071 40.2929C25.0976 40.6834 25.0976 41.3166 24.7071 41.7071C24.3166 42.0976 23.6834 42.0976 23.2929 41.7071L21.2929 39.7071C21.1054 39.5196 21 39.2652 21 39C21 38.7348 21.1054 38.4804 21.2929 38.2929L23.2929 36.2929C23.6834 35.9024 24.3166 35.9024 24.7071 36.2929Z" fill="black"/>
<path d="M26.2929 37.7071C25.9024 37.3166 25.9024 36.6834 26.2929 36.2929C26.6834 35.9024 27.3166 35.9024 27.7071 36.2929L29.7071 38.2929C29.8946 38.4804 30 38.7348 30 39C30 39.2652 29.8946 39.5196 29.7071 39.7071L27.7071 41.7071C27.3166 42.0976 26.6834 42.0976 26.2929 41.7071C25.9024 41.3166 25.9024 40.6834 26.2929 40.2929L27.5858 39L26.2929 37.7071Z" fill="black"/>
</svg>
