<svg width="104" height="64" viewBox="0 0 104 64" fill="none" xmlns="http://www.w3.org/2000/svg">
<path d="M27 32C27 31.4477 27.4477 31 28 31H36C36.5523 31 37 31.4477 37 32C37 32.5523 36.5523 33 36 33H28C27.4477 33 27 32.5523 27 32Z" fill="black"/>
<path d="M28 36C27.4477 36 27 36.4477 27 37C27 37.5523 27.4477 38 28 38H36C36.5523 38 37 37.5523 37 37C37 36.4477 36.5523 36 36 36H28Z" fill="black"/>
<path fill-rule="evenodd" clip-rule="evenodd" d="M27 21C24.7909 21 23 22.7909 23 25V39C23 41.2091 24.7909 43 27 43H37C39.2091 43 41 41.2091 41 39V29.0861C41 28.1504 40.6719 27.2443 40.0729 26.5254L36.6678 22.4393C35.9078 21.5273 34.782 21 33.5949 21H27ZM25 25C25 23.8954 25.8954 23 27 23H33V26C33 28.2091 34.7909 30 37 30H39V39C39 40.1046 38.1046 41 37 41H27C25.8954 41 25 40.1046 25 39V25ZM38.6794 28C38.6359 27.9327 38.5882 27.8679 38.5364 27.8058L35.1313 23.7196C35.0897 23.6697 35.0458 23.622 35 23.5767V26C35 27.1046 35.8954 28 37 28H38.6794Z" fill="black"/>
<path fill-rule="evenodd" clip-rule="evenodd" d="M73 22H67C65.3431 22 64 23.3431 64 25V39C64 40.6569 65.3431 42 67 42H77C78.6569 42 80 40.6569 80 39V30H77C74.7909 30 73 28.2091 73 26V22ZM67 32C67 31.4477 67.4477 31 68 31H76C76.5523 31 77 31.4477 77 32C77 32.5523 76.5523 33 76 33H68C67.4477 33 67 32.5523 67 32ZM68 36C67.4477 36 67 36.4477 67 37C67 37.5523 67.4477 38 68 38H76C76.5523 38 77 37.5523 77 37C77 36.4477 76.5523 36 76 36H68Z" fill="black"/>
<path d="M79.7965 28C79.6797 27.6993 79.5143 27.4172 79.3047 27.1656L75.8995 23.0794C75.6469 22.7763 75.3405 22.5299 75 22.3494V26C75 27.1046 75.8954 28 77 28H79.7965Z" fill="black"/>
</svg>
