<svg width="104" height="64" viewBox="0 0 104 64" fill="none" xmlns="http://www.w3.org/2000/svg">
<path fill-rule="evenodd" clip-rule="evenodd" d="M27 23C25.8954 23 25 23.8954 25 25V39C25 40.1046 25.8954 41 27 41H29C29.5523 41 30 41.4477 30 42C30 42.5523 29.5523 43 29 43H27C24.7909 43 23 41.2091 23 39V25C23 22.7909 24.7909 21 27 21H33.5949C34.782 21 35.9078 21.5273 36.6678 22.4393L40.0729 26.5254C40.6719 27.2443 41 28.1504 41 29.0861V39C41 41.2091 39.2091 43 37 43H35C34.4477 43 34 42.5523 34 42C34 41.4477 34.4477 41 35 41H37C38.1046 41 39 40.1046 39 39V30H37C34.7909 30 33 28.2091 33 26V23H27ZM38.5364 27.8058C38.5882 27.8679 38.6359 27.9327 38.6794 28H37C35.8954 28 35 27.1046 35 26V23.5767C35.0458 23.622 35.0897 23.6697 35.1313 23.7196L38.5364 27.8058Z" fill="black"/>
<path d="M32.6644 34.2526C32.2855 33.9158 31.7145 33.9158 31.3356 34.2526L29.8356 35.5859C29.4229 35.9528 29.3857 36.5849 29.7526 36.9977C30.0736 37.3588 30.5975 37.4325 31 37.1996V42C31 42.5523 31.4477 43 32 43C32.5523 43 33 42.5523 33 42V37.1996C33.4025 37.4325 33.9264 37.3588 34.2474 36.9977C34.6143 36.5849 34.5771 35.9528 34.1644 35.5859L32.6644 34.2526Z" fill="black"/>
<path d="M73 22H67C65.3431 22 64 23.3431 64 25V39C64 40.6569 65.3431 42 67 42H69V38.9323C68.7286 38.7757 68.4774 38.5735 68.2578 38.3264C67.157 37.0881 67.2686 35.1919 68.5069 34.0911L70.0069 32.7578C71.1436 31.7474 72.8564 31.7474 73.9931 32.7578L75.4931 34.0911C76.7314 35.1919 76.843 37.0881 75.7422 38.3264C75.5226 38.5735 75.2714 38.7757 75 38.9323V42H77C78.6569 42 80 40.6569 80 39V30H77C74.7909 30 73 28.2091 73 26V22Z" fill="black"/>
<path d="M79.7965 28C79.6797 27.6993 79.5143 27.4172 79.3047 27.1656L75.8995 23.0794C75.6469 22.7763 75.3405 22.5299 75 22.3494V26C75 27.1046 75.8954 28 77 28H79.7965Z" fill="black"/>
<path d="M72.6644 34.2526C72.2855 33.9158 71.7145 33.9158 71.3356 34.2526L69.8356 35.5859C69.4229 35.9528 69.3857 36.5849 69.7526 36.9977C70.0736 37.3588 70.5975 37.4325 71 37.1996V42C71 42.5523 71.4477 43 72 43C72.5523 43 73 42.5523 73 42V37.1996C73.4025 37.4325 73.9264 37.3588 74.2474 36.9977C74.6143 36.5849 74.5771 35.9528 74.1644 35.5859L72.6644 34.2526Z" fill="black"/>
</svg>
