<svg width="104" height="64" viewBox="0 0 104 64" fill="none" xmlns="http://www.w3.org/2000/svg">
<path d="M73 22H67C65.3431 22 64 23.3431 64 25V35.0921C64.2408 35.0319 64.4919 35 64.75 35C66.3406 35 67.6643 36.2099 67.9451 37.8079C69.1389 38.2271 70 39.4188 70 40.8235C70 41.2392 69.9246 41.6362 69.7875 42H77C78.6569 42 80 40.6569 80 39V30H77C74.7909 30 73 28.2091 73 26V22Z" fill="black"/>
<path d="M79.7965 28C79.6797 27.6993 79.5143 27.4172 79.3047 27.1656L75.8995 23.0794C75.6469 22.7763 75.3405 22.5299 75 22.3494V26C75 27.1046 75.8954 28 77 28H79.7965Z" fill="black"/>
<path d="M63.5 42C62.6716 42 62 41.3416 62 40.5294C62 39.9195 62.3787 39.3963 62.9181 39.1736C62.9062 39.088 62.9 39.0006 62.9 38.9118C62.9 37.8559 63.773 37 64.85 37C65.8044 37 66.5986 37.6722 66.767 38.5599C67.4833 38.7928 68 39.4549 68 40.2353C68 41.2099 67.1941 42 66.2 42H63.5Z" fill="black"/>
<path fill-rule="evenodd" clip-rule="evenodd" d="M23 25C23 22.7909 24.7909 21 27 21H33.5949C34.782 21 35.9078 21.5273 36.6678 22.4393L40.0729 26.5254C40.6719 27.2443 41 28.1504 41 29.0861V39C41 41.2091 39.2091 43 37 43H30C29.4477 43 29 42.5523 29 42C29 41.4477 29.4477 41 30 41H37C38.1046 41 39 40.1046 39 39V30H37C34.7909 30 33 28.2091 33 26V23H27C25.8954 23 25 23.8954 25 25V34C25 34.5523 24.5523 35 24 35C23.4477 35 23 34.5523 23 34V25ZM38.5364 27.8058C38.5882 27.8679 38.6359 27.9327 38.6794 28H37C35.8954 28 35 27.1046 35 26V23.5767C35.0458 23.622 35.0897 23.6697 35.1313 23.7196L38.5364 27.8058Z" fill="black"/>
<path fill-rule="evenodd" clip-rule="evenodd" d="M24.85 36C23.3373 36 22.0636 37.1338 21.9146 38.6195C21.3602 39.0694 21 39.7537 21 40.5294C21 41.9125 22.138 43 23.5 43H26.2C27.7276 43 29 41.7808 29 40.2353C29 39.2002 28.427 38.3101 27.5922 37.8365C27.1561 36.7524 26.0847 36 24.85 36ZM23.9 38.9118C23.9 38.4268 24.3066 38 24.85 38C25.329 38 25.7066 38.3354 25.7846 38.7464C25.8526 39.105 26.1107 39.3981 26.4578 39.5109C26.7849 39.6173 27 39.9115 27 40.2353C27 40.6391 26.6606 41 26.2 41H23.5C23.2051 41 23 40.7707 23 40.5294C23 40.3474 23.1128 40.1751 23.2998 40.0978C23.7213 39.9238 23.9716 39.4868 23.9085 39.0352C23.9029 38.9953 23.9 38.9541 23.9 38.9118Z" fill="black"/>
</svg>
