<svg width="104" height="64" viewBox="0 0 104 64" fill="none" xmlns="http://www.w3.org/2000/svg">
<path d="M24 26C24 25.4477 24.4477 25 25 25H39C39.5523 25 40 25.4477 40 26C40 26.5523 39.5523 27 39 27H25C24.4477 27 24 26.5523 24 26Z" fill="black"/>
<path d="M26 32C26 31.4477 26.4477 31 27 31H37C37.5523 31 38 31.4477 38 32C38 32.5523 37.5523 33 37 33H27C26.4477 33 26 32.5523 26 32Z" fill="black"/>
<path d="M29 37C28.4477 37 28 37.4477 28 38C28 38.5523 28.4477 39 29 39H35C35.5523 39 36 38.5523 36 38C36 37.4477 35.5523 37 35 37H29Z" fill="black"/>
<path d="M64 26C64 25.4477 64.4477 25 65 25H79C79.5523 25 80 25.4477 80 26C80 26.5523 79.5523 27 79 27H65C64.4477 27 64 26.5523 64 26Z" fill="black"/>
<path d="M66 32C66 31.4477 66.4477 31 67 31H77C77.5523 31 78 31.4477 78 32C78 32.5523 77.5523 33 77 33H67C66.4477 33 66 32.5523 66 32Z" fill="black"/>
<path d="M69 37C68.4477 37 68 37.4477 68 38C68 38.5523 68.4477 39 69 39H75C75.5523 39 76 38.5523 76 38C76 37.4477 75.5523 37 75 37H69Z" fill="black"/>
</svg>
