<svg width="104" height="64" viewBox="0 0 104 64" fill="none" xmlns="http://www.w3.org/2000/svg">
<path fill-rule="evenodd" clip-rule="evenodd" d="M25.281 22C23.4689 22 22 23.4689 22 25.281C22 25.9542 22.2071 26.611 22.5931 27.1625L28.6385 35.7987C28.8738 36.1349 29 36.5353 29 36.9457V39.1568C29 41.2065 31.157 42.5396 32.9902 41.6229C34.2219 41.0071 35 39.7481 35 38.371V36.9457C35 36.5353 35.1262 36.1349 35.3615 35.7987L41.4069 27.1625C41.7929 26.611 42 25.9541 42 25.281C42 23.4689 40.5311 22 38.719 22H25.281ZM33 38.371C33 38.9906 32.6499 39.557 32.0958 39.8341C31.5923 40.0858 31 39.7197 31 39.1568V36.9457C31 36.125 30.7476 35.3242 30.2769 34.6518L24.2316 26.0156C24.0808 25.8003 24 25.5438 24 25.281C24 24.5735 24.5735 24 25.281 24H38.719C39.4265 24 40 24.5735 40 25.281C40 25.5438 39.9192 25.8003 39.7684 26.0156L33.7231 34.6518C33.2524 35.3242 33 36.125 33 36.9457V38.371Z" fill="black"/>
<path d="M63 25.281C63 24.0212 64.0212 23 65.281 23H78.719C79.9788 23 81 24.0212 81 25.281C81 25.749 80.856 26.2056 80.5877 26.589L74.5423 35.2253C74.1893 35.7295 74 36.3302 74 36.9457V38.371C74 39.3694 73.4359 40.282 72.543 40.7285C71.3747 41.3127 70 40.4631 70 39.1568V36.9457C70 36.3302 69.8107 35.7295 69.4577 35.2253L63.4123 26.589C63.144 26.2056 63 25.749 63 25.281Z" fill="black"/>
</svg>
