<svg width="104" height="64" viewBox="0 0 104 64" fill="none" xmlns="http://www.w3.org/2000/svg">
<path d="M22 37.2V32C22 26.4771 26.4772 22 32 22C37.5228 22 42 26.4772 42 32V41" stroke="black" stroke-width="2" stroke-linecap="round" stroke-linejoin="round"/>
<path d="M25 38.7143V37V31.6933C25 31.0461 25.1186 30.4044 25.35 29.8M39 31.8571C39 29.8091 38.0834 27.9708 36.6302 26.7143C35.3962 25.6474 33.7753 25 32 25C29.9133 25 28.0399 25.8944 26.7575 27.3132" stroke="black" stroke-width="2" stroke-linecap="round" stroke-linejoin="round"/>
<path d="M28 33V32C28 29.7909 29.7909 28 32 28C34.2091 28 36 29.7909 36 32" stroke="black" stroke-width="2" stroke-linecap="round" stroke-linejoin="round"/>
<path d="M32 32V33C32 34.1046 32.8954 35 34 35C35.1046 35 36 34.1046 36 33V32" stroke="black" stroke-width="2" stroke-linecap="round" stroke-linejoin="round"/>
<path d="M28 32.4V32.5C28 35.5376 30.4624 38 33.5 38C36.5376 38 39 35.5376 39 32.5V32" stroke="black" stroke-width="2" stroke-linecap="round" stroke-linejoin="round"/>
<path d="M37.3337 40C36.3234 40.6468 35.1224 41.0218 33.8337 41.0218C33.197 41.0218 32.5816 40.9292 32 40.7568" stroke="black" stroke-width="2" stroke-linecap="round" stroke-linejoin="round"/>
<path d="M28 39V40" stroke="black" stroke-width="2" stroke-linecap="round" stroke-linejoin="round"/>
<path d="M72 23C67.0294 23 63 27.0294 63 32V37.2C63 37.7523 62.5523 38.2 62 38.2C61.4477 38.2 61 37.7523 61 37.2V32C61 25.9249 65.9249 21 72 21C78.0751 21 83 25.9249 83 32V41C83 41.5523 82.5523 42 82 42C81.4477 42 81 41.5523 81 41V32C81 27.0294 76.9706 23 72 23Z" fill="black"/>
<path d="M72 26C70.2042 26 68.5977 26.7686 67.4993 27.9837C67.129 28.3934 66.4966 28.4253 66.0869 28.055C65.6772 27.6847 65.6453 27.0523 66.0156 26.6426C67.4822 25.0201 69.6225 24 72 24C74.0222 24 75.8737 24.7383 77.2842 25.9578C78.9448 27.3935 80 29.5027 80 31.8571C80 31.8812 79.9992 31.905 79.9975 31.9286C79.9992 31.9522 80 31.976 80 32V32.5C80 36.0899 77.0899 39 73.5 39C70.1861 39 67.4515 36.5201 67.0506 33.3149C67.0178 33.2159 67 33.11 67 33V32C67 29.2386 69.2386 27 72 27C74.7614 27 77 29.2386 77 32V33C77 34.6569 75.6569 36 74 36C72.3431 36 71 34.6569 71 33V32C71 31.4477 71.4477 31 72 31C72.5523 31 73 31.4477 73 32V33C73 33.5523 73.4477 34 74 34C74.5523 34 75 33.5523 75 33V32C75 30.3431 73.6569 29 72 29C70.3431 29 69 30.3431 69 32V32.5C69 34.9853 71.0147 37 73.5 37C75.9853 37 78 34.9853 78 32.5V32C78 31.976 78.0008 31.9522 78.0025 31.9286C78.0008 31.905 78 31.8812 78 31.8571C78 30.1155 77.2221 28.548 75.9762 27.4707C74.9187 26.5565 73.5284 26 72 26Z" fill="black"/>
<path d="M65.7075 28.8661C66.2233 29.0635 66.4814 29.6417 66.2839 30.1575C66.0962 30.6478 66 31.1683 66 31.6933V38.7143C66 39.2666 65.5523 39.7143 65 39.7143C64.4477 39.7143 64 39.2666 64 38.7143V31.6933C64 30.9239 64.141 30.161 64.4161 29.4425C64.6135 28.9267 65.1917 28.6686 65.7075 28.8661Z" fill="black"/>
<path d="M78.1759 39.4608C78.4737 39.9259 78.338 40.5444 77.8729 40.8422C76.7065 41.589 75.3191 42.0218 73.8337 42.0218C73.0995 42.0218 72.3884 41.915 71.7158 41.7155C71.1863 41.5586 70.8843 41.0021 71.0412 40.4726C71.1982 39.943 71.7547 39.6411 72.2842 39.798C72.7747 39.9434 73.2944 40.0218 73.8337 40.0218C74.9256 40.0218 75.9404 39.7047 76.7945 39.1578C77.2597 38.86 77.8781 38.9957 78.1759 39.4608Z" fill="black"/>
<path d="M69 39C69 38.4477 68.5523 38 68 38C67.4477 38 67 38.4477 67 39V40C67 40.5523 67.4477 41 68 41C68.5523 41 69 40.5523 69 40V39Z" fill="black"/>
</svg>
