<svg width="104" height="64" viewBox="0 0 104 64" fill="none" xmlns="http://www.w3.org/2000/svg">
<path d="M33 29.25C33 28.6977 32.5523 28.25 32 28.25C31.4477 28.25 31 28.6977 31 29.25C30.4477 29.25 30 29.6977 30 30.25C30 30.8023 30.4477 31.25 31 31.25C31 31.8023 31.4477 32.25 32 32.25C32.5523 32.25 33 31.8023 33 31.25C33.5523 31.25 34 30.8023 34 30.25C34 29.6977 33.5523 29.25 33 29.25Z" fill="black"/>
<path fill-rule="evenodd" clip-rule="evenodd" d="M22 30.2111C22 30.9233 22.3918 31.5439 22.9716 31.8693L23.5319 37.4029C23.7388 39.4456 25.4585 41 27.5116 41H36.4884C38.5415 41 40.2612 39.4456 40.4681 37.4029L41.0284 31.8693C41.6082 31.5439 42 30.9233 42 30.2111V28.8889C42 27.1093 40.5574 25.6667 38.7778 25.6667H36.462C36.0267 24.1277 34.6117 23 32.9333 23H31.0667C29.3883 23 27.9733 24.1277 27.538 25.6667H25.2222C23.4426 25.6667 22 27.1093 22 28.8889V30.2111ZM25.2222 27.6667C24.5472 27.6667 24 28.2139 24 28.8889V30.116C24.0941 30.1254 24.1844 30.1478 24.269 30.1814L30.9431 32.6533C31.1654 32.7356 31.4006 32.7778 31.6377 32.7778H32.3623C32.5994 32.7778 32.8346 32.7356 33.0569 32.6533L39.731 30.1814C39.8156 30.1478 39.9059 30.1254 40 30.116V28.8889C40 28.2139 39.4528 27.6667 38.7778 27.6667H25.2222ZM25.5218 37.2015L25.0565 32.6058L30.2485 34.5288C30.6931 34.6935 31.1635 34.7778 31.6377 34.7778H32.3623C32.8365 34.7778 33.3069 34.6935 33.7515 34.5288L38.9436 32.6058L38.4782 37.2015C38.3748 38.2228 37.515 39 36.4884 39H27.5116C26.485 39 25.6252 38.2228 25.5218 37.2015ZM32.9333 25C33.4786 25 33.9627 25.2619 34.2668 25.6667H29.7332C30.0373 25.2619 30.5214 25 31.0667 25H32.9333Z" fill="black"/>
<path fill-rule="evenodd" clip-rule="evenodd" d="M67.5381 26.6666H65.2222C63.9949 26.6666 63 27.6615 63 28.8888V29.3713L70.2664 32.0689C70.6781 32.2217 71.1137 32.3 71.5527 32.3H72.4473C72.8863 32.3 73.3219 32.2217 73.7336 32.0689L81 29.3713V28.8888C81 27.6615 80.0051 26.6666 78.7778 26.6666H76.462C76.0267 25.1276 74.6117 24 72.9334 24H71.0667C69.3883 24 67.9734 25.1276 67.5381 26.6666ZM69.7333 26.6666H74.2668C73.9627 26.2618 73.4786 26 72.9334 26H71.0667C70.5214 26 70.0373 26.2618 69.7333 26.6666ZM73 28.75C73 28.1977 72.5523 27.75 72 27.75C71.4477 27.75 71 28.1977 71 28.75C70.4477 28.75 70 29.1977 70 29.75C70 30.3023 70.4477 30.75 71 30.75C71 31.3023 71.4477 31.75 72 31.75C72.5523 31.75 73 31.3023 73 30.75C73.5523 30.75 74 30.3023 74 29.75C74 29.1977 73.5523 28.75 73 28.75Z" fill="black"/>
<path d="M64.5269 37.3022L63.9 31.1111L70.5958 33.591C70.9293 33.7145 71.2821 33.7778 71.6377 33.7778H72.3623C72.718 33.7778 73.0708 33.7145 73.4043 33.591L80.1 31.1111L79.4732 37.3022C79.3181 38.8342 78.0283 40 76.4884 40H67.5116C65.9718 40 64.682 38.8342 64.5269 37.3022Z" fill="black"/>
</svg>
