<svg width="104" height="64" viewBox="0 0 104 64" fill="none" xmlns="http://www.w3.org/2000/svg">
<path fill-rule="evenodd" clip-rule="evenodd" d="M25.6048 21.5814C25.9718 21.4235 26.3976 21.4992 26.6876 21.7739L26.6903 21.7764L26.7008 21.7863L26.7444 21.8271C26.7832 21.8631 26.8404 21.916 26.9128 21.9817C27.0577 22.1135 27.2618 22.2958 27.4978 22.4972C27.9815 22.9101 28.5551 23.3653 29.0166 23.6438C30.5238 24.5531 32.9009 24.8139 35.0652 24.798C36.118 24.7903 37.0673 24.7184 37.7536 24.6482C38.0961 24.6131 38.3715 24.5787 38.5596 24.5533C38.6536 24.5406 38.7257 24.5302 38.7734 24.5231L38.8262 24.515L38.8382 24.5132L38.8403 24.5128C39.1921 24.456 39.5479 24.5907 39.7737 24.8664C39.9995 25.1422 40.0615 25.5173 39.9363 25.8511L38.6097 29.3887L40.848 32.97C41.0225 33.2492 41.0484 33.5964 40.9172 33.8983C40.7861 34.2003 40.5147 34.4184 40.1916 34.4815C34.9234 35.5097 31.7376 34.7997 27 33.5397V41.5C27 42.0523 26.5523 42.5 26 42.5C25.4477 42.5 25 42.0523 25 41.5V22.5C25 22.1005 25.2378 21.7393 25.6048 21.5814ZM35.0799 26.798C35.9864 26.7913 36.8178 26.7405 37.4887 26.6821L36.5637 29.1489C36.4544 29.4403 36.487 29.766 36.652 30.03L38.3603 32.7633C34.2277 33.3458 31.4805 32.6668 27 31.4697V24.6707C27.3226 24.9195 27.6624 25.1625 27.9834 25.3562C30.003 26.5748 32.8759 26.8141 35.0799 26.798Z" fill="black"/>
<path d="M67 22.5C67 21.9477 66.5523 21.5 66 21.5C65.4477 21.5 65 21.9477 65 22.5V41.5C65 42.0523 65.4477 42.5 66 42.5C66.5523 42.5 67 42.0523 67 41.5V32.5048C71.3834 33.6738 74.2679 34.36 78.5662 33.7439C79.2603 33.6444 79.601 32.8617 79.2294 32.2671L77.5 29.5L78.395 27.1135C78.6646 26.3945 78.0539 25.6318 77.2887 25.6955C74.9945 25.8867 70.9295 25.9659 68.5 24.5C68.0184 24.2094 67.4641 23.7755 67 23.386V22.5Z" fill="black"/>
</svg>
