<svg width="104" height="64" viewBox="0 0 104 64" fill="none" xmlns="http://www.w3.org/2000/svg">
<path d="M32 41.3333C34.1333 41.2222 38.72 40 40 36C33.6 36 32 39.5556 32 41.3333Z" stroke="black" stroke-width="2" stroke-linecap="round" stroke-linejoin="round"/>
<path d="M32 41.3333C29.8667 41.2222 25.28 40 24 36C30.4 36 32 39.5556 32 41.3333Z" stroke="black" stroke-width="2" stroke-linecap="round" stroke-linejoin="round"/>
<path d="M32 41.3334V33.3334M32 33.3334C34.9455 33.3334 37.3333 30.9456 37.3333 28.0001V25.4547C37.3333 25.3741 37.3432 25.2939 37.3627 25.2158L37.9002 23.0661C37.9406 22.9042 37.7764 22.7624 37.6212 22.8239C36.7097 23.1851 34.2989 24.0404 32 24.0001C29.8694 23.9627 27.2938 23.1264 26.36 22.7977C26.2073 22.744 26.0541 22.883 26.0933 23.0401L26.6372 25.2158C26.6568 25.2939 26.6666 25.3741 26.6666 25.4547V28.0001C26.6666 30.9456 29.0545 33.3334 32 33.3334Z" stroke="black" stroke-width="2" stroke-linecap="round"/>
<path d="M66.0933 23.3732L66.6372 25.549C66.6568 25.6271 66.6666 25.7073 66.6666 25.7878V28.3333C66.6666 30.937 68.5325 33.1049 71 33.573V39.6526C69.9165 38.2586 67.8079 36.9999 64 36.9999C65.2563 40.9259 69.6979 42.1759 71.879 42.3259C71.9182 42.3307 71.958 42.3331 71.9984 42.3332L72 42.3333L72.0016 42.3332C72.042 42.3331 72.0818 42.3307 72.121 42.3259C74.3021 42.1759 78.7437 40.9259 80 36.9999C76.1921 36.9999 74.0835 38.2586 73 39.6526V33.573C75.4675 33.1049 77.3333 30.937 77.3333 28.3333V25.7878C77.3333 25.7073 77.3432 25.6271 77.3627 25.549L77.9002 23.3993C77.9406 23.2373 77.7764 23.0956 77.6212 23.1571C76.7097 23.5183 74.2989 24.3736 72 24.3333C69.8694 24.2959 67.2938 23.4596 66.36 23.1309C66.2073 23.0771 66.0541 23.2161 66.0933 23.3732Z" fill="black"/>
</svg>
