<svg width="104" height="64" viewBox="0 0 104 64" fill="none" xmlns="http://www.w3.org/2000/svg">
<path d="M25.5669 23C23.597 23 22 24.597 22 26.5669V37C22 39.2091 23.7909 41 26 41H33C33.5523 41 34 40.5523 34 40C34 39.4477 33.5523 39 33 39H26C24.8954 39 24 38.1046 24 37V26.5669C24 25.7015 24.7015 25 25.5669 25H28.0841C28.085 25.0007 28.088 25.0019 28.0932 25.004C28.1215 25.0155 28.2143 25.0533 28.3833 25.1713C28.6229 25.3386 28.9026 25.5863 29.2069 25.8858C29.4904 26.1648 29.7693 26.4625 30.0357 26.7469L30.0853 26.7998C30.3502 27.0826 30.6304 27.3811 30.8579 27.5816C31.0195 27.7241 31.2499 27.8608 31.4305 27.9529C31.5311 28.0041 31.648 28.0577 31.7688 28.101C31.8655 28.1357 32.0606 28.2 32.2847 28.2H38.0014C39.1053 28.2 40 29.0948 40 30.2V32.5C40 33.0523 40.4477 33.5 41 33.5C41.5523 33.5 42 33.0523 42 32.5V30.2C42 27.9915 40.2111 26.2 38.0014 26.2H32.3995C32.3825 26.1924 32.3617 26.1827 32.3384 26.1708C32.29 26.1461 32.243 26.1191 32.2057 26.0956C32.1887 26.0848 32.1765 26.0765 32.1691 26.0713C32.0298 25.9468 31.8265 25.733 31.5447 25.4323L31.4897 25.3736C31.2285 25.0947 30.9235 24.7691 30.6098 24.4603C30.277 24.1329 29.9043 23.7941 29.5285 23.5316C29.1893 23.2947 28.6835 23 28.1144 23H25.5669Z" fill="black"/>
<path fill-rule="evenodd" clip-rule="evenodd" d="M41.6667 36.6667C41.6667 35.1939 40.4728 34 39 34C37.5272 34 36.3333 35.1939 36.3333 36.6667V36.8912C35.545 37.2657 35 38.0692 35 39V40.6667C35 41.7712 35.8954 42.6667 37 42.6667H41C42.1046 42.6667 43 41.7712 43 40.6667V39C43 38.0692 42.455 37.2657 41.6667 36.8912V36.6667ZM38.3333 36.6667C38.3333 36.2985 38.6318 36 39 36C39.3682 36 39.6667 36.2985 39.6667 36.6667H38.3333ZM37 39C37 38.8159 37.1492 38.6667 37.3333 38.6667H40.6667C40.8508 38.6667 41 38.8159 41 39V40.6667H37V39Z" fill="black"/>
<path d="M72.2847 27.2H78.0014C79.6582 27.2 81 28.5431 81 30.2V34.8786C80.4598 33.7666 79.3194 33 78 33C76.1591 33 74.6667 34.4924 74.6667 36.3333V37.4C73.2162 37.4 72.0362 38.558 72.0008 40H66C64.3431 40 63 38.6569 63 37V26.5669C63 25.1492 64.1492 24 65.5669 24H68.1144C68.8329 24 69.9362 25.1779 70.7625 26.06C71.0614 26.3791 71.324 26.6595 71.5191 26.8314C71.6586 26.9544 72.0987 27.2 72.2847 27.2Z" fill="black"/>
<path fill-rule="evenodd" clip-rule="evenodd" d="M75 39.3222V41.6667C75 42.219 75.4477 42.6667 76 42.6667H81C81.5523 42.6667 82 42.219 82 41.6667V39.3222C82 38.4631 81.3036 37.7667 80.4444 37.7667V36.9444C80.4444 35.8706 79.5739 35 78.5 35C77.4261 35 76.5556 35.8706 76.5556 36.9444V37.7667C75.6964 37.7667 75 38.4631 75 39.3222ZM79 36.75C79 36.4739 78.7761 36.25 78.5 36.25C78.2239 36.25 78 36.4739 78 36.75V37.65H79V36.75Z" fill="black"/>
</svg>
