<svg width="104" height="64" viewBox="0 0 104 64" fill="none" xmlns="http://www.w3.org/2000/svg">
<path d="M25.5669 23C23.597 23 22 24.597 22 26.5669V37C22 39.2091 23.7909 41 26 41H33C33.5523 41 34 40.5523 34 40C34 39.4477 33.5523 39 33 39H26C24.8954 39 24 38.1046 24 37V26.5669C24 25.7015 24.7015 25 25.5669 25H28.0841C28.085 25.0007 28.088 25.0019 28.0932 25.004C28.1215 25.0155 28.2143 25.0533 28.3833 25.1713C28.6229 25.3386 28.9026 25.5863 29.2069 25.8858C29.4904 26.1648 29.7693 26.4625 30.0357 26.7469L30.0853 26.7998C30.3502 27.0826 30.6304 27.3811 30.8579 27.5816C31.0195 27.7241 31.2499 27.8608 31.4305 27.9529C31.5311 28.0041 31.648 28.0577 31.7688 28.101C31.8655 28.1357 32.0606 28.2 32.2847 28.2H38.0014C39.1053 28.2 40 29.0948 40 30.2V34.5C40 35.0523 40.4477 35.5 41 35.5C41.5523 35.5 42 35.0523 42 34.5V30.2C42 27.9915 40.2111 26.2 38.0014 26.2H32.3995C32.3825 26.1924 32.3617 26.1827 32.3384 26.1708C32.29 26.1461 32.243 26.1191 32.2057 26.0956C32.1887 26.0848 32.1765 26.0765 32.1691 26.0713C32.0298 25.9468 31.8265 25.733 31.5447 25.4323L31.4897 25.3736C31.2285 25.0947 30.9235 24.7691 30.6098 24.4603C30.277 24.1329 29.9043 23.7941 29.5285 23.5316C29.1893 23.2947 28.6835 23 28.1144 23H25.5669Z" fill="black"/>
<path fill-rule="evenodd" clip-rule="evenodd" d="M38.85 36C37.3373 36 36.0636 37.1338 35.9146 38.6195C35.3602 39.0694 35 39.7537 35 40.5294C35 41.9125 36.138 43 37.5 43H40.2C41.7276 43 43 41.7808 43 40.2353C43 39.2002 42.427 38.3101 41.5922 37.8365C41.1561 36.7524 40.0847 36 38.85 36ZM37.9 38.9118C37.9 38.4268 38.3066 38 38.85 38C39.329 38 39.7066 38.3354 39.7846 38.7464C39.8526 39.105 40.1107 39.3981 40.4578 39.5109C40.7849 39.6173 41 39.9115 41 40.2353C41 40.6391 40.6606 41 40.2 41H37.5C37.2051 41 37 40.7707 37 40.5294C37 40.3474 37.1128 40.1751 37.2998 40.0978C37.7213 39.9238 37.9716 39.4868 37.9085 39.0352C37.9029 38.9953 37.9 38.9541 37.9 38.9118Z" fill="black"/>
<path d="M72.2847 27.2H78.0014C79.6582 27.2 81 28.5431 81 30.2V35.958C80.4161 35.3647 79.6232 35 78.75 35C76.9551 35 75.5 36.5407 75.5 38.4412C75.5 38.601 75.5103 38.7583 75.5302 38.9124C75.036 39.1328 74.6227 39.5167 74.3508 40H66C64.3431 40 63 38.6569 63 37V26.5669C63 25.1492 64.1492 24 65.5669 24H68.1144C68.8329 24 69.9362 25.1779 70.7625 26.06C71.0614 26.3791 71.324 26.6595 71.5191 26.8314C71.6586 26.9544 72.0987 27.2 72.2847 27.2Z" fill="black"/>
<path d="M77.5 42C76.6716 42 76 41.3416 76 40.5294C76 39.9195 76.3787 39.3963 76.9181 39.1736C76.9062 39.088 76.9 39.0006 76.9 38.9118C76.9 37.8559 77.773 37 78.85 37C79.8044 37 80.5986 37.6722 80.767 38.5599C81.4833 38.7928 82 39.4549 82 40.2353C82 41.2099 81.1941 42 80.2 42H77.5Z" fill="black"/>
</svg>
