<svg width="104" height="64" viewBox="0 0 104 64" fill="none" xmlns="http://www.w3.org/2000/svg">
<path d="M25.5669 23C23.597 23 22 24.597 22 26.5669V37C22 39.2091 23.7909 41 26 41H34C34.5523 41 35 40.5523 35 40C35 39.4477 34.5523 39 34 39H26C24.8954 39 24 38.1046 24 37V26.5669C24 25.7015 24.7015 25 25.5669 25H28.0841C28.085 25.0007 28.088 25.0019 28.0932 25.004C28.1215 25.0155 28.2143 25.0533 28.3833 25.1713C28.6229 25.3386 28.9026 25.5863 29.2069 25.8858C29.4904 26.1648 29.7693 26.4625 30.0357 26.7469L30.0853 26.7998C30.3502 27.0826 30.6304 27.3811 30.8579 27.5816C31.0195 27.7241 31.2499 27.8608 31.4305 27.9529C31.5311 28.0041 31.648 28.0577 31.7688 28.101C31.8655 28.1357 32.0606 28.2 32.2847 28.2H38.0014C39.1053 28.2 40 29.0948 40 30.2V35C40 35.5523 40.4477 36 41 36C41.5523 36 42 35.5523 42 35V30.2C42 27.9915 40.2111 26.2 38.0014 26.2H32.3995C32.3825 26.1924 32.3617 26.1827 32.3384 26.1708C32.29 26.1461 32.243 26.1191 32.2057 26.0956C32.1887 26.0848 32.1765 26.0765 32.1691 26.0713C32.0298 25.9468 31.8265 25.733 31.5447 25.4323L31.4897 25.3736C31.2285 25.0947 30.9235 24.7691 30.6098 24.4603C30.277 24.1329 29.9043 23.7941 29.5285 23.5316C29.1893 23.2947 28.6835 23 28.1144 23H25.5669Z" fill="black"/>
<path d="M38.2929 37.8786C37.9024 37.4881 37.2692 37.4881 36.8787 37.8786C36.4882 38.2691 36.4882 38.9023 36.8787 39.2928L37.5858 39.9999L36.8787 40.707C36.4882 41.0975 36.4882 41.7307 36.8787 42.1212C37.2692 42.5118 37.9024 42.5118 38.2929 42.1212L39 41.4141L39.7071 42.1212C40.0977 42.5118 40.7308 42.5118 41.1213 42.1212C41.5119 41.7307 41.5119 41.0975 41.1213 40.707L40.4142 39.9999L41.1213 39.2928C41.5119 38.9023 41.5119 38.2691 41.1213 37.8786C40.7308 37.4881 40.0977 37.4881 39.7071 37.8786L39 38.5857L38.2929 37.8786Z" fill="black"/>
<path d="M72.2847 27.2H78.0014C79.6582 27.2 81 28.5431 81 30.2V35.6432C80.3274 35.51 79.618 35.6086 79 35.9391C77.8649 35.3321 76.4217 35.5072 75.4645 36.4645C74.5072 37.4217 74.3321 38.8649 74.9391 40H66C64.3431 40 63 38.6569 63 37V26.5669C63 25.1492 64.1492 24 65.5669 24H68.1144C68.8329 24 69.9362 25.1779 70.7625 26.06C71.0614 26.3791 71.324 26.6595 71.5191 26.8314C71.6586 26.9544 72.0987 27.2 72.2847 27.2Z" fill="black"/>
<path d="M78.2929 37.8786C77.9024 37.4881 77.2692 37.4881 76.8787 37.8786C76.4882 38.2691 76.4882 38.9023 76.8787 39.2928L77.5858 39.9999L76.8787 40.707C76.4882 41.0975 76.4882 41.7307 76.8787 42.1212C77.2692 42.5118 77.9024 42.5118 78.2929 42.1212L79 41.4141L79.7071 42.1212C80.0977 42.5118 80.7308 42.5118 81.1213 42.1212C81.5119 41.7307 81.5119 41.0975 81.1213 40.707L80.4142 39.9999L81.1213 39.2928C81.5119 38.9023 81.5119 38.2691 81.1213 37.8786C80.7308 37.4881 80.0977 37.4881 79.7071 37.8786L79 38.5857L78.2929 37.8786Z" fill="black"/>
</svg>
