<svg width="104" height="64" viewBox="0 0 104 64" fill="none" xmlns="http://www.w3.org/2000/svg">
<path d="M25.5669 23C23.597 23 22 24.597 22 26.5669V37C22 39.2091 23.7909 41 26 41H33C33.5523 41 34 40.5523 34 40C34 39.4477 33.5523 39 33 39H26C24.8954 39 24 38.1046 24 37V26.5669C24 25.7015 24.7015 25 25.5669 25H28.0841C28.085 25.0007 28.088 25.0019 28.0932 25.004C28.1215 25.0155 28.2143 25.0533 28.3833 25.1713C28.6229 25.3386 28.9026 25.5863 29.2069 25.8858C29.4904 26.1648 29.7693 26.4625 30.0357 26.7469L30.0853 26.7998C30.3502 27.0826 30.6304 27.3811 30.8579 27.5816C31.0195 27.7241 31.2499 27.8608 31.4305 27.9529C31.5311 28.0041 31.648 28.0577 31.7688 28.101C31.8655 28.1357 32.0606 28.2 32.2847 28.2H38.0014C39.1053 28.2 40 29.0948 40 30.2V34.5C40 35.0523 40.4477 35.5 41 35.5C41.5523 35.5 42 35.0523 42 34.5V30.2C42 27.9915 40.2111 26.2 38.0014 26.2H32.3995C32.3825 26.1924 32.3617 26.1827 32.3384 26.1708C32.29 26.1461 32.243 26.1191 32.2057 26.0956C32.1887 26.0848 32.1765 26.0765 32.1691 26.0713C32.0298 25.9468 31.8265 25.733 31.5447 25.4323L31.4897 25.3736C31.2285 25.0947 30.9235 24.7691 30.6098 24.4603C30.277 24.1329 29.9043 23.7941 29.5285 23.5316C29.1893 23.2947 28.6835 23 28.1144 23H25.5669Z" fill="black"/>
<path fill-rule="evenodd" clip-rule="evenodd" d="M39.2506 35.225C38.7692 35.0301 38.2308 35.0301 37.7494 35.225L36.6428 35.6731C36.6314 35.6777 36.6201 35.6825 36.609 35.6875L36.1571 35.8901C35.4854 36.1911 34.9981 36.8599 35 37.6566C35.0016 38.2761 35.0437 39.4268 35.3823 40.2719C35.6216 40.8693 36.0343 41.3578 36.4157 41.7216C36.8044 42.0925 37.2139 42.3841 37.5154 42.5785C38.1171 42.9665 38.8829 42.9665 39.4846 42.5785C39.7861 42.3841 40.1956 42.0925 40.5843 41.7216C40.9657 41.3578 41.3784 40.8693 41.6177 40.2719C41.9563 39.4268 41.9984 38.2761 42 37.6566C42.0019 36.8599 41.5146 36.1911 40.8429 35.8901L40.391 35.6875C40.3799 35.6825 40.3686 35.6777 40.3572 35.6731L39.2506 35.225ZM37.0003 37.7038L37.4103 37.52L38.5 37.0788L39.5897 37.52L39.9997 37.7038C39.9952 38.3252 39.9366 39.0903 39.7612 39.5281C39.6701 39.7554 39.4786 40.0124 39.2038 40.2746C38.9724 40.4953 38.7179 40.6859 38.5 40.8323C38.2821 40.6859 38.0276 40.4953 37.7962 40.2746C37.5214 40.0124 37.3299 39.7554 37.2388 39.5281C37.0634 39.0903 37.0048 38.3252 37.0003 37.7038Z" fill="black"/>
<path d="M72.2847 27.2H78.0014C79.6582 27.2 81 28.5431 81 30.2V34.9184L79.1755 34.1388C78.7422 33.9537 78.2578 33.9537 77.8245 34.1388L75.8324 34.99L75.019 35.3748C74.4081 35.6638 73.9983 36.2859 74 36.9924C74.0019 37.8182 74.0457 38.9646 74.2294 40H66C64.3431 40 63 38.6569 63 37V26.5669C63 25.1492 64.1492 24 65.5669 24H68.1144C68.8329 24 69.9362 25.1779 70.7625 26.06C71.0614 26.3791 71.324 26.6595 71.5191 26.8314C71.6586 26.9544 72.0987 27.2 72.2847 27.2Z" fill="black"/>
<path d="M80.4339 36.8026L79.982 36.6L78.8753 36.1519C78.6346 36.0545 78.3654 36.0545 78.1247 36.1519L77.018 36.6L76.5661 36.8026C76.2268 36.9547 75.9991 37.2822 76 37.6541C76.0016 38.279 76.0511 39.2524 76.3106 39.9C76.6409 40.7247 77.519 41.3909 78.0574 41.7381C78.3291 41.9133 78.6709 41.9133 78.9426 41.7381C79.481 41.3909 80.3591 40.7247 80.6894 39.9C80.9489 39.2524 80.9984 38.279 81 37.6541C81.0009 37.2822 80.7732 36.9547 80.4339 36.8026Z" fill="black"/>
</svg>
