<svg width="104" height="64" viewBox="0 0 104 64" fill="none" xmlns="http://www.w3.org/2000/svg">
<path d="M22 26.5669C22 24.597 23.597 23 25.5669 23H28.1144C28.6835 23 29.1893 23.2947 29.5285 23.5316C29.9043 23.7941 30.277 24.1329 30.6098 24.4603C30.9235 24.7691 31.2285 25.0947 31.4897 25.3736L31.5447 25.4323C31.8265 25.733 32.0298 25.9468 32.1691 26.0713C32.1765 26.0765 32.1887 26.0848 32.2057 26.0956C32.243 26.1191 32.29 26.1461 32.3384 26.1708C32.3617 26.1827 32.3822 26.1924 32.3992 26.2H38.0014C40.2111 26.2 42 27.9915 42 30.2V32.5C42 33.0523 41.5523 33.5 41 33.5C40.4477 33.5 40 33.0523 40 32.5V30.2C40 29.0948 39.1053 28.2 38.0014 28.2H32.2847C32.0606 28.2 31.8655 28.1357 31.7688 28.101C31.648 28.0577 31.5311 28.0041 31.4305 27.9529C31.2499 27.8608 31.0195 27.7241 30.8579 27.5816C30.6304 27.3811 30.3502 27.0826 30.0853 26.7998L30.0357 26.7469C29.7693 26.4625 29.4904 26.1648 29.2069 25.8858C28.9026 25.5863 28.6229 25.3386 28.3833 25.1713C28.2143 25.0533 28.1215 25.0155 28.0932 25.004C28.088 25.0019 28.085 25.0007 28.0841 25H25.5669C24.7015 25 24 25.7015 24 26.5669V37C24 38.1046 24.8954 39 26 39H33C33.5523 39 34 39.4477 34 40C34 40.5523 33.5523 41 33 41H26C23.7909 41 22 39.2091 22 37V26.5669Z" fill="black"/>
<path fill-rule="evenodd" clip-rule="evenodd" d="M35.2 36C35.2 34.3431 36.5431 33 38.2 33C39.8568 33 41.2 34.3431 41.2 36C41.2 37.0227 40.6882 37.9259 39.9068 38.4674C40.5941 38.86 41.1279 39.4432 41.4517 39.9913C41.597 40.2371 41.6968 40.5247 41.6999 40.8422C41.703 41.1637 41.6062 41.4494 41.4605 41.6841C41.1907 42.1189 40.7572 42.3786 40.4188 42.5341C39.7185 42.856 38.8248 43 38.2 43C37.5751 43 36.6815 42.856 35.9811 42.5341C35.6427 42.3786 35.2093 42.1189 34.9394 41.6841C34.7937 41.4494 34.6969 41.1637 34.7 40.8422C34.7031 40.5247 34.8029 40.2371 34.9482 39.9913C35.272 39.4432 35.8058 38.86 36.4931 38.4674C35.7117 37.9259 35.2 37.0227 35.2 36ZM38.2 35C37.6477 35 37.2 35.4477 37.2 36C37.2 36.5523 37.6477 37 38.2 37C38.7523 37 39.2 36.5523 39.2 36C39.2 35.4477 38.7523 35 38.2 35ZM38.2 40C37.7195 40 37.2097 40.3089 36.8605 40.7365C37.2476 40.9024 37.8157 41 38.2 41C38.5842 41 39.1523 40.9024 39.5394 40.7365C39.1903 40.3089 38.6804 40 38.2 40Z" fill="black"/>
<path d="M72.2847 27.2H78.0014C79.6582 27.2 81 28.5431 81 30.2V32.3766C80.1787 31.5277 79.0276 31 77.7531 31C75.2583 31 73.2358 33.0225 73.2358 35.5173C73.2358 36.5317 73.5701 37.468 74.1346 38.222C73.4779 38.7423 72.924 39.3644 72.5097 40H66C64.3431 40 63 38.6569 63 37V26.5669C63 25.1492 64.1492 24 65.5669 24H68.1144C68.8329 24 69.9362 25.1779 70.7625 26.06C71.0614 26.3791 71.324 26.6595 71.5191 26.8314C71.6586 26.9544 72.0987 27.2 72.2847 27.2Z" fill="black"/>
<path fill-rule="evenodd" clip-rule="evenodd" d="M75.2 36C75.2 34.3431 76.5431 33 78.2 33C79.8568 33 81.2 34.3431 81.2 36C81.2 37.0227 80.6882 37.9259 79.9068 38.4674C80.5942 38.86 81.1279 39.4432 81.4517 39.9913C81.597 40.2371 81.6968 40.5247 81.6999 40.8422C81.703 41.1637 81.6062 41.4494 81.4605 41.6841C81.1907 42.1189 80.7572 42.3786 80.4188 42.5341C79.7185 42.856 78.8248 43 78.2 43C77.5751 43 76.6815 42.856 75.9811 42.5341C75.6427 42.3786 75.2093 42.1189 74.9394 41.6841C74.7937 41.4494 74.6969 41.1637 74.7 40.8422C74.7031 40.5247 74.8029 40.2371 74.9482 39.9913C75.272 39.4432 75.8058 38.86 76.4931 38.4674C75.7117 37.9259 75.2 37.0227 75.2 36ZM78.2 35C77.6477 35 77.2 35.4477 77.2 36C77.2 36.5523 77.6477 37 78.2 37C78.7523 37 79.2 36.5523 79.2 36C79.2 35.4477 78.7523 35 78.2 35ZM78.2 40C77.7195 40 77.2097 40.3089 76.8605 40.7365C77.2476 40.9024 77.8157 41 78.2 41C78.5842 41 79.1523 40.9024 79.5394 40.7365C79.1903 40.3089 78.6804 40 78.2 40Z" fill="black"/>
</svg>
