<svg width="104" height="64" viewBox="0 0 104 64" fill="none" xmlns="http://www.w3.org/2000/svg">
<path d="M22 26.5669C22 24.597 23.597 23 25.5669 23H28.1144C28.6835 23 29.1893 23.2947 29.5285 23.5316C29.9043 23.7941 30.277 24.1329 30.6098 24.4603C30.9235 24.7691 31.2285 25.0947 31.4897 25.3736L31.5447 25.4323C31.8265 25.733 32.0298 25.9468 32.1691 26.0713C32.1765 26.0765 32.1887 26.0848 32.2057 26.0956C32.243 26.1191 32.29 26.1461 32.3384 26.1708C32.3617 26.1827 32.3822 26.1924 32.3992 26.2H38.0014C40.2111 26.2 42 27.9915 42 30.2V32.5C42 33.0523 41.5523 33.5 41 33.5C40.4477 33.5 40 33.0523 40 32.5V30.2C40 29.0948 39.1053 28.2 38.0014 28.2H32.2847C32.0606 28.2 31.8655 28.1357 31.7688 28.101C31.648 28.0577 31.5311 28.0041 31.4305 27.9529C31.2499 27.8608 31.0195 27.7241 30.8579 27.5816C30.6304 27.3811 30.3502 27.0826 30.0853 26.7998L30.0357 26.7469C29.7693 26.4625 29.4904 26.1648 29.2069 25.8858C28.9026 25.5863 28.6229 25.3386 28.3833 25.1713C28.2143 25.0533 28.1215 25.0155 28.0932 25.004C28.088 25.0019 28.085 25.0007 28.0841 25H25.5669C24.7015 25 24 25.7015 24 26.5669V37C24 38.1046 24.8954 39 26 39H34.5C35.0523 39 35.5 39.4477 35.5 40C35.5 40.5523 35.0523 41 34.5 41H26C23.7909 41 22 39.2091 22 37V26.5669Z" fill="black"/>
<path d="M42.7474 37.1644L41.4141 38.6644C41.0472 39.0771 40.4151 39.1143 40.0023 38.7474C39.6412 38.4264 39.5675 37.9025 39.8004 37.5H37C36.4477 37.5 36 37.0523 36 36.5C36 35.9477 36.4477 35.5 37 35.5H39.8004C39.5675 35.0975 39.6412 34.5736 40.0023 34.2526C40.4151 33.8857 41.0472 33.9229 41.4141 34.3356L42.7474 35.8356C43.0842 36.2145 43.0842 36.7855 42.7474 37.1644Z" fill="black"/>
<path d="M36.2526 41.1644C35.9158 40.7855 35.9158 40.2145 36.2526 39.8356L37.5859 38.3356C37.9528 37.9229 38.5849 37.8857 38.9977 38.2526C39.3588 38.5736 39.4325 39.0975 39.1996 39.5H42C42.5523 39.5 43 39.9477 43 40.5C43 41.0523 42.5523 41.5 42 41.5H39.1996C39.4325 41.9025 39.3588 42.4264 38.9977 42.7474C38.5849 43.1143 37.9528 43.0771 37.5859 42.6644L36.2526 41.1644Z" fill="black"/>
<path d="M72.2847 27.2H78.0014C79.6582 27.2 81 28.5431 81 30.2V32.0186C80.1845 31.9276 79.3352 32.1697 78.6736 32.7578C78.4265 32.9774 78.2243 33.2286 78.0677 33.5H77C75.3431 33.5 74 34.8431 74 36.5C74 37.2684 74.2889 37.9693 74.7639 38.5L74.7578 38.5069C74.3712 38.9418 74.1326 39.461 74.0418 40H66C64.3431 40 63 38.6569 63 37V26.5669C63 25.1492 64.1492 24 65.5669 24H68.1144C68.8329 24 69.9362 25.1779 70.7625 26.06C71.0614 26.3791 71.324 26.6595 71.5191 26.8314C71.6586 26.9544 72.0987 27.2 72.2847 27.2Z" fill="black"/>
<path d="M82.7474 37.1644L81.4141 38.6644C81.0472 39.0771 80.4151 39.1143 80.0023 38.7474C79.6412 38.4264 79.5675 37.9025 79.8004 37.5H77C76.4477 37.5 76 37.0523 76 36.5C76 35.9477 76.4477 35.5 77 35.5H79.8004C79.5675 35.0975 79.6412 34.5736 80.0023 34.2526C80.4151 33.8857 81.0472 33.9229 81.4141 34.3356L82.7474 35.8356C83.0842 36.2145 83.0842 36.7855 82.7474 37.1644Z" fill="black"/>
<path d="M76.2526 41.1644C75.9158 40.7855 75.9158 40.2145 76.2526 39.8356L77.5859 38.3356C77.9528 37.9229 78.5849 37.8857 78.9977 38.2526C79.3588 38.5736 79.4325 39.0975 79.1996 39.5H82C82.5523 39.5 83 39.9477 83 40.5C83 41.0523 82.5523 41.5 82 41.5H79.1996C79.4325 41.9025 79.3588 42.4264 78.9977 42.7474C78.5849 43.1143 77.9528 43.0771 77.5859 42.6644L76.2526 41.1644Z" fill="black"/>
</svg>
