<svg width="104" height="64" viewBox="0 0 104 64" fill="none" xmlns="http://www.w3.org/2000/svg">
<path fill-rule="evenodd" clip-rule="evenodd" d="M25.5669 23C23.597 23 22 24.597 22 26.5669V37C22 39.2091 23.7909 41 26 41H38C40.2091 41 42 39.2091 42 37V30.2C42 27.9915 40.2111 26.2 38.0014 26.2H32.3995C32.3825 26.1924 32.3617 26.1827 32.3384 26.1708C32.29 26.1461 32.243 26.1191 32.2057 26.0956C32.1887 26.0848 32.1765 26.0765 32.1691 26.0713C32.0298 25.9468 31.8265 25.733 31.5447 25.4323L31.4897 25.3736C31.2285 25.0947 30.9235 24.7691 30.6098 24.4603C30.277 24.1329 29.9043 23.7941 29.5285 23.5316C29.1893 23.2947 28.6835 23 28.1144 23H25.5669ZM30.0853 26.7998C30.3502 27.0826 30.6304 27.3811 30.8579 27.5816C31.0195 27.7241 31.2499 27.8608 31.4305 27.9529C31.5311 28.0041 31.648 28.0577 31.7688 28.101C31.8655 28.1357 32.0606 28.2 32.2847 28.2H38.0014C39.1053 28.2 40 29.0948 40 30.2V37C40 38.1046 39.1046 39 38 39H26C24.8954 39 24 38.1046 24 37V26.5669C24 25.7015 24.7015 25 25.5669 25H28.0841C28.085 25.0007 28.088 25.0019 28.0932 25.004C28.1215 25.0155 28.2143 25.0533 28.3833 25.1713C28.6229 25.3386 28.9026 25.5863 29.2069 25.8858C29.4904 26.1648 29.7693 26.4625 30.0357 26.7469L30.0853 26.7998Z" fill="black"/>
<path d="M78 40H66C64.3431 40 63 38.6569 63 37V26.5669C63 25.1492 64.1492 24 65.5669 24H68.1144C69.0928 24 70.785 26.1845 71.5191 26.8314C71.6586 26.9544 72.0987 27.2 72.2847 27.2H78.0014C79.6582 27.2 81 28.5431 81 30.2V37C81 38.6569 79.6569 40 78 40Z" fill="black"/>
</svg>
