<svg width="104" height="64" viewBox="0 0 104 64" fill="none" xmlns="http://www.w3.org/2000/svg">
<path d="M25.5669 23C23.597 23 22 24.597 22 26.5669V37C22 39.2091 23.7909 41 26 41H35C35.5523 41 36 40.5523 36 40C36 39.4477 35.5523 39 35 39H26C24.8954 39 24 38.1046 24 37V26.5669C24 25.7015 24.7015 25 25.5669 25H28.0841C28.085 25.0007 28.088 25.0019 28.0932 25.004C28.1215 25.0155 28.2143 25.0533 28.3833 25.1713C28.6229 25.3386 28.9026 25.5863 29.2069 25.8858C29.4904 26.1648 29.7693 26.4625 30.0357 26.7469L30.0853 26.7998C30.3502 27.0826 30.6304 27.3811 30.8579 27.5816C31.0195 27.7241 31.2499 27.8608 31.4305 27.9529C31.5311 28.0041 31.648 28.0577 31.7688 28.101C31.8655 28.1357 32.0606 28.2 32.2847 28.2H38.0014C39.1053 28.2 40 29.0948 40 30.2V35C40 35.5523 40.4477 36 41 36C41.5523 36 42 35.5523 42 35V30.2C42 27.9915 40.2111 26.2 38.0014 26.2H32.3995C32.3825 26.1924 32.3617 26.1827 32.3384 26.1708C32.29 26.1461 32.243 26.1191 32.2057 26.0956C32.1887 26.0848 32.1765 26.0765 32.1691 26.0713C32.0298 25.9468 31.8265 25.733 31.5447 25.4323L31.4897 25.3736C31.2285 25.0947 30.9235 24.7691 30.6098 24.4603C30.277 24.1329 29.9043 23.7941 29.5285 23.5316C29.1893 23.2947 28.6835 23 28.1144 23H25.5669Z" fill="black"/>
<path d="M39.1644 36.2526C38.7855 35.9158 38.2145 35.9158 37.8356 36.2526L36.3356 37.5859C35.9229 37.9528 35.8857 38.5849 36.2526 38.9977C36.5736 39.3588 37.0975 39.4325 37.5 39.1996V42C37.5 42.5523 37.9477 43 38.5 43C39.0523 43 39.5 42.5523 39.5 42V39.1996C39.9025 39.4325 40.4264 39.3588 40.7474 38.9977C41.1143 38.5849 41.0771 37.9528 40.6644 37.5859L39.1644 36.2526Z" fill="black"/>
<path d="M72.2847 27.2H78.0014C79.6582 27.2 81 28.5431 81 30.2V35.2084L80.4931 34.7578C79.3564 33.7474 77.6436 33.7474 76.5069 34.7578L75.0069 36.0911C73.873 37.099 73.6838 38.7739 74.5051 40H66C64.3431 40 63 38.6569 63 37V26.5669C63 25.1492 64.1492 24 65.5669 24H68.1144C68.8329 24 69.9362 25.1779 70.7625 26.06C71.0614 26.3791 71.324 26.6595 71.5191 26.8314C71.6586 26.9544 72.0987 27.2 72.2847 27.2Z" fill="black"/>
<path d="M79.1644 36.2526C78.7855 35.9158 78.2145 35.9158 77.8356 36.2526L76.3356 37.5859C75.9229 37.9528 75.8857 38.5849 76.2526 38.9977C76.5736 39.3588 77.0975 39.4325 77.5 39.1996V42C77.5 42.5523 77.9477 43 78.5 43C79.0523 43 79.5 42.5523 79.5 42V39.1996C79.9025 39.4325 80.4264 39.3588 80.7474 38.9977C81.1143 38.5849 81.0771 37.9528 80.6644 37.5859L79.1644 36.2526Z" fill="black"/>
</svg>
