<svg width="104" height="64" viewBox="0 0 104 64" fill="none" xmlns="http://www.w3.org/2000/svg">
<path fill-rule="evenodd" clip-rule="evenodd" d="M30 25C30 26.2851 29.1919 27.3816 28.0561 27.8088C28.1952 28.8133 28.5869 29.7687 29.1644 30.5111C29.8869 31.4401 30.8642 32 32 32C33.1358 32 34.1131 31.4401 34.8356 30.5111C35.4131 29.7687 35.8048 28.8133 35.9439 27.8088C34.8081 27.3816 34 26.2851 34 25C34 23.3431 35.3431 22 37 22C38.6569 22 40 23.3431 40 25C40 26.3233 39.1433 27.4464 37.9543 27.845C37.8007 29.2658 37.2653 30.6449 36.4144 31.7389C35.5773 32.8152 34.4114 33.6386 33 33.9068V36.1707C34.1652 36.5825 35 37.6938 35 39C35 40.6569 33.6569 42 32 42C30.3431 42 29 40.6569 29 39C29 37.6938 29.8348 36.5825 31 36.1707V33.9068C29.5886 33.6386 28.4227 32.8152 27.5856 31.7389C26.7347 30.6449 26.1993 29.2658 26.0457 27.845C24.8567 27.4464 24 26.3233 24 25C24 23.3431 25.3431 22 27 22C28.6569 22 30 23.3431 30 25ZM27 24C27.5523 24 28 24.4477 28 25C28 25.5523 27.5523 26 27 26C26.4477 26 26 25.5523 26 25C26 24.4477 26.4477 24 27 24ZM37 26C37.5523 26 38 25.5523 38 25C38 24.4477 37.5523 24 37 24C36.4477 24 36 24.4477 36 25C36 25.5523 36.4477 26 37 26ZM31 39C31 38.4477 31.4477 38 32 38C32.5523 38 33 38.4477 33 39C33 39.5523 32.5523 40 32 40C31.4477 40 31 39.5523 31 39Z" fill="black"/>
<path d="M64.5 24.5C64.5 25.5328 65.1263 26.4194 66.0199 26.8006C66.0068 26.865 66 26.9317 66 27C66 28.7099 66.5666 30.4288 67.5856 31.7389C68.4227 32.8152 69.5886 33.6386 71 33.9068V36.208C70.117 36.5938 69.5 37.4748 69.5 38.5C69.5 39.8807 70.6193 41 72 41C73.3807 41 74.5 39.8807 74.5 38.5C74.5 37.4748 73.883 36.5938 73 36.208V33.9068C74.4114 33.6386 75.5773 32.8152 76.4144 31.7389C77.4334 30.4288 78 28.7099 78 27C78 26.9317 77.9931 26.865 77.9801 26.8006C78.8737 26.4194 79.5 25.5328 79.5 24.5C79.5 23.1193 78.3807 22 77 22C75.6193 22 74.5 23.1193 74.5 24.5C74.5 25.5328 75.1263 26.4194 76.0199 26.8006C76.0069 26.865 76 26.9317 76 27C76 28.2901 75.5666 29.5712 74.8356 30.5111C74.1131 31.4401 73.1358 32 72 32C70.8642 32 69.8869 31.4401 69.1644 30.5111C68.4334 29.5712 68 28.2901 68 27C68 26.9317 67.9932 26.865 67.9801 26.8006C68.8737 26.4194 69.5 25.5328 69.5 24.5C69.5 23.1193 68.3807 22 67 22C65.6193 22 64.5 23.1193 64.5 24.5Z" fill="black"/>
</svg>
