<svg width="104" height="64" viewBox="0 0 104 64" fill="none" xmlns="http://www.w3.org/2000/svg">
<path fill-rule="evenodd" clip-rule="evenodd" d="M25.8455 26.7825C24.0794 25.8999 22 27.1832 22 29.1586V34.8414C22 36.8169 24.0794 38.1002 25.8455 37.2175L31 34.6415V34.8414C31 36.8169 33.0794 38.1002 34.8455 37.2175L40.5309 34.3761C42.4897 33.3972 42.4897 30.6028 40.5309 29.6239L34.8455 26.7825C33.0794 25.8999 31 27.1832 31 29.1586V29.3586L25.8455 26.7825ZM33 34.8414C33 35.3287 33.5137 35.6473 33.9514 35.4285L39.6368 32.5871C40.1211 32.3451 40.1211 31.6549 39.6368 31.4129L33.9514 28.5715C33.5137 28.3528 33 28.6713 33 29.1586V34.8414ZM31 31.9992C30.9997 31.7664 30.8787 31.5338 30.6368 31.4129L24.9514 28.5715C24.5137 28.3528 24 28.6713 24 29.1586V34.8414C24 35.3287 24.5137 35.6473 24.9514 35.4285L30.6368 32.5871C30.8787 32.4663 30.9997 32.2336 31 32.0009V31.9992Z" fill="black"/>
<path d="M65.3984 27.677L71.0839 30.5184C71.6943 30.8234 71.9996 31.4111 72 31.9989V29.1586C72 27.9272 73.2965 27.1263 74.3984 27.677L80.0839 30.5184C81.3054 31.1288 81.3054 32.8712 80.0839 33.4816L74.3984 36.323C73.2965 36.8737 72 36.0728 72 34.8414V32.0011C71.9996 32.5889 71.6943 33.1766 71.0839 33.4816L65.3984 36.323C64.2965 36.8737 63 36.0728 63 34.8414V29.1586C63 27.9272 64.2965 27.1263 65.3984 27.677Z" fill="black"/>
</svg>
