<svg width="104" height="64" viewBox="0 0 104 64" fill="none" xmlns="http://www.w3.org/2000/svg">
<path d="M28.0001 30C28.5524 30 29.0001 30.4477 29.0001 31V32H30.0001C30.5524 32 31.0001 32.4477 31.0001 33C31.0001 33.5523 30.5524 34 30.0001 34H29.0001V35C29.0001 35.5523 28.5524 36 28.0001 36C27.4478 36 27.0001 35.5523 27.0001 35V34H26.0001C25.4478 34 25.0001 33.5523 25.0001 33C25.0001 32.4477 25.4478 32 26.0001 32H27.0001V31C27.0001 30.4477 27.4478 30 28.0001 30Z" fill="black"/>
<path d="M36.0001 30C36.5524 30 37.0001 30.4477 37.0001 31C37.0001 31.5523 36.5524 32 36.0001 32C35.4478 32 35.0001 31.5523 35.0001 31C35.0001 30.4477 35.4478 30 36.0001 30Z" fill="black"/>
<path d="M37.0001 35C37.0001 34.4477 36.5524 34 36.0001 34C35.4478 34 35.0001 34.4477 35.0001 35C35.0001 35.5523 35.4478 36 36.0001 36C36.5524 36 37.0001 35.5523 37.0001 35Z" fill="black"/>
<path d="M38.0001 32C38.5524 32 39.0001 32.4477 39.0001 33C39.0001 33.5523 38.5524 34 38.0001 34C37.4478 34 37.0001 33.5523 37.0001 33C37.0001 32.4477 37.4478 32 38.0001 32Z" fill="black"/>
<path d="M35.0001 33C35.0001 32.4477 34.5524 32 34.0001 32C33.4478 32 33.0001 32.4477 33.0001 33C33.0001 33.5523 33.4478 34 34.0001 34C34.5524 34 35.0001 33.5523 35.0001 33Z" fill="black"/>
<path fill-rule="evenodd" clip-rule="evenodd" d="M36.0001 23C36 22.4477 35.5523 22 35 22C34.4477 22 34 22.4477 34.0001 23C34.0001 23.1733 33.9398 23.4556 33.7885 23.6657C33.6739 23.8249 33.4742 24 33.0001 24C32.4703 24 31.9656 24.1096 31.5512 24.3977C31.1185 24.6985 30.8897 25.1205 30.7985 25.5351C30.7756 25.6392 30.761 25.7434 30.7535 25.8467C26.4224 25.5173 22.4863 28.4699 21.6258 32.7724L21.4027 33.8878C21.1074 35.3647 21.3731 36.8986 22.1479 38.19C23.5574 40.5391 26.3686 41.649 29.0026 40.8964L30.3751 40.5043C31.4372 40.2008 32.563 40.2008 33.6251 40.5043L34.9976 40.8964C37.6317 41.649 40.4428 40.5391 41.8523 38.19C42.6272 36.8986 42.8928 35.3647 42.5975 33.8878L42.3744 32.7724C41.5701 28.7507 38.0786 25.9085 34.089 25.8236C34.6609 25.6228 35.1008 25.266 35.4116 24.8343C35.8603 24.2111 36.0001 23.4933 36.0001 23ZM31.6402 27.933C31.8657 28.0199 32.1219 28.0253 32.3602 27.933C32.5981 27.9231 32.8357 27.9033 33.0725 27.8737C36.5277 27.4418 39.7303 29.7502 40.4132 33.1647L40.6363 34.2801C40.8341 35.269 40.6562 36.2962 40.1373 37.161C39.1935 38.7341 37.3109 39.4774 35.547 38.9734L34.1746 38.5813C32.7534 38.1752 31.2469 38.1752 29.8257 38.5813L28.4532 38.9734C26.6893 39.4774 24.8068 38.7341 23.8629 37.161C23.344 36.2962 23.1661 35.269 23.3639 34.2801L23.587 33.1647C24.2699 29.7502 27.4726 27.4418 30.9278 27.8737C31.1645 27.9033 31.4022 27.9231 31.6402 27.933Z" fill="black"/>
<path fill-rule="evenodd" clip-rule="evenodd" d="M76.0001 23C76 22.4477 75.5523 22 75 22C74.4477 22 74 22.4477 74.0001 23C74.0001 23.1733 73.9399 23.4556 73.7885 23.6657C73.674 23.8249 73.4742 24 73.0001 24C72.4703 24 71.9656 24.1096 71.5512 24.3977C71.1185 24.6985 70.8897 25.1205 70.7985 25.5351C70.6955 26.0032 70.7612 26.4737 70.8756 26.8615C66.9683 26.4634 63.3804 29.0984 62.6064 32.9686L62.3833 34.084C62.1367 35.3169 62.3585 36.5974 63.0054 37.6755C64.1821 39.6366 66.5289 40.5632 68.7279 39.9349L70.1004 39.5428C71.342 39.188 72.6582 39.188 73.8998 39.5428L75.2723 39.9349C77.4713 40.5632 79.8181 39.6366 80.9948 37.6755C81.6417 36.5974 81.8635 35.3169 81.6169 34.084L81.3938 32.9686C80.6111 29.0549 76.9509 26.4043 72.9927 26.8761C72.979 26.7664 72.9468 26.6572 72.8945 26.5528C72.844 26.4517 72.7956 26.3229 72.7685 26.1967C72.7522 26.1206 72.7474 26.0631 72.7473 26.0235C72.7952 26.0121 72.8755 26 73.0001 26C74.126 26 74.9263 25.5085 75.4116 24.8343C75.8603 24.2111 76.0001 23.4933 76.0001 23ZM68.0001 30C68.5524 30 69.0001 30.4477 69.0001 31V32H70.0001C70.5524 32 71.0001 32.4477 71.0001 33C71.0001 33.5523 70.5524 34 70.0001 34H69.0001V35C69.0001 35.5523 68.5524 36 68.0001 36C67.4478 36 67.0001 35.5523 67.0001 35V34H66.0001C65.4478 34 65.0001 33.5523 65.0001 33C65.0001 32.4477 65.4478 32 66.0001 32H67.0001V31C67.0001 30.4477 67.4478 30 68.0001 30ZM76.0001 30C76.5524 30 77.0001 30.4477 77.0001 31C77.0001 31.5523 76.5524 32 76.0001 32C75.4478 32 75.0001 31.5523 75.0001 31C75.0001 30.4477 75.4478 30 76.0001 30ZM77.0001 35C77.0001 34.4477 76.5524 34 76.0001 34C75.4478 34 75.0001 34.4477 75.0001 35C75.0001 35.5523 75.4478 36 76.0001 36C76.5524 36 77.0001 35.5523 77.0001 35ZM78.0001 32C78.5524 32 79.0001 32.4477 79.0001 33C79.0001 33.5523 78.5524 34 78.0001 34C77.4478 34 77.0001 33.5523 77.0001 33C77.0001 32.4477 77.4478 32 78.0001 32ZM75.0001 33C75.0001 32.4477 74.5524 32 74.0001 32C73.4478 32 73.0001 32.4477 73.0001 33C73.0001 33.5523 73.4478 34 74.0001 34C74.5524 34 75.0001 33.5523 75.0001 33Z" fill="black"/>
</svg>
