<svg width="104" height="64" viewBox="0 0 104 64" fill="none" xmlns="http://www.w3.org/2000/svg">
<path d="M26.5938 24.6308C27.0749 24.7912 27.4524 25.1687 27.6127 25.6498C27.7759 26.1394 28.4685 26.1394 28.6317 25.6498C28.792 25.1687 29.1695 24.7912 29.6506 24.6308C30.1402 24.4676 30.1402 23.7751 29.6506 23.6119C29.1695 23.4515 28.792 23.074 28.6317 22.5929C28.4685 22.1033 27.7759 22.1033 27.6127 22.5929C27.4524 23.074 27.0749 23.4515 26.5938 23.6119C26.1042 23.7751 26.1042 24.4676 26.5938 24.6308Z" fill="black"/>
<path fill-rule="evenodd" clip-rule="evenodd" d="M34.0009 29C31.2394 29 29.0009 31.2386 29.0009 34C29.0009 36.7614 31.2394 39 34.0009 39C36.7623 39 39.0009 36.7614 39.0009 34C39.0009 31.2386 36.7623 29 34.0009 29ZM31.0009 34C31.0009 32.3432 32.344 31 34.0009 31C35.6577 31 37.0009 32.3432 37.0009 34C37.0009 35.6569 35.6577 37 34.0009 37C32.344 37 31.0009 35.6569 31.0009 34Z" fill="black"/>
<path fill-rule="evenodd" clip-rule="evenodd" d="M36.1848 25.8543C34.9632 24.7153 33.0385 24.7153 31.8169 25.8543C31.5619 26.092 31.1976 26.2101 30.8295 26.1599C29.1766 25.9346 27.583 27.0109 27.2804 28.6735C27.2229 28.9896 27.0141 29.2779 26.6937 29.4417C25.192 30.2096 24.5588 32.0196 25.3289 33.538C25.4773 33.8306 25.4773 34.1694 25.3289 34.4621C24.5588 35.9804 25.192 37.7904 26.6937 38.5583C27.0141 38.7222 27.2229 39.0104 27.2804 39.3265C27.583 40.9891 29.1766 42.0654 30.8295 41.8401C31.1976 41.7899 31.5619 41.908 31.8169 42.1458C33.0385 43.2848 34.9632 43.2848 36.1848 42.1458C36.4398 41.908 36.8041 41.7899 37.1722 41.8401C38.8251 42.0654 40.4188 40.9891 40.7213 39.3265C40.7789 39.0104 40.9876 38.7222 41.308 38.5583C42.8097 37.7904 43.4429 35.9804 42.6728 34.4621C42.5244 34.1694 42.5244 33.8306 42.6728 33.538C43.4429 32.0196 42.8097 30.2096 41.308 29.4417C40.9876 29.2779 40.7789 28.9896 40.7213 28.6735C40.4188 27.0109 38.8251 25.9346 37.1722 26.1599C36.8041 26.2101 36.4398 26.092 36.1848 25.8543ZM33.1809 27.317C33.6342 26.8943 34.3675 26.8943 34.8208 27.317C35.5236 27.9723 36.491 28.2713 37.4424 28.1416C38.0968 28.0524 38.6536 28.4819 38.7537 29.0316C38.9264 29.9806 39.5407 30.7843 40.3974 31.2224C40.9543 31.5072 41.1425 32.1338 40.8891 32.6333C40.4523 33.4946 40.4523 34.5054 40.8891 35.3667C41.1425 35.8663 40.9543 36.4929 40.3974 36.7776C39.5407 37.2158 38.9264 38.0194 38.7537 38.9684C38.6536 39.5181 38.0968 39.9477 37.4424 39.8584C36.491 39.7287 35.5236 40.0277 34.8208 40.683C34.3675 41.1057 33.6342 41.1057 33.1809 40.683C32.4781 40.0277 31.5107 39.7287 30.5593 39.8584C29.9049 39.9477 29.3481 39.5181 29.2481 38.9684C29.0753 38.0194 28.461 37.2158 27.6043 36.7776C27.0474 36.4929 26.8592 35.8663 27.1126 35.3667C27.5494 34.5054 27.5494 33.4946 27.1126 32.6333C26.8592 32.1338 27.0474 31.5072 27.6043 31.2224C28.461 30.7843 29.0753 29.9806 29.2481 29.0316C29.3481 28.4819 29.9049 28.0524 30.5593 28.1416C31.5107 28.2713 32.4781 27.9723 33.1809 27.317Z" fill="black"/>
<path d="M23.6127 29.6498C23.4524 29.1687 23.0749 28.7912 22.5938 28.6308C22.1042 28.4676 22.1042 27.7751 22.5938 27.6119C23.0749 27.4515 23.4524 27.074 23.6127 26.5929C23.7759 26.1033 24.4685 26.1033 24.6317 26.5929C24.792 27.074 25.1695 27.4515 25.6506 27.6119C26.1402 27.7751 26.1402 28.4676 25.6506 28.6308C25.1695 28.7912 24.792 29.1687 24.6317 29.6498C24.4685 30.1394 23.7759 30.1394 23.6127 29.6498Z" fill="black"/>
<path d="M71.0009 34C71.0009 32.3432 72.344 31 74.0009 31C75.6577 31 77.0009 32.3432 77.0009 34C77.0009 35.6569 75.6577 37 74.0009 37C72.344 37 71.0009 35.6569 71.0009 34Z" fill="black"/>
<path fill-rule="evenodd" clip-rule="evenodd" d="M75.5028 26.5856C74.6654 25.8048 73.3363 25.8048 72.4989 26.5856C72.02 27.0322 71.3541 27.2407 70.6944 27.1508C69.5407 26.9935 68.4655 27.7464 68.2642 28.8526C68.1491 29.4851 67.7376 30.0311 67.149 30.3321C66.1197 30.8584 65.709 32.0767 66.2207 33.0856C66.5133 33.6626 66.5133 34.3374 66.2207 34.9144C65.709 35.9233 66.1197 37.1416 67.149 37.668C67.7376 37.969 68.1491 38.5149 68.2642 39.1475C68.4655 40.2536 69.5407 41.0066 70.6944 40.8493C71.3541 40.7593 72.02 40.9679 72.4989 41.4144C73.3363 42.1952 74.6654 42.1952 75.5028 41.4144C75.9817 40.9679 76.6476 40.7593 77.3073 40.8493C78.461 41.0066 79.5362 40.2536 79.7375 39.1475C79.8526 38.5149 80.2641 37.969 80.8527 37.668C81.882 37.1416 82.2927 35.9233 81.781 34.9144C81.4884 34.3374 81.4884 33.6626 81.781 33.0856C82.2927 32.0767 81.882 30.8584 80.8527 30.3321C80.2641 30.0311 79.8526 29.4851 79.7375 28.8526C79.5362 27.7464 78.461 26.9935 77.3073 27.1508C76.6476 27.2407 75.9817 27.0322 75.5028 26.5856ZM74.0009 29C71.2394 29 69.0009 31.2386 69.0009 34C69.0009 36.7614 71.2394 39 74.0009 39C76.7623 39 79.0009 36.7614 79.0009 34C79.0009 31.2386 76.7623 29 74.0009 29Z" fill="black"/>
<path d="M63.6127 29.6498C63.4524 29.1687 63.0749 28.7912 62.5938 28.6308C62.1042 28.4676 62.1042 27.7751 62.5938 27.6119C63.0749 27.4515 63.4524 27.074 63.6127 26.5929C63.7759 26.1033 64.4685 26.1033 64.6317 26.5929C64.792 27.074 65.1695 27.4515 65.6506 27.6119C66.1402 27.7751 66.1402 28.4676 65.6506 28.6308C65.1695 28.7912 64.792 29.1687 64.6317 29.6498C64.4685 30.1394 63.7759 30.1394 63.6127 29.6498Z" fill="black"/>
<path d="M67.6127 25.6498C67.4524 25.1687 67.0749 24.7912 66.5938 24.6308C66.1042 24.4676 66.1042 23.7751 66.5938 23.6119C67.0749 23.4515 67.4524 23.074 67.6127 22.5929C67.7759 22.1033 68.4685 22.1033 68.6317 22.5929C68.792 23.074 69.1695 23.4515 69.6506 23.6119C70.1402 23.7751 70.1402 24.4676 69.6506 24.6308C69.1695 24.7912 68.792 25.1687 68.6317 25.6498C68.4685 26.1394 67.7759 26.1394 67.6127 25.6498Z" fill="black"/>
</svg>
