<svg width="104" height="64" viewBox="0 0 104 64" fill="none" xmlns="http://www.w3.org/2000/svg">
<path fill-rule="evenodd" clip-rule="evenodd" d="M29 22C28.9342 22 28.8685 22.0065 28.8039 22.0194L24.8662 22.8069C23.8721 23.0058 23.0457 23.6932 22.6692 24.6345L21.0715 28.6286C20.9419 28.9526 20.9906 29.3208 21.2 29.6L29.6 40.8C30.1666 41.5554 31.0557 42 32 42C32.9443 42 33.8334 41.5554 34.4 40.8L42.8 29.6C43.0094 29.3208 43.0581 28.9526 42.9285 28.6286L41.3308 24.6345C40.9543 23.6932 40.1279 23.0058 39.1338 22.8069L35.1961 22.0194C35.1316 22.0065 35.0659 22 35 22H29ZM39.6296 30.4939L35.173 36.436L37.6984 30.8801L39.6296 30.4939ZM40.625 28.2552L37.7082 28.8386L36.4121 24.3022L38.7415 24.7681C39.0729 24.8344 39.3484 25.0635 39.4739 25.3773L40.625 28.2552ZM28.3257 29L29.7543 24H34.2457L35.6743 29H28.3257ZM32 38.5834L28.553 31H35.447L32 38.5834ZM28.827 36.436L26.3016 30.8801L24.3704 30.4939L28.827 36.436ZM24.5261 25.3773L23.375 28.2552L26.2918 28.8386L27.5879 24.3022L25.2585 24.7681C24.9271 24.8344 24.6516 25.0635 24.5261 25.3773Z" fill="black"/>
<path d="M67.8363 36.1222C67.9335 36.3399 67.6367 36.5144 67.4937 36.3237L62.9906 30.3196C62.8803 30.1725 63.0103 29.9669 63.1905 30.0036L65.1965 30.4122C65.2597 30.4251 65.3129 30.4678 65.3392 30.5267L67.8363 36.1222Z" fill="black"/>
<path d="M80.8113 30.0036C80.9916 29.9669 81.1216 30.1724 81.0113 30.3196L76.5077 36.3243C76.3647 36.515 76.0679 36.3405 76.1651 36.1228L78.6625 30.5267C78.6888 30.4678 78.7419 30.4251 78.8052 30.4122L80.8113 30.0036Z" fill="black"/>
<path d="M77.4193 23.7802C77.379 23.6364 77.5047 23.5008 77.6511 23.53L78.9386 23.7875C79.6013 23.9201 80.1523 24.3784 80.4033 25.0059L81.4386 27.5942C81.4849 27.71 81.4151 27.8395 81.2928 27.8644L78.8947 28.3529C78.792 28.3739 78.6906 28.3119 78.6622 28.211L77.4193 23.7802Z" fill="black"/>
<path d="M68.8403 23.1357C68.8592 23.0684 68.9143 23.0173 68.9829 23.0036C68.9949 23.0012 69.0071 23 69.0193 23H74.9825C74.9948 23 75.007 23.0012 75.0189 23.0036C75.0874 23.0173 75.1424 23.0683 75.1613 23.1355L76.6105 28.3015C76.6462 28.4291 76.5504 28.5556 76.4179 28.5556H67.5838C67.4513 28.5556 67.3554 28.4291 67.3912 28.3015L68.8403 23.1357Z" fill="black"/>
<path d="M66.3505 23.5301C66.4969 23.5008 66.6227 23.6365 66.5823 23.7802L65.3394 28.211C65.3111 28.3119 65.2096 28.3739 65.1069 28.3529L62.709 27.8645C62.5868 27.8396 62.5169 27.71 62.5632 27.5942L63.5986 25.0059C63.8496 24.3784 64.4005 23.9201 65.0633 23.7875L66.3505 23.5301Z" fill="black"/>
<path d="M72.1835 40.137C72.113 40.295 71.8887 40.295 71.8182 40.137L67.6678 30.8371C67.6088 30.7048 67.7056 30.5556 67.8504 30.5556H76.1512C76.2961 30.5556 76.3929 30.7048 76.3338 30.8371L72.1835 40.137Z" fill="black"/>
</svg>
