<svg width="104" height="64" viewBox="0 0 104 64" fill="none" xmlns="http://www.w3.org/2000/svg">
<path fill-rule="evenodd" clip-rule="evenodd" d="M33.6982 22.1047L32.5 23.1939L31.3018 22.1047C29.4273 20.4006 26.807 21.9314 26.7308 23.9999H24C22.3431 23.9999 21 25.3431 21 26.9999V28.8888C21 29.693 21.4496 30.3921 22.1111 30.7485V38.9999C22.1111 41.2091 23.902 42.9999 26.1111 42.9999H37.8889C40.098 42.9999 41.8889 41.2091 41.8889 38.9999V30.7485C42.5504 30.3921 43 29.693 43 28.8888V26.9999C43 25.3431 41.6569 23.9999 40 23.9999H38.2692C38.193 21.9314 35.5727 20.4006 33.6982 22.1047ZM28.0183 25.9999C28.0067 26.0001 27.9951 26.0001 27.9836 25.9999H24C23.4477 25.9999 23 26.4477 23 26.9999V28.8888C23 28.9502 23.0497 28.9999 23.1111 28.9999H40.8889C40.9503 28.9999 41 28.9502 41 28.8888V26.9999C41 26.4477 40.5523 25.9999 40 25.9999H37.0164C37.0049 26.0001 36.9933 26.0001 36.9817 25.9999H28.0183ZM33.5 30.9999H30.5V33.6875C30.5 33.7219 30.5084 33.7381 30.5147 33.7477C30.5234 33.7609 30.5393 33.7765 30.5631 33.7879C30.587 33.7994 30.6091 33.8021 30.6248 33.8006C30.6363 33.7996 30.6542 33.796 30.681 33.7745C31.4521 33.1576 32.5479 33.1576 33.319 33.7745C33.3458 33.796 33.3637 33.7996 33.3752 33.8006C33.3909 33.8021 33.413 33.7994 33.4369 33.7879C33.4607 33.7765 33.4766 33.7609 33.4853 33.7477C33.4916 33.7381 33.5 33.7219 33.5 33.6875V30.9999ZM28.5 30.9999V33.6875C28.5 35.4579 30.5479 36.4422 31.9304 35.3362C31.9711 35.3037 32.0289 35.3037 32.0696 35.3362C33.4521 36.4422 35.5 35.4579 35.5 33.6875V30.9999H39.8889V38.9999C39.8889 40.1045 38.9935 40.9999 37.8889 40.9999H26.1111C25.0065 40.9999 24.1111 40.1045 24.1111 38.9999V30.9999H28.5ZM29.9564 23.5845L30.4134 23.9999H28.7574C28.8415 23.4984 29.4873 23.1581 29.9564 23.5845ZM36.2426 23.9999C36.1585 23.4984 35.5127 23.1581 35.0436 23.5845L34.5866 23.9999H36.2426Z" fill="black"/>
<path fill-rule="evenodd" clip-rule="evenodd" d="M64 24.9999H66.7308C66.807 22.9314 69.4273 21.4006 71.3018 23.1047L72.5 24.1939L73.6982 23.1047C75.5727 21.4006 78.193 22.9314 78.2692 24.9999H80C81.1046 24.9999 82 25.8954 82 26.9999V28.8888C82 29.5025 81.5025 29.9999 80.8889 29.9999H63.1111C62.4975 29.9999 62 29.5025 62 28.8888V26.9999C62 25.8954 62.8954 24.9999 64 24.9999ZM70.4134 24.9999H68.7574C68.8415 24.4984 69.4873 24.1581 69.9564 24.5845L70.4134 24.9999ZM76.2426 24.9999C76.1585 24.4984 75.5127 24.1581 75.0436 24.5845L74.5866 24.9999H76.2426Z" fill="black"/>
<path d="M69.5 33.6875V31.9999H63.1111V38.9999C63.1111 40.6568 64.4542 41.9999 66.1111 41.9999H77.8889C79.5457 41.9999 80.8889 40.6568 80.8889 38.9999V31.9999H74.5V33.6875C74.5 34.6194 73.422 35.1376 72.6943 34.5554C72.2884 34.2307 71.7116 34.2307 71.3057 34.5554C70.578 35.1376 69.5 34.6194 69.5 33.6875Z" fill="black"/>
</svg>
