<svg width="104" height="64" viewBox="0 0 104 64" fill="none" xmlns="http://www.w3.org/2000/svg">
<path fill-rule="evenodd" clip-rule="evenodd" d="M32 21C28.4006 21 25.2049 22.7299 23.1997 25.3994C21.8187 27.238 21 29.5248 21 32C21 34.4752 21.8187 36.762 23.1997 38.6006C25.2049 41.2701 28.4006 43 32 43C35.5994 43 38.7951 41.2701 40.8003 38.6006C42.1813 36.762 43 34.4752 43 32C43 29.5248 42.1813 27.238 40.8003 25.3994C38.7951 22.7299 35.5994 21 32 21ZM24.9015 26.9176C25.1256 26.8968 25.3897 26.8729 25.6844 26.8473C25.6026 28.0619 25.5309 29.4946 25.5078 31H23.0549C23.2194 29.5099 23.7474 28.1305 24.5486 26.9508C24.651 26.941 24.7693 26.9299 24.9015 26.9176ZM24.5486 37.0492C23.7474 35.8695 23.2194 34.4901 23.0549 33H25.5078C25.5309 34.5054 25.6026 35.9381 25.6844 37.1527C25.3897 37.1271 25.1256 37.1032 24.9015 37.0824C24.7693 37.0701 24.651 37.059 24.5486 37.0492ZM27.5081 33C27.533 34.5746 27.6124 36.0714 27.7002 37.3123C28.7745 37.3887 29.9423 37.4564 31 37.4852V33H27.5081ZM27.9193 39.8659C27.9254 39.9251 27.9312 39.9809 27.9366 40.0329C28.8752 40.5086 29.9082 40.8245 31 40.9451V39.4859C29.9876 39.4595 28.8878 39.3986 27.8665 39.3288C27.8846 39.5195 27.9015 39.6907 27.9167 39.8403C27.9176 39.8489 27.9185 39.8574 27.9193 39.8659ZM36.0634 40.0329C35.1248 40.5086 34.0918 40.8245 33 40.9451V39.4859C34.0124 39.4595 35.1122 39.3986 36.1335 39.3288C36.1154 39.5195 36.0985 39.6907 36.0833 39.8403C36.0763 39.9091 36.0696 39.9734 36.0634 40.0329ZM36.2998 37.3123C35.2255 37.3887 34.0577 37.4564 33 37.4852V33H36.4919C36.467 34.5746 36.3876 36.0714 36.2998 37.3123ZM36.2998 26.6877C36.3876 27.9286 36.467 29.4254 36.4919 31H33V26.5148C34.0577 26.5436 35.2255 26.6113 36.2998 26.6877ZM36.1335 24.6712C35.1122 24.6014 34.0124 24.5405 33 24.5141V23.0549C34.0918 23.1755 35.1248 23.4914 36.0634 23.9671C36.0696 24.0266 36.0763 24.0909 36.0833 24.1597C36.0985 24.3093 36.1154 24.4805 36.1335 24.6712ZM27.8665 24.6712C28.8878 24.6014 29.9876 24.5405 31 24.5141V23.0549C29.9082 23.1755 28.8752 23.4914 27.9366 23.9671C27.9304 24.0266 27.9237 24.0909 27.9167 24.1597C27.9015 24.3093 27.8846 24.4805 27.8665 24.6712ZM31 26.5148C29.9423 26.5436 28.7745 26.6113 27.7002 26.6877C27.6124 27.9286 27.533 29.4254 27.5081 31H31V26.5148ZM39.0985 26.9176C38.8744 26.8968 38.6103 26.8729 38.3156 26.8473C38.3974 28.0619 38.4691 29.4946 38.4922 31H40.9451C40.7806 29.5099 40.2526 28.1305 39.4514 26.9508C39.349 26.941 39.2307 26.9299 39.0985 26.9176ZM38.3156 37.1527C38.3974 35.9381 38.4691 34.5054 38.4922 33H40.9451C40.7806 34.4901 40.2526 35.8695 39.4514 37.0492C39.349 37.059 39.2307 37.0701 39.0985 37.0824C38.8744 37.1032 38.6103 37.1271 38.3156 37.1527Z" fill="black"/>
<path d="M65.5326 24.4112C65.3513 24.4262 65.1767 24.4409 65.0101 24.4552C65.1915 24.2871 65.3789 24.1254 65.5721 23.9706C65.5592 24.1099 65.546 24.257 65.5326 24.4112Z" fill="black"/>
<path d="M67.1427 23.3123C67.1587 23.156 67.1729 23.0209 67.185 22.9092C68.4134 22.2571 69.7896 21.8469 71.2503 21.7417V24.0846C69.9139 24.1102 68.4009 24.1973 67.0488 24.2942C67.0833 23.911 67.1155 23.5804 67.1427 23.3123Z" fill="black"/>
<path d="M72.7503 24.0846V21.7417C74.211 21.8469 75.5873 22.2571 76.8157 22.9092C76.8278 23.0209 76.842 23.156 76.8579 23.3123C76.8852 23.5804 76.9174 23.911 76.9519 24.2942C75.5998 24.1973 74.0867 24.1102 72.7503 24.0846Z" fill="black"/>
<path d="M78.4681 24.4112C78.4546 24.257 78.4414 24.1099 78.4286 23.9706C78.6218 24.1254 78.8092 24.2871 78.9906 24.4552C78.824 24.4409 78.6494 24.4262 78.4681 24.4112Z" fill="black"/>
<path d="M79.8662 26.0394C80.0892 26.0601 80.2764 26.078 80.4205 26.092C81.4609 27.5719 82.1208 29.3379 82.2585 31.2498H78.8156C78.7947 29.2953 78.6963 27.4345 78.5883 25.9265C79.0826 25.968 79.5179 26.0071 79.8662 26.0394Z" fill="black"/>
<path d="M78.8156 32.7498H82.2585C82.1208 34.6618 81.4609 36.4278 80.4205 37.9077C80.2764 37.9217 80.0892 37.9396 79.8662 37.9603C79.5179 37.9926 79.0826 38.0316 78.5883 38.0732C78.6963 36.5652 78.7947 34.7044 78.8156 32.7498Z" fill="black"/>
<path d="M78.4681 39.5884C78.6494 39.5735 78.824 39.5588 78.9906 39.5444C78.8092 39.7126 78.6218 39.8743 78.4286 40.0291C78.4414 39.8897 78.4546 39.7427 78.4681 39.5884Z" fill="black"/>
<path d="M76.8579 40.6874C76.842 40.8437 76.8278 40.9787 76.8157 41.0905C75.5873 41.7426 74.211 42.1528 72.7503 42.258V39.915C74.0867 39.8895 75.5998 39.8024 76.9519 39.7055C76.9174 40.0887 76.8852 40.4193 76.8579 40.6874Z" fill="black"/>
<path d="M71.2503 39.915V42.258C69.7896 42.1528 68.4134 41.7426 67.185 41.0905C67.1729 40.9787 67.1587 40.8437 67.1427 40.6874C67.1155 40.4193 67.0833 40.0887 67.0488 39.7055C68.4009 39.8024 69.9139 39.8895 71.2503 39.915Z" fill="black"/>
<path d="M65.5326 39.5884C65.546 39.7427 65.5592 39.8897 65.5721 40.0291C65.3789 39.8743 65.1915 39.7126 65.0101 39.5444C65.1767 39.5588 65.3513 39.5735 65.5326 39.5884Z" fill="black"/>
<path d="M64.1344 37.9603C63.9115 37.9396 63.7243 37.9217 63.5802 37.9077C62.5398 36.4278 61.8799 34.6618 61.7422 32.7498H65.1851C65.206 34.7044 65.3044 36.5652 65.4124 38.0732C64.9181 38.0316 64.4828 37.9926 64.1344 37.9603Z" fill="black"/>
<path d="M65.1851 31.2498H61.7422C61.8799 29.3379 62.5398 27.5719 63.5802 26.092C63.7243 26.078 63.9115 26.0601 64.1344 26.0394C64.4828 26.0071 64.9181 25.968 65.4124 25.9265C65.3044 27.4345 65.206 29.2953 65.1851 31.2498Z" fill="black"/>
<path d="M66.6852 31.2498C66.7071 29.2408 66.8125 27.3283 66.925 25.8071C68.3152 25.705 69.8842 25.6119 71.2503 25.5849V31.2498H66.6852Z" fill="black"/>
<path d="M72.7503 31.2498V25.5849C74.1164 25.6119 75.6854 25.705 77.0757 25.8071C77.1881 27.3283 77.2936 29.2408 77.3155 31.2498H72.7503Z" fill="black"/>
<path d="M72.7503 32.7498H77.3155C77.2936 34.7589 77.1881 36.6713 77.0757 38.1926C75.6854 38.2947 74.1164 38.3878 72.7503 38.4148V32.7498Z" fill="black"/>
<path d="M71.2503 32.7498V38.4148C69.8842 38.3878 68.3152 38.2947 66.925 38.1926C66.8125 36.6713 66.7071 34.7589 66.6852 32.7498H71.2503Z" fill="black"/>
</svg>
