<svg width="104" height="64" viewBox="0 0 104 64" fill="none" xmlns="http://www.w3.org/2000/svg">
<path fill-rule="evenodd" clip-rule="evenodd" d="M32 21C25.9249 21 21 25.9249 21 32C21 38.0751 25.9249 43 32 43C38.0751 43 43 38.0751 43 32C43 25.9249 38.0751 21 32 21ZM24.1593 31.3023L23.0008 31.8816C23.0278 29.7842 23.7723 27.8599 25 26.3427V28.3599L24.1593 31.3023ZM27 24.5155C28.4301 23.5583 30.1499 23 32 23C36.8348 23 40.7791 26.8123 40.991 31.5947L37.5448 35.0409L37.0554 39.4471C35.6144 40.4272 33.8741 41 32 41C27.7189 41 24.136 38.0109 23.2243 34.0059L25.8407 32.6977L26.2172 31.3797C26.0734 32.2094 26.4611 33.0986 27.2937 33.5149L29.5403 34.6382L29.7749 38.1571C29.9078 40.1508 32.56 40.7387 33.5229 38.9879L37.1568 32.3809C37.4356 31.874 37.4812 31.2711 37.2818 30.7279L36.442 28.4399C36.1086 27.5316 35.1728 26.9922 34.2197 27.159L29.6389 27.9605C29.2338 28.0314 28.8603 28.2255 28.5694 28.5164L26.774 30.3118C26.5762 30.5095 26.4301 30.735 26.3332 30.9739L27 28.6401V24.5155ZM39.4552 35.9591L40.5268 34.8874C40.2386 35.7388 39.8265 36.533 39.3119 37.2487L39.4552 35.9591ZM30.4348 32.8493L28.1882 31.726L29.9836 29.9306L34.5644 29.1291L35.4043 31.4171L31.7705 38.0241L31.5359 34.5052C31.4887 33.7969 31.0696 33.1668 30.4348 32.8493Z" fill="black"/>
<path d="M64.6524 24.8585C62.8586 26.7039 61.7539 29.2228 61.7539 31.9997C61.7539 32.1443 61.7569 32.2881 61.7628 32.4312L63.6723 31.4765L64.6524 28.046V24.8585Z" fill="black"/>
<path d="M74.842 28.4841C74.9612 28.4632 75.0781 28.5307 75.1198 28.6442L76.0877 31.2809C76.1126 31.3488 76.1069 31.4242 76.0721 31.4876L71.8902 39.0909C71.8522 39.16 71.8098 39.1891 71.7738 39.204C71.7318 39.2213 71.6765 39.2276 71.6171 39.2144C71.5577 39.2013 71.5102 39.1722 71.4795 39.1387C71.4532 39.11 71.427 39.0657 71.4217 38.987L71.1373 34.7209C71.096 34.1012 70.7293 33.5498 70.1738 33.272L67.5287 31.9495C67.3761 31.8731 67.3431 31.6697 67.4637 31.5491L69.5581 29.4547C69.5945 29.4183 69.6412 29.3941 69.6918 29.3852L74.842 28.4841Z" fill="black"/>
<path fill-rule="evenodd" clip-rule="evenodd" d="M66.1524 23.5849V28.2561L64.9333 32.523L61.9518 34.0138C62.8875 38.7082 67.0307 42.246 72.0002 42.246C74.192 42.246 76.2231 41.5578 77.8891 40.3857L78.4315 35.5041L82.242 31.6936C82.0801 26.1763 77.5567 21.7534 72.0002 21.7534C69.8264 21.7534 67.8107 22.4304 66.1524 23.5849ZM76.5279 28.1273C76.2362 27.3326 75.4174 26.8606 74.5835 27.0065L69.4333 27.9077C69.0788 27.9697 68.752 28.1395 68.4975 28.394L66.4031 30.4884C65.5585 31.333 65.7895 32.7569 66.8579 33.2911L69.503 34.6137C69.5824 34.6533 69.6348 34.7321 69.6407 34.8206L69.9251 39.0868C70.0414 40.8313 72.362 41.3456 73.2046 39.8137L77.3864 32.2104C77.6304 31.7668 77.6703 31.2393 77.4958 30.7641L76.5279 28.1273Z" fill="black"/>
<path d="M82.05 34.0069L79.8642 36.1927L79.5619 38.9142C80.7994 37.5616 81.6789 35.8757 82.05 34.0069Z" fill="black"/>
</svg>
