<svg width="104" height="64" viewBox="0 0 104 64" fill="none" xmlns="http://www.w3.org/2000/svg">
<path fill-rule="evenodd" clip-rule="evenodd" d="M32 28C29.7909 28 28 29.7909 28 32C28 34.2091 29.7909 36 32 36C34.2091 36 36 34.2091 36 32C36 29.7909 34.2091 28 32 28ZM30 32C30 30.8954 30.8954 30 32 30C33.1046 30 34 30.8954 34 32C34 33.1046 33.1046 34 32 34C30.8954 34 30 33.1046 30 32Z" fill="black"/>
<path fill-rule="evenodd" clip-rule="evenodd" d="M32 21C32.5523 21 33 21.4477 33 22V23.0549C37.1716 23.5161 40.4839 26.8284 40.9451 31H42C42.5523 31 43 31.4477 43 32C43 32.5523 42.5523 33 42 33H40.9451C40.4839 37.1716 37.1716 40.4839 33 40.9451V42C33 42.5523 32.5523 43 32 43C31.4477 43 31 42.5523 31 42V40.9451C26.8284 40.4839 23.5161 37.1716 23.0549 33H22C21.4477 33 21 32.5523 21 32C21 31.4477 21.4477 31 22 31H23.0549C23.5161 26.8284 26.8284 23.5161 31 23.0549V22C31 21.4477 31.4477 21 32 21ZM39 32C39 28.134 35.866 25 32 25C28.134 25 25 28.134 25 32C25 35.866 28.134 39 32 39C35.866 39 39 35.866 39 32Z" fill="black"/>
<path fill-rule="evenodd" clip-rule="evenodd" d="M72 21C72.5523 21 73 21.4477 73 22V24C73 24.0207 72.9994 24.0413 72.9981 24.0617C76.6184 24.5122 79.4878 27.3816 79.9383 31.0019C79.9587 31.0006 79.9793 31 80 31H82C82.5523 31 83 31.4477 83 32C83 32.5523 82.5523 33 82 33H80C79.9793 33 79.9587 32.9994 79.9383 32.9981C79.4878 36.6184 76.6184 39.4878 72.9981 39.9383C72.9994 39.9587 73 39.9793 73 40V42C73 42.5523 72.5523 43 72 43C71.4477 43 71 42.5523 71 42V40C71 39.9793 71.0006 39.9587 71.0019 39.9383C67.3816 39.4878 64.5122 36.6184 64.0617 32.9981C64.0413 32.9994 64.0207 33 64 33H62C61.4477 33 61 32.5523 61 32C61 31.4477 61.4477 31 62 31H64C64.0207 31 64.0413 31.0006 64.0617 31.0019C64.5122 27.3816 67.3816 24.5122 71.0019 24.0617C71.0006 24.0413 71 24.0207 71 24V22C71 21.4477 71.4477 21 72 21ZM72 35C73.6569 35 75 33.6569 75 32C75 30.3431 73.6569 29 72 29C70.3431 29 69 30.3431 69 32C69 33.6569 70.3431 35 72 35Z" fill="black"/>
</svg>
