<svg width="104" height="64" viewBox="0 0 104 64" fill="none" xmlns="http://www.w3.org/2000/svg">
<path fill-rule="evenodd" clip-rule="evenodd" d="M32.7726 22.5469C32.2976 22.2619 31.7041 22.2619 31.2291 22.5469L22.2009 27.9638C21.2299 28.5464 21.2299 29.9537 22.2009 30.5363L24.0008 31.6162V38.0158C24.0008 38.4537 24.1938 38.9004 24.5846 39.193C25.3458 39.7629 28.2521 41.75 32.0008 41.75C35.7496 41.75 38.6559 39.7629 39.4171 39.193C39.8078 38.9004 40.0008 38.4537 40.0008 38.0158V31.6162L41.8008 30.5363C42.7718 29.9537 42.7718 28.5464 41.8008 27.9638L32.7726 22.5469ZM23.9445 29.25L32.0008 24.4162L40.0572 29.25L36.6953 31.2672L33.0821 28.6863C32.6327 28.3653 32.0081 28.4694 31.6871 28.9188C31.3661 29.3682 31.4702 29.9928 31.9196 30.3138L34.8252 32.3892L32.0008 34.0838L23.9445 29.25ZM35.0008 34.6162L32.7726 35.9532C32.2976 36.2382 31.7041 36.2382 31.2291 35.9532L26.0008 32.8162V37.7491C26.8835 38.3662 29.1852 39.75 32.0008 39.75C34.8165 39.75 37.1182 38.3662 38.0008 37.7491V32.8162L37.0008 33.4162V36C37.0008 36.5523 36.5531 37 36.0008 37C35.4485 37 35.0008 36.5523 35.0008 36V34.6162Z" fill="black"/>
<path d="M72.5079 22.3007C72.1941 22.1153 71.8042 22.1153 71.4904 22.3007L62.4561 27.6392C61.8011 28.0262 61.8011 28.9739 62.4561 29.361L71.4904 34.6995C71.8042 34.8849 72.1941 34.8849 72.5079 34.6995L75.4992 32.9319V31.9999L71.8992 29.2999C71.4574 28.9685 71.3679 28.3417 71.6992 27.8999C72.0306 27.4581 72.6574 27.3685 73.0992 27.6999L77.0992 30.6999C77.351 30.8888 77.4992 31.1852 77.4992 31.4999V31.75L81.5422 29.361C82.1972 28.9739 82.1972 28.0262 81.5422 27.6392L72.5079 22.3007Z" fill="black"/>
<path d="M72.2564 36.6633L75.4991 34.7177V35.8C75.4991 36.3523 75.9469 36.8 76.4991 36.8C77.0514 36.8 77.4991 36.3523 77.4991 35.8V33.5177L78.2419 33.072C78.5752 32.8721 78.9991 33.1121 78.9991 33.5008V39.5835C78.9991 39.7319 78.9348 39.8712 78.816 39.9601C78.1082 40.4901 75.4192 42.3177 71.9991 42.3177C68.5791 42.3177 65.8901 40.4901 65.1823 39.9601C65.0635 39.8712 64.9991 39.7319 64.9991 39.5835V33.5008C64.9991 33.1121 65.4231 32.8721 65.7564 33.072L71.7419 36.6633C71.9002 36.7583 72.0981 36.7583 72.2564 36.6633Z" fill="black"/>
</svg>
