<svg width="104" height="64" viewBox="0 0 104 64" fill="none" xmlns="http://www.w3.org/2000/svg">
<path fill-rule="evenodd" clip-rule="evenodd" d="M24 31.5C22.6193 31.5 21.5 30.3807 21.5 29V24C21.5 22.6193 22.6193 21.5 24 21.5H29C30.3807 21.5 31.5 22.6193 31.5 24V29C31.5 30.3807 30.3807 31.5 29 31.5H24ZM23.5 29C23.5 29.2761 23.7239 29.5 24 29.5L29 29.5C29.2761 29.5 29.5 29.2761 29.5 29V24C29.5 23.7239 29.2761 23.5 29 23.5L24 23.5C23.7239 23.5 23.5 23.7239 23.5 24L23.5 29Z" fill="black"/>
<path fill-rule="evenodd" clip-rule="evenodd" d="M21.5 40C21.5 41.3807 22.6193 42.5 24 42.5H29C30.3807 42.5 31.5 41.3807 31.5 40V35C31.5 33.6193 30.3807 32.5 29 32.5H24C22.6193 32.5 21.5 33.6193 21.5 35V40ZM24 40.5C23.7239 40.5 23.5 40.2761 23.5 40L23.5 35C23.5 34.7239 23.7239 34.5 24 34.5H29C29.2761 34.5 29.5 34.7239 29.5 35V40C29.5 40.2761 29.2761 40.5 29 40.5H24Z" fill="black"/>
<path fill-rule="evenodd" clip-rule="evenodd" d="M32.5 40C32.5 41.3807 33.6193 42.5 35 42.5H40C41.3807 42.5 42.5 41.3807 42.5 40V35C42.5 33.6193 41.3807 32.5 40 32.5H35C33.6193 32.5 32.5 33.6193 32.5 35V40ZM35 40.5C34.7239 40.5 34.5 40.2761 34.5 40V35C34.5 34.7239 34.7239 34.5 35 34.5H40C40.2761 34.5 40.5 34.7239 40.5 35V40C40.5 40.2761 40.2761 40.5 40 40.5H35Z" fill="black"/>
<path fill-rule="evenodd" clip-rule="evenodd" d="M32.5 29C32.5 30.3807 33.6193 31.5 35 31.5H40C41.3807 31.5 42.5 30.3807 42.5 29V24C42.5 22.6193 41.3807 21.5 40 21.5H35C33.6193 21.5 32.5 22.6193 32.5 24V29ZM35 29.5C34.7239 29.5 34.5 29.2761 34.5 29V24C34.5 23.7239 34.7239 23.5 35 23.5L40 23.5C40.2761 23.5 40.5 23.7239 40.5 24V29C40.5 29.2761 40.2761 29.5 40 29.5L35 29.5Z" fill="black"/>
<path d="M73.5 35V40C73.5 40.8284 74.1716 41.5 75 41.5H80C80.8284 41.5 81.5 40.8284 81.5 40V35C81.5 34.1716 80.8284 33.5 80 33.5H75C74.1716 33.5 73.5 34.1716 73.5 35Z" fill="black"/>
<path d="M62.5 35L62.5 40C62.5 40.8284 63.1716 41.5 64 41.5H69C69.8284 41.5 70.5 40.8284 70.5 40V35C70.5 34.1716 69.8284 33.5 69 33.5H64C63.1716 33.5 62.5 34.1716 62.5 35Z" fill="black"/>
<path d="M62.5 24L62.5 29C62.5 29.8284 63.1716 30.5 64 30.5H69C69.8284 30.5 70.5 29.8284 70.5 29V24C70.5 23.1716 69.8284 22.5 69 22.5L64 22.5C63.1716 22.5 62.5 23.1716 62.5 24Z" fill="black"/>
<path d="M73.5 24V29C73.5 29.8284 74.1716 30.5 75 30.5H80C80.8284 30.5 81.5 29.8284 81.5 29V24C81.5 23.1716 80.8284 22.5 80 22.5L75 22.5C74.1716 22.5 73.5 23.1716 73.5 24Z" fill="black"/>
<path d="M73.5 35V40C73.5 40.8284 74.1716 41.5 75 41.5H80C80.8284 41.5 81.5 40.8284 81.5 40V35C81.5 34.1716 80.8284 33.5 80 33.5H75C74.1716 33.5 73.5 34.1716 73.5 35Z" fill="black"/>
<path d="M62.5 35L62.5 40C62.5 40.8284 63.1716 41.5 64 41.5H69C69.8284 41.5 70.5 40.8284 70.5 40V35C70.5 34.1716 69.8284 33.5 69 33.5H64C63.1716 33.5 62.5 34.1716 62.5 35Z" fill="black"/>
<path d="M62.5 24L62.5 29C62.5 29.8284 63.1716 30.5 64 30.5H69C69.8284 30.5 70.5 29.8284 70.5 29V24C70.5 23.1716 69.8284 22.5 69 22.5L64 22.5C63.1716 22.5 62.5 23.1716 62.5 24Z" fill="black"/>
<path d="M73.5 24V29C73.5 29.8284 74.1716 30.5 75 30.5H80C80.8284 30.5 81.5 29.8284 81.5 29V24C81.5 23.1716 80.8284 22.5 80 22.5L75 22.5C74.1716 22.5 73.5 23.1716 73.5 24Z" fill="black"/>
</svg>
