<svg width="104" height="64" viewBox="0 0 104 64" fill="none" xmlns="http://www.w3.org/2000/svg">
<path fill-rule="evenodd" clip-rule="evenodd" d="M22 28.5C22 29.8807 23.1193 31 24.5 31L39.5 31C40.8807 31 42 29.8807 42 28.5V24.5C42 23.1193 40.8807 22 39.5 22H24.5C23.1193 22 22 23.1193 22 24.5V28.5ZM24.5 29C24.2239 29 24 28.7761 24 28.5L24 24.5C24 24.2239 24.2239 24 24.5 24L39.5 24C39.7761 24 40 24.2239 40 24.5V28.5C40 28.7761 39.7761 29 39.5 29L24.5 29Z" fill="black"/>
<path fill-rule="evenodd" clip-rule="evenodd" d="M24.5 42C23.1193 42 22 40.8807 22 39.5V34.5C22 33.1193 23.1193 32 24.5 32H28.5C29.8807 32 31 33.1193 31 34.5V39.5C31 40.8807 29.8807 42 28.5 42H24.5ZM24 39.5C24 39.7761 24.2239 40 24.5 40H28.5C28.7761 40 29 39.7761 29 39.5V34.5C29 34.2239 28.7761 34 28.5 34H24.5C24.2239 34 24 34.2239 24 34.5L24 39.5Z" fill="black"/>
<path fill-rule="evenodd" clip-rule="evenodd" d="M35.5 42C34.1193 42 33 40.8807 33 39.5V34.5C33 33.1193 34.1193 32 35.5 32H39.5C40.8807 32 42 33.1193 42 34.5V39.5C42 40.8807 40.8807 42 39.5 42H35.5ZM35 39.5C35 39.7761 35.2239 40 35.5 40H39.5C39.7761 40 40 39.7761 40 39.5V34.5C40 34.2239 39.7761 34 39.5 34H35.5C35.2239 34 35 34.2239 35 34.5V39.5Z" fill="black"/>
<path d="M74 34.5V39.5C74 40.3284 74.6716 41 75.5 41H79.5C80.3284 41 81 40.3284 81 39.5V34.5C81 33.6716 80.3284 33 79.5 33H75.5C74.6716 33 74 33.6716 74 34.5Z" fill="black"/>
<path d="M63 34.5L63 39.5C63 40.3284 63.6716 41 64.5 41H68.5C69.3284 41 70 40.3284 70 39.5V34.5C70 33.6716 69.3284 33 68.5 33H64.5C63.6716 33 63 33.6716 63 34.5Z" fill="black"/>
<path d="M63 24.5L63 28.5C63 29.3284 63.6716 30 64.5 30L79.5 30C80.3284 30 81 29.3284 81 28.5V24.5C81 23.6716 80.3284 23 79.5 23L64.5 23C63.6716 23 63 23.6716 63 24.5Z" fill="black"/>
</svg>
