<svg width="104" height="64" viewBox="0 0 104 64" fill="none" xmlns="http://www.w3.org/2000/svg">
<path d="M41 36V33C41 28.0294 36.9706 24 32 24C27.0294 24 23 28.0294 23 33V36M41 36V38.4118C41 39.2889 40.2889 40 39.4118 40C38.5346 40 37.8235 39.2889 37.8235 38.4118V36.2389C37.8235 34.2634 40.7045 34.0467 41 36ZM23 36V38.4118C23 39.2889 23.7111 40 24.5882 40C25.4654 40 26.1765 39.2889 26.1765 38.4118V36.2507C26.1765 34.2814 23.3089 34.0551 23 36Z" stroke="black" stroke-width="2" stroke-linecap="round" stroke-linejoin="round"/>
<path d="M72 23C66.4772 23 62 27.4772 62 33V38C62 38.5523 62.4477 39 63 39C63.0372 39 63.074 38.998 63.1101 38.994C63.3424 39.5831 63.9166 40 64.5882 40C65.4654 40 66.1765 39.2889 66.1765 38.4118V36.2507C66.1765 34.9559 64.937 34.4146 64 34.7484V33C64 28.5817 67.5817 25 72 25C76.4183 25 80 28.5817 80 33V34.7379C79.0636 34.4038 77.8235 34.9429 77.8235 36.2389V38.4118C77.8235 39.2889 78.5346 40 79.4118 40C80.0834 40 80.6577 39.5831 80.8899 38.994C80.9261 38.998 80.9628 39 81 39C81.5523 39 82 38.5523 82 38V33C82 27.4772 77.5228 23 72 23Z" fill="black"/>
</svg>
