<svg width="104" height="64" viewBox="0 0 104 64" fill="none" xmlns="http://www.w3.org/2000/svg">
<path fill-rule="evenodd" clip-rule="evenodd" d="M32.0001 23C26.4773 23 22.0001 27.4772 22.0001 33V35.9841C22 35.9956 22 36.007 22.0001 36.0183V38.4118C22.0001 39.8412 23.1589 41 24.5884 41C26.0178 41 27.1766 39.8412 27.1766 38.4118V36.2507C27.1766 34.3089 25.4618 33.4095 24.0001 33.7078V33C24.0001 28.5817 27.5819 25 32.0001 25C36.4184 25 40.0001 28.5817 40.0001 33V33.6972C38.539 33.3985 36.8237 34.2952 36.8237 36.2389V38.4118C36.8237 38.8882 36.9524 39.3346 37.177 39.718C36.2919 40.1581 35.084 40.5 33.5001 40.5C32.9479 40.5 32.5001 40.9478 32.5001 41.5C32.5001 42.0523 32.9479 42.5 33.5001 42.5C35.944 42.5 37.7557 41.8106 38.9966 40.9669C39.1318 40.9887 39.2705 41 39.4119 41C40.8414 41 42.0001 39.8412 42.0001 38.4118V36.0178C42.0003 36.0068 42.0003 35.9958 42.0001 35.9847V33C42.0001 27.4772 37.523 23 32.0001 23ZM39.2521 38.978C39.3029 38.9923 39.3565 39 39.4119 39C39.7368 39 40.0001 38.7366 40.0001 38.4118V36.0882C39.959 35.8995 39.874 35.8038 39.7964 35.7481C39.6953 35.6756 39.546 35.6306 39.3761 35.6433C39.2062 35.6561 39.0653 35.723 38.9762 35.8098C38.9007 35.8833 38.8237 36.0063 38.8237 36.2389V38.4118C38.8237 38.631 38.9436 38.8222 39.1215 38.9234C39.1661 38.9384 39.2097 38.9567 39.2521 38.978ZM24.0001 38.4118V36.0927C24.0427 35.907 24.1276 35.8125 24.2054 35.7573C24.3069 35.6853 24.4562 35.641 24.6255 35.6544C24.7949 35.6678 24.9354 35.7349 25.0244 35.822C25.1 35.8959 25.1766 36.0191 25.1766 36.2507V38.4118C25.1766 38.7366 24.9133 39 24.5884 39C24.2635 39 24.0001 38.7366 24.0001 38.4118Z" fill="black"/>
<path d="M62 33C62 27.4772 66.4772 23 72 23C77.5228 23 82 27.4772 82 33V38C82 38.5523 81.5523 39 81 39C80.9628 39 80.9261 38.998 80.8899 38.994C80.6577 39.5831 80.0834 40 79.4118 40C79.2764 40 79.145 39.9831 79.0196 39.9512C77.7747 40.8038 75.9526 41.5 73.5 41.5C72.9477 41.5 72.5 41.0523 72.5 40.5C72.5 39.9477 72.9477 39.5 73.5 39.5C75.5175 39.5 76.9193 38.947 77.8235 38.3452V36.2389C77.8235 34.9429 79.0636 34.4038 80 34.7379V33C80 28.5817 76.4183 25 72 25C67.5817 25 64 28.5817 64 33V34.7484C64.937 34.4146 66.1765 34.9559 66.1765 36.2507V38.4118C66.1765 39.2889 65.4654 40 64.5882 40C63.9166 40 63.3424 39.5831 63.1101 38.994C63.074 38.998 63.0372 39 63 39C62.4477 39 62 38.5523 62 38V33Z" fill="black"/>
</svg>
