<svg width="104" height="64" viewBox="0 0 104 64" fill="none" xmlns="http://www.w3.org/2000/svg">
<path fill-rule="evenodd" clip-rule="evenodd" d="M30 22C28.8954 22 28 22.8954 28 24V28H24C22.8954 28 22 28.8954 22 30V34C22 35.1046 22.8954 36 24 36H28V40C28 41.1046 28.8954 42 30 42H34C35.1046 42 36 41.1046 36 40V36H40C41.1046 36 42 35.1046 42 34V30C42 28.8954 41.1046 28 40 28H36V24C36 22.8954 35.1046 22 34 22H30ZM28 30C29.1046 30 30 29.1046 30 28V24H34V28C34 29.1046 34.8954 30 36 30H40V34H36C34.8954 34 34 34.8954 34 36V40H30V36C30 34.8954 29.1046 34 28 34H24V30H28Z" fill="black"/>
<path d="M74 23H70C69.4477 23 69 23.4477 69 24V28C69 28.5523 68.5523 29 68 29H64C63.4477 29 63 29.4477 63 30V34C63 34.5523 63.4477 35 64 35H68C68.5523 35 69 35.4477 69 36V40C69 40.5523 69.4477 41 70 41H74C74.5523 41 75 40.5523 75 40V36C75 35.4477 75.4477 35 76 35H80C80.5523 35 81 34.5523 81 34V30C81 29.4477 80.5523 29 80 29H76C75.4477 29 75 28.5523 75 28V24C75 23.4477 74.5523 23 74 23Z" fill="black"/>
</svg>
