<svg width="104" height="64" viewBox="0 0 104 64" fill="none" xmlns="http://www.w3.org/2000/svg">
<path d="M31.3582 28.4855C31.1705 28.1725 30.8271 27.9867 30.4624 28.0007C30.0977 28.0147 29.7695 28.2263 29.6063 28.5528L27.8827 32H27.5007C26.9485 32 26.5007 32.4477 26.5007 33C26.5007 33.5523 26.9485 34 27.5007 34H28.5007C28.8795 34 29.2258 33.786 29.3952 33.4472L30.5805 31.0765L32.6432 34.5145C32.8196 34.8084 33.1343 34.9915 33.477 34.9997C33.8196 35.0079 34.1426 34.8399 34.3328 34.5547L36.0359 32H36.5007C37.053 32 37.5007 31.5523 37.5007 31C37.5007 30.4477 37.053 30 36.5007 30H35.5007C35.1664 30 34.8542 30.1671 34.6687 30.4453L33.5452 32.1305L31.3582 28.4855Z" fill="black"/>
<path fill-rule="evenodd" clip-rule="evenodd" d="M31.681 23.2103C31.1972 23.0801 30.7462 22.9145 30.2744 22.7375L30.1824 22.703C29.7502 22.5406 29.2851 22.3659 28.811 22.2347C27.743 21.9392 26.5841 21.8508 25.1978 22.4007C21.9829 23.6759 20.5723 27.1339 21.1157 30.3675C21.5381 32.8806 23.1962 35.1328 24.9568 36.9088C26.7371 38.7047 28.7389 40.1294 30.0458 40.9779C31.24 41.7532 32.7615 41.7532 33.9557 40.9779C35.2626 40.1294 37.2644 38.7047 39.0447 36.9088C40.8053 35.1328 42.4634 32.8806 42.8858 30.3675C43.4292 27.1339 42.0186 23.6759 38.8037 22.4007C37.4174 21.8508 36.2585 21.9392 35.1905 22.2348C34.7164 22.3659 34.2513 22.5406 33.8191 22.703L33.7271 22.7375C33.2553 22.9145 32.8043 23.0801 32.3205 23.2103C32.1114 23.2666 31.8901 23.2666 31.681 23.2103ZM25.9352 24.2597C26.8243 23.907 27.5224 23.9533 28.2777 24.1623C28.6624 24.2688 29.0487 24.4137 29.5039 24.5845L29.5721 24.6101C30.0431 24.7868 30.5747 24.9837 31.1612 25.1416C31.7108 25.2895 32.2907 25.2895 32.8403 25.1416C33.4268 24.9837 33.9584 24.7868 34.4294 24.6101L34.4976 24.5845C34.9528 24.4137 35.3391 24.2688 35.7238 24.1623C36.4791 23.9533 37.1771 23.907 38.0663 24.2597C40.2106 25.1103 41.338 27.5099 40.9134 30.036C40.5937 31.9388 39.2841 33.8264 37.6243 35.5007C35.9842 37.1552 34.1128 38.4913 32.8666 39.3004C32.3348 39.6457 31.6667 39.6457 31.1349 39.3004C29.8886 38.4913 28.0173 37.1552 26.3772 35.5007C24.7173 33.8264 23.4078 31.9388 23.088 30.036C22.6635 27.5099 23.7909 25.1103 25.9352 24.2597Z" fill="black"/>
<path fill-rule="evenodd" clip-rule="evenodd" d="M69.8401 23.6429C68.4598 23.1247 67.2391 22.6664 65.5657 23.3302C62.8862 24.3931 61.6171 27.3219 62.1011 30.2018C62.8433 34.6176 68.0365 38.4815 70.5896 40.1391C71.4526 40.6995 72.5474 40.6995 73.4104 40.1391C75.9635 38.4815 81.1567 34.6176 81.8989 30.2018C82.3829 27.3219 81.1138 24.3931 78.4343 23.3302C76.7609 22.6664 75.5402 23.1247 74.16 23.6429C73.6633 23.8293 73.1461 24.0235 72.5796 24.176C72.2003 24.2781 71.7997 24.2781 71.4204 24.176C70.8539 24.0235 70.3367 23.8293 69.8401 23.6429ZM71.3575 28.4855C71.1697 28.1725 70.8263 27.9867 70.4616 28.0007C70.0969 28.0147 69.7688 28.2263 69.6056 28.5528L67.882 32H67.5C66.9477 32 66.5 32.4477 66.5 33C66.5 33.5523 66.9477 34 67.5 34H68.5C68.8788 34 69.225 33.786 69.3944 33.4472L70.5798 31.0766L72.6425 34.5145C72.8189 34.8084 73.1335 34.9916 73.4762 34.9997C73.8189 35.0079 74.1419 34.8399 74.3321 34.5547L76.0352 32H76.5C77.0523 32 77.5 31.5523 77.5 31C77.5 30.4477 77.0523 30 76.5 30H75.5C75.1656 30 74.8534 30.1671 74.6679 30.4453L73.5445 32.1305L71.3575 28.4855Z" fill="black"/>
</svg>
