<svg width="104" height="64" viewBox="0 0 104 64" fill="none" xmlns="http://www.w3.org/2000/svg">
<path d="M29.857 23.9498C29.1864 22.2736 26.8136 22.2736 26.143 23.9498L23.323 31H22C21.4477 31 21 31.4478 21 32C21 32.5523 21.4477 33 22 33H23.323C24.1408 33 24.8762 32.5021 25.1799 31.7428L28 24.6926L34.143 40.0502C34.8136 41.7265 37.1864 41.7265 37.857 40.0502L40.677 33L42 33C42.5523 33 43 32.5523 43 32C43 31.4478 42.5523 31 42 31H40.677C39.8592 31 39.1238 31.4979 38.8201 32.2573L36 39.3075L29.857 23.9498Z" fill="black"/>
<path d="M62 32H63.323C63.7319 32 64.0996 31.7511 64.2514 31.3714L67.0715 24.3212C67.4068 23.4831 68.5932 23.4831 68.9285 24.3212L75.0715 39.6789C75.4068 40.517 76.5932 40.517 76.9285 39.6789L79.7486 32.6287C79.9004 32.249 80.2681 32 80.677 32H82" stroke="black" stroke-width="2" stroke-linecap="round" stroke-linejoin="round"/>
</svg>
