<svg width="104" height="64" viewBox="0 0 104 64" fill="none" xmlns="http://www.w3.org/2000/svg">
<path fill-rule="evenodd" clip-rule="evenodd" d="M30.4582 22.7311C31.0985 23.0554 31.6198 23.4349 32 23.754C32.3803 23.4349 32.9015 23.0554 33.5417 22.7311C34.9927 21.9963 37.0809 21.5418 39.4293 22.7311C40.9294 23.4908 41.9442 24.6404 42.4968 26.0361C43.0419 27.413 43.116 28.9719 42.8536 30.5534C42.4065 33.248 40.5648 35.6525 38.6732 37.5051C36.7581 39.3808 34.6582 40.8193 33.4739 41.5694C32.5675 42.1435 31.4326 42.1435 30.5261 41.5694C29.3418 40.8193 27.2419 39.3808 25.3267 37.5051C23.4352 35.6525 21.5934 33.248 21.1463 30.5534C20.8839 28.9719 20.958 27.413 21.5031 26.0361C22.0557 24.6404 23.0705 23.4908 24.5706 22.7311C26.919 21.5418 29.0073 21.9963 30.4582 22.7311ZM31.2382 25.7854C31.4281 26.0089 31.7067 26.1377 32.0001 26.1377C32.2929 26.1377 32.571 26.0093 32.7609 25.7866C32.7612 25.7863 32.7614 25.7861 32.7616 25.7858C32.7618 25.7855 32.7621 25.7852 32.7624 25.7849L32.7775 25.7679C32.7931 25.7506 32.8192 25.7222 32.8555 25.6847C32.9281 25.6095 33.0402 25.499 33.188 25.3698C33.4857 25.1093 33.9154 24.7838 34.4454 24.5153C35.4864 23.9881 36.8869 23.6854 38.5257 24.5153C39.5957 25.0572 40.2669 25.8371 40.6372 26.7723C41.0149 27.7263 41.1006 28.9 40.8806 30.2261C40.5391 32.2838 39.0718 34.3153 37.2738 36.0762C35.4995 37.8141 33.5295 39.1668 32.4038 39.8798C32.1507 40.0401 31.8493 40.0401 31.5963 39.8798C30.4705 39.1668 28.5005 37.8141 26.7262 36.0762C24.9282 34.3153 23.4608 32.2838 23.1193 30.2261C22.8993 28.9 22.985 27.7263 23.3627 26.7723C23.733 25.8371 24.4042 25.0572 25.4742 24.5153C27.113 23.6854 28.5136 23.9881 29.5546 24.5154C30.0847 24.7838 30.5144 25.1093 30.8121 25.3698C30.9598 25.499 31.072 25.6095 31.1446 25.6847C31.1809 25.7222 31.207 25.7506 31.2226 25.7679L31.2382 25.7854Z" fill="black"/>
<path d="M72.0009 25.0001C72.0009 25.0001 69.0009 21.5001 65.0009 23.5001C62.4225 24.7893 61.6181 27.322 62.102 30.2019C62.8931 34.9088 68.7416 38.9888 71.0591 40.4379C71.6407 40.8016 72.3611 40.8016 72.9427 40.4379C75.2602 38.9888 81.1086 34.9088 81.8996 30.2019C82.3836 27.322 81.5791 24.7893 79.0008 23.5001C75.0007 21.5001 72.0009 25.0001 72.0009 25.0001Z" fill="black"/>
</svg>
