<svg width="104" height="64" viewBox="0 0 104 64" fill="none" xmlns="http://www.w3.org/2000/svg">
<path d="M25.7993 23C25.7993 22.4477 25.3516 22 24.7993 22C24.2471 22 23.7993 22.4477 23.7993 23V26.6C23.7993 27.1523 24.2471 27.6 24.7993 27.6H28.4C28.9523 27.6 29.4 27.1523 29.4 26.6C29.4 26.0477 28.9523 25.6 28.4 25.6H27.199C28.5366 24.5948 30.1988 24 32 24C36.4183 24 40 27.5817 40 32C40 36.4183 36.4183 40 32 40C27.5817 40 24 36.4183 24 32C24 31.4477 23.5523 31 23 31C22.4477 31 22 31.4477 22 32C22 37.5228 26.4772 42 32 42C37.5228 42 42 37.5228 42 32C42 26.4772 37.5228 22 32 22C29.6575 22 27.5032 22.806 25.7993 24.1542V23Z" fill="black"/>
<path d="M32 28.5C32 27.9477 31.5523 27.5 31 27.5C30.4477 27.5 30 27.9477 30 28.5V33.5C30 34.0523 30.4477 34.5 31 34.5H34C34.5523 34.5 35 34.0523 35 33.5C35 32.9477 34.5523 32.5 34 32.5H32V28.5Z" fill="black"/>
<path d="M65.7993 23C65.7993 22.4477 65.3516 22 64.7993 22C64.2471 22 63.7993 22.4477 63.7993 23V26.6C63.7993 27.1523 64.2471 27.6 64.7993 27.6H68.4C68.9523 27.6 69.4 27.1523 69.4 26.6C69.4 26.0477 68.9523 25.6 68.4 25.6H67.199C68.5366 24.5948 70.1988 24 72 24C76.4183 24 80 27.5817 80 32C80 36.4183 76.4183 40 72 40C67.5817 40 64 36.4183 64 32C64 31.4477 63.5523 31 63 31C62.4477 31 62 31.4477 62 32C62 37.5228 66.4772 42 72 42C77.5228 42 82 37.5228 82 32C82 26.4772 77.5228 22 72 22C69.6575 22 67.5032 22.806 65.7993 24.1542V23Z" fill="black"/>
<path d="M72 28.5C72 27.9477 71.5523 27.5 71 27.5C70.4477 27.5 70 27.9477 70 28.5V33.5C70 34.0523 70.4477 34.5 71 34.5H74C74.5523 34.5 75 34.0523 75 33.5C75 32.9477 74.5523 32.5 74 32.5H72V28.5Z" fill="black"/>
</svg>
