<svg width="104" height="64" viewBox="0 0 104 64" fill="none" xmlns="http://www.w3.org/2000/svg">
<path fill-rule="evenodd" clip-rule="evenodd" d="M34.3996 23.05C32.9773 21.9833 31.0218 21.9833 29.5996 23.05L22.727 28.2044C21.6257 29.0304 21.0265 30.3647 21.1408 31.7366L21.7738 39.3322C21.9465 41.4053 23.6796 43 25.76 43H38.2392C40.3195 43 42.0526 41.4053 42.2253 39.3322L42.8583 31.7366C42.9726 30.3647 42.3734 29.0304 41.2721 28.2044L34.3996 23.05ZM30.7996 24.65C31.5107 24.1167 32.4884 24.1167 33.1996 24.65L40.0721 29.8044C40.6228 30.2174 40.9224 30.8846 40.8652 31.5705L40.2322 39.1661C40.1459 40.2027 39.2793 41 38.2392 41H35.0864L35.2885 38.5744C35.4488 36.6503 33.9304 35 31.9996 35C30.0687 35 28.5503 36.6503 28.7106 38.5744L28.9128 41H25.76C24.7198 41 23.8532 40.2027 23.7669 39.1661L23.1339 31.5705C23.0767 30.8846 23.3763 30.2174 23.927 29.8044L30.7996 24.65ZM33.2954 38.4083L33.0794 41H30.9197L30.7037 38.4083C30.6405 37.6502 31.2388 37 31.9996 37C32.7603 37 33.3586 37.6502 33.2954 38.4083Z" fill="black"/>
<path fill-rule="evenodd" clip-rule="evenodd" d="M81.8617 31.6536L81.2288 39.2491C81.0992 40.804 79.7994 42 78.2391 42H65.7599C64.1997 42 62.8999 40.804 62.7703 39.2491L62.1373 31.6536C62.0516 30.6246 62.501 29.6239 63.327 29.0044L70.1995 23.85C71.2662 23.05 72.7329 23.05 73.7995 23.85L80.6721 29.0044C81.4981 29.6239 81.9475 30.6246 81.8617 31.6536ZM69.9996 40.5L69.7072 36.9914C69.5954 35.6502 70.6538 34.5 71.9996 34.5C73.3454 34.5 74.4037 35.6502 74.292 36.9914L73.9996 40.5H69.9996Z" fill="black"/>
</svg>
