<svg width="104" height="64" viewBox="0 0 104 64" fill="none" xmlns="http://www.w3.org/2000/svg">
<path fill-rule="evenodd" clip-rule="evenodd" d="M34.2945 22.385C32.9172 21.4209 31.0841 21.4209 29.7068 22.385L22.8292 27.1993C21.6706 28.0104 21.0264 29.3729 21.1349 30.783L21.8399 39.9483C21.9728 41.6769 23.5391 42.9332 25.2553 42.688L28.4249 42.2352C29.9029 42.0241 31.0007 40.7583 31.0007 39.2654V38C31.0007 37.4477 31.4484 37 32.0007 37C32.5529 37 33.0007 37.4477 33.0007 38V39.2654C33.0007 40.7583 34.0984 42.0241 35.5764 42.2352L38.746 42.688C40.4623 42.9332 42.0285 41.6769 42.1614 39.9483L42.8665 30.783C42.9749 29.3729 42.3307 28.0104 41.1721 27.1993L34.2945 22.385ZM30.8537 24.0235C31.5424 23.5414 32.4589 23.5414 33.1476 24.0235L40.0252 28.8378C40.6045 29.2433 40.9266 29.9246 40.8723 30.6297L40.1673 39.7949C40.123 40.3711 39.6009 40.7899 39.0289 40.7081L35.8592 40.2553C35.3666 40.185 35.0007 39.763 35.0007 39.2654V38C35.0007 36.3431 33.6575 35 32.0007 35C30.3438 35 29.0007 36.3431 29.0007 38V39.2654C29.0007 39.7631 28.6347 40.185 28.1421 40.2553L24.9725 40.7081C24.4004 40.7899 23.8783 40.3711 23.834 39.7949L23.129 30.6297C23.0747 29.9246 23.3968 29.2433 23.9762 28.8378L30.8537 24.0235Z" fill="black"/>
<path d="M70.2803 23.2043L63.4027 28.0186C62.5337 28.6268 62.0506 29.6488 62.1319 30.7064L62.8369 39.8716C62.9256 41.024 63.9697 41.8616 65.1139 41.6981L68.2835 41.2453C69.2688 41.1045 70.0006 40.2607 70.0006 39.2654V38C70.0006 36.8954 70.8961 36 72.0006 36C73.1052 36 74.0006 36.8954 74.0006 38V39.2654C74.0006 40.2607 74.7325 41.1045 75.7178 41.2453L78.8874 41.6981C80.0316 41.8616 81.0757 41.024 81.1644 39.8716L81.8694 30.7064C81.9507 29.6488 81.4676 28.6268 80.5986 28.0186L73.721 23.2043C72.6881 22.4812 71.3132 22.4812 70.2803 23.2043Z" fill="black"/>
</svg>
