<svg width="104" height="64" viewBox="0 0 104 64" fill="none" xmlns="http://www.w3.org/2000/svg">
<path d="M36 23C36.5523 23 37 23.4477 37 24C37 24.5523 36.5523 25 36 25H25C23.8954 25 23 25.8954 23 27V37.2959L25.8076 33.0459C26.6715 31.7382 28.3894 31.3229 29.752 32.0713L30.8926 30.3594C32.3943 28.1068 35.6526 27.9651 37.3438 30.0791L41 34.6484V30C41 29.4477 41.4477 29 42 29C42.5523 29 43 29.4477 43 30V38C43 40.2091 41.2091 42 39 42H25C22.7909 42 21 40.2091 21 38V27C21 24.7909 22.7909 23 25 23H36ZM28.6309 33.752C28.2094 33.6091 27.7314 33.7626 27.4766 34.1484L24.666 38.4023C24.558 38.5659 24.5 38.7581 24.5 38.9541V39C24.5 39.5523 24.9477 40 25.5 40H25.9092C25.6099 39.1623 25.6734 38.1876 26.2412 37.3359L28.6309 33.752ZM35.7822 31.3281C34.9366 30.2712 33.3075 30.3425 32.5566 31.4688L27.9053 38.4453C27.4622 39.1099 27.9386 40 28.7373 40H39C40.1046 40 41 39.1046 41 38V37.8506L35.7822 31.3281ZM26.2012 26.7607C26.3644 26.2711 27.0575 26.2711 27.2207 26.7607C27.3811 27.2416 27.7584 27.619 28.2393 27.7793C28.7289 27.9425 28.7288 28.6346 28.2393 28.7979C27.7582 28.9582 27.3811 29.3363 27.2207 29.8174C27.0575 30.3069 26.3644 30.3069 26.2012 29.8174C26.0408 29.3363 25.6637 28.9582 25.1826 28.7979C24.693 28.6346 24.693 27.9425 25.1826 27.7793C25.6635 27.619 26.0407 27.2416 26.2012 26.7607ZM42 25C42.5523 25 43 25.4477 43 26C43 26.5523 42.5523 27 42 27H38C37.4477 27 37 26.5523 37 26C37 25.4477 37.4477 25 38 25H42Z" fill="black"/>
<path d="M63 27C63 25.8954 63.8954 25 65 25H76C76.5523 25 77 24.5523 77 24C77 23.4477 76.5523 23 76 23H65C62.7909 23 61 24.7909 61 27V38C61 40.2091 62.7909 42 65 42H79C81.2091 42 83 40.2091 83 38V30C83 29.4477 82.5523 29 82 29C81.4477 29 81 29.4477 81 30V36.25L76.563 30.7037C75.2946 29.1182 72.8505 29.2243 71.7242 30.9137L70 33.5L69.3385 32.9836C68.4204 32.4335 67.2319 32.7038 66.6419 33.5969L63.8312 37.8515C63.6152 38.1786 63.5 38.5619 63.5 38.9539V39C63.5 39.1223 63.511 39.2421 63.532 39.3583C63.2018 39.0016 63 38.5244 63 38V27Z" fill="black"/>
<path d="M65.183 28.7983C65.6641 28.9586 66.0416 29.3361 66.202 29.8172C66.3652 30.3068 67.0577 30.3068 67.2209 29.8172C67.3813 29.3361 67.7588 28.9586 68.2398 28.7983C68.7295 28.6351 68.7295 27.9425 68.2398 27.7793C67.7588 27.619 67.3813 27.2415 67.2209 26.7604C67.0577 26.2708 66.3652 26.2708 66.202 26.7604C66.0416 27.2415 65.6641 27.619 65.183 27.7793C64.6934 27.9425 64.6934 28.6351 65.183 28.7983Z" fill="black"/>
<path d="M78 25C77.4477 25 77 25.4477 77 26C77 26.5523 77.4477 27 78 27H82C82.5523 27 83 26.5523 83 26C83 25.4477 82.5523 25 82 25H78Z" fill="black"/>
</svg>
