<svg width="104" height="64" viewBox="0 0 104 64" fill="none" xmlns="http://www.w3.org/2000/svg">
<path d="M42.6961 24.2071C43.0866 23.8166 43.0866 23.1834 42.6961 22.7929C42.3056 22.4024 41.6724 22.4024 41.2819 22.7929L39.3431 24.7316L39.0613 24.4497C38.6707 24.0592 38.0376 24.0592 37.647 24.4497C37.2565 24.8403 37.2565 25.4734 37.647 25.864L38.636 26.8529C39.0266 27.2435 39.6597 27.2435 40.0503 26.8529L42.6961 24.2071Z" fill="black"/>
<path fill-rule="evenodd" clip-rule="evenodd" d="M23 27C23 25.8954 23.8954 25 25 25H36C36.5523 25 37 24.5523 37 24C37 23.4477 36.5523 23 36 23H25C22.7909 23 21 24.7909 21 27V38C21 40.2092 22.7909 42 25 42H39C41.2091 42 43 40.2092 43 38V30C43 29.4477 42.5523 29 42 29C41.4477 29 41 29.4477 41 30V34.6492L37.3438 30.079C35.6526 27.965 32.3939 28.1065 30.8922 30.359L29.7525 32.0684C28.3901 31.3207 26.6712 31.7383 25.8075 33.0457L23 37.2956V27ZM35.7821 31.3284L41 37.8508V38C41 39.1046 40.1046 40 39 40H28.737C27.9383 40 27.4619 39.1099 27.905 38.4453L32.5563 31.4684C33.3071 30.3421 34.9365 30.2714 35.7821 31.3284ZM26.2409 37.3359C25.6732 38.1874 25.6087 39.1624 25.9078 40H25.5C24.9477 40 24.5 39.5523 24.5 39V38.9539C24.5 38.7579 24.5576 38.5663 24.6656 38.4027L27.4763 34.1481C27.731 33.7624 28.2091 33.609 28.6304 33.7516L26.2409 37.3359Z" fill="black"/>
<path d="M25.183 28.7983C25.6641 28.9587 26.0416 29.3362 26.202 29.8172C26.3652 30.3068 27.0577 30.3068 27.2209 29.8172C27.3813 29.3362 27.7588 28.9587 28.2398 28.7983C28.7295 28.6351 28.7295 27.9425 28.2398 27.7793C27.7588 27.619 27.3813 27.2415 27.2209 26.7604C27.0577 26.2708 26.3652 26.2708 26.202 26.7604C26.0416 27.2415 25.6641 27.619 25.183 27.7793C24.6934 27.9425 24.6934 28.6351 25.183 28.7983Z" fill="black"/>
<path d="M82.6961 24.2071C83.0866 23.8166 83.0866 23.1834 82.6961 22.7929C82.3056 22.4024 81.6724 22.4024 81.2819 22.7929L79.3431 24.7316L79.0613 24.4497C78.6707 24.0592 78.0376 24.0592 77.647 24.4497C77.2565 24.8403 77.2565 25.4734 77.647 25.864L78.636 26.8529C79.0266 27.2435 79.6597 27.2435 80.0503 26.8529L82.6961 24.2071Z" fill="black"/>
<path d="M63 27C63 25.8954 63.8954 25 65 25H76C76.5523 25 77 24.5523 77 24C77 23.4477 76.5523 23 76 23H65C62.7909 23 61 24.7909 61 27V38C61 40.2092 62.7909 42 65 42H79C81.2091 42 83 40.2092 83 38V30C83 29.4477 82.5523 29 82 29C81.4477 29 81 29.4477 81 30V36.25L76.563 30.7037C75.2946 29.1182 72.8505 29.2243 71.7242 30.9137L70 33.5L69.3385 32.9836C68.4204 32.4335 67.2319 32.7038 66.6419 33.5969L63.8312 37.8515C63.6152 38.1786 63.5 38.5619 63.5 38.9539V39C63.5 39.1223 63.511 39.2421 63.532 39.3583C63.2018 39.0017 63 38.5244 63 38V27Z" fill="black"/>
<path d="M65.183 28.7983C65.6641 28.9587 66.0416 29.3362 66.202 29.8172C66.3652 30.3068 67.0577 30.3068 67.2209 29.8172C67.3813 29.3362 67.7588 28.9587 68.2398 28.7983C68.7295 28.6351 68.7295 27.9425 68.2398 27.7793C67.7588 27.619 67.3813 27.2415 67.2209 26.7604C67.0577 26.2708 66.3652 26.2708 66.202 26.7604C66.0416 27.2415 65.6641 27.619 65.183 27.7793C64.6934 27.9425 64.6934 28.6351 65.183 28.7983Z" fill="black"/>
</svg>
