<svg width="104" height="64" viewBox="0 0 104 64" fill="none" xmlns="http://www.w3.org/2000/svg">
<path d="M25.1829 28.7983C25.664 28.9586 26.0415 29.3361 26.2018 29.8172C26.365 30.3068 27.0576 30.3068 27.2208 29.8172C27.3811 29.3361 27.7586 28.9586 28.2397 28.7983C28.7293 28.6351 28.7293 27.9425 28.2397 27.7793C27.7586 27.619 27.3811 27.2415 27.2208 26.7604C27.0576 26.2708 26.365 26.2708 26.2018 26.7604C26.0415 27.2415 25.664 27.619 25.1829 27.7793C24.6933 27.9425 24.6933 28.6351 25.1829 28.7983Z" fill="black"/>
<path fill-rule="evenodd" clip-rule="evenodd" d="M25 22C22.7909 22 21 23.7909 21 26V38C21 40.2091 22.7909 42 25 42H39C41.2091 42 43 40.2091 43 38V26C43 23.7909 41.2091 22 39 22H25ZM41 33.7982V26C41 24.8954 40.1046 24 39 24H25C23.8954 24 23 24.8954 23 26V38C23 39.1046 23.8954 40 25 40H25.1427C25.0501 39.7163 25 39.4135 25 39.0989C25 38.504 25.1829 37.9235 25.5238 37.4361L28.3355 33.4163C29.2217 32.1494 30.9256 31.7634 32.2712 32.5248L32.5869 32.7034L33.0596 32.0282C33.9945 30.6926 35.8249 30.3481 37.1814 31.2524L41 33.7982ZM31.4347 34.3494L31.2863 34.2655C30.8378 34.0117 30.2698 34.1403 29.9744 34.5626L27.1627 38.5824C27.0568 38.7338 27 38.9141 27 39.0989C27 39.5966 27.4034 40 27.9011 40H29.0122C28.7059 39.142 28.7806 38.141 29.3836 37.2796L31.4347 34.3494ZM31.8413 40H39C40.1046 40 41 39.1046 41 38V36.737C41 36.4027 40.8329 36.0905 40.5547 35.905L36.072 32.9165C35.6198 32.6151 35.0097 32.7299 34.6981 33.1751L31.0221 38.4265C30.5581 39.0893 31.0323 40 31.8413 40Z" fill="black"/>
<path d="M65.1829 28.7983C65.664 28.9586 66.0415 29.3361 66.2018 29.8172C66.365 30.3068 67.0576 30.3068 67.2208 29.8172C67.3811 29.3361 67.7586 28.9586 68.2397 28.7983C68.7293 28.6351 68.7293 27.9425 68.2397 27.7793C67.7586 27.619 67.3811 27.2415 67.2208 26.7604C67.0576 26.2708 66.365 26.2708 66.2018 26.7604C66.0415 27.2415 65.664 27.619 65.1829 27.7793C64.6933 27.9425 64.6933 28.6351 65.1829 28.7983Z" fill="black"/>
<path fill-rule="evenodd" clip-rule="evenodd" d="M65 22C62.7909 22 61 23.7909 61 26V38C61 40.2091 62.7909 42 65 42H79C81.2091 42 83 40.2091 83 38V26C83 23.7909 81.2091 22 79 22H65ZM63 26C63 24.8954 63.8954 24 65 24H79C80.1046 24 81 24.8954 81 26V35L76.6267 32.0845C75.7224 31.4816 74.5021 31.7113 73.8788 32.6016L73.1173 33.6895L72.5 33.3032L71.7788 32.8951C70.8817 32.3875 69.7457 32.6448 69.155 33.4895L66.3433 37.5092C66.1198 37.8287 66 38.2091 66 38.5989C66 39.1534 66.2374 39.6525 66.6161 40H65C63.8954 40 63 39.1046 63 38V26Z" fill="black"/>
</svg>
