<svg width="104" height="64" viewBox="0 0 104 64" fill="none" xmlns="http://www.w3.org/2000/svg">
<path d="M26.183 28.7983C26.6641 28.9586 27.0416 29.3361 27.202 29.8172C27.3652 30.3068 28.0577 30.3068 28.2209 29.8172C28.3813 29.3361 28.7588 28.9586 29.2398 28.7983C29.7295 28.6351 29.7295 27.9425 29.2398 27.7793C28.7588 27.619 28.3813 27.2415 28.2209 26.7604C28.0577 26.2708 27.3652 26.2708 27.202 26.7604C27.0416 27.2415 26.6641 27.619 26.183 27.7793C25.6934 27.9425 25.6934 28.6351 26.183 28.7983Z" fill="black"/>
<path fill-rule="evenodd" clip-rule="evenodd" d="M32 21C25.9249 21 21 25.9249 21 32C21 38.0751 25.9249 43 32 43C38.0751 43 43 38.0751 43 32C43 25.9249 38.0751 21 32 21ZM23 32C23 27.0294 27.0294 23 32 23C36.9706 23 41 27.0294 41 32C41 32.4672 40.9644 32.926 40.8958 33.374L36.8907 30.7253L36.889 30.7242C35.1738 29.5822 32.844 30.4699 32.3237 32.4641L32.3205 32.4769L31.9714 33.8913C30.6564 33.3809 29.1338 33.8586 28.3577 35.0791L25.8238 38.5463C24.0851 36.9054 23 34.5794 23 32ZM35.7843 32.3914L40.3352 35.4011C39.0267 38.6045 35.9252 40.8852 32.2779 40.9958L34.2603 32.9637C34.4366 32.3024 35.211 32.0092 35.7813 32.3894L35.7843 32.3914ZM31.4815 35.8759L30.2584 40.8316C29.2408 40.6321 28.2847 40.2611 27.4213 39.7499L30.0167 36.1986L30.0374 36.165C30.3195 35.7071 30.9132 35.5544 31.3813 35.8192L31.4815 35.8759Z" fill="black"/>
<path d="M66.183 28.7983C66.6641 28.9586 67.0416 29.3361 67.202 29.8172C67.3652 30.3068 68.0577 30.3068 68.2209 29.8172C68.3813 29.3361 68.7588 28.9586 69.2398 28.7983C69.7295 28.6351 69.7295 27.9425 69.2398 27.7793C68.7588 27.619 68.3813 27.2415 68.2209 26.7604C68.0577 26.2708 67.3652 26.2708 67.202 26.7604C67.0416 27.2415 66.6641 27.619 66.183 27.7793C65.6934 27.9425 65.6934 28.6351 66.183 28.7983Z" fill="black"/>
<path fill-rule="evenodd" clip-rule="evenodd" d="M61 32C61 25.9249 65.9249 21 72 21C78.0751 21 83 25.9249 83 32C83 38.0751 78.0751 43 72 43C65.9249 43 61 38.0751 61 32ZM72 23C67.0294 23 63 27.0294 63 32C63 34.9396 64.4093 37.55 66.5891 39.1925L69.1859 35.6405C69.7501 34.7248 70.9375 34.4193 71.8736 34.949L72.6387 35.3602L73.2912 32.7167C73.6382 31.3867 75.1922 30.795 76.3359 31.5574L80.7005 34.3111C80.8959 33.5736 81 32.799 81 32C81 27.0294 76.9706 23 72 23Z" fill="black"/>
</svg>
