<svg width="104" height="64" viewBox="0 0 104 64" fill="none" xmlns="http://www.w3.org/2000/svg">
<path fill-rule="evenodd" clip-rule="evenodd" d="M23 27C23 25.8954 23.8954 25 25 25H36C36.5523 25 37 24.5523 37 24C37 23.4477 36.5523 23 36 23H25C22.7909 23 21 24.7909 21 27V38C21 40.2091 22.7909 42 25 42H39C41.2091 42 43 40.2091 43 38V30C43 29.4477 42.5523 29 42 29C41.4477 29 41 29.4477 41 30V34.6492L37.3438 30.079C35.6526 27.965 32.3939 28.1064 30.8922 30.359L29.7525 32.0684C28.3901 31.3206 26.6712 31.7382 25.8075 33.0457L23 37.2956V27ZM35.7821 31.3284L41 37.8508V38C41 39.1046 40.1046 40 39 40H28.737C27.9383 40 27.4619 39.1099 27.905 38.4453L32.5563 31.4684C33.3071 30.3421 34.9365 30.2714 35.7821 31.3284ZM26.2409 37.3359C25.6732 38.1874 25.6087 39.1624 25.9078 40H25.5C24.9477 40 24.5 39.5523 24.5 39V38.9539C24.5 38.7579 24.5576 38.5662 24.6656 38.4027L27.4763 34.148C27.731 33.7624 28.2091 33.609 28.6304 33.7516L26.2409 37.3359Z" fill="black"/>
<path d="M25.183 28.7983C25.6641 28.9586 26.0416 29.3361 26.202 29.8172C26.3652 30.3068 27.0577 30.3068 27.2209 29.8172C27.3813 29.3361 27.7588 28.9586 28.2398 28.7983C28.7295 28.6351 28.7295 27.9425 28.2398 27.7793C27.7588 27.619 27.3813 27.2415 27.2209 26.7604C27.0577 26.2708 26.3652 26.2708 26.202 26.7604C26.0416 27.2415 25.6641 27.619 25.183 27.7793C24.6934 27.9425 24.6934 28.6351 25.183 28.7983Z" fill="black"/>
<path d="M41 24C41 23.4477 40.5523 23 40 23C39.4477 23 39 23.4477 39 24V25H38C37.4477 25 37 25.4477 37 26C37 26.5523 37.4477 27 38 27H39V28C39 28.5523 39.4477 29 40 29C40.5523 29 41 28.5523 41 28V27H42C42.5523 27 43 26.5523 43 26C43 25.4477 42.5523 25 42 25H41V24Z" fill="black"/>
<path d="M63 27C63 25.8954 63.8954 25 65 25H76C76.5523 25 77 24.5523 77 24C77 23.4477 76.5523 23 76 23H65C62.7909 23 61 24.7909 61 27V38C61 40.2091 62.7909 42 65 42H79C81.2091 42 83 40.2091 83 38V30C83 29.4477 82.5523 29 82 29C81.4477 29 81 29.4477 81 30V36.25L76.563 30.7037C75.2946 29.1182 72.8505 29.2243 71.7242 30.9137L70 33.5L69.3385 32.9836C68.4204 32.4335 67.2319 32.7038 66.6419 33.5969L63.8312 37.8515C63.6152 38.1786 63.5 38.5619 63.5 38.9539V39C63.5 39.1223 63.511 39.2421 63.532 39.3583C63.2018 39.0016 63 38.5244 63 38V27Z" fill="black"/>
<path d="M65.183 28.7983C65.6641 28.9586 66.0416 29.3361 66.202 29.8172C66.3652 30.3068 67.0577 30.3068 67.2209 29.8172C67.3813 29.3361 67.7588 28.9586 68.2398 28.7983C68.7295 28.6351 68.7295 27.9425 68.2398 27.7793C67.7588 27.619 67.3813 27.2415 67.2209 26.7604C67.0577 26.2708 66.3652 26.2708 66.202 26.7604C66.0416 27.2415 65.6641 27.619 65.183 27.7793C64.6934 27.9425 64.6934 28.6351 65.183 28.7983Z" fill="black"/>
<path d="M81 24C81 23.4477 80.5523 23 80 23C79.4477 23 79 23.4477 79 24V25H78C77.4477 25 77 25.4477 77 26C77 26.5523 77.4477 27 78 27H79V28C79 28.5523 79.4477 29 80 29C80.5523 29 81 28.5523 81 28V27H82C82.5523 27 83 26.5523 83 26C83 25.4477 82.5523 25 82 25H81V24Z" fill="black"/>
</svg>
