<svg width="104" height="64" viewBox="0 0 104 64" fill="none" xmlns="http://www.w3.org/2000/svg">
<path d="M32 26C32.5523 26 33 26.4477 33 27V34C33 34.5523 32.5523 35 32 35C31.4477 35 31 34.5523 31 34V27C31 26.4477 31.4477 26 32 26Z" fill="black"/>
<path d="M30.75 36.75C30.75 37.4404 31.3096 38 32 38C32.6904 38 33.25 37.4404 33.25 36.75C33.25 36.0596 32.6904 35.5 32 35.5C31.3096 35.5 30.75 36.0596 30.75 36.75Z" fill="black"/>
<path fill-rule="evenodd" clip-rule="evenodd" d="M22 32C22 26.4772 26.4772 22 32 22C37.5228 22 42 26.4772 42 32C42 37.5228 37.5228 42 32 42C26.4772 42 22 37.5228 22 32ZM32 24C27.5817 24 24 27.5817 24 32C24 36.4183 27.5817 40 32 40C36.4183 40 40 36.4183 40 32C40 27.5817 36.4183 24 32 24Z" fill="black"/>
<path fill-rule="evenodd" clip-rule="evenodd" d="M81 32C81 36.9706 76.9706 41 72 41C67.0294 41 63 36.9706 63 32C63 27.0294 67.0294 23 72 23C76.9706 23 81 27.0294 81 32ZM72 26C72.5523 26 73 26.4477 73 27V34C73 34.5523 72.5523 35 72 35C71.4477 35 71 34.5523 71 34L71 27C71 26.4477 71.4477 26 72 26ZM70.75 36.75C70.75 37.4404 71.3096 38 72 38C72.6904 38 73.25 37.4404 73.25 36.75C73.25 36.0596 72.6904 35.5 72 35.5C71.3096 35.5 70.75 36.0596 70.75 36.75Z" fill="black"/>
</svg>
