<svg width="104" height="64" viewBox="0 0 104 64" fill="none" xmlns="http://www.w3.org/2000/svg">
<path d="M31.9993 26C32.5516 26 32.9993 26.4477 32.9993 27V34C32.9993 34.5523 32.5516 35 31.9993 35C31.447 35 30.9993 34.5523 30.9993 34V27C30.9993 26.4477 31.447 26 31.9993 26Z" fill="black"/>
<path d="M31.9993 38C31.3089 38 30.7493 37.4403 30.7493 36.75C30.7493 36.0596 31.3089 35.5 31.9993 35.5C32.6896 35.5 33.2493 36.0596 33.2493 36.75C33.2493 37.4403 32.6896 38 31.9993 38Z" fill="black"/>
<path fill-rule="evenodd" clip-rule="evenodd" d="M34.0064 21.0082C32.7652 20.2882 31.2334 20.2882 29.9922 21.0082L26.7436 22.8927L23.4837 24.7659C22.2395 25.4808 21.4736 26.8074 21.4766 28.2423L21.4843 31.9979V32.002L21.4766 35.7577C21.4736 37.1926 22.2395 38.5192 23.4837 39.2341L26.74 41.1052L26.7436 41.1073L29.9922 42.9918C31.2334 43.7118 32.7652 43.7118 34.0064 42.9918L37.255 41.1073L37.2586 41.1052L40.5149 39.2341C41.759 38.5192 42.5249 37.1926 42.522 35.7577L42.5143 32.002V31.9979L42.522 28.2423C42.5249 26.8074 41.759 25.4808 40.5149 24.7659L37.2586 22.8948L37.255 22.8927L34.0064 21.0082ZM30.9957 22.7382C31.6163 22.3782 32.3822 22.3782 33.0028 22.7382L36.255 24.6248L36.2586 24.6268L39.5184 26.5C40.1405 26.8575 40.5235 27.5207 40.522 28.2382L40.5143 31.9979V32.002L40.522 35.7618C40.5235 36.4792 40.1405 37.1425 39.5184 37.5L36.2586 39.3732L36.255 39.3752L33.0028 41.2618C32.3822 41.6218 31.6163 41.6218 30.9957 41.2618L27.7436 39.3752L24.4801 37.5C23.858 37.1425 23.4751 36.4792 23.4766 35.7618L23.4843 32.002V31.9979L23.4766 28.2382C23.4751 27.5207 23.858 26.8575 24.4801 26.5L27.74 24.6268L27.7436 24.6248L30.9957 22.7382Z" fill="black"/>
<path fill-rule="evenodd" clip-rule="evenodd" d="M70.494 21.8732C71.4249 21.3332 72.5737 21.3332 73.5046 21.8732L76.7568 23.7598L80.0167 25.6329C80.9498 26.1691 81.5242 27.1641 81.522 28.2402L81.5143 32L81.522 35.7597C81.5242 36.8359 80.9498 37.8308 80.0167 38.367L76.7568 40.2402L73.5046 42.1268C72.5737 42.6668 71.4249 42.6668 70.494 42.1268L67.2418 40.2402L63.9819 38.367C63.0488 37.8308 62.4744 36.8359 62.4766 35.7597L62.4843 32L62.4766 28.2402C62.4744 27.1641 63.0488 26.1691 63.9819 25.6329L67.2418 23.7598L70.494 21.8732ZM71.9993 26C72.5516 26 72.9993 26.4477 72.9993 27V34C72.9993 34.5523 72.5516 35 71.9993 35C71.447 35 70.9993 34.5523 70.9993 34V27C70.9993 26.4477 71.447 26 71.9993 26ZM70.7493 36.75C70.7493 37.4403 71.3089 38 71.9993 38C72.6896 38 73.2493 37.4403 73.2493 36.75C73.2493 36.0596 72.6896 35.5 71.9993 35.5C71.3089 35.5 70.7493 36.0596 70.7493 36.75Z" fill="black"/>
</svg>
