<svg width="104" height="64" viewBox="0 0 104 64" fill="none" xmlns="http://www.w3.org/2000/svg">
<path d="M28.7391 23.9316C30.1202 21.3562 33.8814 21.3561 35.2625 23.9316L41.574 35.705C42.8852 38.1512 41.0381 40.9995 38.3123 40.9999H25.6893C22.9633 40.9997 21.1162 38.1513 22.4275 35.705L28.7391 23.9316ZM33.4998 24.8769C32.8729 23.7078 31.1287 23.7079 30.5018 24.8769L24.1902 36.6503C23.6365 37.6837 24.3829 38.9997 25.6893 38.9999H38.3123C39.6185 38.9995 40.3649 37.6836 39.8113 36.6503L33.4998 24.8769ZM32.0008 35.4999C32.691 35.5001 33.2508 36.0597 33.2508 36.7499C33.2508 37.4402 32.691 37.9998 32.0008 37.9999C31.3104 37.9999 30.7508 37.4403 30.7508 36.7499C30.7508 36.0596 31.3104 35.4999 32.0008 35.4999ZM32.0008 25.9999C32.5529 26.0001 33.0008 26.4477 33.0008 26.9999V33.9999C33.0008 34.5521 32.5529 34.9998 32.0008 34.9999C31.4485 34.9999 31.0008 34.5522 31.0008 33.9999V26.9999C31.0008 26.4476 31.4485 25.9999 32.0008 25.9999Z" fill="black"/>
<path fill-rule="evenodd" clip-rule="evenodd" d="M63.3082 36.1777L69.6193 24.4046C70.6232 22.5318 73.3768 22.5318 74.3807 24.4046L80.6918 36.1777C81.6246 37.9176 80.3276 40 78.3112 40H65.6888C63.6724 40 62.3754 37.9176 63.3082 36.1777ZM72 26C72.5523 26 73 26.4477 73 27V34C73 34.5523 72.5523 35 72 35C71.4477 35 71 34.5523 71 34V27C71 26.4477 71.4477 26 72 26ZM70.75 36.75C70.75 37.4404 71.3096 38 72 38C72.6904 38 73.25 37.4404 73.25 36.75C73.25 36.0596 72.6904 35.5 72 35.5C71.3096 35.5 70.75 36.0596 70.75 36.75Z" fill="black"/>
</svg>
