<svg width="104" height="64" viewBox="0 0 104 64" fill="none" xmlns="http://www.w3.org/2000/svg">
<path d="M24.4609 38.1254L24.6579 39.1663C24.7099 39.4412 24.8411 39.691 25.0358 39.8856C25.5939 40.4437 26.5233 40.419 27.1119 39.8305L34.6271 32.3153C35.1217 31.8207 35.8108 31.5804 36.481 31.6688C38.4351 31.9265 40.3057 30.5168 40.6304 28.5417L40.7024 28.1039C41.1125 25.6092 39.1159 23.5023 36.6103 23.7856L36.1356 23.8393C34.0392 24.0764 32.5282 26.0892 32.9144 28.1302C33.0451 28.8208 32.8126 29.5493 32.297 30.0649L30.9497 31.4122C30.6197 31.7422 30.2196 31.9927 29.7828 32.1426L28.5485 32.5662C27.8646 32.801 27.3191 33.3464 27.0844 34.0303C26.8865 34.6069 26.4656 35.09 25.9193 35.3678L25.8349 35.4107C24.8233 35.9249 24.2564 37.0449 24.4609 38.1254Z" stroke="black" stroke-width="2" stroke-linecap="round"/>
<circle cx="1" cy="1" r="1" transform="matrix(0.707107 0.707107 0.707107 -0.707107 35.4355 27.6567)" fill="black"/>
<path fill-rule="evenodd" clip-rule="evenodd" d="M64.6584 39.1663L64.4614 38.1254C64.2569 37.0449 64.8238 35.9249 65.8354 35.4107L65.9198 35.3678C66.4661 35.0901 66.887 34.6069 67.0849 34.0303C67.3196 33.3465 67.8651 32.801 68.549 32.5663L69.7833 32.1426C70.2201 31.9927 70.6202 31.7423 70.9502 31.4122L72.2975 30.065C72.8131 29.5493 73.0456 28.8208 72.9149 28.1302C72.5287 26.0893 74.0397 24.0764 76.1361 23.8393L76.6108 23.7856C79.1164 23.5023 81.113 25.6092 80.7029 28.1039L80.6309 28.5418C80.3062 30.5168 78.4356 31.9265 76.4815 31.6688C75.8113 31.5804 75.1222 31.8207 74.6276 32.3153L67.1123 39.8306C66.5238 40.4191 65.5943 40.4437 65.0363 39.8856C64.8416 39.691 64.7104 39.4412 64.6584 39.1663ZM77.5563 26.9498C77.9468 27.3403 77.9468 27.9735 77.5563 28.364C77.1657 28.7545 76.5326 28.7545 76.1421 28.364C75.7515 27.9735 75.7515 27.3403 76.1421 26.9498C76.5326 26.5592 77.1657 26.5592 77.5563 26.9498Z" fill="black"/>
</svg>
