<svg width="104" height="64" viewBox="0 0 104 64" fill="none" xmlns="http://www.w3.org/2000/svg">
<path d="M25 32C25 31.4477 25.4477 31 26 31H28C28.5523 31 29 31.4477 29 32C29 32.5523 28.5523 33 28 33H26C25.4477 33 25 32.5523 25 32Z" fill="black"/>
<path d="M31 31C30.4477 31 30 31.4477 30 32C30 32.5523 30.4477 33 31 33H33C33.5523 33 34 32.5523 34 32C34 31.4477 33.5523 31 33 31H31Z" fill="black"/>
<path d="M35 32C35 31.4477 35.4477 31 36 31H38C38.5523 31 39 31.4477 39 32C39 32.5523 38.5523 33 38 33H36C35.4477 33 35 32.5523 35 32Z" fill="black"/>
<path d="M38 37C38.5523 37 39 36.5523 39 36C39 35.4477 38.5523 35 38 35H37C36.4477 35 36 35.4477 36 36C36 36.5523 36.4477 37 37 37H38Z" fill="black"/>
<path d="M28 36C28 36.5523 27.5523 37 27 37H26C25.4477 37 25 36.5523 25 36C25 35.4477 25.4477 35 26 35H27C27.5523 35 28 35.4477 28 36Z" fill="black"/>
<path d="M30 35C29.4477 35 29 35.4477 29 36C29 36.5523 29.4477 37 30 37H34.5C35.0523 37 35.5 36.5523 35.5 36C35.5 35.4477 35.0523 35 34.5 35H30Z" fill="black"/>
<path fill-rule="evenodd" clip-rule="evenodd" d="M35.9999 24.5C35.9999 23.9477 35.5522 23.5 34.9999 23.5C34.4476 23.5 33.9999 23.9477 33.9999 24.5C33.9999 24.6733 33.9397 24.9556 33.7884 25.1657C33.6738 25.3249 33.4741 25.5 33 25.5C32.4702 25.5 31.9655 25.6096 31.5511 25.8977C31.1184 26.1985 30.8896 26.6205 30.7983 27.0351C30.7641 27.1909 30.7485 27.3469 30.7472 27.5H26C23.7909 27.5 22 29.2909 22 31.5V36.5C22 38.7091 23.7909 40.5 26 40.5H38C40.2091 40.5 42 38.7091 42 36.5V31.5C42 29.2909 40.2091 27.5 38 27.5H33C34.1259 27.5 34.9261 27.0085 35.4115 26.3343C35.8602 25.7111 36 24.9933 35.9999 24.5ZM31.9799 29.5C31.9938 29.5003 32.0077 29.5003 32.0217 29.5H38C39.1046 29.5 40 30.3954 40 31.5V36.5C40 37.6046 39.1046 38.5 38 38.5H26C24.8954 38.5 24 37.6046 24 36.5V31.5C24 30.3954 24.8954 29.5 26 29.5H31.9799Z" fill="black"/>
<path fill-rule="evenodd" clip-rule="evenodd" d="M75.9999 24.5C75.9999 23.9477 75.5522 23.5 74.9999 23.5C74.4476 23.5 73.9999 23.9477 73.9999 24.5C73.9999 24.6733 73.9397 24.9556 73.7884 25.1657C73.6738 25.3249 73.4741 25.5 73 25.5C72.4702 25.5 71.9655 25.6096 71.5511 25.8977C71.1184 26.1985 70.8896 26.6205 70.7983 27.0351C70.6828 27.5605 70.7797 28.0889 70.9194 28.5H66C64.3431 28.5 63 29.8431 63 31.5V36.5C63 38.1569 64.3431 39.5 66 39.5H78C79.6569 39.5 81 38.1569 81 36.5V31.5C81 29.8431 79.6569 28.5 78 28.5H73.0002C73.0003 28.3495 72.9663 28.1966 72.8944 28.0528C72.8439 27.9517 72.7955 27.8229 72.7684 27.6967C72.7521 27.6206 72.7473 27.5631 72.7471 27.5235C72.7951 27.5121 72.8754 27.5 73 27.5C74.1259 27.5 74.9261 27.0085 75.4115 26.3343C75.8602 25.7111 76 24.9933 75.9999 24.5ZM66 31C65.4477 31 65 31.4477 65 32C65 32.5523 65.4477 33 66 33H68C68.5523 33 69 32.5523 69 32C69 31.4477 68.5523 31 68 31H66ZM70 32C70 31.4477 70.4477 31 71 31H73C73.5523 31 74 31.4477 74 32C74 32.5523 73.5523 33 73 33H71C70.4477 33 70 32.5523 70 32ZM76 31C75.4477 31 75 31.4477 75 32C75 32.5523 75.4477 33 76 33H78C78.5523 33 79 32.5523 79 32C79 31.4477 78.5523 31 78 31H76ZM79 36C79 36.5523 78.5523 37 78 37H77C76.4477 37 76 36.5523 76 36C76 35.4477 76.4477 35 77 35H78C78.5523 35 79 35.4477 79 36ZM67 37C67.5523 37 68 36.5523 68 36C68 35.4477 67.5523 35 67 35H66C65.4477 35 65 35.4477 65 36C65 36.5523 65.4477 37 66 37H67ZM69 36C69 35.4477 69.4477 35 70 35H74.5C75.0523 35 75.5 35.4477 75.5 36C75.5 36.5523 75.0523 37 74.5 37H70C69.4477 37 69 36.5523 69 36Z" fill="black"/>
</svg>
