<svg width="104" height="64" viewBox="0 0 104 64" fill="none" xmlns="http://www.w3.org/2000/svg">
<path fill-rule="evenodd" clip-rule="evenodd" d="M25.8952 22C24.8761 22 24.02 22.7663 23.9074 23.7791L23.1297 30.7791C22.998 31.9639 23.9254 33 25.1174 33H31.0002V40H28.0002C27.4479 40 27.0002 40.4477 27.0002 41C27.0002 41.5523 27.4479 42 28.0002 42H36.0002C36.5524 42 37.0002 41.5523 37.0002 41C37.0002 40.4477 36.5524 40 36.0002 40H33.0002V33H38.8829C40.0749 33 41.0023 31.9639 40.8707 30.7791L40.0929 23.7791C39.9803 22.7663 39.1242 22 38.1051 22H25.8952ZM25.1174 31L25.8952 24H38.1051L38.8829 31H25.1174Z" fill="black"/>
<path d="M64.9105 23.9005L64.1105 31.9005C64.0517 32.4892 64.5139 33 65.1056 33H71.0006V40H68.0006C67.4483 40 67.0006 40.4477 67.0006 41C67.0006 41.5523 67.4483 42 68.0006 42H76.0006C76.5529 42 77.0006 41.5523 77.0006 41C77.0006 40.4477 76.5529 40 76.0006 40H73.0006V33H78.8956C79.4872 33 79.9495 32.4892 79.8906 31.9005L79.0906 23.9005C79.0395 23.3893 78.6093 23 78.0956 23H65.9056C65.3918 23 64.9616 23.3893 64.9105 23.9005Z" fill="black"/>
</svg>
