<svg width="104" height="64" viewBox="0 0 104 64" fill="none" xmlns="http://www.w3.org/2000/svg">
<path fill-rule="evenodd" clip-rule="evenodd" d="M25 21.5C22.7909 21.5 21 23.2909 21 25.5V35.5C21 37.7091 22.7909 39.5 25 39.5H39C41.2091 39.5 43 37.7091 43 35.5V25.5C43 23.2909 41.2091 21.5 39 21.5H25ZM23 25.5C23 24.3954 23.8954 23.5 25 23.5H39C40.1046 23.5 41 24.3954 41 25.5V35.5C41 36.6046 40.1046 37.5 39 37.5H25C23.8954 37.5 23 36.6046 23 35.5V25.5Z" fill="black"/>
<path d="M22 40.5C21.4477 40.5 21 40.9477 21 41.5C21 42.0523 21.4477 42.5 22 42.5H42C42.5523 42.5 43 42.0523 43 41.5C43 40.9477 42.5523 40.5 42 40.5H22Z" fill="black"/>
<path d="M65 22.5H79C80.6569 22.5 82 23.8431 82 25.5V35.5C82 37.1569 80.6569 38.5 79 38.5H65C63.3431 38.5 62 37.1569 62 35.5V25.5C62 23.8431 63.3431 22.5 65 22.5Z" fill="black"/>
<path d="M62 40.5C61.4477 40.5 61 40.9477 61 41.5C61 42.0523 61.4477 42.5 62 42.5H82C82.5523 42.5 83 42.0523 83 41.5C83 40.9477 82.5523 40.5 82 40.5H62Z" fill="black"/>
</svg>
