<svg width="104" height="64" viewBox="0 0 104 64" fill="none" xmlns="http://www.w3.org/2000/svg">
<path d="M31.5782 23.099C31.8528 23.0187 32.1452 23.0188 32.4199 23.099L32.5557 23.1459L41.21 26.6078C42.467 27.1108 42.467 28.89 41.21 29.393L39.6914 29.9994L41.21 30.6078C42.467 31.1108 42.467 32.89 41.21 33.393L39.6914 33.9994L41.21 34.6078C42.467 35.1108 42.467 36.89 41.21 37.393L32.5557 40.8549C32.1985 40.9975 31.7996 40.9976 31.4424 40.8549L22.7881 37.393C21.5315 36.89 21.5317 35.111 22.7881 34.6078L24.3057 33.9994L22.7881 33.393C21.5315 32.89 21.5317 31.111 22.7881 30.6078L24.3057 29.9994L22.7881 29.393C21.5315 28.89 21.5317 27.111 22.7881 26.6078L31.4424 23.1459L31.5782 23.099ZM32.5557 36.8549C32.1985 36.9975 31.7996 36.9976 31.4424 36.8549L26.999 35.0766L24.6905 36.0004L31.999 38.9232L39.3067 36.0004L36.9981 35.0766L32.5557 36.8549ZM32.5557 32.8549C32.1985 32.9975 31.7996 32.9976 31.4424 32.8549L26.999 31.0766L24.6905 32.0004L31.999 34.9232L39.3067 32.0004L36.9981 31.0766L32.5557 32.8549ZM24.6905 28.0004L31.999 30.9232L39.3067 28.0004L31.999 25.0766L24.6905 28.0004Z" fill="black"/>
<path d="M62.292 27.5301L71.8289 24.0621C71.9393 24.0219 72.0603 24.0219 72.1707 24.0621L81.7076 27.5301C82.1464 27.6896 82.1464 28.3103 81.7076 28.4698L72.1707 31.9378C72.0603 31.978 71.9393 31.978 71.8289 31.9378L62.292 28.4698C61.8532 28.3103 61.8532 27.6896 62.292 27.5301Z" fill="black"/>
<path d="M66.5901 30.9671L62.292 32.53C61.8532 32.6896 61.8532 33.3102 62.292 33.4698L71.8289 36.9378C71.9393 36.9779 72.0603 36.9779 72.1707 36.9378L81.7076 33.4698C82.1464 33.3102 82.1464 32.6896 81.7076 32.53L77.4094 30.967L72.204 32.962C72.0721 33.0126 71.9274 33.0126 71.7955 32.962L66.5901 30.9671Z" fill="black"/>
<path d="M62.292 36.53L65.2514 35.4539L71.7955 37.9619C71.9274 38.0125 72.0721 38.0125 72.204 37.9619L78.7482 35.4539L81.7076 36.53C82.1464 36.6896 82.1464 37.3102 81.7076 37.4698L72.1707 40.9378C72.0603 40.9779 71.9393 40.9779 71.8289 40.9378L62.292 37.4698C61.8532 37.3102 61.8532 36.6896 62.292 36.53Z" fill="black"/>
</svg>
