<svg width="104" height="64" viewBox="0 0 104 64" fill="none" xmlns="http://www.w3.org/2000/svg">
<path d="M24.2218 24.2218C28.5176 19.9261 35.4827 19.9261 39.7785 24.2218C44.0742 28.5176 44.0742 35.4827 39.7785 39.7785C35.4827 44.0742 28.5176 44.0742 24.2218 39.7785C19.9261 35.4827 19.9261 28.5176 24.2218 24.2218ZM35.4757 36.8898C33.4009 38.3683 30.5982 38.3686 28.5236 36.8898L26.383 39.0304C29.6588 41.6544 34.3404 41.6541 37.6164 39.0304L35.4757 36.8898ZM24.9689 26.383C22.3454 29.6586 22.3457 34.3405 24.9689 37.6164L27.1095 35.4757C25.6314 33.4011 25.6311 30.598 27.1095 28.5236L24.9689 26.383ZM36.8898 28.5236C38.3686 30.5982 38.3683 33.4009 36.8898 35.4757L39.0304 37.6164C41.6541 34.3404 41.6544 29.6588 39.0304 26.383L36.8898 28.5236ZM34.8283 29.172C33.2662 27.6099 30.7341 27.6099 29.172 29.172C27.6099 30.7341 27.6099 33.2662 29.172 34.8283C30.7341 36.3904 33.2662 36.3904 34.8283 34.8283C36.3904 33.2662 36.3904 30.7341 34.8283 29.172ZM37.6164 24.9689C34.3405 22.3457 29.6586 22.3454 26.383 24.9689L28.5236 27.1095C30.598 25.6311 33.4011 25.6314 35.4757 27.1095L37.6164 24.9689Z" fill="black"/>
<path d="M68.24 27.1801L65.4966 24.4368C69.227 21.2227 74.7714 21.2227 78.5018 24.4368L75.7585 27.1801C73.5554 25.4574 70.443 25.4574 68.24 27.1801Z" fill="black"/>
<path d="M76.8191 28.2408L79.5625 25.4974C82.7766 29.2278 82.7766 34.7722 79.5625 38.5026L76.8191 35.7592C78.5418 33.5562 78.5418 30.4438 76.8191 28.2408Z" fill="black"/>
<path d="M75.7585 36.8199L78.5018 39.5633C74.7714 42.7774 69.227 42.7774 65.4966 39.5633L68.24 36.8199C70.443 38.5426 73.5554 38.5426 75.7585 36.8199Z" fill="black"/>
<path d="M67.1793 35.7592L64.436 38.5026C61.2219 34.7722 61.2219 29.2278 64.436 25.4974L67.1793 28.2408C65.4566 30.4438 65.4566 33.5562 67.1793 35.7592Z" fill="black"/>
<path d="M68.7381 28.7389C70.5392 26.9378 73.4593 26.9378 75.2603 28.7389C77.0614 30.54 77.0614 33.4601 75.2603 35.2611C73.4593 37.0622 70.5392 37.0622 68.7381 35.2611C66.937 33.4601 66.937 30.54 68.7381 28.7389Z" fill="black"/>
</svg>
