<svg width="104" height="64" viewBox="0 0 104 64" fill="none" xmlns="http://www.w3.org/2000/svg">
<path fill-rule="evenodd" clip-rule="evenodd" d="M33.0002 23.9233C33.0002 22.6328 31.2417 22.2519 30.7077 23.4268L26.2183 33.3034C25.8572 34.0979 26.438 35 27.3108 35H31.0002V40.0767C31.0002 41.3672 32.7586 41.7481 33.2926 40.5732L37.782 30.6966C38.1431 29.902 37.5623 29 36.6896 29H33.0002V23.9233ZM28.5532 33L31.0002 27.6166V29.8C31.0002 30.4627 31.5374 31 32.2002 31H35.4472L33.0002 36.3834V34.2C33.0002 33.5373 32.4629 33 31.8002 33H28.5532Z" fill="black"/>
<path d="M71.0428 23.1436L66.3135 33.7408C66.1659 34.0715 66.4079 34.4445 66.7701 34.4445H71.4994C71.7756 34.4445 71.9994 34.6684 71.9994 34.9445V40.6529C71.9994 41.1925 72.7361 41.3494 72.956 40.8566L77.6853 30.2594C77.8329 29.9287 77.5909 29.5557 77.2288 29.5557H72.4994C72.2233 29.5557 71.9994 29.3318 71.9994 29.0557V23.3473C71.9994 22.8077 71.2627 22.6508 71.0428 23.1436Z" fill="black"/>
</svg>
