<svg width="104" height="64" viewBox="0 0 104 64" fill="none" xmlns="http://www.w3.org/2000/svg">
<path d="M33.0002 23.9233V28.1716L31.0451 30.1266C31.0158 30.0228 31.0002 29.9132 31.0002 29.8V27.6166L28.871 32.3007L26.4929 34.6788C26.1366 34.3452 25.9912 33.8031 26.2183 33.3034L30.7077 23.4268C31.2417 22.2519 33.0002 22.6328 33.0002 23.9233Z" fill="black"/>
<path d="M35.1293 31.6993L37.5074 29.3211C37.8637 29.6548 38.0091 30.1969 37.782 30.6966L33.2926 40.5732C32.7586 41.7481 31.0002 41.3672 31.0002 40.0767V35.8284L32.9552 33.8734C32.9845 33.9772 33.0002 34.0868 33.0002 34.2V36.3834L35.1293 31.6993Z" fill="black"/>
<path d="M40.7071 24.7071C41.0976 24.3166 41.0976 23.6834 40.7071 23.2929C40.3166 22.9024 39.6834 22.9024 39.2929 23.2929L23.2929 39.2929C22.9024 39.6834 22.9024 40.3166 23.2929 40.7071C23.6834 41.0976 24.3166 41.0976 24.7071 40.7071L40.7071 24.7071Z" fill="black"/>
<path d="M71.9999 29.0557C71.9999 29.0917 72.0037 29.1269 72.011 29.1607L66.7288 34.4429C66.3902 34.4156 66.1721 34.0586 66.314 33.7408L71.0433 23.1436C71.2632 22.6508 71.9999 22.8077 71.9999 23.3473V29.0557Z" fill="black"/>
<path d="M71.9889 34.8397L77.2712 29.5573C77.6098 29.5848 77.8277 29.9417 77.6858 30.2594L72.9565 40.8566C72.7366 41.3494 71.9999 41.1925 71.9999 40.6529V34.9445C71.9999 34.9086 71.9961 34.8735 71.9889 34.8397Z" fill="black"/>
<path d="M80.7071 24.7072C81.0976 24.3167 81.0976 23.6835 80.7071 23.293C80.3166 22.9025 79.6834 22.9025 79.2929 23.293L63.2929 39.293C62.9024 39.6835 62.9024 40.3167 63.2929 40.7072C63.6834 41.0978 64.3166 41.0978 64.7071 40.7072L80.7071 24.7072Z" fill="black"/>
</svg>
