<svg width="104" height="64" viewBox="0 0 104 64" fill="none" xmlns="http://www.w3.org/2000/svg">
<path fill-rule="evenodd" clip-rule="evenodd" d="M27.5977 27.7921C27.1614 27.2877 26.522 26.9693 25.8095 26.9693L25.0553 26.9693C24.874 26.9693 24.7182 26.9692 24.5771 26.9833C23.2206 27.1192 22.1474 28.2108 22.0138 29.5906C21.9999 29.7342 21.9999 29.8926 22 30.077V37.4234C21.9999 37.6078 21.9999 37.7663 22.0138 37.9098C22.1474 39.2896 23.2206 40.3812 24.5771 40.5171C24.7182 40.5312 24.874 40.5312 25.0553 40.5311L25.8095 40.5311C26.5908 40.5311 27.2842 40.1483 27.7183 39.557L29.6938 40.8129C30.0772 41.0572 30.4166 41.2735 30.8061 41.3872C31.1956 41.5008 31.5961 41.5003 32.0485 41.4998L35.9264 41.4999C36.5149 41.5007 37.0368 41.5015 37.5271 41.3141C38.0174 41.1267 38.4097 40.7766 38.852 40.3818L40.3735 39.0275L40.4827 38.9306C41.0144 38.4589 41.4866 38.04 41.7444 37.4624C42.0021 36.8847 42.001 36.2473 41.9998 35.5297L41.9997 35.3824L41.9997 34.0488C41.9997 33.2476 41.9998 32.557 41.9309 32.001C41.8573 31.4069 41.692 30.833 41.2637 30.3502C41.1983 30.2765 41.1292 30.2062 41.0567 30.1397C40.5821 29.704 40.0178 29.5359 39.4338 29.4611C38.8871 29.391 38.2082 29.391 37.4205 29.3911L37.2379 29.3911C36.625 29.3911 36.2586 29.3892 36.0049 29.3561L35.9823 29.353L35.9897 29.3311C36.074 29.0855 36.2362 28.7513 36.5103 28.1937L37.2332 26.7232L37.2433 26.7025C37.9387 25.2726 37.3708 23.5399 35.9711 22.8204L35.9508 22.81L35.9363 22.8027C34.9074 22.2836 33.6729 22.4417 32.8026 23.2039L27.5977 27.7921ZM34.0454 24.6721C34.3355 24.418 34.747 24.3653 35.09 24.5383L35.099 24.5429L35.112 24.5495C35.5785 24.7893 35.7678 25.3669 35.536 25.8435L34.7813 27.3789C34.5411 27.8674 34.3212 28.3147 34.1915 28.6922C34.0554 29.0885 33.9429 29.6132 34.1712 30.1547C34.2456 30.3312 34.3454 30.4955 34.4673 30.6421C34.8414 31.0921 35.3532 31.2243 35.7625 31.2777C36.1525 31.3286 36.6441 31.3285 37.1811 31.3285L37.3621 31.3285C38.2248 31.3285 38.7823 31.3303 39.1957 31.3833C39.5852 31.4332 39.7116 31.5146 39.7806 31.578C39.8048 31.6002 39.8278 31.6236 39.8496 31.6482C39.9119 31.7184 39.992 31.847 40.0411 32.2432C40.0932 32.6637 40.095 33.2307 40.095 34.1082V35.3824C40.095 36.3352 40.0751 36.5156 40.0098 36.6618C39.9446 36.808 39.8242 36.942 39.1193 37.5694L37.6879 38.8434C37.1026 39.3643 36.9816 39.4529 36.8572 39.5005C36.7327 39.5481 36.5842 39.5624 35.8065 39.5624H32.14C31.5449 39.5624 31.4303 39.5538 31.3312 39.5248C31.2321 39.4959 31.1304 39.4415 30.6258 39.1207L28.1904 37.5724V29.8334L34.0454 24.6721ZM25.8095 28.9067C26.0725 28.9067 26.2857 29.1236 26.2857 29.3911V38.1093C26.2857 38.3768 26.0725 38.5937 25.8095 38.5937H25.0952C24.8514 38.5937 24.7986 38.5925 24.7638 38.589C24.3116 38.5437 23.9539 38.1799 23.9093 37.7199C23.9059 37.6845 23.9048 37.6308 23.9048 37.3828V30.1176C23.9048 29.8697 23.9059 29.8159 23.9093 29.7805C23.9539 29.3206 24.3116 28.9567 24.7638 28.9114C24.7986 28.9079 24.8514 28.9067 25.0952 28.9067H25.8095Z" fill="black"/>
<path d="M68.3803 28.3038L73.4954 23.8707C74.1046 23.3461 74.9688 23.2373 75.689 23.5945L75.7014 23.6007L75.7188 23.6094C76.6987 24.1046 77.0962 25.2971 76.6094 26.2812L75.8416 27.8167C75.2913 28.9174 75.0161 29.4678 75.199 29.8942C75.2381 29.9853 75.2905 30.07 75.3545 30.1457C75.6541 30.5 76.2694 30.5 77.5 30.5H77.6305C79.3895 30.5 80.269 30.5 80.8399 31.0152C80.8907 31.061 80.939 31.1093 80.9848 31.1601C81.5 31.731 81.5 32.6105 81.5 34.3695V35.6849C81.5 36.5783 81.5 37.025 81.3213 37.4189C81.1425 37.8128 80.8064 38.1069 80.134 38.6952L78.6311 40.0103C78.0718 40.4997 77.7921 40.7444 77.452 40.8722C77.1119 41 76.7403 41 75.9971 41H72.1472C71.5774 41 71.2925 41 71.0222 40.9225C70.752 40.845 70.5104 40.694 70.0272 40.392L68.88 39.675C67.961 39.1006 67.5014 38.8134 67.2507 38.361C67 37.9087 67 37.3668 67 36.283V38.5C67 39.3284 66.3284 40 65.5 40H64.5C63.3954 40 62.5 39.1046 62.5 38V30C62.5 28.8954 63.3954 28 64.5 28H65.5C66.3284 28 67 28.6716 67 29.5V31.3265C67 30.4277 67 29.9782 67.1807 29.5825C67.3614 29.1868 67.701 28.8924 68.3803 28.3038Z" fill="black"/>
</svg>
