<svg width="104" height="64" viewBox="0 0 104 64" fill="none" xmlns="http://www.w3.org/2000/svg">
<path d="M39.7786 24.2219C37.826 22.2693 34.6602 22.2693 32.7076 24.2219L29.8791 27.0503C29.4886 27.4409 29.4886 28.074 29.8791 28.4646C30.2697 28.8551 30.9028 28.8551 31.2933 28.4646L34.1218 25.6361C35.2933 24.4646 37.1928 24.4646 38.3644 25.6361C39.536 26.8077 39.536 28.7072 38.3644 29.8788L35.536 32.7072C35.1455 33.0977 35.1455 33.7309 35.536 34.1214C35.9265 34.5119 36.5597 34.5119 36.9502 34.1214L39.7786 31.293C41.7312 29.3404 41.7312 26.1745 39.7786 24.2219Z" fill="black"/>
<path d="M34.1218 31.293C34.5123 30.9025 34.5123 30.2693 34.1218 29.8788C33.7312 29.4882 33.0981 29.4882 32.7076 29.8788L29.8791 32.7072C29.4886 33.0977 29.4886 33.7309 29.8791 34.1214C30.2697 34.5119 30.9028 34.5119 31.2933 34.1214L34.1218 31.293Z" fill="black"/>
<path d="M28.4649 31.293C28.8554 30.9025 28.8554 30.2693 28.4649 29.8788C28.0744 29.4882 27.4412 29.4882 27.0507 29.8788L24.2223 32.7072C22.2697 34.6598 22.2697 37.8256 24.2223 39.7783C26.1749 41.7309 29.3407 41.7309 31.2933 39.7783L34.1218 36.9498C34.5123 36.5593 34.5123 35.9261 34.1218 35.5356C33.7312 35.1451 33.0981 35.1451 32.7076 35.5356L29.8791 38.364C28.7076 39.5356 26.8081 39.5356 25.6365 38.364C24.4649 37.1925 24.4649 35.293 25.6365 34.1214L28.4649 31.293Z" fill="black"/>
<path d="M79.7786 24.2219C77.826 22.2693 74.6602 22.2693 72.7076 24.2219L69.8791 27.0503C69.4886 27.4409 69.4886 28.074 69.8791 28.4646C70.2697 28.8551 70.9028 28.8551 71.2933 28.4646L74.1218 25.6361C75.2933 24.4646 77.1928 24.4646 78.3644 25.6361C79.536 26.8077 79.536 28.7072 78.3644 29.8788L75.536 32.7072C75.1455 33.0977 75.1455 33.7309 75.536 34.1214C75.9265 34.5119 76.5597 34.5119 76.9502 34.1214L79.7786 31.293C81.7312 29.3404 81.7312 26.1745 79.7786 24.2219Z" fill="black"/>
<path d="M74.1218 31.293C74.5123 30.9025 74.5123 30.2693 74.1218 29.8788C73.7312 29.4882 73.0981 29.4882 72.7076 29.8788L69.8791 32.7072C69.4886 33.0977 69.4886 33.7309 69.8791 34.1214C70.2697 34.5119 70.9028 34.5119 71.2933 34.1214L74.1218 31.293Z" fill="black"/>
<path d="M68.4649 31.293C68.8554 30.9025 68.8554 30.2693 68.4649 29.8788C68.0744 29.4882 67.4412 29.4882 67.0507 29.8788L64.2223 32.7072C62.2697 34.6598 62.2697 37.8256 64.2223 39.7783C66.1749 41.7309 69.3407 41.7309 71.2933 39.7783L74.1218 36.9498C74.5123 36.5593 74.5123 35.9261 74.1218 35.5356C73.7312 35.1451 73.0981 35.1451 72.7076 35.5356L69.8791 38.364C68.7076 39.5356 66.8081 39.5356 65.6365 38.364C64.4649 37.1925 64.4649 35.293 65.6365 34.1214L68.4649 31.293Z" fill="black"/>
</svg>
