<svg width="104" height="64" viewBox="0 0 104 64" fill="none" xmlns="http://www.w3.org/2000/svg">
<path d="M32.7076 24.2219C34.6602 22.2693 37.826 22.2693 39.7786 24.2219C41.7312 26.1745 41.7312 29.3404 39.7786 31.293L36.9502 34.1214C36.5597 34.5119 35.9265 34.5119 35.536 34.1214C35.1455 33.7309 35.1455 33.0977 35.536 32.7072L38.3644 29.8788C39.536 28.7072 39.536 26.8077 38.3644 25.6361C37.1928 24.4646 35.2933 24.4646 34.1218 25.6361L31.2933 28.4646C30.9028 28.8551 30.2697 28.8551 29.8791 28.4646C29.4886 28.074 29.4886 27.4409 29.8791 27.0503L32.7076 24.2219Z" fill="black"/>
<path d="M28.4649 29.8788C28.8554 30.2693 28.8554 30.9025 28.4649 31.293L25.6365 34.1214C24.4649 35.293 24.4649 37.1925 25.6365 38.364C26.8081 39.5356 28.7076 39.5356 29.8791 38.364L32.7076 35.5356C33.0981 35.1451 33.7312 35.1451 34.1218 35.5356C34.5123 35.9261 34.5123 36.5593 34.1218 36.9498L31.2933 39.7783C29.3407 41.7309 26.1749 41.7309 24.2223 39.7783C22.2697 37.8256 22.2697 34.6598 24.2223 32.7072L27.0507 29.8788C27.4412 29.4882 28.0744 29.4882 28.4649 29.8788Z" fill="black"/>
<path d="M39.3644 35.5355C39.3644 36.0878 38.9167 36.5355 38.3644 36.5355H36.9502C36.6763 36.5355 36.4281 36.4254 36.2475 36.247C36.4259 36.4276 36.536 36.6757 36.536 36.9496V38.3639C36.536 38.9161 36.0883 39.3639 35.536 39.3639C34.9837 39.3639 34.536 38.9161 34.536 38.3639V36.9496C34.536 36.3974 34.9837 35.9496 35.536 35.9496C35.8099 35.9496 36.0581 36.0598 36.2387 36.2381C36.0603 36.0575 35.9502 35.8094 35.9502 35.5355C35.9502 34.9832 36.3979 34.5355 36.9502 34.5355H38.3644C38.9167 34.5355 39.3644 34.9832 39.3644 35.5355Z" fill="black"/>
<path d="M28.4649 24.6362C27.9127 24.6362 27.4649 25.0839 27.4649 25.6362V27.0504C27.4649 27.3243 27.5751 27.5725 27.7534 27.7531C27.5728 27.5747 27.3246 27.4645 27.0507 27.4645H25.6365C25.0842 27.4645 24.6365 27.9122 24.6365 28.4645C24.6365 29.0168 25.0842 29.4645 25.6365 29.4645H27.0507C27.603 29.4645 28.0507 29.0168 28.0507 28.4645C28.0507 28.1906 27.9406 27.9424 27.7622 27.7618C27.9428 27.9402 28.191 28.0504 28.4649 28.0504C29.0172 28.0504 29.4649 27.6027 29.4649 27.0504V25.6362C29.4649 25.0839 29.0172 24.6362 28.4649 24.6362Z" fill="black"/>
<path d="M72.7076 24.2219C74.6602 22.2693 77.826 22.2693 79.7786 24.2219C81.7312 26.1745 81.7312 29.3404 79.7786 31.293L76.9502 34.1214C76.5597 34.5119 75.9265 34.5119 75.536 34.1214C75.1455 33.7309 75.1455 33.0977 75.536 32.7072L78.3644 29.8788C79.536 28.7072 79.536 26.8077 78.3644 25.6361C77.1928 24.4646 75.2933 24.4646 74.1218 25.6361L71.2933 28.4646C70.9028 28.8551 70.2697 28.8551 69.8791 28.4646C69.4886 28.074 69.4886 27.4409 69.8791 27.0503L72.7076 24.2219Z" fill="black"/>
<path d="M68.4649 29.8788C68.8554 30.2693 68.8554 30.9025 68.4649 31.293L65.6365 34.1214C64.4649 35.293 64.4649 37.1925 65.6365 38.364C66.8081 39.5356 68.7076 39.5356 69.8791 38.364L72.7076 35.5356C73.0981 35.1451 73.7312 35.1451 74.1218 35.5356C74.5123 35.9261 74.5123 36.5593 74.1218 36.9498L71.2933 39.7783C69.3407 41.7309 66.1749 41.7309 64.2223 39.7783C62.2697 37.8256 62.2697 34.6598 64.2223 32.7072L67.0507 29.8788C67.4412 29.4882 68.0744 29.4882 68.4649 29.8788Z" fill="black"/>
<path d="M79.3644 35.5355C79.3644 36.0878 78.9167 36.5355 78.3644 36.5355H76.9502C76.6763 36.5355 76.4281 36.4254 76.2475 36.247C76.4259 36.4276 76.536 36.6757 76.536 36.9496V38.3639C76.536 38.9161 76.0883 39.3639 75.536 39.3639C74.9837 39.3639 74.536 38.9161 74.536 38.3639V36.9496C74.536 36.3974 74.9837 35.9496 75.536 35.9496C75.8099 35.9496 76.0581 36.0598 76.2387 36.2381C76.0603 36.0575 75.9502 35.8094 75.9502 35.5355C75.9502 34.9832 76.3979 34.5355 76.9502 34.5355H78.3644C78.9167 34.5355 79.3644 34.9832 79.3644 35.5355Z" fill="black"/>
<path d="M68.4649 24.6362C67.9127 24.6362 67.4649 25.0839 67.4649 25.6362V27.0504C67.4649 27.3243 67.5751 27.5725 67.7534 27.7531C67.5728 27.5747 67.3246 27.4645 67.0507 27.4645H65.6365C65.0842 27.4645 64.6365 27.9122 64.6365 28.4645C64.6365 29.0168 65.0842 29.4645 65.6365 29.4645H67.0507C67.603 29.4645 68.0507 29.0168 68.0507 28.4645C68.0507 28.1906 67.9406 27.9424 67.7622 27.7618C67.9428 27.9402 68.191 28.0504 68.4649 28.0504C69.0172 28.0504 69.4649 27.6027 69.4649 27.0504V25.6362C69.4649 25.0839 69.0172 24.6362 68.4649 24.6362Z" fill="black"/>
</svg>
