<svg width="104" height="64" viewBox="0 0 104 64" fill="none" xmlns="http://www.w3.org/2000/svg">
<path d="M22 24.5C22 23.9477 22.4477 23.5 23 23.5H41C41.5523 23.5 42 23.9477 42 24.5C42 25.0523 41.5523 25.5 41 25.5H23C22.4477 25.5 22 25.0523 22 24.5Z" fill="black"/>
<path d="M22 29.5C22 28.9477 22.4477 28.5 23 28.5H39C39.5523 28.5 40 28.9477 40 29.5C40 30.0523 39.5523 30.5 39 30.5H23C22.4477 30.5 22 30.0523 22 29.5Z" fill="black"/>
<path d="M23 33.5C22.4477 33.5 22 33.9477 22 34.5C22 35.0523 22.4477 35.5 23 35.5H37C37.5523 35.5 38 35.0523 38 34.5C38 33.9477 37.5523 33.5 37 33.5H23Z" fill="black"/>
<path d="M22 39.5C22 38.9477 22.4477 38.5 23 38.5H35C35.5523 38.5 36 38.9477 36 39.5C36 40.0523 35.5523 40.5 35 40.5H23C22.4477 40.5 22 40.0523 22 39.5Z" fill="black"/>
<path d="M41 37.5C41 36.9477 40.5523 36.5 40 36.5C39.4477 36.5 39 36.9477 39 37.5V38.5H38C37.4477 38.5 37 38.9477 37 39.5C37 40.0523 37.4477 40.5 38 40.5H39V41.5C39 42.0523 39.4477 42.5 40 42.5C40.5523 42.5 41 42.0523 41 41.5V40.5H42C42.5523 40.5 43 40.0523 43 39.5C43 38.9477 42.5523 38.5 42 38.5H41V37.5Z" fill="black"/>
<path d="M62 24.5C62 23.9477 62.4477 23.5 63 23.5H81C81.5523 23.5 82 23.9477 82 24.5C82 25.0523 81.5523 25.5 81 25.5H63C62.4477 25.5 62 25.0523 62 24.5Z" fill="black"/>
<path d="M62 29.5C62 28.9477 62.4477 28.5 63 28.5H79C79.5523 28.5 80 28.9477 80 29.5C80 30.0523 79.5523 30.5 79 30.5H63C62.4477 30.5 62 30.0523 62 29.5Z" fill="black"/>
<path d="M63 33.5C62.4477 33.5 62 33.9477 62 34.5C62 35.0523 62.4477 35.5 63 35.5H77C77.5523 35.5 78 35.0523 78 34.5C78 33.9477 77.5523 33.5 77 33.5H63Z" fill="black"/>
<path d="M62 39.5C62 38.9477 62.4477 38.5 63 38.5H75C75.5523 38.5 76 38.9477 76 39.5C76 40.0523 75.5523 40.5 75 40.5H63C62.4477 40.5 62 40.0523 62 39.5Z" fill="black"/>
<path d="M81 37.5C81 36.9477 80.5523 36.5 80 36.5C79.4477 36.5 79 36.9477 79 37.5V38.5H78C77.4477 38.5 77 38.9477 77 39.5C77 40.0523 77.4477 40.5 78 40.5H79V41.5C79 42.0523 79.4477 42.5 80 42.5C80.5523 42.5 81 42.0523 81 41.5V40.5H82C82.5523 40.5 83 40.0523 83 39.5C83 38.9477 82.5523 38.5 82 38.5H81V37.5Z" fill="black"/>
</svg>
