<svg width="104" height="64" viewBox="0 0 104 64" fill="none" xmlns="http://www.w3.org/2000/svg">
<path d="M41.5 24H27.5" stroke="black" stroke-width="2" stroke-linecap="round" stroke-linejoin="round"/>
<path d="M41.5 32H27.5" stroke="black" stroke-width="2" stroke-linecap="round" stroke-linejoin="round"/>
<path d="M41.5 40H27.5" stroke="black" stroke-width="2" stroke-linecap="round" stroke-linejoin="round"/>
<circle cx="1.25" cy="1.25" r="1.25" transform="matrix(-1 0 0 1 24.5 22.75)" fill="black"/>
<circle cx="1.25" cy="1.25" r="1.25" transform="matrix(-1 0 0 1 24.5 30.75)" fill="black"/>
<circle cx="1.25" cy="1.25" r="1.25" transform="matrix(-1 0 0 1 24.5 38.75)" fill="black"/>
<path d="M81.5 24H67.5" stroke="black" stroke-width="2" stroke-linecap="round" stroke-linejoin="round"/>
<path d="M81.5 32H67.5" stroke="black" stroke-width="2" stroke-linecap="round" stroke-linejoin="round"/>
<path d="M81.5 40H67.5" stroke="black" stroke-width="2" stroke-linecap="round" stroke-linejoin="round"/>
<circle cx="1.25" cy="1.25" r="1.25" transform="matrix(-1 0 0 1 64.5 22.75)" fill="black"/>
<circle cx="1.25" cy="1.25" r="1.25" transform="matrix(-1 0 0 1 64.5 30.75)" fill="black"/>
<circle cx="1.25" cy="1.25" r="1.25" transform="matrix(-1 0 0 1 64.5 38.75)" fill="black"/>
</svg>
