<svg width="104" height="64" viewBox="0 0 104 64" fill="none" xmlns="http://www.w3.org/2000/svg">
<path d="M33 35C33 34.4477 32.5523 34 32 34C31.4477 34 31 34.4477 31 35V37C31 37.5523 31.4477 38 32 38C32.5523 38 33 37.5523 33 37V35Z" fill="black"/>
<path fill-rule="evenodd" clip-rule="evenodd" d="M28 26.75C28 24.6789 29.6789 23 31.75 23C33.8211 23 35.5 24.6789 35.5 26.75V27.5C35.5 28.0523 35.9477 28.5 36.5 28.5C37.0523 28.5 37.5 28.0523 37.5 27.5V26.75C37.5 23.5744 34.9256 21 31.75 21C28.5744 21 26 23.5744 26 26.75V29C23.7909 29 22 30.7909 22 33V39C22 41.2091 23.7909 43 26 43H38C40.2091 43 42 41.2091 42 39V33C42 30.7909 40.2091 29 38 29H28V26.75ZM24 33C24 31.8954 24.8954 31 26 31H38C39.1046 31 40 31.8954 40 33V39C40 40.1046 39.1046 41 38 41H26C24.8954 41 24 40.1046 24 39V33Z" fill="black"/>
<path fill-rule="evenodd" clip-rule="evenodd" d="M68 26.75C68 24.6789 69.6789 23 71.75 23C73.8211 23 75.5 24.6789 75.5 26.75V27.5C75.5 28.0523 75.9477 28.5 76.5 28.5C77.0523 28.5 77.5 28.0523 77.5 27.5V26.75C77.5 23.5744 74.9256 21 71.75 21C68.5744 21 66 23.5744 66 26.75V30C64.3431 30 63 31.3431 63 33V39C63 40.6569 64.3431 42 66 42H78C79.6569 42 81 40.6569 81 39V33C81 31.3431 79.6569 30 78 30H68V26.75ZM72 34C72.5523 34 73 34.4477 73 35V37C73 37.5523 72.5523 38 72 38C71.4477 38 71 37.5523 71 37V35C71 34.4477 71.4477 34 72 34Z" fill="black"/>
</svg>
