<svg width="104" height="64" viewBox="0 0 104 64" fill="none" xmlns="http://www.w3.org/2000/svg">
<path d="M33 35C33 34.4477 32.5523 34 32 34C31.4477 34 31 34.4477 31 35V37C31 37.5523 31.4477 38 32 38C32.5523 38 33 37.5523 33 37V35Z" fill="black"/>
<path fill-rule="evenodd" clip-rule="evenodd" d="M38 27C38 23.6863 35.3137 21 32 21C28.6863 21 26 23.6863 26 27V29C23.7909 29 22 30.7909 22 33V39C22 41.2091 23.7909 43 26 43H38C40.2091 43 42 41.2091 42 39V33C42 30.7909 40.2091 29 38 29V27ZM28 27C28 24.7909 29.7909 23 32 23C34.2091 23 36 24.7909 36 27V29H28V27ZM24 33C24 31.8954 24.8954 31 26 31H38C39.1046 31 40 31.8954 40 33V39C40 40.1046 39.1046 41 38 41H26C24.8954 41 24 40.1046 24 39V33Z" fill="black"/>
<path fill-rule="evenodd" clip-rule="evenodd" d="M66 30V27C66 23.6863 68.6863 21 72 21C75.3137 21 78 23.6863 78 27V30C79.6569 30 81 31.3431 81 33V39C81 40.6569 79.6569 42 78 42H66C64.3431 42 63 40.6569 63 39V33C63 31.3431 64.3431 30 66 30ZM68 27C68 24.7909 69.7909 23 72 23C74.2091 23 76 24.7909 76 27V30H68V27ZM72 34C72.5523 34 73 34.4477 73 35V37C73 37.5523 72.5523 38 72 38C71.4477 38 71 37.5523 71 37V35C71 34.4477 71.4477 34 72 34Z" fill="black"/>
</svg>
