<svg width="104" height="64" viewBox="0 0 104 64" fill="none" xmlns="http://www.w3.org/2000/svg">
<path fill-rule="evenodd" clip-rule="evenodd" d="M43 23.4294C43 22.0405 41.6191 21.0744 40.3144 21.5505L33.0165 24.2136L25.6882 24.7867C23.6063 24.9495 22 26.6863 22 28.7745V30.2254C22 32.3136 23.6063 34.0504 25.6882 34.2132L26.1008 34.2455L26.8045 40.3588C26.9777 41.8639 28.252 42.9999 29.7671 42.9999C31.5542 42.9999 32.9401 41.4388 32.7282 39.6642L32.1375 34.7175L33.0165 34.7862L40.3144 37.4493C41.6191 37.9255 43 36.9594 43 35.5705V23.4294ZM25.8441 26.7806L32.2308 26.2812V32.7187L25.8441 32.2193C24.8032 32.1379 24 31.2695 24 30.2254V28.7745C24 27.7304 24.8032 26.862 25.8441 26.7806ZM41 35.5705L34.2308 33.1004V25.8995L41 23.4294L41 35.5705ZM28.7914 40.1301L28.1323 34.4043L30.1043 34.5585L30.7423 39.9013C30.8121 40.4858 30.3557 40.9999 29.7671 40.9999C29.2681 40.9999 28.8484 40.6258 28.7914 40.1301Z" fill="black"/>
<path d="M80.8286 22.9597C81.1548 22.8407 81.5 23.0822 81.5 23.4294V35.5706C81.5 35.9178 81.1548 36.1593 80.8286 36.0403L73.7308 33.4502V25.5498L80.8286 22.9597Z" fill="black"/>
<path d="M72.7308 25.7406V33.2594L65.8051 32.7178C64.504 32.6161 63.5 31.5305 63.5 30.2254V28.7745C63.5 27.4694 64.504 26.3839 65.8051 26.2822L72.7308 25.7406Z" fill="black"/>
<path d="M68.2946 40.1873L67.5661 33.8586L70.5522 34.092L71.2388 39.8421C71.3441 40.7241 70.6553 41.5 69.7671 41.5C69.0141 41.5 68.3808 40.9354 68.2946 40.1873Z" fill="black"/>
</svg>
