<svg width="104" height="64" viewBox="0 0 104 64" fill="none" xmlns="http://www.w3.org/2000/svg">
<path fill-rule="evenodd" clip-rule="evenodd" d="M30.4599 23.1567C29.6998 22.2796 28.3551 22.2316 27.5343 23.0523L26.9521 23.6345C26.2102 24.3765 26.1678 25.5657 26.855 26.3586L38.5418 39.8434C39.302 40.7205 40.6467 40.7685 41.4674 39.9477L42.0496 39.3655C42.7915 38.6236 42.8339 37.4344 42.1467 36.6415L30.4599 23.1567ZM28.3664 25.0487L28.9485 24.4666L29.1353 24.6821L28.5532 25.2643L28.3664 25.0487ZM29.8664 26.7795L30.4485 26.1973L40.6354 37.9513L40.0532 38.5335L29.8664 26.7795Z" fill="black"/>
<path d="M23.6127 28.6498C23.4524 28.1687 23.0749 27.7912 22.5938 27.6308C22.1042 27.4676 22.1042 26.7751 22.5938 26.6119C23.0749 26.4515 23.4524 26.074 23.6127 25.5929C23.7759 25.1033 24.4685 25.1033 24.6317 25.5929C24.792 26.074 25.1695 26.4515 25.6506 26.6119C26.1402 26.7751 26.1402 27.4676 25.6506 27.6308C25.1695 27.7912 24.792 28.1687 24.6317 28.6498C24.4685 29.1394 23.7759 29.1394 23.6127 28.6498Z" fill="black"/>
<path d="M27.6127 35.6498C27.4524 35.1687 27.0749 34.7912 26.5938 34.6308C26.1042 34.4676 26.1042 33.7751 26.5938 33.6119C27.0749 33.4515 27.4524 33.074 27.6127 32.5929C27.7759 32.1033 28.4685 32.1033 28.6317 32.5929C28.792 33.074 29.1695 33.4515 29.6506 33.6119C30.1402 33.7751 30.1402 34.4676 29.6506 34.6308C29.1695 34.7912 28.792 35.1687 28.6317 35.6498C28.4685 36.1394 27.7759 36.1394 27.6127 35.6498Z" fill="black"/>
<path d="M80.7603 39.2404L81.3425 38.6582C81.7134 38.2872 81.7346 37.6926 81.391 37.2962L72.086 26.5596L70.208 28.4376C70.1666 28.4789 70.1226 28.5159 70.0764 28.5485L79.2975 39.1882C79.6776 39.6268 80.3499 39.6507 80.7603 39.2404Z" fill="black"/>
<path d="M70.7728 25.0443L68.7937 27.0234C68.7867 27.0304 68.7798 27.0375 68.7731 27.0447L67.6107 25.7034C67.2671 25.307 67.2883 24.7124 67.6593 24.3414L68.2414 23.7592C68.6518 23.3488 69.3242 23.3728 69.7042 23.8114L70.7728 25.0443Z" fill="black"/>
<path d="M63.6127 28.6497C63.4524 28.1687 63.0749 27.7912 62.5938 27.6308C62.1042 27.4676 62.1042 26.775 62.5938 26.6118C63.0749 26.4515 63.4524 26.074 63.6127 25.5929C63.7759 25.1033 64.4685 25.1033 64.6317 25.5929C64.792 26.074 65.1695 26.4515 65.6506 26.6118C66.1402 26.7751 66.1402 27.4676 65.6506 27.6308C65.1695 27.7912 64.792 28.1687 64.6317 28.6497C64.4685 29.1394 63.7759 29.1394 63.6127 28.6497Z" fill="black"/>
<path d="M67.6127 35.6497C67.4524 35.1687 67.0749 34.7912 66.5938 34.6308C66.1042 34.4676 66.1042 33.7751 66.5938 33.6118C67.0749 33.4515 67.4524 33.074 67.6127 32.5929C67.7759 32.1033 68.4685 32.1033 68.6317 32.5929C68.792 33.074 69.1695 33.4515 69.6506 33.6118C70.1402 33.7751 70.1402 34.4676 69.6506 34.6308C69.1695 34.7912 68.792 35.1687 68.6317 35.6497C68.4685 36.1394 67.7759 36.1394 67.6127 35.6497Z" fill="black"/>
</svg>
