<svg width="104" height="64" viewBox="0 0 104 64" fill="none" xmlns="http://www.w3.org/2000/svg">
<path fill-rule="evenodd" clip-rule="evenodd" d="M23.0003 37C23.0003 38.1046 23.8957 39 25.0003 39H35.0003C35.5526 39 36.0003 39.4477 36.0003 40C36.0003 40.5523 35.5526 41 35.0003 41H25.0003C22.7911 41 21.0003 39.2091 21.0003 37V28.0227C20.9999 28.0074 20.9999 27.9921 21.0003 27.9767V27C21.0003 24.7909 22.7911 23 25.0003 23H39.0003C41.2094 23 43.0003 24.7909 43.0003 27V27.9767C43.0006 27.9921 43.0006 28.0074 43.0003 28.0227V36C43.0003 36.5523 42.5525 37 42.0003 37C41.448 37 41.0003 36.5523 41.0003 36V29.477L33.4858 32.4828C32.5322 32.8643 31.4683 32.8643 30.5147 32.4828L23.0003 29.477V37ZM23.0003 27V27.323L31.2575 30.6259C31.7343 30.8166 32.2662 30.8166 32.743 30.6259L41.0003 27.323V27C41.0003 25.8954 40.1048 25 39.0003 25H25.0003C23.8957 25 23.0003 25.8954 23.0003 27Z" fill="black"/>
<path d="M41.4145 40.0001L42.1216 39.293C42.5121 38.9024 42.5121 38.2693 42.1216 37.8787C41.7311 37.4882 41.0979 37.4882 40.7074 37.8787L40.0003 38.5858L39.2932 37.8787C38.9026 37.4882 38.2695 37.4882 37.8789 37.8787C37.4884 38.2693 37.4884 38.9024 37.8789 39.293L38.5861 40.0001L37.8789 40.7072C37.4884 41.0977 37.4884 41.7309 37.8789 42.1214C38.2695 42.5119 38.9026 42.5119 39.2932 42.1214L40.0003 41.4143L40.7074 42.1214C41.0979 42.5119 41.7311 42.5119 42.1216 42.1214C42.5121 41.7309 42.5121 41.0977 42.1216 40.7072L41.4145 40.0001Z" fill="black"/>
<path d="M65 24H79C80.6568 24 81.9999 25.343 82 26.9997C81.8763 26.9997 81.7505 27.0228 81.6286 27.0715L72.7428 30.6259C72.266 30.8166 71.734 30.8166 71.2572 30.6259L62.3714 27.0715C62.2495 27.0228 62.1237 26.9997 62 26.9997C62.0001 25.343 63.3432 24 65 24Z" fill="black"/>
<path d="M62 29.077V37C62 38.6569 63.3431 40 65 40H75.9391C75.3321 38.865 75.5072 37.4218 76.4645 36.4645C77.4217 35.5073 78.8649 35.3322 80 35.9392C80.618 35.6087 81.3274 35.51 82 35.6433V29.077L73.4856 32.4828C72.5319 32.8643 71.4681 32.8643 70.5144 32.4828L62 29.077Z" fill="black"/>
<path d="M81.4142 40.0001L82.1213 39.293C82.5118 38.9024 82.5118 38.2693 82.1213 37.8787C81.7308 37.4882 81.0976 37.4882 80.7071 37.8787L80 38.5858L79.2929 37.8787C78.9024 37.4882 78.2692 37.4882 77.8787 37.8787C77.4882 38.2693 77.4882 38.9024 77.8787 39.293L78.5858 40.0001L77.8787 40.7072C77.4882 41.0977 77.4882 41.7309 77.8787 42.1214C78.2692 42.5119 78.9024 42.5119 79.2929 42.1214L80 41.4143L80.7071 42.1214C81.0976 42.5119 81.7308 42.5119 82.1213 42.1214C82.5118 41.7309 82.5118 41.0977 82.1213 40.7072L81.4142 40.0001Z" fill="black"/>
</svg>
