<svg width="104" height="64" viewBox="0 0 104 64" fill="none" xmlns="http://www.w3.org/2000/svg">
<path fill-rule="evenodd" clip-rule="evenodd" d="M23.0003 37C23.0003 38.1046 23.8957 39 25.0003 39H35.0003C35.5526 39 36.0003 39.4477 36.0003 40C36.0003 40.5523 35.5526 41 35.0003 41H25.0003C22.7911 41 21.0003 39.2091 21.0003 37V28.0227C20.9999 28.0074 20.9999 27.9921 21.0003 27.9767V27C21.0003 24.7909 22.7911 23 25.0003 23H39.0003C41.2094 23 43.0003 24.7909 43.0003 27V27.9767C43.0006 27.9921 43.0006 28.0074 43.0003 28.0227V36C43.0003 36.5523 42.5525 37 42.0003 37C41.448 37 41.0003 36.5523 41.0003 36V29.477L33.4858 32.4828C32.5322 32.8643 31.4683 32.8643 30.5147 32.4828L23.0003 29.477V37ZM23.0003 27V27.323L31.2575 30.6259C31.7343 30.8166 32.2662 30.8166 32.743 30.6259L41.0003 27.323V27C41.0003 25.8954 40.1048 25 39.0003 25H25.0003C23.8957 25 23.0003 25.8954 23.0003 27Z" fill="black"/>
<path d="M41.0003 38C41.0003 37.4477 40.5525 37 40.0003 37C39.448 37 39.0003 37.4477 39.0003 38V39H38.0003C37.448 39 37.0003 39.4477 37.0003 40C37.0003 40.5523 37.448 41 38.0003 41H39.0003V42C39.0003 42.5523 39.448 43 40.0003 43C40.5525 43 41.0003 42.5523 41.0003 42V41H42.0003C42.5525 41 43.0003 40.5523 43.0003 40C43.0003 39.4477 42.5525 39 42.0003 39H41.0003V38Z" fill="black"/>
<path d="M65 24H79C80.6568 24 81.9999 25.343 82 26.9997C81.8763 26.9997 81.7505 27.0228 81.6286 27.0715L72.7428 30.6259C72.266 30.8166 71.734 30.8166 71.2572 30.6259L62.3714 27.0715C62.2495 27.0228 62.1237 26.9997 62 26.9997C62.0001 25.343 63.3432 24 65 24Z" fill="black"/>
<path d="M62 29.077V37C62 38.6569 63.3431 40 65 40H75C75 38.6462 75.8967 37.5019 77.1285 37.1285C77.5019 35.8967 78.6462 35 80 35C80.7684 35 81.4692 35.2889 82 35.7639V29.077L73.4856 32.4828C72.5319 32.8643 71.4681 32.8643 70.5144 32.4828L62 29.077Z" fill="black"/>
<path d="M81 38C81 37.4477 80.5523 37 80 37C79.4477 37 79 37.4477 79 38V39H78C77.4477 39 77 39.4477 77 40C77 40.5523 77.4477 41 78 41H79V42C79 42.5523 79.4477 43 80 43C80.5523 43 81 42.5523 81 42V41H82C82.5523 41 83 40.5523 83 40C83 39.4477 82.5523 39 82 39H81V38Z" fill="black"/>
</svg>
