<svg width="104" height="64" viewBox="0 0 104 64" fill="none" xmlns="http://www.w3.org/2000/svg">
<path fill-rule="evenodd" clip-rule="evenodd" d="M39.0003 41C41.2094 41 43.0003 39.2091 43.0003 37V28.0227C43.0006 28.0074 43.0006 27.9921 43.0003 27.9767V27C43.0003 24.7909 41.2094 23 39.0003 23H25.0003C22.7911 23 21.0003 24.7909 21.0003 27V27.9767C20.9999 27.9921 20.9999 28.0074 21.0003 28.0227V37C21.0003 39.2091 22.7911 41 25.0003 41H39.0003ZM23.0003 37C23.0003 38.1046 23.8957 39 25.0003 39H39.0003C40.1048 39 41.0003 38.1046 41.0003 37V29.477L33.4858 32.4828C32.5322 32.8643 31.4683 32.8643 30.5147 32.4828L23.0003 29.477V37ZM32.743 30.6259L41.0003 27.323V27C41.0003 25.8954 40.1048 25 39.0003 25H25.0003C23.8957 25 23.0003 25.8954 23.0003 27V27.323L31.2575 30.6259C31.7343 30.8166 32.2662 30.8166 32.743 30.6259Z" fill="black"/>
<path d="M65 24H79C80.6568 24 81.9999 25.343 82 26.9997C81.8763 26.9997 81.7505 27.0228 81.6286 27.0715L72.7428 30.6259C72.266 30.8166 71.734 30.8166 71.2572 30.6259L62.3714 27.0715C62.2495 27.0228 62.1237 26.9997 62 26.9997C62.0001 25.343 63.3432 24 65 24Z" fill="black"/>
<path d="M62 29.077V37C62 38.6569 63.3431 40 65 40H79C80.6569 40 82 38.6569 82 37V29.077L73.4856 32.4828C72.5319 32.8643 71.4681 32.8643 70.5144 32.4828L62 29.077Z" fill="black"/>
</svg>
