<svg width="104" height="64" viewBox="0 0 104 64" fill="none" xmlns="http://www.w3.org/2000/svg">
<path fill-rule="evenodd" clip-rule="evenodd" d="M31.9992 25.5001C29.5139 25.5001 27.4992 27.5148 27.4992 30.0001C27.4992 32.4854 29.5139 34.5001 31.9992 34.5001C34.4845 34.5001 36.4992 32.4854 36.4992 30.0001C36.4992 27.5148 34.4845 25.5001 31.9992 25.5001ZM29.4992 30.0001C29.4992 28.6194 30.6185 27.5001 31.9992 27.5001C33.3799 27.5001 34.4992 28.6194 34.4992 30.0001C34.4992 31.3808 33.3799 32.5001 31.9992 32.5001C30.6185 32.5001 29.4992 31.3808 29.4992 30.0001Z" fill="black"/>
<path fill-rule="evenodd" clip-rule="evenodd" d="M27.8084 23.5921C30.3461 21.9003 33.6522 21.9003 36.1899 23.5921C39.6208 25.8794 40.584 30.4951 38.3543 33.9637L34.5227 39.9239C33.3418 41.7608 30.6566 41.7608 29.4756 39.9239L25.6441 33.9637C23.4143 30.4951 24.3775 25.8794 27.8084 23.5921ZM28.9178 25.2562C30.7837 24.0123 33.2146 24.0123 35.0805 25.2562C37.6032 26.938 38.3114 30.3318 36.6719 32.8821L32.8404 38.8424C32.4467 39.4547 31.5516 39.4547 31.158 38.8424L27.3264 32.8821C25.6869 30.3318 26.3952 26.938 28.9178 25.2562Z" fill="black"/>
<path fill-rule="evenodd" clip-rule="evenodd" d="M70.3167 39.3831L66.4851 33.4229C64.5505 30.4135 65.3862 26.4087 68.363 24.4242C70.5648 22.9563 73.4333 22.9563 75.6351 24.4242C78.6119 26.4087 79.4476 30.4135 77.513 33.4229L73.6814 39.3831C72.8942 40.6078 71.104 40.6078 70.3167 39.3831ZM71.9991 33.5001C73.9321 33.5001 75.4991 31.9331 75.4991 30.0001C75.4991 28.0671 73.9321 26.5001 71.9991 26.5001C70.0661 26.5001 68.4991 28.0671 68.4991 30.0001C68.4991 31.9331 70.0661 33.5001 71.9991 33.5001Z" fill="black"/>
</svg>
