<svg width="104" height="64" viewBox="0 0 104 64" fill="none" xmlns="http://www.w3.org/2000/svg">
<path fill-rule="evenodd" clip-rule="evenodd" d="M24.3599 22.2783C23.0327 21.6463 21.5 22.614 21.5 24.084V35.7136C21.5 36.8707 22.1655 37.9247 23.2102 38.4222L27.7701 40.5935C27.9406 40.6748 28.1307 40.706 28.3182 40.6837L35.6311 39.8131L39.6401 41.7221C40.9673 42.3541 42.5 41.3864 42.5 39.9164V28.2868C42.5 27.1297 41.8345 26.0757 40.7898 25.5782L36.2299 23.4069C36.0634 23.3276 35.8782 23.2959 35.6948 23.3153L31.4198 23.7677C31.4099 23.7687 31.4 23.7699 31.3902 23.7712L28.3607 24.1834L24.3599 22.2783ZM40.5 39.9164L36.8 38.1545V25.8935L39.9299 27.384C40.2782 27.5498 40.5 27.9011 40.5 28.2868V39.9164ZM34.8 37.8979V25.4211L31.645 25.755L29.2 26.0876V38.5646L34.8 37.8979ZM23.5 24.084L27.2 25.8459V38.1069L24.0701 36.6165C23.7218 36.4506 23.5 36.0993 23.5 35.7136V24.084Z" fill="black"/>
<path d="M61.7676 22.6009C61.7676 22.4171 61.9592 22.2962 62.1251 22.3752L66.5722 24.4928C66.7463 24.5758 66.8572 24.7514 66.8572 24.9443V38.9109C66.8572 39.2784 66.474 39.5203 66.1422 39.3623L62.4802 37.6184C62.0449 37.4112 61.7676 36.972 61.7676 36.4899V22.6009Z" fill="black"/>
<path d="M68.9163 39.9794C68.6188 40.0149 68.3572 39.7825 68.3572 39.4829V25.2465C68.3572 24.9964 68.542 24.7848 68.7898 24.751L71.5412 24.3767L75.0908 24.0011C75.3861 23.9698 75.6434 24.2013 75.6434 24.4983V38.7346C75.6434 38.9879 75.454 39.2011 75.2025 39.2311L68.9163 39.9794Z" fill="black"/>
<path d="M77.4284 39.5068C77.2543 39.4239 77.1434 39.2482 77.1434 39.0554V25.0888C77.1434 24.7213 77.5265 24.4793 77.8583 24.6374L81.5204 26.3812C81.9557 26.5885 82.233 27.0276 82.233 27.5098V41.3987C82.233 41.5825 82.0414 41.7035 81.8755 41.6245L77.4284 39.5068Z" fill="black"/>
</svg>
