<svg width="104" height="64" viewBox="0 0 104 64" fill="none" xmlns="http://www.w3.org/2000/svg">
<path fill-rule="evenodd" clip-rule="evenodd" d="M26 22C23.7909 22 22 23.7909 22 26V38C22 40.2091 23.7909 42 26 42H38C40.2091 42 42 40.2091 42 38V26C42 23.7909 40.2091 22 38 22H26ZM24 26C24 24.8954 24.8954 24 26 24H38C39.1046 24 40 24.8954 40 26V26.4543L29.5654 33.1689L24 26.1516V26ZM30.8143 34.7435L40 28.8326V38C40 39.1046 39.1046 40 38 40H34.9832L30.8143 34.7435ZM32.4306 40H26C24.8954 40 24 39.1046 24 38V29.3702L32.4306 40Z" fill="black"/>
<path d="M62.625 24.875C62.625 23.6324 63.6324 22.625 64.875 22.625H79.125C80.3676 22.625 81.375 23.6324 81.375 24.875V25.9658L69.1784 33.8142L62.625 25.5512V24.875Z" fill="black"/>
<path d="M70.115 34.9952L81.375 27.7495V39.125C81.375 40.3676 80.3676 41.375 79.125 41.375H75.1749L70.115 34.9952Z" fill="black"/>
<path d="M73.2604 41.375H64.875C63.6324 41.375 62.625 40.3676 62.625 39.125V27.9651L73.2604 41.375Z" fill="black"/>
</svg>
