<svg width="104" height="64" viewBox="0 0 104 64" fill="none" xmlns="http://www.w3.org/2000/svg">
<path fill-rule="evenodd" clip-rule="evenodd" d="M30.8944 27.8292C29.5646 27.1643 28 28.1313 28 29.618V34.382C28 35.8687 29.5646 36.8357 30.8944 36.1708L35.6584 33.7889C37.1325 33.0518 37.1325 30.9482 35.6584 30.2111L30.8944 27.8292ZM30 29.618L34.7639 32L30 34.382V29.618Z" fill="black"/>
<path fill-rule="evenodd" clip-rule="evenodd" d="M25 22.5C22.7909 22.5 21 24.2909 21 26.5V37.5C21 39.7091 22.7909 41.5 25 41.5H39C41.2091 41.5 43 39.7091 43 37.5V26.5C43 24.2909 41.2091 22.5 39 22.5H25ZM23 26.5C23 25.3954 23.8954 24.5 25 24.5H39C40.1046 24.5 41 25.3954 41 26.5V37.5C41 38.6046 40.1046 39.5 39 39.5H25C23.8954 39.5 23 38.6046 23 37.5V26.5Z" fill="black"/>
<path fill-rule="evenodd" clip-rule="evenodd" d="M62 37.5V26.5C62 24.8431 63.3431 23.5 65 23.5H79C80.6569 23.5 82 24.8431 82 26.5V37.5C82 39.1569 80.6569 40.5 79 40.5H65C63.3431 40.5 62 39.1569 62 37.5ZM70.4472 28.7236L75.2111 31.1056C75.9482 31.4741 75.9482 32.5259 75.2111 32.8944L70.4472 35.2764C69.7823 35.6088 69 35.1253 69 34.382V29.618C69 28.8747 69.7823 28.3912 70.4472 28.7236Z" fill="black"/>
</svg>
