<svg width="104" height="64" viewBox="0 0 104 64" fill="none" xmlns="http://www.w3.org/2000/svg">
<path fill-rule="evenodd" clip-rule="evenodd" d="M28.0177 27.823C29.1736 27.4062 30 26.2996 30 25C30 23.3431 28.6569 22 27 22C25.3431 22 24 23.3431 24 25C24 26.3062 24.8348 27.4175 26 27.8293V36.1707C24.8348 36.5825 24 37.6938 24 39C24 40.6569 25.3431 42 27 42C28.6569 42 30 40.6569 30 39C30 37.6938 29.1652 36.5825 28 36.1707V33.4199C28.3022 33.9588 28.6325 34.4944 28.9863 35.0133C29.8681 36.3066 30.919 37.5298 32.0777 38.4396C32.9964 39.1609 34.0345 39.7249 35.1447 39.9231C35.5341 41.1283 36.6652 42 38 42C39.6569 42 41 40.6569 41 39C41 37.3431 39.6569 36 38 36C36.7353 36 35.6534 36.7826 35.2121 37.8899C34.6117 37.7273 33.9734 37.3852 33.3129 36.8666C32.3623 36.1202 31.4444 35.0684 30.6387 33.8867C29.8356 32.7088 29.1668 31.4354 28.7017 30.2749C28.3035 29.2814 28.0795 28.432 28.0177 27.823ZM27 24C27.5523 24 28 24.4477 28 25C28 25.5523 27.5523 26 27 26C26.4477 26 26 25.5523 26 25C26 24.4477 26.4477 24 27 24ZM37 39C37 39.5523 37.4477 40 38 40C38.5523 40 39 39.5523 39 39C39 38.4477 38.5523 38 38 38C37.4477 38 37 38.4477 37 39ZM26 39C26 38.4477 26.4477 38 27 38C27.5523 38 28 38.4477 28 39C28 39.5523 27.5523 40 27 40C26.4477 40 26 39.5523 26 39Z" fill="black"/>
<path d="M64.5 24.5C64.5 25.5328 65.1263 26.4194 66.0199 26.8006C66.0068 26.865 66 26.9317 66 27V36.208C65.117 36.5938 64.5 37.4748 64.5 38.5C64.5 39.8807 65.6193 41 67 41C68.3807 41 69.5 39.8807 69.5 38.5C69.5 37.4748 68.883 36.5938 68 36.208V33.4199C68.3022 33.9588 68.6325 34.4944 68.9863 35.0133C69.8681 36.3066 70.919 37.5298 72.0777 38.4396C73.2286 39.3433 74.567 39.9999 75.9998 40C76.4559 40.6072 77.1821 41 78 41C79.3807 41 80.5 39.8807 80.5 38.5C80.5 37.1193 79.3807 36 78 36C76.8032 36 75.8028 36.841 75.5575 37.9643C74.8587 37.8535 74.1017 37.486 73.3129 36.8666C72.3623 36.1202 71.4444 35.0684 70.6387 33.8867C69.8356 32.7088 69.1668 31.4354 68.7017 30.2749C68.2272 29.091 68 28.1117 68 27.5V27C68 26.9317 67.9932 26.865 67.9801 26.8006C68.8737 26.4194 69.5 25.5328 69.5 24.5C69.5 23.1193 68.3807 22 67 22C65.6193 22 64.5 23.1193 64.5 24.5Z" fill="black"/>
</svg>
