<svg width="104" height="64" viewBox="0 0 104 64" fill="none" xmlns="http://www.w3.org/2000/svg">
<path d="M27 27.5C26.4477 27.5 26 27.9477 26 28.5C26 29.0523 26.4477 29.5 27 29.5H37C37.5523 29.5 38 29.0523 38 28.5C38 27.9477 37.5523 27.5 37 27.5H27Z" fill="black"/>
<path d="M26 33C26 32.4477 26.4477 32 27 32H30C30.5523 32 31 32.4477 31 33C31 33.5523 30.5523 34 30 34H27C26.4477 34 26 33.5523 26 33Z" fill="black"/>
<path d="M35 34.5C34.4477 34.5 34 34.9477 34 35.5C34 36.0523 34.4477 36.5 35 36.5H37C37.5523 36.5 38 36.0523 38 35.5C38 34.9477 37.5523 34.5 37 34.5H35Z" fill="black"/>
<path d="M34 38C34 37.4477 34.4477 37 35 37H39C39.5523 37 40 37.4477 40 38C40 38.5523 39.5523 39 39 39H35C34.4477 39 34 38.5523 34 38Z" fill="black"/>
<path fill-rule="evenodd" clip-rule="evenodd" d="M42 32.7639V26.5C42 24.2909 40.2091 22.5 38 22.5H26C23.7909 22.5 22 24.2909 22 26.5V34.5C22 36.7091 23.7909 38.5 26 38.5H27.9139C28.3817 38.5 28.8348 38.664 29.1942 38.9636L31.3598 40.7682C31.651 41.0109 32.0393 41.06 32.3686 40.9298C32.8382 41.2347 33.3984 41.4118 34 41.4118H34.3715C34.7885 41.4118 35.1951 41.5421 35.5344 41.7846L36.3926 42.398C37.0882 42.8951 38.0229 42.8951 38.7185 42.398L39.7721 41.645C39.9843 41.4933 40.2386 41.4118 40.4994 41.4118C41.8805 41.4118 43 40.2922 43 38.9112V35C43 34.1115 42.6137 33.3132 42 32.7639ZM31 37.865V35C31 33.3431 32.3431 32 34 32H40V26.5C40 25.3954 39.1046 24.5 38 24.5H26C24.8954 24.5 24 25.3954 24 26.5V34.5C24 35.6046 24.8954 36.5 26 36.5H27.9139C28.8496 36.5 29.7557 36.8281 30.4746 37.4271L31 37.865ZM38.6092 40.0178C39.1607 39.6237 39.8216 39.4118 40.4994 39.4118C40.7759 39.4118 41 39.1877 41 38.9112V35C41 34.4477 40.5523 34 40 34H34C33.4477 34 33 34.4477 33 35V38.4118C33 38.9641 33.4477 39.4118 34 39.4118H34.3715C35.2056 39.4118 36.0188 39.6725 36.6973 40.1575L37.5556 40.7709L38.6092 40.0178Z" fill="black"/>
<path fill-rule="evenodd" clip-rule="evenodd" d="M78 23.5H66C64.3431 23.5 63 24.8431 63 26.5V34.5C63 36.1569 64.3431 37.5 66 37.5H68C68.6491 37.5 69.2807 37.7105 69.8 38.1L71.0091 39.0068C71.0031 38.9344 71 38.8612 71 38.7872V34.5083C71 33.123 72.0745 32 73.4 32H80.6C80.7363 32 80.8699 32.0119 81 32.0347V26.5C81 24.8431 79.6569 23.5 78 23.5ZM66 28.5C66 27.9477 66.4477 27.5 67 27.5H77C77.5523 27.5 78 27.9477 78 28.5C78 29.0523 77.5523 29.5 77 29.5H67C66.4477 29.5 66 29.0523 66 28.5ZM67 32C66.4477 32 66 32.4477 66 33C66 33.5523 66.4477 34 67 34H70C70.5523 34 71 33.5523 71 33C71 32.4477 70.5523 32 70 32H67Z" fill="black"/>
<path fill-rule="evenodd" clip-rule="evenodd" d="M72 35C72 33.8954 72.8954 33 74 33H80C81.1046 33 82 33.8954 82 35V38.9112C82 39.7399 81.3282 40.4118 80.4994 40.4118C80.0301 40.4118 79.5725 40.5585 79.1907 40.8314L78.137 41.5844C77.7892 41.833 77.3219 41.833 76.9741 41.5844L76.1159 40.9711C75.6069 40.6073 74.997 40.4118 74.3715 40.4118H74C72.8954 40.4118 72 39.5163 72 38.4118V35ZM75 34.5C74.4477 34.5 74 34.9477 74 35.5C74 36.0523 74.4477 36.5 75 36.5H77C77.5523 36.5 78 36.0523 78 35.5C78 34.9477 77.5523 34.5 77 34.5H75ZM74 38C74 37.4477 74.4477 37 75 37H79C79.5523 37 80 37.4477 80 38C80 38.5523 79.5523 39 79 39H75C74.4477 39 74 38.5523 74 38Z" fill="black"/>
</svg>
