<svg width="104" height="64" viewBox="0 0 104 64" fill="none" xmlns="http://www.w3.org/2000/svg">
<path d="M26 30C26 29.4477 26.4477 29 27 29H32C32.5523 29 33 29.4477 33 30C33 30.5523 32.5523 31 32 31H27C26.4477 31 26 30.5523 26 30Z" fill="black"/>
<path d="M27 33C26.4477 33 26 33.4477 26 34C26 34.5523 26.4477 35 27 35H36C36.5523 35 37 34.5523 37 34C37 33.4477 36.5523 33 36 33H27Z" fill="black"/>
<path fill-rule="evenodd" clip-rule="evenodd" d="M21 36C21 38.2091 22.7909 40 25 40H37C39.2091 40 41 38.2091 41 36V29.2967C41 28.9486 41.0908 28.6066 41.2635 28.3044L42.0133 26.9923C42.7752 25.659 41.8125 24 40.2768 24H25C22.7909 24 21 25.7909 21 28V36ZM25 38C23.8954 38 23 37.1046 23 36V28C23 26.8954 23.8954 26 25 26H40.2768L39.527 27.3121C39.1817 27.9165 39 28.6006 39 29.2967V36C39 37.1046 38.1046 38 37 38H25Z" fill="black"/>
<path fill-rule="evenodd" clip-rule="evenodd" d="M80.2768 25H65C63.3431 25 62 26.3431 62 28V36C62 37.6569 63.3431 39 65 39H77C78.6569 39 80 37.6569 80 36V29.2967C80 28.7746 80.1362 28.2616 80.3953 27.8083L81.1451 26.4961C81.526 25.8295 81.0446 25 80.2768 25ZM66 30C66 29.4477 66.4477 29 67 29H72C72.5523 29 73 29.4477 73 30C73 30.5523 72.5523 31 72 31H67C66.4477 31 66 30.5523 66 30ZM67 33C66.4477 33 66 33.4477 66 34C66 34.5523 66.4477 35 67 35H76C76.5523 35 77 34.5523 77 34C77 33.4477 76.5523 33 76 33H67Z" fill="black"/>
</svg>
