<svg width="104" height="64" viewBox="0 0 104 64" fill="none" xmlns="http://www.w3.org/2000/svg">
<path d="M26 28.5C26 27.9477 26.4477 27.5 27 27.5H32C32.5523 27.5 33 27.9477 33 28.5C33 29.0523 32.5523 29.5 32 29.5H27C26.4477 29.5 26 29.0523 26 28.5Z" fill="black"/>
<path d="M27 31.5C26.4477 31.5 26 31.9477 26 32.5C26 33.0523 26.4477 33.5 27 33.5H36C36.5523 33.5 37 33.0523 37 32.5C37 31.9477 36.5523 31.5 36 31.5H27Z" fill="black"/>
<path fill-rule="evenodd" clip-rule="evenodd" d="M35.4 39.95L36.8 38.9C37.1462 38.6404 37.5673 38.5 38 38.5C40.2091 38.5 42 36.7091 42 34.5V26.5C42 24.2909 40.2091 22.5 38 22.5H26C23.7909 22.5 22 24.2909 22 26.5V34.5C22 36.7091 23.7909 38.5 26 38.5H28C28.4327 38.5 28.8538 38.6404 29.2 38.9L30.6 39.95C32.0222 41.0167 33.9778 41.0167 35.4 39.95ZM38 36.5C37.1345 36.5 36.2924 36.7807 35.6 37.3L34.2 38.35C33.4889 38.8833 32.5111 38.8833 31.8 38.35L30.4 37.3C29.7076 36.7807 28.8655 36.5 28 36.5H26C24.8954 36.5 24 35.6046 24 34.5V26.5C24 25.3954 24.8954 24.5 26 24.5H38C39.1046 24.5 40 25.3954 40 26.5V34.5C40 35.6046 39.1046 36.5 38 36.5Z" fill="black"/>
<path fill-rule="evenodd" clip-rule="evenodd" d="M78 23.5H66C64.3431 23.5 63 24.8431 63 26.5V34.5C63 36.1569 64.3431 37.5 66 37.5H68C68.6491 37.5 69.2807 37.7105 69.8 38.1L71.2 39.15C72.2667 39.95 73.7333 39.95 74.8 39.15L76.2 38.1C76.7193 37.7105 77.3509 37.5 78 37.5C79.6569 37.5 81 36.1569 81 34.5V26.5C81 24.8431 79.6569 23.5 78 23.5ZM66 28.5C66 27.9477 66.4477 27.5 67 27.5H72C72.5523 27.5 73 27.9477 73 28.5C73 29.0523 72.5523 29.5 72 29.5H67C66.4477 29.5 66 29.0523 66 28.5ZM67 31.5C66.4477 31.5 66 31.9477 66 32.5C66 33.0523 66.4477 33.5 67 33.5H76C76.5523 33.5 77 33.0523 77 32.5C77 31.9477 76.5523 31.5 76 31.5H67Z" fill="black"/>
</svg>
