<svg width="104" height="64" viewBox="0 0 104 64" fill="none" xmlns="http://www.w3.org/2000/svg">
<path d="M30.0003 28C30.5526 28 31.0003 28.4477 31.0003 29V33C31.0003 33.5523 30.5526 34 30.0003 34C29.448 34 29.0003 33.5523 29.0003 33V29C29.0003 28.4477 29.448 28 30.0003 28Z" fill="black"/>
<path d="M35.0003 29C35.0003 28.4477 34.5526 28 34.0003 28C33.448 28 33.0003 28.4477 33.0003 29V33C33.0003 33.5523 33.448 34 34.0003 34C34.5526 34 35.0003 33.5523 35.0003 33V29Z" fill="black"/>
<path fill-rule="evenodd" clip-rule="evenodd" d="M32.0003 22C28.1343 22 25.0003 25.134 25.0003 29V33C25.0003 36.866 28.1343 40 32.0003 40C35.8663 40 39.0003 36.866 39.0003 33V29C39.0003 25.134 35.8663 22 32.0003 22ZM27.0003 29C27.0003 26.2386 29.2388 24 32.0003 24C34.7617 24 37.0003 26.2386 37.0003 29V33C37.0003 35.7614 34.7617 38 32.0003 38C29.2388 38 27.0003 35.7614 27.0003 33V29Z" fill="black"/>
<path d="M24.949 35.6838C24.7743 35.1598 24.208 34.8767 23.684 35.0513C23.1601 35.226 22.8769 35.7923 23.0516 36.3162C25.9182 44.916 38.0824 44.916 40.949 36.3162C41.1236 35.7923 40.8404 35.226 40.3165 35.0513C39.7926 34.8767 39.2262 35.1598 39.0516 35.6838C36.7928 42.4602 27.2078 42.4602 24.949 35.6838Z" fill="black"/>
<path fill-rule="evenodd" clip-rule="evenodd" d="M72.0003 23C68.6866 23 66.0003 25.6863 66.0003 29V33C66.0003 36.3137 68.6866 39 72.0003 39C75.314 39 78.0003 36.3137 78.0003 33V29C78.0003 25.6863 75.314 23 72.0003 23ZM71.0003 29C71.0003 28.4477 70.5526 28 70.0003 28C69.448 28 69.0003 28.4477 69.0003 29V33C69.0003 33.5523 69.448 34 70.0003 34C70.5526 34 71.0003 33.5523 71.0003 33V29ZM74.0003 28C74.5526 28 75.0003 28.4477 75.0003 29V33C75.0003 33.5523 74.5526 34 74.0003 34C73.448 34 73.0003 33.5523 73.0003 33V29C73.0003 28.4477 73.448 28 74.0003 28Z" fill="black"/>
<path d="M64.949 35.6838C64.7743 35.1598 64.208 34.8767 63.684 35.0513C63.1601 35.226 62.8769 35.7923 63.0516 36.3162C65.9182 44.916 78.0824 44.916 80.949 36.3162C81.1236 35.7923 80.8404 35.226 80.3165 35.0513C79.7926 34.8767 79.2262 35.1598 79.0516 35.6838C76.7928 42.4602 67.2078 42.4602 64.949 35.6838Z" fill="black"/>
</svg>
