<svg width="104" height="64" viewBox="0 0 104 64" fill="none" xmlns="http://www.w3.org/2000/svg">
<path d="M41.2929 21.2929C41.6834 20.9024 42.3166 20.9024 42.7071 21.2929C43.0976 21.6834 43.0976 22.3166 42.7071 22.7071L22.7071 42.7071C22.3166 43.0976 21.6834 43.0976 21.2929 42.7071C20.9024 42.3166 20.9024 41.6834 21.2929 41.2929L41.2929 21.2929Z" fill="black"/>
<path d="M25.0919 36.0797C25.0414 35.9504 24.9936 35.8184 24.9487 35.6838C24.7741 35.1599 24.2077 34.8767 23.6838 35.0513C23.1599 35.226 22.8767 35.7923 23.0513 36.3163C23.2014 36.7665 23.377 37.1932 23.5754 37.5963L25.0919 36.0797Z" fill="black"/>
<path d="M26.0896 40.7389C30.8138 44.501 38.7119 43.0268 40.9487 36.3163C41.1234 35.7923 40.8402 35.226 40.3163 35.0513C39.7923 34.8767 39.226 35.1599 39.0513 35.6838C37.3167 40.8876 31.2617 42.0953 27.5218 39.3067L26.0896 40.7389Z" fill="black"/>
<path d="M32 22C33.9766 22 35.7619 22.8193 37.0348 24.1368L35.6203 25.5513C34.7096 24.5956 33.4244 24 32 24C29.2386 24 27 26.2386 27 29V33C27 33.3634 27.0388 33.7178 27.1124 34.0592L25.5198 35.6518C25.1847 34.8339 25 33.9385 25 33V29C25 25.134 28.134 22 32 22Z" fill="black"/>
<path d="M32 38C31.0886 38 30.2341 37.7561 29.4983 37.3301L28.0491 38.7793C29.1736 39.5494 30.5342 40 32 40C35.866 40 39 36.866 39 33V29C39 28.6301 38.9713 28.2668 38.916 27.9124L37 29.8284V33C37 35.7614 34.7614 38 32 38Z" fill="black"/>
<path d="M82.7071 21.2929C83.0976 21.6834 83.0976 22.3166 82.7071 22.7071L62.7071 42.7071C62.3166 43.0976 61.6834 43.0976 61.2929 42.7071C60.9024 42.3166 60.9024 41.6834 61.2929 41.2929L81.2929 21.2929C81.6834 20.9024 82.3166 20.9024 82.7071 21.2929Z" fill="black"/>
<path d="M65.0919 36.0797C65.0414 35.9504 64.9936 35.8184 64.9487 35.6838C64.7741 35.1599 64.2077 34.8767 63.6838 35.0513C63.1599 35.226 62.8767 35.7923 63.0513 36.3163C63.2014 36.7665 63.377 37.1932 63.5754 37.5963L65.0919 36.0797Z" fill="black"/>
<path d="M66.0896 40.7389C70.8138 44.501 78.7119 43.0268 80.9487 36.3163C81.1234 35.7923 80.8402 35.226 80.3163 35.0513C79.7923 34.8767 79.226 35.1599 79.0513 35.6838C77.3167 40.8876 71.2617 42.0953 67.5218 39.3067L66.0896 40.7389Z" fill="black"/>
<path d="M72 23C73.7005 23 75.2358 23.7074 76.3276 24.844L66.2982 34.8733C66.1047 34.2839 66 33.6542 66 33V29C66 25.6863 68.6863 23 72 23Z" fill="black"/>
<path d="M72 39C70.8111 39 69.703 38.6542 68.7707 38.0577L77.9977 28.8308C77.9992 28.887 78 28.9434 78 29V33C78 36.3137 75.3137 39 72 39Z" fill="black"/>
</svg>
