<svg width="104" height="64" viewBox="0 0 104 64" fill="none" xmlns="http://www.w3.org/2000/svg">
<path fill-rule="evenodd" clip-rule="evenodd" d="M35 21.5C37.2091 21.5 39 23.2909 39 25.5V38.5C39 40.7091 37.2091 42.5 35 42.5H29C26.7909 42.5 25 40.7091 25 38.5V25.5C25 23.2909 26.7909 21.5 29 21.5H35ZM27 25.5C27 24.3954 27.8954 23.5 29 23.5H29.5854C29.7913 24.0826 30.3469 24.5 31 24.5H33C33.6531 24.5 34.2087 24.0826 34.4146 23.5H35C36.1046 23.5 37 24.3954 37 25.5V38.5C37 39.6046 36.1046 40.5 35 40.5H29C27.8954 40.5 27 39.6046 27 38.5V25.5Z" fill="black"/>
<path d="M69.52 22.5H69C67.3431 22.5 66 23.8431 66 25.5V38.5C66 40.1569 67.3431 41.5 69 41.5H75C76.6569 41.5 78 40.1569 78 38.5V25.5C78 23.8431 76.6569 22.5 75 22.5H74.48C74.3873 22.9564 73.9838 23.3 73.5 23.3H70.5C70.0162 23.3 69.6127 22.9564 69.52 22.5Z" fill="black"/>
</svg>
