<svg width="104" height="64" viewBox="0 0 104 64" fill="none" xmlns="http://www.w3.org/2000/svg">
<path fill-rule="evenodd" clip-rule="evenodd" d="M32.4689 26.1102C33.9411 26.1102 35.1346 27.3037 35.1346 28.7759C35.1346 30.2481 33.9411 31.4415 32.4689 31.4415C30.9967 31.4415 29.8033 30.2481 29.8033 28.7759C29.8033 27.3037 30.9967 26.1102 32.4689 26.1102ZM33.1346 28.7759C33.1346 28.4082 32.8366 28.1102 32.4689 28.1102C32.1013 28.1102 31.8033 28.4082 31.8033 28.7759C31.8033 29.1435 32.1013 29.4415 32.4689 29.4415C32.8366 29.4415 33.1346 29.1435 33.1346 28.7759Z" fill="black"/>
<path fill-rule="evenodd" clip-rule="evenodd" d="M23.1406 25.946C23.1406 23.7369 24.9315 21.946 27.1406 21.946H37.7972C40.0064 21.946 41.7972 23.7369 41.7972 25.946V31.6057C41.7972 32.1507 41.6883 32.6702 41.4909 33.1436L41.2107 35.2035C41.0998 36.0186 40.7538 36.7364 40.254 37.304C40.2408 37.3454 40.2247 37.3863 40.2056 37.4267L39.258 39.4353C38.1919 41.6951 35.3378 42.4351 33.3079 40.9781L24.7181 34.8124C24.6458 34.7605 24.5824 34.7007 24.5284 34.635C23.6785 33.9015 23.1406 32.8164 23.1406 31.6057V25.946ZM37.7972 35.6057C38.2586 35.6057 38.7017 35.5276 39.1141 35.3839C38.751 36.3303 37.7067 36.8826 36.6856 36.5839L33.3419 35.6057H37.7972ZM25.8404 24.4263C25.4121 24.7931 25.1406 25.3379 25.1406 25.946V31.6057C25.1406 32.2138 25.4121 32.7586 25.8404 33.1254C25.714 32.958 25.6391 32.7495 25.6391 32.5236C25.6391 31.9713 26.0868 31.5236 26.6391 31.5236H28.3048C28.8571 31.5236 29.3048 31.9713 29.3048 32.5236C29.3048 33.0759 28.8571 33.5236 28.3048 33.5236H26.6391C26.6131 33.5236 26.5874 33.5226 26.5619 33.5207C26.7451 33.576 26.9394 33.6057 27.1406 33.6057H37.7972C37.9985 33.6057 38.1928 33.576 38.376 33.5207C38.3505 33.5226 38.3247 33.5236 38.2988 33.5236H36.6331C36.0808 33.5236 35.6331 33.0759 35.6331 32.5236C35.6331 31.9713 36.0808 31.5236 36.6331 31.5236H38.2988C38.851 31.5236 39.2988 31.9713 39.2988 32.5236C39.2988 32.7495 39.2238 32.958 39.0975 33.1254C39.5258 32.7586 39.7972 32.2138 39.7972 31.6057V25.946C39.7972 25.3379 39.5258 24.7931 39.0975 24.4263C39.2238 24.5938 39.2988 24.8022 39.2988 25.0281C39.2988 25.5804 38.851 26.0281 38.2988 26.0281H36.6331C36.0808 26.0281 35.6331 25.5804 35.6331 25.0281C35.6331 24.4758 36.0808 24.0281 36.6331 24.0281H38.2988C38.3247 24.0281 38.3505 24.0291 38.376 24.0311C38.1928 23.9758 37.9985 23.946 37.7972 23.946H27.1406C26.9394 23.946 26.7451 23.9758 26.5619 24.0311C26.5874 24.0291 26.6131 24.0281 26.6391 24.0281H28.3048C28.8571 24.0281 29.3048 24.4758 29.3048 25.0281C29.3048 25.5804 28.8571 26.0281 28.3048 26.0281H26.6391C26.0868 26.0281 25.6391 25.5804 25.6391 25.0281C25.6391 24.8022 25.714 24.5938 25.8404 24.4263ZM37.4088 38.6629C36.9873 38.6797 36.5546 38.6294 36.1241 38.5034L31.3405 37.104L34.4742 39.3533C35.4644 40.0641 36.847 39.7291 37.4088 38.6629Z" fill="black"/>
<path fill-rule="evenodd" clip-rule="evenodd" d="M72.4689 26.1102C73.9411 26.1102 75.1346 27.3037 75.1346 28.7759C75.1346 30.2481 73.9411 31.4415 72.4689 31.4415C70.9967 31.4415 69.8033 30.2481 69.8033 28.7759C69.8033 27.3037 70.9967 26.1102 72.4689 26.1102ZM73.1346 28.7759C73.1346 28.4082 72.8366 28.1102 72.4689 28.1102C72.1013 28.1102 71.8033 28.4082 71.8033 28.7759C71.8033 29.1435 72.1013 29.4415 72.4689 29.4415C72.8366 29.4415 73.1346 29.1435 73.1346 28.7759Z" fill="black"/>
<path fill-rule="evenodd" clip-rule="evenodd" d="M63.1406 25.946C63.1406 23.7369 64.9315 21.946 67.1406 21.946H77.7972C80.0064 21.946 81.7972 23.7369 81.7972 25.946V31.6057C81.7972 32.1507 81.6883 32.6702 81.4909 33.1436L81.2107 35.2035C81.0998 36.0186 80.7538 36.7364 80.254 37.304C80.2408 37.3454 80.2247 37.3863 80.2056 37.4267L79.258 39.4353C78.1919 41.6951 75.3378 42.4351 73.3079 40.9781L64.7181 34.8124C64.6458 34.7605 64.5824 34.7007 64.5284 34.635C63.6785 33.9015 63.1406 32.8164 63.1406 31.6057V25.946ZM77.7972 35.6057C78.2586 35.6057 78.7017 35.5276 79.1141 35.3839C78.751 36.3303 77.7067 36.8826 76.6856 36.5839L73.3419 35.6057H77.7972ZM65.8404 24.4263C65.4121 24.7931 65.1406 25.3379 65.1406 25.946V31.6057C65.1406 32.2138 65.4121 32.7586 65.8404 33.1254C65.714 32.958 65.6391 32.7495 65.6391 32.5236C65.6391 31.9713 66.0868 31.5236 66.6391 31.5236H68.3048C68.8571 31.5236 69.3048 31.9713 69.3048 32.5236C69.3048 33.0759 68.8571 33.5236 68.3048 33.5236H66.6391C66.6131 33.5236 66.5874 33.5226 66.5619 33.5207C66.7451 33.576 66.9394 33.6057 67.1406 33.6057H77.7972C77.9985 33.6057 78.1928 33.576 78.376 33.5207C78.3505 33.5226 78.3247 33.5236 78.2988 33.5236H76.6331C76.0808 33.5236 75.6331 33.0759 75.6331 32.5236C75.6331 31.9713 76.0808 31.5236 76.6331 31.5236H78.2988C78.851 31.5236 79.2988 31.9713 79.2988 32.5236C79.2988 32.7495 79.2238 32.958 79.0975 33.1254C79.5258 32.7586 79.7972 32.2138 79.7972 31.6057V25.946C79.7972 25.3379 79.5258 24.7931 79.0975 24.4263C79.2238 24.5938 79.2988 24.8022 79.2988 25.0281C79.2988 25.5804 78.851 26.0281 78.2988 26.0281H76.6331C76.0808 26.0281 75.6331 25.5804 75.6331 25.0281C75.6331 24.4758 76.0808 24.0281 76.6331 24.0281H78.2988C78.3247 24.0281 78.3505 24.0291 78.376 24.0311C78.1928 23.9758 77.9985 23.946 77.7972 23.946H67.1406C66.9394 23.946 66.7451 23.9758 66.5619 24.0311C66.5874 24.0291 66.6131 24.0281 66.6391 24.0281H68.3048C68.8571 24.0281 69.3048 24.4758 69.3048 25.0281C69.3048 25.5804 68.8571 26.0281 68.3048 26.0281H66.6391C66.0868 26.0281 65.6391 25.5804 65.6391 25.0281C65.6391 24.8022 65.714 24.5938 65.8404 24.4263ZM77.4088 38.6629C76.9873 38.6797 76.5546 38.6294 76.1241 38.5034L71.3405 37.104L74.4742 39.3533C75.4644 40.0641 76.847 39.7291 77.4088 38.6629Z" fill="black"/>
</svg>
