<svg width="104" height="64" viewBox="0 0 104 64" fill="none" xmlns="http://www.w3.org/2000/svg">
<path d="M25 26.5C24.4477 26.5 24 26.9477 24 27.5C24 28.0523 24.4477 28.5 25 28.5H27C27.5523 28.5 28 28.0523 28 27.5C28 26.9477 27.5523 26.5 27 26.5H25Z" fill="black"/>
<path d="M36 27.5C36 26.9477 36.4477 26.5 37 26.5H39C39.5523 26.5 40 26.9477 40 27.5C40 28.0523 39.5523 28.5 39 28.5H37C36.4477 28.5 36 28.0523 36 27.5Z" fill="black"/>
<path d="M25 35.5C24.4477 35.5 24 35.9477 24 36.5C24 37.0523 24.4477 37.5 25 37.5H27C27.5523 37.5 28 37.0523 28 36.5C28 35.9477 27.5523 35.5 27 35.5H25Z" fill="black"/>
<path d="M36 36.5C36 35.9477 36.4477 35.5 37 35.5H39C39.5523 35.5 40 35.9477 40 36.5C40 37.0523 39.5523 37.5 39 37.5H37C36.4477 37.5 36 37.0523 36 36.5Z" fill="black"/>
<path fill-rule="evenodd" clip-rule="evenodd" d="M32 29C33.6569 29 35 30.3431 35 32C35 33.6569 33.6569 35 32 35C30.3431 35 29 33.6569 29 32C29 30.3431 30.3431 29 32 29ZM33 32C33 31.4477 32.5523 31 32 31C31.4477 31 31 31.4477 31 32C31 32.5523 31.4477 33 32 33C32.5523 33 33 32.5523 33 32Z" fill="black"/>
<path fill-rule="evenodd" clip-rule="evenodd" d="M25 24C22.7909 24 21 25.7909 21 28V36C21 38.2091 22.7909 40 25 40H39C41.2091 40 43 38.2091 43 36V28C43 25.7909 41.2091 24 39 24H25ZM23 28C23 26.8954 23.8954 26 25 26H39C40.1046 26 41 26.8954 41 28V36C41 37.1046 40.1046 38 39 38H25C23.8954 38 23 37.1046 23 36V28Z" fill="black"/>
<path d="M73 32C73 31.4477 72.5523 31 72 31C71.4477 31 71 31.4477 71 32C71 32.5523 71.4477 33 72 33C72.5523 33 73 32.5523 73 32Z" fill="black"/>
<path fill-rule="evenodd" clip-rule="evenodd" d="M65 25H79C80.6569 25 82 26.3431 82 28V36C82 37.6569 80.6569 39 79 39H65C63.3431 39 62 37.6569 62 36V28C62 26.3431 63.3431 25 65 25ZM65 26.5C64.4477 26.5 64 26.9477 64 27.5C64 28.0523 64.4477 28.5 65 28.5H67C67.5523 28.5 68 28.0523 68 27.5C68 26.9477 67.5523 26.5 67 26.5H65ZM76 27.5C76 26.9477 76.4477 26.5 77 26.5H79C79.5523 26.5 80 26.9477 80 27.5C80 28.0523 79.5523 28.5 79 28.5H77C76.4477 28.5 76 28.0523 76 27.5ZM65 35.5C64.4477 35.5 64 35.9477 64 36.5C64 37.0523 64.4477 37.5 65 37.5H67C67.5523 37.5 68 37.0523 68 36.5C68 35.9477 67.5523 35.5 67 35.5H65ZM76 36.5C76 35.9477 76.4477 35.5 77 35.5H79C79.5523 35.5 80 35.9477 80 36.5C80 37.0523 79.5523 37.5 79 37.5H77C76.4477 37.5 76 37.0523 76 36.5ZM72 29C73.6569 29 75 30.3431 75 32C75 33.6569 73.6569 35 72 35C70.3431 35 69 33.6569 69 32C69 30.3431 70.3431 29 72 29Z" fill="black"/>
</svg>
