<svg width="104" height="64" viewBox="0 0 104 64" fill="none" xmlns="http://www.w3.org/2000/svg">
<path d="M25.0911 26.4166C24.5409 26.3685 24.0558 26.7755 24.0077 27.3256C23.9596 27.8758 24.3666 28.3609 24.9168 28.409L26.9091 28.5833C27.4593 28.6314 27.9444 28.2244 27.9925 27.6743C28.0406 27.1241 27.6336 26.639 27.0835 26.5909L25.0911 26.4166Z" fill="black"/>
<path d="M36.0077 28.3256C36.0558 27.7755 36.5409 27.3685 37.0911 27.4166L39.0835 27.5909C39.6336 27.639 40.0406 28.1241 39.9925 28.6743C39.9444 29.2244 39.4593 29.6314 38.9091 29.5833L36.9168 29.409C36.3666 29.3609 35.9596 28.8758 36.0077 28.3256Z" fill="black"/>
<path d="M25.0911 35.0038C24.5409 34.9556 24.0558 35.3626 24.0077 35.9128C23.9596 36.463 24.3666 36.948 24.9168 36.9962L26.9091 37.1705C27.4593 37.2186 27.9444 36.8116 27.9925 36.2614C28.0406 35.7112 27.6336 35.2262 27.0835 35.1781L25.0911 35.0038Z" fill="black"/>
<path d="M36.0077 37.3256C36.0558 36.7755 36.5409 36.3685 37.0911 36.4166L39.0835 36.5909C39.6336 36.639 40.0406 37.1241 39.9925 37.6743C39.9444 38.2244 39.4593 38.6314 38.9091 38.5833L36.9168 38.409C36.3666 38.3609 35.9596 37.8758 36.0077 37.3256Z" fill="black"/>
<path fill-rule="evenodd" clip-rule="evenodd" d="M32 29C33.6569 29 35 30.3431 35 32C35 33.6568 33.6569 35 32 35C30.3431 35 29 33.6568 29 32C29 30.3431 30.3431 29 32 29ZM33 32C33 31.4477 32.5523 31 32 31C31.4477 31 31 31.4477 31 32C31 32.5522 31.4477 33 32 33C32.5523 33 33 32.5522 33 32Z" fill="black"/>
<path fill-rule="evenodd" clip-rule="evenodd" d="M25.2443 23.2416C22.9311 23.043 21 24.8758 21 27.1686V35.1596C21 37.2848 22.655 39.0305 24.7482 39.2066C25.6063 39.2788 26.6588 39.3733 27.9024 39.4952C28.1254 39.517 28.621 39.6182 29.3377 39.7839C29.8089 39.8929 30.3392 40.0209 30.8964 40.1554C31.1591 40.2188 31.4286 40.2838 31.6998 40.3488C32.5391 40.5498 33.3972 40.7506 34.1357 40.9017C34.8428 41.0464 35.5356 41.1667 35.9958 41.1686C37.1394 41.1735 38.2579 41.1519 39.2151 41.1227C41.3562 41.0573 43 39.2885 43 37.1811V29.1928C43 26.8803 41.0564 25.0728 38.7836 25.1343C37.931 25.1573 36.9751 25.1728 36.0042 25.1686C35.7734 25.1677 35.2712 25.0926 34.5366 24.9423C33.8335 24.7984 33.0034 24.6045 32.1657 24.4038C31.9033 24.341 31.6395 24.2773 31.3793 24.2145L31.3782 24.2142C30.8155 24.0784 30.269 23.9465 29.7883 23.8353C29.1081 23.678 28.4759 23.5418 28.0976 23.5047C26.9986 23.397 26.0468 23.3104 25.2443 23.2416ZM23 27.1686C23 26.0188 23.9566 25.1384 25.0733 25.2342C25.8678 25.3024 26.8116 25.3882 27.9024 25.4952C28.1254 25.517 28.621 25.6182 29.3377 25.7839C29.8089 25.8929 30.3394 26.0209 30.8967 26.1554C31.1596 26.2189 31.4284 26.2838 31.6998 26.3488C32.5391 26.5498 33.3972 26.7506 34.1357 26.9017C34.8428 27.0464 35.5356 27.1667 35.9958 27.1686C36.9924 27.1728 37.9697 27.157 38.8377 27.1335C40.0241 27.1015 41 28.0447 41 29.1928V37.1811C41 38.2426 40.1803 39.0923 39.1541 39.1236C38.2131 39.1523 37.1187 39.1734 36.0042 39.1686C35.7734 39.1677 35.2712 39.0926 34.5366 38.9423C33.8335 38.7984 33.0034 38.6045 32.1657 38.4038C31.903 38.3409 31.639 38.2772 31.3784 38.2143C30.8156 38.0784 30.269 37.9465 29.7883 37.8353C29.1081 37.678 28.4759 37.5418 28.0976 37.5047C26.8447 37.3819 25.783 37.2866 24.9159 37.2136C23.8341 37.1226 23 36.2208 23 35.1596V27.1686Z" fill="black"/>
<path d="M73 31.9999C73 31.4477 72.5523 30.9999 72 30.9999C71.4477 30.9999 71 31.4477 71 31.9999C71 32.5522 71.4477 32.9999 72 32.9999C72.5523 32.9999 73 32.5522 73 31.9999Z" fill="black"/>
<path fill-rule="evenodd" clip-rule="evenodd" d="M82 29.1927V37.1811C82 38.7655 80.7683 40.0748 79.1846 40.1231C78.2355 40.1521 77.1291 40.1734 76 40.1686C75.1991 40.1652 73.0429 39.6448 71.1375 39.1848C69.7556 38.8512 68.5055 38.5495 68 38.4999C66.7518 38.3776 65.6946 38.2827 64.8321 38.2101C63.2445 38.0765 62 36.7528 62 35.1596V27.1686C62 25.4473 63.4439 24.0907 65.1588 24.2379C65.9573 24.3064 66.9051 24.3926 68 24.4999C68.5055 24.5495 69.7556 24.8512 71.1375 25.1848C73.0429 25.6448 75.1991 26.1652 76 26.1686C76.9837 26.1728 77.9503 26.1571 78.8106 26.1339C80.5403 26.0871 82 27.4625 82 29.1927ZM65.0911 26.4166C64.5409 26.3685 64.0558 26.7754 64.0077 27.3256C63.9596 27.8758 64.3666 28.3608 64.9168 28.409L66.9091 28.5833C67.4593 28.6314 67.9444 28.2244 67.9925 27.6743C68.0406 27.1241 67.6336 26.639 67.0835 26.5909L65.0911 26.4166ZM76.0077 28.3256C76.0558 27.7754 76.5409 27.3685 77.0911 27.4166L79.0835 27.5909C79.6336 27.639 80.0406 28.1241 79.9925 28.6743C79.9444 29.2244 79.4593 29.6314 78.9091 29.5833L76.9168 29.409C76.3666 29.3608 75.9596 28.8758 76.0077 28.3256ZM65.0911 35.0037C64.5409 34.9556 64.0558 35.3626 64.0077 35.9128C63.9596 36.463 64.3666 36.948 64.9168 36.9961L66.9091 37.1704C67.4593 37.2186 67.9444 36.8116 67.9925 36.2614C68.0406 35.7112 67.6336 35.2262 67.0835 35.1781L65.0911 35.0037ZM76.0077 37.3256C76.0558 36.7754 76.5409 36.3685 77.0911 36.4166L79.0835 36.5909C79.6336 36.639 80.0406 37.1241 79.9925 37.6743C79.9444 38.2244 79.4593 38.6314 78.9091 38.5833L76.9168 38.409C76.3666 38.3608 75.9596 37.8758 76.0077 37.3256ZM72 28.9999C73.6569 28.9999 75 30.3431 75 31.9999C75 33.6568 73.6569 34.9999 72 34.9999C70.3431 34.9999 69 33.6568 69 31.9999C69 30.3431 70.3431 28.9999 72 28.9999Z" fill="black"/>
</svg>
