<svg width="104" height="64" viewBox="0 0 104 64" fill="none" xmlns="http://www.w3.org/2000/svg">
<path fill-rule="evenodd" clip-rule="evenodd" d="M21 32C21 25.9249 25.9249 21 32 21C32.9641 21 33.9006 21.1243 34.7938 21.3582C35.1643 21.4552 35.4639 21.6925 35.6392 22.0151C35.8034 22.3171 35.8303 22.638 35.7912 22.9048C35.7168 23.4124 35.3493 23.9955 34.6608 24.1599C32.025 24.7891 30 27.1946 30 30C30 33.3137 32.6863 36 36 36C37.4752 36 38.8237 35.4689 39.8688 34.5863C40.4096 34.1296 41.0977 34.1791 41.5522 34.4255C41.7904 34.5547 42.0309 34.7696 42.1734 35.0829C42.3252 35.4169 42.3336 35.7976 42.19 36.15C40.5528 40.1663 36.6085 43 32 43C25.9249 43 21 38.0751 21 32ZM32 23C27.0294 23 23 27.0294 23 32C23 36.9706 27.0294 41 32 41C34.9876 41 37.6366 39.5441 39.2741 37.3012C38.2745 37.7501 37.166 38 36 38C31.5817 38 28 34.4183 28 30C28 26.9934 29.7146 24.3678 32.1752 23.0017C32.1169 23.0006 32.0585 23 32 23Z" fill="black"/>
<path d="M35.343 28.0415C35.2094 27.6405 34.8948 27.326 34.4939 27.1923C34.0859 27.0563 34.0859 26.4792 34.4939 26.3432C34.8948 26.2096 35.2094 25.895 35.343 25.4941C35.479 25.0861 36.0561 25.0861 36.1921 25.4941C36.3258 25.895 36.6404 26.2096 37.0413 26.3432C37.4493 26.4792 37.4493 27.0563 37.0413 27.1923C36.6404 27.326 36.3258 27.6405 36.1921 28.0415C36.0561 28.4495 35.479 28.4495 35.343 28.0415Z" fill="black"/>
<path d="M33.4939 33.1923C33.8948 33.326 34.2094 33.6405 34.343 34.0415C34.479 34.4495 35.0561 34.4495 35.1921 34.0415C35.3258 33.6405 35.6404 33.326 36.0413 33.1923C36.4493 33.0563 36.4493 32.4792 36.0413 32.3432C35.6404 32.2096 35.3258 31.895 35.1921 31.4941C35.0561 31.0861 34.479 31.0861 34.343 31.4941C34.2094 31.895 33.8948 32.2096 33.4939 32.3432C33.0859 32.4792 33.0859 33.0563 33.4939 33.1923Z" fill="black"/>
<path d="M74.5405 22.3256C74.9623 22.436 74.8527 23.086 74.4286 23.1872C71.3651 23.9185 69 26.7089 69 30C69 33.866 72.134 37 76 37C77.7201 37 79.2953 36.3796 80.514 35.3503C80.847 35.0691 81.4285 35.3689 81.264 35.7725C79.7749 39.4254 76.1881 42 72 42C66.4772 42 62 37.5228 62 32C62 26.4772 66.4772 22 72 22C72.8778 22 73.7293 22.1131 74.5405 22.3256Z" fill="black"/>
<path d="M75.343 28.0415C75.2094 27.6405 74.8948 27.326 74.4939 27.1923C74.0859 27.0563 74.0859 26.4792 74.4939 26.3432C74.8948 26.2096 75.2094 25.895 75.343 25.4941C75.479 25.0861 76.0561 25.0861 76.1921 25.4941C76.3258 25.895 76.6404 26.2096 77.0413 26.3432C77.4493 26.4792 77.4493 27.0563 77.0413 27.1923C76.6404 27.326 76.3258 27.6405 76.1921 28.0415C76.0561 28.4495 75.479 28.4495 75.343 28.0415Z" fill="black"/>
<path d="M73.4939 33.1923C73.8948 33.326 74.2094 33.6405 74.343 34.0415C74.479 34.4495 75.0561 34.4495 75.1921 34.0415C75.3258 33.6405 75.6404 33.326 76.0413 33.1923C76.4493 33.0563 76.4493 32.4792 76.0413 32.3432C75.6404 32.2096 75.3258 31.895 75.1921 31.4941C75.0561 31.0861 74.479 31.0861 74.343 31.4941C74.2094 31.895 73.8948 32.2096 73.4939 32.3432C73.0859 32.4792 73.0859 33.0563 73.4939 33.1923Z" fill="black"/>
</svg>
