<svg width="104" height="64" viewBox="0 0 104 64" fill="none" xmlns="http://www.w3.org/2000/svg">
<path fill-rule="evenodd" clip-rule="evenodd" d="M32 21C25.9249 21 21 25.9249 21 32C21 38.0751 25.9249 43 32 43C36.6085 43 40.5528 40.1663 42.19 36.15C42.3336 35.7976 42.3252 35.4169 42.1734 35.0829C42.0309 34.7696 41.7904 34.5547 41.5522 34.4255C41.0977 34.1791 40.4096 34.1296 39.8688 34.5863C38.8237 35.4689 37.4752 36 36 36C32.6863 36 30 33.3137 30 30C30 27.1946 32.025 24.7891 34.6608 24.1599C35.3493 23.9955 35.7168 23.4124 35.7912 22.9048C35.8303 22.638 35.8034 22.3171 35.6392 22.0151C35.4639 21.6925 35.1643 21.4552 34.7938 21.3582C33.9006 21.1243 32.9641 21 32 21ZM23 32C23 27.0294 27.0294 23 32 23C32.0585 23 32.1169 23.0006 32.1752 23.0017C29.7146 24.3678 28 26.9934 28 30C28 34.4183 31.5817 38 36 38C37.166 38 38.2745 37.7501 39.2741 37.3012C37.6366 39.5441 34.9876 41 32 41C27.0294 41 23 36.9706 23 32Z" fill="black"/>
<path d="M74.5405 22.3256C74.9623 22.436 74.8527 23.086 74.4286 23.1872C71.3651 23.9185 69 26.7089 69 30C69 33.866 72.134 37 76 37C77.7201 37 79.2953 36.3796 80.514 35.3503C80.847 35.0691 81.4285 35.3689 81.264 35.7725C79.7749 39.4254 76.1881 42 72 42C66.4772 42 62 37.5228 62 32C62 26.4772 66.4772 22 72 22C72.8778 22 73.7293 22.1131 74.5405 22.3256Z" fill="black"/>
</svg>
