<svg width="104" height="64" viewBox="0 0 104 64" fill="none" xmlns="http://www.w3.org/2000/svg">
<path fill-rule="evenodd" clip-rule="evenodd" d="M32 43C30.2807 43 28.6509 42.6048 27.1989 41.8995C23.5315 40.1178 21 36.3555 21 32C21 25.9249 25.9249 21 32 21C32.9641 21 33.9006 21.1243 34.7938 21.3582C35.1643 21.4552 35.4639 21.6925 35.6392 22.0151C35.8034 22.3171 35.8303 22.638 35.7912 22.9048C35.7168 23.4124 35.3493 23.9955 34.6608 24.1599C32.025 24.7891 30 27.1946 30 30C30 30.8824 30.1899 31.7189 30.5311 32.4722C31.383 31.0046 32.9052 30 34.7 30C36.9653 30 38.8033 31.6088 39.3964 33.7174C39.7239 33.8848 40.0283 34.0912 40.305 34.3305C40.7453 34.1677 41.2134 34.2417 41.552 34.4252C41.7901 34.5542 42.0309 34.7691 42.1734 35.0824C42.3254 35.4165 42.3337 35.7973 42.1901 36.1497C42.087 36.4026 41.9748 36.6508 41.8539 36.8939C41.9495 37.2866 42 37.6969 42 38.1176C42 40.7416 40.0103 43 37.4 43H32ZM23 32C23 27.0294 27.0294 23 32 23C32.0585 23 32.1169 23.0006 32.1752 23.0017C29.7146 24.3678 28 26.9934 28 30C28 31.6425 28.4961 33.1722 29.3468 34.4437C29.4888 34.656 29.6408 34.8612 29.802 35.0584C29.8007 35.1075 29.8 35.1566 29.8 35.2059L29.8 35.2262C28.6993 35.9938 28 37.3083 28 38.7647C28 39.2542 28.0803 39.7297 28.229 40.1746C28.1767 40.1504 28.1246 40.1257 28.0728 40.1005C25.0679 38.6407 23 35.5609 23 32ZM31.8 35.2059C31.8 33.3629 33.1681 32 34.7 32C36.0608 32 37.2836 33.0654 37.5487 34.6018C37.6099 34.9572 37.8578 35.252 38.1973 35.3734C39.2076 35.7348 40 36.7966 40 38.1176C40 39.782 38.7662 41 37.4 41H32C30.9652 41 30 40.0717 30 38.7647C30 37.7962 30.5451 37.0125 31.2499 36.6923C31.649 36.511 31.8835 36.0908 31.8283 35.6559C31.8097 35.5093 31.8 35.3591 31.8 35.2059Z" fill="black"/>
<path d="M74.5405 22.3256C74.9623 22.436 74.8527 23.086 74.4286 23.1872C71.3651 23.9185 69 26.7089 69 30C69 30.4122 69.0356 30.8161 69.104 31.2087C68.0097 32.1556 67.3143 33.5751 67.3143 35.1618C67.3143 35.4016 67.3302 35.6375 67.3609 35.8686C66.0794 36.4243 65.1506 37.6724 65.0167 39.1577C63.1555 37.3417 62 34.8058 62 32C62 26.4772 66.4772 22 72 22C72.8778 22 73.7293 22.1131 74.5405 22.3256Z" fill="black"/>
<path d="M80.2937 37.5888C80.1556 37.0133 79.9159 36.4791 79.5954 36.0073C79.9195 35.8129 80.2267 35.593 80.514 35.3503C80.847 35.0691 81.4285 35.3689 81.264 35.7725C81.0025 36.4139 80.6764 37.022 80.2937 37.5888Z" fill="black"/>
<path d="M67 38.7647C67 40.5515 68.3431 42 70 42H75.4C77.3882 42 79 40.2618 79 38.1176C79 36.4008 77.9666 34.9442 76.5341 34.4319C76.1972 32.4787 74.6087 31 72.7 31C70.5461 31 68.8 32.883 68.8 35.2059C68.8 35.4013 68.8124 35.5935 68.8363 35.7818C67.7574 36.272 67 37.4229 67 38.7647Z" fill="black"/>
</svg>
