<svg width="104" height="64" viewBox="0 0 104 64" fill="none" xmlns="http://www.w3.org/2000/svg">
<path d="M32 27.5C32.5523 27.5 33 27.9477 33 28.5V32.5C33 33.0523 32.5523 33.5 32 33.5C31.4477 33.5 31 33.0523 31 32.5V28.5C31 27.9477 31.4477 27.5 32 27.5Z" fill="black"/>
<path fill-rule="evenodd" clip-rule="evenodd" d="M35.9999 22C35.9999 21.4477 35.5522 21 34.9999 21C34.4476 21 33.9999 21.4477 33.9999 22C33.9999 22.1733 33.9397 22.4556 33.7884 22.6657C33.6738 22.8249 33.4741 23 33 23C32.4702 23 31.9655 23.1096 31.5511 23.3977C31.1184 23.6985 30.8896 24.1205 30.7983 24.5351C30.7568 24.724 30.7427 24.9133 30.7482 25.0974C26.9245 25.6982 24 29.0076 24 33V35C24 39.4183 27.5817 43 32 43C36.4183 43 40 39.4183 40 35V33C40 28.8337 36.8152 25.4113 32.7473 25.0344C32.7472 25.0307 32.7472 25.027 32.7471 25.0235C32.7951 25.0121 32.8754 25 33 25C34.1259 25 34.9261 24.5085 35.4115 23.8343C35.8602 23.2111 36 22.4933 35.9999 22ZM31.9813 27C31.9942 27.0003 32.0071 27.0003 32.02 27C35.3245 27.0108 38 29.693 38 33V35C38 38.3137 35.3137 41 32 41C28.6863 41 26 38.3137 26 35V33C26 29.6925 28.6762 27.0101 31.9813 27Z" fill="black"/>
<path fill-rule="evenodd" clip-rule="evenodd" d="M75.9999 22C75.9999 21.4477 75.5522 21 74.9999 21C74.4476 21 73.9999 21.4477 73.9999 22C73.9999 22.1733 73.9397 22.4556 73.7884 22.6657C73.6738 22.8249 73.4741 23 73 23C72.4702 23 71.9655 23.1096 71.5511 23.3977C71.1184 23.6985 70.8896 24.1205 70.7983 24.5351C70.6753 25.0946 70.7932 25.6576 70.9471 26.0787C67.5807 26.5865 65 29.4919 65 33V35C65 38.866 68.134 42 72 42C75.866 42 79 38.866 79 35V33C79 29.4727 76.3911 26.5548 72.9977 26.0706C73.0101 25.8976 72.9776 25.7191 72.8944 25.5528C72.8439 25.4517 72.7955 25.3229 72.7684 25.1967C72.7521 25.1206 72.7473 25.0631 72.7471 25.0235C72.7951 25.0121 72.8754 25 73 25C74.1259 25 74.9261 24.5085 75.4115 23.8343C75.8602 23.2111 76 22.4933 75.9999 22ZM72 27.5C72.5523 27.5 73 27.9477 73 28.5V32.5C73 33.0523 72.5523 33.5 72 33.5C71.4477 33.5 71 33.0523 71 32.5V28.5C71 27.9477 71.4477 27.5 72 27.5Z" fill="black"/>
</svg>
