<svg width="104" height="64" viewBox="0 0 104 64" fill="none" xmlns="http://www.w3.org/2000/svg">
<path d="M32.7071 22.2929C32.3166 21.9024 31.6834 21.9024 31.2929 22.2929L28.2929 25.2929C27.9024 25.6834 27.9024 26.3166 28.2929 26.7071C28.6834 27.0976 29.3166 27.0976 29.7071 26.7071L31 25.4142V31H25.4142L26.7071 29.7071C27.0976 29.3166 27.0976 28.6834 26.7071 28.2929C26.3166 27.9024 25.6834 27.9024 25.2929 28.2929L22.2929 31.2929C21.9024 31.6834 21.9024 32.3166 22.2929 32.7071L25.2929 35.7071C25.6834 36.0976 26.3166 36.0976 26.7071 35.7071C27.0976 35.3166 27.0976 34.6834 26.7071 34.2929L25.4142 33H31V38.5858L29.7071 37.2929C29.3166 36.9024 28.6834 36.9024 28.2929 37.2929C27.9024 37.6834 27.9024 38.3166 28.2929 38.7071L31.2929 41.7071C31.6834 42.0976 32.3166 42.0976 32.7071 41.7071L35.7071 38.7071C36.0976 38.3166 36.0976 37.6834 35.7071 37.2929C35.3166 36.9024 34.6834 36.9024 34.2929 37.2929L33 38.5858V33H38.5858L37.2929 34.2929C36.9024 34.6834 36.9024 35.3166 37.2929 35.7071C37.6834 36.0976 38.3166 36.0976 38.7071 35.7071L41.7071 32.7071C42.0976 32.3166 42.0976 31.6834 41.7071 31.2929L38.7071 28.2929C38.3166 27.9024 37.6834 27.9024 37.2929 28.2929C36.9024 28.6834 36.9024 29.3166 37.2929 29.7071L38.5858 31H33V25.4142L34.2929 26.7071C34.6834 27.0976 35.3166 27.0976 35.7071 26.7071C36.0976 26.3166 36.0976 25.6834 35.7071 25.2929L32.7071 22.2929Z" fill="black"/>
<path d="M32.7071 22.2929C32.3166 21.9024 31.6834 21.9024 31.2929 22.2929L28.2929 25.2929C27.9024 25.6834 27.9024 26.3166 28.2929 26.7071C28.6834 27.0976 29.3166 27.0976 29.7071 26.7071L31 25.4142V31H25.4142L26.7071 29.7071C27.0976 29.3166 27.0976 28.6834 26.7071 28.2929C26.3166 27.9024 25.6834 27.9024 25.2929 28.2929L22.2929 31.2929C21.9024 31.6834 21.9024 32.3166 22.2929 32.7071L25.2929 35.7071C25.6834 36.0976 26.3166 36.0976 26.7071 35.7071C27.0976 35.3166 27.0976 34.6834 26.7071 34.2929L25.4142 33H31V38.5858L29.7071 37.2929C29.3166 36.9024 28.6834 36.9024 28.2929 37.2929C27.9024 37.6834 27.9024 38.3166 28.2929 38.7071L31.2929 41.7071C31.6834 42.0976 32.3166 42.0976 32.7071 41.7071L35.7071 38.7071C36.0976 38.3166 36.0976 37.6834 35.7071 37.2929C35.3166 36.9024 34.6834 36.9024 34.2929 37.2929L33 38.5858V33H38.5858L37.2929 34.2929C36.9024 34.6834 36.9024 35.3166 37.2929 35.7071C37.6834 36.0976 38.3166 36.0976 38.7071 35.7071L41.7071 32.7071C42.0976 32.3166 42.0976 31.6834 41.7071 31.2929L38.7071 28.2929C38.3166 27.9024 37.6834 27.9024 37.2929 28.2929C36.9024 28.6834 36.9024 29.3166 37.2929 29.7071L38.5858 31H33V25.4142L34.2929 26.7071C34.6834 27.0976 35.3166 27.0976 35.7071 26.7071C36.0976 26.3166 36.0976 25.6834 35.7071 25.2929L32.7071 22.2929Z" fill="black"/>
<path fill-rule="evenodd" clip-rule="evenodd" d="M62 25C62 23.3431 63.3431 22 65 22H79C80.6569 22 82 23.3431 82 25V39C82 40.6569 80.6569 42 79 42H65C63.3431 42 62 40.6569 62 39V25ZM71.2929 23.2929C71.6834 22.9024 72.3166 22.9024 72.7071 23.2929L75.7071 26.2929C76.0976 26.6834 76.0976 27.3166 75.7071 27.7071C75.3166 28.0976 74.6834 28.0976 74.2929 27.7071L73 26.4142V31H77.5858L76.2929 29.7071C75.9024 29.3166 75.9024 28.6834 76.2929 28.2929C76.6834 27.9024 77.3166 27.9024 77.7071 28.2929L80.7071 31.2929C80.8946 31.4804 81 31.7348 81 32C81 32.2652 80.8946 32.5196 80.7071 32.7071L77.7071 35.7071C77.3166 36.0976 76.6834 36.0976 76.2929 35.7071C75.9024 35.3166 75.9024 34.6834 76.2929 34.2929L77.5858 33H73V37.5858L74.2929 36.2929C74.6834 35.9024 75.3166 35.9024 75.7071 36.2929C76.0976 36.6834 76.0976 37.3166 75.7071 37.7071L72.7071 40.7071C72.3166 41.0976 71.6834 41.0976 71.2929 40.7071L68.2929 37.7071C67.9024 37.3166 67.9024 36.6834 68.2929 36.2929C68.6834 35.9024 69.3166 35.9024 69.7071 36.2929L71 37.5858V33H66.4142L67.7071 34.2929C68.0976 34.6834 68.0976 35.3166 67.7071 35.7071C67.3166 36.0976 66.6834 36.0976 66.2929 35.7071L63.2929 32.7071C62.9024 32.3166 62.9024 31.6834 63.2929 31.2929L66.2929 28.2929C66.6834 27.9024 67.3166 27.9024 67.7071 28.2929C68.0976 28.6834 68.0976 29.3166 67.7071 29.7071L66.4142 31H71V26.4142L69.7071 27.7071C69.3166 28.0976 68.6834 28.0976 68.2929 27.7071C67.9024 27.3166 67.9024 26.6834 68.2929 26.2929L71.2929 23.2929Z" fill="black"/>
</svg>
