<svg width="104" height="64" viewBox="0 0 104 64" fill="none" xmlns="http://www.w3.org/2000/svg">
<path d="M27.0509 25.6362C26.6603 25.2456 26.0272 25.2456 25.6366 25.6362C25.2461 26.0267 25.2461 26.6598 25.6366 27.0504L30.5864 32.0001L25.6366 36.9499C25.2461 37.3404 25.2461 37.9736 25.6366 38.3641C26.0272 38.7546 26.6603 38.7546 27.0509 38.3641L32.0006 33.4143L36.9504 38.3641C37.3409 38.7546 37.974 38.7546 38.3646 38.3641C38.7551 37.9736 38.7551 37.3404 38.3646 36.9499L33.4148 32.0001L38.3646 27.0504C38.7551 26.6598 38.7551 26.0267 38.3646 25.6362C37.974 25.2456 37.3409 25.2456 36.9504 25.6362L32.0006 30.5859L27.0509 25.6362Z" fill="black"/>
<path d="M67.0509 25.6362C66.6603 25.2456 66.0272 25.2456 65.6366 25.6362C65.2461 26.0267 65.2461 26.6598 65.6366 27.0504L70.5864 32.0001L65.6366 36.9499C65.2461 37.3404 65.2461 37.9736 65.6366 38.3641C66.0272 38.7546 66.6603 38.7546 67.0509 38.3641L72.0006 33.4143L76.9504 38.3641C77.3409 38.7546 77.974 38.7546 78.3646 38.3641C78.7551 37.9736 78.7551 37.3404 78.3646 36.9499L73.4148 32.0001L78.3646 27.0504C78.7551 26.6598 78.7551 26.0267 78.3646 25.6362C77.974 25.2456 77.3409 25.2456 76.9504 25.6362L72.0006 30.5859L67.0509 25.6362Z" fill="black"/>
</svg>
