<svg width="104" height="64" viewBox="0 0 104 64" fill="none" xmlns="http://www.w3.org/2000/svg">
<path d="M30.5858 29.1716C30.1952 28.781 29.5621 28.781 29.1715 29.1716C28.781 29.5621 28.781 30.1953 29.1715 30.5858L30.5858 32L29.1715 33.4142C28.781 33.8047 28.781 34.4379 29.1715 34.8284C29.5621 35.219 30.1952 35.219 30.5858 34.8284L32 33.4142L33.4142 34.8284C33.8047 35.219 34.4379 35.219 34.8284 34.8284C35.2189 34.4379 35.2189 33.8047 34.8284 33.4142L33.4142 32L34.8284 30.5858C35.2189 30.1953 35.2189 29.5621 34.8284 29.1716C34.4379 28.781 33.8047 28.781 33.4142 29.1716L32 30.5858L30.5858 29.1716Z" fill="black"/>
<path fill-rule="evenodd" clip-rule="evenodd" d="M32 22C26.4772 22 22 26.4772 22 32C22 37.5228 26.4772 42 32 42C37.5228 42 42 37.5228 42 32C42 26.4772 37.5228 22 32 22ZM24 32C24 27.5817 27.5817 24 32 24C36.4183 24 40 27.5817 40 32C40 36.4183 36.4183 40 32 40C27.5817 40 24 36.4183 24 32Z" fill="black"/>
<path fill-rule="evenodd" clip-rule="evenodd" d="M72 41C76.9706 41 81 36.9706 81 32C81 27.0294 76.9706 23 72 23C67.0294 23 63 27.0294 63 32C63 36.9706 67.0294 41 72 41ZM70.5858 29.1716C70.1952 28.781 69.5621 28.781 69.1715 29.1716C68.781 29.5621 68.781 30.1953 69.1715 30.5858L70.5858 32L69.1715 33.4142C68.781 33.8047 68.781 34.4379 69.1715 34.8284C69.5621 35.219 70.1952 35.219 70.5858 34.8284L72 33.4142L73.4142 34.8284C73.8047 35.219 74.4379 35.219 74.8284 34.8284C75.2189 34.4379 75.2189 33.8047 74.8284 33.4142L73.4142 32L74.8284 30.5858C75.2189 30.1953 75.2189 29.5621 74.8284 29.1716C74.4379 28.781 73.8047 28.781 73.4142 29.1716L72 30.5858L70.5858 29.1716Z" fill="black"/>
</svg>
