<svg width="104" height="64" viewBox="0 0 104 64" fill="none" xmlns="http://www.w3.org/2000/svg">
<path fill-rule="evenodd" clip-rule="evenodd" d="M32.4381 23.0481C30.5991 22.7214 28.8552 24.1012 28.8552 25.9963V33.9659C28.2018 33.7432 27.3557 33.5815 26.2808 33.5815C24.9204 33.5815 23.9258 33.8405 23.2235 34.1553C21.9194 34.7398 21.7732 36.18 22.2679 37.1551C22.578 37.7664 23.0502 38.5756 23.6688 39.246C24.2705 39.8983 25.1531 40.5708 26.2808 40.5708C29.1146 40.5708 30.8552 38.0356 30.8552 35.6902V28.2942L39.8693 29.9219L39.6663 34.4116C39.0079 34.181 38.1469 34.0106 37.0438 34.0106C35.6835 34.0106 34.6888 34.2696 33.9866 34.5844C32.6824 35.1689 32.5362 36.6092 33.0309 37.5843C33.341 38.1955 33.8132 39.0047 34.4318 39.6752C35.0336 40.3274 35.9162 40.9999 37.0438 40.9999C39.5368 40.9999 41.1927 39.0185 41.5444 36.9775C41.5711 36.8224 41.5809 36.6644 41.5735 36.507L41.9064 29.1451L41.9067 29.1384L41.9969 27.4036C42.076 25.8808 40.9877 24.567 39.4986 24.3025L32.4381 23.0481ZM28.6288 36.0316C28.7032 36.0685 28.7678 36.1046 28.8233 36.1383C28.6311 37.478 27.5931 38.5708 26.2808 38.5708C25.9812 38.5708 25.5948 38.3842 25.1387 37.8898C24.6993 37.4136 24.3247 36.7888 24.0515 36.2503C23.9925 36.134 23.9976 36.0471 24.0061 36.0144C24.0064 36.0135 24.0066 36.0126 24.0069 36.0118C24.0086 36.0058 24.0102 36.0022 24.0111 36.0005C24.012 35.9986 24.0126 35.998 24.0127 35.9978C24.0128 35.9977 24.0138 35.9964 24.017 35.9941C24.0202 35.9916 24.0277 35.9865 24.0416 35.9803C24.4671 35.7896 25.1803 35.5815 26.2808 35.5815C27.4788 35.5815 28.2186 35.8281 28.6288 36.0316ZM39.968 27.9074L30.8552 26.2619V25.9963C30.8552 25.401 31.4196 24.8985 32.0882 25.0173L39.1488 26.2716C39.6793 26.3659 40.0245 26.8196 39.9996 27.2999L39.968 27.9074ZM39.5657 36.5558C39.5658 36.5559 39.5672 36.5575 39.569 36.5617L39.563 36.6956C39.3148 37.9978 38.3124 38.9999 37.0438 38.9999C36.7442 38.9999 36.3579 38.8134 35.9017 38.319C35.4624 37.8428 35.0877 37.2179 34.8145 36.6794C34.7555 36.5631 34.7606 36.4763 34.7692 36.4436C34.7694 36.4426 34.7697 36.4417 34.7699 36.4409C34.7716 36.4349 34.7733 36.4313 34.7741 36.4296C34.7746 36.4286 34.775 36.4279 34.7753 36.4275M39.5657 36.5558L39.5646 36.5548ZM39.5646 36.5548C39.5641 36.5543 39.5627 36.5532 39.5601 36.5517ZM39.5601 36.5517C39.1951 36.3365 38.4213 36.0106 37.0438 36.0106ZM37.0438 36.0106C35.9433 36.0106 35.2301 36.2187 34.8046 36.4094ZM34.8046 36.4094C34.7907 36.4157 34.7832 36.4208 34.78 36.4232ZM34.78 36.4232L34.7768 36.4259ZM34.7768 36.4259L34.7753 36.4275Z" fill="black"/>
<path d="M79.3228 25.2871L72.2623 24.0328C71.0085 23.81 69.8543 24.7512 69.8543 25.9963V27.0975L80.9069 29.0933L80.9973 27.3518C81.0494 26.3502 80.3326 25.4665 79.3228 25.2871Z" fill="black"/>
<path d="M63.1588 36.7028C63.7421 37.8526 64.8526 39.5709 66.2799 39.5709C68.4248 39.5709 69.8543 37.6306 69.8543 35.6903C69.8543 35.6903 68.9607 34.5815 66.2799 34.5815C65.0495 34.5815 64.1955 34.8151 63.6317 35.0678C62.9913 35.3549 62.8459 36.086 63.1588 36.7028Z" fill="black"/>
<path d="M73.9218 37.1319C74.5051 38.2817 75.6156 40 77.0429 40C78.933 40 80.2676 38.4934 80.558 36.8077L80.5715 36.5094C80.5438 36.1755 80.3706 35.8692 80.067 35.6903C79.5379 35.3784 78.5868 35.0107 77.0429 35.0107C75.8125 35.0107 74.9586 35.2442 74.3947 35.497C73.7544 35.784 73.6089 36.5151 73.9218 37.1319Z" fill="black"/>
<path d="M69.8543 35.6903C69.8543 37.6306 68.4248 39.5709 66.2799 39.5709C64.8526 39.5709 63.7421 37.8526 63.1588 36.7028C62.8459 36.086 62.9913 35.3549 63.6317 35.0678C64.1955 34.8151 65.0495 34.5815 66.2799 34.5815C68.9607 34.5815 69.8543 35.6903 69.8543 35.6903ZM69.8543 35.6903V27.0975M80.558 36.8077C80.2676 38.4934 78.933 40 77.0429 40C75.6156 40 74.5051 38.2817 73.9218 37.1319C73.6089 36.5151 73.7544 35.784 74.3947 35.497C74.9586 35.2442 75.8125 35.0107 77.0429 35.0107C78.5868 35.0107 79.5379 35.3784 80.067 35.6903C80.3706 35.8692 80.5438 36.1755 80.5715 36.5094M80.558 36.8077L80.5715 36.5094M80.558 36.8077C80.5753 36.7076 80.5797 36.6073 80.5715 36.5094M80.9069 29.0933L80.9973 27.3518C81.0494 26.3502 80.3326 25.4665 79.3228 25.2871L72.2623 24.0328C71.0085 23.81 69.8543 24.7512 69.8543 25.9963V27.0975M80.9069 29.0933L69.8543 27.0975M80.9069 29.0933L80.5715 36.5094" stroke="black" stroke-width="2" stroke-linecap="round"/>
</svg>
