<svg width="104" height="64" viewBox="0 0 104 64" fill="none" xmlns="http://www.w3.org/2000/svg">
<path fill-rule="evenodd" clip-rule="evenodd" d="M34.3794 22.1095C34.7139 21.9386 35.116 21.9696 35.4204 22.1897C36.4528 22.9363 38.6246 24.4535 39.4522 24.872C39.8197 25.0579 40.0356 25.45 39.9963 25.8599C39.9234 26.6188 39.5776 27.6947 38.7724 28.5975C38.0995 29.3519 37.1341 29.9518 35.8344 30.1566V36.514C35.8344 39.1506 33.8993 42 30.7493 42C29.5151 42 28.5409 41.2553 27.8653 40.5146C27.172 39.7545 26.6398 38.8334 26.2884 38.1328C25.7547 37.0686 25.9147 35.5162 27.3099 34.8837C28.0935 34.5284 29.2116 34.2323 30.7493 34.2323C32.0697 34.2323 33.08 34.4506 33.8344 34.7366V23C33.8344 22.6244 34.0449 22.2804 34.3794 22.1095ZM33.8096 36.9502C33.7263 36.8945 33.6212 36.8317 33.4921 36.7669C33.003 36.5213 32.137 36.2323 30.7493 36.2323C29.4746 36.2323 28.6408 36.4762 28.1357 36.7052C28.0882 36.7268 28.0644 36.7492 28.0511 36.7654C28.0368 36.7827 28.0222 36.808 28.0122 36.8467C27.9911 36.9285 27.9932 37.0706 28.0762 37.2361C28.3914 37.8647 28.8272 38.6014 29.3429 39.1668C29.8763 39.7515 30.3523 40 30.7493 40C32.3627 40 33.6199 38.6132 33.8096 36.9502ZM35.8344 28.1183C36.5064 27.9512 36.9633 27.6211 37.2798 27.2663C37.5638 26.9478 37.7514 26.5893 37.8655 26.2672C37.2689 25.9029 36.5236 25.4044 35.8344 24.9292V28.1183Z" fill="black"/>
<path d="M24.5938 25.6308C25.0749 25.7912 25.4524 26.1687 25.6127 26.6497C25.7759 27.1394 26.4685 27.1394 26.6317 26.6497C26.792 26.1687 27.1695 25.7912 27.6506 25.6308C28.1402 25.4676 28.1402 24.7751 27.6506 24.6119C27.1695 24.4515 26.792 24.074 26.6317 23.5929C26.4685 23.1033 25.7759 23.1033 25.6127 23.5929C25.4524 24.074 25.0749 24.4515 24.5938 24.6119C24.1042 24.7751 24.1042 25.4676 24.5938 25.6308Z" fill="black"/>
<path d="M28.5938 30.6308C29.0749 30.7912 29.4524 31.1687 29.6127 31.6497C29.7759 32.1394 30.4685 32.1394 30.6317 31.6497C30.792 31.1687 31.1695 30.7912 31.6506 30.6308C32.1402 30.4676 32.1402 29.7751 31.6506 29.6119C31.1695 29.4515 30.792 29.074 30.6317 28.5929C30.4685 28.1033 29.7759 28.1033 29.6127 28.5929C29.4524 29.074 29.0749 29.4515 28.5938 29.6119C28.1042 29.7751 28.1042 30.4676 28.5938 30.6308Z" fill="black"/>
<path d="M77.7657 24.7236C78.2565 25.1917 78.6945 25.6093 79.0009 25.7643C78.9054 26.7589 78.1602 28.6091 76.0009 29.1065L76.0009 36.6016C76.0009 36.707 75.9845 36.8086 75.9543 36.904C75.9528 36.9638 75.947 37.0241 75.9367 37.0844C75.5856 39.1423 73.8205 41 71.3075 41C69.4334 41 67.9753 38.9336 67.2093 37.5509C66.7985 36.8092 66.9895 35.93 67.8303 35.5848C68.5706 35.2809 69.6919 35 71.3075 35C72.432 35 73.3171 35.1361 74.0009 35.3213L74.0009 24C74.0009 23.5044 74.3614 23.0931 74.8344 23.0138V22.9999C75.61 22.6675 76.7919 23.7948 77.7657 24.7236Z" fill="black"/>
<path d="M65.6127 26.6497C65.4524 26.1686 65.0749 25.7911 64.5938 25.6308C64.1042 25.4676 64.1042 24.775 64.5938 24.6118C65.0749 24.4515 65.4524 24.074 65.6127 23.5929C65.7759 23.1033 66.4685 23.1033 66.6317 23.5929C66.792 24.074 67.1695 24.4515 67.6506 24.6118C68.1402 24.775 68.1402 25.4676 67.6506 25.6308C67.1695 25.7911 66.792 26.1686 66.6317 26.6497C66.4685 27.1393 65.7759 27.1393 65.6127 26.6497Z" fill="black"/>
<path d="M69.6127 31.6497C69.4524 31.1686 69.0749 30.7911 68.5938 30.6308C68.1042 30.4676 68.1042 29.775 68.5938 29.6118C69.0749 29.4515 69.4524 29.074 69.6127 28.5929C69.7759 28.1033 70.4685 28.1033 70.6317 28.5929C70.792 29.074 71.1695 29.4515 71.6506 29.6118C72.1402 29.775 72.1402 30.4676 71.6506 30.6308C71.1695 30.7911 70.792 31.1686 70.6317 31.6497C70.4685 32.1393 69.7759 32.1393 69.6127 31.6497Z" fill="black"/>
</svg>
