<svg width="104" height="64" viewBox="0 0 104 64" fill="none" xmlns="http://www.w3.org/2000/svg">
<path fill-rule="evenodd" clip-rule="evenodd" d="M34.4203 22.1897C34.1159 21.9696 33.7139 21.9386 33.3794 22.1095C33.0449 22.2804 32.8344 22.6244 32.8344 23V34.7366C32.08 34.4506 31.0697 34.2323 29.7493 34.2323C28.2115 34.2323 27.0935 34.5284 26.3098 34.8837C24.9147 35.5162 24.7547 37.0686 25.2884 38.1328C25.6398 38.8334 26.1719 39.7545 26.8653 40.5146C27.5409 41.2553 28.5151 42 29.7493 42C32.8993 42 34.8344 39.1506 34.8344 36.514V30.1566C36.1341 29.9518 37.0995 29.3519 37.7723 28.5975C38.5776 27.6947 38.9234 26.6188 38.9963 25.8599C39.0356 25.45 38.8196 25.0579 38.4521 24.872C37.6246 24.4535 35.4528 22.9363 34.4203 22.1897ZM32.4921 36.7669C32.6212 36.8317 32.7262 36.8945 32.8096 36.9502C32.6199 38.6132 31.3627 40 29.7493 40C29.3523 40 28.8763 39.7515 28.3429 39.1668C27.8272 38.6014 27.3914 37.8647 27.0762 37.2361C26.9931 37.0706 26.9911 36.9285 27.0122 36.8467C27.0222 36.808 27.0368 36.7827 27.0511 36.7654C27.0644 36.7492 27.0881 36.7268 27.1357 36.7052C27.6408 36.4762 28.4746 36.2323 29.7493 36.2323C31.137 36.2323 32.003 36.5213 32.4921 36.7669ZM36.2797 27.2663C35.9633 27.6211 35.5064 27.9512 34.8344 28.1183V24.9292C35.5236 25.4044 36.2688 25.9029 36.8655 26.2672C36.7514 26.5893 36.5638 26.9478 36.2797 27.2663Z" fill="black"/>
<path d="M74.0595 22.4757C73.9867 22.4589 73.9109 22.45 73.833 22.45C73.2807 22.45 72.833 22.8977 72.833 23.45V34.8872C72.1515 34.6738 71.2717 34.5176 70.1563 34.5176C68.5406 34.5176 67.4194 34.8453 66.679 35.1999C65.8382 35.6025 65.6472 36.6283 66.0581 37.4936C66.824 39.1068 68.2822 41.5176 70.1563 41.5176C72.7416 41.5176 74.5354 39.2236 74.8122 36.7415C74.8162 36.7062 74.8188 36.6708 74.82 36.6356C74.8363 36.5184 74.8437 36.3919 74.833 36.2631V29.9593C77.6326 29.5525 78.5728 27.1165 78.687 25.8441C78.2458 25.6055 77.3209 24.8768 76.4082 24.1579C75.6911 23.5931 74.9817 23.0342 74.5205 22.7238C74.4063 22.6156 74.2665 22.534 74.1112 22.4892C74.0915 22.4822 74.0742 22.4777 74.0595 22.4757Z" fill="black"/>
</svg>
