<svg width="104" height="64" viewBox="0 0 104 64" fill="none" xmlns="http://www.w3.org/2000/svg">
<path fill-rule="evenodd" clip-rule="evenodd" d="M38.3336 25C38.3336 24.4477 37.8858 24 37.3336 24C36.7813 24 36.3336 24.4477 36.3336 25V29.2857H31.3925L28.415 24.8193C27.5917 23.5845 25.6669 24.1673 25.6669 25.6514V29.2857H24C23.4477 29.2857 23 29.7334 23 30.2857C23 30.838 23.4477 31.2857 24 31.2857H25.6669V32.7143H24C23.4477 32.7143 23 33.162 23 33.7143C23 34.2666 23.4477 34.7143 24 34.7143H25.6669V39C25.6669 39.5523 26.1146 40 26.6669 40C27.2192 40 27.6669 39.5523 27.6669 39V34.7143H32.6079L35.5855 39.1807C36.4087 40.4155 38.3336 39.8327 38.3336 38.3486V34.7143H40C40.5523 34.7143 41 34.2666 41 33.7143C41 33.162 40.5523 32.7143 40 32.7143H38.3336V31.2857H40C40.5523 31.2857 41 30.838 41 30.2857C41 29.7334 40.5523 29.2857 40 29.2857H38.3336V25ZM33.6783 32.7143L32.7259 31.2857H36.3336V32.7143H33.6783ZM36.3336 36.6972L35.0116 34.7143H36.3336V36.6972ZM30.3222 31.2857L31.2746 32.7143H27.6669V31.2857H30.3222ZM27.6669 27.3028L28.9888 29.2857H27.6669V27.3028Z" fill="black"/>
<path fill-rule="evenodd" clip-rule="evenodd" d="M78.3336 25C78.3336 24.4477 77.8858 24 77.3336 24C76.7813 24 76.3336 24.4477 76.3336 25V29.2857H71.3925L68.415 24.8193C67.5917 23.5845 65.6669 24.1673 65.6669 25.6514V29.2857H64C63.4477 29.2857 63 29.7334 63 30.2857C63 30.838 63.4477 31.2857 64 31.2857H65.6669V32.7143H64C63.4477 32.7143 63 33.162 63 33.7143C63 34.2666 63.4477 34.7143 64 34.7143H65.6669V39C65.6669 39.5523 66.1146 40 66.6669 40C67.2192 40 67.6669 39.5523 67.6669 39V34.7143H72.6079L75.5855 39.1807C76.4087 40.4155 78.3336 39.8327 78.3336 38.3486V34.7143H80C80.5523 34.7143 81 34.2666 81 33.7143C81 33.162 80.5523 32.7143 80 32.7143H78.3336V31.2857H80C80.5523 31.2857 81 30.838 81 30.2857C81 29.7334 80.5523 29.2857 80 29.2857H78.3336V25ZM73.6783 32.7143L72.7259 31.2857H76.3336V32.7143H73.6783ZM76.3336 36.6972L75.0116 34.7143H76.3336V36.6972ZM70.3222 31.2857L71.2746 32.7143H67.6669V31.2857H70.3222ZM67.6669 27.3028L68.9888 29.2857H67.6669V27.3028Z" fill="black"/>
</svg>
