<svg width="104" height="64" viewBox="0 0 104 64" fill="none" xmlns="http://www.w3.org/2000/svg">
<path d="M29.7195 24.6291C30.604 22.664 33.3955 22.664 34.28 24.6291L40.5544 38.5734C41.4354 40.5325 39.5981 42.6169 37.5437 41.9894L32.1462 40.34C32.0511 40.311 31.9484 40.311 31.8532 40.34L26.4558 41.9894C24.4011 42.6172 22.5638 40.5326 23.445 38.5734L29.7195 24.6291ZM32.4558 25.4504C32.2789 25.0573 31.7206 25.0574 31.5437 25.4504L25.2693 39.3937C25.093 39.7855 25.4601 40.2024 25.8708 40.0773L31.2693 38.4279C31.7453 38.2825 32.2542 38.2825 32.7302 38.4279L38.1286 40.0773C38.5392 40.2021 38.9063 39.7853 38.7302 39.3937L32.4558 25.4504Z" fill="black"/>
<path d="M70.6312 25.0397L64.3566 38.9832C63.8276 40.1588 64.9299 41.41 66.1628 41.0333L71.5607 39.3839C71.8464 39.2966 72.1517 39.2966 72.4374 39.3839L77.8353 41.0333C79.0682 41.41 80.1705 40.1588 79.6415 38.9832L73.3669 25.0397C72.8363 23.8605 71.1618 23.8605 70.6312 25.0397Z" fill="black"/>
</svg>
