<svg width="104" height="64" viewBox="0 0 104 64" fill="none" xmlns="http://www.w3.org/2000/svg">
<path fill-rule="evenodd" clip-rule="evenodd" d="M41.259 25.8353C42.0233 23.8201 40.05 21.8468 38.0348 22.6112L23.7385 28.0339C21.7296 28.7959 21.5542 31.5696 23.4511 32.5786L28.4343 35.2292C28.5222 35.276 28.5942 35.3479 28.6409 35.4358L31.2915 40.419C32.3005 42.3159 35.0742 42.1405 35.8362 40.1316L41.259 25.8353ZM38.7441 24.4811C39.1472 24.3283 39.5418 24.7229 39.389 25.126L33.9662 39.4223C33.8138 39.8241 33.2591 39.8592 33.0573 39.4798L30.4067 34.4966C30.1728 34.057 29.8131 33.6973 29.3735 33.4634L24.3903 30.8128C24.011 30.611 24.046 30.0563 24.4478 29.9039L38.7441 24.4811Z" fill="black"/>
<path d="M78.3894 23.5463L64.0931 28.969C62.8878 29.4262 62.7825 31.0904 63.9207 31.6958L68.9038 34.3465C69.1676 34.4867 69.3834 34.7026 69.5237 34.9663L72.1744 39.9495C72.7798 41.0877 74.444 40.9824 74.9012 39.7771L80.3239 25.4808C80.7825 24.2716 79.5985 23.0877 78.3894 23.5463Z" fill="black"/>
</svg>
