<svg width="104" height="64" viewBox="0 0 104 64" fill="none" xmlns="http://www.w3.org/2000/svg">
<path d="M69 28H67V30H69V28Z" fill="black"/>
<path fill-rule="evenodd" clip-rule="evenodd" d="M75 23H65C63.8954 23 63 23.8954 63 25V39C63 40.1046 63.8954 41 65 41H77V25C77 23.8954 76.1046 23 75 23ZM65 37C65 36.4477 65.4477 36 66 36H74C74.5523 36 75 36.4477 75 37C75 37.5523 74.5523 38 74 38H66C65.4477 38 65 37.5523 65 37ZM66 33C65.4477 33 65 33.4477 65 34C65 34.5523 65.4477 35 66 35H74C74.5523 35 75 34.5523 75 34C75 33.4477 74.5523 33 74 33H66ZM72 31C72 30.4477 72.4477 30 73 30H74C74.5523 30 75 30.4477 75 31C75 31.5523 74.5523 32 74 32H73C72.4477 32 72 31.5523 72 31ZM73 27C72.4477 27 72 27.4477 72 28C72 28.5523 72.4477 29 73 29H74C74.5523 29 75 28.5523 75 28C75 27.4477 74.5523 27 74 27H73ZM65 28C65 26.8954 65.8954 26 67 26H69C70.1046 26 71 26.8954 71 28V30C71 31.1046 70.1046 32 69 32H67C65.8954 32 65 31.1046 65 30V28Z" fill="black"/>
<path d="M78 41H80.4C81.2837 41 82 40.1046 82 39V37C82 35.8954 81.2837 35 80.4 35H78V41Z" fill="black"/>
<path d="M26 36C25.4477 36 25 36.4477 25 37C25 37.5523 25.4477 38 26 38H34C34.5523 38 35 37.5523 35 37C35 36.4477 34.5523 36 34 36H26Z" fill="black"/>
<path d="M25 34C25 33.4477 25.4477 33 26 33H34C34.5523 33 35 33.4477 35 34C35 34.5523 34.5523 35 34 35H26C25.4477 35 25 34.5523 25 34Z" fill="black"/>
<path d="M33 30C32.4477 30 32 30.4477 32 31C32 31.5523 32.4477 32 33 32H34C34.5523 32 35 31.5523 35 31C35 30.4477 34.5523 30 34 30H33Z" fill="black"/>
<path d="M32 28C32 27.4477 32.4477 27 33 27H34C34.5523 27 35 27.4477 35 28C35 28.5523 34.5523 29 34 29H33C32.4477 29 32 28.5523 32 28Z" fill="black"/>
<path fill-rule="evenodd" clip-rule="evenodd" d="M27 26C25.8954 26 25 26.8954 25 28V30C25 31.1046 25.8954 32 27 32H29C30.1046 32 31 31.1046 31 30V28C31 26.8954 30.1046 26 29 26H27ZM27 28H29V30H27V28Z" fill="black"/>
<path fill-rule="evenodd" clip-rule="evenodd" d="M25 22C23.3431 22 22 23.3431 22 25V39C22 40.6569 23.3431 42 25 42H40C41.6569 42 43 40.6569 43 39V37C43 35.3431 41.6569 34 40 34H38V25C38 23.3431 36.6569 22 35 22H25ZM40 40H38V36H40C40.5523 36 41 36.4477 41 37V39C41 39.5523 40.5523 40 40 40ZM36 40H25C24.4477 40 24 39.5523 24 39V25C24 24.4477 24.4477 24 25 24H35C35.5523 24 36 24.4477 36 25V40Z" fill="black"/>
</svg>
