<svg width="104" height="64" viewBox="0 0 104 64" fill="none" xmlns="http://www.w3.org/2000/svg">
<path fill-rule="evenodd" clip-rule="evenodd" d="M28.176 24C27.8128 24 27.4782 24.1969 27.3018 24.5144L23.413 31.5144C23.2452 31.8164 23.2452 32.1836 23.413 32.4856L25.8803 36.9269L28.3347 33.4179C29.2209 32.151 30.9248 31.765 32.2704 32.5264L32.2872 32.5359L32.5785 32.7159L33.0588 32.0298C33.9937 30.6942 35.8241 30.3497 37.1806 31.254L37.1855 31.2573L39.5394 32.8468C39.7536 32.9915 39.9436 33.1594 40.108 33.3451L40.5854 32.4857C40.7532 32.1836 40.7532 31.8164 40.5854 31.5144L40.4142 31.2061C40.1459 30.7233 40.3199 30.1145 40.8027 29.8463C41.2854 29.5781 41.8942 29.752 42.1625 30.2348L42.3337 30.5431C42.8371 31.4491 42.8371 32.5509 42.3337 33.4569L40.5157 36.7293C40.5051 36.7496 40.4941 36.7698 40.4829 36.79L38.4449 40.4585C37.9445 41.3592 37.0196 41.9363 35.9992 41.9964V42.0016H27.9003V41.9889C26.9193 41.8986 26.0377 41.33 25.5535 40.4585L25.3767 40.1403C25.3655 40.12 25.3542 40.0993 25.343 40.078L21.6646 33.4569C21.1613 32.5509 21.1613 31.4491 21.6646 30.5431L25.5535 23.5431C26.0826 22.5907 27.0865 22 28.176 22H36.216C37.0747 22 37.8598 22.4852 38.2439 23.2533C38.4909 23.7473 38.2907 24.348 37.7967 24.595C37.3027 24.842 36.702 24.6417 36.455 24.1478C36.4098 24.0572 36.3172 24 36.216 24H28.176ZM31.782 40C31.0089 39.9574 30.5686 39.0748 31.0213 38.4281L34.6973 33.1767C35.0084 32.7322 35.6172 32.617 36.0691 32.9167L36.0712 32.9181L38.4201 34.5043C38.8389 34.7871 38.9793 35.3362 38.7533 35.7835L36.6965 39.4856C36.5202 39.8031 36.1856 40 35.8224 40H31.782ZM29.0108 40H28.176C27.8128 40 27.4782 39.8031 27.3018 39.4856L27.1043 39.1301C27.0692 39.0612 27.0498 39.0057 27.0407 38.9651C27.033 38.9305 27.0342 38.9141 27.0346 38.9106C27.0714 38.75 27.1249 38.6369 27.1619 38.584L29.9736 34.5642C30.2659 34.1463 30.8252 34.016 31.2714 34.2593L31.4297 34.3571L29.3828 37.2812C28.7802 38.1421 28.7051 39.1424 29.0108 40Z" fill="black"/>
<path d="M27.201 29.8172C27.0407 29.3361 26.6632 28.9586 26.1821 28.7983C25.6925 28.6351 25.6925 27.9425 26.1821 27.7793C26.6632 27.619 27.0407 27.2415 27.201 26.7604C27.3642 26.2708 28.0568 26.2708 28.22 26.7604C28.3803 27.2415 28.7578 27.619 29.2389 27.7793C29.7285 27.9425 29.7285 28.6351 29.2389 28.7983C28.7578 28.9586 28.3803 29.3361 28.22 29.8172C28.0568 30.3068 27.3642 30.3068 27.201 29.8172Z" fill="black"/>
<path d="M37.9992 26C37.4469 26 36.9992 26.4477 36.9992 27C36.9992 27.5523 37.4469 28 37.9992 28H41.9992C42.5515 28 42.9992 27.5523 42.9992 27C42.9992 26.4477 42.5515 26 41.9992 26H37.9992Z" fill="black"/>
<path d="M67.3018 24.5144C67.4782 24.1969 67.8128 24 68.176 24H76.216C76.3172 24 76.4098 24.0572 76.455 24.1478C76.702 24.6417 77.3027 24.842 77.7967 24.595C78.2907 24.348 78.4909 23.7473 78.2439 23.2533C77.8598 22.4852 77.0747 22 76.216 22H68.176C67.0865 22 66.0826 22.5907 65.5535 23.5431L61.6646 30.5431C61.1613 31.4491 61.1613 32.5509 61.6646 33.4569L65.5535 40.4569C66.0377 41.3284 66.9193 41.897 67.9003 41.9873V42H75.9992V41.9948C77.0196 41.9347 77.9445 41.3576 78.4449 40.4569L82.3337 33.4569C82.8371 32.5509 82.8371 31.4491 82.3337 30.543L82.1625 30.2348C81.8942 29.752 81.2854 29.5781 80.8027 29.8463C80.3199 30.1145 80.1459 30.7233 80.4142 31.2061L80.5854 31.5144C80.7532 31.8164 80.7532 32.1836 80.5854 32.4857L79.5755 34.3035C79.4295 34.0599 79.2293 33.8441 78.9797 33.6756L76.6259 32.0861C75.7216 31.4832 74.5013 31.7129 73.878 32.6033L72.8561 34.0631L71.7779 33.3967C70.8809 32.8891 69.7449 33.1464 69.1542 33.9911L66.4205 37.8993L63.413 32.4856C63.2452 32.1836 63.2452 31.8164 63.413 31.5144L67.3018 24.5144Z" fill="black"/>
<path d="M67.201 29.8172C67.0407 29.3361 66.6632 28.9586 66.1821 28.7983C65.6925 28.6351 65.6925 27.9425 66.1821 27.7793C66.6632 27.619 67.0407 27.2415 67.201 26.7604C67.3642 26.2708 68.0568 26.2708 68.22 26.7604C68.3803 27.2415 68.7578 27.619 69.2389 27.7793C69.7285 27.9425 69.7285 28.6351 69.2389 28.7983C68.7578 28.9586 68.3803 29.3361 68.22 29.8172C68.0568 30.3068 67.3642 30.3068 67.201 29.8172Z" fill="black"/>
<path d="M77.9992 26C77.4469 26 76.9992 26.4477 76.9992 27C76.9992 27.5523 77.4469 28 77.9992 28H81.9992C82.5515 28 82.9992 27.5523 82.9992 27C82.9992 26.4477 82.5515 26 81.9992 26H77.9992Z" fill="black"/>
</svg>
