<svg width="104" height="64" viewBox="0 0 104 64" fill="none" xmlns="http://www.w3.org/2000/svg">
<path fill-rule="evenodd" clip-rule="evenodd" d="M28.176 24C27.8128 24 27.4782 24.1969 27.3018 24.5144L23.413 31.5144C23.2452 31.8164 23.2452 32.1836 23.413 32.4856L25.8798 36.926L28.3347 33.4163C29.2209 32.1494 30.9248 31.7634 32.2704 32.5248C32.2816 32.5311 32.2927 32.5377 32.3037 32.5445L32.5785 32.7143L33.0588 32.0282C33.9937 30.6926 35.8241 30.3481 37.1806 31.2524L37.1855 31.2557L40.1548 33.2608L40.5854 32.4856C40.7532 32.1836 40.7532 31.8164 40.5854 31.5144L40.4142 31.2061C40.1459 30.7233 40.3199 30.1145 40.8027 29.8463C41.2855 29.5781 41.8943 29.752 42.1625 30.2348L42.3337 30.5431C42.8371 31.4491 42.8371 32.5509 42.3337 33.4569L38.4449 40.4569C37.9841 41.2862 37.1634 41.8413 36.2397 41.9709C36.1626 41.9899 36.0821 42 35.9992 42H27.9003C27.7706 42 27.6466 41.9753 27.5328 41.9303C26.7023 41.748 25.9763 41.218 25.5535 40.4569L25.1339 39.7015C25.1275 39.6905 25.1213 39.6794 25.1153 39.6682L21.6646 33.4569C21.1613 32.5509 21.1613 31.4491 21.6646 30.5431L25.5535 23.5431C26.0826 22.5907 27.0865 22 28.176 22H36.216C37.0747 22 37.8598 22.4852 38.2439 23.2533C38.4909 23.7473 38.2907 24.348 37.7967 24.595C37.3027 24.842 36.702 24.6417 36.455 24.1478C36.4098 24.0572 36.3172 24 36.216 24H28.176ZM27.0202 38.9787L27.3018 39.4856C27.4782 39.8031 27.8128 40 28.176 40H29.0113C28.705 39.142 28.7798 38.141 29.3828 37.2796L31.4297 34.3555L31.2714 34.2577C30.8252 34.0144 30.2659 34.1447 29.9736 34.5626L27.1619 38.5824C27.1069 38.6611 27.05 38.8137 27.0202 38.9787ZM31.0213 38.4265C30.5573 39.0893 31.0315 40 31.8405 40H35.8224C36.1856 40 36.5202 39.8031 36.6965 39.4856L39.1798 35.0157L36.0712 32.9165L36.0692 32.9152C35.6172 32.6154 35.0084 32.7306 34.6973 33.1751L31.0213 38.4265Z" fill="black"/>
<path d="M27.201 29.8172C27.0407 29.3361 26.6632 28.9586 26.1821 28.7983C25.6925 28.6351 25.6925 27.9425 26.1821 27.7793C26.6632 27.619 27.0407 27.2415 27.201 26.7604C27.3642 26.2708 28.0568 26.2708 28.22 26.7604C28.3803 27.2415 28.7578 27.619 29.2389 27.7793C29.7285 27.9425 29.7285 28.6351 29.2389 28.7983C28.7578 28.9586 28.3803 29.3361 28.22 29.8172C28.0568 30.3068 27.3642 30.3068 27.201 29.8172Z" fill="black"/>
<path d="M40.9992 24C40.9992 23.4477 40.5515 23 39.9992 23C39.4469 23 38.9992 23.4477 38.9992 24V25H37.9992C37.4469 25 36.9992 25.4477 36.9992 26C36.9992 26.5523 37.4469 27 37.9992 27H38.9992V28C38.9992 28.5523 39.4469 29 39.9992 29C40.5515 29 40.9992 28.5523 40.9992 28V27H41.9992C42.5515 27 42.9992 26.5523 42.9992 26C42.9992 25.4477 42.5515 25 41.9992 25H40.9992V24Z" fill="black"/>
<path d="M67.3018 24.5144C67.4782 24.1969 67.8128 24 68.176 24H76.216C76.7683 24 77.216 23.5523 77.216 23C77.216 22.4477 76.7683 22 76.216 22H68.176C67.0865 22 66.0826 22.5907 65.5535 23.5431L61.6646 30.5431C61.1613 31.4491 61.1613 32.5509 61.6646 33.4569L65.5535 40.4569C66.0377 41.3284 66.9193 41.897 67.9003 41.9873V42H75.9992V41.9948C77.0196 41.9347 77.9445 41.3576 78.4449 40.4569L82.3337 33.4569C82.8371 32.5509 82.8371 31.4491 82.3337 30.543L82.1625 30.2348C81.8942 29.752 81.2854 29.5781 80.8027 29.8463C80.3199 30.1145 80.1459 30.7233 80.4142 31.2061L80.5854 31.5144C80.7532 31.8164 80.7532 32.1836 80.5854 32.4857L79.5755 34.3035C79.4295 34.0599 79.2293 33.8441 78.9797 33.6756L76.6259 32.0861C75.7216 31.4832 74.5013 31.7129 73.878 32.6033L72.8561 34.0631L71.7779 33.3967C70.8809 32.8891 69.7449 33.1464 69.1542 33.9911L66.4205 37.8993L63.413 32.4856C63.2452 32.1836 63.2452 31.8164 63.413 31.5144L67.3018 24.5144Z" fill="black"/>
<path d="M66.1822 28.7983C66.6633 28.9586 67.0408 29.3361 67.2011 29.8172C67.3643 30.3068 68.0569 30.3068 68.2201 29.8172C68.3805 29.3361 68.758 28.9586 69.239 28.7983C69.7286 28.6351 69.7286 27.9425 69.239 27.7793C68.758 27.619 68.3805 27.2415 68.2201 26.7604C68.0569 26.2708 67.3643 26.2708 67.2011 26.7604C67.0408 27.2415 66.6633 27.619 66.1822 27.7793C65.6926 27.9425 65.6926 28.6351 66.1822 28.7983Z" fill="black"/>
<path d="M80.9992 24C80.9992 23.4477 80.5515 23 79.9992 23C79.4469 23 78.9992 23.4477 78.9992 24V25H77.9992C77.4469 25 76.9992 25.4477 76.9992 26C76.9992 26.5523 77.4469 27 77.9992 27H78.9992V28C78.9992 28.5523 79.4469 29 79.9992 29C80.5515 29 80.9992 28.5523 80.9992 28V27H81.9992C82.5515 27 82.9992 26.5523 82.9992 26C82.9992 25.4477 82.5515 25 81.9992 25H80.9992V24Z" fill="black"/>
</svg>
