<svg width="104" height="64" viewBox="0 0 104 64" fill="none" xmlns="http://www.w3.org/2000/svg">
<path fill-rule="evenodd" clip-rule="evenodd" d="M31.9992 26.5C29.7901 26.5 27.9992 28.2909 27.9992 30.5C27.9992 32.7091 29.7901 34.5 31.9992 34.5C34.2083 34.5 35.9992 32.7091 35.9992 30.5C35.9992 28.2909 34.2083 26.5 31.9992 26.5ZM29.9992 30.5C29.9992 29.3954 30.8946 28.5 31.9992 28.5C33.1038 28.5 33.9992 29.3954 33.9992 30.5C33.9992 31.6046 33.1038 32.5 31.9992 32.5C30.8946 32.5 29.9992 31.6046 29.9992 30.5Z" fill="black"/>
<path fill-rule="evenodd" clip-rule="evenodd" d="M28.176 22C27.0865 22 26.0826 22.5907 25.5535 23.5431L21.6646 30.5431C21.1613 31.4491 21.1613 32.5509 21.6646 33.4569L25.5535 40.4569C26.0826 41.4093 27.0865 42 28.176 42H35.8224C36.9119 42 37.9157 41.4093 38.4449 40.4569L42.3337 33.4569C42.8371 32.5509 42.8371 31.4491 42.3337 30.5431L38.4449 23.5431C37.9157 22.5907 36.9119 22 35.8224 22H28.176ZM27.3018 24.5144C27.4782 24.1969 27.8128 24 28.176 24H35.8224C36.1856 24 36.5202 24.1969 36.6965 24.5144L40.5854 31.5144C40.7532 31.8164 40.7532 32.1836 40.5854 32.4856L38.0214 37.1009C37.645 36.8823 37.1718 36.6212 36.6409 36.3591C35.3605 35.7271 33.5879 35.0092 32.005 35C30.5305 34.9914 28.8983 35.5946 27.6486 36.175C26.9961 36.478 26.4097 36.7932 25.9516 37.0552L23.413 32.4856C23.2452 32.1836 23.2452 31.8164 23.413 31.5144L27.3018 24.5144ZM35.7557 38.1526C36.2546 38.3988 36.6998 38.6454 37.0499 38.8496L36.6965 39.4856C36.5202 39.8031 36.1856 40 35.8224 40H28.176C27.8128 40 27.4782 39.8031 27.3018 39.4856L26.9229 38.8036C27.3431 38.5627 27.8868 38.2695 28.4909 37.9889C29.6882 37.4329 30.9833 36.9941 31.9934 37C33.0897 37.0064 34.5115 37.5385 35.7557 38.1526Z" fill="black"/>
<path d="M71.9992 34.5C73.9322 34.5 75.4992 32.933 75.4992 31C75.4992 29.067 73.9322 27.5 71.9992 27.5C70.0662 27.5 68.4992 29.067 68.4992 31C68.4992 32.933 70.0662 34.5 71.9992 34.5Z" fill="black"/>
<path fill-rule="evenodd" clip-rule="evenodd" d="M75.9992 41.9948C77.0196 41.9347 77.9445 41.3576 78.4449 40.4569L82.3337 33.4569C82.8371 32.5509 82.8371 31.4491 82.3337 30.5431L78.4449 23.5431C77.9157 22.5907 76.9119 22 75.8224 22H68.176C67.0865 22 66.0826 22.5907 65.5535 23.5431L61.6646 30.5431C61.1613 31.4491 61.1613 32.5509 61.6646 33.4569L65.5535 40.4569C66.0377 41.3284 66.9193 41.897 67.9003 41.9873V42H75.9992V41.9948ZM68.176 24C67.8128 24 67.4782 24.1969 67.3018 24.5144L63.413 31.5144C63.2452 31.8164 63.2452 32.1836 63.413 32.4856L66.4373 37.9294C67.7318 37.1882 70.119 35.9891 71.9992 36C73.8852 36.011 76.2819 37.2453 77.5356 37.9753L80.5854 32.4856C80.7532 32.1836 80.7532 31.8164 80.5854 31.5144L76.6965 24.5144C76.5202 24.1969 76.1856 24 75.8224 24H68.176Z" fill="black"/>
</svg>
