<svg width="104" height="64" viewBox="0 0 104 64" fill="none" xmlns="http://www.w3.org/2000/svg">
<path d="M26.1821 28.7983C26.6632 28.9586 27.0407 29.3361 27.201 29.8172C27.3642 30.3068 28.0568 30.3068 28.22 29.8172C28.3803 29.3361 28.7578 28.9586 29.2389 28.7983C29.7285 28.6351 29.7285 27.9425 29.2389 27.7793C28.7578 27.619 28.3803 27.2415 28.22 26.7604C28.0568 26.2708 27.3642 26.2708 27.201 26.7604C27.0407 27.2415 26.6632 27.619 26.1821 27.7793C25.6925 27.9425 25.6925 28.6351 26.1821 28.7983Z" fill="black"/>
<path fill-rule="evenodd" clip-rule="evenodd" d="M38.4449 40.4569C37.9445 41.3576 37.0196 41.9347 35.9992 41.9948V42H27.9003V41.9873C26.9193 41.897 26.0377 41.3284 25.5535 40.4569L21.6646 33.4569C21.1613 32.5509 21.1613 31.4491 21.6646 30.5431L25.5535 23.5431C26.0826 22.5907 27.0865 22 28.176 22H35.8224C36.9119 22 37.9157 22.5907 38.4449 23.5431L42.3337 30.5431C42.8371 31.4491 42.8371 32.5509 42.3337 33.4569L38.4449 40.4569ZM27.3018 24.5144C27.4782 24.1969 27.8128 24 28.176 24H35.8224C36.1856 24 36.5202 24.1969 36.6965 24.5144L40.5854 31.5144C40.7532 31.8164 40.7532 32.1836 40.5854 32.4856L40.1548 33.2608L37.1855 31.2557L37.1806 31.2524C35.8241 30.3481 33.9937 30.6926 33.0588 32.0282L32.5785 32.7143L32.2872 32.5343L32.2704 32.5248C30.9248 31.7634 29.2209 32.1494 28.3347 33.4163L25.8798 36.926L23.413 32.4856C23.2452 32.1836 23.2452 31.8164 23.413 31.5144L27.3018 24.5144ZM36.0712 32.9165L39.1798 35.0157L36.6965 39.4856C36.5202 39.8031 36.1856 40 35.8224 40H31.8405C31.0315 40 30.5573 39.0893 31.0213 38.4265L34.6973 33.1751C35.0084 32.7306 35.6172 32.6154 36.0692 32.9152L36.0712 32.9165ZM29.3828 37.2796C28.7798 38.141 28.705 39.142 29.0113 40H28.176C27.8128 40 27.4782 39.8031 27.3018 39.4856L27.0202 38.9787C27.05 38.8137 27.1069 38.6611 27.1619 38.5824L29.9736 34.5626C30.2659 34.1447 30.8252 34.0144 31.2714 34.2577L31.4297 34.3555L29.3828 37.2796Z" fill="black"/>
<path d="M67.201 29.8172C67.0407 29.3361 66.6632 28.9586 66.1821 28.7983C65.6925 28.6351 65.6925 27.9425 66.1821 27.7793C66.6632 27.619 67.0407 27.2415 67.201 26.7604C67.3642 26.2708 68.0568 26.2708 68.22 26.7604C68.3803 27.2415 68.7578 27.619 69.2389 27.7793C69.7285 27.9425 69.7285 28.6351 69.2389 28.7983C68.7578 28.9586 68.3803 29.3361 68.22 29.8172C68.0568 30.3068 67.3642 30.3068 67.201 29.8172Z" fill="black"/>
<path fill-rule="evenodd" clip-rule="evenodd" d="M75.9992 41.9948C77.0196 41.9347 77.9445 41.3576 78.4449 40.4569L82.3337 33.4569C82.8371 32.5509 82.8371 31.4491 82.3337 30.5431L78.4449 23.5431C77.9157 22.5907 76.9119 22 75.8224 22H68.176C67.0865 22 66.0826 22.5907 65.5535 23.5431L61.6646 30.5431C61.1613 31.4491 61.1613 32.5509 61.6646 33.4569L65.5535 40.4569C66.0377 41.3284 66.9193 41.897 67.9003 41.9873V42H75.9992V41.9948ZM68.176 24C67.8128 24 67.4782 24.1969 67.3018 24.5144L63.413 31.5144C63.2452 31.8164 63.2452 32.1836 63.413 32.4856L66.4205 37.8993L69.1542 33.9911C69.7449 33.1464 70.8809 32.8891 71.7779 33.3967L72.8561 34.0631L73.878 32.6033C74.5013 31.7129 75.7216 31.4832 76.6259 32.0861L78.9797 33.6756C79.2293 33.8441 79.4294 34.0599 79.5755 34.3035L80.5854 32.4856C80.7532 32.1836 80.7532 31.8164 80.5854 31.5144L76.6965 24.5144C76.5202 24.1969 76.1856 24 75.8224 24H68.176Z" fill="black"/>
</svg>
