<svg width="104" height="64" viewBox="0 0 104 64" fill="none" xmlns="http://www.w3.org/2000/svg">
<g clip-path="url(#clip0_8791_25007)">
<path d="M31.175 36.6516C30.0951 35.392 28.3272 33.4919 26.6039 32.1112C26.3315 31.893 25.9584 31.8429 25.6413 31.9887C22.6984 33.3419 23.3686 34.927 24.0389 40.9592C24.2149 42.5434 27.1147 39.9641 30.9267 37.8891C31.3807 37.642 31.5114 37.044 31.175 36.6516ZM31.175 36.6516C33.9531 33.8735 40.1522 26.9668 41.2085 23.2035C41.3578 22.6718 40.9109 22.2372 40.3873 22.4128C36.9532 23.5649 29.8643 29.6055 26.948 32.3932" stroke="black" stroke-width="2" stroke-linejoin="round"/>
</g>
<path d="M81.2081 23.2036C80.2634 26.5692 75.2053 32.4489 72.1597 35.6412C71.0162 34.3586 69.5241 32.796 67.9831 31.4279C71.2977 28.4029 77.3096 23.4452 80.3868 22.4129C80.9104 22.2372 81.3573 22.6718 81.2081 23.2036Z" fill="black"/>
<path d="M67.7307 39.8043C68.6754 39.208 69.7579 38.5248 70.9262 37.8889C71.3801 37.6418 71.5108 37.0438 71.1744 36.6514C70.0945 35.3919 68.3266 33.4917 66.6033 32.111C66.331 31.8928 65.9578 31.8427 65.6408 31.9885C63.0878 33.1624 63.2538 34.5107 63.7802 38.7852C63.8606 39.4383 63.9495 40.1596 64.0383 40.959C64.1604 42.0578 65.5926 41.1538 67.7307 39.8043Z" fill="black"/>
<defs>
<clipPath id="clip0_8791_25007">
<rect width="24" height="24" fill="white" transform="translate(20 20)"/>
</clipPath>
</defs>
</svg>
