<svg width="104" height="64" viewBox="0 0 104 64" fill="none" xmlns="http://www.w3.org/2000/svg">
<path fill-rule="evenodd" clip-rule="evenodd" d="M23.3403 27.29C22.0242 28.0499 22.0029 29.942 23.3016 30.7312L23.8953 31.092C24.1823 31.2665 24.4208 31.5103 24.5887 31.8012L28.8232 39.1356C29.9278 41.0487 32.3741 41.7043 34.2873 40.5997L39.9048 37.3564C41.8179 36.2519 42.4734 33.8055 41.3689 31.8923L35.8689 22.3661C35.3166 21.4095 34.0934 21.0817 33.1368 21.634L23.3403 27.29ZM24.3403 29.0221L34.1368 23.3661L39.6368 32.8923C40.1891 33.8489 39.8614 35.0721 38.9048 35.6244L33.2873 38.8676C32.3307 39.4199 31.1075 39.0922 30.5553 38.1356L26.3207 30.8012C25.9849 30.2195 25.508 29.7317 24.934 29.3829L24.3403 29.0221Z" fill="black"/>
<path fill-rule="evenodd" clip-rule="evenodd" d="M25.6911 36.4151C25.9679 37.2456 25.7517 38.1611 25.1328 38.7801C24.2302 39.6826 22.767 39.6826 21.8645 38.7801C21.2455 38.1611 21.0293 37.2456 21.3062 36.4151L22.0756 34.1068C22.5314 32.7393 24.4658 32.7393 24.9216 34.1068L25.6911 36.4151ZM23.2035 37.0476L23.4986 36.1623L23.7937 37.0476C23.831 37.1593 23.8019 37.2826 23.7186 37.3659C23.5971 37.4873 23.4001 37.4873 23.2787 37.3659C23.1954 37.2826 23.1663 37.1593 23.2035 37.0476Z" fill="black"/>
<path d="M63.8403 28.1559L73.6368 22.4999C74.1151 22.2237 74.7267 22.3876 75.0028 22.8659L80.5028 32.3922C81.3312 33.827 80.8396 35.6618 79.4047 36.4902L73.7873 39.7335C72.3524 40.5619 70.5176 40.0703 69.6892 38.6354L65.4547 31.301C65.2028 30.8647 64.8451 30.4989 64.4146 30.2373L63.8209 29.8765C63.1716 29.4819 63.1822 28.5358 63.8403 28.1559Z" fill="black"/>
<path d="M63.0242 34.4229L62.2548 36.7312C62.0978 37.2023 62.2204 37.7217 62.5715 38.0728C63.0835 38.5848 63.9136 38.5848 64.4256 38.0728C64.7768 37.7217 64.8994 37.2023 64.7424 36.7312L63.9729 34.4229C63.821 33.967 63.1762 33.967 63.0242 34.4229Z" fill="black"/>
</svg>
