<svg width="104" height="64" viewBox="0 0 104 64" fill="none" xmlns="http://www.w3.org/2000/svg">
<path d="M36.4992 31C37.3276 31 37.9992 30.3284 37.9992 29.5C37.9992 28.6716 37.3276 28 36.4992 28C35.6708 28 34.9992 28.6716 34.9992 29.5C34.9992 30.3284 35.6708 31 36.4992 31Z" fill="black"/>
<path d="M30.9992 28.5C30.9992 29.3284 30.3276 30 29.4992 30C28.6708 30 27.9992 29.3284 27.9992 28.5C27.9992 27.6716 28.6708 27 29.4992 27C30.3276 27 30.9992 27.6716 30.9992 28.5Z" fill="black"/>
<path d="M27.4992 36C28.3276 36 28.9992 35.3284 28.9992 34.5C28.9992 33.6716 28.3276 33 27.4992 33C26.6708 33 25.9992 33.6716 25.9992 34.5C25.9992 35.3284 26.6708 36 27.4992 36Z" fill="black"/>
<path fill-rule="evenodd" clip-rule="evenodd" d="M39.4986 38.5C41.2888 38.5 42.3746 37.0092 42.8656 35.4675C43.3756 33.866 43.4134 31.8139 42.9055 29.8161C42.3951 27.8083 41.3141 25.7798 39.503 24.2837C37.6776 22.7758 35.1795 21.8666 31.957 22.0009C28.5077 22.1446 25.9157 23.18 24.118 24.7993C22.3211 26.4181 21.4007 28.5463 21.1639 30.7211C20.7004 34.9783 22.8528 39.6786 26.5656 41.4015C27.2544 41.7435 28.1782 42.025 29.1048 42.2021C30.0374 42.3803 31.0595 42.4695 31.9353 42.3717C32.3721 42.3229 32.825 42.2221 33.224 42.0248C33.6299 41.824 34.0374 41.4922 34.2469 40.9682C34.4566 40.4435 34.401 39.8934 34.2162 39.3913C34.0344 38.8972 33.7075 38.3877 33.2676 37.8598C32.8227 37.326 32.8449 37.0801 32.8499 37.0472C32.8552 37.0128 32.8912 36.8869 33.1764 36.7008C33.2148 36.6758 33.2921 36.6393 33.4959 36.6693C33.7174 36.7018 34.004 36.8022 34.3714 36.9761C34.6414 37.1039 34.9065 37.2469 35.1925 37.4012C35.2979 37.4581 35.4062 37.5165 35.5186 37.5762C35.907 37.7826 36.3519 38.0087 36.7872 38.148C37.4933 38.3739 38.3821 38.5 39.4986 38.5ZM32.0403 23.9991C34.8181 23.8834 36.8202 24.6617 38.2292 25.8257C39.6526 27.0014 40.5402 28.6292 40.9672 30.3089C41.3967 31.9986 41.3406 33.6653 40.9599 34.8606C40.5601 36.1158 39.9583 36.5 39.4986 36.5C38.5228 36.5 37.8514 36.3886 37.3967 36.2432C37.15 36.1642 36.846 36.0168 36.4573 35.8102C36.3698 35.7637 36.2773 35.7137 36.1812 35.6619C35.8823 35.5006 35.549 35.3208 35.2271 35.1684C34.7994 34.9659 34.3012 34.7662 33.7868 34.6905C33.2546 34.6123 32.6448 34.6596 32.0835 35.0259C31.5644 35.3646 30.9996 35.9143 30.8728 36.7457C30.7458 37.5785 31.1048 38.3886 31.7311 39.1402C32.0914 39.5725 32.2657 39.8822 32.3392 40.0819C32.3606 40.1401 32.3713 40.1823 32.3764 40.2111C32.3661 40.2172 32.3532 40.2242 32.3374 40.232C32.2208 40.2897 32.0182 40.35 31.7133 40.3841C31.1054 40.452 30.298 40.3939 29.4803 40.2376C28.663 40.0814 27.9222 39.8438 27.446 39.6056L27.432 39.5986L27.4178 39.5921C24.6392 38.3096 22.7601 34.5387 23.1522 30.9375C23.3435 29.1803 24.0747 27.5302 25.4566 26.2853C26.8379 25.0411 28.952 24.1278 32.0403 23.9991ZM32.4149 40.1837L32.4141 40.1844L32.4122 40.1864L32.4149 40.1837C32.415 40.1836 32.4149 40.1837 32.4149 40.1837Z" fill="black"/>
<path fill-rule="evenodd" clip-rule="evenodd" d="M66.9992 40.5C60.4992 37.5 58.9242 23.5448 71.9992 23C83.9999 22.5 83.9991 37.5 79.4991 37.5C78.453 37.5 77.6729 37.3813 77.0925 37.1956C76.6642 37.0586 76.1833 36.7991 75.6878 36.5318C74.6052 35.9477 73.4534 35.3264 72.6305 35.8634C71.8262 36.3882 71.4287 37.2146 72.4999 38.5C75.7008 42.3411 69.3323 41.6667 66.9992 40.5ZM76.4998 31C77.3282 31 77.9998 30.3284 77.9998 29.5C77.9998 28.6716 77.3282 28 76.4998 28C75.6713 28 74.9998 28.6716 74.9998 29.5C74.9998 30.3284 75.6713 31 76.4998 31ZM70.9998 28C70.9998 28.8284 70.3282 29.5 69.4998 29.5C68.6713 29.5 67.9998 28.8284 67.9998 28C67.9998 27.1716 68.6713 26.5 69.4998 26.5C70.3282 26.5 70.9998 27.1716 70.9998 28ZM67.4998 36C68.3282 36 68.9998 35.3284 68.9998 34.5C68.9998 33.6716 68.3282 33 67.4998 33C66.6713 33 65.9998 33.6716 65.9998 34.5C65.9998 35.3284 66.6713 36 67.4998 36Z" fill="black"/>
</svg>
