<svg width="104" height="64" viewBox="0 0 104 64" fill="none" xmlns="http://www.w3.org/2000/svg">
<path d="M35.3894 27.4039C36.1705 26.6228 37.4368 26.6228 38.2179 27.4039C38.9989 28.1849 38.9989 29.4513 38.2179 30.2323L30.7932 37.6569C29.4264 39.0238 27.2103 39.0238 25.8435 37.6569C24.4767 36.2901 24.4767 34.074 25.8435 32.7072L33.162 25.3886C33.5526 24.9981 33.5526 24.3649 33.162 23.9744C32.7715 23.5839 32.1384 23.5839 31.7478 23.9744L24.4293 31.293C22.2814 33.4409 22.2814 36.9233 24.4293 39.0711C26.5772 41.219 30.0596 41.219 32.2074 39.0711L39.6321 31.6465C41.1942 30.0844 41.1942 27.5518 39.6321 25.9897C38.07 24.4276 35.5373 24.4276 33.9752 25.9897L26.3385 33.6264C25.3621 34.6027 25.3621 36.1856 26.3385 37.162C27.3148 38.1383 28.8977 38.1383 29.874 37.162L37.4047 29.6313C37.7952 29.2407 37.7952 28.6076 37.4047 28.2171C37.0142 27.8265 36.381 27.8265 35.9905 28.2171L28.4598 35.7477C28.2645 35.943 27.9479 35.943 27.7527 35.7477C27.5574 35.5525 27.5574 35.2359 27.7527 35.0406L35.3894 27.4039Z" fill="black"/>
<path d="M75.3894 27.4039C76.1705 26.6228 77.4368 26.6228 78.2179 27.4039C78.9989 28.1849 78.9989 29.4513 78.2179 30.2323L70.7932 37.6569C69.4264 39.0238 67.2103 39.0238 65.8435 37.6569C64.4767 36.2901 64.4767 34.074 65.8435 32.7072L73.162 25.3886C73.5526 24.9981 73.5526 24.3649 73.162 23.9744C72.7715 23.5839 72.1384 23.5839 71.7478 23.9744L64.4293 31.293C62.2814 33.4409 62.2814 36.9233 64.4293 39.0711C66.5772 41.219 70.0596 41.219 72.2074 39.0711L79.6321 31.6465C81.1942 30.0844 81.1942 27.5518 79.6321 25.9897C78.07 24.4276 75.5373 24.4276 73.9752 25.9897L66.3385 33.6264C65.3621 34.6027 65.3621 36.1856 66.3385 37.162C67.3148 38.1383 68.8977 38.1383 69.874 37.162L77.4047 29.6313C77.7952 29.2407 77.7952 28.6076 77.4047 28.2171C77.0142 27.8265 76.381 27.8265 75.9905 28.2171L68.4598 35.7477C68.2645 35.943 67.9479 35.943 67.7527 35.7477C67.5574 35.5525 67.5574 35.2359 67.7527 35.0406L75.3894 27.4039Z" fill="black"/>
</svg>
