<svg width="104" height="64" viewBox="0 0 104 64" fill="none" xmlns="http://www.w3.org/2000/svg">
<path d="M23 23.5H41" stroke="black" stroke-width="2" stroke-linecap="round" stroke-linejoin="round"/>
<path d="M23 40.5H41" stroke="black" stroke-width="2" stroke-linecap="round" stroke-linejoin="round"/>
<path d="M27 38L29 33.2M37 38L35 33.2M35 33.2L32.1846 26.4431C32.1162 26.279 31.8838 26.279 31.8154 26.4431L29 33.2M35 33.2H29" stroke="black" stroke-width="2" stroke-linecap="round" stroke-linejoin="round"/>
<path d="M63 23.5H81" stroke="black" stroke-width="2" stroke-linecap="round" stroke-linejoin="round"/>
<path d="M63 40.5H81" stroke="black" stroke-width="2" stroke-linecap="round" stroke-linejoin="round"/>
<path d="M67 38L69 33.2M77 38L75 33.2M75 33.2L72.1846 26.4431C72.1162 26.279 71.8838 26.279 71.8154 26.4431L69 33.2M75 33.2H69" stroke="black" stroke-width="2" stroke-linecap="round" stroke-linejoin="round"/>
</svg>
