<svg width="104" height="64" viewBox="0 0 104 64" fill="none" xmlns="http://www.w3.org/2000/svg">
<path fill-rule="evenodd" clip-rule="evenodd" d="M25 23C22.7909 23 21 24.7909 21 27V37C21 39.2091 22.7909 41 25 41H27C29.2091 41 31 39.2091 31 37V27C31 24.7909 29.2091 23 27 23H25ZM23 27C23 25.8954 23.8954 25 25 25H27C28.1046 25 29 25.8954 29 27V37C29 38.1046 28.1046 39 27 39H25C23.8954 39 23 38.1046 23 37V27Z" fill="black"/>
<path fill-rule="evenodd" clip-rule="evenodd" d="M36 23C33.7909 23 32 24.7909 32 27V37C32 39.2091 33.7909 41 36 41H38C40.2091 41 42 39.2091 42 37V27C42 24.7909 40.2091 23 38 23H36ZM34 27C34 25.8954 34.8954 25 36 25H38C39.1046 25 40 25.8954 40 27V37C40 38.1046 39.1046 39 38 39H36C34.8954 39 34 38.1046 34 37V27Z" fill="black"/>
<path d="M65 24H67C68.6569 24 70 25.3431 70 27V37C70 38.6569 68.6569 40 67 40H65C63.3431 40 62 38.6569 62 37V27C62 25.3431 63.3431 24 65 24Z" fill="black"/>
<path d="M76 24H78C79.6569 24 81 25.3431 81 27V37C81 38.6569 79.6569 40 78 40H76C74.3431 40 73 38.6569 73 37V27C73 25.3431 74.3431 24 76 24Z" fill="black"/>
</svg>
