<svg width="104" height="64" viewBox="0 0 104 64" fill="none" xmlns="http://www.w3.org/2000/svg">
<path fill-rule="evenodd" clip-rule="evenodd" d="M21.25 27.3999C21.25 25.1908 23.0409 23.3999 25.25 23.3999H35.25C37.4591 23.3999 39.25 25.1908 39.25 27.3999V31C39.25 31.1003 39.2352 31.1972 39.2077 31.2885C40.0736 31.7291 40.6667 32.6286 40.6667 33.6667V34.0245C41.455 34.399 42 35.2025 42 36.1333V38C42 39.1046 41.1046 40 40 40H36C34.9629 40 34.1101 39.2106 34.0099 38.1999C34.0066 38.1999 34.0033 38.1999 34 38.1999H31.25V38.6H32.5C33.0523 38.6 33.5 39.0477 33.5 39.6C33.5 40.1522 33.0523 40.6 32.5 40.6H28C27.4477 40.6 27 40.1522 27 39.6C27 39.0477 27.4477 38.6 28 38.6H29.25V38.1999H25.25C23.0409 38.1999 21.25 36.409 21.25 34.1999V27.3999ZM34 36.1999V36.1333C34 35.2025 34.545 34.399 35.3333 34.0245V33.6667C35.3333 32.4523 36.145 31.4275 37.2555 31.1053C37.2519 31.0707 37.25 31.0356 37.25 31V27.3999C37.25 26.2953 36.3546 25.3999 35.25 25.3999H25.25C24.1454 25.3999 23.25 26.2953 23.25 27.3999V34.1999C23.25 35.3045 24.1454 36.1999 25.25 36.1999H34ZM37.3333 33.6667C37.3333 33.2985 37.6318 33 38 33C38.3682 33 38.6667 33.2985 38.6667 33.6667V33.8H37.3333V33.6667ZM36 36.1333C36 35.9492 36.1492 35.8 36.3333 35.8H39.6667C39.8508 35.8 40 35.9492 40 36.1333V38H36V36.1333Z" fill="black"/>
<path d="M65 24.8999H75C76.6569 24.8999 78 26.243 78 27.8999V31.2659C77.9181 31.2554 77.8347 31.25 77.75 31.25C76.6761 31.25 75.8056 32.1206 75.8056 33.1944V34.45C74.9464 34.45 74.25 35.1464 74.25 36.0056V37.6999H71.25V38.6H72.5C73.0523 38.6 73.5 39.0477 73.5 39.6C73.5 40.1522 73.0523 40.6 72.5 40.6H68C67.4477 40.6 67 40.1522 67 39.6C67 39.0477 67.4477 38.6 68 38.6H69.25V37.6999H65C63.3431 37.6999 62 36.3568 62 34.6999V27.8999C62 26.2431 63.3431 24.8999 65 24.8999Z" fill="black"/>
<path fill-rule="evenodd" clip-rule="evenodd" d="M75 38.6667V36.3222C75 35.4631 75.6964 34.7667 76.5556 34.7667V33.9444C76.5556 32.8706 77.4261 32 78.5 32C79.5739 32 80.4444 32.8706 80.4444 33.9444V34.7667C81.3036 34.7667 82 35.4631 82 36.3222V38.6667C82 39.219 81.5523 39.6667 81 39.6667H76C75.4477 39.6667 75 39.219 75 38.6667ZM78.5 33.25C78.7761 33.25 79 33.4739 79 33.75V34.65H78V33.75C78 33.4739 78.2239 33.25 78.5 33.25Z" fill="black"/>
</svg>
