<svg width="104" height="64" viewBox="0 0 104 64" fill="none" xmlns="http://www.w3.org/2000/svg">
<path fill-rule="evenodd" clip-rule="evenodd" d="M36.25 33.5C36.25 32.5335 37.0335 31.75 38 31.75C38.9665 31.75 39.75 32.5335 39.75 33.5C39.75 34.4665 38.9665 35.25 38 35.25C37.0335 35.25 36.25 34.4665 36.25 33.5ZM38 33.75C38.1381 33.75 38.25 33.6381 38.25 33.5C38.25 33.3619 38.1381 33.25 38 33.25C37.8619 33.25 37.75 33.3619 37.75 33.5C37.75 33.6381 37.8619 33.75 38 33.75Z" fill="black"/>
<path fill-rule="evenodd" clip-rule="evenodd" d="M38 35.25C38.9665 35.25 39.75 36.0335 39.75 37C39.75 37.9665 38.9665 38.75 38 38.75C37.0335 38.75 36.25 37.9665 36.25 37C36.25 36.0335 37.0335 35.25 38 35.25ZM38.25 37C38.25 37.1381 38.1381 37.25 38 37.25C37.8619 37.25 37.75 37.1381 37.75 37C37.75 36.8619 37.8619 36.75 38 36.75C38.1381 36.75 38.25 36.8619 38.25 37Z" fill="black"/>
<path fill-rule="evenodd" clip-rule="evenodd" d="M21.25 27.3999C21.25 25.1908 23.0409 23.3999 25.25 23.3999H35.25C37.4591 23.3999 39.25 25.1908 39.25 27.3999V29.25H39.5975C41.1961 29.25 42.5139 30.5036 42.5938 32.1002L42.8938 38.1002C42.9794 39.8137 41.6132 41.25 39.8975 41.25H36.1025C34.9795 41.25 34.0062 40.6346 33.4918 39.7289C33.4285 40.2203 33.0086 40.6 32.5 40.6H28C27.4477 40.6 27 40.1522 27 39.6C27 39.0477 27.4477 38.6 28 38.6H29.25V38.1999H25.25C23.0409 38.1999 21.25 36.409 21.25 34.1999V27.3999ZM33.1624 38.8508C33.1197 38.6407 33.099 38.4229 33.1029 38.1999H31.25V38.6H32.5C32.7541 38.6 32.986 38.6947 33.1624 38.8508ZM33.2013 36.1999L33.4062 32.1002C33.4861 30.5036 34.8039 29.25 36.4025 29.25H37.25V27.3999C37.25 26.2953 36.3546 25.3999 35.25 25.3999H25.25C24.1454 25.3999 23.25 26.2953 23.25 27.3999V34.1999C23.25 35.3045 24.1454 36.1999 25.25 36.1999H33.2013ZM35.4037 32.2001C35.4304 31.6679 35.8696 31.25 36.4025 31.25H39.5975C40.1304 31.25 40.5696 31.6679 40.5963 32.2001L40.8963 38.2001C40.9248 38.7712 40.4694 39.25 39.8975 39.25H36.1025C35.5306 39.25 35.0752 38.7712 35.1037 38.2001L35.4037 32.2001Z" fill="black"/>
<path d="M75.25 24.3999H65.25C63.5931 24.3999 62.25 25.7431 62.25 27.3999V34.1999C62.25 35.8568 63.5931 37.1999 65.25 37.1999H69.25C69.25 37.1999 69.25 37.1999 69.25 37.1999V38.6H68C67.4477 38.6 67 39.0477 67 39.6C67 40.1522 67.4477 40.6 68 40.6H72.5C73.0523 40.6 73.5 40.1522 73.5 39.6C73.5 39.0477 73.0523 38.6 72.5 38.6H71.25V37.2C71.25 37.1999 71.25 37.2 71.25 37.2L73.4188 37.1999L73.6912 31.8723C73.7592 30.543 74.8568 29.5 76.1879 29.5H78.25V27.3999C78.25 25.743 76.9069 24.3999 75.25 24.3999Z" fill="black"/>
<path fill-rule="evenodd" clip-rule="evenodd" d="M79.5975 30.25H76.4025C75.3367 30.25 74.4582 31.0857 74.405 32.1501L74.105 38.1501C74.0479 39.2925 74.9587 40.25 76.1025 40.25H79.8975C81.0413 40.25 81.9521 39.2925 81.895 38.1501L81.595 32.1501C81.5418 31.0857 80.6633 30.25 79.5975 30.25ZM79.25 33.5C79.25 34.1904 78.6904 34.75 78 34.75C77.3097 34.75 76.75 34.1904 76.75 33.5C76.75 32.8096 77.3097 32.25 78 32.25C78.6904 32.25 79.25 32.8096 79.25 33.5ZM78 38.25C78.6904 38.25 79.25 37.6904 79.25 37C79.25 36.3096 78.6904 35.75 78 35.75C77.3097 35.75 76.75 36.3096 76.75 37C76.75 37.6904 77.3097 38.25 78 38.25Z" fill="black"/>
</svg>
