<svg width="104" height="64" viewBox="0 0 104 64" fill="none" xmlns="http://www.w3.org/2000/svg">
<path fill-rule="evenodd" clip-rule="evenodd" d="M25.25 23.3999C23.0409 23.3999 21.25 25.1908 21.25 27.3999V34.1999C21.25 36.409 23.0409 38.1999 25.25 38.1999H29.25V38.5999H27.5C26.9477 38.5999 26.5 39.0476 26.5 39.5999C26.5 40.1522 26.9477 40.5999 27.5 40.5999H33C33.5522 40.5999 34 40.1522 34 39.5999C34 39.0476 33.5522 38.5999 33 38.5999H31.25V38.1999H34.1516C34.0621 38.3892 34.0029 38.604 34.0001 38.8402C33.9958 39.208 34.1296 39.5187 34.3049 39.7541C34.6199 40.177 35.1094 40.4171 35.4808 40.5593C36.2724 40.8625 37.2934 41 38 41C38.7066 41 39.7276 40.8625 40.5192 40.5593C40.8906 40.4171 41.3801 40.177 41.6951 39.7541C41.8704 39.5187 42.0042 39.208 41.9999 38.8402C41.9957 38.479 41.8595 38.168 41.6847 37.9216C41.1125 37.1145 40.0678 36.315 38.7847 36.0735C38.8092 36.0275 38.8327 35.981 38.8554 35.9339C38.866 35.9119 38.8757 35.8898 38.8845 35.8675C40.1096 35.49 41 34.349 41 33C41 31.7893 40.2828 30.746 39.25 30.272V27.3999C39.25 25.1908 37.4591 23.3999 35.25 23.3999H25.25ZM35 33C35 34.1573 35.6553 35.1615 36.615 35.6619C36.2571 35.9962 35.7769 36.1999 35.25 36.1999H25.25C24.1454 36.1999 23.25 35.3045 23.25 34.1999V27.3999C23.25 26.2953 24.1454 25.3999 25.25 25.3999H35.25C36.3546 25.3999 37.25 26.2953 37.25 27.3999V30.0945C35.9561 30.4275 35 31.6021 35 33ZM38 32C37.4477 32 37 32.4477 37 33C37 33.5523 37.4477 34 38 34C38.5523 34 39 33.5523 39 33C39 32.4477 38.5523 32 38 32ZM36.2671 38.7177C36.7782 38.898 37.5014 39 38 39C38.4986 39 39.2218 38.898 39.7329 38.7177C39.305 38.3221 38.675 38 38 38C37.325 38 36.695 38.3221 36.2671 38.7177Z" fill="black"/>
<path d="M65.25 24.3999H75.25C76.9069 24.3999 78.25 25.743 78.25 27.3999V30.0088C78.1674 30.003 78.0841 30 78 30C76.067 30 74.5 31.567 74.5 33.5C74.5 34.4621 74.8882 35.3335 75.5164 35.9661C75.0762 36.3351 74.7128 36.7706 74.4407 37.1999H71.25V38.5999C71.8023 38.5999 72.25 39.0476 72.25 39.5999C72.25 40.1522 71.8023 40.5999 71.25 40.5999H67.05C66.4977 40.5999 66.05 40.1522 66.05 39.5999C66.05 39.0476 66.4977 38.5999 67.05 38.5999H69.25V37.1999L65.25 37.1999C63.5931 37.1999 62.25 35.8568 62.25 34.1999V27.3999C62.25 25.7431 63.5931 24.3999 65.25 24.3999Z" fill="black"/>
<path fill-rule="evenodd" clip-rule="evenodd" d="M75.5 33.5C75.5 31.9812 76.7312 30.75 78.25 30.75C79.7688 30.75 81 31.9812 81 33.5C81 34.589 80.367 35.5302 79.4488 35.9756C80.3824 36.3347 81.102 37.0647 81.5018 37.7413C81.6471 37.9871 81.7468 38.2747 81.7499 38.5922C81.7531 38.9137 81.6562 39.1994 81.5105 39.4341C81.2407 39.8689 80.8073 40.1286 80.4689 40.2841C79.7685 40.606 78.8749 40.75 78.25 40.75C77.6251 40.75 76.7315 40.606 76.0311 40.2841C75.6927 40.1286 75.2593 39.8689 74.9895 39.4341C74.8438 39.1994 74.7469 38.9137 74.7501 38.5922C74.7532 38.2747 74.8529 37.9871 74.9982 37.7413C75.398 37.0647 76.1176 36.3347 77.0512 35.9756C76.133 35.5302 75.5 34.589 75.5 33.5ZM78.25 32.75C77.8358 32.75 77.5 33.0858 77.5 33.5C77.5 33.9142 77.8358 34.25 78.25 34.25C78.6642 34.25 79 33.9142 79 33.5C79 33.0858 78.6642 32.75 78.25 32.75ZM78.25 37.75C77.7696 37.75 77.2597 38.0589 76.9105 38.4865C77.2976 38.6524 77.8658 38.75 78.25 38.75C78.6342 38.75 79.2024 38.6524 79.5895 38.4865C79.2403 38.0589 78.7304 37.75 78.25 37.75Z" fill="black"/>
</svg>
