<svg width="104" height="64" viewBox="0 0 104 64" fill="none" xmlns="http://www.w3.org/2000/svg">
<path fill-rule="evenodd" clip-rule="evenodd" d="M25 21.5C22.7909 21.5 21 23.2909 21 25.5V35.5C21 37.7091 22.7909 39.5 25 39.5H31V40.5H28C27.4477 40.5 27 40.9477 27 41.5C27 42.0523 27.4477 42.5 28 42.5H36C36.5523 42.5 37 42.0523 37 41.5C37 40.9477 36.5523 40.5 36 40.5H33V39.5H39C41.2091 39.5 43 37.7091 43 35.5V25.5C43 23.2909 41.2091 21.5 39 21.5H25ZM39 37.5C40.1046 37.5 41 36.6046 41 35.5V25.5C41 24.3954 40.1046 23.5 39 23.5H25C23.8954 23.5 23 24.3954 23 25.5V35.5C23 36.6046 23.8954 37.5 25 37.5H39Z" fill="black"/>
<path d="M65 22.5H79C80.6569 22.5 82 23.8431 82 25.5V35.5C82 37.1569 80.6569 38.5 79 38.5H73V40.5H76C76.5523 40.5 77 40.9477 77 41.5C77 42.0523 76.5523 42.5 76 42.5H68C67.4477 42.5 67 42.0523 67 41.5C67 40.9477 67.4477 40.5 68 40.5H71V38.5H65C63.3431 38.5 62 37.1569 62 35.5V25.5C62 23.8431 63.3431 22.5 65 22.5Z" fill="black"/>
</svg>
