<svg width="104" height="64" viewBox="0 0 104 64" fill="none" xmlns="http://www.w3.org/2000/svg">
<path d="M35.1837 23.6616C36.7458 22.0995 39.2788 22.0995 40.8409 23.6616C42.4026 25.2236 42.4026 27.7558 40.8409 29.3178L30.2335 39.9243C29.6215 40.5363 28.8276 40.9337 27.9708 41.0561L25.3312 41.4331C24.0114 41.6215 22.881 40.4902 23.0695 39.1704L23.4454 36.5307C23.5678 35.674 23.9653 34.88 24.5773 34.268L35.1837 23.6616ZM25.9913 35.6821C25.6853 35.9881 25.4871 36.3855 25.4259 36.8139L25.049 39.4536L27.6876 39.0757C28.116 39.0145 28.5135 38.8162 28.8195 38.5102L38.087 29.2426L35.2589 26.4145L25.9913 35.6821ZM39.4259 25.0757C38.6701 24.32 37.462 24.2976 36.6769 25.0044L39.4972 27.8247C40.204 27.0395 40.1817 25.8314 39.4259 25.0757Z" fill="black"/>
<path d="M64.4343 36.6721L64.0572 39.3119C63.9629 39.9719 64.5286 40.5376 65.1886 40.4433L67.8284 40.0662C68.471 39.9744 69.0665 39.6767 69.5255 39.2177L78.7933 29.9498C78.7933 29.9499 78.7933 29.9498 78.7933 29.9498L74.5507 25.7072L65.2828 34.975C64.8239 35.434 64.5261 36.0295 64.4343 36.6721Z" fill="black"/>
<path d="M75.9662 24.2943L80.2062 28.5343C81.3031 27.358 81.2784 25.5147 80.1321 24.3684C78.9858 23.2221 77.1426 23.1974 75.9662 24.2943Z" fill="black"/>
</svg>
