<svg width="104" height="64" viewBox="0 0 104 64" fill="none" xmlns="http://www.w3.org/2000/svg">
<path fill-rule="evenodd" clip-rule="evenodd" d="M40.5961 22.91C39.2495 21.5634 37.0662 21.5634 35.7196 22.91L27.1942 31.4355C26.5822 32.0474 26.1852 32.8414 26.0628 33.6982L25.8157 35.4276C25.6272 36.7475 26.7585 37.8789 28.0785 37.6903L29.8078 37.4433C30.6646 37.3209 31.4586 36.9239 32.0706 36.3119L40.5961 27.7864C41.9426 26.4398 41.9426 24.2566 40.5961 22.91ZM37.3433 24.1505C37.907 23.7663 38.6818 23.8241 39.1818 24.3242C39.6819 24.8243 39.7398 25.5991 39.3555 26.1627L37.3433 24.1505ZM35.9112 25.5468L37.9592 27.5948L30.6564 34.8977C30.3504 35.2037 29.9534 35.4022 29.525 35.4634L27.7956 35.7104L28.0427 33.981C28.1039 33.5527 28.3024 33.1557 28.6084 32.8497L35.9112 25.5468Z" fill="black"/>
<path d="M26 22C23.7909 22 22 23.7909 22 26V38C22 40.2091 23.7909 42 26 42H38C40.2091 42 42 40.2091 42 38V32C42 31.4477 41.5523 31 41 31C40.4477 31 40 31.4477 40 32V38C40 39.1046 39.1046 40 38 40H26C24.8954 40 24 39.1046 24 38V26C24 24.8954 24.8954 24 26 24H28.6842C29.2365 24 29.6842 23.5523 29.6842 23C29.6842 22.4477 29.2365 22 28.6842 22H26Z" fill="black"/>
<path d="M66 22C63.7909 22 62 23.7909 62 26V38C62 40.2091 63.7909 42 66 42H78C80.2091 42 82 40.2091 82 38V32C82 31.4477 81.5523 31 81 31C80.4477 31 80 31.4477 80 32V38C80 39.1046 79.1046 40 78 40H66C64.8954 40 64 39.1046 64 38V26C64 24.8954 64.8954 24 66 24H68.6842C69.2365 24 69.6842 23.5523 69.6842 23C69.6842 22.4477 69.2365 22 68.6842 22H66Z" fill="black"/>
<path d="M66.8057 35.5691L67.0528 33.8397C67.1446 33.1971 67.4423 32.6017 67.9013 32.1427L75.2042 24.8398L78.6664 28.302L71.3635 35.6049C70.9045 36.0639 70.3091 36.3616 69.6665 36.4534L67.9371 36.7005C67.2771 36.7947 66.7114 36.2291 66.8057 35.5691Z" fill="black"/>
<path d="M80.0701 26.8773L76.6289 23.436C77.5901 22.6655 78.9977 22.7259 79.889 23.6172C80.7803 24.5085 80.8407 25.916 80.0701 26.8773Z" fill="black"/>
</svg>
