<svg width="104" height="64" viewBox="0 0 104 64" fill="none" xmlns="http://www.w3.org/2000/svg">
<path fill-rule="evenodd" clip-rule="evenodd" d="M36.1382 21.0805C34.893 20.9029 34 21.9405 34 23V28C34 29.1046 34.8954 30 36 30H41C42.0595 30 43.0971 29.107 42.9195 27.8618C42.4192 24.3535 39.6465 21.5808 36.1382 21.0805ZM36 23C35.9992 23.0028 35.9961 23.0107 35.9848 23.0214C35.9751 23.0307 35.9577 23.0434 35.9314 23.0523C35.9034 23.0618 35.8758 23.0633 35.8559 23.0604C35.9041 23.0673 35.9521 23.0748 36 23.0828V28H40.9172C40.9252 28.0478 40.9327 28.0959 40.9396 28.1441C40.9367 28.1241 40.9382 28.0966 40.9477 28.0686C40.9566 28.0423 40.9693 28.0249 40.9786 28.0152C40.9893 28.0039 40.9972 28.0009 41 28.0001L40.9172 28C40.4963 25.4883 38.5117 23.5037 36 23.0828V23Z" fill="black"/>
<path fill-rule="evenodd" clip-rule="evenodd" d="M33 24C33 22.9286 32.1066 21.9267 30.8919 22.0608C25.89 22.6128 22 26.8514 22 32C22 37.5228 26.4772 42 32 42C37.1486 42 41.3872 38.1099 41.9392 33.1081C42.0733 31.8933 41.0713 31 40 31H35C33.8954 31 33 30.1046 33 29V24ZM24 32C24 27.9206 27.0541 24.5532 31 24.0618V29C31 31.2091 32.7909 33 35 33H39.9382C39.4467 36.9458 36.0794 40 32 40C27.5817 40 24 36.4183 24 32Z" fill="black"/>
<path d="M72 41C76.6331 41 80.4485 37.4991 80.9452 32.9984C81.0058 32.4494 80.5523 32 80 32H75C73.3431 32 72 30.6569 72 29V24C72 23.4477 71.5506 22.9942 71.0016 23.0548C66.5009 23.5515 63 27.3669 63 32C63 36.9706 67.0294 41 72 41Z" fill="black"/>
<path d="M81.9295 28.003C81.492 24.9349 79.0651 22.508 75.997 22.0705C75.4503 21.9925 75 22.4477 75 23V28C75 28.5523 75.4477 29 76 29H81C81.5523 29 82.0075 28.5497 81.9295 28.003Z" fill="black"/>
</svg>
