<svg width="104" height="64" viewBox="0 0 104 64" fill="none" xmlns="http://www.w3.org/2000/svg">
<path fill-rule="evenodd" clip-rule="evenodd" d="M34.9466 22.4738C33.0335 21.3693 30.5871 22.0248 29.4825 23.9379L27.4367 27.4814C27.2393 27.8234 26.9451 28.0992 26.5911 28.2742L25.0697 29.0265C23.2798 29.9115 23.1985 32.4342 24.9278 33.4326L28.5626 35.5312L25.3127 41.1602C25.0365 41.6385 25.2004 42.2501 25.6787 42.5263C26.157 42.8024 26.7686 42.6385 27.0447 42.1602L30.2947 36.5312L33.9296 38.6298C35.6588 39.6282 37.8029 38.2964 37.6744 36.3038L37.5652 34.6101C37.5398 34.2161 37.6316 33.8234 37.829 33.4814L39.8748 29.9379C40.9794 28.0248 40.3239 25.5784 38.4107 24.4738L34.9466 22.4738ZM30.4419 34.3068L34.9296 36.8978C35.2755 37.0974 35.7043 36.8311 35.6786 36.4326L35.5694 34.7389C35.5185 33.9508 35.7021 33.1653 36.097 32.4814L38.1428 28.9379C38.6951 27.9813 38.3673 26.7582 37.4107 26.2059L33.9466 24.2059C32.9901 23.6536 31.7669 23.9813 31.2146 24.9379L29.1688 28.4814C28.7739 29.1653 28.1855 29.717 27.4776 30.0671L25.9562 30.8193C25.5982 30.9963 25.5819 31.5009 25.9278 31.7005L30.4154 34.2915C30.4198 34.2939 30.4243 34.2965 30.4287 34.299C30.4331 34.3016 30.4376 34.3042 30.4419 34.3068Z" fill="black"/>
<path d="M70.3486 24.4382C71.177 23.0034 73.0115 22.5114 74.4463 23.3396L77.9111 25.3396C79.3458 26.1681 79.8372 28.0034 79.0088 29.4382L76.9629 32.9812C76.6667 33.4941 76.5293 34.0835 76.5674 34.6745L76.6768 36.3679C76.7539 37.5634 75.4672 38.3624 74.4297 37.7634L70.7939 35.6638V35.6648L67.0439 42.1599C66.7678 42.6382 66.156 42.8022 65.6777 42.5261C65.1997 42.2499 65.0364 41.6381 65.3125 41.1599L69.0625 34.6648V34.6638L65.4277 32.5661C64.3903 31.9671 64.4389 30.4536 65.5127 29.9226L67.0342 29.1706C67.5651 28.9081 68.0066 28.4941 68.3027 27.9812L70.3486 24.4382Z" fill="black"/>
</svg>
