<svg width="104" height="64" viewBox="0 0 104 64" fill="none" xmlns="http://www.w3.org/2000/svg">
<path fill-rule="evenodd" clip-rule="evenodd" d="M30.0003 21C27.7911 21 26.0003 22.7909 26.0003 25V29.0917C26.0003 29.4865 25.8834 29.8725 25.6644 30.2011L24.7229 31.6132C23.6153 33.2746 24.8063 35.5 26.803 35.5H31.0003V42C31.0003 42.5523 31.448 43 32.0003 43C32.5525 43 33.0003 42.5523 33.0003 42V35.5H37.1975C39.1942 35.5 40.3852 33.2746 39.2776 31.6132L38.3362 30.2011C38.1171 29.8725 38.0003 29.4865 38.0003 29.0917V25C38.0003 22.7909 36.2094 21 34.0003 21H30.0003ZM37.1975 33.5C37.5968 33.5 37.835 33.0549 37.6135 32.7226L36.6721 31.3105C36.234 30.6534 36.0003 29.8814 36.0003 29.0917V25C36.0003 23.8954 35.1048 23 34.0003 23H30.0003C28.8957 23 28.0003 23.8954 28.0003 25V29.0917C28.0003 29.8814 27.7665 30.6534 27.3285 31.3105L26.387 32.7226C26.1655 33.0549 26.4037 33.5 26.803 33.5H37.1975Z" fill="black"/>
<path d="M70.0005 22H74.0005C75.6574 22 77.0005 23.3431 77.0005 25V29.0917C77.0005 29.6839 77.1758 30.263 77.5044 30.7558L78.4458 32.1679C79.1104 33.1648 78.3958 34.5 77.1978 34.5H73.0005V42C73.0005 42.5523 72.5528 43 72.0005 43C71.4482 43 71.0005 42.5523 71.0005 42V34.5H66.8033C65.6053 34.5 64.8907 33.1648 65.5552 32.1679L66.4967 30.7558C66.8252 30.263 67.0005 29.6839 67.0005 29.0917V25C67.0005 23.3431 68.3437 22 70.0005 22Z" fill="black"/>
</svg>
