<svg width="104" height="64" viewBox="0 0 104 64" fill="none" xmlns="http://www.w3.org/2000/svg">
<path fill-rule="evenodd" clip-rule="evenodd" d="M31.0794 25.2662C29.6526 23.9451 27.3882 23 24 23C23.6807 23 23.3806 23.1525 23.1923 23.4104C23.004 23.6683 22.9503 24.0006 23.0476 24.3048C23.7918 26.6304 25.4908 28.1123 27.2181 29.0119C28.5263 29.6933 29.896 30.0666 31 30.2332V38.2252C30.6966 38.3176 30.3181 38.4522 30.0039 38.6318C29.5718 38.8787 29.0187 39.2972 28.6108 39.6191C28.3984 39.7867 28.2098 39.9406 28.0743 40.0526C28.0065 40.1087 27.9516 40.1545 27.9135 40.1865L27.8691 40.2239L27.857 40.2341L27.8537 40.2369L27.8527 40.2377C27.8527 40.2378 27.8522 40.2382 28.5 41L27.8527 40.2377C27.432 40.5955 27.3804 41.227 27.7382 41.6478C28.0959 42.0685 28.727 42.1196 29.1477 41.7619L29.1504 41.7596L29.1601 41.7514L29.1994 41.7183C29.2341 41.6892 29.2849 41.6467 29.3484 41.5943C29.4755 41.4892 29.6521 41.3451 29.8498 41.1891C30.262 40.8638 30.709 40.5323 30.9961 40.3682C31.152 40.2792 31.4275 40.1806 31.722 40.0977C31.8259 40.0685 31.9216 40.044 32 40.0251C32.0784 40.044 32.1741 40.0685 32.278 40.0977C32.5725 40.1806 32.848 40.2792 33.0039 40.3682C33.291 40.5323 33.738 40.8638 34.1502 41.1891C34.3479 41.3451 34.5245 41.4892 34.6516 41.5943C34.7151 41.6467 34.7659 41.6892 34.8006 41.7183L34.8399 41.7514L34.8496 41.7596L34.8518 41.7615C35.2726 42.1192 35.9041 42.0685 36.2618 41.6478C36.6196 41.227 36.5685 40.5959 36.1478 40.2382L35.5 41C36.1478 40.2382 36.1478 40.2382 36.1478 40.2382L36.1463 40.2369L36.131 40.2239L36.0866 40.1865C36.0484 40.1545 35.9935 40.1087 35.9257 40.0526C35.7902 39.9406 35.6016 39.7867 35.3892 39.6191C34.9813 39.2972 34.4282 38.8787 33.9961 38.6318C33.6819 38.4522 33.3034 38.3176 33 38.2252V36.2332C34.104 36.0666 35.4737 35.6933 36.7819 35.0119C38.5092 34.1123 40.2082 32.6304 40.9524 30.3048C41.0498 30.0006 40.996 29.6683 40.8077 29.4104C40.6194 29.1525 40.3193 29 40 29C36.674 29 34.4309 29.9107 33 31.1939V29.5C33 29.4718 32.9988 29.4439 32.9966 29.4164C32.9988 29.3888 33 29.3612 33 29.3333C33 28.1762 32.4913 26.5735 31.0794 25.2662ZM30.735 28.1537C29.9383 27.986 29.0198 27.6953 28.1419 27.2381C27.1593 26.7263 26.2653 26.0276 25.6305 25.0905C27.664 25.3296 28.9385 26.0096 29.7206 26.7338C30.2182 27.1945 30.5391 27.693 30.735 28.1537ZM33.265 34.1537C34.0618 33.986 34.9802 33.6953 35.8581 33.2381C36.8407 32.7263 37.7347 32.0276 38.3695 31.0905C36.336 31.3296 35.0615 32.0096 34.2794 32.7338C33.7818 33.1945 33.4609 33.693 33.265 34.1537Z" fill="black"/>
<path d="M73 32.6527C74.0835 31.2587 76.1921 30 80 30C78.8953 33.4521 75.3279 34.8352 73 35.2208V38.2252C73.3034 38.3176 73.6819 38.4522 73.9961 38.6318C74.4282 38.8787 74.9813 39.2972 75.3892 39.6191C75.6016 39.7867 75.7902 39.9406 75.9257 40.0526C75.9935 40.1087 76.0484 40.1545 76.0865 40.1865L76.1309 40.2239L76.1463 40.2369L76.1473 40.2377C76.568 40.5955 76.6196 41.227 76.2618 41.6478C75.9041 42.0685 75.273 42.1196 74.8523 41.7619L74.8496 41.7596L74.8399 41.7514L74.8006 41.7183C74.7659 41.6892 74.7151 41.6467 74.6516 41.5943C74.5245 41.4892 74.3479 41.3451 74.1502 41.1891C73.738 40.8638 73.291 40.5323 73.0039 40.3682C72.848 40.2792 72.5725 40.1806 72.278 40.0977C72.1741 40.0685 72.0784 40.044 72 40.0251C71.9216 40.044 71.8259 40.0685 71.722 40.0977C71.4275 40.1806 71.152 40.2792 70.9961 40.3682C70.709 40.5323 70.262 40.8638 69.8498 41.1891C69.6521 41.3451 69.4755 41.4892 69.3484 41.5943C69.2849 41.6467 69.2341 41.6892 69.1994 41.7183L69.1601 41.7514L69.1504 41.7596L69.1482 41.7615C68.7274 42.1192 68.0959 42.0685 67.7382 41.6478C67.3804 41.227 67.4315 40.5959 67.8522 40.2382C68.5398 41.0468 68.5064 41.0075 67.8522 40.2382L67.8537 40.2369L67.857 40.2341L67.8691 40.2239L67.9135 40.1865C67.9516 40.1545 68.0065 40.1087 68.0743 40.0526C68.2098 39.9406 68.3984 39.7867 68.6108 39.6191C69.0187 39.2972 69.5718 38.8787 70.0039 38.6318C70.3181 38.4522 70.6966 38.3176 71 38.2252V29.6962C68.4363 29.0835 65.111 27.4718 64 24C70.146 24 72.3573 26.9146 72.873 29.0119C72.9539 29.1562 73 29.3227 73 29.5V32.6527Z" fill="black"/>
</svg>
