<svg width="104" height="64" viewBox="0 0 104 64" fill="none" xmlns="http://www.w3.org/2000/svg">
<path fill-rule="evenodd" clip-rule="evenodd" d="M32 21C32.5523 21 33 21.4477 33 22V27.1939C34.4309 25.9107 36.674 25 40 25C40.3193 25 40.6194 25.1525 40.8077 25.4104C40.996 25.6683 41.0498 26.0006 40.9524 26.3048C40.2115 28.6201 38.5241 30.0992 36.8048 31H37.8098C39.0523 31 39.994 32.1209 39.7799 33.3448L38.3799 41.3448C38.2124 42.3018 37.3814 43 36.4098 43H27.5902C26.6186 43 25.7876 42.3018 25.6201 41.3448L24.2201 33.3448C24.006 32.1209 24.9478 31 26.1902 31H31V29.2332C29.896 29.0666 28.5263 28.6933 27.2181 28.0119C25.4908 27.1123 23.7918 25.6304 23.0476 23.3048C22.9503 23.0006 23.004 22.6683 23.1923 22.4104C23.3806 22.1525 23.6807 22 24 22C27.326 22 29.5691 22.9107 31 24.1939V22C31 21.4477 31.4477 21 32 21ZM28.1419 26.2381C29.0198 26.6953 29.9383 26.986 30.735 27.1537C30.5391 26.693 30.2182 26.1945 29.7206 25.7338C28.9385 25.0096 27.664 24.3296 25.6305 24.0905C26.2653 25.0276 27.1593 25.7263 28.1419 26.2381ZM35.8581 29.2381C34.9802 29.6953 34.0618 29.986 33.265 30.1537C33.4609 29.693 33.7818 29.1945 34.2794 28.7338C35.0615 28.0096 36.336 27.3296 38.3695 27.0905C37.7347 28.0276 36.8407 28.7263 35.8581 29.2381ZM27.5902 41L26.1902 33L37.8098 33L36.4098 41H27.5902Z" fill="black"/>
<path d="M72 21C72.5523 21 73 21.4477 73 22V28.6527C74.0835 27.2587 76.1921 26 80 26C78.8953 29.4521 75.3279 30.8352 73 31.2208V32H77.8098C78.431 32 78.9019 32.5605 78.7948 33.1724L77.3948 41.1724C77.3111 41.6509 76.8956 42 76.4098 42H67.5902C67.1044 42 66.6889 41.6509 66.6052 41.1724L65.2052 33.1724C65.0981 32.5605 65.569 32 66.1902 32H71V28.2208C68.6721 27.8352 65.1047 26.4521 64 23C67.8079 23 69.9165 24.2587 71 25.6527V22C71 21.4477 71.4477 21 72 21Z" fill="black"/>
</svg>
