<svg width="104" height="64" viewBox="0 0 104 64" fill="none" xmlns="http://www.w3.org/2000/svg">
<path d="M22 24.5C22 23.9477 22.4477 23.5 23 23.5H41C41.5523 23.5 42 23.9477 42 24.5C42 25.0523 41.5523 25.5 41 25.5H23C22.4477 25.5 22 25.0523 22 24.5Z" fill="black"/>
<path d="M22 29.5C22 28.9477 22.4477 28.5 23 28.5H32C32.5523 28.5 33 28.9477 33 29.5C33 30.0523 32.5523 30.5 32 30.5H23C22.4477 30.5 22 30.0523 22 29.5Z" fill="black"/>
<path d="M23 33.5C22.4477 33.5 22 33.9477 22 34.5C22 35.0523 22.4477 35.5 23 35.5H29C29.5523 35.5 30 35.0523 30 34.5C30 33.9477 29.5523 33.5 29 33.5H23Z" fill="black"/>
<path d="M22 39.5C22 38.9477 22.4477 38.5 23 38.5H29C29.5523 38.5 30 38.9477 30 39.5C30 40.0523 29.5523 40.5 29 40.5H23C22.4477 40.5 22 40.0523 22 39.5Z" fill="black"/>
<path fill-rule="evenodd" clip-rule="evenodd" d="M38.8083 26.6897C38.5039 26.4696 38.1019 26.4386 37.7674 26.6095C37.4329 26.7804 37.2224 27.1244 37.2224 27.5V34.8668C36.7519 34.739 36.182 34.6549 35.499 34.6549C34.43 34.6549 33.6372 34.861 33.0684 35.1189C31.9171 35.6408 31.8125 36.9114 32.2271 37.738C32.4674 38.217 32.8382 38.8618 33.33 39.401C33.8041 39.9208 34.5366 40.5 35.499 40.5C37.8318 40.5 39.2224 38.3982 39.2224 36.5093V32.546C40.0264 32.3613 40.6472 31.9572 41.0964 31.4535C41.6869 30.7915 41.9411 30.0047 41.9954 29.4385C42.0348 29.0285 41.8188 28.6364 41.4513 28.4505C40.9285 28.1861 39.5048 27.1933 38.8083 26.6897ZM35.499 36.6549C36.3723 36.6549 36.8972 36.8355 37.1744 36.974C36.9903 37.8506 36.2986 38.5 35.499 38.5C35.3739 38.5 35.1396 38.4171 34.8077 38.0532C34.5039 37.7202 34.2372 37.2787 34.0354 36.882C34.3392 36.7672 34.8106 36.6549 35.499 36.6549ZM39.6038 30.1223C39.5074 30.2305 39.384 30.3382 39.2224 30.4281V29.416C39.4278 29.5537 39.6314 29.6873 39.8221 29.8083C39.765 29.9148 39.6931 30.0223 39.6038 30.1223Z" fill="black"/>
<path d="M62 24.5C62 23.9477 62.4477 23.5 63 23.5H81C81.5523 23.5 82 23.9477 82 24.5C82 25.0523 81.5523 25.5 81 25.5H63C62.4477 25.5 62 25.0523 62 24.5Z" fill="black"/>
<path d="M62 29.5C62 28.9477 62.4477 28.5 63 28.5H72C72.5523 28.5 73 28.9477 73 29.5C73 30.0523 72.5523 30.5 72 30.5H63C62.4477 30.5 62 30.0523 62 29.5Z" fill="black"/>
<path d="M62 34.5C62 33.9477 62.4477 33.5 63 33.5H69C69.5523 33.5 70 33.9477 70 34.5C70 35.0523 69.5523 35.5 69 35.5H63C62.4477 35.5 62 35.0523 62 34.5Z" fill="black"/>
<path d="M62 39.5C62 38.9477 62.4477 38.5 63 38.5H69C69.5523 38.5 70 38.9477 70 39.5C70 40.0523 69.5523 40.5 69 40.5H63C62.4477 40.5 62 40.0523 62 39.5Z" fill="black"/>
<path d="M77.597 27C77.6516 27 77.7047 27.0065 77.7558 27.0189C77.7661 27.0203 77.7782 27.0237 77.792 27.0288C77.9009 27.0617 77.9989 27.1216 78.079 27.201C78.4023 27.429 78.8997 27.8393 79.4024 28.2541C80.0422 28.7819 80.6907 29.3169 81 29.4921C80.9199 30.4263 80.2608 32.2149 78.2981 32.5136V36.142C78.3055 36.2366 78.3003 36.3294 78.2889 36.4155C78.2881 36.4414 78.2863 36.4673 78.2835 36.4933C78.0894 38.3157 76.8318 40 75.0193 40C73.7054 40 72.6831 38.2299 72.1462 37.0455C71.8581 36.4102 71.992 35.657 72.5815 35.3613C73.1005 35.101 73.8866 34.8604 75.0193 34.8604C75.8013 34.8604 76.4181 34.9751 76.8959 35.1318V27.7342C76.8959 27.3287 77.2098 27 77.597 27Z" fill="black"/>
</svg>
