<svg width="104" height="64" viewBox="0 0 104 64" fill="none" xmlns="http://www.w3.org/2000/svg">
<path fill-rule="evenodd" clip-rule="evenodd" d="M29.2109 23.4202C26.5878 22.1092 23.5 24.0154 23.5 26.9487V37.0514C23.5 39.9846 26.5878 41.8908 29.2109 40.5798L39.3184 35.5285C42.2272 34.0748 42.2272 29.9252 39.3184 28.4715L29.2109 23.4202ZM25.5 26.9487C25.5 25.5036 27.0221 24.5621 28.3168 25.2092L38.4243 30.2606C39.8586 30.9774 39.8586 33.0227 38.4243 33.7395L28.3168 38.7908C27.0221 39.4379 25.5 38.4964 25.5 37.0514V26.9487Z" fill="black"/>
<path d="M68.7639 24.3147L78.8713 29.366C81.0429 30.4513 81.0429 33.5487 78.8713 34.634L68.7639 39.6853C66.8049 40.6643 64.5 39.2405 64.5 37.0513V26.9487C64.5 24.7595 66.8049 23.3357 68.7639 24.3147Z" fill="black"/>
</svg>
