<svg width="104" height="64" viewBox="0 0 104 64" fill="none" xmlns="http://www.w3.org/2000/svg">
<path d="M33 24C33 23.4477 32.5523 23 32 23C31.4477 23 31 23.4477 31 24V31H24C23.4477 31 23 31.4477 23 32C23 32.5523 23.4477 33 24 33H31V40C31 40.5523 31.4477 41 32 41C32.5523 41 33 40.5523 33 40V33H40C40.5523 33 41 32.5523 41 32C41 31.4477 40.5523 31 40 31H33V24Z" fill="black"/>
<path d="M73 24C73 23.4477 72.5523 23 72 23C71.4477 23 71 23.4477 71 24V31H64C63.4477 31 63 31.4477 63 32C63 32.5523 63.4477 33 64 33H71V40C71 40.5523 71.4477 41 72 41C72.5523 41 73 40.5523 73 40V33H80C80.5523 33 81 32.5523 81 32C81 31.4477 80.5523 31 80 31H73V24Z" fill="black"/>
</svg>
