<svg width="104" height="64" viewBox="0 0 104 64" fill="none" xmlns="http://www.w3.org/2000/svg">
<path d="M33 29C33 28.4477 32.5523 28 32 28C31.4477 28 31 28.4477 31 29V31H29C28.4477 31 28 31.4477 28 32C28 32.5523 28.4477 33 29 33H31V35C31 35.5523 31.4477 36 32 36C32.5523 36 33 35.5523 33 35V33H35C35.5523 33 36 32.5523 36 32C36 31.4477 35.5523 31 35 31H33V29Z" fill="black"/>
<path fill-rule="evenodd" clip-rule="evenodd" d="M32 22C26.4772 22 22 26.4772 22 32C22 37.5228 26.4772 42 32 42C37.5228 42 42 37.5228 42 32C42 26.4772 37.5228 22 32 22ZM24 32C24 27.5817 27.5817 24 32 24C36.4183 24 40 27.5817 40 32C40 36.4183 36.4183 40 32 40C27.5817 40 24 36.4183 24 32Z" fill="black"/>
<path fill-rule="evenodd" clip-rule="evenodd" d="M72 41C76.9706 41 81 36.9706 81 32C81 27.0294 76.9706 23 72 23C67.0294 23 63 27.0294 63 32C63 36.9706 67.0294 41 72 41ZM73 29C73 28.4477 72.5523 28 72 28C71.4477 28 71 28.4477 71 29V31H69C68.4477 31 68 31.4477 68 32C68 32.5523 68.4477 33 69 33H71V35C71 35.5523 71.4477 36 72 36C72.5523 36 73 35.5523 73 35V33H75C75.5523 33 76 32.5523 76 32C76 31.4477 75.5523 31 75 31H73V29Z" fill="black"/>
</svg>
