<svg width="104" height="64" viewBox="0 0 104 64" fill="none" xmlns="http://www.w3.org/2000/svg">
<path d="M36.3053 22.8C34.8273 22.2431 33.2026 22.2117 31.7041 22.7112C28.9703 23.6225 27.1024 26.1366 27.0041 29H24C23.4477 29 23 29.4477 23 30C23 30.5523 23.4477 31 24 31H27V32.5H24C23.4477 32.5 23 32.9477 23 33.5C23 34.0523 23.4477 34.5 24 34.5H27V34.7622C27 37.7234 28.8949 40.3524 31.7041 41.2888C33.2026 41.7883 34.8273 41.7569 36.3053 41.2L36.7795 41.0213C38.8923 40.2252 40.4669 38.4249 40.9744 36.2248C41.0986 35.6866 40.7629 35.1497 40.2248 35.0256C39.6866 34.9014 39.1497 35.237 39.0256 35.7752C38.6685 37.3231 37.5608 38.5897 36.0743 39.1498L35.6002 39.3284C34.5518 39.7234 33.3994 39.7457 32.3365 39.3914C30.344 38.7272 29 36.8625 29 34.7622V34.5H35C35.5523 34.5 36 34.0523 36 33.5C36 32.9477 35.5523 32.5 35 32.5H29V31H35C35.5523 31 36 30.5523 36 30C36 29.4477 35.5523 29 35 29H29.0058C29.1028 26.9978 30.4195 25.2476 32.3365 24.6086C33.3994 24.2543 34.5518 24.2765 35.6002 24.6715L36.0743 24.8502C37.5608 25.4103 38.6685 26.6769 39.0256 28.2248C39.1497 28.7629 39.6866 29.0985 40.2248 28.9744C40.7629 28.8502 41.0986 28.3133 40.9744 27.7752C40.4669 25.5751 38.8923 23.7748 36.7795 22.9786L36.3053 22.8Z" fill="black"/>
<path d="M76.3053 22.8C74.8273 22.2431 73.2026 22.2117 71.7041 22.7112C68.9703 23.6225 67.1024 26.1366 67.0041 29H64C63.4477 29 63 29.4477 63 30C63 30.5523 63.4477 31 64 31H67V32.5H64C63.4477 32.5 63 32.9477 63 33.5C63 34.0523 63.4477 34.5 64 34.5H67V34.7622C67 37.7234 68.8949 40.3524 71.7041 41.2888C73.2026 41.7883 74.8273 41.7569 76.3053 41.2L76.7795 41.0213C78.8923 40.2252 80.4669 38.4249 80.9744 36.2248C81.0986 35.6866 80.7629 35.1497 80.2248 35.0256C79.6866 34.9014 79.1497 35.237 79.0256 35.7752C78.6685 37.3231 77.5608 38.5897 76.0743 39.1498L75.6002 39.3284C74.5518 39.7234 73.3994 39.7457 72.3365 39.3914C70.344 38.7272 69 36.8625 69 34.7622V34.5H75C75.5523 34.5 76 34.0523 76 33.5C76 32.9477 75.5523 32.5 75 32.5H69V31H75C75.5523 31 76 30.5523 76 30C76 29.4477 75.5523 29 75 29H69.0058C69.1028 26.9978 70.4195 25.2476 72.3365 24.6086C73.3994 24.2543 74.5518 24.2765 75.6002 24.6715L76.0743 24.8502C77.5608 25.4103 78.6685 26.6769 79.0256 28.2248C79.1497 28.7629 79.6866 29.0985 80.2248 28.9744C80.7629 28.8502 81.0986 28.3133 80.9744 27.7752C80.4669 25.5751 78.8923 23.7748 76.7795 22.9786L76.3053 22.8Z" fill="black"/>
</svg>
