<svg width="104" height="64" viewBox="0 0 104 64" fill="none" xmlns="http://www.w3.org/2000/svg">
<path fill-rule="evenodd" clip-rule="evenodd" d="M33 23C33 22.4477 32.5523 22 32 22C31.4477 22 31 22.4477 31 23V24.0549C26.5 24.5524 23 28.3674 23 33C23 37.9706 27.0294 42 32 42C36.9706 42 41 37.9706 41 33C41 28.3674 37.5 24.5524 33 24.0549V23ZM31 26.0709V31C31 31.5523 31.4477 32 32 32C32.5523 32 33 31.5523 33 31V26.0709C36.3923 26.5561 39 29.4735 39 33C39 36.866 35.866 40 32 40C28.134 40 25 36.866 25 33C25 29.4735 27.6077 26.5561 31 26.0709Z" fill="black"/>
<path d="M73 23C73 22.4477 72.5523 22 72 22C71.4477 22 71 22.4477 71 23V31C71 31.5523 71.4477 32 72 32C72.5523 32 73 31.5523 73 31V23Z" fill="black"/>
<path d="M64 33C64 29.2724 66.5495 26.1402 70 25.2521V31C70 32.1046 70.8954 33 72 33C73.1046 33 74 32.1046 74 31V25.2521C77.4505 26.1402 80 29.2724 80 33C80 37.4183 76.4183 41 72 41C67.5817 41 64 37.4183 64 33Z" fill="black"/>
</svg>
