<svg width="104" height="64" viewBox="0 0 104 64" fill="none" xmlns="http://www.w3.org/2000/svg">
<path fill-rule="evenodd" clip-rule="evenodd" d="M22 26.5C22 25.9477 22.4477 25.5 23 25.5C23.5523 25.5 24 25.9477 24 26.5V29.3585L29.1545 26.7825C30.9206 25.8999 33 27.1831 33 29.1586V29.3585L38.1545 26.7825C39.9206 25.8999 42 27.1831 42 29.1586V34.8414C42 36.8169 39.9206 38.1001 38.1545 37.2175L33 34.6415V34.8414C33 36.8169 30.9206 38.1001 29.1545 37.2175L24 34.6415V37.5C24 38.0523 23.5523 38.5 23 38.5C22.4477 38.5 22 38.0523 22 37.5V26.5ZM31 29.1586C31 28.6713 30.4863 28.3528 30.0486 28.5715L24.3632 31.4129C23.8789 31.6549 23.8789 32.3451 24.3632 32.5871L30.0486 35.4285C30.4863 35.6472 31 35.3287 31 34.8414V29.1586ZM33 32.0009C33.0003 32.2336 33.1213 32.4662 33.3632 32.5871L39.0486 35.4285C39.4863 35.6472 40 35.3287 40 34.8414V29.1586C40 28.6713 39.4863 28.3528 39.0486 28.5715L33.3632 31.4129C33.1213 31.5338 33.0003 31.7664 33 31.9991V32.0009Z" fill="black"/>
<path d="M63 26C62.4477 26 62 26.4477 62 27V38C62 38.5523 62.4477 39 63 39C63.5523 39 64 38.5523 64 38V34.0235L69.6016 36.823C70.7035 37.3737 72 36.5728 72 35.3414V32.5011C72.0004 33.0889 72.3057 33.6766 72.9161 33.9816L78.6016 36.823C79.7035 37.3737 81 36.5728 81 35.3414V29.6586C81 28.4272 79.7035 27.6263 78.6016 28.177L72.9161 31.0184C72.3057 31.3234 72.0004 31.9111 72 32.4989V29.6586C72 28.4272 70.7035 27.6263 69.6016 28.177L64 30.9765V27C64 26.4477 63.5523 26 63 26Z" fill="black"/>
</svg>
