<svg width="104" height="64" viewBox="0 0 104 64" fill="none" xmlns="http://www.w3.org/2000/svg">
<path d="M26 28C26.5523 28 27 28.4477 27 29C27 29.5523 26.5523 30 26 30C25.4477 30 25 29.5523 25 29C25 28.4477 25.4477 28 26 28Z" fill="black"/>
<path d="M29.5 35.5C29.5 34.9477 29.9477 34.5 30.5 34.5H33.5C34.0523 34.5 34.5 34.9477 34.5 35.5C34.5 36.0523 34.0523 36.5 33.5 36.5H30.5C29.9477 36.5 29.5 36.0523 29.5 35.5Z" fill="black"/>
<path d="M30.5 37.5C29.9477 37.5 29.5 37.9477 29.5 38.5C29.5 39.0523 29.9477 39.5 30.5 39.5H32.5C33.0523 39.5 33.5 39.0523 33.5 38.5C33.5 37.9477 33.0523 37.5 32.5 37.5H30.5Z" fill="black"/>
<path fill-rule="evenodd" clip-rule="evenodd" d="M27 24C27 22.8954 27.8954 22 29 22H35C36.1046 22 37 22.8954 37 24V25H38C40.2091 25 42 26.7909 42 29V34C42 36.2091 40.2091 38 38 38H37V40C37 41.1046 36.1046 42 35 42H29C27.8954 42 27 41.1046 27 40V38H26C23.7909 38 22 36.2091 22 34V29C22 26.7909 23.7909 25 26 25H27V24ZM35 24V25H29V24H35ZM24 29C24 27.8954 24.8954 27 26 27H38C39.1046 27 40 27.8954 40 29V34C40 35.1046 39.1046 36 38 36H37V34C37 32.8954 36.1046 32 35 32H29C27.8954 32 27 32.8954 27 34V36H26C24.8954 36 24 35.1046 24 34V29ZM29 34H35V40H29V34Z" fill="black"/>
<path d="M68 23V24H76V23C76 22.4477 75.5523 22 75 22H69C68.4477 22 68 22.4477 68 23Z" fill="black"/>
<path fill-rule="evenodd" clip-rule="evenodd" d="M62 35V28C62 26.3431 63.3431 25 65 25H79C80.6569 25 82 26.3431 82 28V35C82 36.6569 80.6569 38 79 38H78V33C78 31.8954 77.1046 31 76 31H68C66.8954 31 66 31.8954 66 33V38H65C63.3431 38 62 36.6569 62 35ZM66 28C66.5523 28 67 28.4477 67 29C67 29.5523 66.5523 30 66 30C65.4477 30 65 29.5523 65 29C65 28.4477 65.4477 28 66 28Z" fill="black"/>
<path fill-rule="evenodd" clip-rule="evenodd" d="M67 41V33C67 32.4477 67.4477 32 68 32H76C76.5523 32 77 32.4477 77 33V41C77 41.5523 76.5523 42 76 42H68C67.4477 42 67 41.5523 67 41ZM69.5 35.5C69.5 34.9477 69.9477 34.5 70.5 34.5H73.5C74.0523 34.5 74.5 34.9477 74.5 35.5C74.5 36.0523 74.0523 36.5 73.5 36.5H70.5C69.9477 36.5 69.5 36.0523 69.5 35.5ZM70.5 37.5C69.9477 37.5 69.5 37.9477 69.5 38.5C69.5 39.0523 69.9477 39.5 70.5 39.5H72.5C73.0523 39.5 73.5 39.0523 73.5 38.5C73.5 37.9477 73.0523 37.5 72.5 37.5H70.5Z" fill="black"/>
</svg>
