<svg width="104" height="64" viewBox="0 0 104 64" fill="none" xmlns="http://www.w3.org/2000/svg">
<path fill-rule="evenodd" clip-rule="evenodd" d="M28.7 27.5C27.485 27.5 26.5 28.485 26.5 29.7V34.3C26.5 35.515 27.485 36.5 28.7 36.5H35.3C36.515 36.5 37.5 35.515 37.5 34.3V29.7C37.5 28.485 36.515 27.5 35.3 27.5H28.7ZM28.5 29.7C28.5 29.5895 28.5895 29.5 28.7 29.5H35.3C35.4105 29.5 35.5 29.5895 35.5 29.7V34.3C35.5 34.4105 35.4105 34.5 35.3 34.5H28.7C28.5895 34.5 28.5 34.4105 28.5 34.3V29.7Z" fill="black"/>
<path fill-rule="evenodd" clip-rule="evenodd" d="M36.5 22C37.0523 22 37.5 22.4477 37.5 23V24.0309C38.96 24.213 40.1757 25.182 40.7092 26.5H42C42.5523 26.5 43 26.9477 43 27.5C43 28.0523 42.5523 28.5 42 28.5H41V29.5H42C42.5523 29.5 43 29.9477 43 30.5C43 31.0523 42.5523 31.5 42 31.5H41V32.5H42C42.5523 32.5 43 32.9477 43 33.5C43 34.0523 42.5523 34.5 42 34.5H41V35.5H42C42.5523 35.5 43 35.9477 43 36.5C43 37.0523 42.5523 37.5 42 37.5H40.7092C40.2379 38.6644 39.2342 39.5563 38 39.874V41C38 41.5523 37.5523 42 37 42C36.4477 42 36 41.5523 36 41V40H35V41C35 41.5523 34.5523 42 34 42C33.4477 42 33 41.5523 33 41V40H32V41C32 41.5523 31.5523 42 31 42C30.4477 42 30 41.5523 30 41V40H29V41C29 41.5523 28.5523 42 28 42C27.4477 42 27 41.5523 27 41V40C25.3213 40 23.8841 38.9659 23.2908 37.5H22C21.4477 37.5 21 37.0523 21 36.5C21 35.9477 21.4477 35.5 22 35.5H23V34.5H22C21.4477 34.5 21 34.0523 21 33.5C21 32.9477 21.4477 32.5 22 32.5H23V31.5H22C21.4477 31.5 21 31.0523 21 30.5C21 29.9477 21.4477 29.5 22 29.5H23V28.5H22C21.4477 28.5 21 28.0523 21 27.5C21 26.9477 21.4477 26.5 22 26.5H23.2908C23.8243 25.182 25.04 24.213 26.5 24.0309V23C26.5 22.4477 26.9477 22 27.5 22C28.0523 22 28.5 22.4477 28.5 23V24H29.5V23C29.5 22.4477 29.9477 22 30.5 22C31.0523 22 31.5 22.4477 31.5 23V24H32.5V23C32.5 22.4477 32.9477 22 33.5 22C34.0523 22 34.5 22.4477 34.5 23V24H35.5V23C35.5 22.4477 35.9477 22 36.5 22ZM39 36C39 37.1046 38.1046 38 37 38H27C25.8954 38 25 37.1046 25 36V28C25 26.8954 25.8954 26 27 26H37C38.1046 26 39 26.8954 39 28V36Z" fill="black"/>
<path d="M68.5 30C68.5 29.7239 68.7239 29.5 69 29.5H75C75.2761 29.5 75.5 29.7239 75.5 30V34C75.5 34.2761 75.2761 34.5 75 34.5H69C68.7239 34.5 68.5 34.2761 68.5 34V30Z" fill="black"/>
<path fill-rule="evenodd" clip-rule="evenodd" d="M76.5 22C77.0523 22 77.5 22.4477 77.5 23V25C77.5 25.0138 77.4997 25.0276 77.4992 25.0413C78.3968 25.1917 79.1594 25.7406 79.5987 26.5H81C81.5523 26.5 82 26.9477 82 27.5C82 28.0523 81.5523 28.5 81 28.5H80V29.5H81C81.5523 29.5 82 29.9477 82 30.5C82 31.0523 81.5523 31.5 81 31.5H80V32.5H81C81.5523 32.5 82 32.9477 82 33.5C82 34.0523 81.5523 34.5 81 34.5H80V35.5H81C81.5523 35.5 82 35.9477 82 36.5C82 37.0523 81.5523 37.5 81 37.5H79.5987C79.2413 38.1177 78.6701 38.5961 77.9863 38.8341C77.9953 38.8881 78 38.9435 78 39V41C78 41.5523 77.5523 42 77 42C76.4477 42 76 41.5523 76 41V39H75V41C75 41.5523 74.5523 42 74 42C73.4477 42 73 41.5523 73 41V39H72V41C72 41.5523 71.5523 42 71 42C70.4477 42 70 41.5523 70 41V39H69V41C69 41.5523 68.5523 42 68 42C67.4477 42 67 41.5523 67 41V39C65.8896 39 64.9201 38.3967 64.4013 37.5H63C62.4477 37.5 62 37.0523 62 36.5C62 35.9477 62.4477 35.5 63 35.5H64V34.5H63C62.4477 34.5 62 34.0523 62 33.5C62 32.9477 62.4477 32.5 63 32.5H64V31.5H63C62.4477 31.5 62 31.0523 62 30.5C62 29.9477 62.4477 29.5 63 29.5H64V28.5H63C62.4477 28.5 62 28.0523 62 27.5C62 26.9477 62.4477 26.5 63 26.5H64.4013C64.8406 25.7406 65.6032 25.1917 66.5008 25.0413C66.5003 25.0276 66.5 25.0138 66.5 25V23C66.5 22.4477 66.9477 22 67.5 22C68.0523 22 68.5 22.4477 68.5 23V25H69.5V23C69.5 22.4477 69.9477 22 70.5 22C71.0523 22 71.5 22.4477 71.5 23V25H72.5V23C72.5 22.4477 72.9477 22 73.5 22C74.0523 22 74.5 22.4477 74.5 23V25H75.5V23C75.5 22.4477 75.9477 22 76.5 22ZM69 27.5C67.6193 27.5 66.5 28.6193 66.5 30V34C66.5 35.3807 67.6193 36.5 69 36.5H75C76.3807 36.5 77.5 35.3807 77.5 34V30C77.5 28.6193 76.3807 27.5 75 27.5H69Z" fill="black"/>
</svg>
