<svg width="104" height="64" viewBox="0 0 104 64" fill="none" xmlns="http://www.w3.org/2000/svg">
<path fill-rule="evenodd" clip-rule="evenodd" d="M34.7071 23.7071C35.0976 23.3166 35.0976 22.6834 34.7071 22.2929C34.3166 21.9024 33.6834 21.9024 33.2929 22.2929L31.2929 24.2929C30.9024 24.6834 30.9024 25.3166 31.2929 25.7071L33.2929 27.7071C33.6834 28.0976 34.3166 28.0976 34.7071 27.7071C35.0976 27.3166 35.0976 26.6834 34.7071 26.2929L34.4473 26.0331C35.892 26.2491 37 27.4952 37 29V36.1707C35.8348 36.5825 35 37.6938 35 39C35 40.6569 36.3431 42 38 42C39.6569 42 41 40.6569 41 39C41 37.6938 40.1652 36.5825 39 36.1707V29C39 26.3727 36.9736 24.2187 34.3986 24.0157L34.7071 23.7071ZM38 38C37.4477 38 37 38.4477 37 39C37 39.5523 37.4477 40 38 40C38.5523 40 39 39.5523 39 39C39 38.4477 38.5523 38 38 38Z" fill="black"/>
<path fill-rule="evenodd" clip-rule="evenodd" d="M30 25C30 26.3062 29.1652 27.4175 28 27.8293V36.1707C29.1652 36.5825 30 37.6938 30 39C30 40.6569 28.6569 42 27 42C25.3431 42 24 40.6569 24 39C24 37.6938 24.8348 36.5825 26 36.1707V27.8293C24.8348 27.4175 24 26.3062 24 25C24 23.3431 25.3431 22 27 22C28.6569 22 30 23.3431 30 25ZM27 24C27.5523 24 28 24.4477 28 25C28 25.5523 27.5523 26 27 26C26.4477 26 26 25.5523 26 25C26 24.4477 26.4477 24 27 24ZM26 39C26 38.4477 26.4477 38 27 38C27.5523 38 28 38.4477 28 39C28 39.5523 27.5523 40 27 40C26.4477 40 26 39.5523 26 39Z" fill="black"/>
<path d="M74.3986 24.0157L74.7071 23.7071C75.0976 23.3166 75.0976 22.6834 74.7071 22.2929C74.3166 21.9024 73.6834 21.9024 73.2929 22.2929L71.2929 24.2929C70.9024 24.6834 70.9024 25.3166 71.2929 25.7071L73.2929 27.7071C73.6834 28.0976 74.3166 28.0976 74.7071 27.7071C75.0976 27.3166 75.0976 26.6834 74.7071 26.2929L74.4473 26.0331C75.892 26.2491 77 27.4952 77 29V37C77 37.0683 77.0068 37.135 77.0199 37.1994C76.1263 37.5806 75.5 38.4672 75.5 39.5C75.5 40.8807 76.6193 42 78 42C79.3807 42 80.5 40.8807 80.5 39.5C80.5 38.4672 79.8737 37.5806 78.9801 37.1994C78.9932 37.135 79 37.0683 79 37V29C79 26.3727 76.9736 24.2187 74.3986 24.0157Z" fill="black"/>
<path d="M64.5 25.5C64.5 26.5252 65.117 27.4062 66 27.792V37C66 37.0683 66.0069 37.135 66.0199 37.1994C65.1263 37.5806 64.5 38.4672 64.5 39.5C64.5 40.8807 65.6193 42 67 42C68.3807 42 69.5 40.8807 69.5 39.5C69.5 38.4672 68.8737 37.5806 67.9801 37.1994C67.9931 37.135 68 37.0683 68 37V27.792C68.883 27.4062 69.5 26.5252 69.5 25.5C69.5 24.1193 68.3807 23 67 23C65.6193 23 64.5 24.1193 64.5 25.5Z" fill="black"/>
</svg>
