<svg width="103" height="64" viewBox="0 0 103 64" fill="none" xmlns="http://www.w3.org/2000/svg">
<path fill-rule="evenodd" clip-rule="evenodd" d="M21.5 25.5C21.5 26.8807 22.6193 28 24 28H26C27.3807 28 28.5 26.8807 28.5 25.5V23.5C28.5 22.1193 27.3807 21 26 21H24C22.6193 21 21.5 22.1193 21.5 23.5V25.5ZM24 26C23.7239 26 23.5 25.7761 23.5 25.5V23.5C23.5 23.2239 23.7239 23 24 23H26C26.2761 23 26.5 23.2239 26.5 23.5V25.5C26.5 25.7761 26.2761 26 26 26H24Z" fill="black"/>
<path fill-rule="evenodd" clip-rule="evenodd" d="M35.5 25.5C35.5 26.8807 36.6193 28 38 28H40C41.3807 28 42.5 26.8807 42.5 25.5V23.5C42.5 22.1193 41.3807 21 40 21H38C36.6193 21 35.5 22.1193 35.5 23.5V25.5ZM38 26C37.7239 26 37.5 25.7761 37.5 25.5V23.5C37.5 23.2239 37.7239 23 38 23H40C40.2761 23 40.5 23.2239 40.5 23.5V25.5C40.5 25.7761 40.2761 26 40 26H38Z" fill="black"/>
<path fill-rule="evenodd" clip-rule="evenodd" d="M24 43C22.6193 43 21.5 41.8807 21.5 40.5V38.5C21.5 37.1193 22.6193 36 24 36H26C27.3807 36 28.5 37.1193 28.5 38.5V40.5C28.5 41.8807 27.3807 43 26 43H24ZM23.5 40.5C23.5 40.7761 23.7239 41 24 41H26C26.2761 41 26.5 40.7761 26.5 40.5V38.5C26.5 38.2239 26.2761 38 26 38H24C23.7239 38 23.5 38.2239 23.5 38.5V40.5Z" fill="black"/>
<path d="M33 23C33 22.4477 33.4477 22 34 22C34.5523 22 35 22.4477 35 23C35 23.5523 34.5523 24 34 24C33.4477 24 33 23.5523 33 23Z" fill="black"/>
<path d="M30 24C29.4477 24 29 24.4477 29 25V27C29 27.5523 29.4477 28 30 28H29C28.4477 28 28 28.4477 28 29C28 29.5523 28.4477 30 29 30C29.5523 30 30 29.5523 30 29V33C30 33.5523 30.4477 34 31 34H34C33.4477 34 33 34.4477 33 35V36H30C29.4477 36 29 36.4477 29 37C29 37.5523 29.4477 38 30 38H31V40H30C29.4477 40 29 40.4477 29 41C29 41.5523 29.4477 42 30 42H32C32.5523 42 33 41.5523 33 41V36H34C34.5523 36 35 35.5523 35 35C35 34.4477 34.5523 34 34 34H35C35.5523 34 36 33.5523 36 33C36 32.4477 35.5523 32 35 32H32V29C32 29.5523 32.4477 30 33 30H34C34.5523 30 35 29.5523 35 29C35 28.4477 34.5523 28 34 28H32C32.5523 28 33 27.5523 33 27C33 26.4477 32.5523 26 32 26H31V25C31 24.4477 30.5523 24 30 24Z" fill="black"/>
<path d="M33 24C32.4477 24 32 24.4477 32 25C32 25.5523 32.4477 26 33 26C33.5523 26 34 25.5523 34 25C34 24.4477 33.5523 24 33 24Z" fill="black"/>
<path d="M38 36C37.4477 36 37 35.5523 37 35V33C37 32.4477 37.4477 32 38 32C38.5523 32 39 32.4477 39 33V34H40C40.5523 34 41 34.4477 41 35C41 35.5523 40.5523 36 40 36H39C39.5523 36 40 36.4477 40 37V38H41C41.5523 38 42 38.4477 42 39V41C42 41.5523 41.5523 42 41 42C40.4477 42 40 41.5523 40 41V40H39C38.4477 40 38 39.5523 38 39V38H35C34.4477 38 34 37.5523 34 37C34 36.4477 34.4477 36 35 36H38Z" fill="black"/>
<path d="M41 32C40.4477 32 40 32.4477 40 33C40 33.5523 40.4477 34 41 34C41.5523 34 42 33.5523 42 33C42 32.4477 41.5523 32 41 32Z" fill="black"/>
<path d="M38 40C37.4477 40 37 40.4477 37 41C37 41.5523 37.4477 42 38 42C38.5523 42 39 41.5523 39 41C39 40.4477 38.5523 40 38 40Z" fill="black"/>
<path d="M35 39C34.4477 39 34 39.4477 34 40C34 40.5523 34.4477 41 35 41C35.5523 41 36 40.5523 36 40C36 39.4477 35.5523 39 35 39Z" fill="black"/>
<path d="M26 32H27C27.5523 32 28 32.4477 28 33C28 33.5523 27.5523 34 27 34H23C22.4477 34 22 33.5523 22 33V31C22 30.4477 22.4477 30 23 30H25C25.5523 30 26 30.4477 26 31V32Z" fill="black"/>
<path d="M37 29C36.4477 29 36 29.4477 36 30C36 30.5523 36.4477 31 37 31H41C41.5523 31 42 30.5523 42 30C42 29.4477 41.5523 29 41 29H37Z" fill="black"/>
<path d="M61 25.5V23.5C61 22.6716 61.6716 22 62.5 22H64.5C65.3284 22 66 22.6716 66 23.5V25.5C66 26.3284 65.3284 27 64.5 27H62.5C61.6716 27 61 26.3284 61 25.5Z" fill="black"/>
<path d="M76 25.5V23.5C76 22.6716 76.6716 22 77.5 22H79.5C80.3284 22 81 22.6716 81 23.5V25.5C81 26.3284 80.3284 27 79.5 27H77.5C76.6716 27 76 26.3284 76 25.5Z" fill="black"/>
<path d="M61 38.5V40.5C61 41.3284 61.6716 42 62.5 42H64.5C65.3284 42 66 41.3284 66 40.5V38.5C66 37.6716 65.3284 37 64.5 37H62.5C61.6716 37 61 37.6716 61 38.5Z" fill="black"/>
<path d="M72 23C72 22.4477 72.4477 22 73 22C73.5523 22 74 22.4477 74 23C74 23.5523 73.5523 24 73 24C72.4477 24 72 23.5523 72 23Z" fill="black"/>
<path d="M69 24C68.4477 24 68 24.4477 68 25V27C68 27.5523 68.4477 28 69 28H68C67.4477 28 67 28.4477 67 29C67 29.5523 67.4477 30 68 30C68.5523 30 69 29.5523 69 29V33C69 33.5523 69.4477 34 70 34H73C72.4477 34 72 34.4477 72 35V36H69C68.4477 36 68 36.4477 68 37C68 37.5523 68.4477 38 69 38H70V40H69C68.4477 40 68 40.4477 68 41C68 41.5523 68.4477 42 69 42H71C71.5523 42 72 41.5523 72 41V36H73C73.5523 36 74 35.5523 74 35C74 34.4477 73.5523 34 73 34H74C74.5523 34 75 33.5523 75 33C75 32.4477 74.5523 32 74 32H71V29C71 29.5523 71.4477 30 72 30H73C73.5523 30 74 29.5523 74 29C74 28.4477 73.5523 28 73 28H71C71.5523 28 72 27.5523 72 27C72 26.4477 71.5523 26 71 26H70V25C70 24.4477 69.5523 24 69 24Z" fill="black"/>
<path d="M72 24C71.4477 24 71 24.4477 71 25C71 25.5523 71.4477 26 72 26C72.5523 26 73 25.5523 73 25C73 24.4477 72.5523 24 72 24Z" fill="black"/>
<path d="M77 36C76.4477 36 76 35.5523 76 35V33C76 32.4477 76.4477 32 77 32C77.5523 32 78 32.4477 78 33V34H79C79.5523 34 80 34.4477 80 35C80 35.5523 79.5523 36 79 36H78C78.5523 36 79 36.4477 79 37V38H80C80.5523 38 81 38.4477 81 39V41C81 41.5523 80.5523 42 80 42C79.4477 42 79 41.5523 79 41V40H78C77.4477 40 77 39.5523 77 39V38H74C73.4477 38 73 37.5523 73 37C73 36.4477 73.4477 36 74 36H77Z" fill="black"/>
<path d="M80 32C79.4477 32 79 32.4477 79 33C79 33.5523 79.4477 34 80 34C80.5523 34 81 33.5523 81 33C81 32.4477 80.5523 32 80 32Z" fill="black"/>
<path d="M77 40C76.4477 40 76 40.4477 76 41C76 41.5523 76.4477 42 77 42C77.5523 42 78 41.5523 78 41C78 40.4477 77.5523 40 77 40Z" fill="black"/>
<path d="M74 39C73.4477 39 73 39.4477 73 40C73 40.5523 73.4477 41 74 41C74.5523 41 75 40.5523 75 40C75 39.4477 74.5523 39 74 39Z" fill="black"/>
<path d="M65 32H66C66.5523 32 67 32.4477 67 33C67 33.5523 66.5523 34 66 34H62C61.4477 34 61 33.5523 61 33V31C61 30.4477 61.4477 30 62 30H64C64.5523 30 65 30.4477 65 31V32Z" fill="black"/>
<path d="M76 29C75.4477 29 75 29.4477 75 30C75 30.5523 75.4477 31 76 31H80C80.5523 31 81 30.5523 81 30C81 29.4477 80.5523 29 80 29H76Z" fill="black"/>
</svg>
