<svg width="104" height="64" viewBox="0 0 104 64" fill="none" xmlns="http://www.w3.org/2000/svg">
<path d="M32.1401 30.1449C32.4224 29.9332 32.4901 29.5379 32.2944 29.2443C32.0617 28.8953 31.5678 28.8464 31.2712 29.143L30.7071 29.7071C30.3166 30.0976 29.6834 30.0976 29.2929 29.7071C28.9024 29.3166 28.9024 28.6834 29.2929 28.2929L29.857 27.7288C31.046 26.5397 33.0257 26.7358 33.9585 28.1349C34.743 29.3117 34.4715 30.8963 33.3401 31.7449L33.2916 31.7813C33.108 31.919 33 32.135 33 32.3645L33 32.5C33 33.0523 32.5523 33.5 32 33.5C31.4477 33.5 31 33.0523 31 32.5L31 32.3645C31 31.5055 31.4044 30.6967 32.0916 30.1813L32.1401 30.1449Z" fill="black"/>
<path d="M31 35.5C31 36.0523 31.4477 36.5 32 36.5C32.5523 36.5 33 36.0523 33 35.5C33 34.9477 32.5523 34.5 32 34.5C31.4477 34.5 31 34.9477 31 35.5Z" fill="black"/>
<path fill-rule="evenodd" clip-rule="evenodd" d="M22 32C22 26.4772 26.4772 22 32 22C37.5228 22 42 26.4772 42 32C42 37.5228 37.5228 42 32 42C26.4772 42 22 37.5228 22 32ZM32 24C27.5817 24 24 27.5817 24 32C24 36.4183 27.5817 40 32 40C36.4183 40 40 36.4183 40 32C40 27.5817 36.4183 24 32 24Z" fill="black"/>
<path fill-rule="evenodd" clip-rule="evenodd" d="M81 32C81 36.9706 76.9706 41 72 41C67.0294 41 63 36.9706 63 32C63 27.0294 67.0294 23 72 23C76.9706 23 81 27.0294 81 32ZM72.1401 30.1449C72.4224 29.9332 72.4901 29.5379 72.2944 29.2443C72.0617 28.8953 71.5678 28.8464 71.2712 29.143L70.7071 29.7071C70.3166 30.0976 69.6834 30.0976 69.2929 29.7071C68.9024 29.3166 68.9024 28.6834 69.2929 28.2929L69.857 27.7288C71.046 26.5397 73.0257 26.7358 73.9585 28.1349C74.743 29.3117 74.4715 30.8963 73.3401 31.7449L73.2916 31.7813C73.108 31.919 73 32.135 73 32.3645L73 32.5C73 33.0523 72.5523 33.5 72 33.5C71.4477 33.5 71 33.0523 71 32.5L71 32.3645C71 31.5055 71.4044 30.6967 72.0916 30.1813L72.1401 30.1449ZM71 35.5C71 36.0523 71.4477 36.5 72 36.5C72.5523 36.5 73 36.0523 73 35.5C73 34.9477 72.5523 34.5 72 34.5C71.4477 34.5 71 34.9477 71 35.5Z" fill="black"/>
</svg>
