<svg width="104" height="64" viewBox="0 0 104 64" fill="none" xmlns="http://www.w3.org/2000/svg">
<path d="M27 30.3405V27C27 25.3431 28.3431 24 30 24H35C36.6569 24 38 25.3431 38 27V32.2903C38 32.5135 37.976 32.7344 37.9147 32.949C37.5833 34.1087 36.2306 38.0667 32.8929 39.4363C32.0797 39.77 31.2199 39.9183 30.4603 39.973C29.5902 40.0357 29.2105 38.909 29.6591 38.1609C29.8374 37.8636 30.0048 37.5312 30.1429 37.1663C30.36 36.5922 30.4728 36.027 30.5278 35.5361C30.6361 34.569 30.0212 33.724 29.1556 33.2794L28.6293 33.009C27.629 32.4952 27 31.4651 27 30.3405Z" stroke="black" stroke-width="2" stroke-linecap="round" stroke-linejoin="round"/>
<path d="M67 30.3405V27C67 25.3431 68.3431 24 70 24H75C76.6569 24 78 25.3431 78 27V32.2903C78 32.5135 77.976 32.7344 77.9147 32.949C77.5833 34.1087 76.2306 38.0667 72.8929 39.4363C72.0797 39.77 71.2199 39.9183 70.4603 39.973C69.5902 40.0357 69.2105 38.909 69.6591 38.1609C69.8374 37.8636 70.0048 37.5312 70.1429 37.1663C70.36 36.5922 70.4728 36.027 70.5278 35.5361C70.6361 34.569 70.0212 33.724 69.1556 33.2794L68.6293 33.009C67.629 32.4952 67 31.4651 67 30.3405Z" fill="black"/>
</svg>
