<svg width="104" height="64" viewBox="0 0 104 64" fill="none" xmlns="http://www.w3.org/2000/svg">
<path d="M28 26C27.4477 26 27 26.4477 27 27C27 27.5523 27.4477 28 28 28H36C36.5523 28 37 27.5523 37 27C37 26.4477 36.5523 26 36 26H28Z" fill="black"/>
<path d="M27 32C27 31.4477 27.4477 31 28 31H36C36.5523 31 37 31.4477 37 32C37 32.5523 36.5523 33 36 33H28C27.4477 33 27 32.5523 27 32Z" fill="black"/>
<path d="M28 36C27.4477 36 27 36.4477 27 37C27 37.5523 27.4477 38 28 38H30.6667C31.219 38 31.6667 37.5523 31.6667 37C31.6667 36.4477 31.219 36 30.6667 36H28Z" fill="black"/>
<path d="M33.3333 36C32.781 36 32.3333 36.4477 32.3333 37C32.3333 37.5523 32.781 38 33.3333 38H36C36.5523 38 37 37.5523 37 37C37 36.4477 36.5523 36 36 36H33.3333Z" fill="black"/>
<path fill-rule="evenodd" clip-rule="evenodd" d="M35.4818 41.9012C35.5942 41.9293 35.7033 41.9697 35.8069 42.0215C38.1928 43.2144 41 41.4795 41 38.812V25C41 22.7909 39.2091 21 37 21H27C24.7909 21 23 22.7909 23 25V38.812C23 41.4795 25.8072 43.2144 28.1931 42.0215C28.2967 41.9697 28.4058 41.9293 28.5182 41.9012L31.5149 41.152C31.8334 41.0724 32.1666 41.0724 32.4851 41.152L35.4818 41.9012ZM25 25C25 23.8954 25.8954 23 27 23H37C38.1046 23 39 23.8954 39 25V38.812C39 39.9927 37.7574 40.7607 36.7013 40.2326C36.4672 40.1156 36.2209 40.0244 35.9669 39.9609L32.9701 39.2118C32.3332 39.0525 31.6668 39.0525 31.0299 39.2118L28.0331 39.9609C27.7791 40.0244 27.5328 40.1156 27.2987 40.2326C26.2426 40.7607 25 39.9927 25 38.812V25Z" fill="black"/>
<path fill-rule="evenodd" clip-rule="evenodd" d="M64 38.812V25C64 23.3431 65.3431 22 67 22H77C78.6569 22 80 23.3431 80 25V38.812C80 40.7361 77.9751 41.9876 76.2541 41.1271C76.0852 41.0426 75.9076 40.9769 75.7244 40.9311L72.7276 40.1819C72.2499 40.0625 71.7501 40.0625 71.2724 40.1819L68.2756 40.9311C68.0924 40.9769 67.9148 41.0426 67.7459 41.1271C66.0249 41.9876 64 40.7361 64 38.812ZM68 26C67.4477 26 67 26.4477 67 27C67 27.5523 67.4477 28 68 28H76C76.5523 28 77 27.5523 77 27C77 26.4477 76.5523 26 76 26H68ZM67 32C67 31.4477 67.4477 31 68 31H76C76.5523 31 77 31.4477 77 32C77 32.5523 76.5523 33 76 33H68C67.4477 33 67 32.5523 67 32ZM68 36C67.4477 36 67 36.4477 67 37C67 37.5523 67.4477 38 68 38H70.6667C71.219 38 71.6667 37.5523 71.6667 37C71.6667 36.4477 71.219 36 70.6667 36H68ZM73.3333 36C72.781 36 72.3333 36.4477 72.3333 37C72.3333 37.5523 72.781 38 73.3333 38H76C76.5523 38 77 37.5523 77 37C77 36.4477 76.5523 36 76 36H73.3333Z" fill="black"/>
</svg>
