<svg width="104" height="64" viewBox="0 0 104 64" fill="none" xmlns="http://www.w3.org/2000/svg">
<path d="M41.4571 28.7071C41.8476 28.3166 41.8476 27.6834 41.4571 27.2929L37.4571 23.2929C37.0666 22.9024 36.4334 22.9024 36.0429 23.2929C35.6524 23.6834 35.6524 24.3166 36.0429 24.7071L38.3358 27H29.25C25.384 27 22.25 30.134 22.25 34C22.25 37.866 25.384 41 29.25 41H38.75C39.3023 41 39.75 40.5523 39.75 40C39.75 39.4477 39.3023 39 38.75 39H29.25C26.4886 39 24.25 36.7614 24.25 34C24.25 31.2386 26.4886 29 29.25 29H38.3358L36.0429 31.2929C35.6524 31.6834 35.6524 32.3166 36.0429 32.7071C36.4334 33.0976 37.0666 33.0976 37.4571 32.7071L41.4571 28.7071Z" fill="black"/>
<path fill-rule="evenodd" clip-rule="evenodd" d="M65 22C63.3431 22 62 23.3431 62 25V39C62 40.6569 63.3431 42 65 42H79C80.6569 42 82 40.6569 82 39V25C82 23.3431 80.6569 22 79 22H65ZM80.4571 28.7071C80.8476 28.3166 80.8476 27.6834 80.4571 27.2929L76.4571 23.2929C76.0666 22.9024 75.4334 22.9024 75.0429 23.2929C74.6524 23.6834 74.6524 24.3166 75.0429 24.7071L77.3358 27H69.75C66.1601 27 63.25 29.9101 63.25 33.5C63.25 37.0899 66.1602 40 69.75 40H77.75C78.3023 40 78.75 39.5523 78.75 39C78.75 38.4477 78.3023 38 77.75 38H69.75C67.2647 38 65.25 35.9853 65.25 33.5C65.25 31.0147 67.2647 29 69.75 29H77.3358L75.0429 31.2929C74.6524 31.6834 74.6524 32.3166 75.0429 32.7071C75.4334 33.0976 76.0666 33.0976 76.4571 32.7071L80.4571 28.7071Z" fill="black"/>
</svg>
