<svg width="104" height="64" viewBox="0 0 104 64" fill="none" xmlns="http://www.w3.org/2000/svg">
<path d="M37 24C37 23.4477 37.4477 23 38 23C38.5523 23 39 23.4477 39 24V27.2C39 27.7523 38.5523 28.2 38 28.2H34.8884C34.3362 28.2 33.8884 27.7523 33.8884 27.2C33.8884 26.6477 34.3362 26.2 34.8884 26.2H35.5735C34.4881 25.4407 33.181 25 31.7775 25C28.0608 25 25 28.1072 25 32C25 32.5523 24.5523 33 24 33C23.4477 33 23 32.5523 23 32C23 27.0562 26.9034 23 31.7775 23C33.7372 23 35.5433 23.6585 37 24.7659V24Z" fill="black"/>
<path d="M27 40C27 40.5523 26.5523 41 26 41C25.4477 41 25 40.5523 25 40V36.8C25 36.2477 25.4477 35.8 26 35.8H29.1116C29.6638 35.8 30.1116 36.2477 30.1116 36.8C30.1116 37.3523 29.6638 37.8 29.1116 37.8H28.4265C29.5119 38.5593 30.819 39 32.2225 39C35.9392 39 39 35.8928 39 32C39 31.4477 39.4477 31 40 31C40.5523 31 41 31.4477 41 32C41 36.9438 37.0966 41 32.2225 41C30.2628 41 28.4567 40.3415 27 39.2341V40Z" fill="black"/>
<path fill-rule="evenodd" clip-rule="evenodd" d="M62 25C62 23.3431 63.3431 22 65 22H79C80.6569 22 82 23.3431 82 25V39C82 40.6569 80.6569 42 79 42H65C63.3431 42 62 40.6569 62 39V25ZM77 24C76.4477 24 76 24.4477 76 25V25.3999C74.7712 24.5197 73.2799 24 71.6664 24C67.3869 24 64 27.6283 64 32C64 32.5523 64.4477 33 65 33C65.5523 33 66 32.5523 66 32C66 28.6397 68.5824 26 71.6664 26C72.6926 26 73.6595 26.2892 74.4951 26.8H74.333C73.7807 26.8 73.333 27.2477 73.333 27.8C73.333 28.3523 73.7807 28.8 74.333 28.8H77C77.5523 28.8 78 28.3523 78 27.8V25C78 24.4477 77.5523 24 77 24ZM68 39C68 39.5523 67.5523 40 67 40C66.4477 40 66 39.5523 66 39V36.2C66 35.6477 66.4477 35.2 67 35.2H69.667C70.2193 35.2 70.667 35.6477 70.667 36.2C70.667 36.7523 70.2193 37.2 69.667 37.2H69.5049C70.3405 37.7108 71.3074 38 72.3336 38C75.4176 38 78 35.3603 78 32C78 31.4477 78.4477 31 79 31C79.5523 31 80 31.4477 80 32C80 36.3717 76.6131 40 72.3336 40C70.7201 40 69.2288 39.4803 68 38.6001V39Z" fill="black"/>
</svg>
