<svg width="104" height="64" viewBox="0 0 104 64" fill="none" xmlns="http://www.w3.org/2000/svg">
<path d="M37.2242 22.369C37.5727 21.9406 38.2025 21.8758 38.631 22.2242L41.631 24.6642C41.8524 24.8443 41.9863 25.1104 41.999 25.3955C42.0117 25.6806 41.902 25.9576 41.6975 26.1566L38.6975 29.0766C38.3017 29.4618 37.6686 29.4533 37.2834 29.0575C36.8982 28.6618 36.9067 28.0286 37.3025 27.6434L38.5389 26.44H29.56C26.4893 26.44 24 28.9293 24 32C24 32.5523 23.5523 33 23 33C22.4477 33 22 32.5523 22 32C22 27.8248 25.3847 24.44 29.56 24.44H38.1857L37.369 23.7758C36.9406 23.4273 36.8757 22.7975 37.2242 22.369Z" fill="black"/>
<path d="M26.7758 41.631C26.4273 42.0595 25.7975 42.1243 25.369 41.7758L22.369 39.3358C22.1476 39.1558 22.0137 38.8897 22.001 38.6046C21.9883 38.3194 22.098 38.0425 22.3025 37.8434L25.3025 34.9234C25.6983 34.5382 26.3314 34.5468 26.7166 34.9425C27.1018 35.3383 27.0933 35.9714 26.6975 36.3566L25.4611 37.56H34.44C37.5107 37.56 40 35.0707 40 32C40 31.4477 40.4477 31 41 31C41.5523 31 42 31.4477 42 32C42 36.1753 38.6153 39.56 34.44 39.56H25.8143L26.631 40.2242C27.0594 40.5727 27.1243 41.2026 26.7758 41.631Z" fill="black"/>
<path d="M32.7536 29.8478C32.7536 29.229 32.2519 28.7273 31.6331 28.7273C31.4209 28.7273 31.2131 28.7876 31.0338 28.9011L29.7768 29.6969C29.6093 29.803 29.5078 29.9874 29.5078 30.1856C29.5078 30.6403 30.0082 31.1172 30.3934 30.8757L30.8935 30.566C30.9407 30.5367 31.0702 30.4758 31.1221 30.4561C31.1693 30.438 31.2159 30.4745 31.2159 30.5251V35.2312C31.2159 35.6558 31.5601 36.0001 31.9847 36.0001C32.4093 36.0001 32.7536 35.6558 32.7536 35.2312V29.8478Z" fill="black"/>
<path d="M77.2242 22.369C77.5727 21.9406 78.2025 21.8758 78.631 22.2242L81.631 24.6642C81.8524 24.8443 81.9863 25.1104 81.999 25.3955C82.0117 25.6806 81.902 25.9576 81.6975 26.1566L78.6975 29.0766C78.3017 29.4618 77.6686 29.4533 77.2834 29.0575C76.8982 28.6618 76.9067 28.0286 77.3025 27.6434L78.5389 26.44H69.56C66.4893 26.44 64 28.9293 64 32C64 32.5523 63.5523 33 63 33C62.4477 33 62 32.5523 62 32C62 27.8248 65.3847 24.44 69.56 24.44H78.1857L77.369 23.7758C76.9406 23.4273 76.8757 22.7975 77.2242 22.369Z" fill="black"/>
<path d="M66.7758 41.631C66.4273 42.0595 65.7975 42.1243 65.369 41.7758L62.369 39.3358C62.1476 39.1558 62.0137 38.8897 62.001 38.6046C61.9883 38.3194 62.098 38.0425 62.3025 37.8434L65.3025 34.9234C65.6983 34.5382 66.3314 34.5468 66.7166 34.9425C67.1018 35.3383 67.0933 35.9714 66.6975 36.3566L65.4611 37.56H74.44C77.5107 37.56 80 35.0707 80 32C80 31.4477 80.4477 31 81 31C81.5523 31 82 31.4477 82 32C82 36.1753 78.6153 39.56 74.44 39.56H65.8143L66.631 40.2242C67.0594 40.5727 67.1243 41.2026 66.7758 41.631Z" fill="black"/>
<path d="M72.7536 29.8478C72.7536 29.229 72.2519 28.7273 71.6331 28.7273C71.4209 28.7273 71.2131 28.7876 71.0338 28.9011L69.7768 29.6969C69.6093 29.803 69.5078 29.9874 69.5078 30.1856C69.5078 30.6403 70.0082 31.1172 70.3934 30.8757L70.8935 30.566C70.9407 30.5367 71.0702 30.4758 71.1221 30.4561C71.1693 30.438 71.2159 30.4745 71.2159 30.5251V35.2312C71.2159 35.6558 71.5601 36.0001 71.9847 36.0001C72.4093 36.0001 72.7536 35.6558 72.7536 35.2312V29.8478Z" fill="black"/>
</svg>
