<svg width="104" height="64" viewBox="0 0 104 64" fill="none" xmlns="http://www.w3.org/2000/svg">
<path d="M38.631 22.2242C38.2025 21.8758 37.5727 21.9406 37.2242 22.369C36.8757 22.7975 36.9406 23.4273 37.369 23.7758L38.1857 24.44H29.56C25.3847 24.44 22 27.8248 22 32C22 32.5523 22.4477 33 23 33C23.5523 33 24 32.5523 24 32C24 28.9293 26.4893 26.44 29.56 26.44H38.5389L37.3025 27.6434C36.9067 28.0286 36.8982 28.6618 37.2834 29.0575C37.6686 29.4533 38.3017 29.4618 38.6975 29.0766L41.6975 26.1566C41.902 25.9576 42.0117 25.6806 41.999 25.3955C41.9863 25.1104 41.8524 24.8443 41.631 24.6642L38.631 22.2242Z" fill="black"/>
<path d="M25.369 41.7758C25.7975 42.1243 26.4273 42.0595 26.7758 41.631C27.1243 41.2026 27.0594 40.5727 26.631 40.2242L25.8143 39.56H34.44C38.6153 39.56 42 36.1753 42 32C42 31.4477 41.5523 31 41 31C40.4477 31 40 31.4477 40 32C40 35.0707 37.5107 37.56 34.44 37.56H25.4611L26.6975 36.3566C27.0933 35.9714 27.1018 35.3383 26.7166 34.9425C26.3314 34.5468 25.6983 34.5382 25.3025 34.9234L22.3025 37.8434C22.098 38.0425 21.9883 38.3194 22.001 38.6046C22.0137 38.8897 22.1476 39.1558 22.369 39.3358L25.369 41.7758Z" fill="black"/>
<path d="M78.631 22.2242C78.2025 21.8758 77.5727 21.9406 77.2242 22.369C76.8757 22.7975 76.9406 23.4273 77.369 23.7758L78.1857 24.44H69.56C65.3847 24.44 62 27.8248 62 32C62 32.5523 62.4477 33 63 33C63.5523 33 64 32.5523 64 32C64 28.9293 66.4893 26.44 69.56 26.44H78.5389L77.3025 27.6434C76.9067 28.0286 76.8982 28.6618 77.2834 29.0575C77.6686 29.4533 78.3017 29.4618 78.6975 29.0766L81.6975 26.1566C81.902 25.9576 82.0117 25.6806 81.999 25.3955C81.9863 25.1104 81.8524 24.8443 81.631 24.6642L78.631 22.2242Z" fill="black"/>
<path d="M65.369 41.7758C65.7975 42.1243 66.4273 42.0595 66.7758 41.631C67.1243 41.2026 67.0594 40.5727 66.631 40.2242L65.8143 39.56H74.44C78.6153 39.56 82 36.1753 82 32C82 31.4477 81.5523 31 81 31C80.4477 31 80 31.4477 80 32C80 35.0707 77.5107 37.56 74.44 37.56H65.4611L66.6975 36.3566C67.0933 35.9714 67.1018 35.3383 66.7166 34.9425C66.3314 34.5468 65.6983 34.5382 65.3025 34.9234L62.3025 37.8434C62.098 38.0425 61.9883 38.3194 62.001 38.6046C62.0137 38.8897 62.1476 39.1558 62.369 39.3358L65.369 41.7758Z" fill="black"/>
</svg>
