<svg width="104" height="64" viewBox="0 0 104 64" fill="none" xmlns="http://www.w3.org/2000/svg">
<path d="M33.752 27.7084C33.3278 27.3548 32.6972 27.4122 32.3436 27.8364C32.059 28.178 32.0407 28.6533 32.2658 29.0101C30.9078 29.7803 29.9995 31.2386 29.9995 32.8989V35.7737C29.9995 36.326 30.4473 36.7737 30.9995 36.7737C31.5518 36.7737 31.9995 36.326 31.9995 35.7737V32.8989C31.9995 32.305 32.21 31.7578 32.562 31.3304C32.6482 31.5559 32.8158 31.751 33.0487 31.8674C33.5427 32.1144 34.1434 31.9142 34.3903 31.4202L35.1507 29.8995C35.2319 29.7443 35.2734 29.5657 35.2623 29.378C35.2454 29.0899 35.1081 28.8375 34.9021 28.6668L33.752 27.7084Z" fill="black"/>
<path fill-rule="evenodd" clip-rule="evenodd" d="M22.4138 29.1716C20.8517 30.7337 20.8517 33.2664 22.4138 34.8285L29.1711 41.5858C30.7332 43.1479 33.2659 43.1479 34.828 41.5858L41.5854 34.8285C43.1475 33.2664 43.1475 30.7337 41.5854 29.1716L34.828 22.4142C33.2659 20.8522 30.7332 20.8522 29.1711 22.4142L22.4138 29.1716ZM23.828 33.4143C23.0469 32.6332 23.0469 31.3669 23.828 30.5858L30.5853 23.8285C31.3664 23.0474 32.6327 23.0474 33.4138 23.8285L40.1711 30.5858C40.9522 31.3669 40.9522 32.6332 40.1711 33.4143L33.4138 40.1716C32.6327 40.9527 31.3664 40.9527 30.5853 40.1716L23.828 33.4143Z" fill="black"/>
<path fill-rule="evenodd" clip-rule="evenodd" d="M63.1209 29.8787L69.8782 23.1214C71.0498 21.9498 72.9493 21.9498 74.1209 23.1214L80.8783 29.8787C82.0498 31.0503 82.0498 32.9498 80.8783 34.1214L74.1209 40.8787C72.9493 42.0503 71.0498 42.0503 69.8782 40.8787L63.1209 34.1214C61.9493 32.9498 61.9493 31.0503 63.1209 29.8787ZM73.752 27.7084C73.3278 27.3548 72.6972 27.4122 72.3436 27.8364C72.059 28.178 72.0407 28.6533 72.2658 29.0101C70.9078 29.7803 69.9995 31.2386 69.9995 32.8989L69.9995 35.7737C69.9995 36.326 70.4473 36.7737 70.9995 36.7737C71.5518 36.7737 71.9995 36.326 71.9995 35.7737V32.8989C71.9995 32.305 72.21 31.7578 72.562 31.3304C72.6482 31.5559 72.8158 31.751 73.0487 31.8674C73.5427 32.1144 74.1434 31.9142 74.3903 31.4202L75.1507 29.8995C75.2319 29.7443 75.2734 29.5657 75.2623 29.378C75.2454 29.0899 75.1081 28.8375 74.9021 28.6668L73.752 27.7084Z" fill="black"/>
</svg>
