<svg width="104" height="64" viewBox="0 0 104 64" fill="none" xmlns="http://www.w3.org/2000/svg">
<path fill-rule="evenodd" clip-rule="evenodd" d="M37.8395 26.2305C36.8632 25.2542 35.2803 25.2542 34.304 26.2305C33.3277 27.2068 33.3277 28.7897 34.304 29.766C35.2803 30.7424 36.8632 30.7424 37.8395 29.766C38.8158 28.7897 38.8158 27.2068 37.8395 26.2305ZM35.7182 27.6447C35.9135 27.4495 36.2301 27.4495 36.4253 27.6447C36.6206 27.84 36.6206 28.1566 36.4253 28.3518C36.2301 28.5471 35.9135 28.5471 35.7182 28.3518C35.523 28.1566 35.523 27.84 35.7182 27.6447Z" fill="black"/>
<path fill-rule="evenodd" clip-rule="evenodd" d="M41.3748 22.6949C41.2349 22.5495 41.0546 22.451 40.8603 22.4099C39.9181 22.0562 38.3268 21.7971 35.9264 22.7359C34.2392 23.3957 32.1588 24.644 29.607 26.8533C29.3021 26.7621 28.9784 26.7252 28.6621 26.7259C28.0676 26.7271 27.4026 26.8593 26.7079 27.1228C25.3144 27.6513 23.7317 28.7337 22.2229 30.539C21.8909 30.9363 21.917 31.5213 22.2831 31.8874C23.1119 32.7162 24.0584 32.8407 24.8182 32.774C25.1678 32.7432 25.4931 32.6711 25.7289 32.6188L25.7463 32.615C25.8897 32.5832 25.9869 32.5629 26.0547 32.5505C26.0789 32.5541 26.1033 32.5567 26.128 32.5585C28.3668 32.7184 29.5425 33.1365 30.2379 33.8319C30.9332 34.5272 31.3514 35.7029 31.5113 37.9418C31.5131 37.9668 31.5158 37.9916 31.5194 38.0162C31.507 38.0839 31.4867 38.181 31.4551 38.3238L31.4512 38.3412C31.3989 38.577 31.3268 38.9022 31.2961 39.2519C31.2293 40.0116 31.3539 40.9581 32.1827 41.7869C32.5488 42.153 33.1338 42.1792 33.531 41.8471C35.3364 40.3384 36.4187 38.7557 36.9473 37.3621C37.2108 36.6675 37.3429 36.0024 37.3442 35.408C37.3448 35.0914 37.3079 34.7676 37.2166 34.4625C39.4258 31.9108 40.674 29.8305 41.3338 28.1433C42.2726 25.743 42.0136 24.1516 41.6599 23.2095C41.6188 23.0151 41.5203 22.8349 41.3748 22.6949ZM27.1255 29.1663C27.0536 29.2379 26.9814 29.3101 26.9088 29.383L25.7116 30.5802C25.5788 30.6032 25.4554 30.6307 25.3553 30.6531L25.3135 30.6624C25.0992 30.7099 24.9159 30.7495 24.7378 30.7716C25.6333 29.919 26.4903 29.3809 27.2198 29.072L27.1255 29.1663ZM28.3297 30.7905L28.302 30.8184C29.6787 31.089 30.8026 31.5682 31.6521 32.4177C32.5016 33.2672 32.9807 34.391 33.2513 35.7677C36.9993 32.0432 38.7268 29.3184 39.4712 27.4149C40.103 25.7994 40.0286 24.7746 39.8768 24.193C39.2952 24.0411 38.2703 23.9667 36.6549 24.5985C34.7908 25.3276 32.1389 26.9993 28.532 30.5883L28.3297 30.7905ZM34.998 36.8503L33.4898 38.3584C33.4669 38.4913 33.4393 38.6147 33.417 38.7148L33.4077 38.7565C33.3602 38.9709 33.3206 39.1541 33.2985 39.3322C34.1511 38.4368 34.6892 37.5797 34.998 36.8503Z" fill="black"/>
<path fill-rule="evenodd" clip-rule="evenodd" d="M28.8006 33.846C29.0761 33.9283 29.4221 34.0767 29.7077 34.3623C29.9933 34.648 30.1417 34.9939 30.224 35.2694C30.3087 35.553 30.3456 35.8373 30.3617 36.0713C30.3781 36.3092 30.3748 36.5231 30.3679 36.6763C30.3644 36.7538 30.3598 36.818 30.3559 36.8647C30.354 36.8881 30.3522 36.9072 30.3508 36.9216L30.3489 36.9396L30.3482 36.9458L30.348 36.9482L30.3479 36.9492C30.3478 36.9494 30.3478 36.9501 29.3541 36.8372L30.3479 36.9492C30.3127 37.2584 30.1355 37.5346 29.8686 37.6947C29.1578 38.1212 28.2536 38.4149 27.5843 38.5975C27.2387 38.6917 26.9331 38.7623 26.7131 38.8094C26.6029 38.833 26.5135 38.8509 26.4506 38.8631C26.4191 38.8692 26.3942 38.8739 26.3765 38.8771L26.3555 38.8809L26.3493 38.8821L26.3462 38.8826C26.3461 38.8826 26.3459 38.8827 26.1722 37.8979C25.1916 37.7018 25.1916 37.7017 25.1916 37.7016L25.1922 37.6987L25.1935 37.6923L25.1982 37.6695C25.2022 37.6501 25.2079 37.6223 25.2154 37.5871C25.2304 37.5167 25.2522 37.4165 25.2801 37.2941C25.3359 37.05 25.4169 36.7143 25.5177 36.3497C25.618 35.9871 25.7413 35.5837 25.8828 35.2083C26.0184 34.8488 26.1947 34.4487 26.4191 34.1347C26.5838 33.9041 26.8385 33.7543 27.1199 33.7223L27.2328 34.7159C27.1199 33.7223 27.1197 33.7223 27.1199 33.7223L27.1219 33.7221L27.1243 33.7218L27.1305 33.7211L27.1485 33.7193C27.1628 33.7179 27.182 33.7161 27.2054 33.7141C27.2521 33.7102 27.3163 33.7057 27.3938 33.7022C27.5469 33.6952 27.7608 33.692 27.9988 33.7084C28.2327 33.7245 28.517 33.7613 28.8006 33.846ZM27.8386 35.7022C27.8115 35.7661 27.7833 35.8367 27.7542 35.9139C27.6824 36.1045 27.6136 36.3121 27.5495 36.5232C27.8324 36.4332 28.1131 36.3314 28.3672 36.2198L28.3664 36.2088C28.3564 36.063 28.3359 35.9365 28.3077 35.8419C28.3 35.816 28.2929 35.7967 28.2872 35.7828C28.2734 35.7772 28.254 35.7701 28.2281 35.7623C28.1336 35.7341 28.0071 35.7137 27.8613 35.7036L27.8386 35.7022Z" fill="black"/>
<path d="M26.1722 37.8979L26.3462 38.8826C26.0209 38.94 25.688 38.8331 25.4571 38.5969C25.2262 38.3607 25.1268 38.0255 25.1916 37.7016L26.1722 37.8979Z" fill="black"/>
<path fill-rule="evenodd" clip-rule="evenodd" d="M66.3965 31.1782C75.3708 21.5732 79.5116 22.4509 80.8595 23.0247C81.4333 24.3726 82.311 28.5134 72.706 37.4877C72.3797 32.9187 70.9654 31.5045 66.3965 31.1782ZM77.3297 28.6761C76.7439 29.2619 75.7942 29.2619 75.2084 28.6761C74.6226 28.0903 74.6226 27.1406 75.2084 26.5548C75.7942 25.969 76.7439 25.969 77.3297 26.5548C77.9155 27.1406 77.9155 28.0903 77.3297 28.6761Z" fill="black"/>
<path d="M69.198 26.718C68.268 26.0237 65.3133 26.5103 62.4805 29.9C63.3164 30.7359 64.287 30.5208 65.0217 30.358C65.2659 30.3039 65.484 30.2556 65.6624 30.2536L69.198 26.718Z" fill="black"/>
<path d="M76.9763 34.6868C77.6706 35.6168 77.184 38.5715 73.7943 41.4043C72.9584 40.5683 73.1735 39.5977 73.3363 38.8631C73.3904 38.6189 73.4387 38.4007 73.4408 38.2223L76.9763 34.6868Z" fill="black"/>
<path d="M66.3694 37.5151C66.3694 37.5151 66.8408 35.158 67.4301 34.3331C67.4301 34.3331 68.7 34.1888 69.1979 34.6866C69.6957 35.1845 69.5514 36.4544 69.5514 36.4544C68.3729 37.1615 66.3694 37.5151 66.3694 37.5151Z" fill="black"/>
</svg>
