<svg width="104" height="64" viewBox="0 0 104 64" fill="none" xmlns="http://www.w3.org/2000/svg">
<path fill-rule="evenodd" clip-rule="evenodd" d="M32.0001 25.9998C30.6193 25.9998 29.5001 27.1191 29.5001 28.4998C29.5001 29.8805 30.6193 30.9998 32.0001 30.9998C33.3808 30.9998 34.5001 29.8805 34.5001 28.4998C34.5001 27.1191 33.3808 25.9998 32.0001 25.9998ZM31.5001 28.4998C31.5001 28.2236 31.7239 27.9998 32.0001 27.9998C32.2762 27.9998 32.5001 28.2236 32.5001 28.4998C32.5001 28.7759 32.2762 28.9998 32.0001 28.9998C31.7239 28.9998 31.5001 28.7759 31.5001 28.4998Z" fill="black"/>
<path fill-rule="evenodd" clip-rule="evenodd" d="M32.5656 21.1621C32.399 21.0537 32.2019 20.9958 32.0001 20.9997C31.7982 20.9958 31.6011 21.0537 31.4345 21.1621C30.5254 21.575 29.2242 22.5081 28.192 24.8459C27.4584 26.5074 26.8633 28.8708 26.6194 32.2612C26.3392 32.4124 26.0842 32.6152 25.8609 32.8395C25.4415 33.2607 25.0647 33.8244 24.7598 34.5019C24.1481 35.861 23.7943 37.7455 24.004 40.0889C24.0502 40.6046 24.4823 40.9998 25.0001 40.9998C26.1721 40.9998 26.9295 40.4186 27.4195 39.8341C27.645 39.5652 27.824 39.2842 27.9538 39.0805L27.9633 39.0655C28.0423 38.9416 28.0967 38.8585 28.1359 38.8018C28.1555 38.7871 28.1748 38.7717 28.1935 38.7555C29.8897 37.2854 31.0167 36.7498 32.0001 36.7498C32.9834 36.7498 34.1105 37.2854 35.8066 38.7555C35.8254 38.7717 35.8446 38.7871 35.8642 38.8018C35.9034 38.8585 35.9578 38.9416 36.0368 39.0655L36.0463 39.0805C36.1761 39.2842 36.3551 39.5652 36.5806 39.8341C37.0706 40.4186 37.828 40.9998 39.0001 40.9998C39.5178 40.9998 39.9499 40.6046 39.9961 40.0889C40.2058 37.7455 39.852 35.861 39.2403 34.5019C38.9355 33.8244 38.5586 33.2607 38.1392 32.8395C37.9159 32.6152 37.6609 32.4124 37.3807 32.2612C37.1368 28.8708 36.5417 26.5074 35.8081 24.8459C34.7759 22.5081 33.4747 21.575 32.5656 21.1621ZM26.5001 37.6512C26.4224 37.7613 26.3546 37.8681 26.2996 37.9546L26.2767 37.9907C26.1586 38.1759 26.0571 38.3335 25.9468 38.475C25.9771 37.239 26.2026 36.2525 26.5001 35.5183V37.6512ZM37.5001 37.6512V35.5183C37.7975 36.2525 38.023 37.239 38.0533 38.475C37.943 38.3335 37.8415 38.1759 37.7235 37.9907L37.7005 37.9546C37.6455 37.8681 37.5777 37.7613 37.5001 37.6512ZM32.0001 23.1182C31.4833 23.421 30.7132 24.0874 30.0216 25.6537C29.1966 27.5222 28.4836 30.6757 28.5004 35.9878C29.6652 35.2056 30.7987 34.7498 32.0001 34.7498C33.2015 34.7498 34.335 35.2056 35.4998 35.9878C35.5165 30.6757 34.8035 27.5222 33.9785 25.6537C33.287 24.0874 32.5168 23.421 32.0001 23.1182Z" fill="black"/>
<path fill-rule="evenodd" clip-rule="evenodd" d="M30.9935 37.7761C31.2466 37.6395 31.5961 37.4998 32.0001 37.4998C32.404 37.4998 32.7536 37.6395 33.0066 37.7761C33.267 37.9167 33.4941 38.0917 33.6709 38.2457C33.8507 38.4024 33.9997 38.556 34.1031 38.6692C34.1554 38.7264 34.1976 38.7751 34.2278 38.8108C34.243 38.8287 34.2553 38.8436 34.2644 38.8547L34.2758 38.8687L34.2797 38.8736L34.2813 38.8755L34.2819 38.8763C34.282 38.8765 34.2825 38.877 33.5001 39.4998L34.2819 38.8763C34.4757 39.1198 34.5457 39.4404 34.4702 39.7423C34.2691 40.5466 33.8375 41.3936 33.4933 41.9959C33.3156 42.307 33.1493 42.573 33.0271 42.7618C32.9659 42.8564 32.9153 42.9323 32.8794 42.9854C32.8746 42.9926 32.87 42.9994 32.8656 43.0058C32.854 43.0229 32.8444 43.0369 32.837 43.0477L32.8248 43.0653L32.8212 43.0705L32.8194 43.073C32.8194 43.0731 32.8193 43.0732 32.0001 42.4998C31.168 43.0545 31.168 43.0544 31.1679 43.0543L31.1663 43.0519L31.1626 43.0464L31.1498 43.027C31.1389 43.0105 31.1234 42.9867 31.1038 42.9565C31.0646 42.8962 31.0091 42.8099 30.9423 42.7036C30.8092 42.4916 30.6291 42.197 30.4425 41.8678C30.2571 41.5405 30.059 41.1681 29.8936 40.8026C29.7353 40.4525 29.5771 40.0449 29.5137 39.6642C29.4671 39.3847 29.5412 39.0987 29.7176 38.877L30.5001 39.4998C29.7176 38.877 29.7175 38.8772 29.7176 38.877L29.7189 38.8755L29.7204 38.8736L29.7243 38.8687L29.7357 38.8547C29.7448 38.8436 29.7571 38.8287 29.7723 38.8108C29.8026 38.7751 29.8447 38.7264 29.897 38.6692C30.0004 38.556 30.1494 38.4024 30.3292 38.2457C30.506 38.0917 30.7331 37.9167 30.9935 37.7761ZM31.6258 39.7688C31.6519 39.8332 31.6818 39.903 31.7158 39.9782C31.7998 40.1638 31.898 40.3593 32.0019 40.5538C32.1384 40.2901 32.2648 40.0197 32.3656 39.7611L32.3572 39.7538C32.2471 39.6578 32.1431 39.5828 32.0563 39.536C32.0325 39.5231 32.0138 39.5144 32.0001 39.5087C31.9863 39.5144 31.9676 39.5231 31.9438 39.536C31.857 39.5828 31.753 39.6578 31.6429 39.7538L31.6258 39.7688Z" fill="black"/>
<path d="M32.0001 42.4998L32.8194 43.073C32.63 43.3436 32.319 43.5035 31.9887 43.4997C31.6584 43.496 31.3511 43.3292 31.1679 43.0543L32.0001 42.4998Z" fill="black"/>
<path fill-rule="evenodd" clip-rule="evenodd" d="M67.5386 38C67.0926 24.8625 70.6412 22.555 72.0001 22.0077C73.3589 22.555 76.9075 24.8625 76.4616 38C73.0001 35 71.0001 35 67.5386 38ZM73.5001 28.5C73.5001 29.3284 72.8285 30 72.0001 30C71.1717 30 70.5001 29.3284 70.5001 28.5C70.5001 27.6716 71.1717 27 72.0001 27C72.8285 27 73.5001 27.6716 73.5001 28.5Z" fill="black"/>
<path d="M66.5001 33C65.3515 33.1667 63.6063 35.6 64.0001 40C65.1823 40 65.7165 39.1616 66.1209 38.527C66.2553 38.316 66.3753 38.1276 66.5001 38V33Z" fill="black"/>
<path d="M77.5001 33C78.6486 33.1667 80.3939 35.6 80.0001 40C78.8179 40 78.2836 39.1616 77.8793 38.527C77.7449 38.316 77.6248 38.1276 77.5001 38V33Z" fill="black"/>
<path d="M72.0001 42.5C72.0001 42.5 70.6667 40.5 70.5001 39.5C70.5001 39.5 71.2961 38.5 72.0001 38.5C72.7041 38.5 73.5001 39.5 73.5001 39.5C73.1667 40.8333 72.0001 42.5 72.0001 42.5Z" fill="black"/>
</svg>
