<svg width="104" height="64" viewBox="0 0 104 64" fill="none" xmlns="http://www.w3.org/2000/svg">
<path d="M37.4006 24C37.4006 23.4477 37.8483 23 38.4006 23C38.9529 23 39.4006 23.4477 39.4006 24V27.2C39.4006 27.7523 38.9529 28.2 38.4006 28.2H35.2C34.6477 28.2 34.2 27.7523 34.2 27.2C34.2 26.6477 34.6477 26.2 35.2 26.2H35.9208C34.8018 25.442 33.4526 25 32 25C28.134 25 25 28.134 25 32C25 35.866 28.134 39 32 39C35.866 39 39 35.866 39 32C39 31.4477 39.4477 31 40 31C40.5523 31 41 31.4477 41 32C41 36.9706 36.9706 41 32 41C27.0294 41 23 36.9706 23 32C23 27.0294 27.0294 23 32 23C34.0266 23 35.8967 23.6703 37.4006 24.8V24Z" fill="black"/>
<path fill-rule="evenodd" clip-rule="evenodd" d="M65 22C63.3431 22 62 23.3431 62 25V39C62 40.6569 63.3431 42 65 42H79C80.6569 42 82 40.6569 82 39V25C82 23.3431 80.6569 22 79 22H65ZM76.6005 25C76.6005 24.4477 77.0482 24 77.6005 24C78.1528 24 78.6005 24.4477 78.6005 25V27.8C78.6005 28.3523 78.1528 28.8 77.6005 28.8H74.8C74.2477 28.8 73.8 28.3523 73.8 27.8C73.8 27.2477 74.2477 26.8 74.8 26.8H74.9958C74.114 26.2909 73.091 26 72 26C68.6863 26 66 28.6863 66 32C66 35.3137 68.6863 38 72 38C75.3137 38 78 35.3137 78 32C78 31.4477 78.4477 31 79 31C79.5523 31 80 31.4477 80 32C80 36.4183 76.4183 40 72 40C67.5817 40 64 36.4183 64 32C64 27.5817 67.5817 24 72 24C73.7126 24 75.2996 24.5386 76.6005 25.4545V25Z" fill="black"/>
</svg>
