<svg width="104" height="64" viewBox="0 0 104 64" fill="none" xmlns="http://www.w3.org/2000/svg">
<path d="M26.5994 24C26.5994 23.4477 26.1517 23 25.5994 23C25.0471 23 24.5994 23.4477 24.5994 24V27.2C24.5994 27.7523 25.0471 28.2 25.5994 28.2H28.8C29.3523 28.2 29.8 27.7523 29.8 27.2C29.8 26.6477 29.3523 26.2 28.8 26.2H28.0792C29.1982 25.442 30.5474 25 32 25C35.866 25 39 28.134 39 32C39 35.866 35.866 39 32 39C28.134 39 25 35.866 25 32C25 31.4477 24.5523 31 24 31C23.4477 31 23 31.4477 23 32C23 36.9706 27.0294 41 32 41C36.9706 41 41 36.9706 41 32C41 27.0294 36.9706 23 32 23C29.9734 23 28.1033 23.6703 26.5994 24.8V24Z" fill="black"/>
<path fill-rule="evenodd" clip-rule="evenodd" d="M65 22C63.3431 22 62 23.3431 62 25V39C62 40.6569 63.3431 42 65 42H79C80.6569 42 82 40.6569 82 39V25C82 23.3431 80.6569 22 79 22H65ZM67.3995 25C67.3995 24.4477 66.9518 24 66.3995 24C65.8472 24 65.3995 24.4477 65.3995 25V27.8C65.3995 28.3523 65.8472 28.8 66.3995 28.8H69.2C69.7523 28.8 70.2 28.3523 70.2 27.8C70.2 27.2477 69.7523 26.8 69.2 26.8H69.0043C69.886 26.2909 70.909 26 72 26C75.3137 26 78 28.6863 78 32C78 35.3137 75.3137 38 72 38C68.6863 38 66 35.3137 66 32C66 31.4477 65.5523 31 65 31C64.4477 31 64 31.4477 64 32C64 36.4183 67.5817 40 72 40C76.4183 40 80 36.4183 80 32C80 27.5817 76.4183 24 72 24C70.2874 24 68.7004 24.5386 67.3995 25.4545V25Z" fill="black"/>
</svg>
