<svg width="104" height="64" viewBox="0 0 104 64" fill="none" xmlns="http://www.w3.org/2000/svg">
<path fill-rule="evenodd" clip-rule="evenodd" d="M24.2503 26.4502C24.2503 24.9314 25.4816 23.7002 27.0003 23.7002C28.5191 23.7002 29.7503 24.9314 29.7503 26.4502C29.7503 27.969 28.5191 29.2002 27.0003 29.2002C25.4816 29.2002 24.2503 27.969 24.2503 26.4502ZM27.0003 25.7002C26.5861 25.7002 26.2503 26.036 26.2503 26.4502C26.2503 26.8644 26.5861 27.2002 27.0003 27.2002C27.4146 27.2002 27.7503 26.8644 27.7503 26.4502C27.7503 26.036 27.4146 25.7002 27.0003 25.7002Z" fill="black"/>
<path fill-rule="evenodd" clip-rule="evenodd" d="M34.7203 34.4602C34.7203 32.9414 35.9515 31.7102 37.4703 31.7102C38.9891 31.7102 40.2203 32.9414 40.2203 34.4602C40.2203 35.979 38.9891 37.2102 37.4703 37.2102C35.9515 37.2102 34.7203 35.979 34.7203 34.4602ZM37.4703 33.7102C37.0561 33.7102 36.7203 34.046 36.7203 34.4602C36.7203 34.8744 37.0561 35.2102 37.4703 35.2102C37.8845 35.2102 38.2203 34.8744 38.2203 34.4602C38.2203 34.046 37.8845 33.7102 37.4703 33.7102Z" fill="black"/>
<path fill-rule="evenodd" clip-rule="evenodd" d="M31.6607 29.3033C33.1686 26.8403 32.4998 23.6293 30.134 21.9732C28.2524 20.6561 25.7481 20.6561 23.8665 21.9732C21.5007 23.6293 20.8319 26.8403 22.3398 29.3033L24.4417 32.7364C24.6367 33.055 24.8764 33.3204 25.1458 33.5328C24.7844 34.0721 24.5193 34.7481 24.4769 35.507C24.4065 36.7695 24.9591 38.1009 26.3602 39.2685C27.7496 40.4263 29.8197 41.126 31.7412 41.5629C33.6967 42.0075 35.6524 42.2126 36.9339 42.298C37.1258 42.3108 37.3087 42.2686 37.4671 42.1848C38.4532 42.1843 39.4391 41.7064 40.0239 40.7513L42.1258 37.3182C43.6337 34.8552 42.9649 31.6442 40.5991 29.9881C38.7175 28.671 36.2132 28.671 34.3316 29.9881C31.9658 31.6442 31.2969 34.8552 32.8049 37.3182L34.4646 40.0291C33.7333 39.9243 32.9567 39.7882 32.1846 39.6126C30.3311 39.1912 28.6511 38.5742 27.6406 37.732C26.6417 36.8996 26.4443 36.1477 26.4738 35.6185C26.5065 35.0335 26.826 34.5306 27.1406 34.2685C27.1813 34.2346 27.2186 34.1981 27.2525 34.1595C28.1524 34.0849 29.0236 33.6106 29.5588 32.7364L31.6607 29.3033ZM25.0134 23.6116C26.2064 22.7766 27.7941 22.7766 28.9871 23.6116C30.487 24.6616 30.911 26.6974 29.955 28.259L27.8531 31.6921C27.463 32.3292 26.5375 32.3292 26.1474 31.6921L24.0455 28.259C23.0895 26.6974 23.5135 24.6616 25.0134 23.6116ZM39.4521 31.6265C38.2592 30.7915 36.6715 30.7915 35.4785 31.6265C33.9786 32.6765 33.5545 34.7123 34.5106 36.2739L36.6125 39.707C37.0026 40.3441 37.9281 40.3441 38.3182 39.707L40.4201 36.2739C41.3761 34.7123 40.9521 32.6765 39.4521 31.6265Z" fill="black"/>
<path fill-rule="evenodd" clip-rule="evenodd" d="M65.2945 32.7191L63.1925 29.286C61.9606 27.2738 62.507 24.6503 64.4399 23.2973C65.9771 22.2212 68.0232 22.2212 69.5604 23.2973C71.4933 24.6503 72.0397 27.2738 70.8078 29.286L68.7059 32.7191C68.4142 33.1955 67.9729 33.4938 67.4938 33.614C67.4656 33.8605 67.3462 34.097 67.1405 34.2685C66.8259 34.5306 66.5064 35.0335 66.4737 35.6185C66.4442 36.1477 66.6416 36.8996 67.6405 37.732C68.651 38.5742 70.331 39.1912 72.1845 39.6126C73.2986 39.8659 74.422 40.0372 75.4053 40.1506L73.6576 37.296C72.4256 35.2838 72.9721 32.6603 74.905 31.3073C76.4422 30.2312 78.4883 30.2312 80.0255 31.3073C81.9584 32.6603 82.5048 35.2838 81.2729 37.296L79.1709 40.7291C78.8766 41.2099 78.4298 41.5093 77.9456 41.6273C77.802 42.0431 77.3939 42.3287 76.9338 42.298C75.6523 42.2126 73.6966 42.0075 71.7411 41.5629C69.8196 41.126 67.7495 40.4263 66.3601 39.2685C64.959 38.1009 64.4064 36.7695 64.4768 35.507C64.5334 34.4942 64.9866 33.629 65.5361 33.0394C65.4476 32.9435 65.3665 32.8367 65.2945 32.7191ZM67.0002 28.7051C67.9667 28.7051 68.7502 27.9216 68.7502 26.9551C68.7502 25.9886 67.9667 25.2051 67.0002 25.2051C66.0337 25.2051 65.2502 25.9886 65.2502 26.9551C65.2502 27.9216 66.0337 28.7051 67.0002 28.7051ZM77.4702 36.7102C78.4367 36.7102 79.2202 35.9267 79.2202 34.9602C79.2202 33.9937 78.4367 33.2102 77.4702 33.2102C76.5037 33.2102 75.7202 33.9937 75.7202 34.9602C75.7202 35.9267 76.5037 36.7102 77.4702 36.7102Z" fill="black"/>
</svg>
