<svg width="104" height="64" viewBox="0 0 104 64" fill="none" xmlns="http://www.w3.org/2000/svg">
<path fill-rule="evenodd" clip-rule="evenodd" d="M24 21.5C22.6193 21.5 21.5 22.6193 21.5 24V29C21.5 30.3807 22.6193 31.5 24 31.5H39C40.3807 31.5 41.5 30.3807 41.5 29V24C41.5 22.6193 40.3807 21.5 39 21.5H24ZM23.5 24C23.5 23.7239 23.7239 23.5 24 23.5L39 23.5C39.2761 23.5 39.5 23.7239 39.5 24V29C39.5 29.2761 39.2761 29.5 39 29.5H24C23.7239 29.5 23.5 29.2761 23.5 29L23.5 24Z" fill="black"/>
<path fill-rule="evenodd" clip-rule="evenodd" d="M41.5 35C41.5 33.6193 40.3807 32.5 39 32.5L24 32.5C22.6193 32.5 21.5 33.6193 21.5 35V40C21.5 41.3807 22.6193 42.5 24 42.5H39C40.3807 42.5 41.5 41.3807 41.5 40V35ZM39 34.5C39.2761 34.5 39.5 34.7239 39.5 35V40C39.5 40.2761 39.2761 40.5 39 40.5H24C23.7239 40.5 23.5 40.2761 23.5 40L23.5 35C23.5 34.7239 23.7239 34.5 24 34.5L39 34.5Z" fill="black"/>
<path d="M80.5 40V35C80.5 34.1716 79.8284 33.5 79 33.5H64C63.1716 33.5 62.5 34.1716 62.5 35L62.5 40C62.5 40.8284 63.1716 41.5 64 41.5H79C79.8284 41.5 80.5 40.8284 80.5 40Z" fill="black"/>
<path d="M79 22.5L64 22.5C63.1716 22.5 62.5 23.1716 62.5 24L62.5 29C62.5 29.8284 63.1716 30.5 64 30.5H79C79.8284 30.5 80.5 29.8284 80.5 29L80.5 24C80.5 23.1716 79.8284 22.5 79 22.5Z" fill="black"/>
<path d="M80.5 40V35C80.5 34.1716 79.8284 33.5 79 33.5H64C63.1716 33.5 62.5 34.1716 62.5 35L62.5 40C62.5 40.8284 63.1716 41.5 64 41.5H79C79.8284 41.5 80.5 40.8284 80.5 40Z" fill="black"/>
<path d="M79 22.5L64 22.5C63.1716 22.5 62.5 23.1716 62.5 24L62.5 29C62.5 29.8284 63.1716 30.5 64 30.5H79C79.8284 30.5 80.5 29.8284 80.5 29L80.5 24C80.5 23.1716 79.8284 22.5 79 22.5Z" fill="black"/>
</svg>
