<svg width="104" height="64" viewBox="0 0 104 64" fill="none" xmlns="http://www.w3.org/2000/svg">
<path d="M28.5 26C27.9477 26 27.5 26.4477 27.5 27C27.5 27.5523 27.9477 28 28.5 28H35.2C35.7523 28 36.2 27.5523 36.2 27C36.2 26.4477 35.7523 26 35.2 26H28.5Z" fill="black"/>
<path fill-rule="evenodd" clip-rule="evenodd" d="M27 22C24.7909 22 23 23.7909 23 26V38C23 40.2091 24.7909 42 27 42H37C39.2091 42 41 40.2091 41 38V28.7997C41 27.6941 40.5424 26.6377 39.7358 25.8815L36.7494 23.0819C36.008 22.3868 35.0299 22 34.0137 22H27ZM25 26C25 24.8954 25.8954 24 27 24H34.0137C34.5218 24 35.0108 24.1934 35.3815 24.5409L38.3679 27.3406C38.7712 27.7187 39 28.2469 39 28.7997V38C39 39.1046 38.1046 40 37 40H36.2V39C36.2 37.8954 35.3046 37 34.2 37H30C28.8954 37 28 37.8954 28 39V40H27C25.8954 40 25 39.1046 25 38V26ZM34.2 39L34.2 40H30V39H34.2Z" fill="black"/>
<path fill-rule="evenodd" clip-rule="evenodd" d="M64 26V38C64 39.6569 65.3431 41 67 41H68V39C68 37.8954 68.8954 37 70 37H74.2C75.3046 37 76.2 37.8954 76.2 39V41H77C78.6569 41 80 39.6569 80 38V28.7997C80 27.9705 79.6568 27.1782 79.0518 26.6111L76.0655 23.8114C75.5094 23.2901 74.7758 23 74.0137 23H67C65.3431 23 64 24.3431 64 26ZM68.5 26C67.9477 26 67.5 26.4477 67.5 27C67.5 27.5523 67.9477 28 68.5 28H75.2C75.7523 28 76.2 27.5523 76.2 27C76.2 26.4477 75.7523 26 75.2 26H68.5Z" fill="black"/>
<path d="M74.2 39H70V40H74.2V39Z" fill="black"/>
</svg>
