<svg width="103" height="64" viewBox="0 0 103 64" fill="none" xmlns="http://www.w3.org/2000/svg">
<path d="M22 26C22 23.7909 23.7909 22 26 22H28C28.5523 22 29 22.4477 29 23C29 23.5523 28.5523 24 28 24H26C24.8954 24 24 24.8954 24 26V28C24 28.5523 23.5523 29 23 29C22.4477 29 22 28.5523 22 28V26Z" fill="black"/>
<path d="M42 26C42 23.7909 40.2091 22 38 22H36C35.4477 22 35 22.4477 35 23C35 23.5523 35.4477 24 36 24H38C39.1046 24 40 24.8954 40 26V28C40 28.5523 40.4477 29 41 29C41.5523 29 42 28.5523 42 28V26Z" fill="black"/>
<path d="M26 42C23.7909 42 22 40.2091 22 38V36C22 35.4477 22.4477 35 23 35C23.5523 35 24 35.4477 24 36V38C24 39.1046 24.8954 40 26 40H28C28.5523 40 29 40.4477 29 41C29 41.5523 28.5523 42 28 42H26Z" fill="black"/>
<path d="M42 38C42 40.2091 40.2091 42 38 42H36C35.4477 42 35 41.5523 35 41C35 40.4477 35.4477 40 36 40H38C39.1046 40 40 39.1046 40 38V36C40 35.4477 40.4477 35 41 35C41.5523 35 42 35.4477 42 36V38Z" fill="black"/>
<path d="M22 32C21.4477 32 21 32.4477 21 33C21 33.5523 21.4477 34 22 34H42C42.5523 34 43 33.5523 43 33C43 32.4477 42.5523 32 42 32H22Z" fill="black"/>
<path d="M61 26C61 23.7909 62.7909 22 65 22H67C67.5523 22 68 22.4477 68 23C68 23.5523 67.5523 24 67 24H65C63.8954 24 63 24.8954 63 26V28C63 28.5523 62.5523 29 62 29C61.4477 29 61 28.5523 61 28V26Z" fill="black"/>
<path d="M81 26C81 23.7909 79.2091 22 77 22H75C74.4477 22 74 22.4477 74 23C74 23.5523 74.4477 24 75 24H77C78.1046 24 79 24.8954 79 26V28C79 28.5523 79.4477 29 80 29C80.5523 29 81 28.5523 81 28V26Z" fill="black"/>
<path d="M65 42C62.7909 42 61 40.2091 61 38V36C61 35.4477 61.4477 35 62 35C62.5523 35 63 35.4477 63 36V38C63 39.1046 63.8954 40 65 40H67C67.5523 40 68 40.4477 68 41C68 41.5523 67.5523 42 67 42H65Z" fill="black"/>
<path d="M81 38C81 40.2091 79.2091 42 77 42H75C74.4477 42 74 41.5523 74 41C74 40.4477 74.4477 40 75 40H77C78.1046 40 79 39.1046 79 38V36C79 35.4477 79.4477 35 80 35C80.5523 35 81 35.4477 81 36V38Z" fill="black"/>
<path d="M61 32C60.4477 32 60 32.4477 60 33C60 33.5523 60.4477 34 61 34H81C81.5523 34 82 33.5523 82 33C82 32.4477 81.5523 32 81 32H61Z" fill="black"/>
</svg>
