<svg width="104" height="64" viewBox="0 0 104 64" fill="none" xmlns="http://www.w3.org/2000/svg">
<path fill-rule="evenodd" clip-rule="evenodd" d="M35.9153 23.4027C36.1377 22.8972 35.9083 22.3071 35.4027 22.0847C34.8972 21.8623 34.3071 22.0918 34.0847 22.5973L32 27.3352L29.9153 22.5973C29.6929 22.0918 29.1028 21.8623 28.5973 22.0847C28.0917 22.3071 27.8623 22.8972 28.0847 23.4027L30.9075 29.8182L29.0108 34.1288C28.6879 34.0448 28.3492 34 28 34C25.7909 34 24 35.7909 24 38C24 40.2091 25.7909 42 28 42C30.2091 42 32 40.2091 32 38C32 40.2091 33.7909 42 36 42C38.2091 42 40 40.2091 40 38C40 35.7909 38.2091 34 36 34C35.6508 34 35.3121 34.0448 34.9892 34.1288L33.0925 29.8182L35.9153 23.4027ZM34.7001 36.48C34.7684 36.466 34.8363 36.4445 34.9027 36.4153C35.0507 36.3502 35.1749 36.2537 35.2712 36.137C35.497 36.0485 35.7428 36 36 36C37.1046 36 38 36.8954 38 38C38 39.1046 37.1046 40 36 40C34.8954 40 34 39.1046 34 38C34 37.3917 34.2716 36.8468 34.7001 36.48ZM33.2355 35.1091C32.4742 35.8373 32 36.8633 32 38C32 36.8633 31.5258 35.8373 30.7645 35.1091L32 32.3012L33.2355 35.1091ZM28.7288 36.137C28.8251 36.2537 28.9493 36.3502 29.0973 36.4153C29.1637 36.4445 29.2316 36.466 29.2999 36.48C29.7284 36.8468 30 37.3917 30 38C30 39.1046 29.1046 40 28 40C26.8954 40 26 39.1046 26 38C26 36.8954 26.8954 36 28 36C28.2572 36 28.503 36.0485 28.7288 36.137Z" fill="black"/>
<path d="M75.9153 23.4027C76.1377 22.8972 75.9083 22.3071 75.4027 22.0847C74.8972 21.8623 74.3071 22.0918 74.0847 22.5973L72 27.3352L69.9153 22.5973C69.6929 22.0918 69.1028 21.8623 68.5973 22.0847C68.0917 22.3071 67.8623 22.8972 68.0847 23.4027L70.9075 29.8182L68.601 35.0602C68.4068 35.0207 68.2058 35 68 35C66.3431 35 65 36.3432 65 38C65 39.6569 66.3431 41 68 41C69.6569 41 71 39.6569 71 38C71 37.2726 70.7411 36.6056 70.3104 36.0862C70.351 36.03 70.3863 35.9687 70.4153 35.9027L72 32.3012L73.5847 35.9027C73.6137 35.9687 73.649 36.03 73.6896 36.0862C73.2589 36.6056 73 37.2726 73 38C73 39.6569 74.3431 41 76 41C77.6569 41 79 39.6569 79 38C79 36.3432 77.6569 35 76 35C75.7942 35 75.5932 35.0207 75.399 35.0602L73.0925 29.8182L75.9153 23.4027Z" fill="black"/>
</svg>
