<svg width="104" height="64" viewBox="0 0 104 64" fill="none" xmlns="http://www.w3.org/2000/svg">
<path d="M26 22C23.7909 22 22 23.7909 22 26V28C22 28.5523 22.4477 29 23 29C23.5523 29 24 28.5523 24 28V26C24 24.8954 24.8954 24 26 24H28C28.5523 24 29 23.5523 29 23C29 22.4477 28.5523 22 28 22H26Z" fill="black"/>
<path d="M38 22C40.2091 22 42 23.7909 42 26V28C42 28.5523 41.5523 29 41 29C40.4477 29 40 28.5523 40 28V26C40 24.8954 39.1046 24 38 24H36C35.4477 24 35 23.5523 35 23C35 22.4477 35.4477 22 36 22H38Z" fill="black"/>
<path d="M22 38C22 40.2091 23.7909 42 26 42H28C28.5523 42 29 41.5523 29 41C29 40.4477 28.5523 40 28 40H26C24.8954 40 24 39.1046 24 38V36C24 35.4477 23.5523 35 23 35C22.4477 35 22 35.4477 22 36V38Z" fill="black"/>
<path d="M38 42C40.2091 42 42 40.2091 42 38V36C42 35.4477 41.5523 35 41 35C40.4477 35 40 35.4477 40 36V38C40 39.1046 39.1046 40 38 40H36C35.4477 40 35 40.4477 35 41C35 41.5523 35.4477 42 36 42H38Z" fill="black"/>
<path d="M27.9097 30.079C28.1984 30.1752 28.4249 30.4017 28.5211 30.6904C28.619 30.9841 29.0345 30.9841 29.1325 30.6904C29.2287 30.4017 29.4552 30.1752 29.7438 30.079C30.0376 29.9811 30.0376 29.5655 29.7438 29.4676C29.4552 29.3714 29.2287 29.1449 29.1325 28.8563C29.0345 28.5625 28.619 28.5625 28.5211 28.8563C28.4249 29.1449 28.1984 29.3714 27.9097 29.4676C27.616 29.5655 27.616 29.9811 27.9097 30.079Z" fill="black"/>
<path fill-rule="evenodd" clip-rule="evenodd" d="M25 29.6001C25 27.391 26.7909 25.6001 29 25.6001H35C37.2091 25.6001 39 27.391 39 29.6001V34.4001C39 34.5205 38.9947 34.6396 38.9843 34.7573C38.9947 34.8511 39 34.946 39 35.0416C39 36.8964 37.4963 38.4001 35.6415 38.4001H29C26.7909 38.4001 25 36.6092 25 34.4001V29.6001ZM33.4413 36.4001H35C35.9603 36.4001 36.7625 35.7233 36.9557 34.8208C36.9128 34.7182 36.8403 34.6288 36.7451 34.5654L34.872 33.3166C34.4198 33.0152 33.8097 33.13 33.4981 33.5752L32.6221 34.8266C32.1581 35.4894 32.6323 36.4001 33.4413 36.4001ZM37 32.3316V29.6001C37 28.4955 36.1046 27.6001 35 27.6001H29C27.8954 27.6001 27 28.4955 27 29.6001V34.4001C27 34.894 27.179 35.3461 27.4757 35.695C27.5402 35.4593 27.6449 35.235 27.7865 35.0325L29.1885 33.028C29.8841 32.0337 31.1297 31.632 32.2473 31.9765C33.2425 31.0263 34.7936 30.8607 35.9814 31.6525L37 32.3316ZM30.5552 34.5635C30.3726 35.1831 30.4064 35.8239 30.6122 36.4001H29.5407C29.4632 36.3998 29.4 36.3369 29.4 36.2594C29.4 36.2306 29.4089 36.2024 29.4254 36.1788L30.5552 34.5635Z" fill="black"/>
<path d="M62 26C62 23.7909 63.7909 22 66 22H68C68.5523 22 69 22.4477 69 23C69 23.5523 68.5523 24 68 24H66C64.8954 24 64 24.8954 64 26V28C64 28.5523 63.5523 29 63 29C62.4477 29 62 28.5523 62 28V26Z" fill="black"/>
<path d="M82 26C82 23.7909 80.2091 22 78 22H76C75.4477 22 75 22.4477 75 23C75 23.5523 75.4477 24 76 24H78C79.1046 24 80 24.8954 80 26V28C80 28.5523 80.4477 29 81 29C81.5523 29 82 28.5523 82 28V26Z" fill="black"/>
<path d="M66 42C63.7909 42 62 40.2091 62 38V36C62 35.4477 62.4477 35 63 35C63.5523 35 64 35.4477 64 36V38C64 39.1046 64.8954 40 66 40H68C68.5523 40 69 40.4477 69 41C69 41.5523 68.5523 42 68 42H66Z" fill="black"/>
<path d="M82 38C82 40.2091 80.2091 42 78 42H76C75.4477 42 75 41.5523 75 41C75 40.4477 75.4477 40 76 40H78C79.1046 40 80 39.1046 80 38V36C80 35.4477 80.4477 35 81 35C81.5523 35 82 35.4477 82 36V38Z" fill="black"/>
<path d="M68.521 30.6903C68.4248 30.4017 68.1983 30.1752 67.9096 30.079C67.6158 29.981 67.6158 29.5655 67.9096 29.4676C68.1983 29.3714 68.4248 29.1449 68.521 28.8562C68.6189 28.5625 69.0344 28.5625 69.1323 28.8562C69.2286 29.1449 69.4551 29.3714 69.7437 29.4676C70.0375 29.5655 70.0375 29.981 69.7437 30.079C69.4551 30.1752 69.2286 30.4017 69.1323 30.6903C69.0344 30.9841 68.6189 30.9841 68.521 30.6903Z" fill="black"/>
<path fill-rule="evenodd" clip-rule="evenodd" d="M69 25.6001C66.7909 25.6001 65 27.391 65 29.6001V34.4001C65 36.6092 66.7909 38.4001 69 38.4001H75C77.2091 38.4001 79 36.6092 79 34.4001V29.6001C79 27.391 77.2091 25.6001 75 25.6001H69ZM67 29.6001C67 28.4955 67.8954 27.6001 69 27.6001H75C76.1046 27.6001 77 28.4955 77 29.6001V33.5332L75.4267 32.4844C74.5224 31.8815 73.3021 32.1112 72.6788 33.0016L72.5 33.257C71.7164 32.8136 70.524 32.8631 70.0079 33.6009L68.6059 35.6054C68.4718 35.797 68.3999 36.0252 68.3999 36.2591C68.3999 36.2758 68.4003 36.2924 68.401 36.3088C67.589 36.0543 67 35.296 67 34.4001V29.6001Z" fill="black"/>
</svg>
