<svg width="104" height="64" viewBox="0 0 104 64" fill="none" xmlns="http://www.w3.org/2000/svg">
<path fill-rule="evenodd" clip-rule="evenodd" d="M31 22C26.0294 22 22 26.0294 22 31C22 35.9706 26.0294 40 31 40C33.125 40 35.078 39.2635 36.6177 38.0319L40.2929 41.7071C40.6834 42.0976 41.3166 42.0976 41.7071 41.7071C42.0976 41.3166 42.0976 40.6834 41.7071 40.2929L38.0319 36.6177C39.2635 35.078 40 33.125 40 31C40 26.0294 35.9706 22 31 22ZM24 31C24 27.134 27.134 24 31 24C34.866 24 38 27.134 38 31C38 34.866 34.866 38 31 38C27.134 38 24 34.866 24 31Z" fill="black"/>
<path fill-rule="evenodd" clip-rule="evenodd" d="M71 22C66.0294 22 62 26.0294 62 31C62 35.9706 66.0294 40 71 40C73.125 40 75.078 39.2635 76.6177 38.0319L80.2929 41.7071C80.6834 42.0976 81.3166 42.0976 81.7071 41.7071C82.0976 41.3166 82.0976 40.6834 81.7071 40.2929L78.0319 36.6177C79.2635 35.078 80 33.125 80 31C80 26.0294 75.9706 22 71 22ZM64 31C64 27.134 67.134 24 71 24C74.866 24 78 27.134 78 31C78 34.866 74.866 38 71 38C67.134 38 64 34.866 64 31Z" fill="black"/>
</svg>
