<svg width="104" height="64" viewBox="0 0 104 64" fill="none" xmlns="http://www.w3.org/2000/svg">
<path fill-rule="evenodd" clip-rule="evenodd" d="M40.3697 34.2798C42.3351 33.3954 42.3351 30.6047 40.3697 29.7202L26.2304 23.3576C24.3261 22.5007 22.2727 24.2178 22.7792 26.2437L23.7632 30.18C23.9903 31.0882 24.7003 31.7803 25.5857 32C24.7003 32.2198 23.9903 32.9119 23.7632 33.8201L22.7792 37.7564C22.2727 39.7822 24.3261 41.4994 26.2304 40.6425L40.3697 34.2798ZM25.4097 25.1814L37.9732 30.835L26.1564 30.0726C25.9394 30.0586 25.7563 29.9059 25.7035 29.6949L24.7195 25.7587C24.6182 25.3535 25.0289 25.01 25.4097 25.1814ZM26.1564 33.9275L37.9732 33.1651L25.4097 38.8186C25.0289 38.99 24.6182 38.6466 24.7195 38.2414L25.7035 34.3051C25.7563 34.0942 25.9394 33.9415 26.1564 33.9275Z" fill="black"/>
<path d="M79.9599 30.6321L65.8207 24.2695C64.6781 23.7553 63.446 24.7856 63.7499 26.0012L64.734 29.9374C64.8922 30.5704 65.4415 31.0285 66.0926 31.0705L80.4997 32L66.0926 32.9295C65.4415 32.9715 64.8922 33.4296 64.734 34.0626L63.7499 37.9989C63.446 39.2144 64.6781 40.2447 65.8207 39.7305L79.9599 33.3679C81.1392 32.8372 81.1392 31.1628 79.9599 30.6321Z" fill="black"/>
</svg>
