<svg width="104" height="64" viewBox="0 0 104 64" fill="none" xmlns="http://www.w3.org/2000/svg">
<path d="M39.6754 24.1346C41.8197 23.9179 43.2152 26.3342 41.9557 28.0829L32.8913 40.6629C31.6704 42.3568 29.0339 41.8961 28.4596 39.8885L27.3434 35.9881C27.0858 35.0869 27.3563 34.1308 28.0153 33.4979C27.1378 33.7519 26.1756 33.5094 25.5241 32.8358L22.7038 29.9188C21.2528 28.4176 22.1724 25.9034 24.2497 25.6932L39.6754 24.1346ZM29.4704 34.8846C29.2896 35.0052 29.2067 35.2294 29.2663 35.4383L30.3825 39.3387C30.4973 39.7402 31.025 39.8327 31.2692 39.494L39.3229 28.3153L29.4704 34.8846ZM24.4508 27.6835C24.0358 27.7257 23.8517 28.228 24.1413 28.5282L26.9616 31.4452C27.1127 31.6015 27.3477 31.6421 27.5426 31.5458L38.1569 26.2977L24.4508 27.6835Z" fill="black"/>
<path d="M79.7774 25.1295L64.3511 26.6889C63.1045 26.8149 62.5527 28.3232 63.4237 29.224L66.244 32.1408C66.6976 32.6099 67.4023 32.732 67.9872 32.4428L80.9288 26.0442L68.9167 34.0527C68.3738 34.4147 68.1271 35.086 68.3066 35.7133L69.4225 39.6143C69.7671 40.8189 71.3492 41.0951 72.0817 40.0786L81.1453 27.4988C81.9012 26.4495 81.064 24.9995 79.7774 25.1295Z" fill="black"/>
</svg>
