<svg width="104" height="64" viewBox="0 0 104 64" fill="none" xmlns="http://www.w3.org/2000/svg">
<path fill-rule="evenodd" clip-rule="evenodd" d="M40.3716 29.7202C42.3371 30.6047 42.3371 33.3954 40.3716 34.2798L26.2324 40.6425C24.3281 41.4994 22.2747 39.7822 22.7811 37.7564L23.7652 33.8201C23.9922 32.9119 24.7022 32.2198 25.5877 32C24.7022 31.7803 23.9922 31.0882 23.7652 30.18L22.7811 26.2437C22.2747 24.2178 24.3281 22.5007 26.2324 23.3576L40.3716 29.7202ZM37.9752 30.835L25.4117 25.1814C25.0308 25.01 24.6201 25.3535 24.7214 25.7587L25.7055 29.6949C25.7582 29.9059 25.9413 30.0586 26.1584 30.0726L37.9752 30.835ZM37.9752 33.1651L26.1584 33.9275C25.9413 33.9415 25.7582 34.0942 25.7055 34.3051L24.7214 38.2414C24.6201 38.6466 25.0308 38.99 25.4117 38.8186L37.9752 33.1651Z" fill="black"/>
<path d="M36.5939 25.6308C37.075 25.7912 37.4525 26.1687 37.6128 26.6497C37.776 27.1394 38.4686 27.1394 38.6318 26.6497C38.7921 26.1687 39.1697 25.7912 39.6507 25.6308C40.1403 25.4676 40.1403 24.7751 39.6507 24.6118C39.1697 24.4515 38.7921 24.074 38.6318 23.5929C38.4686 23.1033 37.776 23.1033 37.6128 23.5929C37.4525 24.074 37.075 24.4515 36.5939 24.6118C36.1043 24.7751 36.1043 25.4676 36.5939 25.6308Z" fill="black"/>
<path d="M76.5927 25.6308C77.0738 25.7912 77.4513 26.1687 77.6116 26.6498C77.7748 27.1394 78.4674 27.1394 78.6306 26.6498C78.7909 26.1687 79.1684 25.7912 79.6495 25.6308C80.1391 25.4676 80.1391 24.7751 79.6495 24.6119C79.1684 24.4515 78.7909 24.074 78.6306 23.5929C78.4674 23.1033 77.7748 23.1033 77.6116 23.5929C77.4513 24.074 77.0738 24.4515 76.5927 24.6119C76.1031 24.7751 76.1031 25.4676 76.5927 25.6308Z" fill="black"/>
<path d="M79.9599 30.6321L65.8207 24.2695C64.6781 23.7553 63.446 24.7857 63.7499 26.0012L64.734 29.9375C64.8922 30.5705 65.4415 31.0285 66.0926 31.0705L80.4997 32L66.0926 32.9295C65.4415 32.9715 64.8922 33.4296 64.734 34.0626L63.7499 37.9989C63.446 39.2144 64.6781 40.2447 65.8207 39.7306L79.9599 33.3679C81.1392 32.8372 81.1392 31.1628 79.9599 30.6321Z" fill="black"/>
<path d="M76.5927 25.6308C77.0738 25.7912 77.4513 26.1687 77.6116 26.6498C77.7748 27.1394 78.4674 27.1394 78.6306 26.6498C78.7909 26.1687 79.1684 25.7912 79.6495 25.6308C80.1391 25.4676 80.1391 24.7751 79.6495 24.6119C79.1684 24.4515 78.7909 24.074 78.6306 23.5929C78.4674 23.1033 77.7748 23.1033 77.6116 23.5929C77.4513 24.074 77.0738 24.4515 76.5927 24.6119C76.1031 24.7751 76.1031 25.4676 76.5927 25.6308Z" fill="black"/>
<path d="M79.9599 30.6321L65.8207 24.2695C64.6781 23.7553 63.446 24.7857 63.7499 26.0012L64.734 29.9375C64.8922 30.5705 65.4415 31.0285 66.0926 31.0705L80.4997 32L66.0926 32.9295C65.4415 32.9715 64.8922 33.4296 64.734 34.0626L63.7499 37.9989C63.446 39.2144 64.6781 40.2447 65.8207 39.7306L79.9599 33.3679C81.1392 32.8372 81.1392 31.1628 79.9599 30.6321Z" fill="black"/>
</svg>
