<svg width="104" height="64" viewBox="0 0 104 64" fill="none" xmlns="http://www.w3.org/2000/svg">
<path d="M35 26.5C34.4477 26.5 34 26.9477 34 27.5C34 28.0523 34.4477 28.5 35 28.5H39.5C40.0523 28.5 40.5 28.0523 40.5 27.5C40.5 26.9477 40.0523 26.5 39.5 26.5H35Z" fill="black"/>
<path d="M29.5 27.5C29.5 26.9477 29.9477 26.5 30.5 26.5H32.5C33.0523 26.5 33.5 26.9477 33.5 27.5C33.5 28.0523 33.0523 28.5 32.5 28.5H30.5C29.9477 28.5 29.5 28.0523 29.5 27.5Z" fill="black"/>
<path fill-rule="evenodd" clip-rule="evenodd" d="M25 23.5C22.7909 23.5 21 25.2909 21 27.5C21 29.7091 22.7909 31.5 25 31.5H39C41.2091 31.5 43 29.7091 43 27.5C43 25.2909 41.2091 23.5 39 23.5H25ZM39 25.5C40.1046 25.5 41 26.3954 41 27.5C41 28.6046 40.1046 29.5 39 29.5H25C23.8954 29.5 23 28.6046 23 27.5C23 26.3954 23.8954 25.5 25 25.5H39Z" fill="black"/>
<path d="M34 36.5C34 35.9477 34.4477 35.5 35 35.5H39.5C40.0523 35.5 40.5 35.9477 40.5 36.5C40.5 37.0523 40.0523 37.5 39.5 37.5H35C34.4477 37.5 34 37.0523 34 36.5Z" fill="black"/>
<path d="M30.5 35.5C29.9477 35.5 29.5 35.9477 29.5 36.5C29.5 37.0523 29.9477 37.5 30.5 37.5H32.5C33.0523 37.5 33.5 37.0523 33.5 36.5C33.5 35.9477 33.0523 35.5 32.5 35.5H30.5Z" fill="black"/>
<path fill-rule="evenodd" clip-rule="evenodd" d="M25 32.5C22.7909 32.5 21 34.2909 21 36.5C21 38.7091 22.7909 40.5 25 40.5H39C41.2091 40.5 43 38.7091 43 36.5C43 34.2909 41.2091 32.5 39 32.5H25ZM39 34.5C40.1046 34.5 41 35.3954 41 36.5C41 37.6046 40.1046 38.5 39 38.5H25C23.8954 38.5 23 37.6046 23 36.5C23 35.3954 23.8954 34.5 25 34.5H39Z" fill="black"/>
<path fill-rule="evenodd" clip-rule="evenodd" d="M65 24.5H79C80.6569 24.5 82 25.8431 82 27.5C82 29.1569 80.6569 30.5 79 30.5H65C63.3431 30.5 62 29.1569 62 27.5C62 25.8431 63.3431 24.5 65 24.5ZM75 26.5C74.4477 26.5 74 26.9477 74 27.5C74 28.0523 74.4477 28.5 75 28.5H79.5C80.0523 28.5 80.5 28.0523 80.5 27.5C80.5 26.9477 80.0523 26.5 79.5 26.5H75ZM69.5 27.5C69.5 26.9477 69.9477 26.5 70.5 26.5H72.5C73.0523 26.5 73.5 26.9477 73.5 27.5C73.5 28.0523 73.0523 28.5 72.5 28.5H70.5C69.9477 28.5 69.5 28.0523 69.5 27.5Z" fill="black"/>
<path fill-rule="evenodd" clip-rule="evenodd" d="M65 33.5H79C80.6569 33.5 82 34.8431 82 36.5C82 38.1569 80.6569 39.5 79 39.5H65C63.3431 39.5 62 38.1569 62 36.5C62 34.8431 63.3431 33.5 65 33.5ZM75 35.5C74.4477 35.5 74 35.9477 74 36.5C74 37.0523 74.4477 37.5 75 37.5H79.5C80.0523 37.5 80.5 37.0523 80.5 36.5C80.5 35.9477 80.0523 35.5 79.5 35.5H75ZM69.5 36.5C69.5 35.9477 69.9477 35.5 70.5 35.5H72.5C73.0523 35.5 73.5 35.9477 73.5 36.5C73.5 37.0523 73.0523 37.5 72.5 37.5H70.5C69.9477 37.5 69.5 37.0523 69.5 36.5Z" fill="black"/>
</svg>
