<svg width="104" height="64" viewBox="0 0 104 64" fill="none" xmlns="http://www.w3.org/2000/svg">
<path d="M34 37.5C34 36.9477 34.4477 36.5 35 36.5H39.5C40.0523 36.5 40.5 36.9477 40.5 37.5C40.5 38.0523 40.0523 38.5 39.5 38.5H35C34.4477 38.5 34 38.0523 34 37.5Z" fill="black"/>
<path d="M30.5 36.5C29.9477 36.5 29.5 36.9477 29.5 37.5C29.5 38.0523 29.9477 38.5 30.5 38.5H32.5C33.0523 38.5 33.5 38.0523 33.5 37.5C33.5 36.9477 33.0523 36.5 32.5 36.5H30.5Z" fill="black"/>
<path fill-rule="evenodd" clip-rule="evenodd" d="M43 37.5V26C43 23.7909 41.2091 22 39 22H25C22.7909 22 21 23.7909 21 26V37.5C21 39.7091 22.7909 41.5 25 41.5H39C41.2091 41.5 43 39.7091 43 37.5ZM25 24C23.8954 24 23 24.8954 23 26V34.0351C23.5883 33.6948 24.2714 33.5 25 33.5H39C39.7286 33.5 40.4117 33.6948 41 34.0351V26C41 24.8954 40.1046 24 39 24H25ZM41 37.5C41 36.3954 40.1046 35.5 39 35.5H25C23.8954 35.5 23 36.3954 23 37.5C23 38.6046 23.8954 39.5 25 39.5H39C40.1046 39.5 41 38.6046 41 37.5Z" fill="black"/>
<path d="M79.4545 34C80.5281 34 81.4699 34.5639 82 35.4116V26C82 24.3431 80.6569 23 79 23H65C63.3431 23 62 24.3431 62 26V35.4116C62.5301 34.5639 63.4719 34 64.5455 34H79.4545Z" fill="black"/>
<path fill-rule="evenodd" clip-rule="evenodd" d="M65 35H79C80.6569 35 82 36.3431 82 38C82 39.6569 80.6569 41 79 41H65C63.3431 41 62 39.6569 62 38C62 36.3431 63.3431 35 65 35ZM73.8182 37C73.2659 37 72.8182 37.4477 72.8182 38C72.8182 38.5523 73.2659 39 73.8182 39H77.9091C78.4614 39 78.9091 38.5523 78.9091 38C78.9091 37.4477 78.4614 37 77.9091 37H73.8182ZM68.7273 38C68.7273 37.4477 69.175 37 69.7273 37H71.5455C72.0977 37 72.5455 37.4477 72.5455 38C72.5455 38.5523 72.0977 39 71.5455 39H69.7273C69.175 39 68.7273 38.5523 68.7273 38Z" fill="black"/>
</svg>
