<svg width="104" height="64" viewBox="0 0 104 64" fill="none" xmlns="http://www.w3.org/2000/svg">
<path fill-rule="evenodd" clip-rule="evenodd" d="M35 23C36.8638 23 38.4299 24.2748 38.874 26H41C41.5523 26 42 26.4477 42 27C42 27.5523 41.5523 28 41 28H38.874C38.4299 29.7252 36.8638 31 35 31C33.1362 31 31.5701 29.7252 31.126 28L23 28C22.4477 28 22 27.5523 22 27C22 26.4477 22.4477 26 23 26L31.126 26C31.5701 24.2748 33.1362 23 35 23ZM35 25C36.1046 25 37 25.8954 37 27C37 28.1046 36.1046 29 35 29C33.8954 29 33 28.1046 33 27C33 25.8954 33.8954 25 35 25Z" fill="black"/>
<path fill-rule="evenodd" clip-rule="evenodd" d="M25.126 36H23C22.4477 36 22 36.4477 22 37C22 37.5523 22.4477 38 23 38H25.126C25.5701 39.7252 27.1362 41 29 41C30.8638 41 32.4299 39.7252 32.874 38L41 38C41.5523 38 42 37.5523 42 37C42 36.4477 41.5523 36 41 36L32.874 36C32.4299 34.2748 30.8638 33 29 33C27.1362 33 25.5701 34.2748 25.126 36ZM29 39C30.1046 39 31 38.1046 31 37C31 35.8954 30.1046 35 29 35C27.8954 35 27 35.8954 27 37C27 38.1046 27.8954 39 29 39Z" fill="black"/>
<path d="M75 24C73.6887 24 72.5738 24.8414 72.1659 26.0137C72.1119 26.0047 72.0565 26 72 26L63 26C62.4477 26 62 26.4477 62 27C62 27.5523 62.4477 28 63 28L72 28C72.0565 28 72.1119 27.9953 72.1659 27.9863C72.5738 29.1586 73.6887 30 75 30C76.3113 30 77.4262 29.1586 77.8341 27.9863C77.8881 27.9953 77.9435 28 78 28L81 28C81.5523 28 82 27.5523 82 27C82 26.4477 81.5523 26 81 26H78C77.9435 26 77.8881 26.0047 77.8341 26.0137C77.4262 24.8414 76.3113 24 75 24Z" fill="black"/>
<path d="M66.1659 36.0137C66.1119 36.0047 66.0565 36 66 36H63C62.4477 36 62 36.4477 62 37C62 37.5523 62.4477 38 63 38H66C66.0565 38 66.1119 37.9953 66.1659 37.9863C66.5738 39.1586 67.6887 40 69 40C70.3113 40 71.4262 39.1586 71.8341 37.9863C71.8881 37.9953 71.9435 38 72 38L81 38C81.5523 38 82 37.5523 82 37C82 36.4477 81.5523 36 81 36L72 36C71.9435 36 71.8881 36.0047 71.8341 36.0137C71.4262 34.8414 70.3113 34 69 34C67.6887 34 66.5738 34.8414 66.1659 36.0137Z" fill="black"/>
</svg>
