<svg width="104" height="64" viewBox="0 0 104 64" fill="none" xmlns="http://www.w3.org/2000/svg">
<path fill-rule="evenodd" clip-rule="evenodd" d="M31.9994 26C28.6857 26 25.9994 28.6863 25.9994 32C25.9994 35.3137 28.6857 38 31.9994 38C35.3131 38 37.9994 35.3137 37.9994 32C37.9994 28.6863 35.3131 26 31.9994 26ZM27.9994 32C27.9994 29.7909 29.7902 28 31.9994 28C34.2085 28 35.9994 29.7909 35.9994 32C35.9994 34.2092 34.2085 36 31.9994 36C29.7902 36 27.9994 34.2092 27.9994 32Z" fill="black"/>
<path fill-rule="evenodd" clip-rule="evenodd" d="M34.5012 22.0289C33.1063 20.6795 30.8925 20.6795 29.4976 22.0289C29.1433 22.3717 28.6506 22.5318 28.1625 22.4627C26.2408 22.1909 24.4498 23.4921 24.1145 25.4038C24.0293 25.8893 23.7249 26.3084 23.2894 26.5394C21.5749 27.4491 20.8909 29.5545 21.7432 31.2982C21.9597 31.741 21.9597 32.259 21.7432 32.7019C20.8909 34.4456 21.575 36.551 23.2894 37.4606C23.7249 37.6917 24.0293 38.1107 24.1145 38.5963C24.4498 40.5079 26.2408 41.8092 28.1625 41.5373C28.6506 41.4683 29.1433 41.6284 29.4976 41.9711C30.8925 43.3206 33.1063 43.3206 34.5012 41.9711C34.8555 41.6284 35.3481 41.4683 35.8362 41.5373C37.7579 41.8092 39.5489 40.5079 39.8843 38.5963C39.9694 38.1107 40.2739 37.6917 40.7094 37.4606C42.4238 36.551 43.1079 34.4456 42.2556 32.7019C42.0391 32.259 42.0391 31.741 42.2556 31.2982C43.1079 29.5545 42.4238 27.4491 40.7094 26.5394C40.2739 26.3084 39.9694 25.8893 39.8843 25.4038C39.5489 23.4921 37.7579 22.1909 35.8362 22.4627C35.3481 22.5318 34.8555 22.3717 34.5012 22.0289ZM30.8882 23.4664C31.5077 22.867 32.491 22.867 33.1106 23.4664C33.9083 24.2381 35.0174 24.5984 36.1163 24.443C36.9699 24.3223 37.7654 24.9002 37.9143 25.7493C38.1061 26.8425 38.7916 27.786 39.772 28.3062C40.5335 28.7102 40.8373 29.6454 40.4587 30.4198C39.9713 31.4169 39.9713 32.5831 40.4587 33.5802C40.8373 34.3547 40.5335 35.2899 39.772 35.6939C38.7916 36.2141 38.1061 37.1576 37.9143 38.2507C37.7654 39.0998 36.9699 39.6778 36.1163 39.5571C35.0174 39.4016 33.9083 39.762 33.1106 40.5337C32.491 41.1331 31.5077 41.1331 30.8882 40.5337C30.0905 39.762 28.9813 39.4016 27.8824 39.5571C27.0289 39.6778 26.2334 39.0998 26.0844 38.2507C25.8927 37.1576 25.2072 36.2141 24.2268 35.6939C23.4653 35.2899 23.1614 34.3547 23.54 33.5802C24.0274 32.5831 24.0274 31.4169 23.54 30.4198C23.1614 29.6454 23.4653 28.7102 24.2268 28.3062C25.2072 27.786 25.8927 26.8425 26.0844 25.7493C26.2334 24.9002 27.0289 24.3223 27.8824 24.443C28.9813 24.5984 30.0905 24.2381 30.8882 23.4664Z" fill="black"/>
<path d="M70.1922 22.7475C71.1994 21.7732 72.7983 21.7733 73.8055 22.7475C74.3815 23.3047 75.1829 23.5648 75.9764 23.4526C77.3638 23.2566 78.6571 24.1965 78.8993 25.5766C79.0377 26.366 79.5322 27.0477 80.2401 27.4233C81.4779 28.0801 81.9724 29.5999 81.3573 30.8589C81.0053 31.5788 81.0053 32.4211 81.3573 33.1411C81.9727 34.4001 81.4781 35.9208 80.2401 36.5776C79.5324 36.9532 79.0378 37.6342 78.8993 38.4233C78.6572 39.8035 77.3639 40.7433 75.9764 40.5473C75.183 40.4351 74.3815 40.6952 73.8055 41.2524C72.7983 42.2268 71.1995 42.2268 70.1922 41.2524C69.6163 40.6954 68.8157 40.4352 68.0223 40.5473C66.6347 40.7436 65.3416 39.8037 65.0995 38.4233C64.9609 37.6341 64.4655 36.9532 63.7577 36.5776C62.5197 35.9208 62.026 34.4001 62.6415 33.1411C62.9933 32.4211 62.9934 31.5788 62.6415 30.8589C62.0262 29.5999 62.5199 28.0802 63.7577 27.4233C64.4656 27.0477 64.961 26.366 65.0995 25.5766C65.3417 24.1964 66.6348 23.2563 68.0223 23.4526C68.8158 23.5648 69.6163 23.3047 70.1922 22.7475ZM71.9989 27.0005C69.2375 27.0005 66.9989 29.2391 66.9989 32.0005C66.999 34.7617 69.2376 37.0004 71.9989 37.0005C74.7602 37.0005 76.9988 34.7618 76.9989 32.0005C76.9989 29.239 74.7603 27.0005 71.9989 27.0005Z" fill="black"/>
</svg>
