<svg width="104" height="64" viewBox="0 0 104 64" fill="none" xmlns="http://www.w3.org/2000/svg">
<path fill-rule="evenodd" clip-rule="evenodd" d="M28 23V25.126C29.7252 25.5701 31 27.1362 31 29C31 30.8638 29.7252 32.4299 28 32.874V41C28 41.5523 27.5523 42 27 42C26.4477 42 26 41.5523 26 41L26 32.874C24.2748 32.4299 23 30.8638 23 29C23 27.1362 24.2748 25.5701 26 25.126L26 23C26 22.4477 26.4477 22 27 22C27.5523 22 28 22.4477 28 23ZM25 29C25 27.8954 25.8954 27 27 27C28.1046 27 29 27.8954 29 29C29 30.1046 28.1046 31 27 31C25.8954 31 25 30.1046 25 29Z" fill="black"/>
<path fill-rule="evenodd" clip-rule="evenodd" d="M36 38.874V41C36 41.5523 36.4477 42 37 42C37.5523 42 38 41.5523 38 41V38.874C39.7252 38.4299 41 36.8638 41 35C41 33.1362 39.7252 31.5701 38 31.126V23C38 22.4477 37.5523 22 37 22C36.4477 22 36 22.4477 36 23V31.126C34.2748 31.5701 33 33.1362 33 35C33 36.8638 34.2748 38.4299 36 38.874ZM39 35C39 33.8954 38.1046 33 37 33C35.8954 33 35 33.8954 35 35C35 36.1046 35.8954 37 37 37C38.1046 37 39 36.1046 39 35Z" fill="black"/>
<path d="M66 26C66 26.0565 66.0047 26.1119 66.0137 26.1659C64.8414 26.5738 64 27.6887 64 29C64 30.3113 64.8414 31.4262 66.0137 31.8341C66.0047 31.8881 66 31.9435 66 32L66 41C66 41.5523 66.4477 42 67 42C67.5523 42 68 41.5523 68 41L68 32C68 31.9435 67.9953 31.8881 67.9863 31.8341C69.1586 31.4262 70 30.3113 70 29C70 27.6887 69.1586 26.5738 67.9863 26.1659C67.9953 26.1119 68 26.0565 68 26L68 23C68 22.4477 67.5523 22 67 22C66.4477 22 66 22.4477 66 23L66 26Z" fill="black"/>
<path d="M76.0137 37.8341C76.0047 37.8881 76 37.9435 76 38V41C76 41.5523 76.4477 42 77 42C77.5523 42 78 41.5523 78 41V38C78 37.9435 77.9953 37.8881 77.9863 37.8341C79.1586 37.4262 80 36.3113 80 35C80 33.6887 79.1586 32.5738 77.9863 32.1659C77.9953 32.1119 78 32.0565 78 32V23C78 22.4477 77.5523 22 77 22C76.4477 22 76 22.4477 76 23V32C76 32.0565 76.0047 32.1119 76.0137 32.1659C74.8414 32.5738 74 33.6887 74 35C74 36.3113 74.8414 37.4262 76.0137 37.8341Z" fill="black"/>
</svg>
