<svg width="104" height="64" viewBox="0 0 104 64" fill="none" xmlns="http://www.w3.org/2000/svg">
<path fill-rule="evenodd" clip-rule="evenodd" d="M38.0623 22.8145C36.5282 22.004 35 23.2604 35 24.7434C35 24.8077 34.9759 24.8757 34.9124 24.9413C34.8454 25.0102 34.745 25.0633 34.6302 25.0763C30.5056 25.5443 27.7036 28.0873 25.9049 30.9727C24.1151 33.8438 23.256 37.1407 23.0062 39.3896C22.9558 39.843 23.2187 40.2731 23.6453 40.435C24.0719 40.5968 24.5539 40.4494 24.817 40.0767C25.6995 38.8264 27.2533 37.018 29.1143 35.5264C30.9961 34.0181 33.0497 32.9482 34.9574 32.9214L34.9591 32.9232C34.9757 32.9417 35 32.9865 35 33.0513C35 34.647 36.711 35.8519 38.2316 34.9396C39.4939 34.1822 40.9116 33.1527 41.8999 31.9716C42.8685 30.8139 43.6235 29.2496 42.9192 27.6061C41.9204 25.2757 39.7224 23.6916 38.0623 22.8145ZM37 24.7434C37 24.6475 37.0435 24.5976 37.0706 24.5794C37.0837 24.5706 37.0915 24.5701 37.0915 24.5701C37.0915 24.5701 37.0939 24.57 37.098 24.5709C37.102 24.5717 37.112 24.5744 37.128 24.5829C38.6401 25.3818 40.3507 26.6901 41.0809 28.3939C41.3342 28.985 41.168 29.7296 40.366 30.6882C39.5835 31.6234 38.3808 32.5177 37.2026 33.2246C37.1679 33.2454 37.1481 33.2462 37.1396 33.246C37.1276 33.2458 37.1094 33.2422 37.0876 33.2288C37.0444 33.2025 37 33.1466 37 33.0513C37 32.0071 36.2167 30.9055 34.9405 30.9215C32.3617 30.9537 29.8695 32.358 27.8635 33.9658C27.1499 34.5378 26.4798 35.15 25.8685 35.7634C26.2859 34.5209 26.8552 33.2289 27.6021 32.0307C29.1924 29.4795 31.5247 27.4415 34.8557 27.0635C35.9756 26.9365 37 26.0182 37 24.7434Z" fill="black"/>
<path d="M64.4601 38.8767C64.3341 39.0406 64.0719 38.9361 64.1045 38.732C64.8104 34.3072 67.7128 26.8676 74.7429 26.0699C75.4325 25.9917 76 25.4374 76 24.7434C76 23.8857 76.8368 23.298 77.5951 23.6987C79.1812 24.5367 81.1355 25.9829 82 28C82.9577 30.2346 80.1577 32.6177 77.717 34.0821C76.9384 34.5493 76 33.9593 76 33.0513C76 32.4447 75.5595 31.9138 74.9529 31.9214C70.799 31.9733 66.5424 36.1683 64.4601 38.8767Z" fill="black"/>
</svg>
