<svg width="104" height="64" viewBox="0 0 104 64" fill="none" xmlns="http://www.w3.org/2000/svg">
<path fill-rule="evenodd" clip-rule="evenodd" d="M37 22C34.7909 22 33 23.7909 33 26C33 26.1708 33.0107 26.3391 33.0315 26.5043C32.8869 26.6205 32.6985 26.7675 32.4788 26.929C31.9429 27.3231 31.2538 27.7794 30.5787 28.0931C29.9987 28.3625 29.302 28.5964 28.7315 28.7661C28.4501 28.8498 28.2074 28.9155 28.0357 28.9602C27.95 28.9825 27.8824 28.9994 27.837 29.0106L27.7861 29.023L27.7741 29.0258L27.7717 29.0264C27.7467 29.0323 27.7219 29.0391 27.6978 29.0467C26.9865 28.3966 26.0396 28 25 28C22.7909 28 21 29.7909 21 32C21 34.2091 22.7909 36 25 36C26.0396 36 26.9865 35.6034 27.6978 34.9533C27.734 34.9648 27.7713 34.9743 27.8095 34.9817L27.8106 34.9819L27.8205 34.9839L27.8663 34.9934C27.9078 35.0021 27.9707 35.0158 28.0512 35.0344C28.2125 35.0717 28.443 35.1286 28.7141 35.2056C29.2633 35.3617 29.9474 35.5917 30.5528 35.8944C31.165 36.2005 31.8643 36.6641 32.4305 37.0694C32.665 37.2373 32.8705 37.3907 33.0295 37.5118C33.01 37.6718 33 37.8347 33 38C33 40.2091 34.7909 42 37 42C39.2091 42 41 40.2091 41 38C41 35.7909 39.2091 34 37 34C35.6938 34 34.5339 34.6261 33.8039 35.5945C33.737 35.5456 33.6671 35.495 33.5946 35.4431C33.0026 35.0193 32.2019 34.4829 31.4472 34.1056C30.6858 33.7249 29.8699 33.4549 29.2608 33.2818C29.1033 33.2371 28.9576 33.1982 28.8277 33.1651C28.9397 32.7965 29 32.4053 29 32C29 31.5892 28.9381 31.1929 28.8231 30.8199C28.9647 30.781 29.1263 30.7352 29.3016 30.6831C29.9088 30.5025 30.7121 30.2364 31.4213 29.9069C32.2695 29.5129 33.0805 28.9692 33.6637 28.5402C33.717 28.501 33.7687 28.4625 33.8187 28.425C34.5495 29.3823 35.7026 30 37 30C39.2091 30 41 28.2091 41 26C41 23.7909 39.2091 22 37 22ZM35 26C35 24.8954 35.8954 24 37 24C38.1046 24 39 24.8954 39 26C39 27.1046 38.1046 28 37 28C35.8954 28 35 27.1046 35 26ZM23 32C23 30.8954 23.8954 30 25 30C26.1046 30 27 30.8954 27 32C27 33.1046 26.1046 34 25 34C23.8954 34 23 33.1046 23 32ZM35 38C35 36.8954 35.8954 36 37 36C38.1046 36 39 36.8954 39 38C39 39.1046 38.1046 40 37 40C35.8954 40 35 39.1046 35 38Z" fill="black"/>
<path d="M80 26C80 27.6569 78.6569 29 77 29C76.1173 29 75.3236 28.6188 74.7747 28.012L74.7017 28.0582C74.4877 28.1935 74.1865 28.3813 73.8365 28.5917C73.1434 29.0083 72.2321 29.5303 71.4213 29.9069C70.7305 30.2279 69.691 30.6165 68.8534 30.9161C68.495 31.0444 68.1659 31.159 67.9052 31.2487C67.9671 31.4888 68 31.7406 68 32C68 32.2559 67.968 32.5043 67.9077 32.7415C68.1599 32.8244 68.474 32.9298 68.8172 33.0496C69.6485 33.34 70.7016 33.7328 71.4472 34.1056C72.1632 34.4636 73.063 34.9783 73.7699 35.3945C74.1264 35.6044 74.4395 35.7926 74.6635 35.9283C74.7017 35.9515 74.7373 35.9731 74.7701 35.993C75.3193 35.3833 76.1149 35 77 35C78.6569 35 80 36.3431 80 38C80 39.6569 78.6569 41 77 41C75.3431 41 74 39.6569 74 38C74 37.9557 74.001 37.9116 74.0029 37.8677C73.9935 37.8623 73.9841 37.8567 73.9748 37.851L73.952 37.8369L73.8836 37.795C73.8238 37.7584 73.7364 37.7051 73.6271 37.6389C73.4085 37.5064 73.1028 37.3227 72.7552 37.118C72.0539 36.7051 71.2037 36.2199 70.5528 35.8944C69.9316 35.5838 68.9847 35.2266 68.1577 34.9378C67.7515 34.7959 67.3867 34.6748 67.1235 34.5892C66.992 34.5465 66.8862 34.5127 66.8137 34.4897L66.7309 34.4636L66.7181 34.4596C66.2315 34.8002 65.6391 35 65 35C63.3431 35 62 33.6569 62 32C62 30.3431 63.3431 29 65 29C65.6388 29 66.231 29.1997 66.7176 29.54L66.7999 29.5124C66.8752 29.487 66.9846 29.45 67.12 29.4037C67.3911 29.3109 67.7657 29.1812 68.1797 29.033C69.0198 28.7324 69.9803 28.3711 70.5787 28.0931C71.2913 27.762 72.13 27.284 72.806 26.8776C73.1406 26.6764 73.4288 26.4968 73.6329 26.3677C73.735 26.3032 73.8158 26.2515 73.8707 26.2161L73.933 26.1759L73.9484 26.1658L73.952 26.1635C73.9685 26.1527 73.986 26.142 74.0029 26.1323C74.001 26.0884 74 26.0443 74 26C74 24.3431 75.3431 23 77 23C78.6569 23 80 24.3431 80 26Z" fill="black"/>
</svg>
