<svg width="103" height="64" viewBox="0 0 103 64" fill="none" xmlns="http://www.w3.org/2000/svg">
<path fill-rule="evenodd" clip-rule="evenodd" d="M33.4876 22.0189C32.5328 21.6363 31.4672 21.6363 30.5124 22.0189L26.8858 23.4718C26.8745 23.4764 26.8633 23.4811 26.8522 23.486L25.3047 24.1725C23.9475 24.7745 22.9999 26.1001 23 27.6438C23.0002 29.611 23.142 32.9407 24.0668 35.2253C24.6818 36.7444 25.7894 38.0611 26.915 39.1132C28.0488 40.173 29.2566 41.0158 30.1451 41.5768C31.2836 42.2957 32.7164 42.2957 33.8549 41.5768C34.7434 41.0158 35.9512 40.173 37.085 39.1132C38.2106 38.0611 39.3182 36.7444 39.9332 35.2253C40.858 32.9407 40.9998 29.611 41 27.6438C41.0001 26.1001 40.0525 24.7745 38.6953 24.1725L37.1478 23.486C37.1367 23.4811 37.1255 23.4764 37.1142 23.4718L33.4876 22.0189ZM31.2562 23.8754C31.7336 23.6841 32.2664 23.6841 32.7438 23.8754L36.3535 25.3216L37.8843 26.0007C38.5732 26.3062 39.0001 26.949 39 27.6436C38.9998 29.6244 38.8415 32.592 38.0793 34.4749C37.6173 35.6161 36.7387 36.6992 35.7193 37.6521C34.7079 38.5975 33.6116 39.3651 32.7871 39.8857C32.3009 40.1927 31.6991 40.1927 31.2129 39.8857C30.3884 39.3651 29.2921 38.5975 28.2807 37.6521C27.2613 36.6992 26.3827 35.6161 25.9207 34.4749C25.1585 32.592 25.0002 29.6244 25 27.6436C24.9999 26.949 25.4268 26.3062 26.1157 26.0007L27.6465 25.3216L31.2562 23.8754Z" fill="black"/>
<path d="M75.7423 24.4001L77.2898 25.0866C78.3129 25.5404 79.0001 26.5246 79 27.6437C78.9998 29.6177 78.8498 32.7663 78.0062 34.8501C76.9293 37.5104 74.0339 39.6497 72.321 40.7312C71.5087 41.2442 70.4913 41.2442 69.679 40.7312C67.9661 39.6497 65.0707 37.5104 63.9938 34.8501C63.1502 32.7663 63.0002 29.6177 63 27.6437C62.9999 26.5246 63.6871 25.5404 64.7102 25.0866L66.2577 24.4001L69.8843 22.9471C70.6004 22.6602 71.3996 22.6602 72.1157 22.9471L75.7423 24.4001Z" fill="black"/>
</svg>
