<svg width="104" height="64" viewBox="0 0 104 64" fill="none" xmlns="http://www.w3.org/2000/svg">
<path fill-rule="evenodd" clip-rule="evenodd" d="M30.9997 22.5C29.8951 22.5 28.9997 23.3954 28.9997 24.5V25.5H28.4997C26.2905 25.5 24.4997 27.2909 24.4997 29.5V31.132L23.3279 31.7178C21.9126 32.4255 20.9573 33.969 21.2885 35.657C21.4279 36.3678 21.6355 37.1968 21.9439 37.9893C22.2484 38.7716 22.6759 39.5836 23.2887 40.2032C23.9872 40.9094 24.7539 41.2953 25.5736 41.4385C26.3654 41.5768 27.1442 41.4771 27.8547 41.3254C28.2534 41.2403 28.7137 41.1171 29.1533 40.9994C29.4382 40.9231 29.7145 40.8492 29.9598 40.7894C30.6517 40.6207 31.3206 40.5 31.9997 40.5C32.6787 40.5 33.3476 40.6207 34.0395 40.7894C34.2848 40.8492 34.5611 40.9231 34.846 40.9994C35.2857 41.1171 35.7459 41.2403 36.1446 41.3254C36.8551 41.4771 37.6339 41.5768 38.4257 41.4385C39.2454 41.2953 40.0121 40.9094 40.7106 40.2032C41.3234 39.5836 41.7509 38.7716 42.0554 37.9893C42.3638 37.1968 42.5714 36.3678 42.7108 35.657C43.042 33.969 42.0867 32.4255 40.6714 31.7178L39.4997 31.132V29.5C39.4997 27.2909 37.7088 25.5 35.4997 25.5H34.9997V24.5C34.9997 23.3954 34.1042 22.5 32.9997 22.5H30.9997ZM30.2108 28.2764L26.4997 30.132V29.5C26.4997 28.3954 27.3951 27.5 28.4997 27.5H35.4997C36.6042 27.5 37.4997 28.3954 37.4997 29.5V30.132L33.7885 28.2764C32.6624 27.7133 31.3369 27.7133 30.2108 28.2764ZM31.1052 30.0652C31.6683 29.7837 32.331 29.7837 32.8941 30.0652L39.777 33.5067C40.5146 33.8755 40.8805 34.5979 40.7482 35.272C40.6226 35.9122 40.4429 36.618 40.1915 37.264C39.9361 37.9203 39.6312 38.4505 39.2887 38.7968C38.8696 39.2205 38.4748 39.3996 38.0816 39.4683C37.6605 39.5419 37.175 39.5003 36.5622 39.3695C36.1843 39.2888 35.8412 39.196 35.4645 39.0941C35.1771 39.0163 34.87 38.9332 34.5131 38.8462C33.7562 38.6618 32.91 38.5 31.9997 38.5C31.0893 38.5 30.2431 38.6618 29.4862 38.8462C29.1293 38.9332 28.8223 39.0163 28.5349 39.0941C28.1582 39.196 27.815 39.2889 27.4371 39.3695C26.8243 39.5003 26.3388 39.5419 25.9177 39.4683C25.5245 39.3996 25.1298 39.2205 24.7106 38.7968C24.3681 38.4505 24.0632 37.9203 23.8078 37.264C23.5564 36.618 23.3767 35.9122 23.2511 35.272C23.1188 34.5979 23.4847 33.8755 24.2223 33.5067L31.1052 30.0652ZM32.9997 25.5H30.9997V24.5H32.9997V25.5Z" fill="black"/>
<path d="M70.9923 29.4194C71.6256 29.1028 72.3716 29.1029 73.005 29.4194L81.0831 33.4585C81.9031 33.8685 82.3471 34.6948 82.1983 35.5063C82.0617 36.2517 81.8571 37.1086 81.5587 37.9058C81.2569 38.712 80.8787 39.403 80.422 39.8647C79.9012 40.3912 79.3901 40.6305 78.8712 40.7212C78.3315 40.8153 77.7332 40.7582 77.0294 40.6079C76.2856 40.4491 75.6116 40.235 74.7257 40.019C73.8905 39.8155 72.9753 39.6421 71.9991 39.6421C71.0229 39.6421 70.1078 39.8155 69.2726 40.019C68.3865 40.235 67.7119 40.4491 66.9679 40.6079C66.2644 40.758 65.6666 40.8153 65.1271 40.7212C64.6082 40.6305 64.097 40.3912 63.5763 39.8647C63.1195 39.4029 62.7404 38.7121 62.4386 37.9058C62.1402 37.1086 61.9366 36.2517 61.7999 35.5063C61.6512 34.695 62.0954 33.8685 62.9151 33.4585L65.0577 32.3872L70.9923 29.4194ZM76.2755 26.5884C77.5181 26.5884 78.5254 27.5958 78.5255 28.8384V30.5024L73.6759 28.0776C72.6204 27.55 71.3779 27.55 70.3224 28.0776L65.4718 30.5024V28.8384C65.4719 27.5961 66.4795 26.5888 67.7218 26.5884H76.2755ZM73.2384 23.23C73.3763 23.2302 73.4884 23.342 73.4884 23.48V25.0884H70.5099V23.48C70.5099 23.3421 70.622 23.2302 70.7599 23.23H73.2384Z" fill="black"/>
</svg>
