<svg width="104" height="64" viewBox="0 0 104 64" fill="none" xmlns="http://www.w3.org/2000/svg">
<path d="M32 22C34.0508 22 35.8117 23.2354 36.583 25.002L37.293 24.293C37.6835 23.9024 38.3165 23.9024 38.707 24.293C39.0976 24.6835 39.0976 25.3165 38.707 25.707L34.707 29.707C34.3165 30.0976 33.6835 30.0976 33.293 29.707C32.9024 29.3165 32.9024 28.6835 33.293 28.293L34.9736 26.6113C34.783 25.1382 33.5251 24 32 24C30.3431 24 29 25.3431 29 27V40C29 40.5523 28.5523 41 28 41C27.4477 41 27 40.5523 27 40V27C27 24.2386 29.2386 22 32 22Z" fill="black"/>
<path d="M69 27C69 25.3431 70.3431 24 72 24C73.525 24 74.7842 25.1378 74.975 26.6108L73.2929 28.2929C72.9024 28.6834 72.9024 29.3166 73.2929 29.7071C73.6834 30.0976 74.3166 30.0976 74.7071 29.7071L78.7071 25.7071C79.0976 25.3166 79.0976 24.6834 78.7071 24.2929C78.3166 23.9024 77.6834 23.9024 77.2929 24.2929L76.5845 25.0013C75.8132 23.2347 74.0508 22 72 22C69.2386 22 67 24.2386 67 27V40C67 40.5523 67.4477 41 68 41C68.5523 41 69 40.5523 69 40V27Z" fill="black"/>
</svg>
