<svg width="104" height="64" viewBox="0 0 104 64" fill="none" xmlns="http://www.w3.org/2000/svg">
<path d="M40.7789 24.6361C41.1695 24.2455 41.1695 23.6124 40.7789 23.2218C40.3884 22.8313 39.7552 22.8313 39.3647 23.2218L36.8292 25.7574V23.929C36.8292 23.3767 36.3815 22.929 35.8292 22.929C35.2769 22.929 34.8292 23.3767 34.8292 23.929L34.8292 28.1716C34.8292 28.7239 35.2769 29.1716 35.8292 29.1716H40.0718C40.6241 29.1716 41.0718 28.7239 41.0718 28.1716C41.0718 27.6193 40.6241 27.1716 40.0718 27.1716H38.2434L40.7789 24.6361Z" fill="black"/>
<path d="M29.1723 35.8285C29.1723 35.5632 29.067 35.3089 28.8794 35.1213C28.6919 34.9338 28.4375 34.8285 28.1723 34.8285L23.9297 34.8285C23.3774 34.8285 22.9297 35.2762 22.9297 35.8285C22.9297 36.3807 23.3774 36.8285 23.9297 36.8285L25.7581 36.8285L23.2226 39.364C22.8321 39.7545 22.8321 40.3877 23.2226 40.7782C23.6131 41.1687 24.2463 41.1687 24.6368 40.7782L27.1723 38.2427L27.1723 40.0711C27.1723 40.6234 27.62 41.0711 28.1723 41.0711C28.7246 41.0711 29.1723 40.6234 29.1723 40.0711L29.1723 35.8285Z" fill="black"/>
<path d="M24.6368 23.2219C24.2463 22.8314 23.6131 22.8314 23.2226 23.2219C22.8321 23.6124 22.8321 24.2456 23.2226 24.6361L25.7581 27.1716H23.9297C23.3774 27.1716 22.9297 27.6193 22.9297 28.1716C22.9297 28.7239 23.3774 29.1716 23.9297 29.1716H28.1723C28.7246 29.1716 29.1723 28.7239 29.1723 28.1716V23.929C29.1723 23.3767 28.7246 22.929 28.1723 22.929C27.6201 22.929 27.1723 23.3767 27.1723 23.929V25.7574L24.6368 23.2219Z" fill="black"/>
<path d="M35.8292 34.8285C35.564 34.8285 35.3096 34.9338 35.1221 35.1214C34.9346 35.3089 34.8292 35.5633 34.8292 35.8285L34.8292 40.0711C34.8292 40.6234 35.2769 41.0711 35.8292 41.0711C36.3815 41.0711 36.8292 40.6234 36.8292 40.0711L36.8292 38.2427L39.3647 40.7782C39.7553 41.1688 40.3884 41.1688 40.7789 40.7782C41.1695 40.3877 41.1695 39.7545 40.7789 39.364L38.2434 36.8285L40.0718 36.8285C40.6241 36.8285 41.0718 36.3808 41.0718 35.8285C41.0718 35.2762 40.6241 34.8285 40.0718 34.8285L35.8292 34.8285Z" fill="black"/>
<path fill-rule="evenodd" clip-rule="evenodd" d="M62 25C62 23.3431 63.3431 22 65 22H79C80.6569 22 82 23.3431 82 25V39C82 40.6569 80.6569 42 79 42H65C63.3431 42 62 40.6569 62 39V25ZM64.2218 24.2218C64.6124 23.8313 65.2455 23.8313 65.636 24.2218L68.1716 26.7573V24.9289C68.1716 24.3766 68.6193 23.9289 69.1716 23.9289C69.7239 23.9289 70.1716 24.3766 70.1716 24.9289V29.1716C70.1716 29.7238 69.7239 30.1716 69.1716 30.1716L64.9289 30.1716C64.3767 30.1716 63.9289 29.7238 63.9289 29.1716C63.9289 28.6193 64.3767 28.1716 64.9289 28.1716H66.7574L64.2218 25.636C63.8313 25.2455 63.8313 24.6123 64.2218 24.2218ZM73.8284 39.071L73.8284 34.8284C73.8284 34.2761 74.2761 33.8284 74.8284 33.8284L79.0711 33.8284C79.6234 33.8284 80.0711 34.2761 80.0711 34.8284C80.0711 35.3807 79.6234 35.8284 79.0711 35.8284L77.2426 35.8284L79.7782 38.3639C80.1687 38.7545 80.1687 39.3876 79.7782 39.7782C79.3877 40.1687 78.7545 40.1687 78.364 39.7782L75.8284 37.2426V39.071C75.8284 39.6233 75.3807 40.071 74.8284 40.071C74.2761 40.071 73.8284 39.6233 73.8284 39.071ZM79.7781 25.636C80.1687 25.2455 80.1687 24.6124 79.7781 24.2218C79.3876 23.8313 78.7544 23.8313 78.3639 24.2218L75.8284 26.7574V24.9289C75.8284 24.3767 75.3807 23.9289 74.8284 23.9289C74.2761 23.9289 73.8284 24.3767 73.8284 24.9289L73.8284 29.1716C73.8284 29.7239 74.2761 30.1716 74.8284 30.1716H79.071C79.6233 30.1716 80.071 29.7239 80.071 29.1716C80.071 28.6193 79.6233 28.1716 79.071 28.1716L77.2426 28.1716L79.7781 25.636ZM69.1715 33.8284L64.9289 33.8284C64.3766 33.8284 63.9289 34.2761 63.9289 34.8284C63.9289 35.3807 64.3766 35.8284 64.9289 35.8284H66.7573L64.2218 38.364C63.8313 38.7545 63.8313 39.3877 64.2218 39.7782C64.6123 40.1687 65.2455 40.1687 65.636 39.7782L68.1715 37.2426L68.1715 39.0711C68.1715 39.6234 68.6192 40.0711 69.1715 40.0711C69.7238 40.0711 70.1715 39.6234 70.1715 39.0711L70.1715 34.8284C70.1715 34.2761 69.7238 33.8284 69.1715 33.8284Z" fill="black"/>
</svg>
