<svg width="104" height="64" viewBox="0 0 104 64" fill="none" xmlns="http://www.w3.org/2000/svg">
<path d="M26 30C28.2091 30 30 28.2091 30 26V24C30 23.4477 29.5523 23 29 23C28.4477 23 28 23.4477 28 24V26C28 27.1046 27.1046 28 26 28H24C23.4477 28 23 28.4477 23 29C23 29.5523 23.4477 30 24 30H26Z" fill="black"/>
<path d="M38 30C35.7909 30 34 28.2091 34 26V24C34 23.4477 34.4477 23 35 23C35.5523 23 36 23.4477 36 24V26C36 27.1046 36.8954 28 38 28H40C40.5523 28 41 28.4477 41 29C41 29.5523 40.5523 30 40 30H38Z" fill="black"/>
<path d="M30 38C30 35.7909 28.2091 34 26 34H24C23.4477 34 23 34.4477 23 35C23 35.5523 23.4477 36 24 36H26C27.1046 36 28 36.8954 28 38V40C28 40.5523 28.4477 41 29 41C29.5523 41 30 40.5523 30 40V38Z" fill="black"/>
<path d="M38 34C35.7909 34 34 35.7909 34 38V40C34 40.5523 34.4477 41 35 41C35.5523 41 36 40.5523 36 40V38C36 36.8954 36.8954 36 38 36H40C40.5523 36 41 35.5523 41 35C41 34.4477 40.5523 34 40 34H38Z" fill="black"/>
<path fill-rule="evenodd" clip-rule="evenodd" d="M62 25C62 23.3431 63.3431 22 65 22H79C80.6569 22 82 23.3431 82 25V39C82 40.6569 80.6569 42 79 42H65C63.3431 42 62 40.6569 62 39V25ZM69.5 26.5C69.5 28.1569 68.1569 29.5 66.5 29.5H64.5C63.9477 29.5 63.5 29.0523 63.5 28.5C63.5 27.9477 63.9477 27.5 64.5 27.5H66.5C67.0523 27.5 67.5 27.0523 67.5 26.5V24.5C67.5 23.9477 67.9477 23.5 68.5 23.5C69.0523 23.5 69.5 23.9477 69.5 24.5V26.5ZM76.5 29.5C74.8431 29.5 73.5 28.1569 73.5 26.5V24.5C73.5 23.9477 73.9477 23.5 74.5 23.5C75.0523 23.5 75.5 23.9477 75.5 24.5V26.5C75.5 27.0523 75.9477 27.5 76.5 27.5H79.5C80.0523 27.5 80.5 27.9477 80.5 28.5C80.5 29.0523 80.0523 29.5 79.5 29.5H76.5ZM69.5 36.5C69.5 34.8431 68.1569 33.5 66.5 33.5H64.5C63.9477 33.5 63.5 33.9477 63.5 34.5C63.5 35.0523 63.9477 35.5 64.5 35.5H66.5C67.0523 35.5 67.5 35.9477 67.5 36.5V39.5C67.5 40.0523 67.9477 40.5 68.5 40.5C69.0523 40.5 69.5 40.0523 69.5 39.5V36.5ZM76.5 33.5C74.8431 33.5 73.5 34.8431 73.5 36.5V39.5C73.5 40.0523 73.9477 40.5 74.5 40.5C75.0523 40.5 75.5 40.0523 75.5 39.5V36.5C75.5 35.9477 75.9477 35.5 76.5 35.5H79.5C80.0523 35.5 80.5 35.0523 80.5 34.5C80.5 33.9477 80.0523 33.5 79.5 33.5H76.5Z" fill="black"/>
</svg>
