<svg width="104" height="64" viewBox="0 0 104 64" fill="none" xmlns="http://www.w3.org/2000/svg">
<path d="M40.0086 24.2821C39.6122 23.8976 38.9791 23.9074 38.5946 24.3039C38.2362 24.6734 38.2204 25.2486 38.541 25.6364H35.625C32.3692 25.6364 29.875 28.4877 29.875 31.8182C29.875 34.2114 28.1159 36 26.125 36H23C22.4477 36 22 36.4477 22 37C22 37.5523 22.4477 38 23 38H26.125C29.3808 38 31.875 35.1486 31.875 31.8182C31.875 29.4249 33.6341 27.6364 35.625 27.6364H38.9624L38.5215 28.2064C38.1836 28.6432 38.2638 29.2713 38.7007 29.6092C39.1376 29.9471 39.7656 29.8668 40.1035 29.43L41.791 27.2482C42.1025 26.8454 42.0617 26.2729 41.6961 25.9185L40.0086 24.2821Z" fill="black"/>
<path d="M23 26C22.4477 26 22 26.4477 22 27C22 27.5523 22.4477 28 23 28H26.125C26.9557 28 27.7293 28.3011 28.361 28.8258C28.7858 29.1787 29.4163 29.1204 29.7692 28.6956C30.1221 28.2708 30.0638 27.6403 29.639 27.2874C28.6745 26.4862 27.4555 26 26.125 26H23Z" fill="black"/>
<path d="M40.1035 34.57C39.7656 34.1332 39.1376 34.0529 38.7007 34.3908C38.2638 34.7287 38.1836 35.3568 38.5215 35.7936L38.9624 36.3636H35.625C34.7614 36.3636 33.9586 36.0381 33.3134 35.4734C32.8978 35.1097 32.2661 35.1517 31.9023 35.5673C31.5386 35.9829 31.5807 36.6147 31.9963 36.9784C32.9779 37.8375 34.2407 38.3636 35.625 38.3636H38.541C38.2204 38.7514 38.2362 39.3266 38.5946 39.6961C38.9791 40.0926 39.6122 40.1024 40.0086 39.7179L41.6961 38.0815C42.0617 37.7271 42.1025 37.1546 41.791 36.7518L40.1035 34.57Z" fill="black"/>
<path d="M80.0086 24.2821C79.6122 23.8976 78.9791 23.9074 78.5946 24.3039C78.2362 24.6734 78.2204 25.2486 78.541 25.6364H75.625C72.3692 25.6364 69.875 28.4877 69.875 31.8182C69.875 34.2114 68.1159 36 66.125 36H63C62.4477 36 62 36.4477 62 37C62 37.5523 62.4477 38 63 38H66.125C69.3808 38 71.875 35.1486 71.875 31.8182C71.875 29.4249 73.6341 27.6364 75.625 27.6364H78.9624L78.5215 28.2064C78.1836 28.6432 78.2638 29.2713 78.7007 29.6092C79.1376 29.9471 79.7656 29.8668 80.1035 29.43L81.791 27.2482C82.1025 26.8454 82.0617 26.2729 81.6961 25.9185L80.0086 24.2821Z" fill="black"/>
<path d="M63 26C62.4477 26 62 26.4477 62 27C62 27.5523 62.4477 28 63 28H66.125C66.9557 28 67.7293 28.3011 68.361 28.8258C68.7858 29.1787 69.4163 29.1204 69.7692 28.6956C70.1221 28.2708 70.0638 27.6403 69.639 27.2874C68.6745 26.4862 67.4555 26 66.125 26H63Z" fill="black"/>
<path d="M80.1035 34.57C79.7656 34.1332 79.1376 34.0529 78.7007 34.3908C78.2638 34.7287 78.1836 35.3568 78.5215 35.7936L78.9624 36.3636H75.625C74.7614 36.3636 73.9586 36.0381 73.3134 35.4734C72.8978 35.1097 72.2661 35.1517 71.9023 35.5673C71.5386 35.9829 71.5807 36.6147 71.9963 36.9784C72.9779 37.8375 74.2407 38.3636 75.625 38.3636H78.541C78.2204 38.7514 78.2362 39.3266 78.5946 39.6961C78.9791 40.0926 79.6122 40.1024 80.0086 39.7179L81.6961 38.0815C82.0617 37.7271 82.1025 37.1546 81.791 36.7518L80.1035 34.57Z" fill="black"/>
</svg>
