<svg width="104" height="64" viewBox="0 0 104 64" fill="none" xmlns="http://www.w3.org/2000/svg">
<path d="M37.9998 22C38.5521 22 38.9998 22.4477 38.9998 23V41C38.9998 41.5523 38.5521 42 37.9998 42C37.4476 42 36.9998 41.5523 36.9998 41V23C36.9998 22.4477 37.4476 22 37.9998 22Z" fill="black"/>
<path d="M34.9998 29C34.9998 28.4477 34.5521 28 33.9998 28C33.4476 28 32.9998 28.4477 32.9998 29V41C32.9998 41.5523 33.4476 42 33.9998 42C34.5521 42 34.9998 41.5523 34.9998 41V29Z" fill="black"/>
<path d="M29.9998 32C30.5521 32 30.9998 32.4477 30.9998 33V41C30.9998 41.5523 30.5521 42 29.9998 42C29.4476 42 28.9998 41.5523 28.9998 41V33C28.9998 32.4477 29.4476 32 29.9998 32Z" fill="black"/>
<path d="M25.9998 36C26.5521 36 26.9998 36.4477 26.9998 37V41C26.9998 41.5523 26.5521 42 25.9998 42C25.4476 42 24.9998 41.5523 24.9998 41V37C24.9998 36.4477 25.4476 36 25.9998 36Z" fill="black"/>
<path d="M26.1212 24.707C25.7306 24.3165 25.0975 24.3165 24.707 24.707C24.3164 25.0976 24.3164 25.7307 24.707 26.1213L25.4141 26.8284L24.707 27.5355C24.3164 27.926 24.3164 28.5592 24.707 28.9497C25.0975 29.3402 25.7306 29.3402 26.1212 28.9497L26.8283 28.2426L27.5354 28.9497C27.9259 29.3402 28.5591 29.3402 28.9496 28.9497C29.3401 28.5592 29.3401 27.926 28.9496 27.5355L28.2425 26.8284L28.9496 26.1213C29.3401 25.7307 29.3401 25.0976 28.9496 24.707C28.5591 24.3165 27.9259 24.3165 27.5354 24.707L26.8283 25.4142L26.1212 24.707Z" fill="black"/>
<path d="M77.9998 22C78.5521 22 78.9998 22.4477 78.9998 23V41C78.9998 41.5523 78.5521 42 77.9998 42C77.4476 42 76.9998 41.5523 76.9998 41V23C76.9998 22.4477 77.4476 22 77.9998 22Z" fill="black"/>
<path d="M74.9998 29C74.9998 28.4477 74.5521 28 73.9998 28C73.4476 28 72.9998 28.4477 72.9998 29V41C72.9998 41.5523 73.4476 42 73.9998 42C74.5521 42 74.9998 41.5523 74.9998 41V29Z" fill="black"/>
<path d="M69.9998 32C70.5521 32 70.9998 32.4477 70.9998 33V41C70.9998 41.5523 70.5521 42 69.9998 42C69.4476 42 68.9998 41.5523 68.9998 41V33C68.9998 32.4477 69.4476 32 69.9998 32Z" fill="black"/>
<path d="M65.9998 36C66.5521 36 66.9998 36.4477 66.9998 37V41C66.9998 41.5523 66.5521 42 65.9998 42C65.4476 42 64.9998 41.5523 64.9998 41V37C64.9998 36.4477 65.4476 36 65.9998 36Z" fill="black"/>
<path d="M66.1212 24.707C65.7306 24.3165 65.0975 24.3165 64.707 24.707C64.3164 25.0976 64.3164 25.7307 64.707 26.1213L65.4141 26.8284L64.707 27.5355C64.3164 27.926 64.3164 28.5592 64.707 28.9497C65.0975 29.3402 65.7306 29.3402 66.1212 28.9497L66.8283 28.2426L67.5354 28.9497C67.9259 29.3402 68.5591 29.3402 68.9496 28.9497C69.3401 28.5592 69.3401 27.926 68.9496 27.5355L68.2425 26.8284L68.9496 26.1213C69.3401 25.7307 69.3401 25.0976 68.9496 24.707C68.5591 24.3165 67.9259 24.3165 67.5354 24.707L66.8283 25.4142L66.1212 24.707Z" fill="black"/>
</svg>
