<svg width="104" height="64" viewBox="0 0 104 64" fill="none" xmlns="http://www.w3.org/2000/svg">
<path d="M27.5 22C28.0523 22 28.5 22.4477 28.5 23C28.5 23.5523 28.0523 24 27.5 24H26C24.8954 24 24 24.8954 24 26V38C24 39.1046 24.8954 40 26 40H27.5C28.0523 40 28.5 40.4477 28.5 41C28.5 41.5523 28.0523 42 27.5 42H26C23.7909 42 22 40.2091 22 38V26C22 23.7909 23.7909 22 26 22H27.5ZM31.293 27.293C31.6835 26.9024 32.3165 26.9024 32.707 27.293C33.0976 27.6835 33.0976 28.3165 32.707 28.707L30.4141 31H42C42.5523 31 43 31.4477 43 32C43 32.5523 42.5523 33 42 33H30.4141L32.707 35.293C33.0976 35.6835 33.0976 36.3165 32.707 36.707C32.3165 37.0976 31.6835 37.0976 31.293 36.707L27.293 32.707C26.9269 32.3409 26.9043 31.7619 27.2246 31.3691L27.293 31.293L31.293 27.293Z" fill="black"/>
<path d="M66 23H67.5L67.5 29.6716L66.5858 30.5858C65.8047 31.3668 65.8047 32.6332 66.5858 33.4142L67.5 34.3284L67.5 41H66C64.3431 41 63 39.6569 63 38V26C63 24.3431 64.3431 23 66 23Z" fill="black"/>
<path d="M67.2929 32.7071C66.9024 32.3166 66.9024 31.6834 67.2929 31.2929L71.2929 27.2929C71.6834 26.9024 72.3166 26.9024 72.7071 27.2929C73.0976 27.6834 73.0976 28.3166 72.7071 28.7071L70.4142 31L82 31C82.5523 31 83 31.4477 83 32C83 32.5523 82.5523 33 82 33L70.4142 33L72.7071 35.2929C73.0976 35.6834 73.0976 36.3166 72.7071 36.7071C72.3166 37.0976 71.6834 37.0976 71.2929 36.7071L67.2929 32.7071Z" fill="black"/>
</svg>
