<svg width="104" height="64" viewBox="0 0 104 64" fill="none" xmlns="http://www.w3.org/2000/svg">
<path d="M39 23C39 22.4477 38.5523 22 38 22C37.4477 22 37 22.4477 37 23V41C37 41.5523 37.4477 42 38 42C38.5523 42 39 41.5523 39 41V23Z" fill="black"/>
<path d="M34 28C34.5523 28 35 28.4477 35 29V41C35 41.5523 34.5523 42 34 42C33.4477 42 33 41.5523 33 41V29C33 28.4477 33.4477 28 34 28Z" fill="black"/>
<path d="M31 33C31 32.4477 30.5523 32 30 32C29.4477 32 29 32.4477 29 33V41C29 41.5523 29.4477 42 30 42C30.5523 42 31 41.5523 31 41V33Z" fill="black"/>
<path d="M27 37C27 36.4477 26.5523 36 26 36C25.4477 36 25 36.4477 25 37V41C25 41.5523 25.4477 42 26 42C26.5523 42 27 41.5523 27 41V37Z" fill="black"/>
<path d="M79 23C79 22.4477 78.5523 22 78 22C77.4477 22 77 22.4477 77 23V41C77 41.5523 77.4477 42 78 42C78.5523 42 79 41.5523 79 41V23Z" fill="black"/>
<path d="M74 28C74.5523 28 75 28.4477 75 29V41C75 41.5523 74.5523 42 74 42C73.4477 42 73 41.5523 73 41V29C73 28.4477 73.4477 28 74 28Z" fill="black"/>
<path d="M71 33C71 32.4477 70.5523 32 70 32C69.4477 32 69 32.4477 69 33V41C69 41.5523 69.4477 42 70 42C70.5523 42 71 41.5523 71 41V33Z" fill="black"/>
<path d="M67 37C67 36.4477 66.5523 36 66 36C65.4477 36 65 36.4477 65 37V41C65 41.5523 65.4477 42 66 42C66.5523 42 67 41.5523 67 41V37Z" fill="black"/>
</svg>
