<svg width="104" height="64" viewBox="0 0 104 64" fill="none" xmlns="http://www.w3.org/2000/svg">
<path d="M27.5 24C28.0523 24 28.5 23.5523 28.5 23C28.5 22.4477 28.0523 22 27.5 22H26C23.7909 22 22 23.7909 22 26V38C22 40.2091 23.7909 42 26 42H27.5C28.0523 42 28.5 41.5523 28.5 41C28.5 40.4477 28.0523 40 27.5 40H26C24.8954 40 24 39.1046 24 38L24 26C24 24.8954 24.8954 24 26 24H27.5Z" fill="black"/>
<path d="M42.7071 32.7071C43.0976 32.3166 43.0976 31.6834 42.7071 31.2929L38.7071 27.2929C38.3166 26.9024 37.6834 26.9024 37.2929 27.2929C36.9024 27.6834 36.9024 28.3166 37.2929 28.7071L39.5858 31L28 31C27.4477 31 27 31.4477 27 32C27 32.5523 27.4477 33 28 33L39.5858 33L37.2929 35.2929C36.9024 35.6834 36.9024 36.3166 37.2929 36.7071C37.6834 37.0976 38.3166 37.0976 38.7071 36.7071L42.7071 32.7071Z" fill="black"/>
<path d="M66 23H67.5L67.5 30.063C66.6374 30.285 66 31.0681 66 32C66 32.9319 66.6374 33.715 67.5 33.937L67.5 41H66C64.3431 41 63 39.6569 63 38V26C63 24.3431 64.3431 23 66 23Z" fill="black"/>
<path d="M82.7071 32.7071C83.0976 32.3166 83.0976 31.6834 82.7071 31.2929L78.7071 27.2929C78.3166 26.9024 77.6834 26.9024 77.2929 27.2929C76.9024 27.6834 76.9024 28.3166 77.2929 28.7071L79.5858 31L68 31C67.4477 31 67 31.4477 67 32C67 32.5523 67.4477 33 68 33L79.5858 33L77.2929 35.2929C76.9024 35.6834 76.9024 36.3166 77.2929 36.7071C77.6834 37.0976 78.3166 37.0976 78.7071 36.7071L82.7071 32.7071Z" fill="black"/>
</svg>
