<svg width="104" height="64" viewBox="0 0 104 64" fill="none" xmlns="http://www.w3.org/2000/svg">
<path d="M25 23C24.4477 23 24 23.4477 24 24C24 24.5523 24.4477 25 25 25H27.865L24.2318 29.3598C23.9834 29.6579 23.9298 30.0728 24.0944 30.4242C24.259 30.7755 24.612 31 25 31H30C30.5523 31 31 30.5523 31 30C31 29.4477 30.5523 29 30 29H27.1351L30.7682 24.6402C31.0166 24.3421 31.0702 23.9272 30.9056 23.5758C30.741 23.2245 30.388 23 30 23H25Z" fill="black"/>
<path d="M32 31C31.4477 31 31 31.4477 31 32C31 32.5523 31.4477 33 32 33H36.7962L31.2474 39.3415C30.9891 39.6368 30.9272 40.0559 31.0894 40.4132C31.2515 40.7705 31.6076 41 32 41H39C39.5523 41 40 40.5523 40 40C40 39.4477 39.5523 39 39 39H34.2038L39.7526 32.6585C40.011 32.3632 40.0728 31.9441 39.9106 31.5868C39.7485 31.2295 39.3924 31 39 31H32Z" fill="black"/>
<path d="M65 23C64.4477 23 64 23.4477 64 24C64 24.5523 64.4477 25 65 25H67.865L64.2318 29.3598C63.9834 29.6579 63.9298 30.0728 64.0944 30.4242C64.259 30.7755 64.612 31 65 31H70C70.5523 31 71 30.5523 71 30C71 29.4477 70.5523 29 70 29H67.1351L70.7682 24.6402C71.0166 24.3421 71.0702 23.9272 70.9056 23.5758C70.741 23.2245 70.388 23 70 23H65Z" fill="black"/>
<path d="M72 31C71.4477 31 71 31.4477 71 32C71 32.5523 71.4477 33 72 33H76.7962L71.2474 39.3415C70.9891 39.6368 70.9272 40.0559 71.0894 40.4132C71.2515 40.7705 71.6076 41 72 41H79C79.5523 41 80 40.5523 80 40C80 39.4477 79.5523 39 79 39H74.2038L79.7526 32.6585C80.011 32.3632 80.0728 31.9441 79.9106 31.5868C79.7485 31.2295 79.3924 31 79 31H72Z" fill="black"/>
</svg>
