<svg width="104" height="64" viewBox="0 0 104 64" fill="none" xmlns="http://www.w3.org/2000/svg">
<path d="M31.6605 21C32.2128 21 32.6605 21.4477 32.6605 22V24.1315L34.1058 23.1679C34.5653 22.8616 35.1862 22.9858 35.4926 23.4453C35.7989 23.9048 35.6747 24.5257 35.2152 24.8321L32.6605 26.5352V30.2679L35.8797 28.4094L36.001 25.4126C36.0233 24.8608 36.4888 24.4315 37.0406 24.4539C37.5924 24.4762 38.0217 24.9417 37.9993 25.4935L37.9292 27.2261L39.8207 26.134C40.299 25.8579 40.9106 26.0218 41.1867 26.5001C41.4628 26.9783 41.299 27.5899 40.8207 27.8661L38.9748 28.9318L40.5319 29.7017C41.0269 29.9465 41.2298 30.5463 40.985 31.0414C40.7402 31.5364 40.1405 31.7393 39.6454 31.4945L36.8931 30.1337L33.6604 32.0001L36.8797 33.8587L39.5356 32.4654C40.0247 32.2088 40.6291 32.3973 40.8857 32.8863C41.1423 33.3754 40.9538 33.9799 40.4647 34.2364L38.9292 35.042L40.8207 36.134C41.299 36.4102 41.4628 37.0218 41.1867 37.5001C40.9106 37.9783 40.299 38.1422 39.8207 37.8661L37.9748 36.8003L38.0866 38.5338C38.1221 39.0849 37.7041 39.5605 37.153 39.5961C36.6018 39.6316 36.1262 39.2136 36.0907 38.6625L35.8931 35.5985L32.6605 33.7322V37.4648L35.2152 39.1679C35.6747 39.4743 35.7989 40.0952 35.4926 40.5547C35.1862 41.0142 34.5653 41.1384 34.1058 40.8321L32.6605 39.8685V42C32.6605 42.5523 32.2128 43 31.6605 43C31.1082 43 30.6605 42.5523 30.6605 42V39.8685L29.2152 40.8321C28.7557 41.1384 28.1348 41.0142 27.8285 40.5547C27.5221 40.0952 27.6463 39.4743 28.1058 39.1679L30.6605 37.4648V33.732L27.4278 35.5985L27.2301 38.6625C27.1946 39.2136 26.719 39.6316 26.1679 39.5961C25.6167 39.5605 25.1987 39.0849 25.2343 38.5338L25.3461 36.8003L23.5002 37.8661C23.0219 38.1422 22.4103 37.9783 22.1341 37.5001C21.858 37.0218 22.0219 36.4102 22.5002 36.134L24.3461 35.0683L22.789 34.2984C22.2939 34.0536 22.091 33.4538 22.3358 32.9588C22.5806 32.4637 23.1804 32.2608 23.6754 32.5056L26.4278 33.8664L29.6604 32.0001L26.4278 30.1337L23.6754 31.4945C23.1804 31.7393 22.5806 31.5364 22.3358 31.0414C22.091 30.5463 22.2939 29.9465 22.789 29.7017L24.3461 28.9318L22.5002 27.8661C22.0219 27.5899 21.858 26.9783 22.1341 26.5001C22.4103 26.0218 23.0219 25.8579 23.5002 26.134L25.3461 27.1998L25.2343 25.4663C25.1987 24.9152 25.6167 24.4396 26.1679 24.404C26.719 24.3685 27.1946 24.7865 27.2301 25.3376L27.4278 28.4016L30.6605 30.2681V26.5507L28.1259 24.9472C27.6592 24.652 27.5202 24.0343 27.8154 23.5675C28.1107 23.1008 28.7284 22.9618 29.1951 23.2571L30.6605 24.1841V22C30.6605 21.4477 31.1082 21 31.6605 21Z" fill="black"/>
<path d="M71.6605 21C72.2128 21 72.6605 21.4477 72.6605 22V24.1315L74.1058 23.1679C74.5653 22.8616 75.1862 22.9858 75.4926 23.4453C75.7989 23.9048 75.6747 24.5257 75.2152 24.8321L72.6605 26.5352V30.1546L76.3797 28.0074L76.501 25.0106C76.5233 24.4588 76.9888 24.0295 77.5406 24.0519C78.0924 24.0742 78.5217 24.5397 78.4993 25.0915L78.4292 26.8241L80.3207 25.7321C80.799 25.4559 81.4106 25.6198 81.6867 26.0981C81.9628 26.5764 81.799 27.188 81.3207 27.4641L79.4748 28.5298L81.0319 29.2997C81.5269 29.5445 81.7298 30.1443 81.485 30.6394C81.2402 31.1345 80.6405 31.3373 80.1454 31.0926L77.3931 29.7317L73.5623 31.9434L76.8797 33.8587L79.5356 32.4654C80.0247 32.2088 80.6291 32.3973 80.8857 32.8863C81.1423 33.3754 80.9538 33.9799 80.4647 34.2364L78.9292 35.042L80.8207 36.134C81.299 36.4102 81.4628 37.0218 81.1867 37.5001C80.9106 37.9783 80.299 38.1422 79.8207 37.8661L77.9748 36.8003L78.0865 38.5338C78.1221 39.0849 77.7041 39.5605 77.153 39.5961C76.6018 39.6316 76.1262 39.2136 76.0907 38.6625L75.8931 35.5985L72.6605 33.7322V37.4648L75.2152 39.1679C75.6747 39.4743 75.7989 40.0952 75.4926 40.5547C75.1862 41.0142 74.5653 41.1384 74.1058 40.8321L72.6605 39.8685V42C72.6605 42.5523 72.2128 43 71.6605 43C71.1082 43 70.6605 42.5523 70.6605 42V39.8685L69.2152 40.8321C68.7557 41.1384 68.1348 41.0142 67.8285 40.5547C67.5221 40.0952 67.6463 39.4743 68.1058 39.1679L70.6605 37.4648V33.6187L67.9278 35.1965L67.7301 38.2605C67.6946 38.8117 67.219 39.2296 66.6679 39.1941C66.1167 39.1585 65.6987 38.6829 65.7343 38.1318L65.8461 36.3984L64.0002 37.4641C63.5219 37.7402 62.9103 37.5764 62.6341 37.0981C62.358 36.6198 62.5219 36.0082 63.0002 35.732L64.8461 34.6663L63.289 33.8964C62.7939 33.6516 62.591 33.0518 62.8358 32.5568C63.0806 32.0617 63.6804 31.8588 64.1754 32.1036L66.9278 33.4645L69.5623 31.9434L66.4278 30.1337L63.6754 31.4945C63.1804 31.7393 62.5806 31.5364 62.3358 31.0414C62.091 30.5463 62.2939 29.9465 62.789 29.7017L64.3461 28.9318L62.5002 27.8661C62.0219 27.5899 61.858 26.9783 62.1341 26.5001C62.4103 26.0218 63.0219 25.8579 63.5002 26.134L65.3461 27.1998L65.2343 25.4663C65.1987 24.9152 65.6167 24.4396 66.1679 24.404C66.719 24.3685 67.1946 24.7865 67.2301 25.3376L67.4278 28.4016L70.6605 30.2681V26.5507L68.1259 24.9472C67.6592 24.652 67.5202 24.0343 67.8154 23.5675C68.1107 23.1008 68.7284 22.9618 69.1951 23.2571L70.6605 24.1841V22C70.6605 21.4477 71.1082 21 71.6605 21Z" fill="black"/>
</svg>
