<svg width="104" height="64" viewBox="0 0 104 64" fill="none" xmlns="http://www.w3.org/2000/svg">
<path fill-rule="evenodd" clip-rule="evenodd" d="M39.5 28C38.9632 28 38.4546 28.1208 38 28.3368V28C38 25.7909 36.2091 24 34 24H30C27.7909 24 26 25.7909 26 28V28.3368C25.5454 28.1208 25.0368 28 24.5 28C22.567 28 21 29.567 21 31.5V32.5C21 33.2557 21.2395 33.9554 21.6467 34.5274C21.2491 34.8929 21 35.4174 21 36V37.6C21 38.6641 21.8311 39.5342 22.8796 39.5964C22.9281 40.1035 23.3552 40.5 23.875 40.5C24.3935 40.5 24.8199 40.1053 24.8701 39.6H39.1299C39.1801 40.1053 39.6065 40.5 40.125 40.5C40.6448 40.5 41.0719 40.1035 41.1204 39.5964C42.1689 39.5342 43 38.6641 43 37.6V36C43 35.4174 42.7509 34.8929 42.3533 34.5274C42.7605 33.9554 43 33.2557 43 32.5V31.5C43 29.567 41.433 28 39.5 28ZM39.5 34C38.6716 34 38 33.3284 38 32.5V31.5C38 30.6716 38.6716 30 39.5 30C40.3284 30 41 30.6716 41 31.5V32.5C41 33.3284 40.3284 34 39.5 34ZM24.4988 34C23.6709 33.9993 23 33.328 23 32.5L23 31.5C23 30.6716 23.6716 30 24.5 30C25.3278 30 25.999 30.6705 26 31.4981V32.5016C25.9991 33.3289 25.3285 33.9993 24.5012 34L24.4988 34ZM23 36V37.6L41 37.6V36H23ZM28 28C28 26.8954 28.8954 26 30 26L34 26C35.1046 26 36 26.8954 36 28L36 34L28 34L28 28Z" fill="black"/>
<path fill-rule="evenodd" clip-rule="evenodd" d="M64.4988 35C63.1186 34.9993 62 33.8803 62 32.5V31.5C62 30.1193 63.1193 29 64.5 29C65.8799 29 66.9986 30.1179 67 31.4975L67 28C67 26.3431 68.3431 25 70 25H74C75.6569 25 77 26.3431 77 28L77 31.4986C77.0008 30.1185 78.1198 29 79.5 29C80.8807 29 82 30.1193 82 31.5V32.5C82 33.8807 80.8807 35 79.5 35C78.1197 35 77.0006 33.8813 77 32.5011V34C77 34.5523 76.5523 35 76 35H79.5H81C81.5523 35 82 35.4477 82 36V37.6C82 38.1523 81.5523 38.6 81 38.6V39C81 39.5523 80.5523 40 80 40C79.4477 40 79 39.5523 79 39V38.6H65V39C65 39.5523 64.5523 40 64 40C63.4477 40 63 39.5523 63 39V38.6C62.4477 38.6 62 38.1523 62 37.6V36C62 35.4477 62.4477 35 63 35H64.4988ZM68 35C67.4477 35 67 34.5523 67 34V32.5021C66.9989 33.8814 65.8807 34.9993 64.5012 35L68 35Z" fill="black"/>
</svg>
