<svg width="104" height="64" viewBox="0 0 104 64" fill="none" xmlns="http://www.w3.org/2000/svg">
<path fill-rule="evenodd" clip-rule="evenodd" d="M28.5007 28C28.5007 26.067 30.0677 24.5 32.0007 24.5C33.9336 24.5 35.5007 26.067 35.5007 28C35.5007 29.933 33.9336 31.5 32.0007 31.5C30.0677 31.5 28.5007 29.933 28.5007 28ZM32.0007 26.5C31.1722 26.5 30.5007 27.1716 30.5007 28C30.5007 28.8284 31.1722 29.5 32.0007 29.5C32.8291 29.5 33.5007 28.8284 33.5007 28C33.5007 27.1716 32.8291 26.5 32.0007 26.5Z" fill="black"/>
<path fill-rule="evenodd" clip-rule="evenodd" d="M32.0007 32C29.7915 32 28.0007 33.7909 28.0007 36C28.0007 38.2091 29.7915 40 32.0007 40C34.2098 40 36.0007 38.2091 36.0007 36C36.0007 33.7909 34.2098 32 32.0007 32ZM30.0007 36C30.0007 34.8954 30.8961 34 32.0007 34C33.1052 34 34.0007 34.8954 34.0007 36C34.0007 37.1046 33.1052 38 32.0007 38C30.8961 38 30.0007 37.1046 30.0007 36Z" fill="black"/>
<path fill-rule="evenodd" clip-rule="evenodd" d="M23.8594 24.8003C23.9658 22.6714 25.7229 21 27.8544 21H36.1469C38.2784 21 40.0355 22.6714 40.1419 24.8002L40.8419 38.8002C40.9562 41.085 39.1345 43 36.8469 43H27.1544C24.8668 43 23.0452 41.085 23.1594 38.8002L23.8594 24.8003ZM27.8544 23C26.7887 23 25.9101 23.8357 25.8569 24.9001L25.1569 38.9001C25.0998 40.0425 26.0106 41 27.1544 41H36.8469C37.9907 41 38.9015 40.0425 38.8444 38.9001L38.1444 24.9001C38.0912 23.8357 37.2127 23 36.1469 23H27.8544Z" fill="black"/>
<path d="M72.0006 26.5C71.1722 26.5 70.5006 27.1716 70.5006 28C70.5006 28.8284 71.1722 29.5 72.0006 29.5C72.8291 29.5 73.5006 28.8284 73.5006 28C73.5006 27.1716 72.8291 26.5 72.0006 26.5Z" fill="black"/>
<path d="M70.0006 36C70.0006 34.8954 70.8961 34 72.0006 34C73.1052 34 74.0006 34.8954 74.0006 36C74.0006 37.1046 73.1052 38 72.0006 38C70.8961 38 70.0006 37.1046 70.0006 36Z" fill="black"/>
<path fill-rule="evenodd" clip-rule="evenodd" d="M76.1469 22H67.8544C66.2558 22 64.9379 23.2536 64.8581 24.8502L64.1581 38.8502C64.0724 40.5637 65.4387 42 67.1544 42H76.8469C78.5626 42 79.9288 40.5637 79.8431 38.8502L79.1431 24.8502C79.0633 23.2536 77.7455 22 76.1469 22ZM68.5006 28C68.5006 26.067 70.0676 24.5 72.0006 24.5C73.9336 24.5 75.5006 26.067 75.5006 28C75.5006 29.933 73.9336 31.5 72.0006 31.5C70.0676 31.5 68.5006 29.933 68.5006 28ZM72.0006 32C69.7915 32 68.0006 33.7909 68.0006 36C68.0006 38.2091 69.7915 40 72.0006 40C74.2098 40 76.0006 38.2091 76.0006 36C76.0006 33.7909 74.2098 32 72.0006 32Z" fill="black"/>
</svg>
