<svg width="104" height="64" viewBox="0 0 104 64" fill="none" xmlns="http://www.w3.org/2000/svg">
<path d="M26.1491 27.8662C25.9353 27.2247 25.432 26.7214 24.7906 26.5076C24.1377 26.29 24.1377 25.3666 24.7906 25.149C25.432 24.9352 25.9353 24.4318 26.1491 23.7904C26.3668 23.1376 27.2901 23.1376 27.5077 23.7904C27.7216 24.4318 28.2249 24.9352 28.8663 25.149C29.5192 25.3666 29.5192 26.29 28.8663 26.5076C28.2249 26.7214 27.7216 27.2247 27.5077 27.8662C27.2901 28.519 26.3668 28.519 26.1491 27.8662Z" stroke="black" stroke-width="2" stroke-linecap="round"/>
<path d="M26.298 40.7325C25.8703 39.4496 24.8637 38.4429 23.5808 38.0153C22.2752 37.5801 22.2752 35.7333 23.5808 35.2981C24.8637 34.8705 25.8703 33.8638 26.298 32.5809C26.7332 31.2753 28.58 31.2753 29.0152 32.5809C29.4428 33.8638 30.4495 34.8705 31.7324 35.2981C33.038 35.7333 33.038 37.5801 31.7324 38.0153C30.4495 38.4429 29.4428 39.4496 29.0152 40.7325C28.58 42.0381 26.7332 42.0381 26.298 40.7325Z" stroke="black" stroke-width="2" stroke-linecap="round"/>
<path d="M34.1857 31.2614C35.1478 31.5822 35.9028 32.3372 36.2236 33.2993C36.55 34.2786 37.9351 34.2786 38.2615 33.2993C38.5822 32.3372 39.3372 31.5822 40.2994 31.2614C41.2786 30.935 41.2786 29.55 40.2994 29.2236C39.3372 28.9028 38.5822 28.1478 38.2615 27.1857C37.9351 26.2064 36.55 26.2064 36.2236 27.1857C35.9028 28.1478 35.1478 28.9028 34.1857 29.2236C33.2064 29.55 33.2064 30.935 34.1857 31.2614Z" stroke="black" stroke-width="2" stroke-linecap="round"/>
<path d="M66.1491 27.8662C65.9353 27.2247 65.432 26.7214 64.7906 26.5076C64.1377 26.29 64.1377 25.3666 64.7906 25.149C65.432 24.9352 65.9353 24.4318 66.1491 23.7904C66.3668 23.1376 67.2901 23.1376 67.5077 23.7904C67.7216 24.4318 68.2249 24.9352 68.8663 25.149C69.5192 25.3666 69.5192 26.29 68.8663 26.5076C68.2249 26.7214 67.7216 27.2247 67.5077 27.8662C67.2901 28.519 66.3668 28.519 66.1491 27.8662Z" fill="black"/>
<path d="M66.298 40.7325C65.8703 39.4496 64.8637 38.4429 63.5808 38.0153C62.2752 37.5801 62.2752 35.7333 63.5808 35.2981C64.8637 34.8705 65.8703 33.8638 66.298 32.5809C66.7332 31.2753 68.58 31.2753 69.0152 32.5809C69.4428 33.8638 70.4495 34.8705 71.7324 35.2981C73.038 35.7333 73.038 37.5801 71.7324 38.0153C70.4495 38.4429 69.4428 39.4496 69.0152 40.7325C68.58 42.0381 66.7332 42.0381 66.298 40.7325Z" fill="black"/>
<path d="M74.1857 31.2614C75.1478 31.5822 75.9028 32.3372 76.2236 33.2993C76.55 34.2786 77.9351 34.2786 78.2615 33.2993C78.5822 32.3372 79.3372 31.5822 80.2994 31.2614C81.2786 30.935 81.2786 29.55 80.2994 29.2236C79.3372 28.9028 78.5822 28.1478 78.2615 27.1857C77.9351 26.2064 76.55 26.2064 76.2236 27.1857C75.9028 28.1478 75.1478 28.9028 74.1857 29.2236C73.2064 29.55 73.2064 30.935 74.1857 31.2614Z" fill="black"/>
</svg>
