<svg width="104" height="64" viewBox="0 0 104 64" fill="none" xmlns="http://www.w3.org/2000/svg">
<path fill-rule="evenodd" clip-rule="evenodd" d="M34.5772 22.9186C33.3875 21.0271 30.6118 21.0271 29.4221 22.9186L27.4932 25.9854C27.3521 26.2097 27.1258 26.3738 26.8601 26.4386L23.3136 27.3044C21.1359 27.836 20.2552 30.4618 21.72 32.1796L24.0744 34.9407C24.2472 35.1434 24.3315 35.4025 24.3125 35.6628L24.0495 39.2646C23.8855 41.5114 26.1537 43.1078 28.2208 42.2769L31.6047 40.9166C31.8577 40.815 32.1415 40.815 32.3945 40.9166L35.7785 42.2769C37.8455 43.1078 40.1138 41.5114 39.9497 39.2646L39.6867 35.6628C39.6677 35.4025 39.752 35.1434 39.9248 34.9407L42.2792 32.1796C43.744 30.4618 42.8634 27.836 40.6856 27.3044L37.1391 26.4386C36.8734 26.3738 36.6471 26.2097 36.506 25.9854L34.5772 22.9186ZM31.115 23.9835C31.5205 23.3388 32.4787 23.3388 32.8842 23.9835L34.8131 27.0502C35.2332 27.7182 35.8985 28.1945 36.6648 28.3816L40.2113 29.2473C40.9665 29.4317 41.2396 30.3164 40.7574 30.8819L38.403 33.643C37.8907 34.2438 37.6345 35.0208 37.692 35.8084L37.955 39.4103C38.0084 40.1421 37.2559 40.7153 36.5244 40.4212L33.1404 39.061C32.4087 38.7668 31.5905 38.7669 30.8588 39.061L27.4748 40.4212C26.7433 40.7153 25.9908 40.1421 26.0442 39.4103L26.3072 35.8084C26.3647 35.0208 26.1085 34.2438 25.5962 33.643L23.2418 30.8819C22.7596 30.3164 23.0327 29.4317 23.7879 29.2473L27.3344 28.3816C28.1007 28.1945 28.766 27.7182 29.1862 27.0502L31.115 23.9835Z" fill="black"/>
<path d="M70.2689 23.4511C71.0665 22.183 72.9335 22.183 73.7311 23.4511L75.6599 26.5178C75.9406 26.964 76.3864 27.2841 76.9023 27.4101L80.4489 28.2758C81.9153 28.6338 82.4922 30.3891 81.5187 31.5308L79.1643 34.2919C78.8218 34.6936 78.6515 35.2116 78.6897 35.7356L78.9527 39.3374C79.0615 40.8268 77.5511 41.9116 76.1518 41.3491L72.7678 39.9888C72.2755 39.7909 71.7245 39.7909 71.2322 39.9888L67.8482 41.3491C66.4489 41.9116 64.9385 40.8268 65.0473 39.3374L65.3103 35.7356C65.3485 35.2116 65.1782 34.6936 64.8357 34.2919L62.4813 31.5308C61.5078 30.3891 62.0847 28.6338 63.5511 28.2758L67.0977 27.4101C67.6136 27.2841 68.0594 26.964 68.3401 26.5178L70.2689 23.4511Z" fill="black"/>
</svg>
