<svg width="104" height="64" viewBox="0 0 104 64" fill="none" xmlns="http://www.w3.org/2000/svg">
<path d="M37 23C39.2091 23 41 24.7909 41 27V37C41 39.2091 39.2091 41 37 41H27C24.7909 41 23 39.2091 23 37V27C23 24.7909 24.7909 23 27 23H37ZM27 25C25.8954 25 25 25.8954 25 27V37C25 38.1046 25.8954 39 27 39H37C38.1046 39 39 38.1046 39 37V27C39 25.8954 38.1046 25 37 25H27Z" fill="black"/>
<path d="M64 27C64 25.3431 65.3431 24 67 24H77C78.6569 24 80 25.3431 80 27V37C80 38.6569 78.6569 40 77 40H67C65.3431 40 64 38.6569 64 37V27Z" fill="black"/>
</svg>
