<svg width="104" height="64" viewBox="0 0 104 64" fill="none" xmlns="http://www.w3.org/2000/svg">
<path d="M32.5 29C32.5 28.4477 32.0523 28 31.5 28C30.9477 28 30.5 28.4477 30.5 29V34C30.5 34.5523 30.9477 35 31.5 35H34.5C35.0523 35 35.5 34.5523 35.5 34C35.5 33.4477 35.0523 33 34.5 33H32.5V29Z" fill="black"/>
<path fill-rule="evenodd" clip-rule="evenodd" d="M29 22C29 21.4477 29.4477 21 30 21H34C34.5523 21 35 21.4477 35 22C35 22.5523 34.5523 23 34 23H33V24C33 24.0179 32.9995 24.0356 32.9986 24.0533C37.6376 24.5512 41.25 28.4788 41.25 33.25C41.25 38.3586 37.1086 42.5 32 42.5C26.8914 42.5 22.75 38.3586 22.75 33.25C22.75 28.4788 26.3624 24.5512 31.0014 24.0533C31.0005 24.0356 31 24.0179 31 24V23H30C29.4477 23 29 22.5523 29 22ZM32 26C27.9959 26 24.75 29.2459 24.75 33.25C24.75 37.2541 27.9959 40.5 32 40.5C36.0041 40.5 39.25 37.2541 39.25 33.25C39.25 29.2459 36.0041 26 32 26Z" fill="black"/>
<path fill-rule="evenodd" clip-rule="evenodd" d="M70 21C69.4477 21 69 21.4477 69 22C69 22.5523 69.4477 23 70 23H71V25.06C66.9152 25.5535 63.75 29.0321 63.75 33.25C63.75 37.8063 67.4437 41.5 72 41.5C76.5563 41.5 80.25 37.8063 80.25 33.25C80.25 29.0321 77.0848 25.5535 73 25.06V23H74C74.5523 23 75 22.5523 75 22C75 21.4477 74.5523 21 74 21H70ZM71.5 28C72.0523 28 72.5 28.4477 72.5 29V33H74.5C75.0523 33 75.5 33.4477 75.5 34C75.5 34.5523 75.0523 35 74.5 35H71.5C70.9477 35 70.5 34.5523 70.5 34V29C70.5 28.4477 70.9477 28 71.5 28Z" fill="black"/>
</svg>
