<svg width="104" height="64" viewBox="0 0 104 64" fill="none" xmlns="http://www.w3.org/2000/svg">
<path fill-rule="evenodd" clip-rule="evenodd" d="M32.0003 21.998L25.7535 22.3885C24.2657 22.4815 22.9531 23.394 22.3477 24.7561L21.8018 25.9844C21.213 27.3093 21.3872 28.8491 22.2571 30.009L22.5154 30.3534L22.8712 38.1816C22.9683 40.3179 24.7285 42 26.8671 42H37.1336C39.2721 42 41.0324 40.3179 41.1295 38.1816L41.4788 30.4965C42.4301 29.6072 42.7807 28.2199 42.324 26.964L41.6115 25.0046C41.0678 23.5095 39.6897 22.4786 38.1019 22.3794L32.0003 21.998ZM24.8691 38.0908L24.5663 31.4287C25.4229 31.5296 26.307 31.3307 27.055 30.832L27.1589 30.7628C27.7236 30.3863 28.4468 30.3413 29.0539 30.6448L30.2115 31.2236C31.3376 31.7867 32.6631 31.7867 33.7892 31.2236L34.9467 30.6448C35.5538 30.3413 36.277 30.3863 36.8418 30.7628L36.9456 30.832C37.6936 31.3307 38.5778 31.5296 39.4343 31.4287L39.1315 38.0908C39.083 39.159 38.2028 40 37.1336 40H35.0871L35.2893 37.5744C35.4496 35.6503 33.9311 34 32.0003 34C30.0695 34 28.551 35.6503 28.7114 37.5744L28.9135 40H26.8671C25.7978 40 24.9177 39.159 24.8691 38.0908ZM38.055 29.1679C38.6275 29.5496 39.3732 29.5496 39.9456 29.1679C40.4425 28.8367 40.6485 28.2087 40.4444 27.6475L39.7319 25.6881C39.4601 24.9405 38.771 24.4251 37.9771 24.3755L32.0003 24.0019L25.8782 24.3846C25.1344 24.4311 24.478 24.8873 24.1753 25.5684L23.6294 26.7967C23.335 27.4591 23.4221 28.229 23.8571 28.809L24.1853 29.2467C24.7373 29.5475 25.4157 29.5212 25.9456 29.1679L26.0495 29.0987C27.2114 28.3241 28.6993 28.2315 29.9483 28.856L31.1059 29.4348C31.669 29.7163 32.3317 29.7163 32.8947 29.4348L34.0523 28.856C35.3013 28.2315 36.7892 28.3241 37.9512 29.0987L38.055 29.1679ZM33.2962 37.4083L33.0802 40H30.9205L30.7045 37.4083C30.6413 36.6502 31.2396 36 32.0003 36C32.7611 36 33.3593 36.6502 33.2962 37.4083Z" fill="black"/>
<path d="M62.8439 25.121L62.2713 26.3259C61.808 27.3006 61.945 28.4334 62.6294 29.2867L62.7748 29.4679C62.9863 29.7317 63.2357 29.9712 63.5495 30.0972C64.42 30.4465 65.4342 30.3696 66.2414 29.8664L66.3504 29.7985C67.256 29.2339 68.4158 29.1664 69.3893 29.6216L70.6036 30.1893C71.4896 30.6036 72.5324 30.6036 73.4184 30.1893L74.6327 29.6216C75.6062 29.1664 76.7659 29.2339 77.6716 29.7985L77.7805 29.8664C78.7334 30.4604 79.9747 30.4604 80.9276 29.8664C81.8512 29.2907 82.2342 28.1991 81.8548 27.2236L81.1074 25.3016C80.6796 24.2016 79.5954 23.4433 78.3461 23.3702L72.011 23L65.5234 23.3792C64.3529 23.4476 63.3202 24.1189 62.8439 25.121Z" fill="black"/>
<path fill-rule="evenodd" clip-rule="evenodd" d="M66.6037 31.152L66.4999 31.2136C65.5916 31.7524 64.4082 31.7524 63.4999 31.2136L63.8697 38.4522C63.9425 39.8776 65.2627 41 66.8666 41H77.1331C78.737 41 80.0572 39.8776 80.13 38.4522L80.4999 31.2136C79.5916 31.7524 78.4082 31.7524 77.4999 31.2136L77.396 31.152C76.5327 30.64 75.4271 30.5787 74.4991 30.9916L73.3415 31.5065C72.4969 31.8822 71.5028 31.8822 70.6582 31.5065L69.5007 30.9916C68.5726 30.5787 67.4671 30.64 66.6037 31.152ZM69.7074 36.4457L69.9998 39.5672H73.9998L74.2922 36.4457C74.404 35.2525 73.3456 34.2292 71.9998 34.2292C70.654 34.2292 69.5957 35.2525 69.7074 36.4457Z" fill="black"/>
</svg>
