<svg width="104" height="64" viewBox="0 0 104 64" fill="none" xmlns="http://www.w3.org/2000/svg">
<path d="M38 23H29.5C27.0147 23 25 25.0147 25 27.5C25 27.9543 25.0673 28.3928 25.1925 28.8062M33.5 32C35.9853 32 38 34.0147 38 36.5C38 38.9853 35.9853 41 33.5 41H25" stroke="black" stroke-width="2" stroke-linecap="round" stroke-linejoin="round"/>
<path d="M23 32H41" stroke="black" stroke-width="2" stroke-linecap="round" stroke-linejoin="round"/>
<path d="M78 23H69.5C67.0147 23 65 25.0147 65 27.5C65 27.9543 65.0673 28.3928 65.1925 28.8062M73.5 32C75.9853 32 78 34.0147 78 36.5C78 38.9853 75.9853 41 73.5 41H65" stroke="black" stroke-width="2" stroke-linecap="round" stroke-linejoin="round"/>
<path d="M63 32H81" stroke="black" stroke-width="2" stroke-linecap="round" stroke-linejoin="round"/>
</svg>
