<svg width="104" height="64" viewBox="0 0 104 64" fill="none" xmlns="http://www.w3.org/2000/svg">
<path d="M33 29.7222C33 29.1699 32.5523 28.7222 32 28.7222C31.4477 28.7222 31 29.1699 31 29.7222V30.6111C31 31.1634 31.4477 31.6111 32 31.6111C32.5523 31.6111 33 31.1634 33 30.6111V29.7222Z" fill="black"/>
<path fill-rule="evenodd" clip-rule="evenodd" d="M32.9333 23C34.6117 23 36.0267 24.1277 36.462 25.6667H38.7778C40.5574 25.6667 42 27.1093 42 28.8889V30.2111C42 30.9233 41.6082 31.5439 41.0284 31.8693L40.4681 37.4029C40.2612 39.4456 38.5415 41 36.4884 41H27.5116C25.4585 41 23.7388 39.4456 23.5319 37.4029L22.9716 31.8693C22.3918 31.5439 22 30.9233 22 30.2111V28.8889C22 27.1093 23.4426 25.6667 25.2222 25.6667H27.538C27.9733 24.1277 29.3883 23 31.0667 23H32.9333ZM29.7332 25.6667C30.0373 25.2619 30.5214 25 31.0667 25H32.9333C33.4786 25 33.9627 25.2619 34.2668 25.6667H29.7332ZM24 28.8889C24 28.2139 24.5472 27.6667 25.2222 27.6667H38.7778C39.4528 27.6667 40 28.2139 40 28.8889V30.116C39.9059 30.1254 39.8156 30.1478 39.731 30.1814L33.0569 32.6533C32.8346 32.7356 32.5994 32.7778 32.3623 32.7778H31.6377C31.4006 32.7778 31.1654 32.7356 30.9431 32.6533L24.269 30.1814C24.1844 30.1478 24.0941 30.1254 24 30.116V28.8889ZM33.7515 34.5288L38.9436 32.6058L38.4782 37.2015C38.3748 38.2228 37.515 39 36.4884 39H27.5116C26.485 39 25.6252 38.2228 25.5218 37.2015L25.0565 32.6058L30.2485 34.5288C30.6931 34.6935 31.1635 34.7778 31.6377 34.7778H32.3623C32.8365 34.7778 33.3069 34.6935 33.7515 34.5288Z" fill="black"/>
<path fill-rule="evenodd" clip-rule="evenodd" d="M67.5381 26.6665H65.2222C63.9949 26.6665 63 27.6614 63 28.8887V29.3711L70.2664 32.0688C70.6781 32.2216 71.1137 32.2999 71.5527 32.2999H72.4473C72.8863 32.2999 73.3219 32.2216 73.7336 32.0688L81 29.3711V28.8887C81 27.6614 80.0051 26.6665 78.7778 26.6665H76.462C76.0266 25.1276 74.6117 24 72.9334 24H71.0667C69.3884 24 67.9734 25.1276 67.5381 26.6665ZM69.7334 26.6665H74.2667C73.9626 26.2618 73.4786 26 72.9334 26H71.0667C70.5215 26 70.0374 26.2618 69.7334 26.6665ZM73 29.5C73 28.9477 72.5523 28.5 72 28.5C71.4477 28.5 71 28.9477 71 29.5V30.3889C71 30.9412 71.4477 31.3889 72 31.3889C72.5523 31.3889 73 30.9412 73 30.3889V29.5Z" fill="black"/>
<path d="M64.5269 37.3022L63.9 31.1111L70.5958 33.591C70.9293 33.7145 71.2821 33.7778 71.6377 33.7778H72.3623C72.718 33.7778 73.0708 33.7145 73.4043 33.591L80.1 31.1111L79.4732 37.3022C79.3181 38.8342 78.0283 40 76.4884 40H67.5116C65.9718 40 64.682 38.8342 64.5269 37.3022Z" fill="black"/>
</svg>
