<svg width="104" height="64" viewBox="0 0 104 64" fill="none" xmlns="http://www.w3.org/2000/svg">
<path d="M32 21C32.5523 21 33 21.4477 33 22V23.5C33 24.0523 32.5523 24.5 32 24.5C31.4477 24.5 31 24.0523 31 23.5V22C31 21.4477 31.4477 21 32 21Z" fill="black"/>
<path fill-rule="evenodd" clip-rule="evenodd" d="M25.0273 31.3777C25.3422 27.8032 28.3437 25 32 25C35.866 25 39 28.134 39 32C39 35.5776 36.3161 38.5284 32.8519 38.9487C32.3865 40.6808 30.873 42 29 42H24.5C22.5139 42 21 40.3125 21 38.3529C21 37.1291 21.5823 36.0249 22.5007 35.3586C22.5317 33.6117 23.543 32.065 25.0273 31.3777ZM27.0971 31.0144C27.5548 28.725 29.5759 27 32 27C34.7614 27 37 29.2386 37 32C37 34.4523 35.2346 36.4922 32.9054 36.9182C32.6456 35.6927 31.8683 34.6545 30.8 34.0926C30.2937 32.4355 28.8689 31.1626 27.0971 31.0144ZM24.5 35.4412C24.5 34.0383 25.5604 33 26.75 33C27.8066 33 28.7547 33.8117 28.9602 34.9809C29.0227 35.337 29.2726 35.6316 29.6138 35.7514C30.3909 36.0243 31 36.8262 31 37.8235C31 39.0802 30.0515 40 29 40H24.5C23.7247 40 23 39.3172 23 38.3529C23 37.6387 23.4091 37.0614 23.9376 36.8257C24.3411 36.6457 24.5786 36.2223 24.522 35.7841C24.5075 35.6725 24.5 35.5581 24.5 35.4412Z" fill="black"/>
<path d="M39.8599 35.134C39.3816 34.8578 38.77 35.0217 38.4938 35.5C38.2177 35.9783 38.3816 36.5899 38.8599 36.866L40.1589 37.616C40.6372 37.8922 41.2488 37.7283 41.5249 37.25C41.8011 36.7717 41.6372 36.1601 41.1589 35.884L39.8599 35.134Z" fill="black"/>
<path d="M38.4938 28.5C38.2177 28.0217 38.3816 27.4101 38.8599 27.134L40.1589 26.384C40.6372 26.1078 41.2488 26.2717 41.5249 26.75C41.8011 27.2283 41.6372 27.8399 41.1589 28.116L39.8599 28.866C39.3816 29.1422 38.77 28.9783 38.4938 28.5Z" fill="black"/>
<path d="M23.8398 26.134C23.3616 25.8578 22.75 26.0217 22.4738 26.5C22.1977 26.9783 22.3616 27.5899 22.8398 27.866L24.1389 28.616C24.6172 28.8922 25.2288 28.7283 25.5049 28.25C25.781 27.7717 25.6172 27.1601 25.1389 26.884L23.8398 26.134Z" fill="black"/>
<path d="M73 22C73 21.4477 72.5523 21 72 21C71.4477 21 71 21.4477 71 22V23.5C71 24.0523 71.4477 24.5 72 24.5C72.5523 24.5 73 24.0523 73 23.5V22Z" fill="black"/>
<path d="M62.4738 26.5C62.75 26.0217 63.3616 25.8578 63.8398 26.134L65.1389 26.884C65.6172 27.1601 65.781 27.7717 65.5049 28.25C65.2288 28.7283 64.6172 28.8922 64.1389 28.616L62.8398 27.866C62.3616 27.5899 62.1977 26.9783 62.4738 26.5Z" fill="black"/>
<path d="M78.8599 27.134C78.3816 27.4101 78.2177 28.0217 78.4938 28.5C78.77 28.9783 79.3816 29.1422 79.8599 28.866L81.1589 28.116C81.6372 27.8399 81.8011 27.2283 81.5249 26.75C81.2488 26.2717 80.6372 26.1078 80.1589 26.384L78.8599 27.134Z" fill="black"/>
<path d="M79.8599 35.134C79.3816 34.8578 78.77 35.0217 78.4938 35.5C78.2177 35.9783 78.3816 36.5899 78.8599 36.866L80.1589 37.616C80.6372 37.8922 81.2488 37.7283 81.5249 37.25C81.8011 36.7717 81.6372 36.1601 81.1589 35.884L79.8599 35.134Z" fill="black"/>
<path d="M62 38.3529C62 39.8149 63.1193 41 64.5 41H69C70.6569 41 72 39.5778 72 37.8235C72 36.4188 71.1389 35.2271 69.9451 34.8079C69.6643 33.2099 68.3406 32 66.75 32C64.9551 32 63.5 33.5407 63.5 35.4412C63.5 35.601 63.5103 35.7583 63.5302 35.9124C62.6312 36.3134 62 37.2551 62 38.3529Z" fill="black"/>
<path d="M78.0001 32C78.0001 34.6324 76.3048 36.8689 73.9465 37.6772C73.6959 35.9755 72.5885 34.5868 71.1232 34.0558C70.7301 31.7476 68.8769 30 66.6501 30C66.545 30 66.4407 30.0039 66.3374 30.0116C67.1578 27.6751 69.3833 26 72.0001 26C75.3138 26 78.0001 28.6863 78.0001 32Z" fill="black"/>
</svg>
