<svg width="104" height="64" viewBox="0 0 104 64" fill="none" xmlns="http://www.w3.org/2000/svg">
<path d="M33.0002 22C33.0002 21.4477 32.5525 21 32.0002 21C31.4479 21 31.0002 21.4477 31.0002 22V23.5C31.0002 24.0523 31.4479 24.5 32.0002 24.5C32.5525 24.5 33.0002 24.0523 33.0002 23.5V22Z" fill="black"/>
<path fill-rule="evenodd" clip-rule="evenodd" d="M25.0002 32C25.0002 28.134 28.1342 25 32.0002 25C35.8662 25 39.0002 28.134 39.0002 32C39.0002 35.866 35.8662 39 32.0002 39C28.1342 39 25.0002 35.866 25.0002 32ZM32.0002 27C29.2387 27 27.0002 29.2386 27.0002 32C27.0002 34.7614 29.2387 37 32.0002 37C34.7616 37 37.0002 34.7614 37.0002 32C37.0002 29.2386 34.7616 27 32.0002 27Z" fill="black"/>
<path d="M32.0002 39C32.5525 39 33.0002 39.4477 33.0002 40V41.5C33.0002 42.0523 32.5525 42.5 32.0002 42.5C31.4479 42.5 31.0002 42.0523 31.0002 41.5V40C31.0002 39.4477 31.4479 39 32.0002 39Z" fill="black"/>
<path d="M38.494 35.5C38.7701 35.0217 39.3817 34.8578 39.86 35.134L41.1591 35.884C41.6374 36.1601 41.8012 36.7717 41.5251 37.25C41.249 37.7283 40.6374 37.8922 40.1591 37.616L38.86 36.866C38.3817 36.5899 38.2179 35.9783 38.494 35.5Z" fill="black"/>
<path d="M38.86 27.134C38.3817 27.4101 38.2179 28.0217 38.494 28.5C38.7701 28.9783 39.3817 29.1422 39.86 28.866L41.1591 28.116C41.6374 27.8399 41.8012 27.2283 41.5251 26.75C41.249 26.2717 40.6374 26.1078 40.1591 26.384L38.86 27.134Z" fill="black"/>
<path d="M23.84 26.134C23.3617 25.8578 22.7501 26.0217 22.474 26.5C22.1978 26.9783 22.3617 27.5899 22.84 27.866L24.139 28.616C24.6173 28.8922 25.2289 28.7283 25.5051 28.25C25.7812 27.7717 25.6173 27.1601 25.139 26.884L23.84 26.134Z" fill="black"/>
<path d="M22.474 37.5C22.1978 37.0217 22.3617 36.4101 22.84 36.134L24.139 35.384C24.6173 35.1078 25.2289 35.2717 25.5051 35.75C25.7812 36.2283 25.6173 36.8399 25.139 37.116L23.84 37.866C23.3617 38.1422 22.7501 37.9783 22.474 37.5Z" fill="black"/>
<path d="M73.0002 22C73.0002 21.4477 72.5525 21 72.0002 21C71.4479 21 71.0002 21.4477 71.0002 22V23.5C71.0002 24.0523 71.4479 24.5 72.0002 24.5C72.5525 24.5 73.0002 24.0523 73.0002 23.5V22Z" fill="black"/>
<path d="M63.84 26.134C63.3617 25.8578 62.7501 26.0217 62.474 26.5C62.1978 26.9783 62.3617 27.5899 62.84 27.866L64.139 28.616C64.6173 28.8922 65.2289 28.7283 65.5051 28.25C65.7812 27.7717 65.6173 27.1601 65.139 26.884L63.84 26.134Z" fill="black"/>
<path d="M78.0002 32C78.0002 35.3137 75.3139 38 72.0002 38C68.6865 38 66.0002 35.3137 66.0002 32C66.0002 28.6863 68.6865 26 72.0002 26C75.3139 26 78.0002 28.6863 78.0002 32Z" fill="black"/>
<path d="M78.494 35.5C78.7701 35.0217 79.3817 34.8578 79.86 35.134L81.1591 35.884C81.6374 36.1601 81.8012 36.7717 81.5251 37.25C81.249 37.7283 80.6374 37.8922 80.1591 37.616L78.86 36.866C78.3817 36.5899 78.2179 35.9783 78.494 35.5Z" fill="black"/>
<path d="M78.86 27.134C78.3817 27.4101 78.2179 28.0217 78.494 28.5C78.7701 28.9783 79.3817 29.1422 79.86 28.866L81.1591 28.116C81.6374 27.8399 81.8012 27.2283 81.5251 26.75C81.249 26.2717 80.6374 26.1078 80.1591 26.384L78.86 27.134Z" fill="black"/>
<path d="M72.0002 39C72.5525 39 73.0002 39.4477 73.0002 40V41.5C73.0002 42.0523 72.5525 42.5 72.0002 42.5C71.4479 42.5 71.0002 42.0523 71.0002 41.5V40C71.0002 39.4477 71.4479 39 72.0002 39Z" fill="black"/>
<path d="M62.474 37.5C62.1978 37.0217 62.3617 36.4101 62.84 36.134L64.139 35.384C64.6173 35.1078 65.2289 35.2717 65.5051 35.75C65.7812 36.2283 65.6173 36.8399 65.139 37.116L63.84 37.866C63.3617 38.1422 62.7501 37.9783 62.474 37.5Z" fill="black"/>
</svg>
