<svg width="104" height="64" viewBox="0 0 104 64" fill="none" xmlns="http://www.w3.org/2000/svg">
<path d="M23 25L28.6058 33.1538M28.6058 33.1538L34 41M28.6058 33.1538L34 25M28.6058 33.1538L23.4151 41" stroke="black" stroke-width="2" stroke-linecap="round" stroke-linejoin="round"/>
<path d="M37 27V25C37 23.8954 37.8954 23 39 23C40.1046 23 41 23.8954 41 25V27" stroke="black" stroke-width="2" stroke-linecap="round" stroke-linejoin="round"/>
<path d="M63 25L68.6058 33.1538M68.6058 33.1538L74 41M68.6058 33.1538L74 25M68.6058 33.1538L63.4151 41" stroke="black" stroke-width="2" stroke-linecap="round" stroke-linejoin="round"/>
<path d="M77 27V25C77 23.8954 77.8954 23 79 23C80.1046 23 81 23.8954 81 25V27" stroke="black" stroke-width="2" stroke-linecap="round" stroke-linejoin="round"/>
</svg>
