<svg width="104" height="64" viewBox="0 0 104 64" fill="none" xmlns="http://www.w3.org/2000/svg">
<path fill-rule="evenodd" clip-rule="evenodd" d="M36.5863 22.3815C36.7341 22.411 36.8575 22.4343 36.9793 22.4493C37.0917 22.4 37.2032 22.3422 37.3363 22.2715L37.3773 22.2497C37.5141 22.1768 37.688 22.0841 37.8687 22.0063C38.3155 21.8141 38.8513 21.6901 39.5228 21.8371C41.0508 22.1717 41.8804 23.564 41.8406 24.9333C41.8091 26.0175 41.2198 26.9987 40.6602 27.7125C40.0797 28.4529 39.4079 29.0594 38.9862 29.4113C38.4452 29.8627 37.7039 29.9714 37.0561 29.6944C36.5511 29.4784 35.7334 29.0903 34.9648 28.5478C34.2238 28.0247 33.3775 27.2541 33.036 26.2246C32.6048 24.9244 32.9996 23.3525 34.3672 22.5933C34.9681 22.2596 35.517 22.2246 36.0002 22.2804C36.1956 22.303 36.3888 22.3418 36.5408 22.3723L36.5863 22.3815ZM35.338 24.3418C35.4874 24.2589 35.5926 24.2466 35.7707 24.2672C35.8796 24.2798 35.9925 24.3023 36.1648 24.3368L36.1946 24.3427C36.3696 24.3777 36.5923 24.4212 36.8399 24.4461C37.1278 24.4749 37.4187 24.4323 37.6862 24.3219C37.9162 24.2271 38.1171 24.1214 38.2747 24.0377L38.3015 24.0234C38.4567 23.9409 38.5584 23.8869 38.6591 23.8435C38.8237 23.7727 38.9281 23.7543 39.095 23.7908C39.5257 23.8851 39.8583 24.2958 39.8415 24.8752C39.8289 25.3082 39.5657 25.8668 39.0862 26.4785C38.6528 27.0313 38.1343 27.5122 37.7675 27.8231C37.3268 27.6306 36.692 27.3189 36.1182 26.9138C35.4832 26.4656 35.0707 26.0061 34.9343 25.5949C34.7518 25.0447 34.9525 24.5558 35.338 24.3418Z" fill="black"/>
<path fill-rule="evenodd" clip-rule="evenodd" d="M21 30.0001C21 28.8955 21.8954 28.0001 23 28.0001H25C26.1046 28.0001 27 28.8955 27 30.0001V30.3231C27.8336 29.9594 28.7883 29.6701 29.8521 29.511C30.9204 29.3512 31.9416 29.6431 32.7445 29.8725C32.8683 29.9079 32.9869 29.9418 33.0997 29.9724C34.011 30.219 34.7864 30.3504 35.6838 30.0513C36.4957 29.7807 37.3085 29.7149 37.9807 30.0851C38.6924 30.477 38.9416 31.1814 38.9898 31.7539C39.0107 32.0018 38.9831 32.3378 38.7886 32.6613C38.6336 32.919 38.4202 33.1336 38.1982 33.3113C38.9547 33.069 39.7508 32.8255 40.4502 32.7303C41.1174 32.6394 42.0452 32.631 42.7071 33.2929C43.4693 34.0551 43.2438 35.0454 42.9334 35.6828C42.6092 36.3482 42.0331 37.025 41.38 37.6449C40.0591 38.8986 38.1594 40.1649 36.3929 40.9196C34.2273 41.8447 31.7039 41.2776 29.8217 40.7397C29.3932 40.6172 29.0082 40.4993 28.6541 40.3909C28.1609 40.2399 27.7276 40.1072 27.3203 40.0061C27.202 39.9768 27.0955 39.9527 27 39.9336V40.0001C27 41.1046 26.1046 42.0001 25 42.0001H23C21.8954 42.0001 21 41.1046 21 40.0001V30.0001ZM27 32.5571C27.8295 32.0829 28.8872 31.6775 30.1479 31.489C30.757 31.3979 31.3187 31.5541 32.1503 31.7853C32.285 31.8228 32.4269 31.8622 32.5771 31.9029C33.5876 32.1764 34.8419 32.4401 36.3162 31.9487C36.5596 31.8676 36.7284 31.8383 36.8398 31.8303L36.8122 31.8492C36.618 31.9803 36.35 32.1243 36.0121 32.2747C35.3372 32.575 34.4706 32.862 33.5585 33.108C32.8697 33.2937 32.2815 33.8315 32.17 34.5547C32.1118 34.9322 32.1941 35.3605 32.4911 35.708C32.7825 36.0489 33.1849 36.2021 33.5653 36.2429C34.4517 36.3378 35.3853 36.1913 36.2469 35.9827C36.9943 35.8018 37.7546 35.5561 38.441 35.3343C38.5486 35.2995 38.6544 35.2653 38.7581 35.232C39.5564 34.9759 40.2073 34.7818 40.7201 34.712C40.9516 34.6805 41.0979 34.6825 41.1865 34.6922C41.1739 34.724 41.1572 34.762 41.1353 34.8069C40.9643 35.158 40.5862 35.6409 40.0032 36.1943C38.8519 37.287 37.1516 38.4206 35.6071 39.0804C34.1635 39.6971 32.287 39.3642 30.3714 38.8167C30.032 38.7197 29.6776 38.6117 29.3287 38.5053C28.7802 38.3381 28.2445 38.1749 27.8022 38.065C27.5364 37.9991 27.2643 37.9412 27 37.907V32.5571ZM25 30.0001V40.0001H23V30.0001H25ZM41.2225 34.554C41.224 34.5531 41.2251 34.5611 41.2215 34.5807C41.2193 34.5647 41.2211 34.5549 41.2225 34.554ZM34.0505 35.0497C34.0503 35.0496 34.0523 35.0483 34.0572 35.0462C34.0532 35.0489 34.0508 35.0499 34.0505 35.0497Z" fill="black"/>
<path d="M76.3479 23.3535C75.8449 23.2527 75.3999 23.1636 74.8526 23.4675C73.9761 23.9541 73.6783 24.9845 73.9852 25.9097C74.463 27.3503 76.5028 28.3701 77.4493 28.7749C77.7514 28.9041 78.0933 28.8539 78.3455 28.6434C79.136 27.9839 80.797 26.4213 80.841 24.9042C80.8693 23.9298 80.2882 23.0283 79.3089 22.8139C78.6973 22.68 78.2967 22.8931 77.8438 23.1341C77.6759 23.2235 77.5007 23.3167 77.305 23.3974C77.1896 23.445 77.0639 23.4634 76.9397 23.451C76.729 23.4299 76.5344 23.3909 76.3479 23.3535Z" fill="black"/>
<path d="M65 29H63C62.4477 29 62 29.4477 62 30V40C62 40.5523 62.4477 41 63 41H65C65.5523 41 66 40.5523 66 40V38.9999C66.4789 38.6806 67.5936 39.0211 68.9896 39.4475C71.0915 40.0895 73.8313 40.9264 76 39.9999C79.311 38.5855 83.2 35.1999 82 33.9999C81.3453 33.3452 79.8332 33.8336 78.129 34.3841C76.6422 34.8643 75.0092 35.3918 73.6718 35.2485C72.8776 35.1634 73.0477 34.2813 73.8189 34.0734C75.6989 33.5665 77.5006 32.8624 77.9316 32.1458C77.987 32.0537 78.0024 31.9449 77.9934 31.8378C77.9298 31.0839 77.4012 30.5328 76 30.9999C74.6505 31.4497 73.5226 31.1318 72.4434 30.8277C71.626 30.5973 70.8365 30.3748 70 30.4999C68.5879 30.7111 67.3955 31.1712 66.4542 31.7173C66.165 31.8851 66 32.1999 66 32.5343V30C66 29.4477 65.5523 29 65 29Z" fill="black"/>
</svg>
