<svg width="104" height="64" viewBox="0 0 104 64" fill="none" xmlns="http://www.w3.org/2000/svg">
<path d="M30.5849 21.1005C30.0326 21.1005 29.5849 21.5482 29.5849 22.1005C29.5849 22.6527 30.0326 23.1005 30.5849 23.1005H32.4133L21.3925 34.1213C21.002 34.5118 21.002 35.145 21.3925 35.5355C21.783 35.926 22.4162 35.926 22.8067 35.5355L33.8275 24.5147V26.3431C33.8275 26.8954 34.2752 27.3431 34.8275 27.3431C35.3798 27.3431 35.8275 26.8954 35.8275 26.3431V22.1005C35.8275 21.5482 35.3798 21.1005 34.8275 21.1005H30.5849Z" fill="black"/>
<path d="M42.6057 29.8787C42.9962 29.4882 42.9962 28.855 42.6057 28.4645C42.2152 28.074 41.582 28.074 41.1915 28.4645L30.1707 39.4853V37.6569C30.1707 37.1046 29.723 36.6569 29.1707 36.6569C28.6184 36.6569 28.1707 37.1046 28.1707 37.6569V41.8996C28.1707 42.4518 28.6184 42.8996 29.1707 42.8996H33.4133C33.9656 42.8996 34.4133 42.4518 34.4133 41.8996C34.4133 41.3473 33.9656 40.8996 33.4133 40.8996H31.5849L42.6057 29.8787Z" fill="black"/>
<path fill-rule="evenodd" clip-rule="evenodd" d="M62 25C62 23.3431 63.3431 22 65 22H79C80.6569 22 82 23.3431 82 25V39C82 40.6569 80.6569 42 79 42H65C63.3431 42 62 40.6569 62 39V25ZM70.5858 40.7782C70.0335 40.7782 69.5858 40.3305 69.5858 39.7782V35.5355C69.5858 34.9832 70.0335 34.5355 70.5858 34.5355C71.1381 34.5355 71.5858 34.9832 71.5858 35.5355V37.364L79.0711 29.8787C79.4616 29.4881 80.0948 29.4881 80.4853 29.8787C80.8759 30.2692 80.8759 30.9024 80.4853 31.2929L73 38.7782H74.8285C75.3808 38.7782 75.8285 39.2259 75.8285 39.7782C75.8285 40.3305 75.3808 40.7782 74.8285 40.7782H70.5858ZM73.4142 23.2218C73.9665 23.2218 74.4142 23.6695 74.4142 24.2218L74.4142 28.4645C74.4142 29.0168 73.9665 29.4645 73.4142 29.4645C72.8619 29.4645 72.4142 29.0168 72.4142 28.4645V26.636L64.9289 34.1213C64.5384 34.5119 63.9052 34.5119 63.5147 34.1213C63.1242 33.7308 63.1242 33.0976 63.5147 32.7071L71 25.2218L69.1716 25.2218C68.6193 25.2218 68.1716 24.7741 68.1716 24.2218C68.1716 23.6695 68.6193 23.2218 69.1716 23.2218L73.4142 23.2218Z" fill="black"/>
</svg>
