<svg width="104" height="64" viewBox="0 0 104 64" fill="none" xmlns="http://www.w3.org/2000/svg">
<path d="M41.7071 27.7071C42.0976 27.3166 42.0976 26.6834 41.7071 26.2929L38.7071 23.2929C38.3166 22.9024 37.6834 22.9024 37.2929 23.2929C36.9024 23.6834 36.9024 24.3166 37.2929 24.7071L38.5858 26L23 26C22.4477 26 22 26.4477 22 27C22 27.5523 22.4477 28 23 28L38.5858 28L37.2929 29.2929C36.9024 29.6834 36.9024 30.3166 37.2929 30.7071C37.6834 31.0976 38.3166 31.0976 38.7071 30.7071L41.7071 27.7071Z" fill="black"/>
<path d="M22.2929 37.7071C21.9024 37.3166 21.9024 36.6834 22.2929 36.2929L25.2929 33.2929C25.6834 32.9024 26.3166 32.9024 26.7071 33.2929C27.0976 33.6834 27.0976 34.3166 26.7071 34.7071L25.4142 36L41 36C41.5523 36 42 36.4477 42 37C42 37.5523 41.5523 38 41 38L25.4142 38L26.7071 39.2929C27.0976 39.6834 27.0976 40.3166 26.7071 40.7071C26.3166 41.0976 25.6834 41.0976 25.2929 40.7071L22.2929 37.7071Z" fill="black"/>
<path fill-rule="evenodd" clip-rule="evenodd" d="M62 25C62 23.3431 63.3431 22 65 22H79C80.6569 22 82 23.3431 82 25V39C82 40.6569 80.6569 42 79 42H65C63.3431 42 62 40.6569 62 39V25ZM63.7929 37.7071C63.4024 37.3166 63.4024 36.6834 63.7929 36.2929L66.7929 33.2929C67.1834 32.9024 67.8166 32.9024 68.2071 33.2929C68.5976 33.6834 68.5976 34.3166 68.2071 34.7071L66.9142 36L79.5 36C80.0523 36 80.5 36.4477 80.5 37C80.5 37.5523 80.0523 38 79.5 38H66.9142L68.2071 39.2929C68.5976 39.6834 68.5976 40.3166 68.2071 40.7071C67.8166 41.0976 67.1834 41.0976 66.7929 40.7071L63.7929 37.7071ZM80.2071 26.2929C80.5976 26.6834 80.5976 27.3166 80.2071 27.7071L77.2071 30.7071C76.8166 31.0976 76.1834 31.0976 75.7929 30.7071C75.4024 30.3166 75.4024 29.6834 75.7929 29.2929L77.0858 28L64.5 28C63.9477 28 63.5 27.5523 63.5 27C63.5 26.4477 63.9477 26 64.5 26L77.0858 26L75.7929 24.7071C75.4024 24.3166 75.4024 23.6834 75.7929 23.2929C76.1834 22.9024 76.8166 22.9024 77.2071 23.2929L80.2071 26.2929Z" fill="black"/>
</svg>
