<svg width="104" height="64" viewBox="0 0 104 64" fill="none" xmlns="http://www.w3.org/2000/svg">
<path d="M26.2929 22.2929C26.6834 21.9024 27.3166 21.9024 27.7071 22.2929L30.7071 25.2929C31.0976 25.6834 31.0976 26.3166 30.7071 26.7071C30.3166 27.0976 29.6834 27.0976 29.2929 26.7071L28 25.4142L28 41C28 41.5523 27.5523 42 27 42C26.4477 42 26 41.5523 26 41L26 25.4142L24.7071 26.7071C24.3166 27.0976 23.6834 27.0976 23.2929 26.7071C22.9024 26.3166 22.9024 25.6834 23.2929 25.2929L26.2929 22.2929Z" fill="black"/>
<path d="M33.2929 38.7071L36.2929 41.7071C36.6834 42.0976 37.3166 42.0976 37.7071 41.7071L40.7071 38.7071C41.0976 38.3166 41.0976 37.6834 40.7071 37.2929C40.3166 36.9024 39.6834 36.9024 39.2929 37.2929L38 38.5858V23C38 22.4477 37.5523 22 37 22C36.4477 22 36 22.4477 36 23V38.5858L34.7071 37.2929C34.3166 36.9024 33.6834 36.9024 33.2929 37.2929C32.9024 37.6834 32.9024 38.3166 33.2929 38.7071Z" fill="black"/>
<path fill-rule="evenodd" clip-rule="evenodd" d="M62 25C62 23.3431 63.3431 22 65 22H79C80.6569 22 82 23.3431 82 25V39C82 40.6569 80.6569 42 79 42H65C63.3431 42 62 40.6569 62 39V25ZM76.2929 40.2071L73.2929 37.2071C72.9024 36.8166 72.9024 36.1834 73.2929 35.7929C73.6834 35.4024 74.3166 35.4024 74.7071 35.7929L76 37.0858V24.5C76 23.9477 76.4477 23.5 77 23.5C77.5523 23.5 78 23.9477 78 24.5V37.0858L79.2929 35.7929C79.6834 35.4024 80.3166 35.4024 80.7071 35.7929C81.0976 36.1834 81.0976 36.8166 80.7071 37.2071L77.7071 40.2071C77.3166 40.5976 76.6834 40.5976 76.2929 40.2071ZM66.2929 23.7929C66.6834 23.4024 67.3166 23.4024 67.7071 23.7929L70.7071 26.7929C71.0976 27.1834 71.0976 27.8166 70.7071 28.2071C70.3166 28.5976 69.6834 28.5976 69.2929 28.2071L68 26.9142V39.5C68 40.0523 67.5523 40.5 67 40.5C66.4477 40.5 66 40.0523 66 39.5V26.9142L64.7071 28.2071C64.3166 28.5976 63.6834 28.5976 63.2929 28.2071C62.9024 27.8166 62.9024 27.1834 63.2929 26.7929L66.2929 23.7929Z" fill="black"/>
</svg>
