<svg width="104" height="64" viewBox="0 0 104 64" fill="none" xmlns="http://www.w3.org/2000/svg">
<path fill-rule="evenodd" clip-rule="evenodd" d="M37 21.5C39.2091 21.5 41 23.2909 41 25.5V38.5C41 40.7091 39.2091 42.5 37 42.5H27C24.7909 42.5 23 40.7091 23 38.5V25.5C23 23.2909 24.7909 21.5 27 21.5H37ZM25 25.5C25 24.3954 25.8954 23.5 27 23.5H29.1338C29.3067 23.7989 29.6299 24 30 24H34C34.3701 24 34.6933 23.7989 34.8662 23.5H37C38.1046 23.5 39 24.3954 39 25.5V38.5C39 39.6046 38.1046 40.5 37 40.5H27C25.8954 40.5 25 39.6046 25 38.5V25.5Z" fill="black"/>
<path d="M69.02 22.5H67C65.3431 22.5 64 23.8431 64 25.5V38.5C64 40.1569 65.3431 41.5 67 41.5H77C78.6569 41.5 80 40.1569 80 38.5V25.5C80 23.8431 78.6569 22.5 77 22.5H74.98C74.8873 22.9564 74.4838 23.3 74 23.3H70C69.5162 23.3 69.1127 22.9564 69.02 22.5Z" fill="black"/>
</svg>
