<svg width="104" height="64" viewBox="0 0 104 64" fill="none" xmlns="http://www.w3.org/2000/svg">
<path d="M38.235 22.9365C36.463 21.7151 34.315 21 32 21C25.9249 21 21 25.9249 21 32C21 38.0751 25.9249 43 32 43C38.0751 43 43 38.0751 43 32C43 29.685 42.2849 27.537 41.0635 25.765L39.6199 27.2085C40.4942 28.596 41 30.2389 41 32C41 36.9706 36.9706 41 32 41C27.0294 41 23 36.9706 23 32C23 27.0294 27.0294 23 32 23C33.7611 23 35.404 23.5058 36.7915 24.3801L38.235 22.9365Z" fill="black"/>
<path d="M40 21C40.5523 21 41 21.4477 41 22V23H42C42.5523 23 43 23.4477 43 24C43 24.5523 42.5523 25 42 25H40.4142L33.8509 31.5633C34.2301 31.7054 34.5 32.0712 34.5 32.5C34.5 33.0523 34.0523 33.5 33.5 33.5H31.5C30.9477 33.5 30.5 33.0523 30.5 32.5V30.5C30.5 29.9477 30.9477 29.5 31.5 29.5C31.9288 29.5 32.2946 29.7699 32.4367 30.1491L39 23.5858V22C39 21.4477 39.4477 21 40 21Z" fill="black"/>
<path d="M32 25C33.2055 25 34.3399 25.3047 35.3302 25.8414L33.8272 27.3444C33.2612 27.1221 32.6449 27 32 27C29.2386 27 27 29.2386 27 32C27 34.7614 29.2386 37 32 37C34.7614 37 37 34.7614 37 32C37 31.3551 36.8779 30.7388 36.6556 30.1728L38.1586 28.6698C38.6953 29.6601 39 30.7945 39 32C39 35.866 35.866 39 32 39C28.134 39 25 35.866 25 32C25 28.134 28.134 25 32 25Z" fill="black"/>
<path d="M81 22C81 21.4477 80.5523 21 80 21C79.4477 21 79 21.4477 79 22V23.5858L72.4367 30.1491C72.2946 29.7699 71.9288 29.5 71.5 29.5C70.9477 29.5 70.5 29.9477 70.5 30.5V32.5C70.5 33.0523 70.9477 33.5 71.5 33.5H73.5C74.0523 33.5 74.5 33.0523 74.5 32.5C74.5 32.0712 74.2301 31.7054 73.8509 31.5633L80.4142 25H82C82.5523 25 83 24.5523 83 24C83 23.4477 82.5523 23 82 23H81V22Z" fill="black"/>
<path d="M72 22C74.0382 22 75.9339 22.6098 77.5148 23.6568L75.3302 25.8414C74.3399 25.3047 73.2055 25 72 25C68.134 25 65 28.134 65 32C65 35.866 68.134 39 72 39C75.866 39 79 35.866 79 32C79 30.7945 78.6953 29.6601 78.1586 28.6698L80.3432 26.4852C81.3902 28.0661 82 29.9618 82 32C82 37.5228 77.5228 42 72 42C66.4772 42 62 37.5228 62 32C62 26.4772 66.4772 22 72 22Z" fill="black"/>
<path d="M72 27C72.6449 27 73.2612 27.1221 73.8272 27.3444L72.4383 28.7333C72.1585 28.5844 71.8391 28.5 71.5 28.5C70.3954 28.5 69.5 29.3954 69.5 30.5V32.5C69.5 33.6046 70.3954 34.5 71.5 34.5H73.5C74.6046 34.5 75.5 33.6046 75.5 32.5C75.5 32.1609 75.4156 31.8415 75.2667 31.5617L76.6556 30.1728C76.8779 30.7388 77 31.3551 77 32C77 34.7614 74.7614 37 72 37C69.2386 37 67 34.7614 67 32C67 29.2386 69.2386 27 72 27Z" fill="black"/>
</svg>
