<svg width="104" height="64" viewBox="0 0 104 64" fill="none" xmlns="http://www.w3.org/2000/svg">
<path d="M34 22C34.3788 22 34.7251 22.214 34.8945 22.5527L35.6182 24H37.5586C38.8498 24 39.996 24.8268 40.4043 26.0518L41.4434 29.1689C41.8321 28.908 42.3634 28.9494 42.707 29.293C43.0976 29.6835 43.0976 30.3165 42.707 30.707L42.6035 30.8096C42.8511 31.1425 43 31.5532 43 32V35.5C43 36.5249 42.3826 37.4041 41.5 37.79V39C41.5 40.1046 40.6046 41 39.5 41H37C35.8954 41 35 40.1046 35 39V38H29V39C29 40.1046 28.1046 41 27 41H24.5C23.3954 41 22.5 40.1046 22.5 39V37.79C21.6174 37.4041 21 36.5249 21 35.5V32C21 31.5532 21.1489 31.1425 21.3965 30.8096L21.293 30.707C20.9024 30.3165 20.9024 29.6835 21.293 29.293C21.6364 28.9496 22.167 28.9085 22.5557 29.1689L23.5957 26.0518C24.004 24.8268 25.1502 24 26.4414 24H28.3818L29.1055 22.5527L29.1768 22.4316C29.3617 22.1637 29.6685 22 30 22H34ZM24.5 39H27V38H24.5V39ZM37 39H39.5V38H37V39ZM23 35.5C23 35.7761 23.2239 36 23.5 36H40.5C40.7761 36 41 35.7761 41 35.5V32H23V35.5ZM26.4414 26C26.0111 26 25.6293 26.2754 25.4932 26.6836L24.3877 30H39.6123L38.5068 26.6836C38.3707 26.2754 37.9889 26 37.5586 26H26.4414Z" fill="black"/>
<path d="M74.191 24.5H69.809L70.309 23.5H73.691L74.191 24.5Z" fill="black"/>
<path d="M62.5 32C62.5 31.7239 62.7239 31.5 63 31.5H81C81.2761 31.5 81.5 31.7239 81.5 32V35.5C81.5 36.0523 81.0523 36.5 80.5 36.5H63.5C62.9477 36.5 62.5 36.0523 62.5 35.5V32Z" fill="black"/>
<path d="M78.9815 26.5257L80.3063 30.5H63.6937L65.0185 26.5257C65.2227 25.9131 65.7959 25.5 66.4415 25.5H77.5585C78.2041 25.5 78.7773 25.9131 78.9815 26.5257Z" fill="black"/>
<path d="M76.5 37.5H80V39C80 39.2761 79.7761 39.5 79.5 39.5H77C76.7239 39.5 76.5 39.2761 76.5 39V37.5Z" fill="black"/>
<path d="M64 39V37.5H67.5V39C67.5 39.2761 67.2761 39.5 67 39.5H64.5C64.2239 39.5 64 39.2761 64 39Z" fill="black"/>
</svg>
