<svg width="104" height="64" viewBox="0 0 104 64" fill="none" xmlns="http://www.w3.org/2000/svg">
<path d="M26.152 28.47C25.8593 28.9383 26.0017 29.5553 26.47 29.848L29.1132 31.5L26.47 33.152C26.0017 33.4447 25.8593 34.0617 26.152 34.53C26.4447 34.9983 27.0617 35.1407 27.53 34.848L30.1732 33.196C31.4265 32.4127 31.4265 30.5873 30.1732 29.804L27.53 28.152C27.0617 27.8593 26.4447 28.0017 26.152 28.47Z" fill="black"/>
<path d="M33 33C32.4477 33 32 33.4477 32 34C32 34.5523 32.4477 35 33 35H37C37.5523 35 38 34.5523 38 34C38 33.4477 37.5523 33 37 33H33Z" fill="black"/>
<path fill-rule="evenodd" clip-rule="evenodd" d="M22 27C22 24.7909 23.7909 23 26 23H38C40.2091 23 42 24.7909 42 27V37C42 39.2091 40.2091 41 38 41H26C23.7909 41 22 39.2091 22 37V27ZM26 25C24.8954 25 24 25.8954 24 27V37C24 38.1046 24.8954 39 26 39H38C39.1046 39 40 38.1046 40 37V27C40 25.8954 39.1046 25 38 25H26Z" fill="black"/>
<path fill-rule="evenodd" clip-rule="evenodd" d="M78 24H66C64.3431 24 63 25.3431 63 27V37C63 38.6569 64.3431 40 66 40H78C79.6569 40 81 38.6569 81 37V27C81 25.3431 79.6569 24 78 24ZM66.152 28.47C65.8593 28.9383 66.0017 29.5553 66.47 29.848L69.1132 31.5L66.47 33.152C66.0017 33.4447 65.8593 34.0617 66.152 34.53C66.4447 34.9983 67.0617 35.1407 67.53 34.848L70.1732 33.196C71.4265 32.4127 71.4265 30.5873 70.1732 29.804L67.53 28.152C67.0617 27.8593 66.4447 28.0017 66.152 28.47ZM73 33C72.4477 33 72 33.4477 72 34C72 34.5523 72.4477 35 73 35H77C77.5523 35 78 34.5523 78 34C78 33.4477 77.5523 33 77 33H73Z" fill="black"/>
</svg>
