<svg width="104" height="64" viewBox="0 0 104 64" fill="none" xmlns="http://www.w3.org/2000/svg">
<path d="M33 25C33 24.4477 32.5523 24 32 24C31.4477 24 31 24.4477 31 25V36C31 36.5523 31.4477 37 32 37C32.5523 37 33 36.5523 33 36V25Z" fill="black"/>
<path fill-rule="evenodd" clip-rule="evenodd" d="M32 21C29.9858 21 28.3529 22.6328 28.3529 24.6471V31.9168C26.9179 33.0491 26 34.8303 26 36.8225C26 40.2011 28.6537 43 32 43C35.3463 43 38 40.2011 38 36.8225C38 34.8303 37.0821 33.0491 35.6471 31.9168V24.6471C35.6471 22.6328 34.0142 21 32 21ZM28 36.8225C28 35.4202 28.6598 34.1889 29.6611 33.4334C30.0585 33.1336 30.3529 32.6457 30.3529 32.0703V24.6471C30.3529 23.7374 31.0904 23 32 23C32.9096 23 33.6471 23.7374 33.6471 24.6471V32.0703C33.6471 32.6457 33.9415 33.1336 34.3389 33.4334C35.3402 34.1889 36 35.4202 36 36.8225C36 39.1628 34.1766 41 32 41C29.8234 41 28 39.1628 28 36.8225Z" fill="black"/>
<path fill-rule="evenodd" clip-rule="evenodd" d="M77 36.8225C77 39.682 74.7614 42 72 42C69.2386 42 67 39.682 67 36.8225C67 35.1015 67.811 33.5765 69.0588 32.6351C69.2375 32.5003 69.3529 32.2942 69.3529 32.0703V24.6471C69.3529 23.1851 70.5381 22 72 22C73.4619 22 74.6471 23.1851 74.6471 24.6471V32.0703C74.6471 32.2942 74.7625 32.5003 74.9412 32.6351C76.189 33.5765 77 35.1015 77 36.8225ZM73 25C73 24.4477 72.5523 24 72 24C71.4477 24 71 24.4477 71 25V36C71 36.5523 71.4477 37 72 37C72.5523 37 73 36.5523 73 36V25Z" fill="black"/>
</svg>
