<svg width="104" height="64" viewBox="0 0 104 64" fill="none" xmlns="http://www.w3.org/2000/svg">
<path d="M27.9996 26.5C27.9996 25.9477 27.5519 25.5 26.9996 25.5C26.4473 25.5 25.9996 25.9477 25.9996 26.5V28.5C25.9996 29.0523 26.4473 29.5 26.9996 29.5C27.5519 29.5 27.9996 29.0523 27.9996 28.5V26.5Z" fill="black"/>
<path d="M26.9996 30C27.5519 30 27.9996 30.4477 27.9996 31V33C27.9996 33.5523 27.5519 34 26.9996 34C26.4473 34 25.9996 33.5523 25.9996 33V31C25.9996 30.4477 26.4473 30 26.9996 30Z" fill="black"/>
<path d="M27.9996 35.5C27.9996 34.9477 27.5519 34.5 26.9996 34.5C26.4473 34.5 25.9996 34.9477 25.9996 35.5V37.5C25.9996 38.0523 26.4473 38.5 26.9996 38.5C27.5519 38.5 27.9996 38.0523 27.9996 37.5V35.5Z" fill="black"/>
<path fill-rule="evenodd" clip-rule="evenodd" d="M42.4996 37L42.4996 36.7082C42.4996 36.0872 42.355 35.4748 42.0773 34.9194L41.1726 33.11C40.8517 32.468 40.8993 31.7033 41.2974 31.1061L41.8278 30.3105C42.2659 29.6534 42.4996 28.8814 42.4996 28.0917V27C42.4996 24.7909 40.7087 23 38.4996 23H24.8737C22.4806 23 20.629 25.0974 20.9258 27.472C20.9976 28.0457 21.1934 28.5969 21.4999 29.0872L22.6579 30.94C23.0632 31.5885 23.0632 32.4115 22.6579 33.06L21.6076 34.7404C21.2103 35.3761 20.9996 36.1107 20.9996 36.8604L20.9996 37C20.9996 39.2091 22.7905 41 24.9996 41H38.4996C40.7088 41 42.4996 39.2091 42.4996 37ZM40.4996 36.7082L40.4996 37C40.4996 38.1046 39.6042 39 38.4996 39L24.9996 39C23.895 39 22.9996 38.1046 22.9996 37V36.8604C22.9996 36.4855 23.105 36.1183 23.3036 35.8004L24.3539 34.12C25.1645 32.8229 25.1645 31.1771 24.3539 29.88L23.1959 28.0272C23.0435 27.7834 22.9461 27.5093 22.9104 27.224C22.7628 26.0431 23.6836 25 24.8737 25L38.4996 25C39.6042 25 40.4996 25.8954 40.4996 27V28.0917C40.4996 28.4865 40.3827 28.8725 40.1637 29.2011L39.6333 29.9967C38.837 31.1911 38.7418 32.7205 39.3838 34.0044L40.2885 35.8138C40.4273 36.0915 40.4996 36.3977 40.4996 36.7082Z" fill="black"/>
<path fill-rule="evenodd" clip-rule="evenodd" d="M64.8735 24H78.4995C80.1563 24 81.4995 25.3431 81.4995 27V28.0917C81.4995 28.684 81.3241 29.263 80.9956 29.7558L80.4652 30.5514C79.868 31.4472 79.7966 32.5943 80.278 33.5572L81.1827 35.3666C81.391 35.7831 81.4995 36.2425 81.4995 36.7082L81.4995 37C81.4995 38.6568 80.1563 40 78.4995 40H64.9995C63.3426 40 61.9995 38.6569 61.9995 37L61.9995 36.8604C61.9995 36.2981 62.1575 35.7472 62.4555 35.2704L63.5057 33.59C64.1137 32.6172 64.1137 31.3828 63.5057 30.41L62.3477 28.5572C62.1183 28.1901 61.9717 27.7775 61.918 27.348C61.6957 25.5702 63.0819 24 64.8735 24ZM67.9995 26.5C67.9995 25.9477 67.5518 25.5 66.9995 25.5C66.4472 25.5 65.9995 25.9477 65.9995 26.5V28.5C65.9995 29.0523 66.4472 29.5 66.9995 29.5C67.5518 29.5 67.9995 29.0523 67.9995 28.5V26.5ZM66.9995 30C67.5518 30 67.9995 30.4477 67.9995 31V33C67.9995 33.5523 67.5518 34 66.9995 34C66.4472 34 65.9995 33.5523 65.9995 33V31C65.9995 30.4477 66.4472 30 66.9995 30ZM67.9995 35.5C67.9995 34.9477 67.5518 34.5 66.9995 34.5C66.4472 34.5 65.9995 34.9477 65.9995 35.5V37.5C65.9995 38.0523 66.4472 38.5 66.9995 38.5C67.5518 38.5 67.9995 38.0523 67.9995 37.5V35.5Z" fill="black"/>
</svg>
