<svg width="104" height="64" viewBox="0 0 104 64" fill="none" xmlns="http://www.w3.org/2000/svg">
<path d="M30.5 24.5C31.1739 24.5 31.8334 24.6344 32.3614 24.8985C32.8297 25.1326 33.5 25.641 33.5 26.5C33.5 27.359 32.8297 27.8674 32.3614 28.1015C31.8334 28.3656 31.1739 28.5 30.5 28.5C29.8261 28.5 29.1666 28.3656 28.6386 28.1015C28.1703 27.8674 27.5 27.359 27.5 26.5C27.5 25.641 28.1703 25.1326 28.6386 24.8985C29.1666 24.6344 29.8261 24.5 30.5 24.5Z" fill="black"/>
<path fill-rule="evenodd" clip-rule="evenodd" d="M39 26.5V29H40C41.6569 29 43 30.3431 43 32V39C43 40.6569 41.6569 42 40 42H30.5C28.3165 42 26.2909 41.589 24.7738 40.8811C23.3379 40.211 22 39.0858 22 37.5V26.5C22 24.9142 23.3379 23.789 24.7738 23.1189C26.2909 22.411 28.3165 22 30.5 22C32.6835 22 34.7091 22.411 36.2262 23.1189C37.6621 23.789 39 24.9142 39 26.5ZM24 26.5C24 26.1528 24.341 25.528 25.6196 24.9313C26.8169 24.3725 28.5414 24 30.5 24C32.4586 24 34.1831 24.3725 35.3804 24.9313C36.659 25.528 37 26.1528 37 26.5C37 26.8472 36.659 27.472 35.3804 28.0687C34.1831 28.6275 32.4586 29 30.5 29C28.5414 29 26.8169 28.6275 25.6196 28.0687C24.341 27.472 24 26.8472 24 26.5ZM24 37.5V29.4656C24.2495 29.6195 24.51 29.7579 24.7738 29.8811C26.2909 30.589 28.3165 31 30.5 31H40C40.5523 31 41 31.4477 41 32V39C41 39.5523 40.5523 40 40 40H30.5C28.5414 40 26.8169 39.6275 25.6196 39.0687C24.341 38.472 24 37.8472 24 37.5Z" fill="black"/>
<path fill-rule="evenodd" clip-rule="evenodd" d="M78 26.5C78 28.433 74.6421 30 70.5 30C66.3579 30 63 28.433 63 26.5C63 24.567 66.3579 23 70.5 23C74.6421 23 78 24.567 78 26.5ZM68.5 26.5C68.5 27.0523 69.3954 27.5 70.5 27.5C71.6046 27.5 72.5 27.0523 72.5 26.5C72.5 25.9477 71.6046 25.5 70.5 25.5C69.3954 25.5 68.5 25.9477 68.5 26.5Z" fill="black"/>
<path d="M70.5 31.4998C73.4867 31.4998 76.1676 30.8452 78 29.8071V29.9999H80C81.1046 29.9999 82 30.8954 82 31.9999V38.9999C82 40.1045 81.1046 40.9999 80 40.9999H70.5C66.3579 40.9999 63 39.4329 63 37.4999V29.8071C64.8324 30.8452 67.5133 31.4998 70.5 31.4998Z" fill="black"/>
</svg>
