<svg width="104" height="64" viewBox="0 0 104 64" fill="none" xmlns="http://www.w3.org/2000/svg">
<path fill-rule="evenodd" clip-rule="evenodd" d="M26 30C26 26.6863 28.6863 24 32 24C35.3137 24 38 26.6863 38 30V33C38 34.6569 36.6569 36 35 36H29C27.3431 36 26 34.6569 26 33V30ZM32 26C29.7909 26 28 27.7909 28 30V33C28 33.5523 28.4477 34 29 34H35C35.5523 34 36 33.5523 36 33V30C36 27.7909 34.2091 26 32 26Z" fill="black"/>
<path d="M30 37C29.4477 37 29 37.4477 29 38C29 38.5523 29.4477 39 30 39H35C35.5523 39 36 38.5523 36 38C36 37.4477 35.5523 37 35 37H30Z" fill="black"/>
<path fill-rule="evenodd" clip-rule="evenodd" d="M23 30C23 25.0294 27.0294 21 32 21C36.9706 21 41 25.0294 41 30V36C41 39.3137 38.3137 42 35 42H29C25.6863 42 23 39.3137 23 36V30ZM32 23C28.134 23 25 26.134 25 30V36C25 38.2091 26.7909 40 29 40H35C37.2091 40 39 38.2091 39 36V30C39 26.134 35.866 23 32 23Z" fill="black"/>
<path fill-rule="evenodd" clip-rule="evenodd" d="M80 36C80 38.7614 77.7614 41 75 41H69C66.2386 41 64 38.7614 64 36V30C64 25.5817 67.5817 22 72 22C76.4183 22 80 25.5817 80 30V36ZM77 33V30C77 27.2386 74.7614 25 72 25C69.2386 25 67 27.2386 67 30V33C67 34.1046 67.8954 35 69 35H75C76.1046 35 77 34.1046 77 33ZM70 37C69.4477 37 69 37.4477 69 38C69 38.5523 69.4477 39 70 39H75C75.5523 39 76 38.5523 76 38C76 37.4477 75.5523 37 75 37H70Z" fill="black"/>
</svg>
