<svg width="104" height="64" viewBox="0 0 104 64" fill="none" xmlns="http://www.w3.org/2000/svg">
<path fill-rule="evenodd" clip-rule="evenodd" d="M27 41C28.3062 41 29.4175 40.1652 29.8293 39H36.1707C36.5825 40.1652 37.6938 41 39 41C40.3062 41 41.4175 40.1652 41.8293 39H42C42.5523 39 43 38.5523 43 38V34.6366C43 34.077 42.8826 33.5235 42.6552 33.0121L41.7056 30.8754C41.0636 29.4309 39.6311 28.5 38.0504 28.5H36V27C36 24.7909 34.2091 23 32 23H25C22.7909 23 21 24.7909 21 27V37C21 38.1046 21.8954 39 23 39H24.1707C24.5825 40.1652 25.6938 41 27 41ZM23 27C23 25.8954 23.8954 25 25 25H32C33.1046 25 34 25.8954 34 27V37H29.8293C29.4175 35.8348 28.3062 35 27 35C25.6938 35 24.5825 35.8348 24.1707 37H23V27ZM40.8276 33.8244C40.9413 34.0801 41 34.3568 41 34.6366V35.7639C40.4692 35.2889 39.7684 35 39 35C37.6938 35 36.5825 35.8348 36.1707 37H36V30.5H38.0504C38.8408 30.5 39.557 30.9655 39.878 31.6877L40.8276 33.8244ZM26 38C26 37.4477 26.4477 37 27 37C27.5523 37 28 37.4477 28 38C28 38.5523 27.5523 39 27 39C26.4477 39 26 38.5523 26 38ZM38 38C38 37.4477 38.4477 37 39 37C39.5523 37 40 37.4477 40 38C40 38.5523 39.5523 39 39 39C38.4477 39 38 38.5523 38 38Z" fill="black"/>
<path d="M72 24C73.6569 24 75 25.3431 75 27V38H71C71 35.7909 69.2091 34 67 34C64.7909 34 63 35.7909 63 38C62.4477 38 62 37.5523 62 37V27C62 25.3431 63.3431 24 65 24H72Z" fill="black"/>
<path d="M76 35.3542V29.5H78.0504C79.2359 29.5 80.3103 30.1982 80.7918 31.2816L81.7414 33.4182C81.9119 33.8018 82 34.2169 82 34.6366V35.3542C81.2671 34.5238 80.1947 34 79 34C77.8053 34 76.7329 34.5238 76 35.3542Z" fill="black"/>
<path fill-rule="evenodd" clip-rule="evenodd" d="M67 35C65.3431 35 64 36.3431 64 38C64 39.6569 65.3431 41 67 41C68.6569 41 70 39.6569 70 38C70 36.3431 68.6569 35 67 35ZM66 38C66 37.4477 66.4477 37 67 37C67.5523 37 68 37.4477 68 38C68 38.5523 67.5523 39 67 39C66.4477 39 66 38.5523 66 38Z" fill="black"/>
<path fill-rule="evenodd" clip-rule="evenodd" d="M79 35C77.3431 35 76 36.3431 76 38C76 39.6569 77.3431 41 79 41C80.6569 41 82 39.6569 82 38C82 36.3431 80.6569 35 79 35ZM78 38C78 37.4477 78.4477 37 79 37C79.5523 37 80 37.4477 80 38C80 38.5523 79.5523 39 79 39C78.4477 39 78 38.5523 78 38Z" fill="black"/>
</svg>
