<svg width="104" height="64" viewBox="0 0 104 64" fill="none" xmlns="http://www.w3.org/2000/svg">
<path d="M26.5 28C25.9477 28 25.5 28.4477 25.5 29C25.5 29.5523 25.9477 30 26.5 30H27.5V33C27.5 33.5523 27.9477 34 28.5 34C29.0523 34 29.5 33.5523 29.5 33V30H30.5C31.0523 30 31.5 29.5523 31.5 29C31.5 28.4477 31.0523 28 30.5 28H26.5Z" fill="black"/>
<path d="M33.0528 28.1056C33.5468 27.8586 34.1474 28.0588 34.3944 28.5528L35.5 30.7639L36.6056 28.5528C36.8526 28.0588 37.4532 27.8586 37.9472 28.1056C38.4412 28.3526 38.6414 28.9532 38.3944 29.4472L36.3944 33.4472C36.225 33.786 35.8788 34 35.5 34C35.1212 34 34.775 33.786 34.6056 33.4472L32.6056 29.4472C32.3586 28.9532 32.5588 28.3526 33.0528 28.1056Z" fill="black"/>
<path fill-rule="evenodd" clip-rule="evenodd" d="M25 22C22.7909 22 21 23.7909 21 26V36C21 38.2091 22.7909 40 25 40H30.5C29.9477 40 29.5 40.4477 29.5 41C29.5 41.5523 29.9477 42 30.5 42H33.5C34.0523 42 34.5 41.5523 34.5 41C34.5 40.4477 34.0523 40 33.5 40H39C41.2091 40 43 38.2091 43 36V26C43 23.7909 41.2091 22 39 22H25ZM23 26C23 24.8954 23.8954 24 25 24H39C40.1046 24 41 24.8954 41 26V36C41 37.1046 40.1046 38 39 38H25C23.8954 38 23 37.1046 23 36V26Z" fill="black"/>
<path fill-rule="evenodd" clip-rule="evenodd" d="M65 23H79C80.6569 23 82 24.3431 82 26V36C82 37.6569 80.6569 39 79 39H65C63.3431 39 62 37.6569 62 36V26C62 24.3431 63.3431 23 65 23ZM66.5 28C65.9477 28 65.5 28.4477 65.5 29C65.5 29.5523 65.9477 30 66.5 30H67.5V33C67.5 33.5523 67.9477 34 68.5 34C69.0523 34 69.5 33.5523 69.5 33V30H70.5C71.0523 30 71.5 29.5523 71.5 29C71.5 28.4477 71.0523 28 70.5 28H66.5ZM73.0528 28.1056C73.5468 27.8586 74.1474 28.0588 74.3944 28.5528L75.5 30.7639L76.6056 28.5528C76.8526 28.0588 77.4532 27.8586 77.9472 28.1056C78.4412 28.3526 78.6414 28.9532 78.3944 29.4472L76.3944 33.4472C76.225 33.786 75.8788 34 75.5 34C75.1212 34 74.775 33.786 74.6056 33.4472L72.6056 29.4472C72.3586 28.9532 72.5588 28.3526 73.0528 28.1056Z" fill="black"/>
<path d="M70.5 40C69.9477 40 69.5 40.4477 69.5 41C69.5 41.5523 69.9477 42 70.5 42H73.5C74.0523 42 74.5 41.5523 74.5 41C74.5 40.4477 74.0523 40 73.5 40H70.5Z" fill="black"/>
</svg>
