<svg width="104" height="64" viewBox="0 0 104 64" fill="none" xmlns="http://www.w3.org/2000/svg">
<path fill-rule="evenodd" clip-rule="evenodd" d="M25 22C23.3431 22 22 23.3431 22 25V39C22 40.6569 23.3431 42 25 42H39C40.6569 42 42 40.6569 42 39V25C42 23.3431 40.6569 22 39 22H25ZM23.5429 28.7071C23.1524 28.3166 23.1524 27.6834 23.5429 27.2929L27.5429 23.2929C27.9334 22.9024 28.5666 22.9024 28.9571 23.2929C29.3476 23.6834 29.3476 24.3166 28.9571 24.7071L26.6642 27H34.25C37.8399 27 40.75 29.9101 40.75 33.5C40.75 37.0899 37.8398 40 34.25 40H26.25C25.6977 40 25.25 39.5523 25.25 39C25.25 38.4477 25.6977 38 26.25 38H34.25C36.7353 38 38.75 35.9853 38.75 33.5C38.75 31.0147 36.7353 29 34.25 29H26.6642L28.9571 31.2929C29.3476 31.6834 29.3476 32.3166 28.9571 32.7071C28.5666 33.0976 27.9334 33.0976 27.5429 32.7071L23.5429 28.7071Z" fill="black"/>
<path d="M62.5429 28.7071C62.1524 28.3166 62.1524 27.6834 62.5429 27.2929L66.5429 23.2929C66.9334 22.9024 67.5666 22.9024 67.9571 23.2929C68.3476 23.6834 68.3476 24.3166 67.9571 24.7071L65.6642 27H74.75C78.616 27 81.75 30.134 81.75 34C81.75 37.866 78.616 41 74.75 41H65.25C64.6977 41 64.25 40.5523 64.25 40C64.25 39.4477 64.6977 39 65.25 39H74.75C77.5114 39 79.75 36.7614 79.75 34C79.75 31.2386 77.5114 29 74.75 29H65.6642L67.9571 31.2929C68.3476 31.6834 68.3476 32.3166 67.9571 32.7071C67.5666 33.0976 66.9334 33.0976 66.5429 32.7071L62.5429 28.7071Z" fill="black"/>
</svg>
