<svg width="104" height="64" viewBox="0 0 104 64" fill="none" xmlns="http://www.w3.org/2000/svg">
<path d="M32.7071 22.2929C32.3166 21.9024 31.6834 21.9024 31.2929 22.2929L27.2929 26.2929C26.9024 26.6834 26.9024 27.3166 27.2929 27.7071C27.6834 28.0976 28.3166 28.0976 28.7071 27.7071L31 25.4142V37C31 37.5523 31.4477 38 32 38C32.5523 38 33 37.5523 33 37V25.4142L35.2929 27.7071C35.6834 28.0976 36.3166 28.0976 36.7071 27.7071C37.0976 27.3166 37.0976 26.6834 36.7071 26.2929L32.7071 22.2929Z" fill="black"/>
<path d="M24 37.5C24 36.9477 23.5523 36.5 23 36.5C22.4477 36.5 22 36.9477 22 37.5V39C22 41.2091 23.7909 43 26 43H38C40.2091 43 42 41.2091 42 39V37.5C42 36.9477 41.5523 36.5 41 36.5C40.4477 36.5 40 36.9477 40 37.5V39C40 40.1046 39.1046 41 38 41H26C24.8954 41 24 40.1046 24 39V37.5Z" fill="black"/>
<path d="M72.7071 22.2929C72.3166 21.9024 71.6834 21.9024 71.2929 22.2929L67.2929 26.2929C66.9024 26.6834 66.9024 27.3166 67.2929 27.7071C67.6834 28.0976 68.3166 28.0976 68.7071 27.7071L71 25.4142V37C71 37.5523 71.4477 38 72 38C72.5523 38 73 37.5523 73 37V25.4142L75.2929 27.7071C75.6834 28.0976 76.3166 28.0976 76.7071 27.7071C77.0976 27.3166 77.0976 26.6834 76.7071 26.2929L72.7071 22.2929Z" fill="black"/>
<path d="M63 37.5H70.063C70.285 38.3626 71.0681 39 72 39C72.9319 39 73.715 38.3626 73.937 37.5H81V39C81 40.6569 79.6569 42 78 42H66C64.3431 42 63 40.6569 63 39V37.5Z" fill="black"/>
</svg>
