<svg width="104" height="64" viewBox="0 0 104 64" fill="none" xmlns="http://www.w3.org/2000/svg">
<path fill-rule="evenodd" clip-rule="evenodd" d="M27 27C27 24.2386 29.2386 22 32 22C34.7614 22 37 24.2386 37 27C37 29.7614 34.7614 32 32 32C29.2386 32 27 29.7614 27 27ZM32 24C30.3431 24 29 25.3431 29 27C29 28.6569 30.3431 30 32 30C33.6569 30 35 28.6569 35 27C35 25.3431 33.6569 24 32 24Z" fill="black"/>
<path fill-rule="evenodd" clip-rule="evenodd" d="M26.5554 41.9174C28.2298 42.6502 30.4595 43 32 43C33.5405 43 35.7702 42.6502 37.4446 41.9174C38.2666 41.5576 39.1025 41.0427 39.5882 40.2974C39.8437 39.9054 40.0052 39.4437 39.9999 38.9282C39.9946 38.4174 39.8266 37.9281 39.5441 37.4728C38.1747 35.2656 35.3732 33 32 33C28.6268 33 25.8253 35.2656 24.4559 37.4728C24.1734 37.9281 24.0054 38.4174 24.0001 38.9282C23.9948 39.4437 24.1563 39.9054 24.4118 40.2974C24.8975 41.0427 25.7334 41.5576 26.5554 41.9174ZM26 38.9487C26.0008 38.8757 26.0237 38.7394 26.1554 38.5272C27.2775 36.7185 29.5157 35 32 35C34.4843 35 36.7225 36.7185 37.8446 38.5272C37.9763 38.7394 37.9992 38.8757 38 38.9487C38.0007 39.017 37.9831 39.0973 37.9126 39.2055C37.7465 39.4605 37.3429 39.7787 36.6427 40.0852C35.2726 40.6848 33.3268 41 32 41C30.6732 41 28.7274 40.6848 27.3573 40.0852C26.6571 39.7787 26.2535 39.4605 26.0874 39.2055C26.0169 39.0973 25.9993 39.017 26 38.9487Z" fill="black"/>
<path fill-rule="evenodd" clip-rule="evenodd" d="M40.2065 23.2084C40.2212 23.2149 40.2357 23.2215 40.25 23.2281C40.2643 23.2215 40.2788 23.2149 40.2935 23.2084C40.7626 23.0005 41.4566 22.868 42.225 23.2083C42.7129 23.4245 43.0974 23.7801 43.3136 24.2576C43.5228 24.7197 43.5348 25.2074 43.4526 25.6407C43.3408 26.2302 43.0009 26.7082 42.6838 27.0524C42.3567 27.4075 41.9767 27.7031 41.6547 27.9246C40.8058 28.5086 39.6942 28.5086 38.8453 27.9246C38.5233 27.7031 38.1433 27.4075 37.8162 27.0525C37.4992 26.7082 37.1592 26.2302 37.0474 25.6407C36.9652 25.2074 36.9772 24.7197 37.1864 24.2576C37.4026 23.7801 37.7871 23.4245 38.275 23.2083C39.0434 22.868 39.7374 23.0006 40.2065 23.2084ZM39.5232 25.1124C39.5351 25.1216 39.5431 25.1284 39.5467 25.1316C39.7337 25.3166 39.9864 25.4207 40.25 25.4207C40.5137 25.4207 40.7664 25.3166 40.9534 25.1315C40.9569 25.1284 40.9649 25.1215 40.9769 25.1124C41.0071 25.0893 41.0516 25.06 41.1036 25.037C41.1952 24.9964 41.2862 24.9799 41.4149 25.037C41.4656 25.0594 41.4858 25.0774 41.4903 25.0817L41.492 25.0834C41.492 25.0834 41.4933 25.0871 41.4943 25.0909C41.4958 25.0969 41.4977 25.1069 41.4989 25.1218C41.5014 25.152 41.5005 25.2002 41.4876 25.268C41.4751 25.3343 41.4117 25.4814 41.2128 25.6974C41.0238 25.9026 40.7749 26.1023 40.5212 26.2768C40.355 26.3912 40.1451 26.3912 39.9788 26.2769C39.7251 26.1023 39.4762 25.9026 39.2873 25.6974C39.0883 25.4814 39.025 25.3343 39.0124 25.268C38.9995 25.2002 38.9986 25.152 39.0011 25.1218C39.0023 25.1069 39.0043 25.0969 39.0057 25.0909C39.0067 25.0871 39.008 25.0834 39.008 25.0834L39.0097 25.0817C39.0142 25.0774 39.0344 25.0594 39.0851 25.037C39.2138 24.9799 39.3048 24.9964 39.3964 25.037C39.4485 25.06 39.4929 25.0893 39.5232 25.1124Z" fill="black"/>
<path d="M76 27C76 29.2091 74.2091 31 72 31C69.7909 31 68 29.2091 68 27C68 24.7909 69.7909 23 72 23C74.2091 23 76 24.7909 76 27Z" fill="black"/>
<path d="M72 42C69.1327 42 63.6491 40.6701 65.3057 38C66.5514 35.9921 69.0712 34 72 34C74.9288 34 77.4486 35.9921 78.6943 38C80.3509 40.6701 74.8673 42 72 42Z" fill="black"/>
<path d="M80 23.5843C80 23.5843 79.1029 22.6184 77.9067 23.1704C77.1357 23.5261 76.8951 24.2251 77.0399 25.0199C77.2239 26.0305 78.3233 26.9364 79.1287 27.4772C79.6593 27.8333 80.3408 27.8333 80.8713 27.4771C81.6767 26.9364 82.7761 26.0305 82.9601 25.0199C83.1049 24.2251 82.8643 23.5261 82.0933 23.1704C80.8971 22.6184 80 23.5843 80 23.5843Z" fill="black"/>
</svg>
