<svg width="104" height="64" viewBox="0 0 104 64" fill="none" xmlns="http://www.w3.org/2000/svg">
<path fill-rule="evenodd" clip-rule="evenodd" d="M27 27C27 24.2386 29.2386 22 32 22C34.7614 22 37 24.2386 37 27C37 29.7614 34.7614 32 32 32C29.2386 32 27 29.7614 27 27ZM32 24C30.3431 24 29 25.3431 29 27C29 28.6569 30.3431 30 32 30C33.6569 30 35 28.6569 35 27C35 25.3431 33.6569 24 32 24Z" fill="black"/>
<path fill-rule="evenodd" clip-rule="evenodd" d="M26.5554 41.9174C28.2298 42.6502 30.4595 43 32 43C33.5405 43 35.7702 42.6502 37.4446 41.9174C38.2666 41.5576 39.1025 41.0427 39.5882 40.2974C39.8437 39.9054 40.0052 39.4437 39.9999 38.9282C39.9946 38.4174 39.8266 37.9281 39.5441 37.4728C38.1747 35.2656 35.3732 33 32 33C28.6268 33 25.8253 35.2656 24.4559 37.4728C24.1734 37.9281 24.0054 38.4174 24.0001 38.9282C23.9948 39.4437 24.1563 39.9054 24.4118 40.2974C24.8975 41.0427 25.7334 41.5576 26.5554 41.9174ZM26 38.9487C26.0008 38.8757 26.0237 38.7394 26.1554 38.5272C27.2775 36.7185 29.5157 35 32 35C34.4843 35 36.7225 36.7185 37.8446 38.5272C37.9763 38.7394 37.9992 38.8757 38 38.9487C38.0007 39.017 37.9831 39.0973 37.9126 39.2055C37.7465 39.4605 37.3429 39.7787 36.6427 40.0852C35.2726 40.6848 33.3268 41 32 41C30.6732 41 28.7274 40.6848 27.3573 40.0852C26.6571 39.7787 26.2535 39.4605 26.0874 39.2055C26.0169 39.0973 25.9993 39.017 26 38.9487Z" fill="black"/>
<path d="M41 23C41 22.4477 40.5523 22 40 22C39.4477 22 39 22.4477 39 23V24H38C37.4477 24 37 24.4477 37 25C37 25.5523 37.4477 26 38 26H39V27C39 27.5523 39.4477 28 40 28C40.5523 28 41 27.5523 41 27V26H42C42.5523 26 43 25.5523 43 25C43 24.4477 42.5523 24 42 24H41V23Z" fill="black"/>
<path d="M81 23C81 22.4477 80.5523 22 80 22C79.4477 22 79 22.4477 79 23V24H78C77.4477 24 77 24.4477 77 25C77 25.5523 77.4477 26 78 26H79V27C79 27.5523 79.4477 28 80 28C80.5523 28 81 27.5523 81 27V26H82C82.5523 26 83 25.5523 83 25C83 24.4477 82.5523 24 82 24H81V23Z" fill="black"/>
<path d="M76 27C76 29.2091 74.2091 31 72 31C69.7909 31 68 29.2091 68 27C68 24.7909 69.7909 23 72 23C74.2091 23 76 24.7909 76 27Z" fill="black"/>
<path d="M72 42C69.1327 42 63.6491 40.6701 65.3057 38C66.5514 35.9921 69.0712 34 72 34C74.9288 34 77.4486 35.9921 78.6943 38C80.3509 40.6701 74.8673 42 72 42Z" fill="black"/>
</svg>
