<svg width="104" height="64" viewBox="0 0 104 64" fill="none" xmlns="http://www.w3.org/2000/svg">
<g clip-path="url(#clip0_8791_25806)">
<path fill-rule="evenodd" clip-rule="evenodd" d="M32 23C29.2386 23 27 25.2386 27 28C27 30.7614 29.2386 33 32 33C34.7614 33 37 30.7614 37 28C37 25.2386 34.7614 23 32 23ZM29 28C29 26.3431 30.3431 25 32 25C33.6569 25 35 26.3431 35 28C35 29.6569 33.6569 31 32 31C30.3431 31 29 29.6569 29 28Z" fill="black"/>
<path fill-rule="evenodd" clip-rule="evenodd" d="M44 32C44 38.6274 38.6274 44 32 44L31.984 44C25.364 43.9914 20 38.6221 20 32C20 25.3726 25.3726 20 32 20C38.6274 20 44 25.3726 44 32ZM22 32C22 26.4772 26.4772 22 32 22C37.5228 22 42 26.4772 42 32C42 34.387 41.1637 36.5786 39.7681 38.2979C39.7269 38.2032 39.6801 38.1084 39.6274 38.0136C38.2713 35.5774 35.4517 33 31.9969 33C28.5422 33 25.7226 35.5774 24.3665 38.0136C24.3146 38.1068 24.2686 38.2001 24.2281 38.2932C22.8348 36.5747 22 34.3848 22 32ZM27.4684 40.8306C28.8284 41.5567 30.7092 41.9985 31.9904 42L31.9969 42C33.2824 42 35.1736 41.5661 36.5369 40.8442C37.2239 40.4804 37.6644 40.1019 37.8687 39.7742C38.028 39.5187 38.0546 39.3003 37.8799 38.9864C36.7212 36.9048 34.4543 35 31.9969 35C29.5396 35 27.2727 36.9048 26.114 38.9864C25.9484 39.2839 25.9707 39.4959 26.1331 39.7546C26.3396 40.0836 26.7822 40.4642 27.4684 40.8306Z" fill="black"/>
</g>
<path fill-rule="evenodd" clip-rule="evenodd" d="M83 32C83 38.0751 78.0751 43 72 43C65.9249 43 61 38.0751 61 32C61 25.9249 65.9249 21 72 21C78.0751 21 83 25.9249 83 32ZM71.9969 41.5C69.103 41.5 63.8112 39.5674 65.2403 37C66.4976 34.7411 69.0409 32.5 71.9969 32.5C74.953 32.5 77.4962 34.7411 78.7536 37C80.2053 39.6079 74.8909 41.5 71.9969 41.5ZM72 32C74.2091 32 76 30.2091 76 28C76 25.7909 74.2091 24 72 24C69.7909 24 68 25.7909 68 28C68 30.2091 69.7909 32 72 32Z" fill="black"/>
<defs>
<clipPath id="clip0_8791_25806">
<rect width="24" height="24" fill="white" transform="translate(20 20)"/>
</clipPath>
</defs>
</svg>
