<svg width="104" height="64" viewBox="0 0 104 64" fill="none" xmlns="http://www.w3.org/2000/svg">
<path fill-rule="evenodd" clip-rule="evenodd" d="M33.9992 23C30.6855 23 27.9992 25.6863 27.9992 29C27.9992 32.3137 30.6855 35 33.9992 35C37.3129 35 39.9992 32.3137 39.9992 29C39.9992 25.6863 37.3129 23 33.9992 23ZM29.9992 29C29.9992 26.7909 31.79 25 33.9992 25C36.2083 25 37.9992 26.7909 37.9992 29C37.9992 31.2091 36.2083 33 33.9992 33C31.79 33 29.9992 31.2091 29.9992 29Z" fill="black"/>
<path d="M28.1546 40.5272C27.8634 40.9965 27.2469 41.1409 26.7776 40.8497C26.3083 40.5586 26.1639 39.9421 26.4551 39.4728C27.8245 37.2656 30.626 35 33.9992 35C37.3724 35 40.1739 37.2656 41.5433 39.4728C41.8344 39.9421 41.69 40.5586 41.2207 40.8497C40.7514 41.1409 40.1349 40.9965 39.8438 40.5272C38.7216 38.7185 36.4835 37 33.9992 37C31.5148 37 29.2767 38.7185 28.1546 40.5272Z" fill="black"/>
<path d="M27.897 26.5597C28.1402 27.0556 27.9353 27.6547 27.4394 27.8979C26.5308 28.3434 25.9992 29.1518 25.9992 30C25.9992 30.8482 26.5308 31.6566 27.4394 32.1021C27.9353 32.3453 28.1402 32.9444 27.897 33.4403C27.6539 33.9362 27.0547 34.141 26.5589 33.8979C25.0821 33.1737 23.9992 31.7335 23.9992 30C23.9992 28.2665 25.0821 26.8263 26.5589 26.1021C27.0547 25.859 27.6539 26.0638 27.897 26.5597Z" fill="black"/>
<path d="M24.1546 40.5272C23.8634 40.9965 23.2469 41.1409 22.7776 40.8497C22.3083 40.5586 22.1639 39.9421 22.4551 39.4728C23.0342 38.5394 23.9607 37.7604 24.9944 37.1559C25.4712 36.8772 26.0836 37.0377 26.3624 37.5144C26.6412 37.9912 26.4807 38.6037 26.004 38.8824C25.1402 39.3875 24.5048 39.9627 24.1546 40.5272Z" fill="black"/>
<path d="M73.9992 34C76.7606 34 78.9992 31.7614 78.9992 29C78.9992 26.2386 76.7606 24 73.9992 24C71.2377 24 68.9992 26.2386 68.9992 29C68.9992 31.7614 71.2377 34 73.9992 34Z" fill="black"/>
<path d="M68.1546 40.5272C67.8634 40.9965 67.2469 41.1409 66.7776 40.8497C66.3083 40.5586 66.1639 39.9421 66.4551 39.4728C67.8245 37.2656 70.626 35 73.9992 35C77.3724 35 80.1739 37.2656 81.5433 39.4728C81.8344 39.9421 81.69 40.5586 81.2207 40.8497C80.7514 41.1409 80.1349 40.9965 79.8438 40.5272C78.7216 38.7185 76.4835 37 73.9992 37C71.5148 37 69.2767 38.7185 68.1546 40.5272Z" fill="black"/>
<path d="M67.897 26.5597C68.1402 27.0556 67.9353 27.6547 67.4394 27.8979C66.5308 28.3434 65.9992 29.1518 65.9992 30C65.9992 30.8482 66.5308 31.6566 67.4394 32.1021C67.9353 32.3453 68.1402 32.9444 67.897 33.4403C67.6539 33.9362 67.0547 34.141 66.5589 33.8979C65.0821 33.1737 63.9992 31.7335 63.9992 30C63.9992 28.2665 65.0821 26.8263 66.5589 26.1021C67.0547 25.859 67.6539 26.0638 67.897 26.5597Z" fill="black"/>
<path d="M64.1546 40.5272C63.8634 40.9965 63.2469 41.1409 62.7776 40.8497C62.3083 40.5586 62.1639 39.9421 62.4551 39.4728C63.0342 38.5394 63.9607 37.7604 64.9944 37.1559C65.4712 36.8772 66.0836 37.0377 66.3624 37.5144C66.6412 37.9912 66.4807 38.6037 66.004 38.8824C65.1402 39.3875 64.5048 39.9627 64.1546 40.5272Z" fill="black"/>
</svg>
