<svg width="104" height="64" viewBox="0 0 104 64" fill="none" xmlns="http://www.w3.org/2000/svg">
<path fill-rule="evenodd" clip-rule="evenodd" d="M27 27C27 24.2386 29.2386 22 32 22C34.7614 22 37 24.2386 37 27C37 29.7614 34.7614 32 32 32C29.2386 32 27 29.7614 27 27ZM32 24C30.3431 24 29 25.3431 29 27C29 28.6569 30.3431 30 32 30C33.6569 30 35 28.6569 35 27C35 25.3431 33.6569 24 32 24Z" fill="black"/>
<path fill-rule="evenodd" clip-rule="evenodd" d="M26.5554 41.9174C28.2298 42.6502 30.4595 43 32 43C33.5405 43 35.7702 42.6502 37.4446 41.9174C38.2666 41.5576 39.1025 41.0427 39.5882 40.2974C39.8437 39.9054 40.0052 39.4437 39.9999 38.9282C39.9946 38.4174 39.8266 37.9281 39.5441 37.4728C38.1747 35.2656 35.3732 33 32 33C28.6268 33 25.8253 35.2656 24.4559 37.4728C24.1734 37.9281 24.0054 38.4174 24.0001 38.9282C23.9948 39.4437 24.1563 39.9054 24.4118 40.2974C24.8975 41.0427 25.7334 41.5576 26.5554 41.9174ZM26 38.9487C26.0008 38.8757 26.0237 38.7394 26.1554 38.5272C27.2775 36.7185 29.5157 35 32 35C34.4843 35 36.7225 36.7185 37.8446 38.5272C37.9763 38.7394 37.9992 38.8757 38 38.9487C38.0007 39.017 37.9831 39.0973 37.9126 39.2055C37.7465 39.4605 37.3429 39.7787 36.6427 40.0852C35.2726 40.6848 33.3268 41 32 41C30.6732 41 28.7274 40.6848 27.3573 40.0852C26.6571 39.7787 26.2535 39.4605 26.0874 39.2055C26.0169 39.0973 25.9993 39.017 26 38.9487Z" fill="black"/>
<path d="M41.4142 25.0001L42.1213 24.293C42.5118 23.9024 42.5118 23.2693 42.1213 22.8787C41.7308 22.4882 41.0976 22.4882 40.7071 22.8787L40 23.5858L39.2929 22.8787C38.9024 22.4882 38.2692 22.4882 37.8787 22.8787C37.4882 23.2693 37.4882 23.9024 37.8787 24.293L38.5858 25.0001L37.8787 25.7072C37.4882 26.0977 37.4882 26.7309 37.8787 27.1214C38.2692 27.5119 38.9024 27.5119 39.2929 27.1214L40 26.4143L40.7071 27.1214C41.0976 27.5119 41.7308 27.5119 42.1213 27.1214C42.5118 26.7309 42.5118 26.0977 42.1213 25.7072L41.4142 25.0001Z" fill="black"/>
<path d="M81.4142 25.0002L82.1213 24.293C82.5118 23.9025 82.5118 23.2694 82.1213 22.8788C81.7308 22.4883 81.0976 22.4883 80.7071 22.8788L80 23.5859L79.2929 22.8788C78.9024 22.4883 78.2692 22.4883 77.8787 22.8788C77.4882 23.2694 77.4882 23.9025 77.8787 24.293L78.5858 25.0002L77.8787 25.7073C77.4882 26.0978 77.4882 26.7309 77.8787 27.1215C78.2692 27.512 78.9024 27.512 79.2929 27.1215L80 26.4144L80.7071 27.1215C81.0976 27.512 81.7308 27.512 82.1213 27.1215C82.5118 26.7309 82.5118 26.0978 82.1213 25.7073L81.4142 25.0002Z" fill="black"/>
<path d="M76 27.0001C76 29.2092 74.2091 31.0001 72 31.0001C69.7909 31.0001 68 29.2092 68 27.0001C68 24.791 69.7909 23.0001 72 23.0001C74.2091 23.0001 76 24.791 76 27.0001Z" fill="black"/>
<path d="M72 42.0001C69.1327 42.0001 63.6491 40.6702 65.3057 38.0001C66.5514 35.9922 69.0712 34.0001 72 34.0001C74.9288 34.0001 77.4486 35.9922 78.6943 38.0001C80.3509 40.6702 74.8673 42.0001 72 42.0001Z" fill="black"/>
</svg>
