<svg width="104" height="64" viewBox="0 0 104 64" fill="none" xmlns="http://www.w3.org/2000/svg">
<path fill-rule="evenodd" clip-rule="evenodd" d="M32 22C29.2386 22 27 24.2386 27 27C27 29.7614 29.2386 32 32 32C34.7614 32 37 29.7614 37 27C37 24.2386 34.7614 22 32 22ZM29 27C29 25.3431 30.3431 24 32 24C33.6569 24 35 25.3431 35 27C35 28.6569 33.6569 30 32 30C30.3431 30 29 28.6569 29 27Z" fill="black"/>
<path fill-rule="evenodd" clip-rule="evenodd" d="M32 43C30.4595 43 28.2298 42.6502 26.5554 41.9174C25.7334 41.5576 24.8975 41.0427 24.4118 40.2974C24.1563 39.9054 23.9948 39.4437 24.0001 38.9282C24.0054 38.4174 24.1734 37.9281 24.4559 37.4728C25.8253 35.2656 28.6268 33 32 33C35.3732 33 38.1747 35.2656 39.5441 37.4728C39.8266 37.9281 39.9946 38.4174 39.9999 38.9282C40.0052 39.4437 39.8437 39.9054 39.5882 40.2974C39.1025 41.0427 38.2666 41.5576 37.4446 41.9174C35.7702 42.6502 33.5405 43 32 43ZM26.1554 38.5272C26.0237 38.7394 26.0008 38.8757 26 38.9487C25.9993 39.017 26.0169 39.0973 26.0874 39.2055C26.2535 39.4605 26.6571 39.7787 27.3573 40.0852C28.7274 40.6848 30.6732 41 32 41C33.3268 41 35.2726 40.6848 36.6427 40.0852C37.3429 39.7787 37.7465 39.4605 37.9126 39.2055C37.9831 39.0973 38.0007 39.017 38 38.9487C37.9992 38.8757 37.9763 38.7394 37.8446 38.5272C36.7225 36.7185 34.4843 35 32 35C29.5157 35 27.2775 36.7185 26.1554 38.5272Z" fill="black"/>
<path d="M72 31C74.2091 31 76 29.2091 76 27C76 24.7909 74.2091 23 72 23C69.7909 23 68 24.7909 68 27C68 29.2091 69.7909 31 72 31Z" fill="black"/>
<path d="M65.3057 38C63.6491 40.6701 69.1327 42 72 42C74.8673 42 80.3509 40.6701 78.6943 38C77.4486 35.9921 74.9288 34 72 34C69.0712 34 66.5514 35.9921 65.3057 38Z" fill="black"/>
</svg>
