<svg width="104" height="64" viewBox="0 0 104 64" fill="none" xmlns="http://www.w3.org/2000/svg">
<path fill-rule="evenodd" clip-rule="evenodd" d="M32.0002 25C29.7911 25 28.0002 26.7909 28.0002 29C28.0002 31.2091 29.7911 33 32.0002 33C34.2094 33 36.0002 31.2091 36.0002 29C36.0002 26.7909 34.2094 25 32.0002 25ZM30.0002 29C30.0002 27.8954 30.8957 27 32.0002 27C33.1048 27 34.0002 27.8954 34.0002 29C34.0002 30.1046 33.1048 31 32.0002 31C30.8957 31 30.0002 30.1046 30.0002 29Z" fill="black"/>
<path fill-rule="evenodd" clip-rule="evenodd" d="M32.0002 42C30.8633 42 29.2241 41.7313 27.9801 41.1596C27.3698 40.8792 26.715 40.4632 26.3288 39.8409C26.1249 39.5124 25.9961 39.1251 26.0003 38.6941C26.0045 38.2672 26.1384 37.8623 26.3576 37.4913C27.3601 35.7947 29.4398 34 32.0002 34C34.5607 34 36.6404 35.7947 37.6428 37.4913C37.8621 37.8623 37.9959 38.2672 38.0001 38.6941C38.0043 39.1251 37.8755 39.5124 37.6716 39.8409C37.2854 40.4632 36.6306 40.8792 36.0204 41.1596C34.7763 41.7313 33.1371 42 32.0002 42ZM28.0795 38.5087C28.0029 38.6383 28.0003 38.7027 28.0002 38.7136C28.0001 38.7209 27.9999 38.7407 28.0281 38.7862C28.1075 38.9142 28.3381 39.1231 28.8152 39.3423C29.7458 39.77 31.0891 40 32.0002 40C32.9114 40 34.2546 39.77 35.1852 39.3423C35.6623 39.1231 35.8929 38.9142 35.9723 38.7862C36.0005 38.7407 36.0003 38.7214 36.0002 38.7141C36.0001 38.7032 35.9976 38.6383 35.921 38.5087C35.1438 37.1934 33.6237 36 32.0002 36C30.3767 36 28.8567 37.1934 28.0795 38.5087Z" fill="black"/>
<path fill-rule="evenodd" clip-rule="evenodd" d="M22.5002 32C22.5002 30.3431 23.8434 29 25.5002 29C27.1571 29 28.5002 30.3431 28.5002 32C28.5002 33.6569 27.1571 35 25.5002 35C23.8434 35 22.5002 33.6569 22.5002 32ZM25.5002 31C24.9479 31 24.5002 31.4477 24.5002 32C24.5002 32.5523 24.9479 33 25.5002 33C26.0525 33 26.5002 32.5523 26.5002 32C26.5002 31.4477 26.0525 31 25.5002 31Z" fill="black"/>
<path d="M22.896 39.4446C22.6504 39.9393 22.0503 40.1413 21.5556 39.8957C21.0609 39.6502 20.8589 39.0501 21.1045 38.5554C21.4719 37.8152 22.0279 37.0721 22.7275 36.5034C23.4273 35.9346 24.324 35.5 25.3474 35.5C25.8997 35.5 26.3474 35.9477 26.3474 36.5C26.3474 37.0523 25.8997 37.5 25.3474 37.5C24.9064 37.5 24.441 37.688 23.989 38.0554C23.5368 38.423 23.1515 38.9298 22.896 39.4446Z" fill="black"/>
<path fill-rule="evenodd" clip-rule="evenodd" d="M35.8103 32C35.8103 30.3431 37.1534 29 38.8103 29C40.4671 29 41.8103 30.3431 41.8103 32C41.8103 33.6569 40.4671 35 38.8103 35C37.1534 35 35.8103 33.6569 35.8103 32ZM38.8103 31C38.258 31 37.8103 31.4477 37.8103 32C37.8103 32.5523 38.258 33 38.8103 33C39.3626 33 39.8103 32.5523 39.8103 32C39.8103 31.4477 39.3626 31 38.8103 31Z" fill="black"/>
<path d="M42.9004 38.5554C43.1459 39.0501 42.9439 39.6502 42.4492 39.8957C41.9545 40.1413 41.3544 39.9393 41.1089 39.4446C40.8534 38.9298 40.4681 38.423 40.0158 38.0554C39.5638 37.688 39.0984 37.5 38.6574 37.5C38.1052 37.5 37.6574 37.0523 37.6574 36.5C37.6574 35.9477 38.1052 35.5 38.6574 35.5C39.6809 35.5 40.5776 35.9346 41.2774 36.5034C41.9769 37.0721 42.533 37.8152 42.9004 38.5554Z" fill="black"/>
<path d="M72.0002 33C74.2094 33 76.0002 31.2091 76.0002 29C76.0002 26.7909 74.2094 25 72.0002 25C69.7911 25 68.0002 26.7909 68.0002 29C68.0002 31.2091 69.7911 33 72.0002 33Z" fill="black"/>
<path d="M66.2622 38C64.8423 40.6701 69.5426 42 72.0002 42C74.4579 42 79.1582 40.6701 77.7382 38C76.6704 35.9921 74.5106 34 72.0002 34C69.4898 34 67.33 35.9921 66.2622 38Z" fill="black"/>
<path d="M67.5002 32C67.5002 33.1046 66.6048 34 65.5002 34C64.3957 34 63.5002 33.1046 63.5002 32C63.5002 30.8954 64.3957 30 65.5002 30C66.6048 30 67.5002 30.8954 67.5002 32Z" fill="black"/>
<path d="M62.896 39.4446C62.6504 39.9393 62.0503 40.1413 61.5556 39.8957C61.0609 39.6502 60.8589 39.0501 61.1045 38.5554C61.4719 37.8152 62.0279 37.0721 62.7275 36.5034C63.4273 35.9346 64.324 35.5 65.3474 35.5C65.8997 35.5 66.3474 35.9477 66.3474 36.5C66.3474 37.0523 65.8997 37.5 65.3474 37.5C64.9064 37.5 64.441 37.688 63.989 38.0554C63.5368 38.423 63.1515 38.9298 62.896 39.4446Z" fill="black"/>
<path d="M80.8103 32C80.8103 33.1046 79.9149 34 78.8103 34C77.7057 34 76.8103 33.1046 76.8103 32C76.8103 30.8954 77.7057 30 78.8103 30C79.9149 30 80.8103 30.8954 80.8103 32Z" fill="black"/>
<path d="M82.9004 38.5554C83.1459 39.0501 82.9439 39.6502 82.4492 39.8957C81.9545 40.1413 81.3544 39.9393 81.1089 39.4446C80.8534 38.9298 80.4681 38.423 80.0158 38.0554C79.5638 37.688 79.0984 37.5 78.6574 37.5C78.1052 37.5 77.6574 37.0523 77.6574 36.5C77.6574 35.9477 78.1052 35.5 78.6574 35.5C79.6809 35.5 80.5776 35.9346 81.2774 36.5034C81.9769 37.0721 82.533 37.8152 82.9004 38.5554Z" fill="black"/>
</svg>
