<svg width="104" height="64" viewBox="0 0 104 64" fill="none" xmlns="http://www.w3.org/2000/svg">
<path d="M36.4412 29.9027C36.8033 29.5418 36.7944 28.9654 36.4213 28.6152C36.0482 28.265 35.4522 28.2736 35.0901 28.6344L30.2835 33.4241L28.9099 32.0553C28.5478 31.6945 27.9518 31.6859 27.5787 32.0361C27.2056 32.3863 27.1967 32.9627 27.5588 33.3236L29.608 35.3656C29.7853 35.5422 30.029 35.6419 30.2835 35.6419C30.5381 35.6419 30.7818 35.5422 30.9591 35.3656L36.4412 29.9027Z" fill="black"/>
<path fill-rule="evenodd" clip-rule="evenodd" d="M34.3552 22.9215C33.042 21.6928 30.958 21.6928 29.6448 22.9215C29.3112 23.2336 28.8475 23.3793 28.388 23.3164C26.5789 23.069 24.8928 24.2537 24.5771 25.9942C24.497 26.4363 24.2103 26.8179 23.8004 27.0282C22.1864 27.8564 21.5424 29.7734 22.3448 31.361C22.5486 31.7642 22.5486 32.2358 22.3448 32.639C21.5424 34.2266 22.1864 36.1436 23.8004 36.9718C24.2103 37.1821 24.497 37.5637 24.5771 38.0058C24.8928 39.7463 26.5789 40.931 28.388 40.6836C28.8475 40.6207 29.3112 40.7664 29.6448 41.0785C30.958 42.3072 33.042 42.3072 34.3552 41.0785C34.6888 40.7664 35.1525 40.6207 35.612 40.6836C37.4211 40.931 39.1072 39.7463 39.4229 38.0058C39.503 37.5637 39.7897 37.1821 40.1996 36.9718C41.8136 36.1436 42.4576 34.2266 41.6552 32.639C41.4514 32.2358 41.4514 31.7642 41.6552 31.361C42.4576 29.7734 41.8136 27.8564 40.1996 27.0282C39.7897 26.8179 39.503 26.4363 39.4229 25.9942C39.1072 24.2537 37.4211 23.069 35.612 23.3164C35.1525 23.3793 34.6888 23.2336 34.3552 22.9215ZM30.9539 24.2303C31.5372 23.6845 32.4628 23.6845 33.0461 24.2303C33.797 24.9329 34.8412 25.261 35.8757 25.1195C36.6793 25.0095 37.4281 25.5358 37.5684 26.3088C37.7489 27.3041 38.3942 28.1632 39.3172 28.6368C40.034 29.0047 40.3201 29.8561 39.9637 30.5612C39.5048 31.4691 39.5048 32.5309 39.9637 33.4388C40.3201 34.1439 40.034 34.9953 39.3172 35.3632C38.3942 35.8368 37.7489 36.6959 37.5684 37.6912C37.4281 38.4642 36.6793 38.9905 35.8757 38.8805C34.8412 38.739 33.797 39.0671 33.0461 39.7697C32.4628 40.3155 31.5372 40.3155 30.9539 39.7697C30.203 39.0671 29.1588 38.739 28.1243 38.8805C27.3207 38.9905 26.5719 38.4642 26.4316 37.6912C26.2511 36.6959 25.6058 35.8368 24.6828 35.3632C23.966 34.9953 23.6799 34.1439 24.0363 33.4388C24.4952 32.5309 24.4952 31.4691 24.0363 30.5612C23.6799 29.8561 23.966 29.0047 24.6828 28.6368C25.6058 28.1632 26.2511 27.3041 26.4316 26.3088C26.5719 25.5358 27.3207 25.0095 28.1243 25.1195C29.1588 25.261 30.203 24.9329 30.9539 24.2303Z" fill="black"/>
<path fill-rule="evenodd" clip-rule="evenodd" d="M73.8057 22.7477C72.7985 21.7732 71.1999 21.7732 70.1927 22.7477C69.6167 23.3049 68.8158 23.5651 68.0223 23.4529C66.6347 23.2566 65.3414 24.1962 65.0993 25.5765C64.9608 26.3659 64.4658 27.0472 63.7579 27.4228C62.5199 28.0796 62.0259 29.5999 62.6414 30.859C62.9934 31.579 62.9934 32.4211 62.6414 33.1411C62.0259 34.4001 62.5199 35.9204 63.7579 36.5773C64.4658 36.9529 64.9608 37.6342 65.0993 38.4235C65.3414 39.8039 66.6347 40.7435 68.0223 40.5472C68.8158 40.435 69.6167 40.6952 70.1927 41.2524C71.1999 42.2268 72.7985 42.2268 73.8057 41.2524C74.3817 40.6952 75.1826 40.435 75.9761 40.5472C77.3637 40.7435 78.657 39.8039 78.8991 38.4235C79.0376 37.6342 79.5325 36.9529 80.2405 36.5773C81.4785 35.9204 81.9724 34.4001 81.357 33.1411C81.005 32.4211 81.005 31.579 81.357 30.859C81.9724 29.5999 81.4785 28.0796 80.2405 27.4228C79.5325 27.0472 79.0376 26.3659 78.8991 25.5765C78.657 24.1962 77.3637 23.2566 75.9761 23.4529C75.1826 23.5651 74.3817 23.3049 73.8057 22.7477ZM76.7168 29.6965C77.1014 29.3002 77.092 28.6671 76.6957 28.2824C76.2993 27.8978 75.6662 27.9073 75.2816 28.3036L70.1759 33.5642L68.7168 32.0608C68.3321 31.6645 67.699 31.655 67.3027 32.0397C66.9064 32.4243 66.8969 33.0574 67.2816 33.4537L69.4583 35.6965C69.6466 35.8905 69.9055 36 70.1759 36C70.4463 36 70.7052 35.8905 70.8935 35.6965L76.7168 29.6965Z" fill="black"/>
</svg>
