<svg width="104" height="64" viewBox="0 0 104 64" fill="none" xmlns="http://www.w3.org/2000/svg">
<path d="M42.7071 21.2929C43.0976 21.6834 43.0976 22.3166 42.7071 22.7071L22.7071 42.7071C22.3166 43.0976 21.6834 43.0976 21.2929 42.7071C20.9024 42.3166 20.9024 41.6834 21.2929 41.2929L41.2929 21.2929C41.6834 20.9024 42.3166 20.9024 42.7071 21.2929Z" fill="black"/>
<path d="M25.6119 30.6497C25.4515 30.1687 25.074 29.7912 24.5929 29.6308C24.1033 29.4676 24.1033 28.7751 24.5929 28.6118C25.074 28.4515 25.4515 28.074 25.6119 27.5929C25.7751 27.1033 26.4676 27.1033 26.6308 27.5929C26.7912 28.074 27.1687 28.4515 27.6498 28.6118C28.1394 28.7751 28.1394 29.4676 27.6498 29.6308C27.1687 29.7912 26.7912 30.1687 26.6308 30.6497C26.4676 31.1394 25.7751 31.1394 25.6119 30.6497Z" fill="black"/>
<path d="M35 24C35.6328 24 36.2312 24.1469 36.7631 24.4085L35.1649 26.0067C35.1105 26.0023 35.0555 26 35 26H25C23.8954 26 23 26.8954 23 28V36C23 36.5959 23.2606 37.131 23.6742 37.4974L22.2587 38.9129C21.4838 38.1834 21 37.1482 21 36V28C21 25.7909 22.7909 24 25 24H35Z" fill="black"/>
<path fill-rule="evenodd" clip-rule="evenodd" d="M35 38H28.8284L26.8284 40H35C36.8925 40 38.478 38.6858 38.8936 36.9202L39.8 37.6C41.1185 38.5889 43 37.6481 43 36V28C43 26.7521 41.9212 25.9097 40.8249 26.0035L37 29.8284V36C37 37.1046 36.1046 38 35 38ZM39 34.5L41 36V28L39 29.5V34.5Z" fill="black"/>
<path d="M82.7071 22.7071C83.0976 22.3166 83.0976 21.6834 82.7071 21.2929C82.3166 20.9024 81.6834 20.9024 81.2929 21.2929L61.2929 41.2929C60.9024 41.6834 60.9024 42.3166 61.2929 42.7071C61.6834 43.0976 62.3166 43.0976 62.7071 42.7071L82.7071 22.7071Z" fill="black"/>
<path fill-rule="evenodd" clip-rule="evenodd" d="M76.0006 25.1709C75.6877 25.0602 75.3509 25 75 25H65C63.3431 25 62 26.3431 62 28V36C62 36.8721 62.3721 37.6572 62.9662 38.2054L76.0006 25.1709ZM65.6119 30.6497C65.4515 30.1687 65.074 29.7912 64.5929 29.6308C64.1033 29.4676 64.1033 28.7751 64.5929 28.6118C65.074 28.4515 65.4515 28.074 65.6119 27.5929C65.7751 27.1033 66.4676 27.1033 66.6308 27.5929C66.7912 28.074 67.1687 28.4515 67.6498 28.6118C68.1394 28.7751 68.1394 29.4676 67.6498 29.6308C67.1687 29.7912 66.7912 30.1687 66.6308 30.6497C66.4676 31.1394 65.7751 31.1394 65.6119 30.6497Z" fill="black"/>
<path d="M67.8284 39H75C76.6569 39 78 37.6569 78 36V35L80.4 36.8C81.0592 37.2944 82 36.824 82 36V28C82 27.176 81.0592 26.7056 80.4 27.2L78 29V28.8284L67.8284 39Z" fill="black"/>
</svg>
