<svg width="104" height="64" viewBox="0 0 104 64" fill="none" xmlns="http://www.w3.org/2000/svg">
<path d="M24.5929 29.6308C25.074 29.7912 25.4515 30.1687 25.6119 30.6497C25.7751 31.1394 26.4676 31.1394 26.6308 30.6497C26.7912 30.1687 27.1687 29.7912 27.6498 29.6308C28.1394 29.4676 28.1394 28.7751 27.6498 28.6118C27.1687 28.4515 26.7912 28.074 26.6308 27.5929C26.4676 27.1033 25.7751 27.1033 25.6119 27.5929C25.4515 28.074 25.074 28.4515 24.5929 28.6118C24.1033 28.7751 24.1033 29.4676 24.5929 29.6308Z" fill="black"/>
<path fill-rule="evenodd" clip-rule="evenodd" d="M25 24C22.7909 24 21 25.7909 21 28V36C21 38.2091 22.7909 40 25 40H35C36.8925 40 38.478 38.6858 38.8936 36.9202L39.8 37.6C41.1185 38.5889 43 37.6481 43 36V28C43 26.3519 41.1185 25.4111 39.8 26.4L38.8936 27.0798C38.478 25.3142 36.8925 24 35 24H25ZM41 36L39 34.5V29.5L41 28V36ZM23 28C23 26.8954 23.8954 26 25 26H35C36.1046 26 37 26.8954 37 28V36C37 37.1046 36.1046 38 35 38H25C23.8954 38 23 37.1046 23 36V28Z" fill="black"/>
<path fill-rule="evenodd" clip-rule="evenodd" d="M75 25H65C63.3431 25 62 26.3431 62 28V36C62 37.6569 63.3431 39 65 39H75C76.6569 39 78 37.6569 78 36V35L80.4 36.8C81.0592 37.2944 82 36.824 82 36V28C82 27.176 81.0592 26.7056 80.4 27.2L78 29V28C78 26.3431 76.6569 25 75 25ZM64.5929 29.6308C65.074 29.7912 65.4515 30.1687 65.6119 30.6497C65.7751 31.1394 66.4676 31.1394 66.6308 30.6497C66.7912 30.1687 67.1687 29.7912 67.6498 29.6308C68.1394 29.4676 68.1394 28.7751 67.6498 28.6118C67.1687 28.4515 66.7912 28.074 66.6308 27.5929C66.4676 27.1033 65.7751 27.1033 65.6119 27.5929C65.4515 28.074 65.074 28.4515 64.5929 28.6118C64.1033 28.7751 64.1033 29.4676 64.5929 29.6308Z" fill="black"/>
</svg>
