<svg width="104" height="64" viewBox="0 0 104 64" fill="none" xmlns="http://www.w3.org/2000/svg">
<path d="M30.75 23C30.75 22.4477 31.1977 22 31.75 22C32.3023 22 32.75 22.4477 32.75 23V41C32.75 41.5523 32.3023 42 31.75 42C31.1977 42 30.75 41.5523 30.75 41V23Z" fill="black"/>
<path d="M39.75 23C40.3023 23 40.75 23.4477 40.75 24V38C40.75 38.5523 40.3023 39 39.75 39C39.1977 39 38.75 38.5523 38.75 38L38.75 24C38.75 23.4477 39.1977 23 39.75 23Z" fill="black"/>
<path d="M24.25 28C23.6977 28 23.25 28.4477 23.25 29V33C23.25 33.5523 23.6977 34 24.25 34C24.8023 34 25.25 33.5523 25.25 33V29C25.25 28.4477 24.8023 28 24.25 28Z" fill="black"/>
<path d="M36.75 28C36.75 27.4477 36.3023 27 35.75 27C35.1977 27 34.75 27.4477 34.75 28V34C34.75 34.5523 35.1977 35 35.75 35C36.3023 35 36.75 34.5523 36.75 34V28Z" fill="black"/>
<path d="M27.75 24C27.1977 24 26.75 24.4477 26.75 25V37C26.75 37.5523 27.1977 38 27.75 38C28.3023 38 28.75 37.5523 28.75 37V25C28.75 24.4477 28.3023 24 27.75 24Z" fill="black"/>
<path d="M71.75 22C72.3023 22 72.75 22.4477 72.75 23V41C72.75 41.5523 72.3023 42 71.75 42C71.1977 42 70.75 41.5523 70.75 41V23C70.75 22.4477 71.1977 22 71.75 22ZM79.75 23C80.3023 23 80.75 23.4477 80.75 24V38C80.75 38.5523 80.3023 39 79.75 39C79.1977 39 78.75 38.5523 78.75 38V24C78.75 23.4477 79.1977 23 79.75 23ZM67.75 24C68.3023 24 68.75 24.4477 68.75 25V37C68.75 37.5523 68.3023 38 67.75 38C67.1977 38 66.75 37.5523 66.75 37V25C66.75 24.4477 67.1977 24 67.75 24ZM75.75 27C76.3023 27 76.75 27.4477 76.75 28V34C76.75 34.5523 76.3023 35 75.75 35C75.1977 35 74.75 34.5523 74.75 34V28C74.75 27.4477 75.1977 27 75.75 27ZM64.25 28C64.8023 28 65.25 28.4477 65.25 29V33C65.25 33.5523 64.8023 34 64.25 34C63.6977 34 63.25 33.5523 63.25 33V29C63.25 28.4477 63.6977 28 64.25 28Z" fill="black"/>
</svg>
