<svg width="104" height="64" viewBox="0 0 104 64" fill="none" xmlns="http://www.w3.org/2000/svg">
<path fill-rule="evenodd" clip-rule="evenodd" d="M36 23.8686C36 22.2712 34.2197 21.3184 32.8906 22.2045L29.0115 24.7906C28.763 24.9562 28.4806 25.0641 28.1849 25.1064L24.4343 25.6422C22.4637 25.9237 21 27.6114 21 29.602V34.3982C21 36.3888 22.4637 38.0765 24.4343 38.358L28.1849 38.8938C28.4806 38.936 28.763 39.0439 29.0115 39.2096L32.8906 41.7957C34.2197 42.6817 36 41.729 36 40.1316V23.8686ZM30.1209 26.4547L34 23.8686L34 40.1316L30.1209 37.5455C29.6239 37.2142 29.0591 36.9984 28.4678 36.9139L24.7172 36.3781C23.7319 36.2373 23 35.3935 23 34.3982V29.602C23 28.6067 23.7319 27.7628 24.7172 27.6221L28.4678 27.0863C29.0591 27.0018 29.6239 26.786 30.1209 26.4547Z" fill="black"/>
<path d="M37.161 33.3093C36.6414 33.4966 36.372 34.0695 36.5592 34.5891C36.7465 35.1087 37.3195 35.3781 37.839 35.1909C39.314 34.6593 40 33.2767 40 32.0001C40 30.7235 39.314 29.3408 37.839 28.8093C37.3195 28.6221 36.7465 28.8915 36.5592 29.411C36.372 29.9306 36.6414 30.5036 37.161 30.6909C37.686 30.8801 38 31.387 38 32.0001C38 32.6131 37.686 33.1201 37.161 33.3093Z" fill="black"/>
<path d="M64.5757 26.6321L68.3264 26.0963C68.7698 26.033 69.1935 25.8711 69.5662 25.6226L73.4453 23.0366C74.1099 22.5935 75 23.0699 75 23.8686V40.1316C75 40.9303 74.1099 41.4067 73.4453 40.9636L69.5662 38.3776C69.1935 38.1291 68.7698 37.9672 68.3264 37.9039L64.5757 37.3681C63.0978 37.1569 62 35.8912 62 34.3982V29.602C62 28.109 63.0978 26.8433 64.5757 26.6321Z" fill="black"/>
<path d="M77.161 33.3093C76.6414 33.4966 76.372 34.0696 76.5592 34.5891C76.7465 35.1087 77.3195 35.3781 77.839 35.1909C79.314 34.6594 80 33.2767 80 32.0001C80 30.7235 79.314 29.3409 77.839 28.8093C77.3195 28.6221 76.7465 28.8915 76.5592 29.4111C76.372 29.9306 76.6414 30.5036 77.161 30.6909C77.686 30.8801 78 31.3871 78 32.0001C78 32.6132 77.686 33.1201 77.161 33.3093Z" fill="black"/>
</svg>
