<svg width="104" height="64" viewBox="0 0 104 64" fill="none" xmlns="http://www.w3.org/2000/svg">
<path fill-rule="evenodd" clip-rule="evenodd" d="M32.8906 22.2045C34.2197 21.3184 36 22.2712 36 23.8686V40.1316C36 41.729 34.2197 42.6817 32.8906 41.7957L29.0115 39.2096C28.763 39.0439 28.4806 38.936 28.1849 38.8938L24.4343 38.358C22.4637 38.0765 21 36.3888 21 34.3982V29.602C21 27.6114 22.4637 25.9237 24.4343 25.6422L28.1849 25.1064C28.4806 25.0641 28.763 24.9562 29.0115 24.7906L32.8906 22.2045ZM34 23.8686L30.1209 26.4547C29.6239 26.786 29.0591 27.0018 28.4678 27.0863L24.7172 27.6221C23.7319 27.7628 23 28.6067 23 29.602V34.3982C23 35.3935 23.7319 36.2373 24.7172 36.3781L28.4678 36.9139C29.0591 36.9984 29.6239 37.2142 30.1209 37.5455L34 40.1316L34 23.8686Z" fill="black"/>
<path d="M36.5592 34.5891C36.372 34.0695 36.6414 33.4966 37.161 33.3093C37.686 33.1201 38 32.6131 38 32.0001C38 31.387 37.686 30.8801 37.161 30.6909C36.6414 30.5036 36.372 29.9306 36.5592 29.411C36.7465 28.8915 37.3195 28.6221 37.839 28.8093C39.314 29.3408 40 30.7235 40 32.0001C40 33.2767 39.314 34.6593 37.839 35.1909C37.3195 35.3781 36.7465 35.1087 36.5592 34.5891Z" fill="black"/>
<path d="M37.661 37.0593C37.1414 37.2466 36.872 37.8195 37.0592 38.3391C37.2465 38.8587 37.8195 39.1281 38.339 38.9409C41.4806 37.8087 43 34.8513 43 32.0001C43 29.1488 41.4806 26.1915 38.339 25.0593C37.8195 24.8721 37.2465 25.1415 37.0592 25.661C36.872 26.1806 37.1414 26.7536 37.661 26.9409C39.8527 27.7307 41 29.8124 41 32.0001C41 34.1878 39.8527 36.2694 37.661 37.0593Z" fill="black"/>
<path d="M68.3264 26.0963L64.5757 26.6321C63.0978 26.8433 62 28.109 62 29.602V34.3982C62 35.8912 63.0978 37.1569 64.5757 37.3681L68.3264 37.9039C68.7698 37.9672 69.1935 38.1291 69.5662 38.3776L73.4453 40.9636C74.1099 41.4067 75 40.9303 75 40.1316V23.8686C75 23.0699 74.1099 22.5935 73.4453 23.0366L69.5662 25.6226C69.1935 25.8711 68.7698 26.033 68.3264 26.0963Z" fill="black"/>
<path d="M76.5592 34.5891C76.372 34.0696 76.6414 33.4966 77.161 33.3093C77.686 33.1201 78 32.6132 78 32.0001C78 31.3871 77.686 30.8801 77.161 30.6909C76.6414 30.5036 76.372 29.9306 76.5592 29.4111C76.7465 28.8915 77.3195 28.6221 77.839 28.8093C79.314 29.3409 80 30.7235 80 32.0001C80 33.2767 79.314 34.6594 77.839 35.1909C77.3195 35.3781 76.7465 35.1087 76.5592 34.5891Z" fill="black"/>
<path d="M77.661 37.0593C77.1414 37.2466 76.872 37.8196 77.0592 38.3391C77.2465 38.8587 77.8195 39.1281 78.339 38.9409C81.4806 37.8087 83 34.8514 83 32.0001C83 29.1488 81.4806 26.1915 78.339 25.0593C77.8195 24.8721 77.2465 25.1415 77.0592 25.6611C76.872 26.1806 77.1414 26.7536 77.661 26.9409C79.8527 27.7307 81 29.8124 81 32.0001C81 34.1878 79.8527 36.2695 77.661 37.0593Z" fill="black"/>
</svg>
