<svg width="104" height="64" viewBox="0 0 104 64" fill="none" xmlns="http://www.w3.org/2000/svg">
<path fill-rule="evenodd" clip-rule="evenodd" d="M36 23.8686C36 22.2712 34.2197 21.3184 32.8906 22.2045L29.0115 24.7906C28.763 24.9562 28.4806 25.0641 28.1849 25.1064L24.4343 25.6422C22.4637 25.9237 21 27.6114 21 29.602V34.3982C21 36.3888 22.4637 38.0765 24.4343 38.358L28.1849 38.8938C28.4806 38.936 28.763 39.0439 29.0115 39.2096L32.8906 41.7957C34.2197 42.6817 36 41.729 36 40.1316V23.8686ZM30.1209 26.4547L34 23.8686L34 40.1316L30.1209 37.5455C29.6239 37.2142 29.0591 36.9984 28.4678 36.9139L24.7172 36.3781C23.7319 36.2373 23 35.3935 23 34.3982V29.602C23 28.6067 23.7319 27.7628 24.7172 27.6221L28.4678 27.0863C29.0591 27.0018 29.6239 26.786 30.1209 26.4547Z" fill="black"/>
<path d="M41.2426 31.8285L41.9497 31.1214C42.3402 30.7309 42.3402 30.0977 41.9497 29.7072C41.5592 29.3167 40.926 29.3167 40.5355 29.7072L39.8284 30.4143L39.1213 29.7072C38.7307 29.3167 38.0976 29.3167 37.707 29.7072C37.3165 30.0977 37.3165 30.7309 37.707 31.1214L38.4142 31.8285L37.707 32.5356C37.3165 32.9261 37.3165 33.5593 37.707 33.9498C38.0976 34.3404 38.7307 34.3404 39.1213 33.9498L39.8284 33.2427L40.5355 33.9498C40.926 34.3404 41.5592 34.3404 41.9497 33.9498C42.3402 33.5593 42.3402 32.9261 41.9497 32.5356L41.2426 31.8285Z" fill="black"/>
<path d="M64.5757 26.6321L68.3264 26.0963C68.7698 26.033 69.1935 25.8711 69.5662 25.6226L73.4453 23.0366C74.1099 22.5935 75 23.0699 75 23.8686V40.1316C75 40.9303 74.1099 41.4067 73.4453 40.9636L69.5662 38.3776C69.1935 38.1291 68.7698 37.9672 68.3264 37.9039L64.5757 37.3681C63.0978 37.1569 62 35.8912 62 34.3982V29.602C62 28.109 63.0978 26.8433 64.5757 26.6321Z" fill="black"/>
<path d="M81.2426 31.8285L81.9497 31.1214C82.3402 30.7309 82.3402 30.0977 81.9497 29.7072C81.5592 29.3167 80.926 29.3167 80.5355 29.7072L79.8284 30.4143L79.1213 29.7072C78.7307 29.3167 78.0976 29.3167 77.707 29.7072C77.3165 30.0977 77.3165 30.7309 77.707 31.1214L78.4142 31.8285L77.707 32.5356C77.3165 32.9262 77.3165 33.5593 77.707 33.9499C78.0976 34.3404 78.7307 34.3404 79.1213 33.9499L79.8284 33.2427L80.5355 33.9499C80.926 34.3404 81.5592 34.3404 81.9497 33.9499C82.3402 33.5593 82.3402 32.9262 81.9497 32.5356L81.2426 31.8285Z" fill="black"/>
</svg>
