<svg width="104" height="64" viewBox="0 0 104 64" fill="none" xmlns="http://www.w3.org/2000/svg">
<path d="M42.7071 22.7071C43.0976 22.3166 43.0976 21.6834 42.7071 21.2929C42.3166 20.9024 41.6834 20.9024 41.2929 21.2929L21.2929 41.2929C20.9024 41.6834 20.9024 42.3166 21.2929 42.7071C21.6834 43.0976 22.3166 43.0976 22.7071 42.7071L42.7071 22.7071Z" fill="black"/>
<path d="M36 23.8686V25.1717L34 27.1717V23.8686L30.1209 26.4547C29.6239 26.786 29.0591 27.0018 28.4678 27.0863L24.7172 27.6221C23.7319 27.7628 23 28.6067 23 29.602V34.3982C23 35.3935 23.7319 36.2373 24.7172 36.3781L24.784 36.3876L23.2004 37.9712C21.8829 37.3075 21 35.9442 21 34.3982V29.602C21 27.6114 22.4637 25.9237 24.4343 25.6422L28.1849 25.1064C28.4806 25.0641 28.763 24.9562 29.0115 24.7906L32.8906 22.2045C34.2197 21.3184 36 22.2712 36 23.8686Z" fill="black"/>
<path d="M34 32.8285L36 30.8285V40.1316C36 41.729 34.2197 42.6817 32.8906 41.7957L29.0115 39.2096C28.763 39.0439 28.4806 38.936 28.1849 38.8938L27.966 38.8625L29.584 37.2445C29.7699 37.3306 29.9494 37.4312 30.1209 37.5455L34 40.1316V32.8285Z" fill="black"/>
<path d="M82.7071 22.7071C83.0976 22.3166 83.0976 21.6834 82.7071 21.2929C82.3166 20.9024 81.6834 20.9024 81.2929 21.2929L61.2929 41.2929C60.9024 41.6834 60.9024 42.3166 61.2929 42.7071C61.6834 43.0976 62.3166 43.0976 62.7071 42.7071L82.7071 22.7071Z" fill="black"/>
<path d="M75 23.8684V26.1715L63.9594 37.2121C62.8027 36.7851 62 35.6746 62 34.398V29.6018C62 28.1088 63.0978 26.843 64.5757 26.6319L68.3264 26.0961C68.7698 26.0327 69.1935 25.8709 69.5662 25.6224L73.4453 23.0363C74.1099 22.5933 75 23.0697 75 23.8684Z" fill="black"/>
<path d="M69.5662 38.3773C69.3326 38.2216 69.0791 38.0999 68.8132 38.0152L75 31.8284V40.1313C75 40.93 74.1099 41.4064 73.4453 40.9634L69.5662 38.3773Z" fill="black"/>
</svg>
