<svg width="104" height="64" viewBox="0 0 104 64" fill="none" xmlns="http://www.w3.org/2000/svg">
<path d="M29.0527 29.4211C29.2216 29.9194 29.745 30.1973 30.2464 30.0692C30.2696 30.0653 30.3307 30.0564 30.4472 30.0462C30.695 30.0246 31.1639 30 31.9997 30C32.8356 30 33.3044 30.0246 33.5523 30.0462C33.6687 30.0564 33.7299 30.0653 33.7531 30.0692C34.2545 30.1973 34.7778 29.9194 34.9468 29.4211C35.1241 28.8981 34.8439 28.3303 34.3208 28.153C34.3208 28.153 34.3214 28.1531 34.3192 28.1524L34.3176 28.1519L34.3143 28.1508L34.3079 28.1487L34.295 28.1446C34.2865 28.1419 34.278 28.1394 34.2694 28.137C34.2524 28.1321 34.235 28.1276 34.2171 28.1233C34.1815 28.1148 34.1419 28.1067 34.0972 28.099C34.0084 28.0836 33.8894 28.068 33.7259 28.0538C33.4001 28.0254 32.8689 28 31.9997 28C31.1305 28 30.5994 28.0254 30.2735 28.0538C30.1101 28.068 29.9911 28.0836 29.9023 28.099C29.8575 28.1067 29.8179 28.1148 29.7824 28.1233C29.7645 28.1276 29.7471 28.1321 29.73 28.137C29.7215 28.1394 29.7129 28.1419 29.7044 28.1446L29.6916 28.1487L29.6851 28.1508L29.6819 28.1519L29.6803 28.1524C29.6781 28.1531 29.6851 28.1508 29.6786 28.153C29.1556 28.3303 28.8753 28.8981 29.0527 29.4211Z" fill="black"/>
<path fill-rule="evenodd" clip-rule="evenodd" d="M31.9997 25C30.5077 25 28.827 25.0677 27.2328 25.4265C25.6363 25.7858 24.0574 26.4522 22.8364 27.7009C21.0525 29.5253 20.8809 31.936 21.0515 33.6543C21.2645 35.7987 22.8967 37.2766 24.6353 37.9878C26.3471 38.6881 28.2654 38.6881 29.9772 37.9878L30.0316 37.9656C31.2929 37.4496 32.7065 37.4496 33.9678 37.9656L34.0223 37.9878C35.734 38.6881 37.6524 38.6881 39.3642 37.9878C41.1028 37.2766 42.735 35.7987 42.9479 33.6543C43.1186 31.936 42.9469 29.5253 41.163 27.7009C39.942 26.4522 38.3632 25.7859 36.7666 25.4265C35.1724 25.0677 33.4917 25 31.9997 25ZM24.2664 29.0992C25.126 28.2201 26.3001 27.6865 27.672 27.3777C29.0462 27.0684 30.5494 27 31.9997 27C33.45 27 34.9532 27.0684 36.3275 27.3777C37.6993 27.6865 38.8735 28.2201 39.733 29.0992C40.9086 30.3014 41.1046 31.9777 40.9577 33.4566C40.8432 34.6093 39.935 35.5934 38.6069 36.1367C37.3804 36.6384 36.006 36.6384 34.7795 36.1367L34.7251 36.1145C32.9784 35.3999 31.021 35.3999 29.2744 36.1145L29.2199 36.1367C27.9935 36.6384 26.619 36.6384 25.3925 36.1367C24.0644 35.5934 23.1562 34.6093 23.0417 33.4566C22.8949 31.9777 23.0909 30.3014 24.2664 29.0992Z" fill="black"/>
<path fill-rule="evenodd" clip-rule="evenodd" d="M62.0469 33.5554C61.8881 31.9568 62.072 29.9133 63.5517 28.4C65.6322 26.2723 69.0577 26 72 26C74.9423 26 78.3678 26.2723 80.4483 28.4C81.928 29.9133 82.1119 31.9568 81.9531 33.5555C81.7894 35.204 80.5192 36.435 78.9858 37.0623C77.5167 37.6633 75.8703 37.6633 74.4012 37.0623L74.3467 37.04C72.8427 36.4247 71.1573 36.4247 69.6532 37.04L69.5988 37.0623C68.1297 37.6633 66.4833 37.6633 65.0142 37.0623C63.4808 36.435 62.2106 35.204 62.0469 33.5554ZM69.053 28.9211C69.2219 29.4194 69.7452 29.6973 70.2467 29.5692C70.2698 29.5653 70.331 29.5564 70.4474 29.5462C70.6953 29.5246 71.1641 29.5 72 29.5C72.8359 29.5 73.3047 29.5246 73.5526 29.5462C73.669 29.5564 73.7302 29.5653 73.7533 29.5692C74.2548 29.6973 74.7781 29.4194 74.947 28.9211C75.1244 28.3981 74.8441 27.8303 74.3211 27.653C74.2953 27.6446 74.3217 27.6532 74.3195 27.6524L74.3178 27.6519L74.3146 27.6508L74.3082 27.6487L74.2953 27.6446C74.2868 27.6419 74.2782 27.6394 74.2697 27.637C74.2527 27.6321 74.2352 27.6276 74.2173 27.6233C74.1818 27.6148 74.1422 27.6067 74.0974 27.599C74.0087 27.5836 73.8896 27.568 73.7262 27.5538C73.4004 27.5254 72.8692 27.5 72 27.5C71.1308 27.5 70.5996 27.5254 70.2738 27.5538C70.1104 27.568 69.9913 27.5836 69.9026 27.599C69.8578 27.6067 69.8182 27.6148 69.7827 27.6233C69.7648 27.6276 69.7473 27.6321 69.7303 27.637C69.7218 27.6394 69.7132 27.6419 69.7047 27.6446L69.6918 27.6487L69.6854 27.6508L69.6822 27.6519L69.6805 27.6524C69.6783 27.6532 69.6789 27.653 69.6789 27.653C69.1559 27.8303 68.8756 28.3981 69.053 28.9211Z" fill="black"/>
</svg>
