<svg width="104" height="64" viewBox="0 0 104 64" fill="none" xmlns="http://www.w3.org/2000/svg">
<path fill-rule="evenodd" clip-rule="evenodd" d="M22 26.6387C22 24.6291 23.6291 23 25.6387 23H33.6259C34.0204 23 34.3414 23.157 34.5678 23.3153C34.7939 23.4733 34.9831 23.6719 35.1368 23.8585C35.4417 24.2285 35.7245 24.6984 35.9651 25.1117C36.0251 25.2148 36.0828 25.3147 36.1386 25.4115C36.3234 25.732 36.4881 26.0176 36.6518 26.2649C36.7329 26.3875 36.8027 26.4833 36.8618 26.5556H38.0007C40.2102 26.5556 42 28.3467 42 30.5556V36C42 36.5523 41.5523 37 41 37H38C36.3431 37 35 35.6569 35 34C35 32.3431 36.3431 31 38 31H40V30.5556C40 29.4507 39.105 28.5556 38.0007 28.5556H36.5203C36.5063 28.5559 36.4922 28.5559 36.4782 28.5556H24V37C24 38.1046 24.8954 39 26 39H35.5C35.684 39 35.8565 39.0497 36.0046 39.1364C36.0337 39.5689 36.2003 39.9636 36.461 40.2774C36.3408 40.6947 35.956 41 35.5 41H26C23.7909 41 22 39.2091 22 37V26.6387ZM24.0021 26.5556H34.4895L34.3854 26.3751C34.3345 26.2868 34.2848 26.2006 34.2368 26.1181C33.9915 25.6968 33.782 25.3593 33.5934 25.1304C33.5437 25.0701 33.5041 25.0282 33.4748 25H25.6387C24.7615 25 24.0454 25.6892 24.0021 26.5556ZM40 33H38C37.4477 33 37 33.4477 37 34C37 34.5523 37.4477 35 38 35H40V33Z" fill="black"/>
<path d="M38 38C37.4477 38 37 38.4477 37 39C37 39.5523 37.4477 40 38 40H42C42.5523 40 43 39.5523 43 39C43 38.4477 42.5523 38 42 38H38Z" fill="black"/>
<path d="M75 39C75 37.42 76.2214 36.1253 77.7716 36.0086C77.292 35.4768 77 34.7725 77 34C77 32.3431 78.3431 31 80 31H82V30.5556C82 28.8987 80.6578 27.5556 79.001 27.5556H75.5L75.489 27.55H67C66.4477 27.55 66 27.1023 66 26.55C66 25.9977 66.4477 25.55 67 25.55H74.2643C73.8842 24.7403 73.4903 24 73.0138 24H66.2248C64.9961 24 64 24.9961 64 26.2248V37C64 38.6569 65.3431 40 67 40H75.1707C75.0602 39.6872 75 39.3506 75 39Z" fill="black"/>
<path d="M82 33H80C79.4477 33 79 33.4477 79 34C79 34.5523 79.4477 35 80 35H82V33Z" fill="black"/>
<path d="M78 38C77.4477 38 77 38.4477 77 39C77 39.5523 77.4477 40 78 40H82C82.5523 40 83 39.5523 83 39C83 38.4477 82.5523 38 82 38H78Z" fill="black"/>
</svg>
