<svg width="104" height="64" viewBox="0 0 104 64" fill="none" xmlns="http://www.w3.org/2000/svg">
<path fill-rule="evenodd" clip-rule="evenodd" d="M22 26.6387C22 24.6291 23.6291 23 25.6387 23H33.6259C34.0204 23 34.3414 23.157 34.5678 23.3153C34.7939 23.4733 34.9831 23.6719 35.1368 23.8585C35.4417 24.2285 35.7245 24.6984 35.9651 25.1117C36.0251 25.2148 36.0828 25.3147 36.1386 25.4115C36.3234 25.732 36.4881 26.0176 36.6518 26.2649C36.7329 26.3875 36.8027 26.4833 36.8618 26.5556H38.0007C40.2102 26.5556 42 28.3467 42 30.5556V35.3411C41.5503 34.6647 40.8334 34.1813 40 34.0415V33H38C37.4477 33 37 33.4477 37 34C37 34.3423 37.1719 34.6443 37.4341 34.8246C36.9469 35.2875 36.615 35.9123 36.5248 36.6128C35.6144 36.0977 35 35.1206 35 34C35 32.3431 36.3431 31 38 31H40V30.5556C40 29.4507 39.105 28.5556 38.0007 28.5556H36.5203C36.5063 28.5559 36.4922 28.5559 36.4782 28.5556H24V37C24 38.1046 24.8954 39 26 39H35.5L35.5051 39C35.1016 39.6024 34.942 40.3132 35.0185 41H26C23.7909 41 22 39.2091 22 37V26.6387ZM24.0021 26.5556H34.4895L34.3854 26.3751C34.3345 26.2868 34.2848 26.2006 34.2368 26.1181C33.9915 25.6968 33.782 25.3593 33.5934 25.1304C33.5437 25.0701 33.5041 25.0282 33.4748 25H25.6387C24.7615 25 24.0454 25.6892 24.0021 26.5556Z" fill="black"/>
<path d="M41.6644 41.4141L40.1644 42.7474C39.7855 43.0842 39.2145 43.0842 38.8356 42.7474L37.3356 41.4141C36.9229 41.0472 36.8857 40.4151 37.2526 40.0023C37.5736 39.6412 38.0975 39.5675 38.5 39.8004V37C38.5 36.4477 38.9477 36 39.5 36C40.0523 36 40.5 36.4477 40.5 37V39.8004C40.9025 39.5675 41.4264 39.6412 41.7474 40.0023C42.1143 40.4151 42.0771 41.0472 41.6644 41.4141Z" fill="black"/>
<path d="M76.5 37C76.5 36.621 76.5703 36.2584 76.6985 35.9245C76.2625 35.4036 76 34.7325 76 34C76 32.3431 77.3431 31 79 31H81V30.5556C81 28.8987 79.6578 27.5556 78.001 27.5556H74.5L74.489 27.55H66C65.4477 27.55 65 27.1023 65 26.55C65 25.9977 65.4477 25.55 66 25.55H73.2643C72.8842 24.7403 72.4903 24 72.0138 24H65.2248C63.9961 24 63 24.9961 63 26.2248V37C63 38.6569 64.3431 40 66 40H75.0744C75.1828 39.5227 75.4096 39.0652 75.7578 38.6736C75.9774 38.4265 76.2286 38.2243 76.5 38.0677V37Z" fill="black"/>
<path d="M79.5 34C80.0464 34 80.5587 34.1461 81 34.4013V33H79C78.4477 33 78 33.4477 78 34C78 34.1281 78.0241 34.2506 78.068 34.3632C78.4936 34.1316 78.9814 34 79.5 34Z" fill="black"/>
<path d="M81.6644 41.4141L80.1644 42.7474C79.7855 43.0842 79.2145 43.0842 78.8356 42.7474L77.3356 41.4141C76.9229 41.0472 76.8857 40.4151 77.2526 40.0023C77.5736 39.6412 78.0975 39.5675 78.5 39.8004V37C78.5 36.4477 78.9477 36 79.5 36C80.0523 36 80.5 36.4477 80.5 37V39.8004C80.9025 39.5675 81.4264 39.6412 81.7474 40.0023C82.1143 40.4151 82.0771 41.0472 81.6644 41.4141Z" fill="black"/>
</svg>
