<svg width="104" height="64" viewBox="0 0 104 64" fill="none" xmlns="http://www.w3.org/2000/svg">
<path fill-rule="evenodd" clip-rule="evenodd" d="M22 26.6387C22 24.6291 23.6291 23 25.6387 23H33.6259C34.0204 23 34.3414 23.157 34.5678 23.3153C34.7939 23.4733 34.9831 23.6719 35.1368 23.8585C35.4417 24.2285 35.7245 24.6984 35.9651 25.1117C36.0251 25.2148 36.0828 25.3147 36.1386 25.4115C36.3234 25.732 36.4881 26.0176 36.6518 26.2649C36.7329 26.3875 36.8027 26.4833 36.8618 26.5556H38.0007C40.2102 26.5556 42 28.3467 42 30.5556V35.2084L41.4931 34.7578C41.0582 34.3712 40.539 34.1326 40 34.0418V33H38C37.4477 33 37 33.4477 37 34C37 34.3417 37.1713 34.6433 37.4328 34.8237L36.0069 36.0911C35.979 36.1159 35.9517 36.1411 35.925 36.1666C35.3549 35.6206 35 34.8517 35 34C35 32.3431 36.3431 31 38 31H40V30.5556C40 29.4507 39.105 28.5556 38.0007 28.5556H36.5203C36.5063 28.5559 36.4922 28.5559 36.4782 28.5556H24V37C24 38.1046 24.8954 39 26 39H35.0744C35.1828 39.4773 35.4096 39.9348 35.7578 40.3264C35.8906 40.4758 36.035 40.6089 36.1884 40.7253C36.0091 40.8955 35.7668 41 35.5 41H26C23.7909 41 22 39.2091 22 37V26.6387ZM24.0021 26.5556H34.4895L34.3854 26.3751C34.3345 26.2868 34.2848 26.2006 34.2368 26.1181C33.9915 25.6968 33.782 25.3593 33.5934 25.1304C33.5437 25.0701 33.5041 25.0282 33.4748 25H25.6387C24.7615 25 24.0454 25.6892 24.0021 26.5556Z" fill="black"/>
<path d="M40.1644 36.2526C39.7855 35.9158 39.2145 35.9158 38.8356 36.2526L37.3356 37.5859C36.9229 37.9528 36.8857 38.5849 37.2526 38.9977C37.5736 39.3588 38.0975 39.4325 38.5 39.1996V42C38.5 42.5523 38.9477 43 39.5 43C40.0523 43 40.5 42.5523 40.5 42V39.1996C40.9025 39.4325 41.4264 39.3588 41.7474 38.9977C42.1143 38.5849 42.0771 37.9528 41.6644 37.5859L40.1644 36.2526Z" fill="black"/>
<path d="M81.4931 34.7578L81.7656 35H82V33H80C79.4477 33 79 33.4477 79 34C79 34.014 79.0003 34.0278 79.0009 34.0416C79.8705 33.8955 80.7915 34.1342 81.4931 34.7578Z" fill="black"/>
<path d="M67 40H75.5051C74.6838 38.7739 74.873 37.099 76.0069 36.0911L77.1862 35.0428C77.0658 34.718 77 34.3667 77 34C77 32.3431 78.3431 31 80 31H82V30.5556C82 28.8987 80.6578 27.5556 79.001 27.5556H75.5L75.489 27.55H67C66.4477 27.55 66 27.1023 66 26.55C66 25.9977 66.4477 25.55 67 25.55H74.2643C73.8842 24.7403 73.4903 24 73.0138 24H66.2248C64.9961 24 64 24.9961 64 26.2248V37C64 38.6569 65.3431 40 67 40Z" fill="black"/>
<path d="M80.1644 36.2526C79.7855 35.9158 79.2145 35.9158 78.8356 36.2526L77.3356 37.5859C76.9229 37.9528 76.8857 38.5849 77.2526 38.9977C77.5736 39.3588 78.0975 39.4325 78.5 39.1996V42C78.5 42.5523 78.9477 43 79.5 43C80.0523 43 80.5 42.5523 80.5 42V39.1996C80.9025 39.4325 81.4264 39.3588 81.7474 38.9977C82.1143 38.5849 82.0771 37.9528 81.6644 37.5859L80.1644 36.2526Z" fill="black"/>
</svg>
