<svg width="104" height="64" viewBox="0 0 104 64" fill="none" xmlns="http://www.w3.org/2000/svg">
<path fill-rule="evenodd" clip-rule="evenodd" d="M22 26.6387C22 24.6291 23.6291 23 25.6387 23H33.6259C34.0204 23 34.3414 23.157 34.5678 23.3153C34.7939 23.4733 34.9831 23.6719 35.1368 23.8585C35.4417 24.2285 35.7245 24.6984 35.9651 25.1117C36.0251 25.2148 36.0828 25.3147 36.1386 25.4115C36.3234 25.732 36.4881 26.0176 36.6518 26.2649C36.7329 26.3875 36.8027 26.4833 36.8618 26.5556H38.0007C40.2102 26.5556 42 28.3467 42 30.5556V35.5109C41.2778 35.3232 40.4993 35.4088 39.8284 35.7676C38.6934 35.1605 37.2502 35.3356 36.2929 36.2929C36.2591 36.3267 36.2263 36.3611 36.1945 36.396C35.4689 35.8485 35 34.979 35 34C35 32.3431 36.3431 31 38 31H40V30.5556C40 29.4507 39.105 28.5556 38.0007 28.5556H36.5203C36.5063 28.5559 36.4922 28.5559 36.4782 28.5556H24V37C24 38.1046 24.8954 39 26 39H35.4716C35.5283 39.2861 35.627 39.5655 35.7676 39.8284C35.5712 40.1957 35.4566 40.5951 35.424 41H26C23.7909 41 22 39.2091 22 37V26.6387ZM24.0021 26.5556H34.4895L34.3854 26.3751C34.3345 26.2868 34.2848 26.2006 34.2368 26.1181C33.9915 25.6968 33.782 25.3593 33.5934 25.1304C33.5437 25.0701 33.5041 25.0282 33.4748 25H25.6387C24.7615 25 24.0454 25.6892 24.0021 26.5556ZM40 33H38C37.4477 33 37 33.4477 37 34C37 34.5523 37.4477 35 38 35H40V33Z" fill="black"/>
<path d="M41.2426 39.8284L41.9497 39.1213C42.3402 38.7308 42.3402 38.0976 41.9497 37.7071C41.5592 37.3166 40.926 37.3166 40.5355 37.7071L39.8284 38.4142L39.1213 37.7071C38.7307 37.3166 38.0976 37.3166 37.707 37.7071C37.3165 38.0976 37.3165 38.7308 37.707 39.1213L38.4142 39.8284L37.707 40.5355C37.3165 40.9261 37.3165 41.5592 37.707 41.9497C38.0976 42.3403 38.7307 42.3403 39.1213 41.9497L39.8284 41.2426L40.5355 41.9497C40.926 42.3403 41.5592 42.3403 41.9497 41.9497C42.3402 41.5592 42.3402 40.9261 41.9497 40.5355L41.2426 39.8284Z" fill="black"/>
<path d="M76.2929 36.2929C76.6288 35.957 77.0245 35.7174 77.4457 35.5742C77.1631 35.1166 77 34.5773 77 34C77 32.3431 78.3431 31 80 31H82V30.5556C82 28.8987 80.6578 27.5556 79.001 27.5556H75.5L75.489 27.55H67C66.4477 27.55 66 27.1023 66 26.55C66 25.9977 66.4477 25.55 67 25.55H74.2643C73.8842 24.7403 73.4903 24 73.0138 24H66.2248C64.9961 24 64 24.9961 64 26.2248V37C64 38.6569 65.3431 40 67 40H75.6828C75.7091 39.9421 75.7374 39.8849 75.7676 39.8284C75.1605 38.6934 75.3356 37.2502 76.2929 36.2929Z" fill="black"/>
<path d="M82 33H80C79.4477 33 79 33.4477 79 34C79 34.5523 79.4477 35 80 35H82V33Z" fill="black"/>
<path d="M81.2426 39.8284L81.9497 39.1213C82.3402 38.7308 82.3402 38.0976 81.9497 37.7071C81.5592 37.3166 80.926 37.3166 80.5355 37.7071L79.8284 38.4142L79.1213 37.7071C78.7307 37.3166 78.0976 37.3166 77.707 37.7071C77.3165 38.0976 77.3165 38.7308 77.707 39.1213L78.4142 39.8284L77.707 40.5355C77.3165 40.9261 77.3165 41.5592 77.707 41.9497C78.0976 42.3403 78.7307 42.3403 79.1213 41.9497L79.8284 41.2426L80.5355 41.9497C80.926 42.3403 81.5592 42.3403 81.9497 41.9497C82.3402 41.5592 82.3402 40.9261 81.9497 40.5355L81.2426 39.8284Z" fill="black"/>
</svg>
