<svg width="104" height="64" viewBox="0 0 104 64" fill="none" xmlns="http://www.w3.org/2000/svg">
<path fill-rule="evenodd" clip-rule="evenodd" d="M22 26.6387C22 24.6291 23.6291 23 25.6387 23H33.6259C34.0204 23 34.3414 23.157 34.5678 23.3153C34.7939 23.4733 34.9831 23.6719 35.1368 23.8585C35.4417 24.2285 35.7245 24.6984 35.9651 25.1117C36.0251 25.2148 36.0828 25.3147 36.1386 25.4115C36.3234 25.732 36.4881 26.0176 36.6518 26.2649C36.7329 26.3875 36.8027 26.4833 36.8618 26.5556H38.0007C40.2102 26.5556 42 28.3467 42 30.5556V36C42 36.3271 41.8429 36.6175 41.6001 36.8C41.2352 36.3142 40.6543 36 40 36C39.2597 36 38.6134 36.4022 38.2676 37H38C36.3431 37 35 35.6569 35 34C35 32.3431 36.3431 31 38 31H40V30.5556C40 29.4507 39.105 28.5556 38.0007 28.5556H36.5203C36.5063 28.5559 36.4922 28.5559 36.4782 28.5556H24V37C24 38.1046 24.8954 39 26 39H35.5C35.748 39 35.9748 39.0902 36.1496 39.2397C36.0532 39.4741 36 39.7308 36 40C36 40.2692 36.0532 40.5259 36.1496 40.7603C35.9748 40.9098 35.748 41 35.5 41H26C23.7909 41 22 39.2091 22 37V26.6387ZM24.0021 26.5556H34.4895L34.3854 26.3751C34.3345 26.2868 34.2848 26.2006 34.2368 26.1181C33.9915 25.6968 33.782 25.3593 33.5934 25.1304C33.5437 25.0701 33.5041 25.0282 33.4748 25H25.6387C24.7615 25 24.0454 25.6892 24.0021 26.5556ZM40 33H38C37.4477 33 37 33.4477 37 34C37 34.5523 37.4477 35 38 35H40V33Z" fill="black"/>
<path d="M41 38C41 37.4477 40.5523 37 40 37C39.4477 37 39 37.4477 39 38V39H38C37.4477 39 37 39.4477 37 40C37 40.5523 37.4477 41 38 41H39V42C39 42.5523 39.4477 43 40 43C40.5523 43 41 42.5523 41 42V41H42C42.5523 41 43 40.5523 43 40C43 39.4477 42.5523 39 42 39H41V38Z" fill="black"/>
<path d="M77.1285 37.1285C77.1924 36.9178 77.2788 36.7169 77.385 36.5286C76.5521 35.9956 76 35.0623 76 34C76 32.3431 77.3431 31 79 31H81V30.5556C81 28.8987 79.6578 27.5556 78.001 27.5556H74.5L74.489 27.55H66C65.4477 27.55 65 27.1023 65 26.55C65 25.9977 65.4477 25.55 66 25.55H73.2643C72.8842 24.7403 72.4903 24 72.0138 24H65.2248C63.9961 24 63 24.9961 63 26.2248V37C63 38.6569 64.3431 40 66 40H75C75 38.6462 75.8967 37.5019 77.1285 37.1285Z" fill="black"/>
<path d="M81 35H79C78.4477 35 78 34.5523 78 34C78 33.4477 78.4477 33 79 33H81V35Z" fill="black"/>
<path d="M81 38C81 37.4477 80.5523 37 80 37C79.4477 37 79 37.4477 79 38V39H78C77.4477 39 77 39.4477 77 40C77 40.5523 77.4477 41 78 41H79V42C79 42.5523 79.4477 43 80 43C80.5523 43 81 42.5523 81 42V41H82C82.5523 41 83 40.5523 83 40C83 39.4477 82.5523 39 82 39H81V38Z" fill="black"/>
</svg>
