<svg width="104" height="64" viewBox="0 0 104 64" fill="none" xmlns="http://www.w3.org/2000/svg">
<path fill-rule="evenodd" clip-rule="evenodd" d="M25.2248 23C23.4438 23 22 24.4438 22 26.2248V37C22 39.2091 23.7909 41 26 41H38C40.2091 41 42 39.2091 42 37V30.5556C42 28.3468 40.2105 26.5556 38.001 26.5556H34.8897C34.8498 26.4969 34.8038 26.4222 34.7518 26.3291C34.6109 26.0772 34.4738 25.7811 34.3166 25.4415C34.2793 25.3609 34.2409 25.2779 34.201 25.1924C34.0098 24.7827 33.7781 24.3015 33.5099 23.9198C33.2873 23.6029 32.8009 23 32.0138 23H25.2248ZM32.4876 26.2518C32.5332 26.3504 32.5804 26.4524 32.6288 26.5556H24V26.2248C24 25.5483 24.5483 25 25.2248 25H31.8219C31.8368 25.0188 31.854 25.0418 31.8734 25.0695C32.026 25.2867 32.1903 25.6132 32.3886 26.0382C32.4206 26.1068 32.4537 26.1784 32.4876 26.2518ZM26 39C24.8954 39 24 38.1046 24 37V28.5556H34.4782C34.4808 28.5556 34.4834 28.5557 34.4861 28.5557C34.4975 28.5558 34.5089 28.5558 34.5203 28.5556H38.001C39.1051 28.5556 40 29.4506 40 30.5556V31H38C36.3431 31 35 32.3431 35 34C35 35.6569 36.3431 37 38 37H40C40 38.1046 39.1046 39 38 39H26ZM37 34C37 33.4477 37.4477 33 38 33H40V35H38C37.4477 35 37 34.5523 37 34ZM31.7514 24.9232C31.7514 24.9227 31.7555 24.9257 31.7637 24.9336C31.7555 24.9277 31.7514 24.9237 31.7514 24.9232Z" fill="black"/>
<path d="M78 40H66C64.3431 40 63 38.6569 63 37V26.2248C63 24.9961 63.9961 24 65.2248 24H72.0138C72.4903 24 72.8842 24.7403 73.2643 25.55H66C65.4477 25.55 65 25.9977 65 26.55C65 27.1023 65.4477 27.55 66 27.55H74.489L74.5 27.5556H78.001C79.6578 27.5556 81 28.8987 81 30.5556V31H79C77.3431 31 76 32.3431 76 34C76 35.6569 77.3431 37 79 37H81C81 38.6569 79.6569 40 78 40Z" fill="black"/>
<path d="M81 35V33H79C78.4477 33 78 33.4477 78 34C78 34.5523 78.4477 35 79 35H81Z" fill="black"/>
</svg>
