<svg width="104" height="64" viewBox="0 0 104 64" fill="none" xmlns="http://www.w3.org/2000/svg">
<path fill-rule="evenodd" clip-rule="evenodd" d="M33.4228 23.1067C32.967 21.7392 31.0326 21.7392 30.5768 23.1067L26.8329 34.3384C26.234 36.1351 26.7016 38.1159 28.0408 39.4551L28.4643 39.8786C30.4169 41.8312 33.5827 41.8312 35.5354 39.8786L35.9589 39.4551C37.298 38.1159 37.7656 36.1351 37.1667 34.3384L33.4228 23.1067ZM28.7303 34.9709L31.9998 25.1622L35.2694 34.9709C35.6287 36.0489 35.3481 37.2374 34.5446 38.0409L34.1211 38.4644C32.9496 39.636 31.0501 39.636 29.8785 38.4644L29.455 38.0409C28.6515 37.2374 28.3709 36.0489 28.7303 34.9709Z" fill="black"/>
<path d="M71.5254 23.4229L67.7815 34.6546C67.3024 36.092 67.6765 37.6767 68.7479 38.748L69.1714 39.1715C70.7335 40.7336 73.2661 40.7336 74.8282 39.1715L75.2517 38.748C76.3231 37.6766 76.6971 36.092 76.218 34.6546L72.4741 23.4229C72.3222 22.9671 71.6774 22.9671 71.5254 23.4229Z" fill="black"/>
</svg>
