<svg width="104" height="64" viewBox="0 0 104 64" fill="none" xmlns="http://www.w3.org/2000/svg">
<path d="M32.0007 25C30.6875 25 29.3871 25.2587 28.1739 25.7612C26.9606 26.2638 25.8582 27.0003 24.9297 27.9289C24.0011 28.8575 23.2645 29.9599 22.7619 31.1732C22.5506 31.6834 22.7929 32.2684 23.3031 32.4797C23.8134 32.6911 24.3983 32.4488 24.6097 31.9385C25.0117 30.9679 25.601 30.086 26.3439 29.3431C27.0867 28.6003 27.9687 28.011 28.9393 27.609C29.9099 27.2069 30.9501 27 32.0007 27C33.0513 27 34.0916 27.2069 35.0622 27.609C36.0328 28.011 36.9147 28.6003 37.6576 29.3431C38.4004 30.086 38.9897 30.9679 39.3918 31.9385C39.6031 32.4488 40.1881 32.6911 40.6983 32.4797C41.2086 32.2684 41.4509 31.6834 41.2395 31.1732C40.737 29.9599 40.0004 28.8575 39.0718 27.9289C38.1432 27.0003 37.0408 26.2638 35.8276 25.7612C34.6143 25.2587 33.3139 25 32.0007 25Z" fill="black"/>
<path d="M32.0008 28C31.0815 28 30.1713 28.1811 29.322 28.5328C28.4727 28.8846 27.701 29.4002 27.051 30.0503C26.401 30.7003 25.8854 31.4719 25.5336 32.3212C25.4083 32.6239 25.3046 32.9342 25.2231 33.25C25.085 33.7847 25.4066 34.3302 25.9413 34.4682C26.476 34.6063 27.0215 34.2847 27.1595 33.75C27.2178 33.5245 27.2918 33.3028 27.3814 33.0866C27.6327 32.48 28.0009 31.9288 28.4652 31.4645C28.9295 31.0002 29.4807 30.6319 30.0874 30.3806C30.694 30.1293 31.3442 30 32.0008 30C32.6574 30 33.3076 30.1293 33.9142 30.3806C34.5208 30.6319 35.072 31.0002 35.5363 31.4645C36.0006 31.9288 36.3689 32.48 36.6202 33.0866C36.7097 33.3028 36.7838 33.5245 36.842 33.75C36.9801 34.2847 37.5255 34.6063 38.0603 34.4682C38.595 34.3302 38.9166 33.7847 38.7785 33.25C38.697 32.9342 38.5933 32.6239 38.4679 32.3212C38.1162 31.4719 37.6005 30.7003 36.9505 30.0503C36.3005 29.4002 35.5288 28.8846 34.6796 28.5328C33.8303 28.1811 32.92 28 32.0008 28Z" fill="black"/>
<path d="M30.47 31.3045C30.9554 31.1035 31.4755 31 32.0008 31C32.5261 31 33.0462 31.1035 33.5315 31.3045C34.0168 31.5055 34.4578 31.8001 34.8292 32.1716C35.2006 32.543 35.4953 32.984 35.6963 33.4693C35.8116 33.7477 35.8948 34.0376 35.9448 34.3333C36.0369 34.8779 35.67 35.394 35.1255 35.486C34.5809 35.5781 34.0649 35.2112 33.9728 34.6667C33.9478 34.5188 33.9062 34.3738 33.8485 34.2346C33.748 33.992 33.6007 33.7715 33.415 33.5858C33.2293 33.4001 33.0088 33.2528 32.7661 33.1522C32.5235 33.0517 32.2634 33 32.0008 33C31.7381 33 31.4781 33.0517 31.2354 33.1522C30.9928 33.2528 30.7723 33.4001 30.5866 33.5858C30.4009 33.7715 30.2535 33.992 30.153 34.2346C30.0954 34.3738 30.0538 34.5188 30.0288 34.6667C29.9367 35.2112 29.4206 35.5781 28.8761 35.486C28.3315 35.394 27.9647 34.8779 28.0567 34.3333C28.1067 34.0376 28.1899 33.7477 28.3053 33.4693C28.5063 32.984 28.8009 32.543 29.1724 32.1716C29.5438 31.8001 29.9847 31.5055 30.47 31.3045Z" fill="black"/>
<path d="M32.0007 38C32.8292 38 33.5007 37.3284 33.5007 36.5C33.5007 35.6716 32.8292 35 32.0007 35C31.1723 35 30.5008 35.6716 30.5008 36.5C30.5008 37.3284 31.1723 38 32.0007 38Z" fill="black"/>
<path d="M72.0007 25C70.6875 25 69.3871 25.2587 68.1739 25.7612C66.9606 26.2638 65.8582 27.0003 64.9297 27.9289C64.0011 28.8575 63.2645 29.9599 62.7619 31.1732C62.5506 31.6834 62.7929 32.2684 63.3031 32.4797C63.8134 32.6911 64.3983 32.4488 64.6097 31.9385C65.0117 30.9679 65.601 30.086 66.3439 29.3431C67.0867 28.6003 67.9687 28.011 68.9393 27.609C69.9099 27.2069 70.9501 27 72.0007 27C73.0513 27 74.0916 27.2069 75.0622 27.609C76.0328 28.011 76.9147 28.6003 77.6576 29.3431C78.4004 30.086 78.9897 30.9679 79.3918 31.9385C79.6031 32.4488 80.1881 32.6911 80.6983 32.4797C81.2086 32.2684 81.4509 31.6834 81.2395 31.1732C80.737 29.9599 80.0004 28.8575 79.0718 27.9289C78.1432 27.0003 77.0408 26.2638 75.8276 25.7612C74.6143 25.2587 73.3139 25 72.0007 25Z" fill="black"/>
<path d="M72.0008 28C71.0815 28 70.1713 28.1811 69.322 28.5328C68.4727 28.8846 67.701 29.4002 67.051 30.0503C66.401 30.7003 65.8854 31.4719 65.5336 32.3212C65.4083 32.6239 65.3046 32.9342 65.2231 33.25C65.085 33.7847 65.4066 34.3302 65.9413 34.4682C66.476 34.6063 67.0215 34.2847 67.1595 33.75C67.2178 33.5245 67.2918 33.3028 67.3814 33.0866C67.6327 32.48 68.0009 31.9288 68.4652 31.4645C68.9295 31.0002 69.4807 30.6319 70.0874 30.3806C70.694 30.1293 71.3442 30 72.0008 30C72.6574 30 73.3076 30.1293 73.9142 30.3806C74.5208 30.6319 75.072 31.0002 75.5363 31.4645C76.0006 31.9288 76.3689 32.48 76.6202 33.0866C76.7097 33.3028 76.7838 33.5245 76.842 33.75C76.9801 34.2847 77.5255 34.6063 78.0603 34.4682C78.595 34.3302 78.9166 33.7847 78.7785 33.25C78.697 32.9342 78.5933 32.6239 78.4679 32.3212C78.1162 31.4719 77.6005 30.7003 76.9505 30.0503C76.3005 29.4002 75.5288 28.8846 74.6796 28.5328C73.8303 28.1811 72.92 28 72.0008 28Z" fill="black"/>
<path d="M70.47 31.3045C70.9554 31.1035 71.4755 31 72.0008 31C72.5261 31 73.0462 31.1035 73.5315 31.3045C74.0168 31.5055 74.4578 31.8001 74.8292 32.1716C75.2006 32.543 75.4953 32.984 75.6963 33.4693C75.8116 33.7477 75.8948 34.0376 75.9448 34.3333C76.0369 34.8779 75.67 35.394 75.1255 35.486C74.5809 35.5781 74.0649 35.2112 73.9728 34.6667C73.9478 34.5188 73.9062 34.3738 73.8485 34.2346C73.748 33.992 73.6007 33.7715 73.415 33.5858C73.2293 33.4001 73.0088 33.2528 72.7661 33.1522C72.5235 33.0517 72.2634 33 72.0008 33C71.7381 33 71.4781 33.0517 71.2354 33.1522C70.9928 33.2528 70.7723 33.4001 70.5866 33.5858C70.4009 33.7715 70.2535 33.992 70.153 34.2346C70.0954 34.3738 70.0538 34.5188 70.0288 34.6667C69.9367 35.2112 69.4206 35.5781 68.8761 35.486C68.3315 35.394 67.9647 34.8779 68.0567 34.3333C68.1067 34.0376 68.1899 33.7477 68.3053 33.4693C68.5063 32.984 68.8009 32.543 69.1724 32.1716C69.5438 31.8001 69.9847 31.5055 70.47 31.3045Z" fill="black"/>
<path d="M72.0007 38C72.8292 38 73.5007 37.3284 73.5007 36.5C73.5007 35.6716 72.8292 35 72.0007 35C71.1723 35 70.5008 35.6716 70.5008 36.5C70.5008 37.3284 71.1723 38 72.0007 38Z" fill="black"/>
</svg>
