<svg width="104" height="64" viewBox="0 0 104 64" fill="none" xmlns="http://www.w3.org/2000/svg">
<path d="M32.5 30C32.5 29.4477 32.0523 29 31.5 29C30.9477 29 30.5 29.4477 30.5 30V33C30.5 33.5523 30.9477 34 31.5 34H33.5C34.0523 34 34.5 33.5523 34.5 33C34.5 32.4477 34.0523 32 33.5 32H32.5V30Z" fill="black"/>
<path fill-rule="evenodd" clip-rule="evenodd" d="M36 26V27.5278C37.2261 28.6253 38 30.2224 38 32C38 33.7776 37.2261 35.3747 36 36.4722V38C36 40.2091 34.2091 42 32 42C29.7909 42 28 40.2091 28 38V36.4722C26.7739 35.3747 26 33.7776 26 32C26 30.2224 26.7739 28.6253 28 27.5278V26C28 23.7909 29.7909 22 32 22C34.2091 22 36 23.7909 36 26ZM30 26C30 24.8954 30.8954 24 32 24C33.1046 24 34 24.8954 34 26V26.3417C33.3741 26.1204 32.7007 26 32 26C31.2993 26 30.6259 26.1204 30 26.3417V26ZM32 38C32.7007 38 33.3741 37.8796 34 37.6583V38C34 39.1046 33.1046 40 32 40C30.8954 40 30 39.1046 30 38V37.6583C30.6259 37.8796 31.2993 38 32 38ZM29.6006 28.7992C30.269 28.2971 31.0984 28 32 28C32.9016 28 33.731 28.2971 34.3994 28.7992C35.3732 29.5307 36 30.692 36 32C36 33.308 35.3732 34.4693 34.3994 35.2008C33.731 35.7029 32.9016 36 32 36C31.0984 36 30.269 35.7029 29.6006 35.2008C28.6268 34.4693 28 33.308 28 32C28 30.692 28.6268 29.5307 29.6006 28.7992Z" fill="black"/>
<path d="M69.0185 25.6649C69.1851 24.1658 70.4564 23 72 23C73.5436 23 74.8149 24.1658 74.9815 25.6649C74.0769 25.2384 73.0663 25 72 25C70.9337 25 69.923 25.2384 69.0185 25.6649Z" fill="black"/>
<path d="M69.0185 38.3351C69.923 38.7616 70.9337 39 72 39C73.0663 39 74.0769 38.7616 74.9815 38.3351C74.8149 39.8342 73.5436 41 72 41C70.4564 41 69.1851 39.8342 69.0185 38.3351Z" fill="black"/>
<path fill-rule="evenodd" clip-rule="evenodd" d="M75.6 36.8004C77.0573 35.7058 78 33.963 78 32C78 30.037 77.0573 28.2942 75.6 27.1996C74.5972 26.4463 73.3507 26 72 26C70.6493 26 69.4028 26.4463 68.4 27.1996C66.9427 28.2942 66 30.037 66 32C66 33.963 66.9427 35.7058 68.4 36.8004C69.4028 37.5537 70.6493 38 72 38C73.3507 38 74.5972 37.5537 75.6 36.8004ZM72.5 30C72.5 29.4477 72.0523 29 71.5 29C70.9477 29 70.5 29.4477 70.5 30V33C70.5 33.5523 70.9477 34 71.5 34H73.5C74.0523 34 74.5 33.5523 74.5 33C74.5 32.4477 74.0523 32 73.5 32H72.5V30Z" fill="black"/>
</svg>
