<svg width="104" height="64" viewBox="0 0 104 64" fill="none" xmlns="http://www.w3.org/2000/svg">
<path d="M27.8138 23.9187C27.4928 23.4693 26.8683 23.3652 26.4188 23.6862C25.9694 24.0072 25.8653 24.6318 26.1863 25.0812L31.0001 31.8204V32H28.0001C27.4478 32 27.0001 32.4477 27.0001 33C27.0001 33.5522 27.4478 34 28.0001 34H31.0001V34.5H28.0001C27.4478 34.5 27.0001 34.9477 27.0001 35.5C27.0001 36.0522 27.4478 36.5 28.0001 36.5H31.0001V40.5C31.0001 41.0522 31.4478 41.5 32.0001 41.5C32.5524 41.5 33.0001 41.0522 33.0001 40.5V36.5H36.0001C36.5524 36.5 37.0001 36.0522 37.0001 35.5C37.0001 34.9477 36.5524 34.5 36.0001 34.5H33.0001V34H36.0001C36.5524 34 37.0001 33.5522 37.0001 33C37.0001 32.4477 36.5524 32 36.0001 32H33.0001V31.8204L37.8138 25.0812C38.1348 24.6318 38.0307 24.0072 37.5813 23.6862C37.1319 23.3652 36.5074 23.4693 36.1863 23.9187L32.0001 29.7795L27.8138 23.9187Z" fill="black"/>
<path d="M67.8138 23.9187C67.4928 23.4693 66.8683 23.3652 66.4188 23.6862C65.9694 24.0072 65.8653 24.6318 66.1863 25.0812L71.0001 31.8204V32H68.0001C67.4478 32 67.0001 32.4477 67.0001 33C67.0001 33.5522 67.4478 34 68.0001 34H71.0001V34.5H68.0001C67.4478 34.5 67.0001 34.9477 67.0001 35.5C67.0001 36.0522 67.4478 36.5 68.0001 36.5H71.0001V40.5C71.0001 41.0522 71.4478 41.5 72.0001 41.5C72.5524 41.5 73.0001 41.0522 73.0001 40.5V36.5H76.0001C76.5524 36.5 77.0001 36.0522 77.0001 35.5C77.0001 34.9477 76.5524 34.5 76.0001 34.5H73.0001V34H76.0001C76.5524 34 77.0001 33.5522 77.0001 33C77.0001 32.4477 76.5524 32 76.0001 32H73.0001V31.8204L77.8138 25.0812C78.1348 24.6318 78.0307 24.0072 77.5813 23.6862C77.1319 23.3652 76.5074 23.4693 76.1863 23.9187L72.0001 29.7795L67.8138 23.9187Z" fill="black"/>
</svg>
