<svg width="104" height="64" viewBox="0 0 104 64" fill="none" xmlns="http://www.w3.org/2000/svg">
<path d="M27 29C26.4477 29 26 29.4477 26 30C26 30.5523 26.4477 31 27 31H33C33.5523 31 34 30.5523 34 30C34 29.4477 33.5523 29 33 29H27Z" fill="black"/>
<path fill-rule="evenodd" clip-rule="evenodd" d="M21 30C21 25.0294 25.0294 21 30 21C34.9706 21 39 25.0294 39 30C39 32.125 38.2635 34.078 37.0319 35.6177L40.7071 39.2929C41.0976 39.6834 41.0976 40.3166 40.7071 40.7071C40.3166 41.0976 39.6834 41.0976 39.2929 40.7071L35.6177 37.0319C34.078 38.2635 32.125 39 30 39C25.0294 39 21 34.9706 21 30ZM30 23C26.134 23 23 26.134 23 30C23 33.866 26.134 37 30 37C33.866 37 37 33.866 37 30C37 26.134 33.866 23 30 23Z" fill="black"/>
<path fill-rule="evenodd" clip-rule="evenodd" d="M74.9056 36.3199C73.551 37.3729 71.8487 38 70 38C65.5817 38 62 34.4183 62 30C62 25.5817 65.5817 22 70 22C74.4183 22 78 25.5817 78 30C78 31.8487 77.3729 33.551 76.3199 34.9056L80.7071 39.2929C81.0976 39.6834 81.0976 40.3166 80.7071 40.7071C80.3166 41.0976 79.6834 41.0976 79.2929 40.7071L74.9056 36.3199ZM66 30C66 29.4477 66.4477 29 67 29H73C73.5523 29 74 29.4477 74 30C74 30.5523 73.5523 31 73 31H67C66.4477 31 66 30.5523 66 30Z" fill="black"/>
</svg>
