<svg width="104" height="64" viewBox="0 0 104 64" fill="none" xmlns="http://www.w3.org/2000/svg">
<path d="M30 26C30.5523 26 31 26.4477 31 27V29H33C33.5523 29 34 29.4477 34 30C34 30.5523 33.5523 31 33 31H31V33C31 33.5523 30.5523 34 30 34C29.4477 34 29 33.5523 29 33V31H27C26.4477 31 26 30.5523 26 30C26 29.4477 26.4477 29 27 29H29V27C29 26.4477 29.4477 26 30 26Z" fill="black"/>
<path fill-rule="evenodd" clip-rule="evenodd" d="M21 30C21 25.0294 25.0294 21 30 21C34.9706 21 39 25.0294 39 30C39 32.125 38.2635 34.078 37.0319 35.6177L41.7071 40.2929C42.0976 40.6834 42.0976 41.3166 41.7071 41.7071C41.3166 42.0976 40.6834 42.0976 40.2929 41.7071L35.6177 37.0319C34.078 38.2635 32.125 39 30 39C25.0294 39 21 34.9706 21 30ZM30 23C26.134 23 23 26.134 23 30C23 33.866 26.134 37 30 37C33.866 37 37 33.866 37 30C37 26.134 33.866 23 30 23Z" fill="black"/>
<path fill-rule="evenodd" clip-rule="evenodd" d="M74.9056 36.3199C73.551 37.3729 71.8487 38 70 38C65.5817 38 62 34.4183 62 30C62 25.5817 65.5817 22 70 22C74.4183 22 78 25.5817 78 30C78 31.8487 77.3729 33.551 76.3199 34.9056L81.7071 40.2929C82.0976 40.6834 82.0976 41.3166 81.7071 41.7071C81.3166 42.0976 80.6834 42.0976 80.2929 41.7071L74.9056 36.3199ZM70 26C70.5523 26 71 26.4477 71 27V29H73C73.5523 29 74 29.4477 74 30C74 30.5523 73.5523 31 73 31H71V33C71 33.5523 70.5523 34 70 34C69.4477 34 69 33.5523 69 33V31H67C66.4477 31 66 30.5523 66 30C66 29.4477 66.4477 29 67 29H69V27C69 26.4477 69.4477 26 70 26Z" fill="black"/>
</svg>
