<svg width="208" height="194" viewBox="0 0 208 194" fill="none" xmlns="http://www.w3.org/2000/svg">
<g clip-path="url(#clip0_10152_2208)">
<path fill-rule="evenodd" clip-rule="evenodd" d="M120.242 1.15791L199.49 30.9869L199.385 115.663L87.755 192.818L8.50724 162.989L8.61216 78.3132L120.242 1.15791Z" fill="black"/>
<path d="M9.04083 162.436L8.83664 78.1811L88.7111 107.37L87.9968 192.652L9.04083 162.436Z" fill="url(#paint0_linear_10152_2208)"/>
<path d="M119.734 85.9281L120.217 1.164L199.405 30.8619L199.386 115.662L119.734 85.9281Z" fill="url(#paint1_linear_10152_2208)"/>
<path d="M119.736 85.9275L120.195 1.21387L8.13816 78.665L8.4939 162.816L119.736 85.9275Z" fill="#6B2B03"/>
<path d="M140.47 130.687V102.379H153.274L163.988 126.985V102.379H170.956V130.687H158.457L147.438 105.384V130.687H140.47Z" fill="white"/>
<path d="M119.996 124.154V130.687H91.0781V102.379H119.996V108.911H98.0462V113.267H118.254V119.799H98.0462V124.154H119.996Z" fill="white"/>
<path d="M39.2617 130.687V102.379H58.4239C65.7403 102.379 70.618 107.257 70.618 114.573V118.493C70.618 125.809 65.7403 130.687 58.4239 130.687H39.2617ZM46.2298 124.154H58.4239C61.5595 124.154 63.6499 121.889 63.6499 118.493V114.573C63.6499 111.176 61.5595 108.911 58.4239 108.911H46.2298V124.154Z" fill="white"/>
<path d="M150.313 91.6085V78.6305L136.638 63.3008H145.435L153.797 72.6641L162.159 63.3008H170.956L157.281 78.6305V91.6085H150.313Z" fill="white"/>
<path d="M87.1791 91.6085L99.7216 63.3008H108.954L121.497 91.6085H113.919L104.338 69.964L94.7568 91.6085H87.1791Z" fill="white"/>
<path d="M39.2617 91.6085V63.3008H60.732C65.6968 63.3008 69.747 67.0897 69.747 72.7948C69.747 77.8902 66.5678 81.4177 62.4305 82.2016L69.0502 91.6085H60.5578L54.0253 82.3323H46.2298V91.6085H39.2617ZM46.2298 75.7997H58.5545C61.4289 75.7997 62.7789 74.6239 62.7789 72.7948C62.7789 71.0092 61.4289 69.8333 58.5545 69.8333H46.2298V75.7997Z" fill="white"/>
</g>
<defs>
<linearGradient id="paint0_linear_10152_2208" x1="77.9969" y1="119.701" x2="-36.1323" y2="176.379" gradientUnits="userSpaceOnUse">
<stop stop-color="#230E00"/>
<stop offset="1" stop-color="#893700"/>
</linearGradient>
<linearGradient id="paint1_linear_10152_2208" x1="119.818" y1="86.0487" x2="199.488" y2="30.9826" gradientUnits="userSpaceOnUse">
<stop stop-color="#FF6200"/>
<stop offset="1" stop-color="#FFBF10"/>
</linearGradient>
<clipPath id="clip0_10152_2208">
<rect width="207.995" height="193.973" fill="white"/>
</clipPath>
</defs>
</svg>
