<svg width="132" height="68" viewBox="0 0 132 68" fill="none" xmlns="http://www.w3.org/2000/svg">
<path d="M101.209 67.3859V39.0781H114.012L124.726 63.6841V39.0781H131.694V67.3859H119.195L108.177 42.0831V67.3859H101.209Z" fill="#FFFCF5"/>
<path d="M80.7339 60.8533V67.3859H51.8164V39.0781H80.7339V45.6107H58.7845V49.9657H78.9918V56.4983H58.7845V60.8533H80.7339Z" fill="#FFFCF5"/>
<path d="M0 67.3859V39.0781H19.1621C26.4786 39.0781 31.3563 43.9558 31.3563 51.2722V55.1918C31.3563 62.5082 26.4786 67.3859 19.1621 67.3859H0ZM6.96806 60.8533H19.1621C22.2978 60.8533 24.3882 58.5887 24.3882 55.1918V51.2722C24.3882 47.8753 22.2978 45.6107 19.1621 45.6107H6.96806V60.8533Z" fill="#FFFCF5"/>
<path d="M111.051 28.3077V15.3297L97.3763 5.75653e-06H106.173L114.535 9.36333L122.897 5.75653e-06H131.694L118.019 15.3297V28.3077H111.051Z" fill="#FFFCF5"/>
<path d="M47.9173 28.3077L60.4599 5.75653e-06H69.6925L82.235 28.3077H74.6573L65.0762 6.66321L55.4951 28.3077H47.9173Z" fill="#FFFCF5"/>
<path d="M0 28.3077V5.75653e-06H21.4703C26.4351 5.75653e-06 30.4853 3.78889 30.4853 9.49399C30.4853 14.5894 27.3061 18.117 23.1688 18.9009L29.7884 28.3077H21.2961L14.7636 19.0315H6.96806V28.3077H0ZM6.96806 12.499H19.2928C22.1671 12.499 23.5172 11.3231 23.5172 9.49399C23.5172 7.70842 22.1671 6.53256 19.2928 6.53256H6.96806V12.499Z" fill="#FFFCF5"/>
</svg>
