<svg width="132" height="68" viewBox="0 0 132 68" fill="none" xmlns="http://www.w3.org/2000/svg">
<path d="M101.209 67.3859V39.0781H114.013L124.726 63.6841V39.0781H131.695V67.3859H119.196L108.177 42.0831V67.3859H101.209Z" fill="black"/>
<path d="M80.7345 60.8533V67.3859H51.817V39.0781H80.7345V45.6107H58.7851V49.9657H78.9924V56.4983H58.7851V60.8533H80.7345Z" fill="black"/>
<path d="M0.000613297 67.3859V39.0781H19.1628C26.4792 39.0781 31.3569 43.9558 31.3569 51.2722V55.1918C31.3569 62.5082 26.4792 67.3859 19.1628 67.3859H0.000613297ZM6.96867 60.8533H19.1628C22.2984 60.8533 24.3888 58.5887 24.3888 55.1918V51.2722C24.3888 47.8753 22.2984 45.6107 19.1628 45.6107H6.96867V60.8533Z" fill="black"/>
<path d="M111.052 28.3077V15.3297L97.3769 5.75653e-06H106.174L114.536 9.36333L122.897 5.75653e-06H131.695L118.02 15.3297V28.3077H111.052Z" fill="black"/>
<path d="M47.918 28.3077L60.4605 5.75653e-06H69.6931L82.2356 28.3077H74.6579L65.0768 6.66321L55.4957 28.3077H47.918Z" fill="black"/>
<path d="M0.000613297 28.3077V5.75653e-06H21.4709C26.4357 5.75653e-06 30.4859 3.78889 30.4859 9.49399C30.4859 14.5894 27.3067 18.117 23.1694 18.9009L29.7891 28.3077H21.2967L14.7642 19.0315H6.96867V28.3077H0.000613297ZM6.96867 12.499H19.2934C22.1677 12.499 23.5178 11.3231 23.5178 9.49399C23.5178 7.70842 22.1677 6.53256 19.2934 6.53256H6.96867V12.499Z" fill="black"/>
</svg>
