<svg width="150" height="150" viewBox="0 0 150 150" fill="none" xmlns="http://www.w3.org/2000/svg">
<path d="M75 128.201C103.319 128.201 126.276 119.195 126.276 108.086C126.276 96.9767 103.319 87.9708 75 87.9708C46.6809 87.9708 23.7236 96.9767 23.7236 108.086C23.7236 119.195 46.6809 128.201 75 128.201Z" fill="#F9FAFB"/>
<path d="M54.4528 47.9069L52.4306 60.5875H45.8584L47.8806 47.9069H54.4528Z" fill="#F7F9FC"/>
<path d="M87.1346 61.0111C87.5721 61.0111 87.8721 61.3528 87.804 61.775C87.7374 62.1972 87.329 62.5403 86.8901 62.5403H61.2026C60.7651 62.5403 60.4638 62.1972 60.5318 61.775C60.5985 61.3528 61.0082 61.0111 61.4457 61.0111H87.1346Z" fill="#667185"/>
<path d="M89.2695 51.9541H104.235L101.99 66.0277L101.101 71.6027H61.7181C60.2834 71.6027 59.1764 70.675 59.0181 69.3375L58.8959 68.2916C58.7375 66.9555 57.6306 66.0264 56.1959 66.0264H44.9917L45.6153 62.1125H53.7723L56.282 46.3764H48.125L49.5778 37.2639H91.3514L91.5709 37.5139L89.2695 51.9541ZM87.7084 57.4166C88.1459 57.4166 88.5542 57.075 88.6209 56.6527C88.6875 56.2305 88.3889 55.8875 87.9514 55.8875H62.2625C61.825 55.8875 61.4153 56.2305 61.3473 56.6527C61.2806 57.075 61.5806 57.4166 62.0181 57.4166H87.7084ZM86.8917 62.5389C87.3292 62.5389 87.7375 62.1958 87.8056 61.7736C87.8723 61.3514 87.5736 61.0097 87.1361 61.0097H61.4459C61.0084 61.0097 60.5986 61.3514 60.532 61.7736C60.4653 62.1958 60.7653 62.5389 61.2028 62.5389H86.8917ZM86.075 67.6583C86.5125 67.6583 86.9209 67.3166 86.9875 66.8944C87.0542 66.4722 86.7556 66.1291 86.3181 66.1291H60.6292C60.1917 66.1291 59.782 66.4722 59.7139 66.8944C59.6473 67.3166 59.9473 67.6583 60.3848 67.6583H86.075Z" fill="#F7F9FC"/>
<path d="M86.3179 66.1306C86.7554 66.1306 87.054 66.4736 86.9874 66.8958C86.9207 67.3181 86.5124 67.6597 86.0749 67.6597H60.386C59.9485 67.6597 59.6471 67.3181 59.7152 66.8958C59.7818 66.4736 60.1915 66.1306 60.6304 66.1306H86.3179Z" fill="#667185"/>
<path d="M86.3179 66.1306C86.7554 66.1306 87.054 66.4736 86.9874 66.8958C86.9207 67.3181 86.5124 67.6597 86.0749 67.6597H60.386C59.9485 67.6597 59.6471 67.3181 59.7152 66.8958C59.7818 66.4736 60.1915 66.1306 60.6304 66.1306H86.3179Z" fill="#667185"/>
<path d="M114.525 72.0611C114.523 72.0181 114.519 71.975 114.515 71.932C114.512 71.907 114.511 71.8806 114.508 71.8556C114.503 71.8084 114.494 71.7611 114.486 71.7139C114.483 71.6973 114.482 71.6806 114.478 71.6639C114.478 71.6611 114.476 71.6584 114.475 71.6542C114.465 71.6042 114.453 71.5542 114.44 71.5056C114.437 71.4931 114.434 71.4792 114.43 71.4667C114.414 71.4056 114.394 71.3445 114.372 71.2847C114.372 71.2834 114.371 71.282 114.371 71.2806C114.369 71.2778 114.368 71.275 114.366 71.2709C114.333 71.1806 114.296 71.0945 114.253 71.0097C114.248 71.0028 114.247 70.9945 114.243 70.9875C114.241 70.9834 114.239 70.9806 114.236 70.9764C114.197 70.9028 114.155 70.8306 114.109 70.7611C114.105 70.7542 114.101 70.7472 114.097 70.7403C114.076 70.7097 114.055 70.6792 114.034 70.65L111.422 67.0875C111.448 67.1236 111.473 67.1611 111.497 67.1986C111.543 67.2681 111.584 67.3403 111.623 67.4139C111.629 67.425 111.634 67.4361 111.64 67.4472C111.682 67.532 111.721 67.6195 111.754 67.7084C111.755 67.7125 111.758 67.7167 111.759 67.7222C111.78 67.782 111.8 67.8431 111.818 67.9042C111.822 67.9167 111.823 67.9306 111.828 67.9431C111.84 67.9917 111.853 68.0417 111.862 68.0917C111.866 68.1111 111.869 68.1306 111.872 68.15C111.88 68.1972 111.887 68.2431 111.894 68.2917C111.897 68.3167 111.898 68.3431 111.901 68.3681C111.905 68.4111 111.908 68.4542 111.911 68.4972C111.912 68.525 111.912 68.5528 111.912 68.5806C111.912 68.6222 111.912 68.6653 111.911 68.707C111.909 68.7347 111.909 68.7639 111.907 68.7931C111.904 68.8361 111.9 68.8792 111.896 68.9236C111.893 68.9514 111.89 68.9792 111.886 69.0084C111.879 69.0556 111.872 69.1014 111.862 69.1486C111.858 69.1736 111.854 69.1986 111.848 69.2236C111.836 69.2847 111.821 69.3459 111.804 69.407C111.801 69.4181 111.798 69.4292 111.796 69.4417C111.775 69.5139 111.751 69.5875 111.725 69.6597C111.716 69.682 111.707 69.7042 111.698 69.7264C111.679 69.7778 111.658 69.8292 111.636 69.8792C111.609 69.9375 111.583 69.9959 111.554 70.0556L92.8109 107.033L92.7164 106.906C92.6831 106.982 92.647 107.056 92.6081 107.129C92.6053 107.135 92.6025 107.139 92.6012 107.144C92.5637 107.215 92.5234 107.283 92.4817 107.351C92.4248 107.443 92.3651 107.531 92.3012 107.617C92.2831 107.642 92.2637 107.664 92.2456 107.688C92.2025 107.742 92.1595 107.796 92.1137 107.849C92.09 107.876 92.0651 107.903 92.0401 107.929C91.9984 107.974 91.9553 108.018 91.9109 108.061C91.8845 108.086 91.8595 108.113 91.8331 108.136C91.7859 108.179 91.7373 108.221 91.6887 108.263C91.6637 108.283 91.6401 108.304 91.6151 108.325C91.5401 108.386 91.4623 108.444 91.3817 108.499C91.2984 108.556 91.2123 108.608 91.1248 108.66C91.1012 108.674 91.0762 108.686 91.0512 108.7C90.9762 108.742 90.8998 108.781 90.822 108.817C90.7914 108.832 90.7595 108.846 90.7289 108.86C90.6998 108.872 90.6706 108.885 90.6414 108.896C90.5942 108.915 90.547 108.933 90.4998 108.95C90.4692 108.961 90.4401 108.971 90.4095 108.982C90.3623 108.997 90.3151 109.013 90.2678 109.025C90.2345 109.035 90.2025 109.044 90.1692 109.053C90.1206 109.065 90.0706 109.076 90.0206 109.088C89.9887 109.094 89.9567 109.101 89.9262 109.108C89.872 109.118 89.8164 109.126 89.7609 109.133C89.7345 109.138 89.7067 109.142 89.6803 109.144C89.5984 109.154 89.515 109.161 89.4331 109.164L92.0456 112.726C92.0498 112.726 92.0539 112.725 92.0581 112.725L92.0595 112.726C92.0678 112.726 92.0762 112.726 92.0859 112.726C92.1248 112.726 92.1623 112.725 92.2012 112.724C92.2178 112.722 92.2345 112.719 92.2512 112.719C92.3345 112.715 92.4178 112.707 92.4998 112.696C92.5248 112.693 92.5484 112.69 92.5734 112.688C92.6789 112.672 92.7831 112.651 92.8873 112.625C92.9123 112.619 92.9359 112.611 92.9595 112.606C93.0137 112.59 93.0692 112.578 93.1234 112.56C93.1526 112.55 93.1817 112.539 93.2109 112.529C93.2331 112.522 93.2539 112.514 93.2762 112.507C93.3664 112.474 93.4553 112.439 93.5428 112.4C93.5484 112.397 93.5539 112.393 93.5609 112.392C93.5664 112.389 93.5734 112.388 93.5803 112.383C93.5803 112.383 93.5803 112.382 93.5789 112.382C93.5789 112.382 93.5789 112.383 93.5803 112.383C93.6776 112.339 93.772 112.289 93.8651 112.236C93.8678 112.235 93.8692 112.233 93.872 112.232C93.8998 112.217 93.9248 112.199 93.9512 112.182C94.0137 112.144 94.0762 112.107 94.1373 112.065C94.1428 112.063 94.147 112.06 94.1526 112.056C94.1901 112.031 94.2248 112.001 94.2609 111.974C94.3039 111.942 94.347 111.913 94.3873 111.879C94.3928 111.875 94.397 111.872 94.4026 111.868C94.4414 111.838 94.4762 111.803 94.5137 111.771C94.5456 111.743 94.5789 111.717 94.6095 111.688C94.6164 111.681 94.6234 111.675 94.6303 111.668C94.6317 111.667 94.6317 111.667 94.6331 111.665C94.6345 111.664 94.6345 111.664 94.6359 111.663C94.6442 111.656 94.6526 111.647 94.6595 111.64C94.6776 111.624 94.6914 111.604 94.7095 111.588C94.7567 111.54 94.8053 111.493 94.8498 111.443C94.8623 111.429 94.8734 111.414 94.8859 111.4C94.8956 111.389 94.9081 111.378 94.9178 111.367C94.9275 111.356 94.9373 111.343 94.947 111.332C94.9789 111.293 95.0095 111.254 95.04 111.214C95.0456 111.207 95.0525 111.2 95.0581 111.192C95.0595 111.189 95.0609 111.186 95.0637 111.183C95.1276 111.099 95.1873 111.01 95.2442 110.919C95.2498 110.91 95.2567 110.901 95.2623 110.893C95.2678 110.885 95.272 110.875 95.2776 110.867C95.322 110.793 95.3637 110.719 95.4026 110.642L114.173 73.6139C114.198 73.5639 114.223 73.5125 114.246 73.4625C114.25 73.4542 114.253 73.4459 114.255 73.4389C114.278 73.3875 114.298 73.3361 114.318 73.2861C114.326 73.2639 114.336 73.2417 114.344 73.2195C114.371 73.1472 114.394 73.0736 114.415 73.0014C114.418 72.9903 114.421 72.9792 114.423 72.9667C114.44 72.9056 114.455 72.8445 114.468 72.7834C114.473 72.7584 114.478 72.7334 114.482 72.7084C114.49 72.6611 114.498 72.6139 114.505 72.5681C114.509 72.5403 114.512 72.5125 114.515 72.4834C114.519 72.4403 114.523 72.3959 114.526 72.3528C114.528 72.3236 114.529 72.2959 114.53 72.2667C114.532 72.2236 114.532 72.182 114.532 72.1403C114.526 72.1167 114.526 72.0889 114.525 72.0611Z" fill="#667185"/>
<path d="M91.8901 113.05L88.8318 108.879L89.4179 108.856C89.4929 108.853 89.5679 108.846 89.6429 108.838C89.6554 108.836 89.6679 108.835 89.679 108.832L89.7165 108.826C89.7665 108.819 89.8165 108.813 89.8665 108.803C89.8846 108.8 89.904 108.796 89.9221 108.792L89.954 108.785C89.9984 108.775 90.0443 108.765 90.0887 108.754C90.1137 108.747 90.1373 108.74 90.1623 108.733L90.179 108.728C90.2221 108.715 90.2665 108.703 90.3096 108.688C90.3373 108.678 90.3651 108.668 90.3929 108.658C90.436 108.643 90.4804 108.626 90.5235 108.608C90.5554 108.596 90.579 108.586 90.604 108.575C90.6248 108.567 90.6429 108.557 90.6623 108.547L90.6901 108.535C90.7623 108.501 90.8318 108.465 90.9012 108.428L90.9304 108.413C90.9429 108.406 90.9568 108.399 90.9693 108.392C91.0596 108.339 91.1359 108.292 91.2054 108.243C91.2734 108.196 91.3429 108.144 91.4193 108.083C91.4318 108.072 91.4457 108.063 91.4582 108.051L91.4873 108.026C91.5318 107.989 91.5762 107.95 91.6193 107.91C91.6401 107.89 91.6596 107.871 91.6804 107.851L91.6915 107.84C91.7318 107.801 91.7707 107.76 91.8096 107.719C91.8318 107.696 91.854 107.671 91.8762 107.646C91.9193 107.597 91.9582 107.549 91.9985 107.499L92.0207 107.471C92.0304 107.458 92.0401 107.446 92.0498 107.433C92.111 107.353 92.1665 107.271 92.2151 107.19C92.254 107.128 92.2901 107.065 92.3248 107.001L92.3304 106.989C92.3665 106.921 92.3998 106.853 92.429 106.783L92.6457 106.286L92.7596 106.442L111.278 69.9139C111.305 69.8597 111.329 69.807 111.353 69.7528C111.373 69.7056 111.392 69.6597 111.41 69.6125L111.433 69.5528C111.457 69.4861 111.479 69.4209 111.497 69.3542L111.504 69.3236C111.519 69.2681 111.533 69.2125 111.544 69.1584L111.557 69.0917C111.565 69.0486 111.572 69.007 111.578 68.9653C111.58 68.9472 111.582 68.9278 111.585 68.9084L111.586 68.8903C111.59 68.8514 111.594 68.8125 111.596 68.7736C111.597 68.7486 111.598 68.7236 111.598 68.6986C111.6 68.6597 111.6 68.6222 111.6 68.5847C111.6 68.5597 111.6 68.5361 111.598 68.5111C111.597 68.4736 111.594 68.4347 111.59 68.3972L111.587 68.3722C111.586 68.3584 111.585 68.3445 111.583 68.3292C111.578 68.2875 111.571 68.2459 111.564 68.2042L111.555 68.1514C111.547 68.107 111.536 68.0639 111.525 68.0195L111.518 67.9917C111.501 67.9306 111.485 67.8778 111.465 67.825L111.462 67.8181C111.433 67.7389 111.401 67.6639 111.361 67.5847L111.351 67.5639C111.315 67.4945 111.278 67.4306 111.236 67.3667C111.214 67.3334 111.193 67.3014 111.171 67.2695L111.675 66.9C111.676 66.9014 111.678 66.9028 111.678 66.9042L114.287 70.4625C114.312 70.4959 114.336 70.5292 114.358 70.5639L114.378 70.5972C114.423 70.6667 114.469 70.7445 114.51 70.8209L114.519 70.8375C114.528 70.8542 114.533 70.8681 114.539 70.8806C114.582 70.9653 114.622 71.057 114.655 71.15L114.669 71.1889C114.689 71.2445 114.711 71.3125 114.73 71.3806C114.733 71.3931 114.736 71.4042 114.739 71.4167C114.755 71.4792 114.768 71.5348 114.779 71.5917L114.783 71.6098C114.785 71.6167 114.787 71.632 114.789 71.6472C114.8 71.7097 114.808 71.7625 114.814 71.8153C114.817 71.8375 114.818 71.8597 114.821 71.882L114.822 71.9014C114.826 71.9486 114.83 71.9959 114.832 72.0445C114.833 72.075 114.833 72.1056 114.835 72.1361C114.836 72.182 114.835 72.2292 114.833 72.2778C114.832 72.3098 114.83 72.3403 114.829 72.3722C114.826 72.4209 114.822 72.4681 114.817 72.5167L114.815 72.5334C114.812 72.5584 114.81 72.5847 114.807 72.6097C114.8 72.6611 114.79 72.7125 114.782 72.7639L114.778 72.7875C114.775 72.807 114.771 72.8278 114.767 72.8472C114.753 72.9139 114.736 72.982 114.718 73.0486C114.714 73.0653 114.711 73.0764 114.708 73.0861C114.686 73.1653 114.66 73.2459 114.63 73.325C114.625 73.3417 114.618 73.3584 114.611 73.375L114.603 73.3959C114.58 73.4514 114.558 73.507 114.535 73.5625C114.532 73.5709 114.528 73.5806 114.523 73.5903C114.498 73.6445 114.473 73.6986 114.446 73.7542L95.6748 110.782C95.6359 110.857 95.5915 110.938 95.5387 111.026C95.5346 111.035 95.529 111.044 95.5235 111.054C95.5165 111.065 95.5096 111.076 95.5026 111.086C95.4401 111.185 95.379 111.275 95.3165 111.36L95.3221 111.367L95.1498 111.567L95.1485 111.568L94.9096 111.847L94.8985 111.835C94.8901 111.844 94.8804 111.853 94.8721 111.863L94.8179 111.914C94.7943 111.936 94.7707 111.956 94.7471 111.976L94.679 112.035C94.6512 112.06 94.6235 112.085 94.5943 112.108L94.5721 112.125C94.5443 112.147 94.5096 112.174 94.4748 112.199L94.4054 112.25C94.379 112.271 94.3512 112.292 94.3235 112.311L94.2998 112.326C94.2429 112.365 94.1762 112.406 94.1096 112.446L94.0818 112.464C94.0679 112.474 94.0526 112.482 94.0387 112.492L94.0485 112.504L93.7248 112.656C93.7193 112.658 93.7137 112.661 93.7082 112.663L93.4804 112.768L93.4748 112.761C93.4443 112.772 93.4123 112.785 93.379 112.797L93.279 112.832C93.2568 112.84 93.236 112.847 93.2137 112.854C93.1665 112.869 93.1179 112.882 93.0707 112.894L93.0137 112.917C92.9957 112.922 92.9776 112.928 92.9582 112.932C92.8457 112.96 92.7304 112.982 92.6165 113C92.5971 113.003 92.579 113.006 92.5596 113.007L92.536 113.01C92.4443 113.022 92.3526 113.031 92.2651 113.035C92.2443 113.038 92.2276 113.039 92.2109 113.04C92.1679 113.042 92.1262 113.043 92.0846 113.043H92.0554H92.0498L91.8901 113.05ZM89.9998 109.414L92.1998 112.413C92.211 112.411 92.2207 112.41 92.2318 112.41C92.3068 112.406 92.3832 112.399 92.4582 112.389L92.5248 112.381C92.6207 112.367 92.7165 112.347 92.8109 112.324L92.9151 112.296C92.9526 112.286 92.9915 112.276 93.029 112.264C93.0429 112.26 93.0568 112.254 93.0707 112.25L93.1693 112.215C93.2651 112.181 93.3429 112.149 93.4137 112.117C93.4123 112.117 93.4207 112.113 93.429 112.108L93.454 112.099C93.5387 112.06 93.6248 112.015 93.7096 111.967L93.7234 111.958C93.729 111.954 93.7373 111.95 93.7457 111.944C93.7596 111.935 93.7748 111.926 93.7887 111.917C93.8485 111.881 93.9054 111.847 93.9596 111.81L93.9818 111.796C93.9915 111.789 94.0096 111.775 94.0276 111.761L94.1096 111.7C94.136 111.681 94.1637 111.661 94.1901 111.64L94.211 111.625C94.2248 111.614 94.2443 111.596 94.2637 111.578L94.3484 111.504C94.3637 111.492 94.3804 111.478 94.3943 111.464L94.4526 111.407C94.4637 111.394 94.4748 111.382 94.4859 111.371L94.5151 111.342C94.5498 111.307 94.5832 111.274 94.6165 111.238C94.6318 111.219 94.6401 111.208 94.6484 111.199C94.6582 111.188 94.6665 111.178 94.6762 111.169L94.9137 111.368L94.679 111.167L94.7054 111.136C94.7332 111.103 94.7582 111.069 94.7846 111.036C94.7943 111.022 94.8012 111.015 94.8068 111.008L94.8123 111C94.8665 110.928 94.9207 110.849 94.9762 110.758C94.9818 110.75 94.9887 110.739 94.9957 110.729C94.9957 110.728 95.0012 110.719 95.0054 110.71C95.0457 110.643 95.0846 110.575 95.1207 110.504L113.892 73.4778C113.915 73.432 113.937 73.3847 113.958 73.3389L113.968 73.3167C113.989 73.2709 114.007 73.2236 114.025 73.1778L114.048 73.1181C114.072 73.0514 114.094 72.9861 114.112 72.9195L114.121 72.8889C114.136 72.8347 114.15 72.7792 114.161 72.7236L114.173 72.6556C114.182 72.6139 114.189 72.5709 114.194 72.5292C114.197 72.5098 114.198 72.4903 114.201 72.4709L114.203 72.4542C114.207 72.4153 114.211 72.3764 114.212 72.3375C114.214 72.3125 114.215 72.2875 114.215 72.2611C114.217 72.2236 114.217 72.1861 114.217 72.1486C114.217 72.1236 114.217 72.0986 114.215 72.075C114.214 72.0375 114.211 71.9986 114.207 71.9611L114.205 71.9375C114.204 71.9222 114.203 71.907 114.201 71.8917C114.196 71.85 114.19 71.8097 114.182 71.7681L114.175 71.7223C114.173 71.7167 114.172 71.7125 114.172 71.707C114.165 71.6709 114.154 71.6278 114.143 71.5834L114.136 71.5556C114.121 71.4972 114.104 71.4459 114.086 71.3945C114.085 71.3917 114.082 71.3861 114.08 71.3792C114.053 71.3042 114.021 71.2292 113.98 71.1486L113.965 71.1181C113.933 71.057 113.897 70.9959 113.855 70.9306L113.837 70.9014C113.826 70.8861 113.808 70.8597 113.79 70.8347L112.23 68.707C112.23 68.7097 112.23 68.7139 112.23 68.7167C112.229 68.7486 112.228 68.7806 112.226 68.8125C112.223 68.8597 112.219 68.9084 112.214 68.957L112.212 68.975C112.21 69 112.207 69.025 112.204 69.05C112.197 69.1028 112.187 69.1542 112.178 69.207L112.173 69.2306C112.171 69.25 112.167 69.2695 112.162 69.2889C112.148 69.357 112.132 69.4236 112.112 69.4917L112.104 69.5264C112.08 69.6084 112.055 69.6875 112.026 69.7667C112.021 69.7834 112.014 69.8 112.007 69.8167L111.998 69.8375C111.976 69.8931 111.955 69.9486 111.93 70.0042C111.903 70.0681 111.873 70.132 111.84 70.1945L92.8637 107.625L92.7651 107.49C92.7609 107.497 92.7568 107.506 92.7512 107.513C92.6929 107.608 92.6262 107.704 92.5554 107.8C92.5415 107.818 92.5276 107.836 92.5137 107.854L92.4957 107.878C92.4484 107.938 92.4012 107.996 92.3512 108.053C92.3262 108.082 92.2998 108.111 92.2721 108.14C92.2262 108.189 92.1804 108.236 92.1332 108.283L92.1221 108.294C92.0985 108.318 92.0735 108.342 92.0498 108.365C91.9985 108.413 91.9471 108.457 91.8943 108.501L91.8707 108.522C91.8526 108.538 91.8346 108.554 91.8151 108.568C91.7262 108.639 91.6443 108.7 91.5637 108.756C91.4818 108.813 91.3915 108.869 91.2873 108.929C91.2693 108.94 91.2498 108.95 91.2318 108.96L91.2082 108.972C91.1276 109.017 91.0443 109.06 90.9596 109.099L90.9346 109.11C90.9096 109.122 90.8832 109.133 90.8582 109.146C90.8304 109.158 90.7998 109.171 90.7707 109.182C90.7123 109.206 90.661 109.225 90.6096 109.244C90.5776 109.256 90.5443 109.268 90.5123 109.279C90.461 109.296 90.4096 109.311 90.3582 109.326L90.3415 109.331C90.311 109.339 90.2804 109.349 90.2512 109.356C90.1984 109.369 90.1443 109.381 90.0901 109.393L90.0623 109.399C90.0387 109.407 90.0193 109.411 89.9998 109.414Z" fill="#F9FAFB"/>
<path d="M109.194 66.0292C111.36 66.0292 112.561 68.0764 111.557 70.0556L92.786 107.083C92.1541 108.329 90.8082 109.169 89.4443 109.168C90.8179 109.111 92.1513 108.199 92.7166 106.906L106.472 75.4514C107.321 73.5111 106.108 71.6042 104.023 71.6042H101.098L101.987 66.0292H109.194Z" fill="#D0D5DD"/>
<path d="M89.4471 109.481C89.4457 109.481 89.4443 109.481 89.4429 109.481L89.4304 108.856C90.6846 108.804 91.9179 107.951 92.429 106.781L106.185 75.3264C106.551 74.4875 106.51 73.6195 106.068 72.9459C105.64 72.2931 104.896 71.9181 104.022 71.9181H100.732L101.721 65.7181H109.193C110.315 65.7181 111.267 66.2195 111.804 67.0959C112.354 67.9917 112.365 69.1528 111.835 70.1986L93.0637 107.224C92.379 108.574 90.9263 109.481 89.4471 109.481ZM101.467 71.2917H104.025C105.112 71.2917 106.048 71.7695 106.593 72.6028C107.151 73.457 107.212 74.5403 106.758 75.5764L96.404 99.2528L111.278 69.9139C111.717 69.05 111.714 68.1403 111.272 67.4209C110.851 66.7347 110.094 66.3417 109.194 66.3417H102.255L101.467 71.2917Z" fill="#F9FAFB"/>
<path d="M109.354 77.6153C109.351 77.5681 109.349 77.5209 109.343 77.4736C109.34 77.45 109.338 77.4264 109.335 77.4028C109.329 77.3611 109.324 77.3195 109.315 77.2778C109.313 77.2653 109.313 77.2528 109.31 77.2403C109.307 77.2278 109.304 77.2167 109.301 77.2042C109.293 77.1667 109.285 77.1278 109.275 77.0903C109.27 77.0667 109.263 77.0431 109.257 77.0195C109.246 76.9806 109.233 76.9417 109.22 76.9028C109.214 76.8875 109.21 76.8709 109.204 76.8556C109.203 76.8528 109.201 76.85 109.2 76.8458C109.167 76.7556 109.129 76.6695 109.086 76.5847C109.082 76.5778 109.081 76.5695 109.076 76.5625C109.074 76.557 109.07 76.5528 109.067 76.5472C109.028 76.4736 108.986 76.4028 108.942 76.3347C108.938 76.3292 108.935 76.3236 108.932 76.3181C108.911 76.2875 108.89 76.2583 108.869 76.2292L106.257 72.6667C106.282 72.7014 106.306 72.7375 106.329 72.7736C106.374 72.8431 106.417 72.9139 106.454 72.9861C106.461 72.9986 106.467 73.0111 106.474 73.0236C106.517 73.1084 106.554 73.1959 106.588 73.2847C106.594 73.3042 106.6 73.3222 106.607 73.3417C106.62 73.3806 106.633 73.4195 106.645 73.4584C106.651 73.482 106.657 73.5056 106.663 73.5292C106.672 73.5667 106.681 73.6042 106.689 73.6431C106.694 73.6681 106.699 73.6917 106.703 73.7167C106.71 73.7584 106.717 73.8 106.722 73.8417C106.725 73.8653 106.729 73.8889 106.731 73.9125C106.735 73.9597 106.739 74.007 106.74 74.0542C106.742 74.0736 106.743 74.0931 106.743 74.1125C106.744 74.1792 106.744 74.2472 106.742 74.3153C106.742 74.3264 106.74 74.3375 106.739 74.35C106.736 74.407 106.732 74.4639 106.725 74.5222C106.722 74.5459 106.718 74.5695 106.715 74.5931C106.708 74.6389 106.701 74.6861 106.693 74.732C106.689 74.7584 106.683 74.7847 106.678 74.8111C106.668 74.8556 106.657 74.9014 106.646 74.9472C106.639 74.9736 106.632 75 106.625 75.0264C106.611 75.075 106.596 75.1236 106.579 75.1722C106.571 75.1945 106.564 75.2181 106.556 75.2403C106.531 75.3111 106.501 75.3834 106.471 75.4542L92.7153 106.908C92.682 106.985 92.6459 107.058 92.607 107.132C92.6042 107.138 92.6014 107.142 92.6001 107.147C92.5626 107.218 92.5223 107.286 92.4806 107.354C92.4237 107.446 92.3639 107.533 92.3001 107.619C92.282 107.644 92.2626 107.667 92.2445 107.69C92.2014 107.744 92.1584 107.799 92.1126 107.851C92.0889 107.879 92.0639 107.906 92.0389 107.932C91.9973 107.976 91.9542 108.021 91.9098 108.064C91.8834 108.089 91.8584 108.115 91.832 108.139C91.7848 108.182 91.7362 108.224 91.6876 108.265C91.6626 108.286 91.6389 108.307 91.6139 108.328C91.5389 108.389 91.4612 108.447 91.3806 108.501C91.2973 108.558 91.2112 108.611 91.1237 108.663C91.1001 108.676 91.0751 108.689 91.0501 108.703C90.9751 108.744 90.8987 108.783 90.8209 108.819C90.7903 108.835 90.7584 108.849 90.7278 108.863C90.6987 108.875 90.6695 108.888 90.6403 108.899C90.5931 108.918 90.5459 108.936 90.4987 108.953C90.4681 108.964 90.4389 108.974 90.4084 108.985C90.3612 109 90.3139 109.015 90.2667 109.028C90.2334 109.038 90.2014 109.047 90.1681 109.056C90.1195 109.068 90.0695 109.079 90.0195 109.09C89.9876 109.097 89.9556 109.104 89.9251 109.111C89.8709 109.121 89.8153 109.129 89.7598 109.136C89.7334 109.14 89.7056 109.144 89.6792 109.147C89.5973 109.157 89.5139 109.164 89.432 109.167L42.5723 109.169C41.6264 109.169 40.8237 108.765 40.3403 108.107L42.9528 111.669C43.4362 112.328 44.2389 112.732 45.1848 112.732L92.0445 112.729C92.1278 112.726 92.2098 112.719 92.2917 112.71C92.3195 112.707 92.3459 112.701 92.3723 112.699C92.4278 112.692 92.482 112.683 92.5362 112.674C92.5681 112.668 92.6001 112.66 92.632 112.653C92.682 112.642 92.7306 112.632 92.7792 112.618C92.8126 112.61 92.8459 112.6 92.8792 112.59C92.9084 112.582 92.9376 112.575 92.9667 112.565C92.9848 112.56 93.0028 112.553 93.0209 112.547C93.0514 112.538 93.0806 112.526 93.1112 112.515C93.1584 112.499 93.2056 112.479 93.2528 112.461C93.282 112.449 93.3112 112.438 93.3403 112.425C93.3556 112.418 93.3709 112.413 93.3848 112.407C93.4014 112.4 93.4167 112.39 93.4334 112.382C93.5112 112.346 93.5876 112.307 93.6626 112.265C93.6792 112.257 93.6959 112.25 93.7112 112.24C93.7195 112.235 93.7278 112.229 93.7362 112.225C93.907 112.126 94.0709 112.014 94.2251 111.89C94.2306 111.886 94.2376 111.882 94.2431 111.876C94.2626 111.861 94.2792 111.843 94.2987 111.828C94.3473 111.786 94.3959 111.744 94.4431 111.701C94.4528 111.692 94.4639 111.683 94.4751 111.674C94.4917 111.658 94.5056 111.642 94.5223 111.625C94.5667 111.582 94.6098 111.538 94.6514 111.493C94.6653 111.478 94.6792 111.465 94.6931 111.45C94.7042 111.438 94.7139 111.425 94.7251 111.413C94.7709 111.36 94.8139 111.307 94.857 111.251C94.8709 111.233 94.8862 111.217 94.9001 111.199C94.9042 111.193 94.9084 111.186 94.9139 111.179C94.9778 111.093 95.0389 111.004 95.0945 110.914C95.0973 110.91 95.1014 110.906 95.1042 110.9C95.1431 110.836 95.1792 110.772 95.2139 110.707C95.2167 110.701 95.2195 110.696 95.2223 110.69C95.2528 110.631 95.2834 110.571 95.3112 110.51C95.3181 110.496 95.3237 110.481 95.3306 110.467L109.086 79.0125C109.117 78.9417 109.145 78.8695 109.171 78.7986C109.179 78.775 109.186 78.7528 109.195 78.7306C109.211 78.682 109.226 78.6334 109.24 78.5847C109.247 78.5584 109.254 78.532 109.261 78.5056C109.272 78.4597 109.283 78.4153 109.293 78.3695C109.299 78.3431 109.304 78.3167 109.308 78.2903C109.317 78.2445 109.324 78.1972 109.331 78.1514C109.333 78.1278 109.338 78.1042 109.34 78.0806C109.347 78.0222 109.351 77.9653 109.354 77.9084C109.354 77.8972 109.356 77.8861 109.357 77.8736C109.36 77.8056 109.36 77.7375 109.358 77.6708C109.357 77.6542 109.356 77.6347 109.354 77.6153Z" fill="#D0D5DD"/>
<path d="M45.1847 113.046C44.1611 113.046 43.2555 112.612 42.7014 111.856L40.0889 108.293L40.593 107.924L40.5958 107.926C41.0319 108.518 41.7528 108.858 42.5736 108.858L89.4333 108.856C89.4958 108.853 89.5708 108.846 89.6458 108.837C89.6583 108.836 89.6708 108.835 89.6819 108.832L89.7194 108.826C89.7694 108.819 89.8194 108.812 89.8694 108.803C89.8875 108.8 89.9069 108.796 89.925 108.792L89.9569 108.785C90.0014 108.775 90.0472 108.765 90.0916 108.754C90.1166 108.747 90.1403 108.74 90.1653 108.733L90.1819 108.728C90.225 108.715 90.2694 108.703 90.3125 108.687C90.3403 108.678 90.368 108.668 90.3958 108.658C90.4389 108.643 90.4833 108.626 90.5264 108.608C90.5583 108.596 90.5819 108.586 90.6069 108.575C90.6278 108.567 90.6458 108.557 90.6652 108.547L90.693 108.535C90.7652 108.501 90.8347 108.465 90.9041 108.428L90.9333 108.412C90.9458 108.406 90.9597 108.399 90.9722 108.392C91.0625 108.339 91.1389 108.292 91.2083 108.243C91.2764 108.196 91.3458 108.144 91.4222 108.083C91.4347 108.072 91.4486 108.062 91.4611 108.051L91.4902 108.026C91.5347 107.989 91.5791 107.95 91.6222 107.91C91.643 107.89 91.6625 107.871 91.6833 107.851L91.6944 107.84C91.7347 107.801 91.7736 107.76 91.8125 107.719C91.8347 107.696 91.8569 107.671 91.8791 107.646C91.9222 107.597 91.9611 107.549 92.0014 107.499L92.0236 107.471C92.0333 107.458 92.043 107.446 92.0528 107.433C92.1139 107.353 92.1694 107.271 92.218 107.19C92.2569 107.128 92.293 107.065 92.3278 107.001L92.3333 106.989C92.3694 106.921 92.4028 106.853 92.4319 106.783L106.187 75.3292C106.215 75.2639 106.242 75.1986 106.265 75.1347L106.286 75.0722C106.3 75.0292 106.315 74.9847 106.328 74.9403C106.333 74.918 106.34 74.8958 106.346 74.8736C106.358 74.8278 106.368 74.7875 106.376 74.7472C106.382 74.7236 106.386 74.7 106.39 74.6764C106.399 74.6333 106.404 74.5917 106.41 74.5514L106.418 74.4889C106.424 74.4375 106.428 74.3861 106.431 74.3347L106.432 74.3083C106.435 74.243 106.435 74.1833 106.433 74.1236L106.431 74.0722C106.428 74.0292 106.426 73.9875 106.421 73.9472C106.419 73.9305 106.417 73.9153 106.415 73.9014L106.412 73.8847C106.407 73.8472 106.401 73.8111 106.396 73.7736C106.392 73.7514 106.387 73.7305 106.383 73.7083C106.376 73.675 106.368 73.6417 106.36 73.6083L106.343 73.5458C106.333 73.5125 106.322 73.4778 106.311 73.443L106.294 73.393C106.267 73.318 106.235 73.243 106.194 73.1639L106.178 73.1305C106.144 73.0667 106.108 73.0042 106.068 72.9444C106.049 72.9139 106.028 72.8833 106.007 72.8542L106.006 72.8514L106.51 72.4819C106.51 72.4819 106.51 72.4819 106.51 72.4833L109.122 76.0444C109.146 76.0778 109.169 76.1111 109.193 76.1444L109.21 76.1708C109.258 76.2458 109.303 76.3208 109.343 76.3958C109.347 76.4028 109.351 76.4097 109.356 76.4167L109.372 76.4528C109.419 76.5472 109.458 76.6375 109.492 76.7264L109.499 76.7458C109.506 76.7639 109.51 76.7778 109.514 76.7917C109.532 76.8458 109.546 76.8903 109.56 76.9347C109.567 76.9583 109.572 76.9819 109.579 77.0055C109.592 77.0555 109.603 77.0972 109.611 77.1403C109.615 77.1569 109.618 77.168 109.619 77.1792C109.622 77.1944 109.624 77.2055 109.625 77.218C109.635 77.2694 109.642 77.3167 109.647 77.3625C109.651 77.3972 109.654 77.4194 109.657 77.443C109.662 77.4958 109.665 77.5486 109.668 77.6014L109.669 77.6194C109.671 77.6347 109.672 77.65 109.672 77.6667C109.675 77.7417 109.675 77.8167 109.671 77.8917L109.668 77.9236C109.664 77.993 109.66 78.0555 109.651 78.1194C109.649 78.1389 109.646 78.1583 109.643 78.1764L109.64 78.1972C109.633 78.2472 109.625 78.2986 109.615 78.35C109.61 78.3792 109.604 78.4083 109.599 78.4361C109.587 78.4861 109.576 78.5361 109.564 78.5861C109.557 78.6153 109.549 78.6444 109.54 78.6736C109.525 78.7264 109.508 78.7792 109.49 78.8333L109.483 78.8528C109.478 78.8708 109.471 78.8903 109.464 78.9083C109.436 78.9847 109.406 79.0625 109.372 79.1403L95.5944 110.643C95.5653 110.708 95.5319 110.774 95.4986 110.837L95.4903 110.854C95.4514 110.926 95.4125 110.997 95.3694 111.065L95.3555 111.086C95.2958 111.183 95.2319 111.276 95.1625 111.368C95.1611 111.371 95.1555 111.379 95.1486 111.389C95.1375 111.404 95.125 111.418 95.1125 111.432L95.1014 111.446C95.0541 111.506 95.0069 111.564 94.9583 111.619C94.9444 111.637 94.9347 111.649 94.9236 111.661C94.9125 111.674 94.9014 111.685 94.8889 111.697L94.8791 111.707C94.8333 111.756 94.7875 111.803 94.7403 111.85L94.7277 111.862C94.7152 111.876 94.7028 111.889 94.6889 111.901C94.6791 111.911 94.6694 111.919 94.6597 111.928C94.6041 111.979 94.5514 112.024 94.4986 112.068L94.4819 112.082C94.468 112.094 94.4528 112.108 94.4375 112.119L94.4139 112.137C94.2528 112.267 94.075 112.387 93.8903 112.496C93.8833 112.5 93.8736 112.507 93.8639 112.512C93.8486 112.521 93.8347 112.528 93.8194 112.536C93.7305 112.585 93.6472 112.626 93.5639 112.667C93.5402 112.679 93.5264 112.686 93.5111 112.693C93.5 112.699 93.4875 112.703 93.475 112.708C93.4305 112.728 93.3986 112.74 93.3666 112.753C93.3166 112.774 93.2653 112.793 93.2139 112.811C93.1819 112.822 93.1486 112.835 93.1166 112.846L93.1 112.851C93.0861 112.857 93.0722 112.861 93.0583 112.865C93.0375 112.872 93.0152 112.878 92.993 112.885L92.9472 112.897C92.9166 112.906 92.8861 112.915 92.8555 112.922C92.8028 112.936 92.7486 112.947 92.6958 112.96L92.6694 112.965C92.6444 112.971 92.618 112.976 92.593 112.982C92.5333 112.993 92.4736 113.001 92.4139 113.01L92.3875 113.014C92.3666 113.017 92.3458 113.021 92.325 113.022C92.2305 113.033 92.1416 113.04 92.0541 113.043L45.1847 113.046ZM41.643 109.356L43.2055 111.485C43.6416 112.079 44.3625 112.419 45.1847 112.419L92.0444 112.417C92.1069 112.414 92.1819 112.407 92.2569 112.399C92.2694 112.397 92.2819 112.396 92.2944 112.393L92.3305 112.387C92.3805 112.381 92.4305 112.374 92.4805 112.364C92.5 112.36 92.518 112.356 92.5361 112.351L92.5666 112.344C92.6111 112.335 92.6569 112.325 92.7014 112.314C92.7264 112.307 92.7514 112.3 92.775 112.293L92.8333 112.276C92.8472 112.272 92.8597 112.269 92.8736 112.265L92.9236 112.247C92.95 112.239 92.9778 112.228 93.0055 112.218C93.0486 112.203 93.093 112.186 93.1361 112.168C93.1639 112.157 93.1902 112.146 93.2166 112.135L93.2653 112.114C93.2778 112.107 93.2903 112.1 93.3028 112.094C93.3736 112.061 93.4444 112.025 93.5139 111.987C93.5264 111.981 93.5389 111.975 93.5514 111.968C93.5639 111.961 93.5722 111.956 93.5819 111.95C93.7402 111.858 93.8916 111.754 94.0319 111.642L94.0666 111.614C94.0778 111.604 94.0889 111.594 94.1 111.585C94.1444 111.547 94.1902 111.508 94.2333 111.468C94.2416 111.461 94.25 111.453 94.2597 111.446L94.2764 111.429C94.2861 111.419 94.2958 111.41 94.3055 111.4C94.3472 111.36 94.3861 111.319 94.425 111.278C94.4333 111.268 94.443 111.258 94.4528 111.249L94.4625 111.237C94.475 111.222 94.4833 111.212 94.4916 111.203C94.5333 111.154 94.5736 111.106 94.6139 111.056C94.6222 111.044 94.6319 111.033 94.6416 111.021L94.6528 111.007C94.6528 111.006 94.6583 110.997 94.6653 110.989C94.725 110.908 94.7805 110.826 94.8305 110.746L94.843 110.728C94.8778 110.671 94.9097 110.615 94.9403 110.558L94.9486 110.54C94.975 110.489 95.0028 110.435 95.0278 110.379L95.0458 110.34L108.801 78.8861C108.829 78.8208 108.856 78.7569 108.878 78.6917L108.899 78.6292C108.914 78.5847 108.928 78.5403 108.94 78.4972C108.947 78.4736 108.953 78.45 108.96 78.4264C108.971 78.3847 108.981 78.3444 108.989 78.3042C108.994 78.2805 108.999 78.2569 109.003 78.2333C109.011 78.1917 109.017 78.15 109.022 78.1083L109.031 78.0444C109.036 77.993 109.04 77.943 109.043 77.8917L109.044 77.868C109.047 77.8 109.047 77.7403 109.046 77.6819L109.043 77.6305C109.04 77.5889 109.037 77.5472 109.033 77.5055C109.032 77.4889 109.029 77.4708 109.026 77.4542C109.019 77.4055 109.014 77.3694 109.008 77.3319C109.007 77.3222 109.006 77.3125 109.004 77.3014C109.001 77.2861 108.999 77.2764 108.996 77.2653C108.989 77.2347 108.982 77.2014 108.972 77.168C108.965 77.1417 108.961 77.1236 108.956 77.1069C108.946 77.0722 108.935 77.0375 108.922 77.0028L108.912 76.9708C108.91 76.9639 108.907 76.9569 108.904 76.95C108.878 76.8778 108.846 76.8042 108.806 76.725L108.789 76.6917C108.757 76.6292 108.719 76.5667 108.679 76.5055L108.665 76.4833C108.65 76.4611 108.633 76.4375 108.615 76.4125L107.056 74.2861C107.056 74.3 107.054 74.3139 107.054 74.3264L107.051 74.3583C107.047 74.4278 107.043 74.4917 107.035 74.5555C107.032 74.575 107.029 74.5944 107.026 74.6139L107.024 74.6347C107.017 74.6861 107.008 74.7375 106.999 74.7889C106.993 74.8167 106.987 74.8458 106.982 74.875C106.971 74.925 106.96 74.975 106.947 75.025C106.939 75.0569 106.932 75.0847 106.924 75.1111C106.908 75.1639 106.892 75.2167 106.874 75.2708L106.865 75.2944C106.86 75.3111 106.854 75.3292 106.847 75.3458C106.819 75.4236 106.789 75.5014 106.754 75.5792L92.9986 107.033C92.9639 107.111 92.9264 107.192 92.8805 107.278L92.875 107.29C92.8319 107.372 92.7875 107.446 92.743 107.519C92.6847 107.615 92.618 107.711 92.5472 107.807C92.5333 107.825 92.5194 107.843 92.5055 107.861L92.4875 107.885C92.4402 107.944 92.393 108.003 92.343 108.06C92.318 108.089 92.2916 108.118 92.2639 108.147C92.218 108.196 92.1722 108.243 92.125 108.29L92.1139 108.301C92.0902 108.325 92.0653 108.349 92.0416 108.372C91.9903 108.419 91.9389 108.464 91.8861 108.508L91.8625 108.529C91.8444 108.544 91.8264 108.561 91.8069 108.575C91.718 108.646 91.6361 108.707 91.5555 108.762C91.4736 108.819 91.3833 108.876 91.2791 108.936C91.2611 108.947 91.2416 108.957 91.2236 108.967L91.2 108.979C91.1194 109.024 91.0361 109.067 90.9514 109.106L90.9264 109.117C90.9014 109.129 90.875 109.14 90.85 109.153C90.8222 109.165 90.7916 109.178 90.7625 109.189C90.7041 109.212 90.6528 109.232 90.6014 109.251C90.5694 109.262 90.5361 109.275 90.5041 109.286C90.4528 109.303 90.4014 109.318 90.35 109.333L90.3333 109.337C90.3028 109.346 90.2722 109.356 90.243 109.362C90.1903 109.376 90.1361 109.387 90.0819 109.4L90.0541 109.406C90.0291 109.411 90.0041 109.417 89.9778 109.421C89.918 109.432 89.8583 109.44 89.7986 109.449L89.7722 109.453C89.7514 109.456 89.7319 109.458 89.7111 109.461C89.6166 109.472 89.5277 109.479 89.4402 109.482L42.568 109.485C42.2472 109.483 41.9361 109.439 41.643 109.356ZM95.3541 111.087L95.3527 111.09C95.3541 111.089 95.3541 111.089 95.3541 111.087ZM94.8458 110.725C94.8458 110.726 94.8444 110.726 94.8444 110.728L94.8458 110.725Z" fill="#F9FAFB"/>
<path d="M106.847 55.5167L104.235 51.9542L101.99 66.0278L101.1 71.6028H104.025C104.111 71.6028 104.197 71.6055 104.279 71.6125L104.603 69.5889V69.5875L106.847 55.5167Z" fill="#E4E7EC"/>
<path d="M104.543 71.95L104.254 71.9264C104.181 71.9208 104.103 71.9167 104.025 71.9167H100.733L104.043 51.1653L107.176 55.4361L104.933 69.5042L104.913 69.6403L104.543 71.95ZM101.467 71.2917H104.015L104.295 69.5417L106.518 55.5972L104.425 52.7431L101.467 71.2917Z" fill="#F9FAFB"/>
<path d="M106.474 75.45L92.7181 106.904C92.1528 108.197 90.8195 109.111 89.432 109.167L42.5723 109.169C41.1376 109.169 40.032 108.239 39.8723 106.903L35.4917 69.875C35.2626 67.9347 37.082 66.0292 39.1653 66.0292H56.1945C57.6292 66.0292 58.7376 66.957 58.8959 68.2931L59.0195 69.3389C59.1778 70.6764 60.2834 71.6056 61.7195 71.6056H104.026C104.113 71.6056 104.199 71.6083 104.281 71.6153C106.207 71.7625 107.286 73.5903 106.474 75.45Z" fill="#D0D5DD"/>
<path d="M42.5708 109.483C40.9763 109.483 39.7388 108.437 39.5611 106.942L35.1805 69.9111C35.0666 68.9458 35.4125 67.9278 36.1319 67.1194C36.925 66.2278 38.0305 65.7153 39.1652 65.7153H56.1944C57.7902 65.7153 59.0291 66.7597 59.2055 68.2555L59.3291 69.3014C59.468 70.4736 60.4499 71.2917 61.718 71.2917H104.025C104.121 71.2917 104.214 71.2958 104.306 71.3028C105.311 71.3805 106.167 71.8875 106.651 72.6931C107.156 73.5306 107.194 74.5819 106.761 75.575L93.0055 107.029C92.3916 108.433 90.9611 109.418 89.4458 109.479L42.5708 109.483ZM39.1652 66.3417C38.2222 66.3417 37.2638 66.7875 36.5986 67.5347C35.9986 68.2097 35.7083 69.0486 35.8013 69.8375L40.1819 106.868C40.3208 108.04 41.3027 108.858 42.5708 108.858L89.4305 108.856C90.6805 108.806 91.918 107.951 92.4305 106.781L106.187 75.3264C106.539 74.5208 106.512 73.6792 106.115 73.0167C105.736 72.3861 105.06 71.9889 104.257 71.9278C104.182 71.9222 104.104 71.918 104.026 71.918H61.718C60.1236 71.918 58.8861 70.8722 58.7083 69.3764L58.5847 68.3306C58.4458 67.1597 57.4624 66.3417 56.1944 66.3417H39.1652Z" fill="#F9FAFB"/>
<path d="M101.1 71.9167H61.7181C60.1236 71.9167 58.8847 70.8722 58.707 69.3764L58.5847 68.3306C58.4459 67.1597 57.4625 66.3417 56.1945 66.3417H44.9903C44.8986 66.3417 44.8125 66.3014 44.7528 66.2319C44.6931 66.1625 44.6681 66.0708 44.682 65.9806L45.3056 62.0667C45.3292 61.9153 45.4611 61.8028 45.6139 61.8028H53.5056L55.9153 46.6917H48.1236C48.032 46.6917 47.9459 46.6514 47.8861 46.5819C47.8264 46.5125 47.8014 46.4208 47.8153 46.3305L49.2681 37.2181C49.2917 37.0667 49.4236 36.9542 49.5764 36.9542H91.35C91.4403 36.9542 91.525 36.993 91.5847 37.0611L91.8042 37.3111C91.8653 37.3806 91.8931 37.475 91.8778 37.5667L89.6347 51.6417H104.233C104.325 51.6417 104.411 51.6819 104.471 51.7514C104.531 51.8208 104.556 51.9125 104.542 52.0028L101.408 71.6528C101.385 71.8056 101.254 71.9167 101.1 71.9167ZM45.357 65.7167H56.1959C57.7903 65.7167 59.0292 66.7611 59.207 68.2569L59.3292 69.3028C59.4681 70.4736 60.4514 71.2917 61.7195 71.2917H100.833L103.868 52.2667H89.2695C89.1778 52.2667 89.0917 52.2264 89.032 52.1569C88.9723 52.0875 88.9472 51.9958 88.9611 51.9056L91.2389 37.6125L91.2097 37.5792H49.8445L48.4903 46.0667H56.282C56.3736 46.0667 56.4597 46.1069 56.5195 46.1764C56.5792 46.2458 56.6042 46.3375 56.5903 46.4278L54.0806 62.1639C54.057 62.3153 53.925 62.4278 53.7722 62.4278H45.8806L45.357 65.7167ZM86.075 67.9708H60.3861C60.082 67.9708 59.8014 67.8472 59.6167 67.6306C59.4347 67.4167 59.3597 67.1375 59.4056 66.8458C59.4972 66.2694 60.0347 65.8181 60.6292 65.8181H86.3181C86.6209 65.8181 86.9014 65.9417 87.0847 66.1569C87.2681 66.3708 87.3431 66.6514 87.2959 66.9444C87.2042 67.5194 86.6681 67.9708 86.075 67.9708ZM60.6292 66.4431C60.3445 66.4431 60.0667 66.6722 60.0236 66.9444C60.0056 67.0542 60.0306 67.1514 60.0931 67.225C60.1597 67.3028 60.2639 67.3458 60.3861 67.3458H86.075C86.3597 67.3458 86.6361 67.1167 86.6792 66.8458C86.6972 66.7361 86.6722 66.6361 86.6097 66.5625C86.5431 66.4847 86.4403 66.4431 86.3181 66.4431H60.6292ZM86.8917 62.8514H61.2014C60.8972 62.8514 60.6181 62.7278 60.4334 62.5111C60.25 62.2972 60.175 62.0181 60.2222 61.725C60.3139 61.15 60.8514 60.6986 61.4459 60.6986H87.1347C87.4389 60.6986 87.7181 60.8222 87.9028 61.0375C88.0847 61.2514 88.1597 61.5306 88.1139 61.8236C88.0209 62.4 87.4847 62.8514 86.8917 62.8514ZM61.4459 61.3236C61.1611 61.3236 60.8834 61.5528 60.8403 61.8236C60.8222 61.9347 60.8472 62.0319 60.9097 62.1056C60.9764 62.1833 61.0806 62.2264 61.2028 62.2264H86.8917C87.1764 62.2264 87.4528 61.9972 87.4959 61.725C87.5139 61.6139 87.4903 61.5167 87.4264 61.4431C87.3597 61.3653 87.257 61.3236 87.1347 61.3236H61.4459ZM87.7084 57.7292H62.0195C61.7153 57.7292 61.4347 57.6056 61.25 57.3889C61.0681 57.175 60.9931 56.8958 61.0389 56.6042C61.1306 56.0278 61.6681 55.5764 62.2625 55.5764H87.9514C88.2542 55.5764 88.5347 55.7 88.7181 55.9153C88.9014 56.1292 88.9764 56.4097 88.9292 56.7028C88.8375 57.2792 88.3014 57.7292 87.7084 57.7292ZM62.2625 56.2014C61.9778 56.2014 61.7 56.4306 61.657 56.7028C61.6389 56.8125 61.6625 56.9097 61.7264 56.9833C61.7931 57.0611 61.8972 57.1042 62.0195 57.1042H87.7084C87.9931 57.1042 88.2695 56.875 88.3125 56.6042C88.3306 56.4944 88.3056 56.3944 88.2431 56.3208C88.1764 56.2431 88.0736 56.2014 87.9514 56.2014H62.2625Z" fill="#F9FAFB"/>
<path d="M39.7514 46.1264L37.1611 62.3681H53.9889L56.5792 46.1264H39.7514ZM54.1556 48.1597L52.2139 60.3333H39.5806L41.5222 48.1597H54.1556Z" fill="#D0D5DD"/>
<path d="M91.5721 37.5181L104.236 51.9542H89.2693L91.5721 37.5181Z" fill="#D0D5DD"/>
<path d="M104.236 52.2667H89.2693C89.1777 52.2667 89.0916 52.2264 89.0319 52.157C88.9721 52.0875 88.9471 51.9958 88.961 51.9056L91.2638 37.4695C91.2832 37.35 91.3694 37.2514 91.486 37.2181C91.6027 37.1847 91.7277 37.2208 91.8082 37.3125L104.472 51.7486C104.553 51.8403 104.572 51.9722 104.522 52.0833C104.469 52.1958 104.358 52.2667 104.236 52.2667ZM89.636 51.6417H103.546L91.7749 38.225L89.636 51.6417Z" fill="#F9FAFB"/>
<path d="M88.6734 55.9542C88.4984 55.7486 88.2415 55.6361 87.9526 55.6361H62.2623C61.697 55.6361 61.1845 56.0653 61.0984 56.6139C61.054 56.8889 61.1248 57.15 61.2956 57.3514C61.4692 57.5542 61.7331 57.6708 62.0192 57.6708H87.7081C88.2734 57.6708 88.7831 57.2417 88.8706 56.6944C88.9151 56.4181 88.8442 56.1556 88.6734 55.9542Z" fill="#D0D5DD"/>
<path d="M87.1345 60.7583H61.4457C60.8804 60.7583 60.3693 61.1875 60.2818 61.7347C60.2373 62.0097 60.3082 62.2722 60.479 62.4722C60.6526 62.675 60.9151 62.7916 61.2026 62.7916H86.8915C87.4568 62.7916 87.9665 62.3625 88.054 61.8139C88.0984 61.5389 88.0276 61.2764 87.8568 61.0764C87.6845 60.8736 87.4206 60.7583 87.1345 60.7583Z" fill="#D0D5DD"/>
<path d="M86.3179 65.8778H60.629C60.0637 65.8778 59.5512 66.307 59.4651 66.8556C59.4207 67.1306 59.4915 67.3917 59.6623 67.5931C59.8359 67.7959 60.0998 67.9125 60.3859 67.9125H86.0748C86.6401 67.9125 87.1498 67.4834 87.2373 66.9361C87.2818 66.6611 87.2109 66.3986 87.0401 66.1973C86.8637 65.9903 86.6082 65.8778 86.3179 65.8778Z" fill="#D0D5DD"/>
<path d="M115.318 54.1958L115.628 56.1305C115.814 57.2902 116.61 58.1986 117.756 58.5569L119.668 59.1527L117.565 59.7486C116.307 60.1069 115.221 61.0139 114.664 62.175L113.737 64.1097L113.426 62.175C113.24 61.0152 112.444 60.1069 111.299 59.7486L109.387 59.1527L111.489 58.5569C112.747 58.1986 113.833 57.2916 114.39 56.1305L115.318 54.1958Z" fill="#D0D5DD"/>
<path d="M45.5958 35.0958L45.8333 36.5792C45.9764 37.468 46.5861 38.1653 47.4653 38.4389L48.9319 38.8958L47.3194 39.3542C46.3541 39.6278 45.5222 40.3236 45.0944 41.2125L44.3833 42.6972L44.1458 41.2125C44.0028 40.3236 43.3916 39.6278 42.5139 39.3542L41.0486 38.8958L42.6597 38.4389C43.625 38.1653 44.4569 37.468 44.8847 36.5792L45.5958 35.0958Z" fill="#D0D5DD"/>
<path d="M102.997 100.579L103.129 101.407C103.21 101.901 103.55 102.29 104.039 102.443L104.855 102.699L103.958 102.954C103.419 103.107 102.955 103.496 102.718 103.99L102.322 104.818L102.19 103.99C102.11 103.496 101.771 103.107 101.282 102.954L100.465 102.699L101.364 102.443C101.903 102.29 102.365 101.901 102.603 101.407L102.997 100.579Z" fill="#D0D5DD"/>
<path d="M34.5791 89.65L34.711 90.4764C34.7902 90.9722 35.1305 91.3597 35.6207 91.5125L36.4374 91.768L35.5402 92.0236C35.0013 92.1764 34.5374 92.5652 34.2999 93.0611L33.9041 93.8875L33.7721 93.0611C33.6943 92.5652 33.3527 92.1777 32.8638 92.0236L32.0471 91.768L32.9443 91.5125C33.4832 91.3611 33.9471 90.9722 34.1832 90.4764L34.5791 89.65Z" fill="#D0D5DD"/>
</svg>
