<svg width="150" height="150" viewBox="0 0 150 150" fill="none" xmlns="http://www.w3.org/2000/svg">
<path d="M75 122.697C103.319 122.697 126.276 113.691 126.276 102.582C126.276 91.4726 103.319 82.4667 75 82.4667C46.6809 82.4667 23.7236 91.4726 23.7236 102.582C23.7236 113.691 46.6809 122.697 75 122.697Z" fill="#F9FAFB"/>
<path d="M76.6848 42.993C76.5862 42.8597 76.4737 42.7375 76.3487 42.6277C75.907 42.2416 75.3098 42.0194 74.6473 42.0194C74.4431 42.0194 74.2292 42.0416 74.0126 42.0861C73.907 42.1083 73.8042 42.1361 73.7028 42.1666C73.6917 42.1694 73.6806 42.1722 73.6695 42.175C73.6278 42.1889 73.5862 42.2041 73.5445 42.2194C73.5278 42.225 73.5098 42.2305 73.4931 42.2375C73.4251 42.2639 73.357 42.2916 73.2903 42.3208C73.2862 42.3222 73.282 42.325 73.2792 42.3264C73.1876 42.368 73.0987 42.4139 73.0112 42.4625C73.0056 42.4652 73.0015 42.468 72.9959 42.4708C72.9751 42.4833 72.9556 42.4972 72.9348 42.5097C72.8806 42.543 72.8265 42.5764 72.7737 42.6111C72.764 42.618 72.7528 42.6236 72.7431 42.6305C72.7223 42.6444 72.7028 42.6611 72.682 42.6764C72.639 42.7083 72.5959 42.7389 72.5528 42.7722C72.5403 42.7819 72.5265 42.7916 72.5126 42.8014C72.4959 42.8152 72.4792 42.8305 72.4626 42.8444C72.4223 42.8777 72.3834 42.9125 72.3445 42.9472C72.3292 42.9611 72.314 42.9736 72.2987 42.9875C72.2695 43.0152 72.2403 43.043 72.2126 43.0722C72.1751 43.1111 72.139 43.15 72.1028 43.1889C72.0931 43.1986 72.0862 43.2097 72.0765 43.2208C72.0348 43.268 71.9945 43.318 71.9556 43.3666C71.9417 43.3847 71.9251 43.4014 71.9126 43.4194C71.9084 43.425 71.9056 43.4305 71.9015 43.4361C71.8417 43.5152 71.7862 43.5972 71.7348 43.6819C71.732 43.6861 71.7292 43.6889 71.7265 43.693C71.6903 43.7527 71.6556 43.8139 71.6223 43.875C71.6153 43.8875 71.6098 43.9014 71.6028 43.9139C71.5806 43.9583 71.557 44.0027 71.5376 44.0472C71.532 44.0583 71.5292 44.0694 71.5237 44.0805C71.514 44.1041 71.5042 44.1277 71.4945 44.1527C71.4751 44.2 71.457 44.2472 71.4403 44.2944C71.4306 44.3194 71.4223 44.3458 71.414 44.3708C71.3973 44.4208 71.3834 44.4694 71.3695 44.5194C71.364 44.543 71.357 44.5652 71.3515 44.5889C71.3334 44.6611 71.3181 44.7347 71.307 44.8083C71.2751 45.0055 71.264 45.2083 71.2792 45.4097L71.3515 46.4625L74.3542 50.5555L74.282 49.5027C74.2667 49.3 74.2778 49.0986 74.3098 48.9014C74.3209 48.8277 74.3376 48.7541 74.3542 48.6819C74.3598 48.6583 74.3667 48.6361 74.3723 48.6125C74.3862 48.5625 74.4001 48.5125 74.4153 48.4639C74.4237 48.4389 74.432 48.4125 74.4417 48.3875C74.4584 48.3402 74.4765 48.293 74.4959 48.2458C74.5056 48.2222 74.5153 48.1986 74.5251 48.175C74.5501 48.1194 74.5765 48.0639 74.6042 48.0083C74.6112 47.9958 74.6167 47.9819 74.6237 47.9694C74.6584 47.9041 74.6959 47.8389 74.7348 47.775C74.7862 47.6916 74.8431 47.6097 74.9015 47.5291C74.9195 47.5055 74.9376 47.4833 74.957 47.4597C74.9959 47.4097 75.0362 47.3611 75.0778 47.3139C75.1223 47.2639 75.1667 47.2139 75.214 47.1652C75.257 47.1222 75.3015 47.0819 75.3459 47.0402C75.3848 47.0055 75.4237 46.9708 75.464 46.9375C75.4931 46.9125 75.5237 46.8875 75.5542 46.8639C75.5959 46.8305 75.639 46.7986 75.6834 46.768C75.714 46.7458 75.7431 46.7236 75.7751 46.7027C75.8278 46.668 75.882 46.6347 75.9362 46.6014C75.9626 46.5861 75.9876 46.5694 76.014 46.5541C76.1015 46.5055 76.1903 46.4597 76.282 46.418C76.3528 46.3861 76.4237 46.3555 76.4973 46.3277C76.514 46.3208 76.532 46.3152 76.5487 46.3097C76.6015 46.2902 76.6542 46.2736 76.7084 46.2569C76.8098 46.2264 76.9126 46.1972 77.0181 46.1764C77.2348 46.1319 77.4487 46.1097 77.6528 46.1097C78.3167 46.1097 78.914 46.3319 79.3542 46.718C79.4792 46.8277 79.5917 46.9486 79.6903 47.0833L76.6848 42.993Z" fill="#D0D5DD"/>
<path d="M74.3529 50.8347C74.2668 50.8347 74.182 50.7944 74.1292 50.7208L71.1265 46.6264C71.0959 46.5833 71.0765 46.5333 71.0737 46.4805L71.0015 45.4278C70.9848 45.2139 70.9959 44.9889 71.032 44.7625C71.0445 44.6875 71.0598 44.6083 71.0806 44.5222C71.0848 44.5042 71.0904 44.4847 71.0945 44.4667L71.1001 44.4458C71.1154 44.3917 71.1306 44.3375 71.1473 44.2833C71.157 44.2555 71.1667 44.2278 71.1765 44.1986C71.1945 44.1472 71.214 44.0958 71.2362 44.0444L71.2418 44.0292C71.2501 44.0083 71.2584 43.9875 71.2681 43.9667L71.282 43.9319C71.3042 43.8833 71.3265 43.8389 71.3501 43.793L71.3598 43.7736C71.3654 43.7625 71.3695 43.7528 71.3751 43.7417C71.4098 43.675 71.4473 43.6097 71.4876 43.5444C71.4904 43.5389 71.4987 43.5278 71.5029 43.5222C71.5515 43.4444 71.6112 43.3542 71.6779 43.2667C71.6779 43.2653 71.6834 43.2569 71.6904 43.2486C71.7015 43.2347 71.7126 43.2208 71.7251 43.2069L71.7376 43.1917C71.7793 43.1375 71.8223 43.0847 71.8681 43.0333C71.8793 43.018 71.8876 43.0097 71.8959 43C71.9348 42.9555 71.9751 42.9139 72.0154 42.8736C72.0459 42.843 72.0765 42.8125 72.1084 42.7833C72.1209 42.7722 72.1334 42.7611 72.1459 42.75L72.1584 42.7389C72.1987 42.7014 72.2418 42.6639 72.2848 42.6278L72.3001 42.6139C72.3126 42.6028 72.3251 42.5917 72.339 42.5805C72.3501 42.5722 72.3612 42.5639 72.3723 42.5555C72.4265 42.5125 72.4737 42.4792 72.5209 42.4458L72.539 42.4319C72.5543 42.4194 72.5695 42.4083 72.5862 42.3972C72.5959 42.3903 72.6056 42.3847 72.6154 42.3778C72.6751 42.3375 72.7334 42.3028 72.7917 42.2667L72.8098 42.2555C72.8251 42.2458 72.8418 42.2347 72.8584 42.225C72.864 42.2222 72.8765 42.2153 72.882 42.2125C72.9695 42.1639 73.0668 42.1139 73.1626 42.0694L73.1751 42.0625C73.2473 42.0305 73.3209 42 73.3945 41.9722C73.407 41.968 73.4209 41.9625 73.4334 41.9583L73.4723 41.9444C73.5098 41.9305 73.5473 41.9167 73.5862 41.9055C73.5987 41.9014 73.6112 41.8986 73.6237 41.8958C73.7473 41.8583 73.8543 41.8305 73.9584 41.8097C74.1931 41.7625 74.4251 41.7375 74.6487 41.7375C75.364 41.7375 76.0334 41.9778 76.5334 42.4139C76.6737 42.5375 76.8015 42.675 76.9098 42.8236L79.9126 46.9167C80.0029 47.0403 79.9765 47.2139 79.8529 47.3055C79.7293 47.3958 79.5556 47.3694 79.464 47.2458V47.2444C79.3793 47.1292 79.2806 47.0208 79.1709 46.925C78.7723 46.5764 78.2334 46.3847 77.6515 46.3847C77.464 46.3847 77.2695 46.4055 77.0723 46.4458C76.9876 46.4639 76.8945 46.4875 76.789 46.5194C76.739 46.5347 76.6904 46.55 76.6418 46.568L76.5945 46.5847C76.5279 46.6097 76.4626 46.6375 76.3973 46.6667C76.3154 46.7042 76.232 46.7458 76.1501 46.793C76.1362 46.8 76.1237 46.8083 76.1112 46.8167L76.0779 46.8361C76.0279 46.8667 75.9779 46.8972 75.9293 46.9292C75.9056 46.9444 75.8848 46.9611 75.8626 46.9764L75.8459 46.9889C75.8056 47.018 75.7668 47.0472 75.7279 47.0778C75.7001 47.1 75.6723 47.1222 75.6445 47.1458C75.6084 47.1764 75.5723 47.2083 75.5362 47.2403L75.5237 47.2514C75.4862 47.2847 75.4501 47.3194 75.414 47.3555C75.3709 47.4 75.3293 47.4458 75.289 47.4917C75.2501 47.5361 75.214 47.5805 75.1779 47.6264L75.1556 47.6542C75.1459 47.6667 75.1362 47.6778 75.1265 47.6903C75.0709 47.7653 75.0195 47.8417 74.9723 47.9153C74.9362 47.9736 74.9015 48.0333 74.8695 48.093L74.8515 48.1292C74.8265 48.1778 74.8015 48.2292 74.7792 48.2792L74.7529 48.3444C74.7348 48.3875 74.7181 48.4305 74.7029 48.4736C74.6945 48.4972 74.6862 48.5194 74.6793 48.543C74.664 48.5889 74.6515 48.6333 74.639 48.6792L74.6223 48.7417C74.607 48.8069 74.5931 48.8736 74.582 48.9389C74.5529 49.1222 74.5445 49.3042 74.557 49.4764L74.6293 50.5305C74.6376 50.6542 74.564 50.768 74.4473 50.8097C74.4168 50.8292 74.3848 50.8347 74.3529 50.8347ZM71.6223 46.3639L74.0112 49.6208L74.0043 49.5236C73.9876 49.3097 73.9987 49.0847 74.0348 48.8583C74.0473 48.7833 74.0626 48.7042 74.0834 48.618C74.0876 48.6 74.0931 48.5819 74.0973 48.5625L74.1029 48.5417C74.1167 48.4875 74.1334 48.4333 74.1501 48.3792C74.1584 48.3514 74.1681 48.3236 74.1793 48.2944C74.1973 48.243 74.2168 48.1917 74.239 48.1403L74.2459 48.1236C74.2543 48.1042 74.2626 48.0833 74.2709 48.0639C74.2973 48.0028 74.3265 47.943 74.357 47.8833L74.3779 47.8417C74.4154 47.7708 74.4556 47.7 74.4987 47.6319C74.5529 47.543 74.614 47.4542 74.6793 47.3667C74.6931 47.3486 74.707 47.3305 74.7209 47.3139L74.739 47.2917C74.7806 47.2389 74.8237 47.1861 74.8695 47.1347C74.9168 47.0805 74.9654 47.0264 75.0168 46.975C75.0584 46.9319 75.1029 46.8917 75.1473 46.8514L75.1598 46.8403C75.2015 46.8028 75.2431 46.7653 75.2862 46.7292C75.3181 46.7028 75.3501 46.6764 75.3834 46.65C75.4293 46.6139 75.4751 46.5805 75.5223 46.5472L75.539 46.5347C75.5668 46.5153 75.5931 46.4958 75.6209 46.4764C75.6779 46.4389 75.7362 46.4028 75.7945 46.368L75.8209 46.3528C75.8404 46.3417 75.8584 46.3292 75.8793 46.318C75.9751 46.2639 76.0723 46.2153 76.1681 46.1708C76.2445 46.1361 76.3209 46.1042 76.4001 46.0736L76.4556 46.0542C76.5126 46.0333 76.5695 46.0153 76.6279 45.9972C76.7501 45.9597 76.8598 45.9305 76.9626 45.9097C77.5098 45.7972 78.039 45.8194 78.5195 45.9611L76.464 43.1597C76.3792 43.043 76.2792 42.9361 76.1695 42.8403C75.7709 42.4917 75.2306 42.3 74.6501 42.3C74.464 42.3 74.2681 42.3208 74.0709 42.3611C73.9848 42.3792 73.8945 42.4028 73.7876 42.4347C73.7765 42.4375 73.7654 42.4403 73.7543 42.443C73.7251 42.4514 73.6945 42.4625 73.664 42.4736L73.5945 42.4986C73.5306 42.5222 73.4681 42.5486 73.407 42.5764C73.314 42.6194 73.2306 42.6625 73.1501 42.7083C73.1445 42.7111 73.132 42.718 73.1265 42.7208C73.1279 42.7208 73.1223 42.725 73.1154 42.7292C73.1043 42.7375 73.0917 42.7444 73.0792 42.7514C73.0292 42.7819 72.9792 42.8125 72.9306 42.8444C72.9223 42.85 72.9126 42.8555 72.9042 42.8611C72.8945 42.8667 72.8876 42.8736 72.8806 42.8792C72.8695 42.8875 72.8584 42.8958 72.8473 42.9042C72.807 42.9333 72.7668 42.9625 72.7279 42.993C72.7181 43 72.7098 43.0069 72.7001 43.0139L72.6751 43.0347C72.6654 43.043 72.6556 43.0528 72.6445 43.0611C72.6084 43.0917 72.5723 43.1236 72.5362 43.1555C72.5265 43.1653 72.5168 43.1722 72.507 43.1805L72.4931 43.193C72.4668 43.218 72.4404 43.2444 72.414 43.2708C72.3793 43.3055 72.3459 43.3417 72.3126 43.3792C72.3029 43.3917 72.2959 43.4 72.2876 43.4083C72.2501 43.4514 72.214 43.4972 72.1779 43.5417C72.1695 43.5528 72.1598 43.5639 72.1515 43.5736L72.1376 43.5903C72.1376 43.5903 72.1334 43.5972 72.1279 43.6042C72.0709 43.6805 72.0195 43.7555 71.9737 43.8305C71.9709 43.8347 71.9668 43.8417 71.9626 43.8472C71.9306 43.9 71.9001 43.9542 71.8709 44.0083L71.8529 44.0444C71.8306 44.0889 71.8098 44.1278 71.7931 44.1667L71.7806 44.1972C71.7737 44.2125 71.7681 44.2278 71.7612 44.2444L71.7543 44.2611C71.7362 44.3042 71.7195 44.3472 71.7043 44.3903C71.6959 44.4139 71.6876 44.4361 71.6806 44.4597C71.6667 44.5042 71.6529 44.55 71.6404 44.5944L71.6237 44.6569C71.6084 44.7222 71.5945 44.7875 71.5834 44.8542C71.5543 45.0375 71.5459 45.2194 71.5584 45.3917L71.6223 46.3639Z" fill="#F9FAFB"/>
<path d="M78.0457 48.9194L75.0429 44.8264C75.011 44.7833 74.9749 44.7431 74.9346 44.7083C74.7902 44.5833 74.5985 44.5111 74.386 44.5111C74.318 44.5125 74.2499 44.5194 74.1791 44.5333C74.1416 44.5417 74.1041 44.5514 74.0679 44.5625C74.0568 44.5667 74.0471 44.5708 74.036 44.575C74.0193 44.5806 74.0041 44.5875 73.9888 44.5931C73.9749 44.5986 73.9596 44.6028 73.9457 44.6097C73.9207 44.6208 73.8985 44.6333 73.8749 44.6458C73.8693 44.6486 73.8638 44.6514 73.8596 44.6542C73.8568 44.6556 73.8554 44.6569 73.8527 44.6583C73.8249 44.6736 73.7985 44.6903 73.7721 44.7083C73.7596 44.7167 73.7471 44.7264 73.736 44.7361C73.7305 44.7403 73.7235 44.7458 73.718 44.75C73.7124 44.7542 73.7055 44.7583 73.6999 44.7625C73.6763 44.7819 73.6541 44.8014 73.6318 44.8222C73.6207 44.8319 73.611 44.8431 73.6013 44.8528C73.5888 44.8653 73.5763 44.8792 73.5638 44.8917C73.5416 44.9153 73.5207 44.9417 73.5013 44.9667C73.4999 44.9681 73.4985 44.9708 73.4971 44.9736C73.4929 44.9792 73.4902 44.9847 73.486 44.9903C73.4707 45.0125 73.4555 45.0333 73.4416 45.0569C73.4346 45.0681 73.4291 45.0806 73.4235 45.0917C73.4152 45.1069 73.4068 45.1222 73.3985 45.1375C73.3929 45.1486 73.386 45.1597 73.3805 45.1708C73.3721 45.1903 73.3652 45.2111 73.3582 45.2306C73.3527 45.2444 73.3471 45.2583 73.3416 45.2736C73.3263 45.3194 73.3138 45.3653 73.3068 45.4125C73.2971 45.4764 73.2943 45.5417 73.2985 45.6069L73.3568 46.4653L76.3596 50.5583L76.3013 49.7C76.2971 49.6347 76.2999 49.5694 76.3096 49.5056C76.3166 49.4583 76.3291 49.4125 76.3443 49.3667C76.3485 49.3528 76.3554 49.3389 76.361 49.3236C76.3735 49.2917 76.386 49.2611 76.4013 49.2305C76.4096 49.2153 76.418 49.2 76.4263 49.1847C76.4457 49.15 76.4666 49.1167 76.4902 49.0833C76.4943 49.0778 76.4971 49.0722 76.5013 49.0667C76.5332 49.025 76.5666 48.9833 76.6041 48.9458C76.6402 48.9083 76.6791 48.875 76.7207 48.8417C76.7263 48.8375 76.7332 48.8319 76.7388 48.8278C76.7777 48.7986 76.8193 48.7708 76.8624 48.7458C76.8679 48.7431 76.8735 48.7403 76.8777 48.7375C76.9152 48.7181 76.9527 48.7 76.9929 48.6847C77.0082 48.6778 77.0249 48.6722 77.0402 48.6667C77.086 48.65 77.1332 48.6361 77.1832 48.625C77.2541 48.6111 77.3221 48.6042 77.3902 48.6028C77.6027 48.6028 77.7943 48.675 77.9388 48.8C77.9777 48.8375 78.0138 48.8764 78.0457 48.9194Z" fill="#D0D5DD"/>
<path d="M76.3583 50.8347C76.2721 50.8347 76.1874 50.7944 76.1346 50.7208L73.1319 46.6264C73.1013 46.5833 73.0819 46.5333 73.0791 46.4805L73.0207 45.6222C73.0152 45.5347 73.018 45.4486 73.0319 45.3653C73.0416 45.3083 73.0555 45.2486 73.0763 45.1833C73.0819 45.1666 73.0874 45.1514 73.093 45.1361L73.1013 45.1139C73.1083 45.093 73.1166 45.0722 73.1263 45.0514C73.1332 45.0375 73.1402 45.0236 73.1471 45.0097C73.1582 44.9889 73.168 44.9694 73.1791 44.9486C73.1874 44.9319 73.1944 44.9194 73.2027 44.9055C73.2207 44.8764 73.2402 44.8486 73.2596 44.8222C73.2624 44.818 73.2652 44.8139 73.2694 44.8083C73.2707 44.8055 73.2735 44.8028 73.2749 44.8C73.3041 44.7611 73.3305 44.7305 73.3569 44.7C73.3721 44.6833 73.3874 44.6666 73.4027 44.6514C73.4138 44.6403 73.4263 44.6264 73.4402 44.6153C73.468 44.5889 73.4957 44.5653 73.5249 44.5416C73.5291 44.5389 73.543 44.5278 73.5471 44.525L73.5791 44.5014C73.5902 44.493 73.6027 44.4833 73.6152 44.475C73.6485 44.4528 73.6819 44.4319 73.7152 44.4125C73.7207 44.4097 73.7291 44.4041 73.7346 44.4028L73.7457 44.3972C73.7721 44.3833 73.8013 44.3666 73.8319 44.3528C73.8471 44.3458 73.8624 44.3403 73.8777 44.3347C73.9055 44.3236 73.9249 44.3166 73.9457 44.3097C73.9596 44.3041 73.9721 44.2986 73.986 44.2944C74.0319 44.2805 74.0777 44.268 74.1235 44.2583C74.2082 44.2416 74.2916 44.2319 74.3805 44.2305C74.661 44.2305 74.9194 44.325 75.1166 44.4958C75.1735 44.5458 75.2235 44.6014 75.2666 44.6597L78.268 48.7528C78.268 48.7528 78.268 48.7541 78.2694 48.7541C78.3596 48.8778 78.3332 49.0514 78.2096 49.143C78.086 49.2333 77.9124 49.2069 77.8207 49.0833C77.8013 49.0569 77.7791 49.0319 77.7541 49.0097C77.6583 48.9264 77.5291 48.8805 77.3888 48.8805C77.3388 48.8819 77.286 48.8875 77.236 48.8972C77.2069 48.9028 77.1749 48.9125 77.1305 48.9278C77.118 48.9319 77.1055 48.9375 77.0944 48.9416C77.0652 48.9528 77.036 48.9666 77.0083 48.9805C77.0055 48.9819 76.9944 48.9875 76.9916 48.9889C76.9666 49.0028 76.936 49.0236 76.9027 49.0472L76.718 48.8389L76.8888 49.0583C76.8541 49.0847 76.8263 49.1111 76.7999 49.1375C76.7721 49.1666 76.7458 49.1972 76.7208 49.2305L76.7124 49.243C76.6958 49.2666 76.6805 49.2916 76.6652 49.318C76.6596 49.3291 76.6527 49.3403 76.6471 49.3528C76.636 49.3736 76.6263 49.3972 76.618 49.4194L76.611 49.4375C76.5944 49.4861 76.586 49.518 76.5819 49.5458C76.5749 49.5861 76.5735 49.6319 76.5763 49.6778L76.6346 50.5361C76.643 50.6597 76.5694 50.7736 76.4527 50.8153C76.4221 50.8291 76.3902 50.8347 76.3583 50.8347ZM73.6277 46.3639L76.0207 49.6264C76.0207 49.5708 76.0263 49.5153 76.0346 49.4611C76.0444 49.4041 76.0583 49.3444 76.0805 49.2791C76.0846 49.2639 76.0916 49.25 76.0971 49.2347C76.1166 49.1833 76.1332 49.1444 76.1527 49.1055C76.1624 49.0847 76.1735 49.0666 76.1833 49.0472C76.2083 49.0028 76.2346 48.9611 76.2638 48.9194C76.268 48.9139 76.2721 48.9055 76.2777 48.8986C76.3166 48.8458 76.361 48.7944 76.4055 48.7486C76.4471 48.7055 76.4944 48.6639 76.5485 48.6208C76.5499 48.6194 76.5638 48.6097 76.5652 48.6083C76.6235 48.5653 76.6735 48.5319 76.7249 48.5028C76.7291 48.5 76.7416 48.4944 76.7457 48.4916C76.7902 48.468 76.8374 48.4458 76.8874 48.4264C76.9083 48.418 76.9277 48.4111 76.9471 48.4041C77.0138 48.3805 77.0694 48.3653 77.1249 48.3528C77.1735 48.343 77.2207 48.3361 77.2707 48.3319L74.8194 44.9903C74.7999 44.9639 74.7777 44.9389 74.7513 44.9166C74.6555 44.8347 74.5263 44.7875 74.386 44.7875C74.336 44.7889 74.2832 44.7944 74.2332 44.8041C74.2069 44.8097 74.1791 44.8166 74.1527 44.825C74.1471 44.8278 74.1374 44.8319 74.1291 44.8347C74.1166 44.8389 74.1041 44.8444 74.093 44.8486L74.0652 44.8597C74.0416 44.8694 74.0235 44.8791 74.0069 44.8889C74.0041 44.8903 73.993 44.8958 73.9902 44.8972C73.9888 44.8986 73.986 44.9 73.9846 44.9C73.9666 44.9111 73.9471 44.9222 73.9305 44.9347L73.9027 44.9555L73.718 44.7472L73.8902 44.9653C73.8874 44.968 73.8763 44.9764 73.8735 44.9778C73.8583 44.9903 73.8416 45.0055 73.8249 45.0208L73.8013 45.0444C73.7902 45.0555 73.7805 45.0653 73.7721 45.075C73.7569 45.0916 73.743 45.1083 73.7291 45.1264C73.7263 45.1291 73.7249 45.1333 73.7235 45.1347C73.7207 45.1375 73.7166 45.1458 73.7138 45.1486C73.7027 45.1653 73.6902 45.1805 73.6791 45.1986L73.6666 45.2236C73.6596 45.2361 73.6541 45.2458 73.6485 45.2569L73.6346 45.2833C73.6332 45.2875 73.6305 45.293 73.6291 45.3L73.6138 45.343C73.5971 45.393 73.5888 45.4236 73.5846 45.4528C73.5777 45.493 73.5763 45.5389 73.5791 45.5847L73.6277 46.3639Z" fill="#F9FAFB"/>
<path d="M79.1058 49.1236C79.1016 49.0555 79.0919 48.9889 79.0794 48.9236C79.0794 48.9208 79.078 48.918 79.0766 48.9152C79.0613 48.843 79.0432 48.7722 79.0182 48.7041C78.9974 48.6472 78.9738 48.5916 78.946 48.5375C78.9446 48.5333 78.9419 48.5305 78.9391 48.5264C78.9321 48.5125 78.9224 48.4986 78.9155 48.4847C78.8988 48.4555 78.8821 48.425 78.8641 48.3972C78.853 48.3805 78.8405 48.3625 78.828 48.3458L75.8252 44.2527C75.8571 44.2972 75.8849 44.3444 75.9127 44.3916C75.921 44.4055 75.9294 44.418 75.9363 44.4333C75.9669 44.4902 75.9933 44.55 76.0155 44.6111C76.0405 44.6791 76.0585 44.7486 76.0738 44.8222C76.0877 44.8889 76.0974 44.9583 76.1016 45.0291L76.1988 46.4625L79.2016 50.5555L79.1058 49.1236Z" fill="#D0D5DD"/>
<path d="M79.2029 50.8347C79.1168 50.8347 79.0321 50.7944 78.9793 50.7208L75.9765 46.6264C75.946 46.5833 75.9265 46.5333 75.9237 46.4805L75.8265 45.0472C75.8223 44.9903 75.8154 44.9347 75.8029 44.8764C75.7904 44.8153 75.7751 44.7569 75.7557 44.7041C75.739 44.6583 75.7182 44.6111 75.6918 44.5611L75.6723 44.5291C75.6501 44.4903 75.6265 44.45 75.6029 44.4166C75.5126 44.293 75.539 44.1194 75.6626 44.0278C75.7862 43.9375 75.9598 43.9639 76.0515 44.0875C76.0515 44.0875 76.0515 44.0889 76.0529 44.0889L79.0543 48.1819C79.0682 48.2014 79.0834 48.2222 79.0973 48.243C79.1168 48.2722 79.1334 48.3014 79.1501 48.3319L79.1598 48.3486C79.1709 48.3666 79.1779 48.3791 79.1848 48.3903C79.189 48.3972 79.1932 48.4055 79.1959 48.4097C79.2293 48.4736 79.2585 48.5403 79.2835 48.6083C79.3112 48.6847 79.3334 48.7653 79.3515 48.85C79.3543 48.8583 79.3557 48.8667 79.3571 48.8736C79.3709 48.9458 79.3821 49.025 79.3862 49.1041L79.4835 50.5375C79.4918 50.6611 79.4182 50.775 79.3015 50.8166C79.2668 50.8291 79.2348 50.8347 79.2029 50.8347ZM76.4723 46.3639L78.8612 49.6208L78.8293 49.143C78.8265 49.0903 78.8196 49.0389 78.8098 48.9889C78.8084 48.9861 78.8084 48.9819 78.8071 48.9791C78.7932 48.9111 78.7779 48.8541 78.7584 48.8014C78.7432 48.7583 78.7237 48.7153 78.7029 48.6736C78.7001 48.668 78.696 48.6611 78.6932 48.6569L78.6626 48.6055C78.6529 48.5889 78.6432 48.5708 78.6321 48.5541C78.6223 48.5403 78.6126 48.5264 78.6029 48.5125L76.414 45.5278L76.4723 46.3639Z" fill="#F9FAFB"/>
<path d="M59.0277 46.4639H70.418L70.6971 50.5555L57.9583 53.1653L59.0277 46.4639Z" fill="#F7F9FC"/>
<path d="M57.9583 53.443C57.8875 53.443 57.818 53.4152 57.7666 53.3666C57.7013 53.3041 57.6694 53.2125 57.6847 53.1222L58.7541 46.4194C58.775 46.2847 58.8916 46.1847 59.0291 46.1847H70.4194C70.5652 46.1847 70.6861 46.2972 70.6972 46.443L70.9763 50.5347C70.9861 50.6736 70.8916 50.7972 70.7555 50.8264L58.0166 53.4375C57.9958 53.4416 57.9763 53.443 57.9583 53.443ZM59.2638 46.7416L58.2958 52.8139L70.4041 50.3319L70.1597 46.7416H59.2638Z" fill="#F9FAFB"/>
<path d="M70.6974 50.5556L73.7002 54.6487L60.9613 57.2598L57.9585 53.1653L70.6974 50.5556Z" fill="#98A2B3"/>
<path d="M60.9612 57.5375C60.8737 57.5375 60.7904 57.4959 60.7376 57.4236L57.7348 53.3292C57.6792 53.2528 57.6654 53.1528 57.7001 53.0653C57.7348 52.9764 57.8112 52.9125 57.9029 52.8931L70.6417 50.282C70.7473 50.2597 70.857 50.3028 70.9209 50.3903L73.9237 54.4847C73.9792 54.5611 73.9931 54.6611 73.9584 54.7486C73.9237 54.8375 73.8473 54.9014 73.7556 54.9209L61.0168 57.532C60.9987 57.5361 60.9793 57.5375 60.9612 57.5375ZM58.439 53.3514L61.0806 56.9528L73.2209 54.4653L70.5793 50.8639L58.439 53.3514Z" fill="#F9FAFB"/>
<path d="M72.6945 59.7403C72.4028 59.4847 72.2139 59.1236 72.1847 58.6903L71.6167 50.3653L72.675 50.1486L72.9625 54.3541C72.9764 54.5597 73.1417 54.7 73.3514 54.7C73.3834 54.7 73.4167 54.6972 73.4514 54.6889C73.7056 54.6361 73.8986 54.4028 73.882 54.1653L73.5945 49.9597L75.482 49.5722L76.0514 57.8972C76.0598 58.0319 76.0528 58.1639 76.032 58.2958C75.9639 58.7194 75.7473 59.1222 75.4334 59.443C75.1167 59.7639 74.7056 60.0014 74.2417 60.0972C74.1 60.125 73.9584 60.1403 73.8223 60.1403C73.382 60.1416 72.9875 59.9958 72.6945 59.7403Z" fill="#D0D5DD"/>
<path d="M73.8195 60.4194C73.325 60.4194 72.8611 60.2528 72.5125 59.95L72.5111 59.9486C72.15 59.6319 71.9417 59.2028 71.9083 58.7097L71.3403 50.3847C71.3306 50.2458 71.425 50.1222 71.5611 50.0931L72.6194 49.8764C72.6972 49.8597 72.7792 49.8792 72.8431 49.9278C72.9069 49.9764 72.9472 50.05 72.9514 50.1306L73.2389 54.3361C73.2445 54.4139 73.3195 54.4222 73.3514 54.4222C73.3653 54.4222 73.3806 54.4208 73.3958 54.4181C73.5236 54.3917 73.6111 54.2736 73.6056 54.1861L73.3181 49.9806C73.3083 49.8417 73.4028 49.7181 73.5389 49.6889L75.4264 49.3014C75.5042 49.2847 75.5861 49.3042 75.65 49.3528C75.7139 49.4014 75.7542 49.475 75.7583 49.5556L76.3278 57.8806C76.3375 58.0375 76.3292 58.1917 76.3056 58.3417C76.2306 58.8111 75.9903 59.2722 75.6306 59.6403C75.2611 60.0139 74.8 60.2667 74.2958 60.3722C74.1347 60.4042 73.975 60.4194 73.8195 60.4194ZM72.8764 59.5319C73.207 59.8181 73.6875 59.9278 74.1847 59.8278C74.5792 59.7458 74.9417 59.5458 75.2333 59.2514C75.5125 58.9667 75.6986 58.6125 75.7556 58.2556C75.7736 58.1444 75.7792 58.0319 75.7722 57.9181L75.225 49.9125L73.8875 50.1861L74.1583 54.15C74.1847 54.5264 73.8972 54.8833 73.507 54.9639C73.4556 54.975 73.4028 54.9806 73.3514 54.9806C72.9889 54.9806 72.7097 54.7264 72.6847 54.3764L72.4194 50.4875L71.9111 50.5917L72.4625 58.6736C72.4861 59.0167 72.6292 59.3139 72.8764 59.5319Z" fill="#F9FAFB"/>
<path d="M71.3501 46.4639H72.4237L72.6751 50.15L71.6168 50.3666L71.3501 46.4639Z" fill="#F7F9FC"/>
<path d="M71.6168 50.6444C71.557 50.6444 71.4973 50.625 71.4487 50.5875C71.3848 50.5389 71.3445 50.4653 71.3404 50.3847L71.0737 46.4819C71.0681 46.4055 71.0959 46.3292 71.1473 46.2736C71.2001 46.218 71.2737 46.1861 71.3501 46.1861H72.4223C72.5681 46.1861 72.689 46.2986 72.7001 46.4444L72.9515 50.1305C72.9612 50.2694 72.8667 50.393 72.7306 50.4222L71.6723 50.6389C71.6542 50.643 71.6362 50.6444 71.6168 50.6444ZM71.6473 46.7417L71.8723 50.0305L72.3806 49.9264L72.1626 46.7417H71.6473Z" fill="#F9FAFB"/>
<path d="M81.2082 50.8347C81.1221 50.8347 81.0374 50.7944 80.9846 50.7208L77.9818 46.6264C77.9513 46.5833 77.9318 46.5333 77.9291 46.4805L77.7624 44.0416C77.7582 43.9736 77.7513 43.9069 77.7416 43.8403L77.7318 43.7778C77.7249 43.7347 77.718 43.6903 77.7096 43.6472C77.7013 43.6041 77.6902 43.5625 77.6791 43.5208L77.661 43.4458C77.6429 43.3805 77.6221 43.3153 77.5985 43.2528C77.5652 43.1625 77.5249 43.068 77.4735 42.9653L77.4555 42.9278C77.4152 42.8514 77.3707 42.7736 77.3207 42.6986C77.2916 42.6541 77.268 42.618 77.2416 42.5833C77.1513 42.4597 77.1777 42.2861 77.3013 42.1944C77.3513 42.1583 77.4082 42.1403 77.4652 42.1403C77.5513 42.1403 77.6346 42.1791 77.6888 42.2541L80.6916 46.3486C80.7193 46.3861 80.7457 46.425 80.7721 46.4639C80.7763 46.4708 80.7874 46.4889 80.7916 46.4958C80.8457 46.5791 80.8999 46.6694 80.9457 46.7583C80.9513 46.7666 80.9554 46.775 80.9596 46.7847C80.9638 46.793 80.9693 46.8055 80.9749 46.8194C81.0332 46.9347 81.0818 47.0486 81.1221 47.1583C81.1499 47.2347 81.1749 47.3125 81.1971 47.3916C81.2027 47.4111 81.2068 47.4291 81.211 47.4486L81.2166 47.4736C81.2305 47.5264 81.243 47.5791 81.2541 47.6347C81.2541 47.6361 81.2568 47.6444 81.2582 47.6528C81.2652 47.6861 81.2707 47.7208 81.2749 47.7555C81.2749 47.7555 81.2902 47.8472 81.2916 47.8653C81.3027 47.943 81.3096 48.0222 81.3152 48.1028L81.4818 50.5403C81.4902 50.6639 81.4166 50.7778 81.2999 50.8194C81.2721 50.8291 81.2402 50.8347 81.2082 50.8347Z" fill="#D0D5DD"/>
<path d="M77.4653 42.4208L80.4681 46.5153C80.4931 46.55 80.5181 46.5847 80.5417 46.6208C80.5472 46.6278 80.55 46.6361 80.5556 46.6431C80.6083 46.725 80.6583 46.8083 80.7042 46.8958C80.707 46.9014 80.7097 46.9056 80.7125 46.9111C80.7167 46.9195 80.7194 46.9292 80.725 46.9389C80.7764 47.0417 80.8236 47.1458 80.8625 47.2556C80.8875 47.325 80.9097 47.3972 80.9306 47.4695C80.9375 47.4945 80.9431 47.5195 80.9486 47.5445C80.9611 47.5931 80.9736 47.6417 80.9833 47.6917C80.9847 47.6972 80.9861 47.7028 80.9875 47.7083C80.9958 47.75 81.0014 47.7917 81.0083 47.8333C81.0125 47.857 81.0167 47.8792 81.0195 47.9028C81.0292 47.975 81.0361 48.0472 81.0417 48.1208L81.2083 50.5597L78.2056 46.4667L78.0389 44.0278C78.0333 43.9542 78.0264 43.8806 78.0167 43.8097C78.0139 43.7861 78.0083 43.7639 78.0056 43.7403C77.9986 43.6931 77.9903 43.6458 77.9806 43.5986C77.9708 43.5486 77.9583 43.5 77.9458 43.4514C77.9389 43.4264 77.9347 43.4014 77.9278 43.3778C77.907 43.3056 77.8847 43.2333 77.8597 43.1639C77.8195 43.0542 77.7736 42.95 77.7222 42.8472C77.7153 42.8333 77.7083 42.8195 77.7014 42.8056C77.6556 42.7181 77.6056 42.6347 77.5528 42.5528C77.5236 42.5056 77.4958 42.4625 77.4653 42.4208ZM77.9139 42.0917L77.4653 42.4208L77.0181 42.75C77.0417 42.782 77.0639 42.8153 77.0847 42.8486C77.132 42.9222 77.1736 42.9903 77.2083 43.0583L77.2125 43.0667L77.225 43.0917C77.2722 43.1861 77.3097 43.2708 77.3375 43.35C77.3375 43.3514 77.3389 43.3528 77.3389 43.3528C77.3583 43.407 77.3764 43.4639 77.3931 43.5236C77.3944 43.5306 77.3958 43.5375 77.3986 43.5445C77.4014 43.5583 77.4056 43.5708 77.4083 43.5847C77.4195 43.6278 77.4292 43.6667 77.4375 43.707C77.4458 43.7445 77.4514 43.7833 77.457 43.8222L77.4625 43.8597C77.4639 43.8667 77.4653 43.8736 77.4653 43.8806C77.4736 43.9445 77.4792 44.0042 77.4833 44.0625L77.65 46.5014C77.657 46.607 77.6944 46.707 77.7569 46.7917L80.7597 50.8847C80.8667 51.0306 81.0347 51.1111 81.2083 51.1111C81.2722 51.1111 81.3361 51.1 81.3986 51.0778C81.6306 50.9931 81.7792 50.7653 81.7625 50.5181L81.5958 48.0792C81.5903 47.9972 81.582 47.9111 81.5708 47.825C81.5681 47.8028 81.5639 47.782 81.5611 47.7597L81.5583 47.7417L81.5542 47.7167C81.5486 47.6764 81.5417 47.6347 81.5333 47.5958C81.5319 47.5889 81.5292 47.5778 81.5264 47.5653C81.5139 47.5083 81.5014 47.4556 81.4875 47.4028L81.4833 47.3833C81.4778 47.3597 81.4722 47.3375 81.4667 47.3153C81.4417 47.2278 81.4153 47.1431 81.3861 47.0625C81.3847 47.0611 81.3847 47.0583 81.3833 47.057C81.3417 46.9417 81.2917 46.8264 81.2292 46.7014C81.2222 46.6847 81.2153 46.6681 81.207 46.6528C81.2028 46.6445 81.1958 46.6333 81.1889 46.6208C81.1403 46.5292 81.0875 46.4389 81.0292 46.3486C81.0208 46.3347 81.0125 46.3208 81.0042 46.307C80.9764 46.2667 80.9472 46.225 80.9181 46.1833L77.9139 42.0917Z" fill="#F9FAFB"/>
<path d="M73.3555 46.4639H75.2694L75.4819 49.575L73.5944 49.9611L73.3555 46.4639Z" fill="#F7F9FC"/>
<path d="M73.5944 50.2389C73.5346 50.2389 73.4749 50.2194 73.4263 50.1819C73.3624 50.1333 73.3221 50.0597 73.318 49.9792L73.0791 46.4819C73.0735 46.4055 73.1013 46.3292 73.1527 46.2736C73.2055 46.218 73.2791 46.1861 73.3555 46.1861H75.268C75.4138 46.1861 75.5346 46.2986 75.5457 46.4444L75.7582 49.5555C75.768 49.6944 75.6735 49.818 75.5374 49.8472L73.6499 50.2333C73.6319 50.2375 73.6124 50.2389 73.5944 50.2389ZM73.6527 46.7417L73.8499 49.6264L75.1874 49.3528L75.0096 46.743H73.6527V46.7417Z" fill="#F9FAFB"/>
<path d="M76.2 46.4639H77.2736L77.4583 49.1694L76.4 49.3861L76.2 46.4639Z" fill="#F7F9FC"/>
<path d="M76.3999 49.6639C76.3402 49.6639 76.2805 49.6444 76.2319 49.6069C76.168 49.5583 76.1277 49.4847 76.1236 49.4041L75.9236 46.4819C75.918 46.4055 75.9458 46.3292 75.9972 46.2736C76.0499 46.218 76.1236 46.1861 76.1999 46.1861H77.2735C77.4194 46.1861 77.5402 46.2986 77.5513 46.4444L77.7361 49.15C77.7458 49.2889 77.6513 49.4125 77.5152 49.4417L76.4569 49.6583C76.4374 49.6625 76.418 49.6639 76.3999 49.6639ZM76.4972 46.7417L76.6555 49.0514L77.1652 48.9472L77.0152 46.743H76.4972V46.7417Z" fill="#F9FAFB"/>
<path d="M78.2056 46.4639H104.233L96.8792 92.5764H85.0097L83.1833 104.026L82.9458 104.224H81.6347C82.5722 103.694 83.1903 102.683 83.0986 101.675L81.1639 80.2792H90.3681C90.7695 80.2792 91.1458 79.9653 91.207 79.5778C91.2695 79.1889 90.9931 78.8764 90.5917 78.8764H81.0375L80.5181 73.1264H91.5097C91.9111 73.1264 92.2875 72.8125 92.35 72.4237C92.4111 72.0362 92.1361 71.7223 91.7347 71.7223H80.3917L79.8722 65.9723H92.6514C93.0528 65.9723 93.4292 65.6584 93.4917 65.2695C93.5528 64.882 93.2778 64.5681 92.8764 64.5681H79.757C79.775 63.357 80.7806 62.1986 82.0833 61.9306C83.4542 61.6486 84.4944 60.3861 84.4056 59.1084L84.3861 58.8181H93.7931C94.1945 58.8181 94.5708 58.5042 94.6333 58.1153C94.6944 57.7278 94.4195 57.4139 94.0181 57.4139H84.2903L83.7986 50.2209C83.7236 49.1139 82.8278 48.3584 81.7 48.3584C81.525 48.3584 81.3445 48.3764 81.1611 48.4139L78.682 48.9223L78.3806 48.9834L78.2056 46.4639Z" fill="#F7F9FC"/>
<path d="M82.9458 104.503H81.6347C81.5083 104.503 81.3986 104.418 81.3667 104.296C81.3347 104.174 81.3889 104.046 81.4986 103.983C82.3694 103.492 82.9014 102.574 82.8222 101.701L80.8875 80.3056C80.8805 80.2278 80.9069 80.1514 80.9597 80.0931C81.0125 80.0361 81.0875 80.0028 81.1653 80.0028H90.3694C90.6347 80.0028 90.8944 79.7889 90.9347 79.5347C90.9514 79.4306 90.9292 79.3389 90.8694 79.2681C90.8069 79.1945 90.7083 79.1542 90.593 79.1542H81.0389C80.8958 79.1542 80.775 79.0445 80.7625 78.9014L80.243 73.1514C80.2361 73.0736 80.2625 72.9972 80.3153 72.9389C80.368 72.882 80.443 72.8486 80.5208 72.8486H91.5125C91.7778 72.8486 92.0375 72.6334 92.0778 72.3792C92.0944 72.2764 92.0708 72.182 92.0111 72.1125C91.9486 72.0389 91.85 71.9986 91.7361 71.9986H80.393C80.25 71.9986 80.1292 71.8889 80.1167 71.7459L79.5972 65.9959C79.5903 65.9181 79.6167 65.8417 79.6694 65.7834C79.7222 65.7264 79.7972 65.6931 79.875 65.6931H92.6542C92.9194 65.6931 93.1792 65.4778 93.2194 65.2236C93.2361 65.1208 93.2125 65.0264 93.1542 64.9584C93.0917 64.8847 92.993 64.8445 92.8791 64.8445H79.7597C79.6847 64.8445 79.6139 64.8153 79.5625 64.7611C79.5111 64.707 79.4819 64.6361 79.4833 64.5625C79.5042 63.2 80.5986 61.9514 82.0305 61.657C83.268 61.4028 84.2111 60.2681 84.1319 59.1264L84.1125 58.8361C84.1069 58.7597 84.1347 58.6833 84.1861 58.6278C84.2389 58.5708 84.3125 58.5403 84.3889 58.5403H93.7958C94.0611 58.5403 94.3208 58.325 94.3611 58.0708C94.3778 57.9681 94.3542 57.8736 94.2958 57.8042C94.2333 57.7306 94.1347 57.6903 94.0208 57.6903H84.293C84.1472 57.6903 84.0264 57.5778 84.0153 57.432L83.5236 50.2389C83.4597 49.2945 82.7111 48.6361 81.7014 48.6361C81.543 48.6361 81.3805 48.6528 81.218 48.6861L78.4375 49.257C78.3583 49.2736 78.2778 49.2542 78.2139 49.2056C78.15 49.157 78.1097 49.0833 78.1055 49.0028L77.9333 46.4847C77.9278 46.4083 77.9555 46.332 78.0069 46.2764C78.0597 46.2208 78.1333 46.1889 78.2097 46.1889H104.237C104.319 46.1889 104.396 46.225 104.449 46.2861C104.501 46.3472 104.525 46.4292 104.511 46.5097L97.1569 92.6222C97.1361 92.757 97.0194 92.857 96.8819 92.857H85.25L83.4611 104.074C83.45 104.14 83.4166 104.2 83.3639 104.243L83.1264 104.44C83.0736 104.479 83.0111 104.503 82.9458 104.503ZM82.4625 103.947H82.8458L82.9264 103.881L83.0361 103.189C82.8875 103.463 82.693 103.719 82.4625 103.947ZM81.468 80.557L83.3417 101.276L84.7361 92.5333C84.7569 92.3986 84.8736 92.2986 85.0111 92.2986H96.643L103.908 46.7417H78.5028L78.6333 48.6458L81.1028 48.1389C81.3014 48.0986 81.5028 48.0778 81.6972 48.0778C82.9916 48.0778 83.9903 48.9695 84.0736 50.1986L84.5472 57.1333H94.0153C94.2916 57.1333 94.5458 57.2458 94.7139 57.4431C94.8805 57.6375 94.9486 57.8917 94.9055 58.157C94.8222 58.682 94.3319 59.0945 93.7917 59.0945H84.6819C84.775 60.5014 83.6347 61.8945 82.1375 62.2014C81.075 62.4195 80.2125 63.307 80.0569 64.2889H92.8736C93.15 64.2889 93.4041 64.4014 93.5722 64.5986C93.7389 64.7931 93.8069 65.0472 93.7639 65.3125C93.6805 65.8375 93.1903 66.25 92.65 66.25H80.175L80.6444 71.4445H91.7333C92.0097 71.4445 92.2639 71.557 92.4319 71.7528C92.5986 71.9472 92.6667 72.2014 92.6236 72.4667C92.5403 72.9917 92.05 73.4042 91.5097 73.4042H80.8222L81.2916 78.5986H90.593C90.8694 78.5986 91.1236 78.7111 91.2917 78.907C91.4569 79.1014 91.525 79.3556 91.4833 79.6209C91.4 80.1459 90.9111 80.557 90.3694 80.557H81.468Z" fill="#F9FAFB"/>
<path d="M94.0154 57.4097C94.4168 57.4097 94.6932 57.7236 94.6307 58.1111C94.5682 58.5 94.1918 58.8139 93.7904 58.8139H84.3834L84.2876 57.4097H94.0154Z" fill="#D0D5DD"/>
<path d="M93.7918 59.093H84.3848C84.239 59.093 84.1181 58.9805 84.107 58.8347L84.0112 57.4305C84.0056 57.3541 84.0334 57.2778 84.0848 57.2222C84.1376 57.1666 84.2112 57.1347 84.2876 57.1347H94.014C94.2904 57.1347 94.5445 57.2472 94.7126 57.4444C94.8793 57.6389 94.9473 57.893 94.9043 58.1583C94.8209 58.6805 94.332 59.093 93.7918 59.093ZM84.6431 58.5375H93.7904C94.0556 58.5375 94.3154 58.3222 94.3556 58.068C94.3723 57.9653 94.3487 57.8708 94.2904 57.8014C94.2279 57.7278 94.1293 57.6875 94.0154 57.6875H84.5862L84.6431 58.5375Z" fill="#D0D5DD"/>
<path d="M92.8736 64.5652C93.275 64.5652 93.5514 64.8791 93.4889 65.2666C93.4264 65.6555 93.05 65.9694 92.6486 65.9694H79.8694L79.7597 64.75C79.7555 64.6889 79.7542 64.6264 79.7542 64.5652H92.8736Z" fill="#D0D5DD"/>
<path d="M92.6501 66.2472H79.8709C79.7279 66.2472 79.607 66.1375 79.5945 65.9944L79.4848 64.775C79.4793 64.7 79.4779 64.6305 79.4793 64.5611C79.482 64.4097 79.6057 64.2875 79.757 64.2875H92.8765C93.1529 64.2875 93.407 64.4 93.5751 64.5972C93.7418 64.7916 93.8098 65.0458 93.7668 65.3111C93.6806 65.8361 93.1918 66.2472 92.6501 66.2472ZM80.1237 65.6916H92.6501C92.9154 65.6916 93.1751 65.4764 93.2154 65.2222C93.232 65.1194 93.2084 65.025 93.1501 64.9555C93.0876 64.8819 92.989 64.8416 92.8751 64.8416H80.0487L80.1237 65.6916Z" fill="#D0D5DD"/>
<path d="M91.7334 71.7208C92.1348 71.7208 92.4112 72.0347 92.3487 72.4222C92.2862 72.8111 91.9098 73.125 91.5084 73.125H80.5168L80.3904 71.7208H91.7334Z" fill="#D0D5DD"/>
<path d="M91.5083 73.4028H80.5167C80.3736 73.4028 80.2528 73.2931 80.2403 73.15L80.1139 71.7458C80.1069 71.6681 80.1333 71.5917 80.1861 71.5333C80.2389 71.4764 80.3139 71.4431 80.3917 71.4431H91.7347C92.0111 71.4431 92.2653 71.5556 92.4333 71.7528C92.6 71.9472 92.6681 72.2014 92.625 72.4667C92.5389 72.9917 92.05 73.4028 91.5083 73.4028ZM80.7708 72.8472H91.5083C91.7736 72.8472 92.0333 72.6319 92.0736 72.3778C92.0903 72.275 92.0667 72.1806 92.0069 72.1111C91.9444 72.0375 91.8458 71.9972 91.7319 71.9972H80.6944L80.7708 72.8472Z" fill="#D0D5DD"/>
<path d="M90.5918 78.8764C90.9932 78.8764 91.2695 79.1889 91.207 79.5778C91.1459 79.9653 90.7695 80.2792 90.3682 80.2792H81.164L81.0376 78.8764H90.5918Z" fill="#D0D5DD"/>
<path d="M90.3681 80.557H81.1639C81.0208 80.557 80.9 80.4472 80.8875 80.3042L80.7611 78.9014C80.7542 78.8236 80.7805 78.7472 80.8333 78.6889C80.8861 78.632 80.9611 78.5986 81.0389 78.5986H90.5931C90.8694 78.5986 91.1236 78.7111 91.2917 78.907C91.4569 79.1014 91.525 79.3556 91.4833 79.6209C91.3986 80.1459 90.9083 80.557 90.3681 80.557ZM81.4181 80.0014H90.3681C90.6333 80.0014 90.893 79.7875 90.9333 79.5334C90.95 79.4292 90.9278 79.3375 90.868 79.2667C90.8055 79.1931 90.7069 79.1528 90.5917 79.1528H81.3417L81.4181 80.0014Z" fill="#D0D5DD"/>
<path d="M104.234 46.4639L107.236 50.5569L99.8822 96.6708L96.8794 92.5764L104.234 46.4639Z" fill="#E4E7EC"/>
<path d="M99.8821 96.9486C99.7946 96.9486 99.7112 96.907 99.6585 96.8347L96.6557 92.7403C96.6112 92.6806 96.5932 92.6056 96.6057 92.5319L103.96 46.4195C103.978 46.3083 104.06 46.2195 104.168 46.1931C104.277 46.1667 104.392 46.2083 104.457 46.2986L107.46 50.3931C107.504 50.4528 107.522 50.5278 107.51 50.6014L100.156 96.7139C100.138 96.825 100.056 96.9139 99.9473 96.9403C99.9251 96.9458 99.9043 96.9486 99.8821 96.9486ZM97.1723 92.5056L99.7126 95.9694L106.945 50.6278L104.404 47.1639L97.1723 92.5056Z" fill="#F9FAFB"/>
<path d="M96.879 92.5764L83.1846 104.026L85.0096 92.5764H96.879Z" fill="#D0D5DD"/>
<path d="M83.1847 104.304C83.1375 104.304 83.0902 104.292 83.0472 104.268C82.9458 104.211 82.8916 104.097 82.9097 103.983L84.7361 92.5333C84.7569 92.3986 84.8736 92.2986 85.0111 92.2986H96.8805C96.9972 92.2986 97.1013 92.3722 97.1416 92.4819C97.1819 92.5916 97.1486 92.7153 97.0583 92.7903L83.3638 104.24C83.3111 104.283 83.2472 104.304 83.1847 104.304ZM85.2472 92.8541L83.575 103.337L96.1139 92.8541H85.2472Z" fill="#F9FAFB"/>
<path d="M96.8793 92.5764L99.882 96.6709L86.1862 108.121L83.1848 104.026L96.8793 92.5764Z" fill="#D0D5DD"/>
<path d="M86.1862 108.399C86.1751 108.399 86.164 108.399 86.1529 108.397C86.0765 108.388 86.0084 108.347 85.9626 108.286L82.9598 104.192C82.8737 104.074 82.8932 103.908 83.0057 103.814L96.7001 92.3639C96.7584 92.3153 96.8348 92.2917 96.9112 92.3014C96.9876 92.3111 97.0557 92.3514 97.1015 92.4125L100.104 96.507C100.19 96.625 100.171 96.7903 100.058 96.8847L86.3654 108.333C86.3154 108.376 86.2515 108.399 86.1862 108.399ZM83.5626 104.072L86.2362 107.717L99.5043 96.6236L96.8306 92.9792L83.5626 104.072Z" fill="#F9FAFB"/>
<path d="M83.1849 104.026L86.1863 108.121L82.946 104.225L83.1849 104.026Z" fill="#E4E7EC"/>
<path d="M86.1876 108.399C86.1084 108.399 86.0293 108.364 85.9737 108.299L82.7334 104.403C82.6862 104.346 82.664 104.274 82.6709 104.2C82.6779 104.126 82.714 104.058 82.7695 104.012L83.007 103.815C83.0654 103.767 83.1431 103.744 83.2181 103.753C83.2945 103.762 83.3626 103.803 83.4084 103.864L86.4112 107.957C86.5001 108.078 86.4765 108.247 86.3584 108.34C86.307 108.379 86.2473 108.399 86.1876 108.399Z" fill="#F9FAFB"/>
<path d="M82.9459 104.225L86.1861 108.121L84.6375 108.318L81.6348 104.225H82.9459Z" fill="#E4E7EC"/>
<path d="M84.6376 108.596C84.5501 108.596 84.4668 108.554 84.414 108.482L81.4112 104.388C81.3487 104.303 81.3404 104.192 81.3876 104.097C81.4349 104.004 81.5307 103.944 81.6349 103.944H82.946C83.0279 103.944 83.1071 103.981 83.1599 104.044L86.4001 107.94C86.4654 108.018 86.4821 108.125 86.4446 108.219C86.4071 108.314 86.3224 108.381 86.221 108.393L84.671 108.59C84.6612 108.594 84.6487 108.596 84.6376 108.596ZM82.1835 104.503L84.7654 108.022L85.6501 107.91L82.8168 104.503H82.1835Z" fill="#F9FAFB"/>
<path d="M82.0542 103.939C81.9917 103.989 81.9265 104.038 81.8598 104.083C81.7903 104.131 81.7181 104.176 81.6445 104.218C81.6403 104.221 81.6376 104.222 81.6334 104.225C81.5556 104.269 81.4765 104.31 81.3945 104.346C81.2903 104.393 81.182 104.435 81.0723 104.469C80.9765 104.5 80.8792 104.525 80.7806 104.546L49.6876 110.919C49.5042 110.957 49.3237 110.975 49.1487 110.975C48.4265 110.975 47.7973 110.665 47.4209 110.15L50.4237 114.243C50.8015 114.758 51.4292 115.068 52.1515 115.068C52.3265 115.068 52.507 115.05 52.6903 115.013L83.7834 108.639C83.882 108.618 83.9806 108.593 84.0751 108.563C84.1848 108.528 84.2931 108.486 84.3973 108.439C84.4792 108.401 84.5584 108.361 84.6362 108.318C84.6403 108.315 84.6431 108.314 84.6473 108.311C84.7209 108.269 84.7931 108.224 84.8626 108.176C84.9292 108.131 84.9945 108.082 85.057 108.032L82.0542 103.939Z" fill="#667185"/>
<path d="M52.1515 115.346C51.3487 115.346 50.6362 115.004 50.1987 114.408L47.1959 110.314C47.1056 110.19 47.132 110.017 47.2556 109.925C47.3792 109.835 47.5529 109.861 47.6445 109.985L47.6459 109.986C47.9779 110.436 48.5251 110.696 49.1487 110.696C49.307 110.696 49.4695 110.679 49.632 110.646L80.7251 104.272C80.814 104.254 80.9029 104.231 80.989 104.203C81.0876 104.171 81.1862 104.133 81.2806 104.09C81.3542 104.057 81.4265 104.019 81.4973 103.981C81.5737 103.938 81.6404 103.896 81.7029 103.853C81.7626 103.811 81.8223 103.768 81.8792 103.721C81.939 103.674 82.014 103.651 82.089 103.661C82.164 103.671 82.232 103.711 82.2779 103.772L85.2806 107.865C85.3681 107.985 85.3473 108.151 85.232 108.246C85.164 108.301 85.0931 108.354 85.0209 108.404C84.9445 108.457 84.8654 108.507 84.7862 108.551L84.7737 108.558C84.689 108.606 84.6015 108.65 84.5126 108.69C84.3987 108.742 84.2792 108.788 84.1598 108.825C84.0542 108.858 83.9473 108.886 83.839 108.908L52.7459 115.282C52.5473 115.325 52.3473 115.346 52.1515 115.346ZM48.5195 111.178L50.6473 114.079C50.9792 114.531 51.5265 114.79 52.1515 114.79C52.3098 114.79 52.4723 114.774 52.6348 114.74L83.7279 108.367C83.8167 108.349 83.9056 108.325 83.9917 108.297C84.0904 108.265 84.189 108.228 84.2834 108.185C84.357 108.151 84.4306 108.114 84.5001 108.075C84.5612 108.04 84.6167 108.007 84.6681 107.972L81.9945 104.326C81.9265 104.372 81.8542 104.417 81.7834 104.458C81.782 104.458 81.7695 104.465 81.7695 104.467C81.6862 104.514 81.5987 104.558 81.5098 104.599C81.3959 104.65 81.2765 104.696 81.157 104.733C81.0515 104.767 80.9445 104.794 80.8362 104.817L49.7431 111.19C49.3251 111.276 48.9015 111.271 48.5195 111.178Z" fill="#F9FAFB"/>
<path d="M83.0987 101.675C83.1904 102.683 82.5723 103.694 81.6348 104.224C81.3723 104.372 81.0848 104.482 80.782 104.544L49.689 110.918C49.5057 110.956 49.3251 110.974 49.1501 110.974C48.0348 110.974 47.1459 110.236 47.0529 109.146L42.7695 58.6264C42.682 57.3486 43.7223 56.0833 45.0932 55.8028L57.9598 53.1653L70.6987 50.5541L71.2668 58.8805C71.3112 59.5139 71.5918 60.0514 72.0209 60.4278C72.4515 60.8028 73.032 61.0194 73.6807 61.0208C73.882 61.0208 74.089 60.9986 74.3001 60.9555C74.9793 60.8166 75.5932 60.4639 76.0584 59.9916C76.5223 59.5194 76.8432 58.925 76.9432 58.2972C76.9737 58.1041 76.9834 57.9069 76.9695 57.7111L76.4015 49.3861L77.4598 49.1694L77.8112 54.3305C77.8251 54.5361 77.9918 54.675 78.2015 54.675C78.5543 54.6125 78.7473 54.3778 78.7306 54.1416L78.3779 48.9805L78.6793 48.9194L81.1584 48.4111C81.3418 48.3736 81.5223 48.3555 81.6973 48.3555C82.8265 48.3555 83.7223 49.1111 83.7959 50.218L84.2876 57.4111L84.3834 58.8153L84.4029 59.1055C84.4904 60.3833 83.4501 61.6472 82.0806 61.9278C80.7779 62.1958 79.7723 63.3528 79.7543 64.5653C79.7529 64.6264 79.7543 64.6889 79.7598 64.75L79.8695 65.9694L80.389 71.7194L80.5154 73.1236L81.0348 78.8736L81.1612 80.2764L83.0987 101.675Z" fill="#D0D5DD"/>
<path d="M49.15 111.251C47.8764 111.251 46.8792 110.376 46.7764 109.169L42.4931 58.65C42.3959 57.2361 43.5375 55.8389 45.0375 55.5305L70.6431 50.2833C70.7222 50.2666 70.8028 50.2861 70.8667 50.3347C70.9306 50.3833 70.9709 50.4569 70.975 50.5375L71.5431 58.8639C71.5806 59.4 71.8153 59.8819 72.2028 60.2208C72.5889 60.5569 73.1139 60.743 73.6806 60.7444C73.8597 60.7444 74.05 60.725 74.2445 60.6847C74.8431 60.5625 75.4167 60.2472 75.8597 59.7986C76.2931 59.3583 76.5792 58.8097 76.6681 58.2555C76.6959 58.0778 76.7042 57.9028 76.6917 57.7333L76.1236 49.4055C76.1139 49.2666 76.2084 49.143 76.3445 49.1139L77.4028 48.8972C77.4806 48.8805 77.5625 48.9 77.6264 48.9486C77.6903 48.9972 77.7306 49.0708 77.7347 49.1514L78.0875 54.3125C78.0917 54.3764 78.1445 54.393 78.1806 54.3972C78.3681 54.3569 78.4597 54.25 78.4528 54.1625L78.1 49.0014C78.0903 48.8625 78.1847 48.7389 78.3209 48.7097L81.1014 48.1389C81.3014 48.0986 81.5014 48.0778 81.6959 48.0778C82.9903 48.0778 83.9889 48.9694 84.0722 50.1986L84.6792 59.0875C84.7764 60.4958 83.6347 61.893 82.1347 62.2014C80.9709 62.4403 80.0472 63.4805 80.0306 64.5708C80.0292 64.625 80.0306 64.6778 80.0347 64.7319L83.3722 101.651C83.4709 102.737 82.8264 103.869 81.7681 104.467C81.4736 104.633 81.1597 104.751 80.8347 104.818L49.7417 111.192C49.5459 111.231 49.3459 111.251 49.15 111.251ZM70.4417 50.8916L45.1472 56.075C43.9097 56.3291 42.9667 57.4653 43.0459 58.6083L47.3292 109.124C47.4084 110.05 48.157 110.697 49.15 110.697C49.3084 110.697 49.4709 110.681 49.6334 110.647L80.7264 104.274C80.9945 104.218 81.2542 104.121 81.4986 103.983C82.3695 103.492 82.9014 102.575 82.8222 101.701L79.4834 64.7764C79.4778 64.7014 79.4764 64.6319 79.4778 64.5625C79.4986 63.2 80.5945 61.9514 82.0264 61.6569C83.2639 61.4028 84.207 60.268 84.1278 59.1264L83.5209 50.2375C83.457 49.293 82.7084 48.6347 81.6986 48.6347C81.5403 48.6347 81.3778 48.6514 81.2153 48.6847L78.6722 49.2069L79.0084 54.125C79.0361 54.5208 78.7181 54.868 78.25 54.95C78.2347 54.9528 78.2181 54.9541 78.2014 54.9541C77.8389 54.9541 77.557 54.7 77.5334 54.35L77.2028 49.5055L76.6931 49.6097L77.2445 57.693C77.2597 57.9028 77.25 58.1222 77.2153 58.3416C77.1084 59.0083 76.7681 59.6639 76.2542 60.1861C75.7347 60.7139 75.0597 61.0833 74.3542 61.2278C74.1222 61.275 73.8945 61.2986 73.6792 61.2986C72.9778 61.2972 72.3236 61.0625 71.8361 60.6375C71.3361 60.2 71.0347 59.5833 70.9875 58.9L70.4417 50.8916Z" fill="#F9FAFB"/>
<path d="M73.6793 61.2986C72.9793 61.2972 72.3251 61.0625 71.8376 60.6375C71.3376 60.2 71.0362 59.5833 70.989 58.9L70.0821 45.6181C70.0626 45.3375 70.0751 45.05 70.121 44.7653C70.2612 43.8847 70.7112 43.0208 71.389 42.3333C72.0737 41.6361 72.9654 41.1472 73.9001 40.9556C74.2001 40.8944 74.4987 40.8639 74.789 40.8639C75.7085 40.8639 76.5682 41.1722 77.2085 41.7306C77.864 42.3028 78.2585 43.1111 78.3168 44.0056L79.0085 54.1222C79.0349 54.4986 78.7487 54.8556 78.3571 54.9361C78.3043 54.9458 78.2529 54.9514 78.2029 54.9514C77.8404 54.9514 77.5599 54.6972 77.5349 54.3472L76.8446 44.2306C76.8057 43.6708 76.5724 43.1889 76.1682 42.8361C75.7696 42.4875 75.2307 42.2958 74.6487 42.2958C74.4612 42.2958 74.2668 42.3167 74.0696 42.3569C73.446 42.4847 72.8724 42.8 72.4112 43.2681C71.9668 43.7194 71.6724 44.2819 71.5821 44.8514C71.5529 45.0347 71.5446 45.2167 71.5571 45.3889L72.464 58.6708C72.4876 59.0153 72.6307 59.3125 72.8793 59.5306C73.1265 59.7444 73.4612 59.8625 73.821 59.8625C73.939 59.8625 74.0626 59.85 74.1862 59.825C74.5807 59.7431 74.9432 59.5431 75.2349 59.2486C75.514 58.9639 75.7001 58.6097 75.7571 58.2528C75.7751 58.1431 75.7807 58.0292 75.7737 57.9153L74.9071 45.2375C74.8974 45.1069 74.846 44.9972 74.7515 44.9153C74.6571 44.8333 74.5265 44.7861 74.3862 44.7861C74.3362 44.7875 74.2835 44.7931 74.2335 44.8028C74.0696 44.8375 73.9182 44.9208 73.7974 45.0444C73.6793 45.1639 73.6029 45.3083 73.5793 45.4528C73.5724 45.4931 73.571 45.5389 73.5737 45.5847L74.1585 54.1458C74.1849 54.5222 73.8974 54.8792 73.5071 54.9597C73.4557 54.9708 73.4029 54.9764 73.3515 54.9764C72.989 54.9764 72.7099 54.7222 72.6849 54.3722L72.1001 45.8125C72.0904 45.6694 72.0974 45.5194 72.121 45.3653C72.1932 44.9097 72.4265 44.4625 72.7751 44.1083C73.1237 43.7514 73.5821 43.5 74.064 43.4C74.2237 43.3694 74.3779 43.3528 74.5251 43.3528C75.0057 43.3528 75.4543 43.5153 75.7918 43.8083C76.139 44.1097 76.3474 44.5361 76.3793 45.0083L77.2446 57.6889C77.2599 57.8986 77.2501 58.1181 77.2154 58.3375C77.1099 59.0042 76.7682 59.6597 76.2543 60.1819C75.7349 60.7083 75.0612 61.0792 74.3543 61.2236C74.1237 61.275 73.896 61.2986 73.6793 61.2986Z" fill="#D0D5DD"/>
<path d="M74.7876 41.143C75.6626 41.143 76.4446 41.4347 77.0251 41.9417C77.6043 42.4472 77.9835 43.1694 78.039 44.0264L78.2057 46.4653L78.3779 48.9833L78.7307 54.1444C78.7474 54.3792 78.5543 54.6153 78.3001 54.668C78.2668 54.675 78.2335 54.6778 78.2015 54.6778C77.9918 54.6778 77.8251 54.5389 77.8112 54.3333L77.4599 49.1722L77.2751 46.4667L77.121 44.2167C77.0765 43.5625 76.7918 43.0167 76.3501 42.6319C75.9085 42.2458 75.3112 42.0236 74.6487 42.0236C74.4446 42.0236 74.2307 42.0458 74.014 42.0903C73.314 42.2347 72.6918 42.593 72.2126 43.0778C71.7349 43.5625 71.4085 44.1722 71.3071 44.8125C71.2751 45.0097 71.264 45.2125 71.2793 45.4139L71.3515 46.4667L71.6182 50.3694L72.1862 58.6944C72.2154 59.1278 72.4043 59.4875 72.696 59.743C72.989 59.9972 73.3835 60.1444 73.821 60.1444C73.9571 60.1444 74.0987 60.1306 74.2404 60.1014C74.7043 60.0056 75.1154 59.768 75.4321 59.4472C75.7474 59.1264 75.964 58.7236 76.0307 58.3C76.0515 58.1694 76.0585 58.0361 76.0501 57.9014L75.4807 49.5764L75.2682 46.4653L75.1835 45.2222C75.1682 45.0083 75.0765 44.8347 74.9335 44.7097C74.789 44.5847 74.5974 44.5125 74.3849 44.5125C74.3168 44.5139 74.2487 44.5208 74.1779 44.5347C73.9501 44.5819 73.7529 44.6958 73.5974 44.8542C73.4432 45.0111 73.3362 45.2083 73.3029 45.4139C73.2932 45.4778 73.2904 45.543 73.2946 45.6083L73.3529 46.4667L73.5918 49.9639L73.8793 54.1694C73.896 54.4069 73.7029 54.6403 73.4487 54.693C73.414 54.7 73.3807 54.7028 73.3487 54.7028C73.139 54.7028 72.9737 54.5625 72.9599 54.3569L72.6724 50.1514L72.421 46.4653L72.3751 45.7972C72.3654 45.6694 72.3737 45.5403 72.3932 45.4139C72.4585 45.0042 72.6682 44.6153 72.971 44.3083C73.2724 44 73.6751 43.7694 74.1182 43.6778C74.2557 43.6514 74.3904 43.6361 74.5224 43.6361C74.9474 43.6361 75.3251 43.7778 75.6057 44.0236C75.8876 44.268 76.071 44.6194 76.0987 45.0333L76.196 46.4667L76.396 49.3889L76.964 57.7139C76.9793 57.9097 76.9682 58.1069 76.9376 58.3C76.8376 58.9278 76.5168 59.5208 76.0529 59.9944C75.5876 60.4667 74.9737 60.8194 74.2946 60.9583C74.0835 61.0014 73.8765 61.0236 73.6751 61.0236C73.0265 61.0222 72.4446 60.8055 72.0154 60.4305C71.5849 60.0542 71.3057 59.5167 71.2612 58.8833L70.6974 50.5555L70.4182 46.4639L70.3599 45.6C70.3418 45.3361 70.3543 45.0708 70.396 44.8097C70.5307 43.9653 70.9612 43.1653 71.5876 42.5292C72.214 41.8917 73.0404 41.4167 73.9557 41.2292C74.2376 41.1708 74.5168 41.143 74.7876 41.143ZM74.7876 40.5875C74.4793 40.5875 74.1626 40.6194 73.8446 40.6833C72.8543 40.8861 71.9126 41.4028 71.189 42.1389C70.4724 42.8667 69.9946 43.7833 69.846 44.7208C69.7974 45.0264 69.7835 45.3347 69.8043 45.6375L69.8626 46.5014L70.1418 50.593L70.7099 58.9194C70.764 59.6778 71.0987 60.3611 71.6529 60.8472C72.1918 61.3167 72.9098 61.575 73.6779 61.5778C73.914 61.5778 74.1599 61.5528 74.4085 61.5014C75.1696 61.3458 75.896 60.9486 76.4529 60.3833C77.0071 59.8194 77.3751 59.1097 77.4904 58.3875C77.5293 58.1458 77.539 57.9055 77.5223 57.6722L77.3154 54.6375C77.4501 54.9903 77.7932 55.2319 78.2015 55.2319C78.2696 55.2319 78.339 55.225 78.4085 55.2111C78.9376 55.1028 79.321 54.6167 79.2848 54.1042L78.9321 48.9444L78.7599 46.4264L78.5932 43.9875C78.5293 43.0194 78.1015 42.143 77.3904 41.5222C76.6987 40.9194 75.7737 40.5875 74.7876 40.5875ZM71.8349 45.4097L71.8321 45.3736C71.821 45.218 71.8279 45.0597 71.8543 44.8972C71.9362 44.3833 72.2043 43.875 72.6071 43.4639C73.0293 43.0361 73.5543 42.7486 74.1237 42.6305C74.3029 42.5944 74.4779 42.575 74.6474 42.575C75.1612 42.575 75.6362 42.743 75.9835 43.0458C76.3321 43.35 76.5335 43.7667 76.5654 44.25L76.5876 44.5847C76.4849 44.2028 76.2737 43.8611 75.9724 43.6C75.5862 43.2625 75.0724 43.0764 74.5251 43.0764C74.3599 43.0764 74.1876 43.093 74.014 43.1278C73.4724 43.2403 72.964 43.518 72.5765 43.9153C72.1876 44.3097 71.9293 44.8097 71.8474 45.3222C71.8432 45.3528 71.839 45.3805 71.8349 45.4097ZM73.3515 55.2555C73.421 55.2555 73.4932 55.2486 73.5626 55.2333C74.0876 55.125 74.471 54.6403 74.4362 54.1278L74.1487 49.9222L73.9099 46.425L73.8515 45.5667C73.8501 45.5417 73.8501 45.518 73.8543 45.4972C73.8682 45.4111 73.9196 45.3167 73.9946 45.2403C74.0779 45.1542 74.1807 45.0986 74.2932 45.075C74.321 45.0694 74.3543 45.0653 74.3918 45.0653C74.464 45.0667 74.5251 45.0875 74.571 45.1264C74.6071 45.1583 74.6265 45.2 74.6307 45.2583L74.7154 46.5L74.9279 49.6111L75.4974 57.9361C75.5029 58.025 75.4987 58.118 75.4835 58.2097C75.4362 58.5097 75.2765 58.8111 75.0362 59.0556C74.7849 59.3111 74.4696 59.4833 74.1279 59.5555C74.0265 59.5764 73.921 59.5861 73.821 59.5861C73.5279 59.5861 73.2571 59.4917 73.0599 59.3208C72.871 59.1542 72.7598 58.9236 72.7404 58.6542L72.4682 54.6639C72.6015 55.0153 72.9446 55.2555 73.3515 55.2555Z" fill="#F9FAFB"/>
<path d="M114.19 44.675L114.464 46.3875C114.629 47.4139 115.333 48.218 116.347 48.5347L118.04 49.0625L116.179 49.5903C115.065 49.9069 114.104 50.7111 113.611 51.7375L112.79 53.45L112.515 51.7375C112.35 50.7111 111.646 49.9069 110.632 49.5903L108.94 49.0625L110.8 48.5347C111.914 48.218 112.875 47.4139 113.368 46.3875L114.19 44.675Z" fill="#D0D5DD"/>
<path d="M55.9444 37.9458L56.1542 39.2583C56.2805 40.0458 56.8208 40.6625 57.5986 40.9042L58.8958 41.3083L57.4694 41.7139C56.6153 41.9556 55.8778 42.5722 55.5 43.3583L54.8708 44.6722L54.6611 43.3583C54.5347 42.5708 53.9944 41.9556 53.2167 41.7139L51.9194 41.3083L53.3458 40.9042C54.2 40.6625 54.9375 40.0444 55.3153 39.2583L55.9444 37.9458Z" fill="#D0D5DD"/>
<path d="M91.3792 83.3833L91.4959 84.1152C91.5667 84.5527 91.8681 84.8972 92.3014 85.0319L93.0237 85.2569L92.2292 85.4819C91.7528 85.618 91.3417 85.9611 91.1306 86.3986L90.7792 87.1305L90.6625 86.3986C90.5917 85.9611 90.2917 85.6166 89.8584 85.4819L89.1348 85.2569L89.9306 85.0319C90.407 84.8958 90.8167 84.5527 91.0278 84.1152L91.3792 83.3833Z" fill="#D0D5DD"/>
<path d="M38.7514 93.1889L38.8681 93.9208C38.9389 94.3597 39.2403 94.7028 39.6737 94.8375L40.3959 95.0625L39.6014 95.2875C39.125 95.4236 38.7139 95.7667 38.5028 96.2056L38.1528 96.9375L38.0362 96.2056C37.9667 95.7667 37.6653 95.4236 37.232 95.2875L36.5098 95.0625L37.3042 94.8375C37.7806 94.7028 38.1917 94.3597 38.4014 93.9208L38.7514 93.1889Z" fill="#D0D5DD"/>
</svg>
