<svg width="150" height="150" viewBox="0 0 150 150" fill="none" xmlns="http://www.w3.org/2000/svg">
<path d="M75 122.697C103.319 122.697 126.276 113.691 126.276 102.582C126.276 91.4726 103.319 82.4667 75 82.4667C46.6809 82.4667 23.7236 91.4726 23.7236 102.582C23.7236 113.691 46.6809 122.697 75 122.697Z" fill="#FFECE5"/>
<path d="M100.174 99.8361L102.546 103.072H58.3236L55.95 99.8361H100.174Z" fill="#FA9874"/>
<path d="M102.546 103.385H58.3236C58.2236 103.385 58.1305 103.337 58.0722 103.257L55.6986 100.022C55.6291 99.9278 55.618 99.8014 55.6722 99.6958C55.7249 99.5903 55.8333 99.525 55.9513 99.525H100.175C100.275 99.525 100.368 99.5722 100.426 99.6528L102.8 102.887C102.869 102.982 102.88 103.108 102.826 103.214C102.772 103.318 102.664 103.385 102.546 103.385ZM58.4819 102.76H101.93L100.015 100.15H56.5666L58.4819 102.76Z" fill="#FFECE5"/>
<path d="M111.07 31.5181L113.442 34.7542L102.546 103.072L100.174 99.8361L111.07 31.5181Z" fill="#FCB59A"/>
<path d="M102.546 103.385C102.447 103.385 102.354 103.339 102.295 103.257L99.921 100.022C99.871 99.9556 99.8515 99.8708 99.864 99.7875L110.76 31.4694C110.779 31.3444 110.872 31.2444 110.995 31.2153C111.117 31.1861 111.246 31.2319 111.32 31.3347L113.693 34.5694C113.743 34.6361 113.763 34.7208 113.75 34.8042L102.854 103.122C102.835 103.247 102.742 103.347 102.62 103.376C102.596 103.382 102.571 103.385 102.546 103.385ZM100.503 99.757L102.356 102.283L113.113 34.8333L111.26 32.3069L100.503 99.757Z" fill="#FFECE5"/>
<path d="M111.069 31.518L100.174 99.8361H55.95L56.6458 95.4708H95.9069L106.107 31.518H111.069Z" fill="#FFECE5"/>
<path d="M100.174 100.149H55.95C55.8584 100.149 55.7722 100.108 55.7125 100.039C55.6528 99.9694 55.6278 99.8778 55.6417 99.7875L56.3375 95.4208C56.3611 95.2694 56.4931 95.1569 56.6459 95.1569H95.6403L105.797 31.4681C105.821 31.3167 105.953 31.2042 106.106 31.2042H111.068C111.16 31.2042 111.246 31.2444 111.306 31.3139C111.365 31.3833 111.39 31.475 111.376 31.5653L100.481 99.8833C100.457 100.037 100.326 100.149 100.174 100.149ZM56.3167 99.5236H99.907L110.703 31.8306H106.374L96.2167 95.5194C96.1931 95.6708 96.0611 95.7833 95.9083 95.7833H56.9125L56.3167 99.5236Z" fill="#FFECE5"/>
<path d="M47.1113 100.636L49.4835 103.871L39.2335 113.525L36.8599 110.29L47.1113 100.636Z" fill="#FA9874"/>
<path d="M39.2334 113.838C39.2237 113.838 39.214 113.838 39.2042 113.836C39.1153 113.828 39.0334 113.782 38.9806 113.71L36.607 110.475C36.514 110.347 36.5292 110.171 36.6445 110.063L46.8945 100.408C46.9598 100.347 47.0487 100.317 47.1376 100.325C47.2265 100.333 47.3084 100.379 47.3612 100.451L49.7348 103.686C49.8278 103.814 49.8126 103.99 49.6973 104.099L39.4473 113.753C39.389 113.807 39.3126 113.838 39.2334 113.838ZM37.2751 110.328L39.2751 113.056L49.0667 103.833L47.0667 101.106L37.2751 110.328Z" fill="#FFECE5"/>
<path d="M56.646 95.4709L55.9501 99.8361L54.2835 110.29L47.1113 100.636L36.8599 110.29L39.2238 95.4709H56.646Z" fill="#FCD2C2"/>
<path d="M54.2835 110.603C54.1862 110.603 54.0918 110.557 54.0321 110.476L47.0696 101.104L37.0751 110.517C36.9779 110.608 36.8321 110.628 36.7154 110.565C36.5974 110.503 36.5321 110.372 36.5529 110.24L38.9168 95.4208C38.9404 95.2695 39.0724 95.157 39.2251 95.157H56.6474C56.739 95.157 56.8251 95.1972 56.8849 95.2667C56.9446 95.3361 56.9696 95.4278 56.9557 95.5181L54.5918 110.338C54.5724 110.461 54.4793 110.563 54.3571 110.592C54.3321 110.599 54.3071 110.603 54.2835 110.603ZM47.1113 100.324C47.121 100.324 47.1293 100.324 47.139 100.325C47.2279 100.333 47.3085 100.378 47.3626 100.45L54.0918 109.508L56.2807 95.7833H39.4904L37.3126 109.435L46.896 100.41C46.9543 100.353 47.0307 100.324 47.1113 100.324Z" fill="#FFECE5"/>
<path d="M56.6459 95.4708L55.9501 99.8361L54.2834 110.29L56.6557 113.525L58.3237 103.072L59.0196 98.7055L56.6459 95.4708Z" fill="#FCD2C2"/>
<path d="M56.6556 113.837C56.557 113.837 56.4639 113.792 56.4042 113.71L54.0306 110.475C53.9806 110.408 53.9611 110.324 53.9736 110.24L56.3375 95.4208C56.357 95.2958 56.45 95.1958 56.5723 95.1667C56.6945 95.1375 56.8237 95.1833 56.8973 95.2861L59.2709 98.5208C59.3209 98.5875 59.3403 98.6722 59.3278 98.7555L56.9639 113.575C56.9445 113.7 56.8514 113.8 56.7292 113.829C56.7056 113.835 56.6806 113.837 56.6556 113.837ZM54.6125 110.21L56.4653 112.736L58.6903 98.7847L56.8375 96.2583L54.6125 110.21Z" fill="#FFECE5"/>
<path d="M106.803 27.1528L106.107 31.518L95.907 95.4708H56.6459H39.2237H34.2598L45.1556 27.1528H106.803Z" fill="#F56630"/>
<path d="M73.9945 78.0875C74.3917 78.0875 74.664 78.3972 74.6029 78.7805C74.5418 79.1639 74.1709 79.475 73.7737 79.475H50.3862C49.989 79.475 49.7167 79.1639 49.7779 78.7805C49.839 78.3972 50.2098 78.0875 50.607 78.0875H73.9945Z" fill="#FCB59A"/>
<path d="M73.7722 79.7875H50.3861C50.1028 79.7875 49.8403 79.6708 49.6681 79.4694C49.4958 79.2681 49.4264 79.0056 49.4695 78.7319C49.5556 78.1958 50.0542 77.775 50.607 77.775H73.9945C74.2792 77.775 74.5403 77.8917 74.7139 78.0931C74.8847 78.2944 74.9556 78.5556 74.9111 78.8292C74.825 79.3667 74.325 79.7875 73.7722 79.7875ZM50.607 78.4C50.3625 78.4 50.1236 78.5972 50.0861 78.8306C50.0708 78.9222 50.0917 79.0042 50.1431 79.0639C50.1972 79.1278 50.2833 79.1625 50.3861 79.1625H73.7736C74.0181 79.1625 74.257 78.9653 74.2945 78.7319C74.3097 78.6403 74.2903 78.5597 74.2389 78.5C74.1847 78.4361 74.0986 78.4014 73.9958 78.4014H50.607V78.4Z" fill="#FCB59A"/>
<path d="M86.4987 69.3528C86.8959 69.3528 87.1681 69.6625 87.107 70.0458C87.0459 70.4292 86.6751 70.7403 86.2779 70.7403H51.7793C51.382 70.7403 51.1098 70.4292 51.1709 70.0458C51.232 69.6625 51.6029 69.3528 52.0001 69.3528H86.4987Z" fill="#FCB59A"/>
<path d="M86.2778 71.0528H51.7792C51.4959 71.0528 51.2334 70.9361 51.0611 70.7347C50.8889 70.5333 50.8195 70.2708 50.8625 69.9972C50.9486 69.4611 51.4472 69.0403 52 69.0403H86.4986C86.7834 69.0403 87.0445 69.157 87.2181 69.3583C87.3889 69.5597 87.4598 69.8208 87.4167 70.0944C87.3292 70.6319 86.8292 71.0528 86.2778 71.0528ZM52 69.6653C51.7556 69.6653 51.5167 69.8625 51.4792 70.0944C51.4639 70.1861 51.4834 70.2681 51.5361 70.3278C51.5903 70.3917 51.6764 70.4264 51.7792 70.4264H86.2778C86.5223 70.4264 86.7611 70.2292 86.7986 69.9958C86.8125 69.9042 86.7945 69.8236 86.7431 69.7639C86.6889 69.7 86.6028 69.6653 86.5 69.6653H52Z" fill="#FCB59A"/>
<path d="M87.8918 60.6181C88.289 60.6181 88.5612 60.9292 88.5001 61.3111C88.439 61.6945 88.0682 62.0056 87.6709 62.0056H53.1723C52.7751 62.0056 52.5029 61.6945 52.564 61.3111C52.6251 60.9292 52.9959 60.6181 53.3932 60.6181H87.8918Z" fill="#FCB59A"/>
<path d="M87.6709 62.3181H53.1723C52.8889 62.3181 52.6264 62.2014 52.4542 62C52.282 61.7986 52.2125 61.5361 52.2556 61.2625C52.3417 60.7264 52.8403 60.3056 53.3931 60.3056H87.8917C88.175 60.3056 88.4375 60.4222 88.6098 60.6236C88.7806 60.825 88.8514 61.0861 88.8084 61.3597C88.7223 61.8972 88.2223 62.3181 87.6709 62.3181ZM53.3931 60.9306C53.1486 60.9306 52.9098 61.1278 52.8723 61.3597C52.857 61.4514 52.8778 61.5333 52.9292 61.5931C52.9834 61.657 53.0695 61.6917 53.1723 61.6917H87.6709C87.9153 61.6917 88.1542 61.4945 88.1917 61.2611C88.2056 61.1695 88.1861 61.0889 88.1348 61.0292C88.0806 60.9653 87.9945 60.9306 87.8917 60.9306H53.3931Z" fill="#FCB59A"/>
<path d="M89.2846 51.8833C89.6818 51.8833 89.954 52.1944 89.8929 52.5778C89.8318 52.9597 89.461 53.2708 89.0638 53.2708H54.5651C54.1679 53.2708 53.8957 52.9597 53.9568 52.5778C54.0179 52.1944 54.3888 51.8833 54.786 51.8833H89.2846Z" fill="#FCB59A"/>
<path d="M89.0638 53.5833H54.5652C54.2819 53.5833 54.0194 53.4667 53.8471 53.2653C53.6763 53.0639 53.6055 52.8028 53.6485 52.5292C53.7346 51.9917 54.2346 51.5722 54.786 51.5722H89.2846C89.568 51.5722 89.8305 51.6889 90.0027 51.8903C90.1749 52.0917 90.2444 52.3528 90.2013 52.6278C90.1152 53.1625 89.6152 53.5833 89.0638 53.5833ZM54.786 52.1958C54.5416 52.1958 54.3027 52.3931 54.2652 52.6264C54.2513 52.7181 54.2708 52.7986 54.3221 52.8583C54.3763 52.9222 54.4624 52.957 54.5652 52.957H89.0638C89.3083 52.957 89.5471 52.7597 89.5846 52.5264C89.5999 52.4347 89.5791 52.3528 89.5277 52.2931C89.4735 52.2292 89.3874 52.1945 89.2846 52.1945H54.786V52.1958Z" fill="#FCB59A"/>
<path d="M90.6779 43.1486C91.0751 43.1486 91.3473 43.4597 91.2862 43.8431C91.2251 44.2264 90.8543 44.5361 90.4571 44.5361H55.9585C55.5612 44.5361 55.289 44.2264 55.3501 43.8431C55.4112 43.4597 55.7821 43.1486 56.1793 43.1486H90.6779Z" fill="#FCB59A"/>
<path d="M90.457 44.8486H55.9584C55.6737 44.8486 55.4126 44.732 55.239 44.5306C55.0682 44.3292 54.9973 44.0681 55.0418 43.7945C55.1279 43.257 55.6265 42.8361 56.1793 42.8361H90.6779C90.9612 42.8361 91.2237 42.9528 91.3959 43.1542C91.5682 43.3556 91.6376 43.6181 91.5945 43.8917C91.5084 44.4278 91.0084 44.8486 90.457 44.8486ZM56.1793 43.4611C55.9348 43.4611 55.6959 43.6583 55.6584 43.8917C55.6432 43.9833 55.6626 44.0639 55.714 44.1236C55.7682 44.1875 55.8543 44.2222 55.9571 44.2222H90.4557C90.7001 44.2222 90.939 44.025 90.9765 43.7931C90.9918 43.7014 90.9723 43.6195 90.9195 43.5597C90.8654 43.4958 90.7793 43.4611 90.6765 43.4611H56.1793Z" fill="#FCB59A"/>
<path d="M106.803 27.1528L106.107 31.518L95.907 95.4708L98.2806 98.7056L108.479 34.7542L109.176 30.3875L106.803 27.1528Z" fill="#FCD2C2"/>
<path d="M98.2806 99.0181C98.182 99.0181 98.0889 98.9722 98.0292 98.8903L95.6556 95.6556C95.6056 95.5889 95.5862 95.5042 95.5987 95.4208L106.494 27.1028C106.514 26.9778 106.607 26.8778 106.729 26.8486C106.851 26.8194 106.981 26.8653 107.054 26.9681L109.428 30.2028C109.478 30.2694 109.497 30.3542 109.485 30.4375L98.5889 98.7556C98.5695 98.8806 98.4764 98.9806 98.3542 99.0097C98.3292 99.0153 98.3042 99.0181 98.2806 99.0181ZM96.2362 95.3903L98.0903 97.9167L108.847 30.4667L106.994 27.9403L96.2362 95.3903Z" fill="#FFECE5"/>
<path d="M95.907 95.4708H56.6459H36.3709H34.2598L36.6334 98.7055H38.7431H59.0195H98.2806L95.907 95.4708Z" fill="#FCB59A"/>
<path d="M98.2806 99.018H36.6334C36.5334 99.018 36.4403 98.9708 36.382 98.8903L34.0084 95.6555C33.9389 95.5611 33.9278 95.4347 33.982 95.3292C34.0348 95.2236 34.1431 95.1583 34.2611 95.1583H95.9084C96.0084 95.1583 96.1014 95.2055 96.1598 95.2861L98.5334 98.5208C98.6028 98.6153 98.6139 98.7417 98.5598 98.8472C98.5056 98.9514 98.3986 99.018 98.2806 99.018ZM36.7917 98.393H97.6639L95.7487 95.7833H34.8764L36.7917 98.393Z" fill="#FFECE5"/>
<path d="M118.621 39.6986L118.924 41.5861C119.106 42.7181 119.882 43.6042 120.999 43.9528L122.865 44.5347L120.814 45.1167C119.586 45.4653 118.526 46.3514 117.983 47.4833L117.079 49.3708L116.775 47.4833C116.593 46.3514 115.817 45.4653 114.7 45.1167L112.835 44.5347L114.885 43.9528C116.112 43.6042 117.172 42.7181 117.715 41.5861L118.621 39.6986Z" fill="#F56630"/>
<path d="M39.3418 28.6875L39.5737 30.1347C39.714 31.0028 40.3085 31.6819 41.1654 31.95L42.596 32.3958L41.0224 32.8431C40.0807 33.1097 39.2682 33.7889 38.8515 34.6569L38.1585 36.1056L37.9265 34.6569C37.7862 33.7889 37.1918 33.1111 36.3349 32.8431L34.9043 32.3958L36.4765 31.95C37.4182 31.6833 38.2307 31.0028 38.6474 30.1347L39.3418 28.6875Z" fill="#F56630"/>
<path d="M91.6238 82.5708L91.7529 83.3778C91.8307 83.8611 92.1626 84.2389 92.6404 84.3889L93.4363 84.6375L92.5613 84.8861C92.0363 85.0361 91.5821 85.4139 91.3501 85.8972L90.964 86.7042L90.8349 85.8972C90.7571 85.4139 90.4265 85.0361 89.9474 84.8861L89.1501 84.6375L90.0265 84.3889C90.5515 84.2389 91.0043 83.8611 91.2363 83.3778L91.6238 82.5708Z" fill="#FFECE5"/>
<path d="M29.6056 88.3236L29.7348 89.1292C29.8125 89.6125 30.1445 89.9917 30.6223 90.1403L31.4181 90.3889L30.5431 90.6375C30.0181 90.7875 29.5639 91.1653 29.332 91.65L28.9459 92.4556L28.8167 91.65C28.7403 91.1667 28.4084 90.7875 27.9306 90.6375L27.1348 90.3889L28.0098 90.1403C28.5348 89.9917 28.9875 89.6139 29.2195 89.1292L29.6056 88.3236Z" fill="#F56630"/>
</svg>
