<svg width="150" height="150" viewBox="0 0 150 150" fill="none" xmlns="http://www.w3.org/2000/svg">
<path d="M75 128.201C103.319 128.201 126.276 119.195 126.276 108.086C126.276 96.9767 103.319 87.9708 75 87.9708C46.6809 87.9708 23.7236 96.9767 23.7236 108.086C23.7236 119.195 46.6809 128.201 75 128.201Z" fill="#FFECE5"/>
<path d="M109.463 99.4403L111.559 102.783L101.971 104.454L99.8752 101.111L109.463 99.4403Z" fill="#F77A4A"/>
<path d="M101.971 104.743C101.872 104.743 101.779 104.693 101.727 104.607L99.6307 101.264C99.5793 101.182 99.5724 101.081 99.6113 100.993C99.6502 100.906 99.7307 100.843 99.8252 100.826L109.413 99.1556C109.529 99.1347 109.645 99.1875 109.707 99.2861L111.803 102.629C111.854 102.711 111.861 102.812 111.822 102.9C111.783 102.987 111.703 103.05 111.609 103.067L102.021 104.737C102.004 104.742 101.988 104.743 101.971 104.743ZM100.349 101.322L102.113 104.136L111.086 102.572L109.322 99.7583L100.349 101.322Z" fill="#FFECE5"/>
<path d="M110.561 64.5792L109.753 71.2167C108.592 80.7542 108.493 90.2375 109.464 99.4417L99.8752 101.111L104.046 86.8486L110.561 64.5792Z" fill="#FA9874"/>
<path d="M99.8751 101.4C99.7932 101.4 99.7154 101.365 99.6599 101.304C99.5932 101.229 99.5696 101.126 99.5974 101.031L110.283 64.4986C110.325 64.3542 110.472 64.2667 110.62 64.2972C110.767 64.3278 110.867 64.4653 110.849 64.6153L110.04 71.2528C108.882 80.7639 108.785 90.2375 109.752 99.4125C109.768 99.5639 109.664 99.7014 109.514 99.7278L99.9265 101.399C99.9085 101.399 99.8918 101.4 99.8751 101.4ZM109.847 68.0472L100.282 100.747L109.147 99.2028C108.206 90.0681 108.313 80.6431 109.465 71.1819L109.847 68.0472Z" fill="#FFECE5"/>
<path d="M112.657 67.9222L110.561 64.5792L109.753 71.2167C108.592 80.7542 108.493 90.2375 109.464 99.4417L111.56 102.785C110.591 93.5806 110.688 84.0986 111.849 74.5597L112.657 67.9222Z" fill="#FA9874"/>
<path d="M111.558 103.072C111.461 103.072 111.368 103.022 111.314 102.936L109.218 99.5931C109.195 99.5556 109.181 99.5139 109.175 99.4694C108.204 90.2514 108.302 80.7333 109.465 71.1792L110.274 64.5417C110.289 64.4208 110.378 64.3208 110.497 64.2944C110.617 64.2681 110.74 64.3194 110.804 64.4236L112.9 67.7667C112.935 67.8222 112.95 67.8889 112.942 67.9556L112.133 74.5931C110.975 84.1042 110.878 93.5778 111.845 102.753C111.858 102.886 111.779 103.012 111.652 103.056C111.622 103.068 111.59 103.072 111.558 103.072ZM109.743 99.3444L111.147 101.586C110.31 92.7528 110.449 83.6542 111.56 74.525L112.356 67.9889L110.747 65.4236L110.038 71.2514C108.883 80.7389 108.785 90.1903 109.743 99.3444Z" fill="#FFECE5"/>
<path d="M98.5653 105.59L100.661 108.933H98.2028L96.1069 105.59H98.5653Z" fill="#F77A4A"/>
<path d="M100.661 109.222H98.2042C98.1042 109.222 98.0125 109.171 97.9598 109.086L95.8639 105.743C95.8084 105.654 95.8056 105.542 95.8556 105.45C95.907 105.358 96.0028 105.301 96.1084 105.301H98.5653C98.6653 105.301 98.757 105.353 98.8098 105.438L100.906 108.781C100.961 108.869 100.964 108.982 100.914 109.074C100.863 109.165 100.765 109.222 100.661 109.222ZM98.3625 108.644H100.139L98.4056 105.879H96.6306L98.3625 108.644Z" fill="#FFECE5"/>
<path d="M111.122 62.6611L110.561 64.5792L104.046 86.8486L99.8752 101.111L98.5654 105.59L100.661 108.933L101.971 104.454L106.142 90.1917L112.657 67.9222L113.218 66.0042L111.122 62.6611Z" fill="#FCB59A"/>
<path d="M100.661 109.222C100.563 109.222 100.47 109.172 100.417 109.086L98.3209 105.743C98.2765 105.674 98.2653 105.588 98.289 105.508L110.846 62.5792C110.878 62.4694 110.971 62.3903 111.083 62.3736C111.196 62.3583 111.307 62.4097 111.368 62.5069L113.464 65.85C113.508 65.9194 113.52 66.0056 113.496 66.0847L100.938 109.014C100.906 109.124 100.813 109.203 100.7 109.219C100.688 109.221 100.674 109.222 100.661 109.222ZM98.8792 105.546L100.564 108.235L112.904 66.0472L111.22 63.3583L98.8792 105.546Z" fill="#FFECE5"/>
<path d="M111.122 62.6611L110.561 64.5792L104.046 86.8486L99.875 101.111L98.5653 105.59H96.1069L100.751 89.7181L108.665 62.6611H111.122Z" fill="#E4DBDB"/>
<path d="M98.5654 105.879H96.1084C96.0168 105.879 95.932 105.836 95.8779 105.764C95.8237 105.692 95.8057 105.597 95.832 105.51L100.475 89.6375L108.389 62.5806C108.425 62.4569 108.538 62.3722 108.667 62.3722H111.124C111.215 62.3722 111.3 62.4153 111.354 62.4875C111.408 62.5597 111.426 62.6542 111.4 62.7417L98.8432 105.671C98.807 105.794 98.6932 105.879 98.5654 105.879ZM96.4932 105.301H98.3487L110.738 62.95H108.882L101.028 89.7986L96.4932 105.301Z" fill="#FFECE5"/>
<path d="M66.7516 44.3528C66.753 44.325 66.753 44.2972 66.753 44.2694C66.753 44.2528 66.7516 44.2375 66.7502 44.2222C66.7489 44.1972 66.7475 44.1736 66.7447 44.15C66.7433 44.1333 66.7405 44.1167 66.7377 44.1C66.7364 44.0847 66.735 44.0694 66.7322 44.0542C66.7308 44.0486 66.7294 44.0444 66.7294 44.0403C66.7197 43.9875 66.7086 43.9347 66.6933 43.8847C66.6919 43.8819 66.6919 43.8792 66.6919 43.8764C66.6891 43.8667 66.685 43.8583 66.6822 43.85C66.6725 43.8194 66.6614 43.7889 66.6489 43.7597C66.6461 43.7542 66.6447 43.7472 66.6419 43.7403C66.6377 43.7319 66.6336 43.7236 66.6294 43.7153C66.6197 43.6931 66.6086 43.6722 66.5975 43.6514C66.5933 43.6431 66.5891 43.6347 66.585 43.6264C66.5766 43.6125 66.5683 43.5986 66.56 43.5847L64.4641 40.2417C64.478 40.2625 64.4891 40.2861 64.5016 40.3083C64.5127 40.3292 64.5239 40.3514 64.5336 40.3722C64.5405 40.3861 64.5475 40.4014 64.553 40.4167C64.5655 40.4458 64.5766 40.4764 64.5864 40.5069C64.5905 40.5181 64.5947 40.5292 64.5975 40.5417C64.6127 40.5917 64.6252 40.6431 64.6336 40.6972C64.6377 40.7167 64.6405 40.7361 64.6433 40.7569C64.6461 40.7736 64.6475 40.7903 64.6502 40.8069C64.653 40.8306 64.6544 40.8556 64.6558 40.8792C64.6572 40.8944 64.6572 40.9111 64.6586 40.9264C64.6586 40.9542 64.6586 40.9819 64.6572 41.0097C64.6572 41.0236 64.6572 41.0361 64.6558 41.05C64.653 41.0917 64.6489 41.1347 64.6433 41.1778L64.3752 43.1458L66.4711 46.4889L66.7391 44.5208C66.7447 44.4778 66.7489 44.4361 66.7516 44.3931C66.7516 44.3806 66.7516 44.3667 66.7516 44.3528Z" fill="#FCD2C2"/>
<path d="M66.471 46.7778C66.3723 46.7778 66.2793 46.7278 66.2265 46.6417L64.1307 43.2986C64.0946 43.2417 64.0807 43.1736 64.089 43.1056L64.3571 41.1375C64.3626 41.1014 64.3654 41.0667 64.3668 41.0319L64.3682 40.9986C64.3682 40.9764 64.3696 40.9542 64.3696 40.9319L64.3682 40.8931C64.3668 40.8736 64.3668 40.8542 64.364 40.8347L64.3598 40.8069C64.3557 40.7792 64.3543 40.7639 64.3515 40.7472C64.3432 40.7028 64.3335 40.6625 64.3223 40.625L64.3126 40.5986C64.3043 40.575 64.296 40.5514 64.2862 40.5292C64.2807 40.5167 64.2765 40.5056 64.271 40.4944C64.2626 40.4778 64.2557 40.4611 64.246 40.4458C64.2321 40.4208 64.2265 40.4083 64.2182 40.3958C64.1335 40.2611 64.1737 40.0819 64.3098 39.9972C64.4446 39.9125 64.6237 39.9528 64.7085 40.0875L66.8043 43.4306C66.8154 43.4472 66.8251 43.4653 66.8348 43.4819C66.8404 43.4917 66.846 43.5028 66.8515 43.5139C66.8654 43.5389 66.8779 43.5653 66.8904 43.5917C66.896 43.6 66.9015 43.6111 66.9057 43.6222C66.9085 43.6292 66.9154 43.6472 66.9182 43.6542C66.9293 43.6819 66.9432 43.7181 66.9557 43.7556C66.9585 43.7639 66.964 43.775 66.9668 43.7861C66.9682 43.7917 66.971 43.7986 66.9723 43.8056C66.9876 43.8583 67.0015 43.9153 67.0126 43.975C67.0154 43.9847 67.0168 43.9944 67.0182 44.0042C67.021 44.0167 67.0223 44.0306 67.0237 44.0458L66.739 44.0958L67.0265 44.0667C67.0293 44.0833 67.0307 44.1 67.0335 44.1181C67.0362 44.1458 67.0376 44.175 67.039 44.2042C67.0404 44.2319 67.0418 44.2472 67.0418 44.2625C67.0418 44.2931 67.0418 44.3264 67.0404 44.3597V44.3611V44.3722C67.0404 44.3847 67.0404 44.3972 67.039 44.4097C67.0362 44.4583 67.0321 44.5083 67.0251 44.5597L66.7571 46.5278C66.7404 46.6486 66.6501 46.7458 66.5321 46.7708C66.5112 46.7764 66.4904 46.7778 66.471 46.7778ZM64.6751 43.0806L66.2918 45.6597L66.4529 44.4819C66.4585 44.4458 66.4612 44.4111 66.4626 44.3764L66.464 44.3431C66.4654 44.3208 66.4654 44.2972 66.4654 44.275L66.464 44.2361C66.4626 44.2167 66.4626 44.1972 66.4598 44.1778L66.4515 44.1139C66.4515 44.1125 66.4501 44.1028 66.4473 44.0931C66.439 44.0458 66.4293 44.0042 66.4182 43.9681C66.4182 43.9667 66.4168 43.9653 66.4168 43.9625C66.414 43.9556 66.4112 43.9486 66.4085 43.9417C66.4001 43.9181 66.3918 43.8944 66.3821 43.8722C66.3807 43.8681 66.3779 43.8625 66.3751 43.8556C66.3723 43.8486 66.3682 43.8403 66.3668 43.8389C66.3585 43.8222 66.3501 43.8056 66.3418 43.7889C66.339 43.7847 66.3321 43.7694 66.3293 43.7653C66.3265 43.7597 66.321 43.75 66.314 43.7403L64.8946 41.475L64.6751 43.0806Z" fill="#FFECE5"/>
<path d="M63.5681 39.7444C64.2695 39.7444 64.7514 40.3861 64.6431 41.1778L64.375 43.1458L63.1639 52.0347C63.0556 52.8278 62.4 53.4681 61.6986 53.4681H59.3417C58.6403 53.4681 58.1583 52.8264 58.2667 52.0347L59.4778 43.1458L59.7458 41.1778C59.8542 40.3847 60.5097 39.7444 61.2111 39.7444H63.5681Z" fill="#FFECE5"/>
<path d="M61.6973 53.7569H59.3403C58.9473 53.7569 58.5889 53.5958 58.3334 53.3028C58.0403 52.9681 57.9112 52.4917 57.9792 51.9958L59.4584 41.1389C59.5875 40.1944 60.357 39.4556 61.2098 39.4556H63.5667C63.9598 39.4556 64.3181 39.6167 64.5737 39.9097C64.8667 40.2444 64.9959 40.7208 64.9278 41.2167L63.4487 52.0736C63.3209 53.0181 62.5514 53.7569 61.6973 53.7569ZM61.2112 40.0333C60.65 40.0333 60.1209 40.5639 60.032 41.2167L58.5528 52.0736C58.5084 52.4042 58.5862 52.7125 58.7695 52.9222C58.9167 53.0903 59.1139 53.1792 59.3417 53.1792H61.6987C62.2598 53.1792 62.7889 52.6486 62.8778 51.9958L64.357 41.1389C64.4014 40.8083 64.3237 40.5 64.1403 40.2903C63.9931 40.1222 63.7959 40.0333 63.5681 40.0333H61.2112Z" fill="#FFECE5"/>
<path d="M52.2667 62.6611H47.6542C47.3167 62.6611 47.0056 62.5875 46.7292 62.4528C46.6501 62.4139 46.575 62.3708 46.5014 62.3236C46.3556 62.2278 46.2223 62.1139 46.1042 61.9833C46.0153 61.8861 45.9348 61.7792 45.8625 61.6639L47.9584 65.0069C48.3417 65.6181 48.9792 66.0042 49.7501 66.0042H54.3626L52.2667 62.6611Z" fill="#FA9874"/>
<path d="M54.3626 66.2931H49.7501C48.907 66.2931 48.1654 65.8806 47.714 65.1597L45.6182 61.8167C45.5334 61.6819 45.5751 61.5028 45.7098 61.4181C45.8445 61.3333 46.0237 61.3736 46.1084 61.5097L46.1098 61.5111C46.1723 61.6097 46.2432 61.7028 46.3195 61.7875C46.4223 61.9 46.5376 61.9986 46.6626 62.0806C46.7251 62.1222 46.7904 62.1597 46.8584 62.1917C47.1029 62.3111 47.3709 62.3708 47.657 62.3708H52.2695C52.3695 62.3708 52.4612 62.4222 52.514 62.5069L54.6098 65.85C54.6654 65.9389 54.6682 66.0514 54.6182 66.1431C54.5682 66.2347 54.4682 66.2931 54.3626 66.2931ZM46.9459 62.8472L48.2029 64.8542C48.5459 65.4014 49.1098 65.7167 49.7487 65.7167H53.839L52.1057 62.9514H47.6529C47.4084 62.95 47.1723 62.9153 46.9459 62.8472Z" fill="#FFECE5"/>
<path d="M107.808 44.3528C107.81 44.325 107.81 44.2972 107.81 44.2694C107.81 44.2528 107.808 44.2375 107.807 44.2208C107.806 44.1972 107.804 44.1722 107.801 44.1486C107.8 44.1319 107.797 44.1153 107.794 44.0986C107.793 44.0833 107.792 44.0681 107.789 44.0542C107.787 44.0486 107.786 44.0444 107.786 44.0389C107.776 43.9861 107.765 43.9347 107.75 43.8847C107.749 43.8819 107.749 43.8792 107.749 43.8764C107.746 43.8681 107.742 43.8597 107.739 43.85C107.729 43.8194 107.718 43.7889 107.705 43.7597C107.703 43.7542 107.701 43.7472 107.699 43.7403C107.694 43.7319 107.69 43.7236 107.686 43.7153C107.676 43.6931 107.665 43.6722 107.654 43.65C107.65 43.6417 107.646 43.6333 107.642 43.625C107.633 43.6111 107.625 43.5972 107.617 43.5833L105.521 40.2403C105.535 40.2611 105.546 40.2847 105.558 40.3069C105.569 40.3278 105.58 40.35 105.59 40.3722C105.597 40.3861 105.604 40.4014 105.61 40.4167C105.622 40.4458 105.633 40.4764 105.643 40.5083C105.647 40.5194 105.651 40.5306 105.654 40.5417C105.669 40.5917 105.682 40.6431 105.69 40.6972C105.694 40.7167 105.697 40.7361 105.7 40.7569C105.703 40.7736 105.704 40.7903 105.707 40.8069C105.71 40.8306 105.711 40.8556 105.712 40.8792C105.714 40.8958 105.715 40.9111 105.715 40.9278C105.715 40.9556 105.715 40.9833 105.714 41.0111C105.714 41.025 105.714 41.0389 105.712 41.0528C105.71 41.0944 105.705 41.1375 105.7 41.1792L105.432 43.1472L107.528 46.4903L107.796 44.5222C107.801 44.4792 107.805 44.4375 107.808 44.3958C107.808 44.3806 107.808 44.3667 107.808 44.3528Z" fill="#FCD2C2"/>
<path d="M107.526 46.7778C107.428 46.7778 107.335 46.7278 107.282 46.6417L105.186 43.2986C105.15 43.2417 105.136 43.1736 105.144 43.1056L105.412 41.1375C105.417 41.1028 105.421 41.0667 105.422 41.0333V41C105.424 40.9764 105.424 40.9542 105.424 40.9319L105.421 40.8931C105.419 40.8736 105.419 40.8542 105.417 40.8361L105.414 40.8083C105.41 40.7806 105.408 40.7639 105.406 40.7486C105.399 40.7069 105.389 40.6653 105.376 40.6264C105.376 40.625 105.368 40.6042 105.368 40.6028C105.36 40.5778 105.351 40.5542 105.342 40.5306C105.337 40.5194 105.332 40.5097 105.328 40.4986C105.319 40.4806 105.311 40.4639 105.303 40.4472C105.292 40.425 105.283 40.4111 105.275 40.3972C105.19 40.2625 105.232 40.0833 105.367 40C105.501 39.9153 105.679 39.9569 105.765 40.0917L107.861 43.4347C107.872 43.4528 107.882 43.4694 107.893 43.4875C107.897 43.4958 107.904 43.5069 107.91 43.5194C107.922 43.5431 107.936 43.5694 107.949 43.5972C107.954 43.6069 107.96 43.6181 107.964 43.6292C107.967 43.6361 107.974 43.6528 107.975 43.6597C107.987 43.6889 108.001 43.7264 108.014 43.7639C108.017 43.7708 108.021 43.7819 108.025 43.7931C108.026 43.7986 108.029 43.8069 108.031 43.8153C108.046 43.8639 108.058 43.9208 108.071 43.9833C108.072 43.9903 108.074 43.9972 108.075 44.0042C108.078 44.0236 108.081 44.0389 108.082 44.0528C108.086 44.0833 108.089 44.1028 108.09 44.1222C108.093 44.1514 108.094 44.1806 108.096 44.2097C108.097 44.2333 108.099 44.25 108.099 44.2681C108.099 44.2986 108.099 44.3319 108.097 44.3639V44.3736C108.097 44.3861 108.097 44.4 108.096 44.4125C108.093 44.4611 108.089 44.5111 108.082 44.5611L107.812 46.5278C107.796 46.6486 107.706 46.7458 107.587 46.7708C107.567 46.7764 107.547 46.7778 107.526 46.7778ZM105.732 43.0806L107.349 45.6597L107.51 44.4819C107.514 44.4472 107.518 44.4111 107.519 44.3778V44.3444V44.3431C107.521 44.3208 107.521 44.2986 107.521 44.2764L107.519 44.2514C107.519 44.25 107.518 44.2375 107.518 44.2375C107.517 44.2181 107.517 44.1986 107.514 44.1806L107.506 44.1167C107.506 44.1153 107.504 44.1056 107.501 44.0958C107.493 44.0486 107.483 44.0083 107.472 43.9708C107.472 43.9694 107.471 43.9667 107.471 43.9653C107.468 43.9583 107.465 43.9514 107.464 43.9444C107.456 43.9194 107.447 43.8958 107.437 43.8736C107.436 43.8708 107.433 43.8639 107.432 43.8569C107.428 43.85 107.424 43.8403 107.422 43.8375C107.415 43.8222 107.407 43.8056 107.399 43.7889C107.396 43.7847 107.389 43.7694 107.387 43.7653C107.383 43.7583 107.378 43.7486 107.371 43.7375L105.951 41.4722L105.732 43.0806Z" fill="#FFECE5"/>
<path d="M104.624 39.7444C105.325 39.7444 105.808 40.3861 105.7 41.1778L105.432 43.1458L104.221 52.0347C104.113 52.8278 103.456 53.4681 102.754 53.4681H100.397C99.696 53.4681 99.214 52.8264 99.3223 52.0347L100.533 43.1458L100.802 41.1778C100.91 40.3847 101.567 39.7444 102.267 39.7444H104.624Z" fill="#FFECE5"/>
<path d="M102.753 53.7569H100.396C100.003 53.7569 99.6446 53.5958 99.389 53.3014C99.096 52.9667 98.9668 52.4903 99.0349 51.9944L100.514 41.1375C100.64 40.2097 101.427 39.4542 102.265 39.4542H104.622C105.015 39.4542 105.374 39.6153 105.631 39.9097C105.924 40.2444 106.053 40.7208 105.985 41.2167L104.506 52.0736C104.378 53.0181 103.607 53.7569 102.753 53.7569ZM102.267 40.0333C101.715 40.0333 101.175 40.575 101.088 41.2167L99.6085 52.0736C99.564 52.4028 99.6432 52.7125 99.8252 52.9222C99.9724 53.0903 100.17 53.1792 100.397 53.1792H102.754C103.307 53.1792 103.847 52.6375 103.935 51.9958L105.414 41.1389C105.458 40.8097 105.379 40.5 105.197 40.2903C105.05 40.1222 104.853 40.0333 104.625 40.0333H102.267Z" fill="#FFECE5"/>
<path d="M108.665 62.6611L110.76 66.0042H54.3627L52.2668 62.6611H108.665Z" fill="#711E00"/>
<path d="M110.76 66.2931H54.3627C54.2627 66.2931 54.171 66.2417 54.1182 66.1569L52.0224 62.8139C51.9668 62.725 51.964 62.6125 52.014 62.5208C52.064 62.4292 52.1613 62.3722 52.2668 62.3722H108.664C108.764 62.3722 108.856 62.4236 108.908 62.5083L111.004 65.8514C111.06 65.9403 111.063 66.0528 111.013 66.1444C110.963 66.2361 110.865 66.2931 110.76 66.2931ZM54.5224 65.7153H110.238L108.504 62.95H52.789L54.5224 65.7153Z" fill="#FFECE5"/>
<path d="M118.867 49.0208C118.868 48.9653 118.871 48.9097 118.87 48.8556C118.87 48.8236 118.867 48.7917 118.865 48.7597C118.863 48.7111 118.86 48.6625 118.856 48.6139C118.853 48.5806 118.847 48.5486 118.843 48.5153C118.839 48.4847 118.836 48.4542 118.832 48.425C118.829 48.4083 118.825 48.3917 118.822 48.375C118.818 48.3514 118.814 48.3292 118.808 48.3069C118.797 48.2542 118.785 48.2028 118.771 48.1514C118.765 48.1319 118.761 48.1139 118.756 48.0944C118.753 48.0861 118.751 48.0792 118.749 48.0708C118.743 48.0528 118.735 48.0361 118.729 48.0181C118.708 47.9569 118.686 47.8958 118.661 47.8361C118.656 47.8236 118.653 47.8097 118.647 47.7986C118.64 47.7819 118.631 47.7653 118.622 47.7486C118.601 47.7042 118.581 47.6611 118.557 47.6194C118.549 47.6028 118.542 47.5861 118.532 47.5708C118.515 47.5431 118.499 47.5153 118.482 47.4875L116.386 44.1444C116.413 44.1875 116.436 44.2319 116.461 44.2778C116.483 44.3194 116.506 44.3639 116.526 44.4069C116.54 44.4361 116.553 44.4653 116.565 44.4944C116.59 44.5528 116.613 44.6139 116.633 44.6764C116.642 44.7014 116.651 44.7264 116.66 44.7528C116.665 44.7722 116.67 44.7903 116.675 44.8097C116.689 44.8611 116.701 44.9125 116.713 44.9653C116.717 44.9875 116.722 45.0111 116.726 45.0333C116.735 45.0792 116.742 45.1264 116.749 45.175C116.753 45.2083 116.758 45.2403 116.761 45.2736C116.765 45.3208 116.768 45.3694 116.771 45.4194C116.772 45.4514 116.775 45.4833 116.775 45.5153C116.776 45.5694 116.775 45.625 116.772 45.6806C116.771 45.7083 116.772 45.7347 116.771 45.7625C116.765 45.8458 116.758 45.9306 116.746 46.0167L114.868 59.7958C114.856 59.8833 114.839 59.9708 114.821 60.0569C114.815 60.0792 114.811 60.1014 114.806 60.125C114.788 60.2014 114.767 60.2778 114.743 60.3528C114.74 60.3611 114.738 60.3708 114.735 60.3792C114.708 60.4611 114.678 60.5417 114.646 60.6222C114.638 60.6431 114.629 60.6639 114.62 60.6847C114.592 60.7514 114.561 60.8167 114.529 60.8806C114.522 60.8944 114.515 60.9097 114.508 60.9236C114.493 60.9542 114.474 60.9833 114.457 61.0139C114.424 61.075 114.39 61.1347 114.353 61.1931C114.329 61.2319 114.303 61.2681 114.278 61.3056C114.249 61.3472 114.221 61.3889 114.19 61.4292C114.161 61.4681 114.129 61.5056 114.099 61.5431C114.071 61.5764 114.045 61.6111 114.015 61.6431C113.982 61.6806 113.947 61.7167 113.911 61.7528C113.883 61.7819 113.856 61.8125 113.826 61.8403C113.792 61.875 113.754 61.9056 113.717 61.9389C113.685 61.9667 113.654 61.9958 113.622 62.0222C113.589 62.05 113.554 62.0736 113.52 62.1C113.481 62.1292 113.44 62.1597 113.4 62.1875C113.371 62.2069 113.34 62.225 113.31 62.2431C113.257 62.2764 113.206 62.3083 113.151 62.3375C113.086 62.3736 113.021 62.4083 112.953 62.4375C112.953 62.4375 112.953 62.4375 112.951 62.4375C112.882 62.4681 112.811 62.4958 112.739 62.5208C112.711 62.5306 112.683 62.5389 112.654 62.5486C112.604 62.5639 112.553 62.5792 112.501 62.5917C112.472 62.5986 112.443 62.6056 112.414 62.6125C112.36 62.6236 112.306 62.6319 112.25 62.6403C112.225 62.6444 112.199 62.6486 112.174 62.6514C112.093 62.6597 112.013 62.6653 111.932 62.6653H111.12H108.663L110.758 66.0083H113.215H114.028C114.108 66.0083 114.189 66.0028 114.27 65.9944C114.296 65.9917 114.321 65.9875 114.346 65.9833C114.4 65.9764 114.456 65.9667 114.51 65.9556C114.539 65.95 114.568 65.9431 114.597 65.9347C114.649 65.9222 114.7 65.9083 114.75 65.8917C114.778 65.8833 114.807 65.8736 114.835 65.8639C114.85 65.8583 114.865 65.8556 114.879 65.85C114.936 65.8292 114.992 65.8056 115.047 65.7819C115.047 65.7819 115.047 65.7819 115.049 65.7819C115.104 65.7569 115.16 65.7306 115.214 65.7014C115.225 65.6958 115.236 65.6875 115.247 65.6819C115.301 65.6528 115.353 65.6208 115.406 65.5875C115.429 65.5736 115.453 65.5611 115.475 65.5458C115.482 65.5417 115.489 65.5361 115.495 65.5306C115.535 65.5028 115.574 65.4736 115.613 65.4431C115.642 65.4222 115.671 65.4028 115.699 65.3792C115.704 65.375 115.71 65.3694 115.715 65.3639C115.747 65.3375 115.778 65.3083 115.81 65.2806C115.84 65.2542 115.871 65.2292 115.9 65.2014C115.907 65.1958 115.913 65.1889 115.92 65.1819C115.949 65.1542 115.976 65.1236 116.004 65.0944C116.032 65.0667 116.06 65.0389 116.088 65.0097C116.095 65.0014 116.101 64.9931 116.108 64.9847C116.138 64.9528 116.164 64.9181 116.192 64.8847C116.215 64.8556 116.24 64.8292 116.263 64.8C116.27 64.7903 116.276 64.7806 116.283 64.7708C116.314 64.7306 116.342 64.6889 116.37 64.6472C116.389 64.6181 116.411 64.5917 116.429 64.5625C116.435 64.5542 116.439 64.5444 116.445 64.5361C116.481 64.4778 116.515 64.4181 116.549 64.3569C116.563 64.3319 116.578 64.3097 116.59 64.2847C116.593 64.2792 116.596 64.2722 116.599 64.2667C116.606 64.2528 116.613 64.2375 116.62 64.2236C116.651 64.1597 116.682 64.0944 116.71 64.0278C116.718 64.0069 116.728 63.9861 116.736 63.9653C116.742 63.95 116.75 63.9347 116.756 63.9194C116.781 63.8542 116.804 63.7889 116.825 63.7222C116.828 63.7139 116.831 63.7042 116.833 63.6958C116.857 63.6208 116.876 63.5444 116.896 63.4681C116.901 63.4458 116.907 63.4236 116.911 63.4C116.929 63.3139 116.946 63.2278 116.958 63.1389L118.836 49.3597C118.847 49.2736 118.856 49.1889 118.861 49.1056C118.867 49.075 118.865 49.0486 118.867 49.0208Z" fill="#FA9874"/>
<path d="M114.031 66.2931H110.76C110.66 66.2931 110.568 66.2417 110.515 66.1569L108.42 62.8139C108.364 62.725 108.361 62.6125 108.411 62.5208C108.463 62.4292 108.558 62.3722 108.664 62.3722H111.935C111.999 62.3722 112.068 62.3681 112.147 62.3597C112.16 62.3583 112.171 62.3569 112.183 62.3542L112.214 62.35C112.263 62.3431 112.31 62.3361 112.358 62.3264C112.385 62.3208 112.41 62.3153 112.435 62.3083C112.481 62.2972 112.525 62.2847 112.57 62.2708C112.6 62.2611 112.622 62.2542 112.645 62.2472C112.721 62.2208 112.781 62.1972 112.835 62.1736C112.836 62.1736 112.838 62.1722 112.838 62.1722C112.897 62.1458 112.956 62.1153 113.013 62.0833C113.061 62.0569 113.108 62.0278 113.156 61.9972L113.19 61.9764C113.206 61.9667 113.221 61.9569 113.236 61.9472C113.265 61.9278 113.293 61.9056 113.322 61.8847L113.378 61.8431C113.399 61.8278 113.42 61.8125 113.439 61.7972C113.458 61.7806 113.478 61.7639 113.497 61.7472L113.549 61.7028C113.575 61.6806 113.602 61.6569 113.627 61.6333C113.645 61.6153 113.664 61.5958 113.682 61.5764L113.715 61.5417C113.745 61.5125 113.772 61.4833 113.8 61.4528C113.821 61.4292 113.84 61.4056 113.858 61.3819L113.877 61.3597C113.911 61.3181 113.936 61.2875 113.96 61.2542C113.983 61.2222 114.006 61.1903 114.028 61.1569L114.056 61.1153C114.074 61.0903 114.092 61.0639 114.108 61.0375C114.142 60.9833 114.174 60.9292 114.204 60.8736L114.227 60.8347C114.235 60.8208 114.243 60.8069 114.25 60.7917L114.27 60.7514C114.299 60.6931 114.327 60.6333 114.352 60.5722L114.375 60.5153C114.407 60.4347 114.435 60.3611 114.456 60.2931C114.456 60.2903 114.461 60.2722 114.463 60.2694C114.485 60.1986 114.503 60.1292 114.52 60.0583L114.533 59.9972C114.553 59.9056 114.567 59.8306 114.577 59.7583L116.454 45.9792C116.464 45.9042 116.472 45.8264 116.477 45.7472C116.477 45.7347 116.478 45.7208 116.478 45.7083V45.6722C116.479 45.6208 116.481 45.5708 116.481 45.5208C116.481 45.5014 116.479 45.4833 116.478 45.4639L116.477 45.4361C116.474 45.3903 116.472 45.3472 116.468 45.3042C116.465 45.2806 116.463 45.2569 116.458 45.2333L116.456 45.2167C116.45 45.1736 116.445 45.1319 116.436 45.0903C116.432 45.0694 116.428 45.05 116.424 45.0292C116.414 44.9819 116.402 44.9361 116.389 44.8903L116.375 44.8389C116.372 44.8278 116.368 44.8167 116.364 44.8056L116.353 44.7736C116.335 44.7181 116.314 44.6639 116.293 44.6111C116.282 44.5847 116.271 44.5597 116.258 44.5347C116.24 44.4958 116.221 44.4569 116.2 44.4194L116.19 44.4014C116.172 44.3681 116.154 44.3347 116.135 44.3028C116.05 44.1681 116.092 43.9889 116.227 43.9042C116.363 43.8194 116.54 43.8597 116.625 43.9958L118.721 47.3389C118.74 47.3694 118.758 47.4014 118.777 47.4333C118.785 47.4486 118.793 47.4639 118.8 47.4792C118.831 47.5361 118.854 47.5847 118.878 47.6347C118.89 47.6583 118.899 47.675 118.906 47.6917C118.911 47.7028 118.917 47.7181 118.921 47.7333C118.949 47.7986 118.972 47.8653 118.996 47.9347C119.006 47.9597 119.013 47.9764 119.018 47.9931C119.02 47.9972 119.024 48.0139 119.025 48.0181L119.042 48.0806C119.057 48.1375 119.071 48.1944 119.083 48.2528C119.089 48.2792 119.095 48.3028 119.099 48.3278L119.102 48.3431C119.104 48.3569 119.107 48.3708 119.11 48.3847C119.114 48.4069 119.117 48.4306 119.12 48.4556L119.127 48.5083C119.131 48.5361 119.133 48.5639 119.138 48.5931C119.143 48.6444 119.146 48.6986 119.149 48.7514L119.15 48.7792C119.152 48.8056 119.153 48.8306 119.154 48.8569C119.156 48.9153 119.154 48.975 119.152 49.0361C119.152 49.0361 119.152 49.0361 119.152 49.0375V49.0653C119.152 49.0861 119.152 49.1069 119.15 49.1278C119.145 49.2222 119.136 49.3153 119.124 49.4042L117.246 63.1833C117.235 63.2681 117.218 63.3583 117.195 63.4667C117.189 63.4917 117.183 63.5167 117.178 63.5417C117.158 63.6236 117.136 63.7056 117.111 63.7875L117.103 63.8181C117.081 63.8889 117.056 63.9597 117.028 64.0306C117.024 64.0431 117.018 64.0542 117.014 64.0653L116.983 64.1403C116.95 64.2194 116.917 64.2903 116.882 64.3597L116.849 64.4264C116.839 64.4444 116.828 64.4639 116.817 64.4819L116.804 64.5042C116.768 64.5694 116.731 64.6347 116.692 64.6972C116.686 64.7069 116.681 64.7181 116.674 64.7278C116.661 64.7486 116.646 64.7694 116.631 64.7903L116.599 64.8361C116.572 64.875 116.545 64.9139 116.517 64.9514C116.508 64.9639 116.502 64.9736 116.495 64.9833C116.478 65.0056 116.46 65.025 116.443 65.0458L116.403 65.0944C116.379 65.1236 116.354 65.1542 116.329 65.1819C116.321 65.1931 116.314 65.2014 116.307 65.2097C116.286 65.2333 116.265 65.2542 116.243 65.275L116.195 65.325C116.171 65.3486 116.149 65.3736 116.124 65.3958C116.118 65.4014 116.111 65.4097 116.103 65.4167C116.081 65.4375 116.058 65.4569 116.035 65.4764L115.981 65.5236C115.954 65.5472 115.929 65.5694 115.902 65.5917C115.897 65.5958 115.89 65.6014 115.883 65.6069C115.861 65.625 115.84 65.6403 115.818 65.6556L115.765 65.6944C115.731 65.7208 115.696 65.7472 115.66 65.7708C115.654 65.775 115.646 65.7819 115.636 65.7875C115.62 65.7986 115.6 65.8097 115.581 65.8208L115.561 65.8319C115.504 65.8681 115.447 65.9028 115.388 65.9347C115.375 65.9431 115.364 65.95 115.352 65.9556C115.29 65.9875 115.229 66.0167 115.168 66.0444C115.167 66.0444 115.165 66.0458 115.164 66.0458C115.104 66.0722 115.043 66.0972 114.981 66.1208C114.968 66.125 114.954 66.1306 114.94 66.1347C114.903 66.1472 114.874 66.1569 114.845 66.1653C114.782 66.1847 114.725 66.2 114.668 66.2153C114.636 66.2236 114.604 66.2306 114.571 66.2375C114.511 66.25 114.45 66.2597 114.388 66.2681L114.364 66.2708C114.343 66.2736 114.322 66.2778 114.3 66.2792C114.204 66.2875 114.115 66.2931 114.031 66.2931ZM110.921 65.7153H114.031C114.095 65.7153 114.164 65.7111 114.243 65.7028C114.256 65.7014 114.268 65.7 114.279 65.6972L114.31 65.6931C114.358 65.6861 114.406 65.6792 114.454 65.6694C114.481 65.6639 114.506 65.6583 114.531 65.6514C114.577 65.6403 114.621 65.6278 114.667 65.6139C114.696 65.6042 114.72 65.5972 114.742 65.5903L114.774 65.5806C114.833 65.5597 114.882 65.5389 114.932 65.5167C114.933 65.5167 114.935 65.5153 114.935 65.5153C114.983 65.4931 115.033 65.4694 115.081 65.4444C115.089 65.4389 115.1 65.4319 115.11 65.4264C115.158 65.4 115.206 65.3708 115.253 65.3417C115.267 65.3333 115.281 65.325 115.295 65.3167C115.302 65.3125 115.31 65.3083 115.317 65.3042C115.32 65.3014 115.327 65.2958 115.333 65.2917C115.363 65.2722 115.389 65.2514 115.417 65.2306L115.483 65.1819C115.496 65.1722 115.508 65.1639 115.521 65.1542L115.536 65.1403C115.557 65.1236 115.575 65.1069 115.595 65.0903L115.66 65.0333C115.675 65.0208 115.69 65.0069 115.706 64.9931C115.708 64.9903 115.718 64.9792 115.722 64.9764C115.742 64.9583 115.758 64.9403 115.777 64.9222L115.835 64.8625C115.849 64.8486 115.864 64.8333 115.877 64.8194C115.883 64.8111 115.889 64.8028 115.896 64.7958C115.915 64.7736 115.935 64.75 115.954 64.7264L116.004 64.6667C116.015 64.6542 116.027 64.6403 116.038 64.6264C116.043 64.6167 116.05 64.6083 116.056 64.6C116.079 64.5681 116.102 64.5361 116.124 64.5042L116.165 64.4458C116.174 64.4333 116.183 64.4222 116.192 64.4083C116.196 64.4 116.202 64.3917 116.207 64.3833C116.24 64.3306 116.271 64.275 116.303 64.2194C116.311 64.2056 116.32 64.1917 116.327 64.1778C116.332 64.1694 116.336 64.1611 116.34 64.1528L116.368 64.0958C116.397 64.0361 116.425 63.9764 116.452 63.9153L116.493 63.8167C116.517 63.7569 116.538 63.6972 116.557 63.6361L116.565 63.6083C116.586 63.5431 116.604 63.4722 116.621 63.4014C116.627 63.3806 116.631 63.3597 116.635 63.3403C116.654 63.2472 116.668 63.1708 116.678 63.1014L118.556 49.3222C118.565 49.2472 118.574 49.1694 118.578 49.0903C118.578 49.0778 118.578 49.0667 118.579 49.0542L118.581 49.0153C118.582 48.9653 118.583 48.9153 118.583 48.8667C118.583 48.8472 118.582 48.8292 118.581 48.8125L118.579 48.7792C118.577 48.7361 118.575 48.6917 118.571 48.6486C118.568 48.6264 118.565 48.6056 118.563 48.5847L118.554 48.5194C118.553 48.5056 118.552 48.4917 118.549 48.4778L118.527 48.3694C118.517 48.3236 118.506 48.2778 118.493 48.2319L118.479 48.1806C118.478 48.1778 118.475 48.1639 118.474 48.1597C118.465 48.1389 118.46 48.125 118.456 48.1111C118.438 48.0583 118.418 48.0042 118.396 47.9514C118.39 47.9389 118.386 47.9278 118.382 47.9153C118.372 47.8972 118.367 47.8861 118.361 47.875C118.343 47.8347 118.324 47.7972 118.303 47.7597C118.296 47.7472 118.29 47.7361 118.285 47.7236C118.267 47.6917 118.253 47.6667 118.238 47.6431L117.06 45.7653C117.06 45.7708 117.06 45.775 117.058 45.7806C117.053 45.875 117.045 45.9681 117.032 46.0569L115.154 59.8361C115.143 59.9222 115.125 60.0153 115.103 60.1194C115.097 60.1431 115.092 60.1681 115.086 60.1917C115.067 60.275 115.045 60.3583 115.02 60.4389L115.013 60.4639C114.985 60.55 114.954 60.6361 114.915 60.7306L114.892 60.7861C114.857 60.8681 114.824 60.9389 114.79 61.0083L114.767 61.0569C114.756 61.0792 114.743 61.1014 114.729 61.125L114.713 61.1542C114.677 61.2194 114.64 61.2847 114.6 61.3472C114.579 61.3806 114.557 61.4125 114.535 61.4444L114.508 61.4833C114.481 61.5236 114.454 61.5625 114.425 61.6014C114.396 61.6403 114.365 61.6778 114.335 61.7153L114.31 61.7458C114.286 61.7764 114.261 61.8056 114.235 61.8347C114.203 61.8722 114.168 61.9069 114.133 61.9431L114.103 61.975C114.079 62 114.056 62.025 114.031 62.0486C113.999 62.0792 113.967 62.1083 113.933 62.1375L113.888 62.1792C113.861 62.2028 113.836 62.225 113.808 62.2472C113.782 62.2694 113.754 62.2903 113.725 62.3111L113.675 62.3486C113.639 62.3764 113.603 62.4028 113.565 62.4278C113.543 62.4431 113.52 62.4583 113.496 62.4722L113.468 62.4889C113.411 62.525 113.353 62.5597 113.295 62.5931C113.231 62.6278 113.156 62.6681 113.077 62.7028C113.072 62.7042 113.068 62.7069 113.064 62.7083C112.993 62.7389 112.924 62.7667 112.842 62.7958C112.813 62.8056 112.785 62.8153 112.756 62.8236C112.692 62.8431 112.635 62.8597 112.578 62.8736C112.546 62.8819 112.514 62.8889 112.481 62.8958C112.42 62.9083 112.358 62.9181 112.297 62.9264L112.274 62.9292C112.253 62.9319 112.232 62.9347 112.211 62.9375C112.113 62.9472 112.024 62.9528 111.939 62.9528H109.19L110.921 65.7153Z" fill="#FFECE5"/>
<path d="M64.2167 76.1958L66.3125 79.5389H50.4042L48.3083 76.1958H64.2167Z" fill="#787070"/>
<path d="M66.3125 79.8278H50.4042C50.3042 79.8278 50.2125 79.7764 50.1597 79.6917L48.0639 76.3486C48.0083 76.2597 48.0055 76.1472 48.0555 76.0556C48.1055 75.9639 48.2028 75.907 48.3083 75.907H64.2167C64.3167 75.907 64.4083 75.9583 64.4611 76.0431L66.5569 79.3861C66.6125 79.475 66.6153 79.5875 66.5653 79.6792C66.5153 79.7708 66.418 79.8278 66.3125 79.8278ZM50.5639 79.25H65.7903L64.0569 76.4847H48.8305L50.5639 79.25Z" fill="#FFECE5"/>
<path d="M110.76 66.0042L108.665 62.6611L100.758 89.6931L96.1084 105.59L95.2695 108.457L97.364 111.8L98.2029 108.933L102.85 93.0486L110.76 66.0042Z" fill="#FCD2C2"/>
<path d="M97.4611 112.499L94.9556 108.5L100.703 88.8556L108.568 61.9625L111.074 65.9611L111.038 66.0861L103.128 93.1306L97.4611 112.499ZM95.582 108.414L97.2667 111.103L110.446 66.0486L108.761 63.3597L100.814 90.5319L95.582 108.414Z" fill="#FFECE5"/>
<path d="M100.734 89.7319L96.1085 105.59L95.2696 108.457H78.678L100.734 89.7319Z" fill="#FCD2C2"/>
<path d="M95.2696 108.746H78.6779C78.5571 108.746 78.4488 108.671 78.4071 108.557C78.3654 108.443 78.3988 108.315 78.4918 108.237L100.547 89.5125C100.645 89.4306 100.785 89.4208 100.892 89.4903C100.999 89.5597 101.047 89.6917 101.013 89.8139L96.3877 105.672L95.5488 108.54C95.5099 108.661 95.3974 108.746 95.2696 108.746ZM79.4641 108.168H95.0529L95.8307 105.508L100.186 90.575L79.4641 108.168Z" fill="#FFECE5"/>
<path d="M52.2667 62.6611H108.665L100.751 89.7181L84.1556 89.7319L78.6778 108.457H38.8708L41.6097 99.0944H57.5181L64.2167 76.1958H48.3084L52.2667 62.6611Z" fill="#FFECE5"/>
<path d="M78.6778 108.746H38.8709C38.7806 108.746 38.6945 108.703 38.6403 108.631C38.5862 108.558 38.5681 108.464 38.5945 108.376L41.3334 99.0139C41.3695 98.8903 41.482 98.8056 41.6112 98.8056H57.3028L63.832 76.4847H48.3084C48.2181 76.4847 48.132 76.4417 48.0778 76.3694C48.0237 76.2972 48.0056 76.2028 48.032 76.1153L51.9917 62.5806C52.0278 62.4569 52.1403 62.3722 52.2695 62.3722H108.667C108.758 62.3722 108.843 62.4153 108.897 62.4875C108.951 62.5597 108.97 62.6542 108.943 62.7417L101.029 89.7986C100.993 89.9222 100.881 90.0069 100.753 90.0069L84.3737 90.0208L78.9556 108.539C78.9181 108.661 78.8056 108.746 78.6778 108.746ZM39.257 108.168H78.4612L83.8792 89.65C83.9153 89.5264 84.0278 89.4417 84.1556 89.4417L100.535 89.4278L108.279 62.9486H52.4834L48.6931 75.9056H64.2167C64.307 75.9056 64.3931 75.9486 64.4473 76.0208C64.5014 76.0931 64.5195 76.1875 64.4931 76.275L57.7945 99.1736C57.7584 99.2972 57.6459 99.3819 57.5167 99.3819H41.8264L39.257 108.168Z" fill="#FFECE5"/>
<path d="M66.3473 62.5292L66.3084 62.6611L66.1959 63.0444L61.4418 79.2958L61.2904 79.8111L56.5376 96.0625L56.3862 96.5792L52.9112 108.457H52.457L55.932 96.5792L56.0834 96.0639L60.8362 79.8125L60.9876 79.2972L65.7418 63.0444L65.8529 62.6611L65.8918 62.5292H66.3473Z" fill="#FFECE5"/>
<path d="M81.1181 62.5139L81.075 62.6611L80.9681 63.0292L76.2139 79.2806L76.0639 79.7958H76.0625L71.3097 96.0486L71.1584 96.5639L67.6792 108.457H67.2236L70.7042 96.5639L70.8542 96.0486L75.6084 79.7972L75.7584 79.282L80.5125 63.0292H80.5139L80.6209 62.6611L80.6625 62.5139H81.1181Z" fill="#FFECE5"/>
<path d="M95.8903 62.4986L95.8431 62.6611L95.7403 63.0139L90.9861 79.2653L90.8361 79.7806L86.0806 96.0333L85.9306 96.5486L82.4473 108.457H81.9917L85.4764 96.5486L85.6264 96.0333L90.3806 79.7819L90.532 79.2667L95.2847 63.0153L95.3889 62.6611L95.4361 62.4986H95.8903Z" fill="#FFECE5"/>
<path d="M103.813 79.2528L103.661 79.7681L90.8361 79.7806L90.3806 79.7819L76.0639 79.7958H76.0625L75.6083 79.7972L61.2903 79.8111L60.8361 79.8125L47.2458 79.8264L47.3972 79.3111L60.9875 79.2972L61.4417 79.2958L75.7583 79.2819L76.2139 79.2806L90.532 79.2667L90.9861 79.2653L103.813 79.2528Z" fill="#FFECE5"/>
<path d="M98.9085 96.0195L98.7571 96.5347L85.9307 96.5486H85.4765L71.1585 96.5639H70.7043L56.3862 96.5792H55.9321L42.3418 96.5931L42.4932 96.0778L56.0835 96.0639L56.5376 96.0625L70.8543 96.0486H71.3099L85.6265 96.0333H86.0807L98.9085 96.0195Z" fill="#FFECE5"/>
<path d="M95.2695 108.457H78.6778H38.8708L40.9667 111.8H80.7736H97.3639L95.2695 108.457Z" fill="#F77A4A"/>
<path d="M97.3639 112.089H40.9667C40.8667 112.089 40.775 112.038 40.7222 111.953L38.6264 108.611C38.5708 108.522 38.568 108.41 38.618 108.318C38.668 108.226 38.7653 108.169 38.8708 108.169H95.2681C95.3681 108.169 95.4597 108.221 95.5125 108.306L97.6083 111.649C97.6639 111.738 97.6667 111.85 97.6167 111.942C97.5667 112.032 97.4694 112.089 97.3639 112.089ZM41.1264 111.511H96.8417L95.1083 108.746H39.393L41.1264 111.511Z" fill="#FFECE5"/>
<path d="M48.3083 76.1958H64.2166L57.518 99.0944H41.6097H25.6819L32.3805 76.1958H48.3083ZM57.6458 82.5C57.9277 82.5 58.1902 82.2431 58.2333 81.9264C58.2763 81.6083 58.0847 81.3528 57.8027 81.3528H35.4374C35.1569 81.3528 34.8944 81.6097 34.8513 81.9264C34.8083 82.2431 35.0013 82.5 35.2805 82.5H57.6458ZM56.4263 86.6722C56.7083 86.6722 56.9708 86.4153 57.0138 86.0986C57.0569 85.7806 56.8652 85.525 56.5833 85.525H34.218C33.9374 85.525 33.6749 85.7819 33.6319 86.0986C33.5888 86.4153 33.7819 86.6722 34.0611 86.6722H56.4263ZM55.2055 90.8458C55.4874 90.8458 55.7499 90.5889 55.793 90.2722C55.8361 89.9556 55.643 89.6986 55.3624 89.6986H40.6208C40.3388 89.6986 40.0763 89.9556 40.0333 90.2722C39.9902 90.5903 40.1819 90.8458 40.4638 90.8458H55.2055Z" fill="#FA9874"/>
<path d="M57.518 99.3833H25.6819C25.5916 99.3833 25.5055 99.3403 25.4514 99.2681C25.3972 99.1958 25.3791 99.1014 25.4055 99.0139L32.1041 76.1153C32.1403 75.9917 32.2528 75.907 32.3819 75.907H64.218C64.3083 75.907 64.3944 75.95 64.4486 76.0222C64.5028 76.0944 64.5208 76.1889 64.4944 76.2764L57.7958 99.175C57.7597 99.2986 57.6458 99.3833 57.518 99.3833ZM26.0666 98.8056H57.3014L63.8305 76.4847H32.5972L26.0666 98.8056ZM55.2055 91.1347H40.4639C40.2555 91.1347 40.0653 91.0486 39.9305 90.8931C39.7805 90.7208 39.7139 90.4806 39.7472 90.2319C39.8097 89.7708 40.193 89.4097 40.6208 89.4097H55.3611C55.5694 89.4097 55.7597 89.4958 55.8958 89.6514C56.0458 89.8236 56.1125 90.0639 56.0791 90.3111C56.0153 90.7722 55.6319 91.1347 55.2055 91.1347ZM40.6208 89.9875C40.5 89.9875 40.3458 90.1208 40.3194 90.3111C40.3083 90.3944 40.325 90.4681 40.3653 90.5139C40.3903 90.5431 40.4236 90.5569 40.4639 90.5569H55.2055C55.3264 90.5569 55.4805 90.4236 55.5069 90.2319C55.518 90.15 55.5014 90.0764 55.4611 90.0306C55.4347 90.0014 55.4028 89.9875 55.3625 89.9875H40.6208ZM56.4264 86.9611H34.0611C33.8528 86.9611 33.6639 86.875 33.5278 86.7194C33.3778 86.5472 33.3111 86.3069 33.3444 86.0597C33.4069 85.5972 33.7903 85.2361 34.2166 85.2361H56.5805C56.7889 85.2361 56.9791 85.3222 57.1139 85.4778C57.2639 85.65 57.3305 85.8903 57.2972 86.1389C57.2361 86.6 56.8528 86.9611 56.4264 86.9611ZM34.218 85.8139C34.0972 85.8139 33.9444 85.9472 33.918 86.1389C33.9069 86.2208 33.9236 86.2945 33.9639 86.3403C33.9889 86.3695 34.0208 86.3833 34.0611 86.3833H56.425C56.5458 86.3833 56.7 86.25 56.7264 86.0597C56.7375 85.9764 56.7208 85.9028 56.6805 85.8569C56.6555 85.8278 56.6222 85.8139 56.5819 85.8139H34.218ZM57.6458 82.7889H35.2819C35.0736 82.7889 34.8847 82.7028 34.7486 82.5472C34.5986 82.375 34.5319 82.1347 34.5653 81.8875C34.6278 81.425 35.0111 81.0639 35.4375 81.0639H57.8014C58.0097 81.0639 58.2 81.15 58.3347 81.3056C58.4847 81.4778 58.5514 81.7181 58.518 81.9667C58.4569 82.4278 58.0736 82.7889 57.6458 82.7889ZM35.4375 81.6417C35.3166 81.6417 35.1639 81.775 35.1375 81.9667C35.1264 82.0486 35.143 82.1222 35.1833 82.1681C35.2083 82.1972 35.2403 82.2111 35.2805 82.2111H57.6444C57.7653 82.2111 57.9194 82.0778 57.9444 81.8875C57.9555 81.8042 57.9389 81.7306 57.8986 81.6847C57.8736 81.6556 57.8403 81.6417 57.8 81.6417H35.4375Z" fill="#FFECE5"/>
<path d="M57.5182 99.0944H41.6099H25.6821L27.7766 102.438H43.7057H59.6141L57.5182 99.0944Z" fill="#F77A4A"/>
<path d="M59.614 102.726H27.7765C27.6765 102.726 27.5848 102.675 27.532 102.59L25.4362 99.2472C25.3806 99.1583 25.3779 99.0458 25.4279 98.9542C25.4792 98.8625 25.5751 98.8056 25.6806 98.8056H57.5167C57.6167 98.8056 57.7084 98.8569 57.7612 98.9417L59.857 102.285C59.9126 102.374 59.9154 102.486 59.8654 102.578C59.8154 102.669 59.7195 102.726 59.614 102.726ZM27.9362 102.149H59.0917L57.3584 99.3833H26.2029L27.9362 102.149Z" fill="#FFECE5"/>
<path d="M64.2169 76.1958L66.3128 79.5389L59.6141 102.437L57.5183 99.0944L64.2169 76.1958Z" fill="#FA9874"/>
<path d="M59.6141 102.726C59.5154 102.726 59.4224 102.676 59.3696 102.59L57.2738 99.2472C57.2293 99.1778 57.2182 99.0917 57.2418 99.0125L63.9404 76.1139C63.9724 76.0042 64.0654 75.925 64.1779 75.9083C64.2904 75.8931 64.4016 75.9444 64.4627 76.0417L66.5585 79.3847C66.6029 79.4542 66.6141 79.5403 66.5904 79.6194L59.8918 102.518C59.8599 102.628 59.7668 102.707 59.6543 102.724C59.6404 102.726 59.6266 102.726 59.6141 102.726ZM57.8321 99.0514L59.5168 101.74L65.9988 79.5833L64.3141 76.8944L57.8321 99.0514Z" fill="#FFECE5"/>
<path d="M100.733 89.7319L78.6777 108.457L84.1555 89.7319H100.733Z" fill="#FA9874"/>
<path d="M78.6778 108.746C78.6237 108.746 78.5681 108.731 78.5209 108.699C78.414 108.629 78.3654 108.497 78.4015 108.375L83.8792 89.65C83.9154 89.5264 84.0279 89.4417 84.157 89.4417H100.735C100.856 89.4417 100.964 89.5167 101.006 89.6306C101.047 89.7444 101.014 89.8722 100.921 89.95L78.8654 108.675C78.8112 108.724 78.7445 108.746 78.6778 108.746ZM84.3723 90.0208L79.2251 107.613L99.9459 90.0208H84.3723Z" fill="#FFECE5"/>
<path d="M114.594 43.1458C115.997 43.1458 116.96 44.4306 116.744 46.0153L114.867 59.7944C114.651 61.3778 113.337 62.6625 111.935 62.6625H111.122H108.665H52.2666H47.6541C46.25 62.6625 45.2875 61.3778 45.5028 59.7944L47.3805 46.0153C47.5972 44.4306 48.9097 43.1458 50.3139 43.1458H59.4778L58.2666 52.0347C58.1583 52.8278 58.6389 53.4681 59.3416 53.4681H61.6986C62.4 53.4681 63.0569 52.8264 63.1639 52.0347L64.375 43.1458H100.533L99.3222 52.0347C99.2139 52.8278 99.6958 53.4681 100.397 53.4681H102.754C103.456 53.4681 104.112 52.8264 104.221 52.0347L105.432 43.1458H114.594Z" fill="#F56630"/>
<path d="M111.935 62.95H47.6542C46.9515 62.95 46.314 62.6625 45.857 62.1389C45.3265 61.5306 45.0931 60.6625 45.2167 59.7542L47.0945 45.975C47.3292 44.2556 48.7723 42.8569 50.314 42.8569H59.4779C59.5612 42.8569 59.6404 42.8931 59.6959 42.9556C59.7515 43.0181 59.7765 43.1014 59.764 43.1847L58.5529 52.0736C58.5084 52.4042 58.5862 52.7125 58.7695 52.9222C58.9167 53.0903 59.114 53.1792 59.3417 53.1792H61.6987C62.2598 53.1792 62.789 52.6486 62.8779 51.9958L64.089 43.1069C64.1084 42.9639 64.2306 42.8569 64.3751 42.8569H100.533C100.617 42.8569 100.696 42.8931 100.751 42.9556C100.806 43.0181 100.831 43.1014 100.82 43.1847L99.6084 52.0736C99.564 52.4028 99.6431 52.7125 99.8251 52.9222C99.9723 53.0903 100.17 53.1792 100.397 53.1792H102.754C103.307 53.1792 103.847 52.6375 103.935 51.9958L105.146 43.1069C105.165 42.9639 105.288 42.8569 105.432 42.8569H114.596C115.297 42.8569 115.935 43.1444 116.392 43.6681C116.922 44.2764 117.156 45.1458 117.032 46.0542L115.154 59.8333C114.918 61.5514 113.475 62.95 111.935 62.95ZM50.314 43.4347C49.0515 43.4347 47.864 44.6097 47.6668 46.0542L45.789 59.8333C45.6876 60.575 45.8709 61.2778 46.2917 61.7597C46.6376 62.1556 47.1209 62.3736 47.6542 62.3736H111.935C113.197 62.3736 114.383 61.2 114.581 59.7556L116.458 45.9764C116.56 45.2333 116.376 44.5306 115.956 44.0486C115.611 43.6528 115.128 43.4361 114.595 43.4361H105.683L104.506 52.075C104.376 53.0194 103.607 53.7583 102.753 53.7583H100.396C100.003 53.7583 99.6445 53.5972 99.389 53.3028C99.0959 52.9681 98.9667 52.4917 99.0348 51.9958L100.201 43.4347H64.6279L63.4501 52.0736C63.3209 53.0181 62.5515 53.7569 61.6987 53.7569H59.3417C58.9487 53.7569 58.5904 53.5958 58.3348 53.3028C58.0417 52.9681 57.9126 52.4917 57.9806 51.9958L59.1473 43.4347H50.314Z" fill="#FFECE5"/>
<path d="M55.3612 89.6986C55.6431 89.6986 55.8348 89.9556 55.7917 90.2722C55.7487 90.5903 55.4862 90.8458 55.2042 90.8458H40.4639C40.182 90.8458 39.9903 90.5889 40.0334 90.2722C40.0764 89.9556 40.3389 89.6986 40.6209 89.6986H55.3612Z" fill="#F56630"/>
<path d="M55.2055 91.1347H40.4638C40.2555 91.1347 40.0652 91.0486 39.9305 90.8931C39.7805 90.7208 39.7138 90.4806 39.7472 90.2319C39.8097 89.7708 40.193 89.4097 40.6208 89.4097H55.3611C55.5694 89.4097 55.7597 89.4958 55.8958 89.6514C56.0458 89.8236 56.1125 90.0639 56.0791 90.3111C56.0152 90.7722 55.6319 91.1347 55.2055 91.1347ZM40.6208 89.9875C40.5 89.9875 40.3458 90.1208 40.3194 90.3111C40.3083 90.3944 40.325 90.4681 40.3652 90.5139C40.3902 90.5431 40.4236 90.5569 40.4638 90.5569H55.2055C55.3264 90.5569 55.4805 90.4236 55.5069 90.2319C55.518 90.15 55.5013 90.0764 55.4611 90.0306C55.4361 90.0014 55.4027 89.9875 55.3625 89.9875H40.6208Z" fill="#F56630"/>
<path d="M57.8027 81.3528C58.0847 81.3528 58.2763 81.6097 58.2333 81.9264C58.1902 82.2431 57.9277 82.5 57.6458 82.5H35.2819C35.0013 82.5 34.8097 82.2431 34.8527 81.9264C34.8958 81.6083 35.1583 81.3528 35.4388 81.3528H57.8027Z" fill="#F56630"/>
<path d="M57.6459 82.7889H35.282C35.0736 82.7889 34.8847 82.7028 34.7486 82.5472C34.5986 82.375 34.532 82.1347 34.5653 81.8875C34.6278 81.425 35.0111 81.0639 35.4375 81.0639H57.8014C58.0097 81.0639 58.2 81.15 58.3347 81.3056C58.4847 81.4778 58.5514 81.7181 58.5181 81.9667C58.457 82.4278 58.0722 82.7889 57.6459 82.7889ZM35.4375 81.6417C35.3167 81.6417 35.1639 81.775 35.1375 81.9667C35.1264 82.0486 35.1431 82.1222 35.1834 82.1681C35.2084 82.1972 35.2403 82.2111 35.2806 82.2111H57.6445C57.7653 82.2111 57.9195 82.0778 57.9459 81.8875C57.957 81.8042 57.9403 81.7306 57.9 81.6847C57.875 81.6556 57.8417 81.6417 57.8014 81.6417H35.4375Z" fill="#F56630"/>
<path d="M56.582 85.525C56.864 85.525 57.0556 85.7819 57.0126 86.0986C56.9695 86.4153 56.707 86.6722 56.4251 86.6722H34.0612C33.7806 86.6722 33.589 86.4153 33.632 86.0986C33.6751 85.7805 33.9376 85.525 34.2181 85.525H56.582Z" fill="#F56630"/>
<path d="M56.4265 86.9611H34.0613C33.8529 86.9611 33.664 86.875 33.5279 86.7194C33.3779 86.5472 33.3113 86.3069 33.3446 86.0597C33.4071 85.5972 33.7904 85.2361 34.2168 85.2361H56.5807C56.789 85.2361 56.9793 85.3222 57.114 85.4778C57.264 85.65 57.3307 85.8903 57.2974 86.1389C57.2363 86.6 56.8529 86.9611 56.4265 86.9611ZM34.2182 85.8139C34.0974 85.8139 33.9446 85.9472 33.9182 86.1389C33.9071 86.2208 33.9238 86.2944 33.964 86.3403C33.989 86.3694 34.021 86.3833 34.0613 86.3833H56.4252C56.546 86.3833 56.7002 86.25 56.7252 86.0597C56.7363 85.9764 56.7196 85.9028 56.6793 85.8569C56.6543 85.8278 56.621 85.8139 56.5807 85.8139H34.2182Z" fill="#F56630"/>
<path d="M118.864 77.0667C120.005 77.0667 120.93 76.1414 120.93 75C120.93 73.8586 120.005 72.9333 118.864 72.9333C117.722 72.9333 116.797 73.8586 116.797 75C116.797 76.1414 117.722 77.0667 118.864 77.0667Z" fill="#FFECE5"/>
<path d="M22.439 96.0042C23.5804 96.0042 24.5056 95.0789 24.5056 93.9375C24.5056 92.7961 23.5804 91.8708 22.439 91.8708C21.2976 91.8708 20.3723 92.7961 20.3723 93.9375C20.3723 95.0789 21.2976 96.0042 22.439 96.0042Z" fill="#FFECE5"/>
<path d="M23.4736 97.675C23.8756 97.675 24.2014 97.3492 24.2014 96.9472C24.2014 96.5453 23.8756 96.2195 23.4736 96.2195C23.0717 96.2195 22.7458 96.5453 22.7458 96.9472C22.7458 97.3492 23.0717 97.675 23.4736 97.675Z" fill="#FFECE5"/>
<path d="M119.61 41.5153C120.751 41.5153 121.676 40.59 121.676 39.4486C121.676 38.3072 120.751 37.3819 119.61 37.3819C118.468 37.3819 117.543 38.3072 117.543 39.4486C117.543 40.59 118.468 41.5153 119.61 41.5153Z" fill="#FFECE5"/>
<path d="M116.462 39.7056C116.864 39.7056 117.19 39.3797 117.19 38.9778C117.19 38.5758 116.864 38.25 116.462 38.25C116.06 38.25 115.735 38.5758 115.735 38.9778C115.735 39.3797 116.06 39.7056 116.462 39.7056Z" fill="#FFECE5"/>
<path d="M40.1972 71.3569C42.1608 71.3569 43.7527 69.7651 43.7527 67.8014C43.7527 65.8377 42.1608 64.2458 40.1972 64.2458C38.2335 64.2458 36.6416 65.8377 36.6416 67.8014C36.6416 69.7651 38.2335 71.3569 40.1972 71.3569Z" fill="#FCD2C2"/>
<path d="M36.643 66.0472C37.5781 66.0472 38.3361 65.2892 38.3361 64.3542C38.3361 63.4191 37.5781 62.6611 36.643 62.6611C35.708 62.6611 34.95 63.4191 34.95 64.3542C34.95 65.2892 35.708 66.0472 36.643 66.0472Z" fill="#FFECE5"/>
</svg>
