<svg width="150" height="150" viewBox="0 0 150 150" fill="none" xmlns="http://www.w3.org/2000/svg">
<path d="M74.9999 124.504C103.276 124.504 126.198 115.512 126.198 104.419C126.198 93.327 103.276 84.3347 74.9999 84.3347C46.7237 84.3347 23.8013 93.327 23.8013 104.419C23.8013 115.512 46.7237 124.504 74.9999 124.504Z" fill="#F9FAFB"/>
<path d="M60.6277 25.4958L64.3749 30.6069L54.1082 94.9805L50.3596 89.8708L60.6277 25.4958Z" fill="#D0D5DD"/>
<path d="M54.1082 95.293C54.0096 95.293 53.9166 95.2472 53.8568 95.1653L50.1082 90.0555C50.0582 89.9889 50.0388 89.9042 50.0513 89.8208L60.318 25.4458C60.3374 25.3208 60.4305 25.2208 60.5527 25.1917C60.6749 25.1625 60.8041 25.2083 60.8777 25.3111L64.6263 30.4208C64.6763 30.4875 64.6957 30.5722 64.6832 30.6555L54.4166 95.0305C54.3971 95.1555 54.3041 95.2555 54.1818 95.2847C54.1568 95.2903 54.1332 95.293 54.1082 95.293ZM50.6888 89.7917L53.9166 94.193L64.0457 30.6861L60.818 26.2847L50.6888 89.7917Z" fill="#F9FAFB"/>
<path d="M72.7013 36.225L76.4485 41.3347L67.893 94.9805L64.1458 89.8708L72.7013 36.225Z" fill="#D0D5DD"/>
<path d="M67.8929 95.293C67.7943 95.293 67.7012 95.2472 67.6415 95.1653L63.8929 90.0555C63.8429 89.9889 63.8235 89.9042 63.836 89.8208L72.3915 36.175C72.411 36.05 72.504 35.95 72.6262 35.9208C72.7485 35.8916 72.8776 35.9375 72.9512 36.0403L76.6998 41.15C76.7498 41.2166 76.7693 41.3014 76.7568 41.3847L68.2012 95.0305C68.1818 95.1555 68.0887 95.2555 67.9665 95.2847C67.9415 95.2903 67.9179 95.293 67.8929 95.293ZM64.4748 89.7917L67.7026 94.193L76.1207 41.4153L72.8929 37.0139L64.4748 89.7917Z" fill="#F9FAFB"/>
<path d="M84.7748 46.9542L88.5234 52.0639L85.0706 73.7097L81.322 68.6L84.7748 46.9542Z" fill="#D0D5DD"/>
<path d="M85.0706 74.0222C84.972 74.0222 84.879 73.9764 84.8192 73.8944L81.0706 68.7847C81.0206 68.7181 81.0012 68.6333 81.0137 68.55L84.4665 46.9042C84.4859 46.7792 84.579 46.6792 84.7012 46.65C84.8234 46.6208 84.9526 46.6667 85.0262 46.7694L88.7748 51.8792C88.8248 51.9458 88.8442 52.0306 88.8317 52.1139L85.379 73.7597C85.3595 73.8847 85.2665 73.9847 85.1442 74.0139C85.1192 74.0194 85.0942 74.0222 85.0706 74.0222ZM81.6512 68.5208L84.879 72.9222L88.1942 52.1431L84.9665 47.7417L81.6512 68.5208Z" fill="#F9FAFB"/>
<path d="M96.8666 57.5528L100.615 62.6625L99.3375 70.675L95.5889 65.5653L96.8666 57.5528Z" fill="#D0D5DD"/>
<path d="M99.3375 70.9875C99.2389 70.9875 99.1458 70.9417 99.0861 70.8597L95.3375 65.75C95.2875 65.6833 95.268 65.5986 95.2805 65.5153L96.5583 57.5028C96.5778 57.3778 96.6708 57.2778 96.793 57.2486C96.9153 57.2194 97.0444 57.2653 97.118 57.368L100.867 62.4778C100.917 62.5444 100.936 62.6292 100.924 62.7125L99.6458 70.725C99.6264 70.85 99.5333 70.95 99.4111 70.9792C99.3861 70.9847 99.3625 70.9875 99.3375 70.9875ZM95.918 65.4861L99.1458 69.8875L100.286 62.743L97.0583 58.3417L95.918 65.4861Z" fill="#F9FAFB"/>
<path d="M93.6207 77.9125L97.368 83.0222L95.461 94.9805L91.7124 89.8708L93.6207 77.9125Z" fill="#D0D5DD"/>
<path d="M95.461 95.293C95.3624 95.293 95.2694 95.2472 95.2096 95.1653L91.461 90.0555C91.411 89.9889 91.3916 89.9041 91.4041 89.8208L93.311 77.8625C93.3305 77.7375 93.4235 77.6375 93.5457 77.6083C93.668 77.5791 93.7971 77.625 93.8707 77.7278L97.6193 82.8375C97.6693 82.9041 97.6888 82.9889 97.6763 83.0722L95.7693 95.0305C95.7499 95.1555 95.6568 95.2555 95.5346 95.2847C95.5096 95.2903 95.486 95.293 95.461 95.293ZM92.0416 89.7916L95.2693 94.193L97.0388 83.1028L93.811 78.7014L92.0416 89.7916Z" fill="#F9FAFB"/>
<path d="M60.6276 25.4958L50.3596 89.8708H36.5776L46.8443 25.4958H60.6276Z" fill="#D0D5DD"/>
<path d="M50.3596 90.1836H36.5762C36.4846 90.1836 36.3985 90.1433 36.3387 90.0739C36.279 90.0044 36.254 89.9128 36.2679 89.8225L46.5346 25.4475C46.5582 25.2961 46.6901 25.1836 46.8429 25.1836H60.6262C60.7179 25.1836 60.804 25.2239 60.8637 25.2933C60.9235 25.3628 60.9485 25.4544 60.9346 25.5447L50.6679 89.9197C50.6443 90.0725 50.5137 90.1836 50.3596 90.1836ZM36.9443 89.5586H50.0943L60.261 25.8086H47.111L36.9443 89.5586Z" fill="#F9FAFB"/>
<path d="M72.7013 36.225L64.1457 89.8708H50.3596L58.9166 36.225H72.7013Z" fill="#98A2B3"/>
<path d="M64.1456 90.1833H50.3609C50.2692 90.1833 50.1831 90.1431 50.1234 90.0736C50.0637 90.0042 50.0387 89.9125 50.0526 89.8222L58.6081 36.1764C58.6317 36.025 58.7637 35.9125 58.9165 35.9125H72.7012C72.7929 35.9125 72.879 35.9528 72.9387 36.0222C72.9984 36.0917 73.0234 36.1833 73.0095 36.2736L64.454 89.9194C64.429 90.0722 64.2984 90.1833 64.1456 90.1833ZM50.7262 89.5583H63.8776L72.3331 36.5375H59.1817L50.7262 89.5583Z" fill="#F9FAFB"/>
<path d="M70.9901 46.9542H84.7748L81.3221 68.6C72.8846 72.7556 66.3276 80.7125 64.7637 89.8708H64.1443L70.9901 46.9542Z" fill="#D0D5DD"/>
<path d="M64.7638 90.1833H64.1444C64.0527 90.1833 63.9666 90.1431 63.9069 90.0736C63.8471 90.0042 63.8221 89.9125 63.836 89.8222L70.6805 46.9056C70.7041 46.7542 70.836 46.6417 70.9888 46.6417H84.7735C84.8652 46.6417 84.9513 46.6819 85.011 46.7514C85.0707 46.8208 85.0957 46.9125 85.0819 47.0028L81.6291 68.6486C81.6138 68.7486 81.5499 68.8347 81.4582 68.8792C72.8416 73.1222 66.5624 81.1861 65.0707 89.9222C65.0471 90.0736 64.9166 90.1833 64.7638 90.1833ZM71.2569 47.2667L64.5624 89.2361C66.2513 80.5792 72.511 72.6444 81.0388 68.3917L84.4082 47.2667H71.2569Z" fill="#F9FAFB"/>
<path d="M82.7722 102.903C82.6735 102.753 82.5763 102.601 82.486 102.446C82.4847 102.443 82.4819 102.439 82.4805 102.436C82.3916 102.285 82.3069 102.129 82.2249 101.972C82.2027 101.928 82.1819 101.883 82.1597 101.839C82.0958 101.71 82.0333 101.579 81.9735 101.446C81.9472 101.385 81.9208 101.324 81.8944 101.263C81.843 101.14 81.7944 101.018 81.7472 100.893C81.7194 100.819 81.6916 100.746 81.6652 100.672C81.6485 100.625 81.6333 100.578 81.6166 100.531C81.5805 100.421 81.5458 100.311 81.5124 100.2C81.4999 100.16 81.4874 100.119 81.4763 100.078C81.4347 99.9278 81.3944 99.7778 81.3583 99.625C81.3513 99.5986 81.3472 99.5708 81.3402 99.5444C81.3124 99.4208 81.286 99.2958 81.2624 99.1708C81.2485 99.1 81.2374 99.0292 81.2263 98.9583C81.2097 98.8625 81.1944 98.7667 81.1819 98.6694C81.1722 98.5972 81.1624 98.5236 81.1541 98.45C81.143 98.3528 81.1319 98.2556 81.1235 98.1569C81.1166 98.0833 81.111 98.0083 81.1055 97.9347C81.0985 97.8361 81.093 97.7361 81.0888 97.6361C81.086 97.5611 81.0819 97.4861 81.0805 97.4111C81.0777 97.3083 81.0777 97.2056 81.0777 97.1028C81.0777 97.0292 81.0777 96.9556 81.0791 96.8806C81.0819 96.7736 81.0874 96.6653 81.0916 96.5556C81.0958 96.4847 81.0972 96.4153 81.1027 96.3431C81.111 96.2222 81.1222 96.1014 81.1347 95.9792C81.1402 95.9194 81.1444 95.8597 81.1513 95.8C81.1722 95.6181 81.1972 95.4347 81.2263 95.2514C81.2402 95.1597 81.2569 95.0681 81.2735 94.9778C81.4499 94.0083 81.7388 93.0667 82.1235 92.1639L78.3749 87.0542C77.9888 87.9569 77.7013 88.8986 77.5249 89.8681C77.5083 89.9597 77.493 90.0514 77.4777 90.1417C77.4485 90.325 77.4235 90.5083 77.4027 90.6903C77.3958 90.75 77.3916 90.8097 77.386 90.8695C77.3735 90.9903 77.3624 91.1125 77.3541 91.2333C77.3499 91.3042 77.3472 91.375 77.343 91.4458C77.3374 91.5542 77.3319 91.6625 77.3305 91.7708C77.3291 91.8458 77.3291 91.9194 77.3291 91.9931C77.3291 92.0958 77.3291 92.1986 77.3319 92.3014C77.3333 92.3764 77.3374 92.4514 77.3402 92.5264C77.3444 92.6264 77.3499 92.725 77.3569 92.825C77.3624 92.9 77.368 92.9736 77.3749 93.0486C77.3833 93.1458 77.3944 93.2444 77.4055 93.3403C77.4138 93.4139 77.4235 93.4875 77.4333 93.5597C77.4472 93.657 77.4624 93.7528 77.4777 93.8486C77.4902 93.9195 77.5013 93.9903 77.5152 94.0611C77.5208 94.0889 77.5249 94.1167 77.5291 94.1445C77.5485 94.2417 77.5694 94.3375 77.5916 94.4333C77.5972 94.4597 77.6027 94.4875 77.6097 94.5153C77.6458 94.6681 77.6847 94.8181 77.7277 94.9681C77.7388 95.0083 77.7513 95.0486 77.7638 95.0903C77.7972 95.2014 77.8305 95.3111 77.868 95.4208C77.8833 95.4681 77.8999 95.5153 77.9166 95.5625C77.9291 95.5986 77.9402 95.6347 77.9527 95.6708C77.9666 95.7083 77.9833 95.7458 77.9972 95.7833C78.0444 95.9083 78.093 96.0306 78.1444 96.1528C78.1708 96.2139 78.1958 96.275 78.2222 96.3361C78.2819 96.4694 78.3444 96.6 78.4083 96.7292C78.4249 96.7639 78.4402 96.7986 78.4569 96.8333C78.4624 96.8431 78.468 96.8528 78.4722 96.8625C78.5527 97.0194 78.6374 97.175 78.7277 97.3264C78.7291 97.3292 78.7319 97.3333 78.7333 97.3361C78.8249 97.4917 78.9208 97.6431 79.0194 97.7931C79.0249 97.8014 79.0305 97.8111 79.036 97.8194C79.1166 97.9403 79.1999 98.0583 79.2847 98.175L83.0333 103.285C82.9458 103.16 82.8583 103.032 82.7722 102.903Z" fill="#D0D5DD"/>
<path d="M83.0387 103.597C82.9429 103.597 82.8471 103.553 82.786 103.469L82.7846 103.468L79.0373 98.3597C78.9485 98.2389 78.8623 98.1153 78.7804 97.9931L78.7651 97.9694C78.654 97.8014 78.5568 97.6472 78.4679 97.4944C78.4651 97.4903 78.461 97.4819 78.4596 97.4778C78.3748 97.3319 78.2887 97.1764 78.1998 97.0056C78.1929 96.9944 78.1873 96.9847 78.1832 96.975C78.1721 96.9542 78.1623 96.9319 78.1512 96.9083C78.1457 96.8958 78.1387 96.8819 78.1332 96.8694C78.0596 96.7222 77.9971 96.5903 77.9415 96.4639C77.9151 96.4056 77.8901 96.3458 77.8651 96.2861C77.8082 96.15 77.7568 96.0222 77.7082 95.8944C77.7026 95.8792 77.6971 95.8653 77.6915 95.8514C77.6818 95.8278 77.6721 95.8028 77.6623 95.7792C77.654 95.7569 77.6471 95.7333 77.6387 95.7111L77.6248 95.6681C77.6082 95.6194 77.5915 95.5708 77.5748 95.5208C77.5373 95.4083 77.5026 95.2944 77.4679 95.1806L77.4554 95.1389C77.4471 95.1111 77.4387 95.0833 77.4304 95.0556C77.386 94.8958 77.3443 94.7389 77.3096 94.5889L77.2915 94.5056C77.2679 94.4 77.2457 94.3042 77.2276 94.2083C77.2235 94.1903 77.2207 94.1722 77.2179 94.1528L77.2123 94.1208C77.2012 94.0583 77.1901 93.9958 77.179 93.9319L77.1735 93.9014C77.1568 93.8028 77.1415 93.7042 77.1276 93.6042C77.1179 93.5292 77.1082 93.4542 77.0985 93.3778C77.0873 93.2778 77.0762 93.1778 77.0665 93.0778C77.0596 93.0014 77.0526 92.925 77.0471 92.8486C77.0401 92.7472 77.0346 92.6444 77.0304 92.5417C77.0276 92.4653 77.0235 92.3875 77.0221 92.3111C77.0193 92.2056 77.0193 92.1 77.0193 91.9944V91.9431C77.0193 91.8847 77.0193 91.825 77.0207 91.7653C77.0235 91.6556 77.029 91.5431 77.0346 91.4319L77.0373 91.3625C77.0401 91.3125 77.0415 91.2639 77.0457 91.2139C77.054 91.0903 77.0665 90.9653 77.079 90.8403L77.0846 90.7736C77.0873 90.7347 77.0915 90.6958 77.0957 90.6556C77.1179 90.4625 77.1429 90.2736 77.1721 90.0931C77.1873 89.9986 77.2026 89.9056 77.2207 89.8125C77.3985 88.8375 77.6915 87.8681 78.0915 86.9319C78.136 86.8292 78.2318 86.7569 78.3429 86.7444C78.4554 86.7319 78.5637 86.7792 78.6304 86.8694L82.379 91.9792C82.4443 92.0681 82.4582 92.1847 82.4137 92.2861C82.0318 93.1792 81.7526 94.1042 81.5832 95.0333C81.5665 95.1222 81.5512 95.2111 81.5373 95.3014C81.5096 95.4722 81.486 95.6528 81.4651 95.8361C81.461 95.8694 81.4582 95.9042 81.4554 95.9375L81.4485 96.0111C81.4373 96.1292 81.4248 96.2472 81.4165 96.3653C81.4137 96.4097 81.411 96.4542 81.4096 96.5L81.4068 96.5722C81.4012 96.6778 81.3957 96.7833 81.3943 96.8875C81.3929 96.9431 81.3929 96.9972 81.3929 97.0514V97.1028C81.3929 97.2028 81.3929 97.3028 81.3957 97.4014C81.3971 97.4736 81.4012 97.5472 81.404 97.6194C81.4082 97.7167 81.4137 97.8139 81.4207 97.9097C81.4262 97.9819 81.4318 98.0542 81.4387 98.1264C81.4471 98.2222 81.4582 98.3167 81.4693 98.4111C81.4776 98.4819 81.486 98.5528 81.4957 98.6236C81.5082 98.7181 81.5235 98.8111 81.5387 98.9042L81.5429 98.9292C81.5526 98.9903 81.5637 99.05 81.5748 99.1111C81.5985 99.2333 81.6235 99.3542 81.6498 99.4736L81.6665 99.5514C81.6998 99.6931 81.7373 99.8375 81.7804 99.9903L81.8151 100.108C81.8471 100.215 81.8804 100.322 81.9151 100.428C81.9304 100.474 81.9457 100.519 81.9623 100.565C81.9818 100.622 82.0026 100.678 82.0248 100.733L82.0415 100.779C82.0873 100.9 82.1346 101.018 82.1846 101.136C82.2123 101.201 82.236 101.258 82.261 101.314C82.3137 101.433 82.3721 101.557 82.4415 101.694L82.4707 101.754C82.4818 101.778 82.4929 101.801 82.5054 101.825C82.586 101.982 82.6693 102.133 82.7526 102.274C82.754 102.276 82.7596 102.286 82.761 102.289C82.8415 102.426 82.9332 102.571 83.0346 102.725C83.1248 102.86 83.2082 102.981 83.2901 103.092L83.2929 103.094C83.3943 103.233 83.3651 103.429 83.2262 103.531C83.1665 103.578 83.1026 103.597 83.0387 103.597ZM78.4582 87.6944C78.1804 88.4264 77.9721 89.175 77.8346 89.9264C77.8179 90.0153 77.8026 90.1042 77.7887 90.1944C77.761 90.3653 77.7373 90.5458 77.7165 90.7292C77.7123 90.7625 77.7096 90.7972 77.7068 90.8306L77.6998 90.9042C77.6887 91.0222 77.6762 91.1403 77.6679 91.2583C77.6651 91.3028 77.6623 91.3472 77.661 91.3917L77.6582 91.4639C77.6526 91.5694 77.6471 91.675 77.6457 91.7792C77.6443 91.8347 77.6443 91.8889 77.6443 91.9431V91.9944C77.6443 92.0944 77.6443 92.1944 77.6471 92.2931C77.6485 92.3667 77.6526 92.4389 77.6554 92.5111C77.6596 92.6083 77.6651 92.7042 77.6721 92.8C77.6776 92.8722 77.6832 92.9444 77.6901 93.0167C77.6985 93.1111 77.7082 93.2069 77.7193 93.3C77.7276 93.3708 77.736 93.4417 77.7457 93.5125C77.7582 93.6069 77.7735 93.7 77.7887 93.7931L77.7943 93.8236C77.804 93.8819 77.8137 93.9417 77.8248 94L77.8387 94.0819C77.8568 94.1722 77.8762 94.2625 77.8971 94.3514L77.9165 94.4417C77.9498 94.5833 77.9873 94.7306 78.0304 94.8806L78.0651 94.9986C78.0971 95.1069 78.1304 95.2125 78.1651 95.3194C78.1804 95.3653 78.1957 95.4111 78.2123 95.4569L78.2304 95.5097C78.236 95.5278 78.2415 95.5444 78.2485 95.5625C78.254 95.5778 78.261 95.5931 78.2665 95.6097C78.2748 95.6306 78.2832 95.6514 78.2915 95.6722C78.3373 95.7917 78.3846 95.9111 78.4346 96.0306C78.4623 96.0972 78.486 96.1528 78.511 96.2083C78.5637 96.3264 78.6221 96.4514 78.6915 96.5889C78.7012 96.6083 78.7096 96.6264 78.7193 96.6458C78.7262 96.6597 78.7318 96.675 78.7401 96.6889L78.754 96.7139C78.8387 96.8764 78.9193 97.0236 79.0026 97.1653C79.0054 97.1694 79.0096 97.1778 79.011 97.1819C79.0915 97.3181 79.1818 97.4625 79.2846 97.6181L79.2985 97.6403C79.3776 97.7583 79.4582 97.8736 79.5415 97.9875L81.2054 100.257L81.2012 100.243C81.1929 100.217 81.1846 100.19 81.1776 100.162C81.1318 100 81.0915 99.8472 81.0568 99.6958L81.0387 99.6125C81.0096 99.4847 80.9832 99.3556 80.9596 99.2264C80.9471 99.1625 80.936 99.0972 80.9262 99.0319L80.9221 99.0069C80.9054 98.9083 80.8901 98.8097 80.8762 98.7097C80.8665 98.6347 80.8568 98.5597 80.8471 98.4847C80.8346 98.3847 80.8248 98.2847 80.8151 98.1833C80.8082 98.1069 80.8012 98.0306 80.7971 97.9542C80.7901 97.8528 80.7846 97.75 80.7804 97.6472C80.7776 97.5708 80.7735 97.4944 80.7721 97.4167C80.7693 97.3111 80.7693 97.2056 80.7693 97.1V97.0486C80.7693 96.9903 80.7693 96.9306 80.7707 96.8708C80.7735 96.7611 80.779 96.6486 80.7846 96.5375L80.7873 96.4681C80.7901 96.4181 80.7915 96.3694 80.7957 96.3194C80.804 96.1958 80.8165 96.0708 80.829 95.9472L80.8346 95.8806C80.8373 95.8417 80.8415 95.8028 80.8457 95.7639C80.8679 95.5708 80.8929 95.3819 80.9221 95.2014C80.9373 95.1069 80.9526 95.0139 80.9707 94.9208C81.1373 94.0028 81.4068 93.0903 81.7721 92.2056L78.4582 87.6944Z" fill="#F9FAFB"/>
<path d="M96.8665 57.5528L95.5888 65.5653C95.1207 65.5403 94.6471 65.5278 94.1693 65.5278C92.8915 65.5278 91.6207 65.6181 90.3651 65.7944L91.2221 77.8722C91.5471 77.8486 91.8776 77.8361 92.2054 77.8361C92.6874 77.8361 93.1582 77.8611 93.6193 77.9125L91.7124 89.8708H77.9304L78.379 87.0569C80.1151 82.9944 83.8179 79.7444 88.1276 78.4472L87.2735 66.4C85.2179 66.9208 83.2235 67.6625 81.3235 68.5986L83.086 57.5514H96.8665V57.5528Z" fill="#D0D5DD"/>
<path d="M91.7124 90.1833H77.9305C77.8388 90.1833 77.7527 90.1431 77.693 90.0736C77.6333 90.0042 77.6083 89.9125 77.6222 89.8222L78.0708 87.0083C78.0749 86.9833 78.0819 86.9583 78.0916 86.9347C79.8124 82.9083 83.5166 79.5903 87.7985 78.2236L86.9888 66.7986C85.1055 67.3014 83.2472 68.0014 81.461 68.8806C81.3569 68.9319 81.2319 68.9208 81.1374 68.8514C81.043 68.7819 80.9958 68.6667 81.0138 68.55L82.7763 57.5028C82.7999 57.3514 82.9319 57.2389 83.0847 57.2389H96.868C96.9597 57.2389 97.0458 57.2792 97.1055 57.3486C97.1652 57.4181 97.1902 57.5097 97.1763 57.6L95.8985 65.6125C95.8735 65.7708 95.7347 65.8833 95.5735 65.875C93.9763 65.7889 92.3249 65.8528 90.6999 66.0625L91.5138 77.5389C92.2277 77.5042 92.9583 77.5236 93.6541 77.6C93.7388 77.6097 93.8166 77.6528 93.868 77.7208C93.9194 77.7889 93.9416 77.875 93.9277 77.9597L92.0208 89.9181C91.9972 90.0722 91.8666 90.1833 91.7124 90.1833ZM78.2958 89.5583H91.4458L93.2583 78.1917C92.5958 78.1375 91.9055 78.1347 91.2458 78.1833C91.1624 78.1889 91.0805 78.1625 91.018 78.1083C90.9555 78.0542 90.9166 77.9764 90.911 77.8945L90.0541 65.8167C90.043 65.6528 90.1597 65.5083 90.3222 65.4847C91.986 65.2528 93.6735 65.1694 95.3235 65.2403L96.4999 57.8653H83.3499L81.7235 68.0597C83.4971 67.2278 85.3346 66.5694 87.1944 66.0986C87.2846 66.0764 87.3791 66.0944 87.4541 66.1486C87.5291 66.2028 87.5763 66.2875 87.5833 66.3792L88.4374 78.4264C88.4472 78.5722 88.3555 78.7056 88.2152 78.7472C84.018 80.0097 80.368 83.2264 78.6791 87.1444L78.2958 89.5583Z" fill="#F9FAFB"/>
<path d="M50.3596 89.8708H36.5776L40.3249 94.9805H54.1082H67.8929L64.1457 89.8708H50.3596Z" fill="#D0D5DD"/>
<path d="M67.8928 95.293H40.3248C40.2248 95.293 40.1317 95.2458 40.0734 95.1653L36.3248 90.0555C36.2553 89.9611 36.2442 89.8347 36.2984 89.7291C36.3512 89.6236 36.4595 89.5583 36.5775 89.5583H64.1456C64.2456 89.5583 64.3387 89.6055 64.397 89.6861L68.1456 94.7958C68.215 94.8903 68.2262 95.0167 68.172 95.1222C68.1192 95.2278 68.0109 95.293 67.8928 95.293ZM40.4831 94.668H67.2762L63.9859 90.1833H37.1942L40.4831 94.668Z" fill="#F9FAFB"/>
<path d="M91.7124 89.8708H77.9304L81.6776 94.9805H95.461L91.7124 89.8708Z" fill="#D0D5DD"/>
<path d="M95.4609 95.293H81.6776C81.5776 95.293 81.4845 95.2458 81.4262 95.1653L77.6776 90.0555C77.6081 89.9611 77.597 89.8347 77.6512 89.7291C77.7039 89.6236 77.8123 89.5583 77.9303 89.5583H91.7137C91.8137 89.5583 91.9067 89.6055 91.9651 89.6861L95.7137 94.7958C95.7831 94.8903 95.7942 95.0167 95.7401 95.1222C95.6859 95.2278 95.5789 95.293 95.4609 95.293ZM81.8359 94.668H94.8442L91.5539 90.1833H78.5456L81.8359 94.668Z" fill="#F9FAFB"/>
<path d="M112.95 75.2611C113.064 75.4431 113.176 75.6278 113.284 75.8139C113.315 75.8667 113.344 75.9195 113.375 75.9722C113.452 76.1083 113.529 76.2431 113.602 76.3806C113.639 76.4472 113.675 76.5153 113.711 76.5833C113.775 76.7056 113.837 76.8278 113.9 76.9514C113.941 77.0361 113.983 77.1195 114.025 77.2042C114.083 77.325 114.14 77.4458 114.195 77.5681C114.233 77.6514 114.272 77.7347 114.309 77.8181C114.366 77.9472 114.42 78.0764 114.475 78.207C114.508 78.2861 114.541 78.3639 114.573 78.4431C114.634 78.5945 114.691 78.7472 114.75 78.9014C114.772 78.9611 114.795 79.0181 114.816 79.0778C114.841 79.1458 114.864 79.2153 114.887 79.2833C114.947 79.4528 115.005 79.6222 115.061 79.7931C115.09 79.8847 115.116 79.9764 115.145 80.0681C115.191 80.2181 115.237 80.3667 115.28 80.5181C115.308 80.6181 115.334 80.7208 115.362 80.8222C115.401 80.9667 115.439 81.1111 115.473 81.2583C115.498 81.3639 115.523 81.4708 115.547 81.5764C115.579 81.7208 115.611 81.8639 115.64 82.0097C115.665 82.1347 115.69 82.2597 115.714 82.3861C115.732 82.4806 115.748 82.575 115.765 82.6694C115.789 82.8097 115.811 82.9528 115.832 83.0945C115.845 83.1847 115.859 83.275 115.872 83.3667C115.893 83.5236 115.912 83.682 115.93 83.8403C115.939 83.9167 115.95 83.9945 115.957 84.0708C115.982 84.307 116.002 84.5445 116.019 84.782L119.768 89.8917C119.751 89.6528 119.729 89.4153 119.705 89.1806C119.697 89.1028 119.687 89.0264 119.679 88.95C119.661 88.7917 119.643 88.6333 119.62 88.4764C119.608 88.3861 119.594 88.2958 119.58 88.2056C119.559 88.0625 119.537 87.9208 119.514 87.7792C119.497 87.6847 119.48 87.5903 119.462 87.4958C119.448 87.4194 119.436 87.3417 119.42 87.2653C119.411 87.2167 119.398 87.1681 119.389 87.1195C119.359 86.975 119.327 86.8306 119.295 86.6861C119.272 86.5792 119.248 86.4736 119.222 86.3681C119.187 86.2222 119.148 86.0778 119.111 85.932C119.084 85.8306 119.058 85.7292 119.029 85.6278C118.986 85.4764 118.941 85.3278 118.895 85.1778C118.868 85.0861 118.84 84.9931 118.811 84.9014C118.755 84.7306 118.697 84.5611 118.637 84.3931C118.616 84.332 118.597 84.2708 118.575 84.2097C118.572 84.2014 118.569 84.1945 118.566 84.1875C118.545 84.1278 118.522 84.0708 118.5 84.0111C118.443 83.857 118.384 83.7042 118.323 83.5528C118.291 83.4736 118.258 83.3972 118.226 83.3195C118.172 83.1889 118.116 83.0583 118.059 82.9292C118.022 82.8458 117.984 82.7625 117.945 82.6792C117.89 82.557 117.833 82.4361 117.775 82.3153C117.734 82.2306 117.691 82.1458 117.65 82.0625C117.619 82.0014 117.59 81.9403 117.559 81.8792C117.527 81.8167 117.494 81.7556 117.461 81.6931C117.425 81.625 117.39 81.557 117.352 81.4903C117.279 81.3528 117.202 81.2167 117.125 81.082C117.094 81.0292 117.065 80.975 117.034 80.9236C116.926 80.7375 116.815 80.5528 116.7 80.3708C116.682 80.3417 116.662 80.3139 116.644 80.2847C116.564 80.1583 116.483 80.032 116.4 79.9083C116.386 79.8889 116.372 79.8695 116.358 79.85C116.209 79.6306 116.059 79.4125 115.902 79.1986L112.154 74.0889C112.311 74.3028 112.462 74.5195 112.609 74.7403C112.707 74.8847 112.801 75.0292 112.894 75.1764C112.911 75.2042 112.93 75.232 112.95 75.2611Z" fill="#D0D5DD"/>
<path d="M119.764 90.2069C119.666 90.2069 119.572 90.1611 119.512 90.0792L115.764 84.9694C115.729 84.9222 115.708 84.8653 115.704 84.8069C115.687 84.5819 115.668 84.3528 115.641 84.1055C115.637 84.0597 115.632 84.0153 115.626 83.9694L115.615 83.8778C115.597 83.7222 115.579 83.5667 115.558 83.4111C115.55 83.3472 115.54 83.2847 115.53 83.2222L115.518 83.1431C115.497 83.0028 115.475 82.8639 115.451 82.725C115.436 82.6333 115.419 82.5417 115.401 82.45C115.378 82.3208 115.354 82.1972 115.329 82.0736C115.3 81.9305 115.269 81.7889 115.237 81.6472L115.233 81.6278C115.211 81.5292 115.189 81.4319 115.165 81.3333C115.13 81.1889 115.093 81.0472 115.055 80.9042L115.034 80.8236C115.015 80.7514 114.996 80.6778 114.976 80.6055C114.934 80.4569 114.889 80.3097 114.844 80.1611L114.815 80.0625C114.797 80.0042 114.78 79.9458 114.762 79.8889C114.708 79.7208 114.65 79.5528 114.591 79.3861L114.561 79.2958C114.548 79.2583 114.536 79.2208 114.522 79.1847C114.509 79.1514 114.497 79.1194 114.484 79.0875L114.455 79.0111C114.398 78.8597 114.341 78.7097 114.282 78.5597C114.261 78.5097 114.24 78.4583 114.219 78.4083L114.186 78.3278C114.133 78.2 114.079 78.0708 114.023 77.9444C113.994 77.8792 113.965 77.8139 113.934 77.7486L113.911 77.6986C113.855 77.5778 113.8 77.4583 113.743 77.3403C113.703 77.2569 113.661 77.1736 113.621 77.0917C113.559 76.9708 113.498 76.85 113.434 76.7292C113.4 76.6625 113.365 76.5958 113.329 76.5292C113.255 76.3944 113.18 76.2597 113.104 76.1264L113.068 76.0639C113.05 76.0333 113.033 76.0014 113.015 75.9708C112.901 75.7764 112.794 75.5986 112.686 75.4264L112.63 75.3417C112.539 75.1972 112.444 75.0542 112.35 74.9125C112.189 74.6736 112.043 74.4639 111.901 74.2722C111.8 74.1333 111.829 73.9375 111.968 73.8347C112.107 73.7333 112.303 73.7625 112.405 73.9014L116.154 79.0111C116.301 79.2111 116.453 79.4278 116.616 79.6722L116.632 79.693C116.641 79.7055 116.65 79.7181 116.658 79.7319C116.743 79.8583 116.825 79.9861 116.907 80.1153L116.964 80.2042C117.075 80.3805 117.189 80.5694 117.303 80.7653C117.322 80.7986 117.341 80.8319 117.359 80.8667L117.394 80.9278C117.473 81.0653 117.55 81.2028 117.626 81.343C117.664 81.4111 117.7 81.4806 117.736 81.5486L117.773 81.6194C117.794 81.6583 117.815 81.6972 117.836 81.7361C117.855 81.7736 117.873 81.8111 117.891 81.8486L117.928 81.9222C117.971 82.0069 118.012 82.0931 118.054 82.1792C118.114 82.3014 118.171 82.425 118.228 82.55L118.253 82.6028C118.283 82.6694 118.314 82.7361 118.343 82.8028C118.401 82.9347 118.457 83.0667 118.512 83.2L118.544 83.2764C118.566 83.3306 118.59 83.3833 118.611 83.4375C118.673 83.5917 118.732 83.7472 118.79 83.9042L118.816 83.975C118.83 84.0111 118.844 84.0472 118.858 84.0833L118.866 84.1055C118.88 84.1417 118.891 84.1792 118.904 84.2153L118.93 84.2917C118.99 84.4625 119.05 84.6347 119.105 84.8083C119.125 84.8694 119.144 84.9319 119.162 84.9931L119.191 85.0889C119.237 85.2403 119.284 85.3917 119.328 85.5458C119.35 85.6222 119.369 85.7 119.39 85.7778L119.411 85.8542C119.45 86.0014 119.489 86.1486 119.525 86.2958C119.55 86.3958 119.572 86.4972 119.594 86.5986L119.598 86.6194C119.632 86.7653 119.664 86.9111 119.693 87.0583L119.707 87.1194C119.714 87.1486 119.719 87.1778 119.725 87.2069C119.734 87.2542 119.743 87.3014 119.751 87.3486L119.768 87.4403C119.786 87.5389 119.804 87.6333 119.819 87.7278C119.844 87.8708 119.866 88.0153 119.887 88.1597L119.9 88.2389C119.909 88.3042 119.919 88.3694 119.929 88.4347C119.951 88.5944 119.969 88.7542 119.989 88.9153L119.998 89C120.004 89.05 120.011 89.0986 120.015 89.1486C120.041 89.4028 120.062 89.6389 120.079 89.8708C120.089 90.0097 120.005 90.1389 119.875 90.1861C119.836 90.2 119.8 90.2069 119.764 90.2069ZM116.321 84.6708L119.34 88.7875C119.329 88.6972 119.318 88.6083 119.305 88.5194C119.297 88.4569 119.287 88.3944 119.278 88.3319L119.265 88.2514C119.244 88.1111 119.222 87.9708 119.198 87.8319C119.183 87.7403 119.165 87.6486 119.148 87.5556L119.13 87.4542C119.123 87.4111 119.115 87.368 119.107 87.3264C119.103 87.3028 119.097 87.2792 119.091 87.2555C119.086 87.2305 119.08 87.2069 119.076 87.1819C119.047 87.0389 119.016 86.8972 118.984 86.7556L118.98 86.7347C118.958 86.6361 118.936 86.5389 118.912 86.4417C118.878 86.2972 118.84 86.1555 118.803 86.0125L118.782 85.9347C118.762 85.8611 118.743 85.7875 118.722 85.7139C118.68 85.5653 118.636 85.4181 118.59 85.2708L118.559 85.1708C118.543 85.1125 118.525 85.0555 118.507 84.9986C118.453 84.8305 118.394 84.6639 118.336 84.4972C118.326 84.4681 118.316 84.4389 118.307 84.4111C118.297 84.3792 118.286 84.3486 118.275 84.3167L118.266 84.2958C118.254 84.2611 118.241 84.2292 118.229 84.1972L118.2 84.1208C118.143 83.9694 118.086 83.818 118.026 83.6694C118.005 83.618 117.984 83.5681 117.964 83.5181L117.93 83.4403C117.876 83.3111 117.823 83.1833 117.766 83.0555C117.739 82.9917 117.708 82.9278 117.679 82.8639L117.654 82.8097C117.598 82.6903 117.543 82.5694 117.486 82.4514C117.446 82.3681 117.404 82.2847 117.364 82.2028L117.325 82.1236C117.308 82.0903 117.291 82.0556 117.275 82.0236C117.257 81.9875 117.237 81.9528 117.219 81.9167L117.179 81.8403C117.144 81.7736 117.109 81.7069 117.073 81.6403C117 81.5055 116.925 81.3708 116.848 81.2375L116.812 81.1736C116.796 81.1431 116.778 81.1125 116.759 81.0819C116.648 80.8917 116.537 80.7083 116.43 80.5375L116.375 80.4528C116.296 80.3292 116.216 80.2042 116.134 80.0819L116.094 80.025C115.933 79.7861 115.787 79.5764 115.646 79.3833L114.841 78.2875C114.847 78.3014 114.853 78.3153 114.858 78.3292C114.919 78.4833 114.979 78.6389 115.037 78.7944L115.064 78.8653C115.078 78.9014 115.091 78.9375 115.105 78.975C115.121 79.0167 115.134 79.0583 115.148 79.1L115.178 79.1833C115.237 79.3555 115.298 79.5278 115.354 79.7014C115.373 79.7625 115.393 79.825 115.411 79.8861L115.44 79.9805C115.486 80.1319 115.533 80.2847 115.576 80.4375C115.597 80.5139 115.618 80.5903 115.637 80.6667L115.658 80.7458C115.697 80.893 115.736 81.0403 115.772 81.1875C115.797 81.2889 115.819 81.3903 115.843 81.4917L115.847 81.5111C115.88 81.6569 115.912 81.8028 115.941 81.95C115.968 82.0764 115.991 82.2042 116.015 82.3319C116.033 82.4319 116.051 82.525 116.066 82.6194C116.091 82.7625 116.114 82.9069 116.134 83.05L116.146 83.1278C116.155 83.1931 116.165 83.2597 116.175 83.3264C116.197 83.4861 116.215 83.6458 116.233 83.8056L116.243 83.8931C116.248 83.9417 116.255 83.9917 116.259 84.0403C116.287 84.2611 116.305 84.4681 116.321 84.6708Z" fill="#F9FAFB"/>
<path d="M116.015 84.7833L119.764 89.8944L106.888 92.7792L103.139 87.6694L116.015 84.7833Z" fill="#D0D5DD"/>
<path d="M106.887 93.0917C106.789 93.0917 106.696 93.0458 106.636 92.9639L102.887 87.8542C102.825 87.7694 102.81 87.6583 102.847 87.5597C102.885 87.4611 102.968 87.3875 103.071 87.3639L115.947 84.4778C116.069 84.45 116.194 84.4972 116.268 84.5972L120.017 89.7069C120.079 89.7917 120.094 89.9028 120.057 90.0014C120.019 90.1 119.936 90.1736 119.833 90.1972L106.957 93.0833C106.932 93.0903 106.91 93.0917 106.887 93.0917ZM103.674 87.8694L107.018 92.4292L119.229 89.693L115.885 85.1333L103.674 87.8694Z" fill="#F9FAFB"/>
<path d="M85.1833 102.075L88.9305 107.185L83.775 119.09L80.0264 113.979L85.1833 102.075Z" fill="#D0D5DD"/>
<path d="M83.7749 119.403C83.6763 119.403 83.5818 119.356 83.5235 119.275L79.7749 114.165C79.7096 114.076 79.6957 113.958 79.7401 113.856L84.8971 101.951C84.9415 101.849 85.0374 101.778 85.1485 101.765C85.2596 101.753 85.3693 101.801 85.436 101.892L89.1846 107.001C89.2499 107.09 89.2638 107.208 89.2193 107.311L84.0624 119.215C84.0179 119.318 83.9221 119.389 83.811 119.401C83.7971 119.401 83.786 119.403 83.7749 119.403ZM80.3846 113.939L83.704 118.465L88.5735 107.225L85.254 102.699L80.3846 113.939Z" fill="#F9FAFB"/>
<path d="M72.0833 111.311L68.3347 106.201C71.0778 109.942 75.1236 112.703 80.0264 113.979L83.775 119.089C78.8708 117.814 74.8264 115.051 72.0833 111.311Z" fill="#D0D5DD"/>
<path d="M83.7749 119.403C83.7485 119.403 83.7221 119.4 83.6957 119.393C78.7846 118.114 74.6818 115.385 71.8304 111.497L68.0818 106.387C67.9804 106.249 68.0096 106.053 68.1485 105.95C68.2874 105.847 68.4832 105.878 68.586 106.017C71.3513 109.786 75.3332 112.435 80.104 113.678C80.1735 113.696 80.2346 113.738 80.2777 113.796L84.0263 118.906C84.104 119.012 84.1068 119.157 84.0332 119.265C83.9735 119.353 83.8763 119.403 83.7749 119.403ZM71.5499 110.057L72.3346 111.126C74.9304 114.665 78.5999 117.217 82.986 118.543L79.8401 114.253C76.7054 113.422 73.904 111.997 71.5499 110.057Z" fill="#F9FAFB"/>
<mask id="mask0_8802_26787" style="mask-type:luminance" maskUnits="userSpaceOnUse" x="68" y="106" width="16" height="14">
<mask id="mask1_8802_26787" style="mask-type:luminance" maskUnits="userSpaceOnUse" x="68" y="106" width="16" height="14">
<path d="M72.0833 111.311L68.3347 106.201C71.0778 109.942 75.1236 112.703 80.0264 113.979L83.775 119.089C78.8708 117.814 74.8264 115.051 72.0833 111.311Z" fill="white"/>
</mask>
<g mask="url(#mask1_8802_26787)">
<path d="M83.7749 119.403C83.7485 119.403 83.7221 119.4 83.6957 119.393C78.7846 118.114 74.6818 115.385 71.8304 111.497L68.0818 106.387C67.9804 106.249 68.0096 106.053 68.1485 105.95C68.2874 105.847 68.4832 105.878 68.586 106.017C71.3513 109.786 75.3332 112.435 80.104 113.678C80.1735 113.696 80.2346 113.738 80.2777 113.796L84.0263 118.906C84.104 119.012 84.1068 119.157 84.0332 119.265C83.9735 119.353 83.8763 119.403 83.7749 119.403ZM71.5499 110.057L72.3346 111.126C74.9304 114.665 78.5999 117.217 82.986 118.543L79.8401 114.253C76.7054 113.422 73.904 111.997 71.5499 110.057Z" fill="white"/>
</g>
</mask>
<g mask="url(#mask0_8802_26787)">
<path d="M80.0261 113.979L83.7747 119.089C78.872 117.812 74.8261 115.051 72.0831 111.311L68.3345 106.201C71.0775 109.942 75.1234 112.703 80.0261 113.979Z" fill="#D0D5DD"/>
<path d="M83.7749 119.403C83.7485 119.403 83.7221 119.4 83.6957 119.393C78.7846 118.114 74.6818 115.385 71.8304 111.497L68.0818 106.387C67.9804 106.249 68.0096 106.053 68.1485 105.95C68.2874 105.847 68.4832 105.878 68.586 106.017C71.3513 109.786 75.3332 112.435 80.104 113.678C80.1735 113.696 80.2346 113.738 80.2777 113.796L84.0263 118.906C84.104 119.012 84.1068 119.157 84.0332 119.265C83.9735 119.353 83.8763 119.403 83.7749 119.403ZM71.5499 110.057L72.3346 111.126C74.9304 114.665 78.5999 117.217 82.986 118.543L79.8401 114.253C76.7054 113.422 73.904 111.997 71.5499 110.057Z" fill="#F9FAFB"/>
</g>
<path d="M116.029 87.7111C115.985 88.5125 115.899 89.3222 115.768 90.1458C113.6 103.739 100.411 114.761 86.318 114.761C85.1625 114.761 84.0388 114.688 82.95 114.544L88.1888 102.454H88.2805C95.1527 102.454 101.593 97.2125 102.915 90.65L116.029 87.7111Z" fill="#D0D5DD"/>
<path d="M86.3179 115.074C85.1582 115.074 84.011 115 82.9082 114.854C82.811 114.842 82.7249 114.783 82.6776 114.699C82.629 114.614 82.6235 114.51 82.6624 114.421L87.9012 102.331C87.9512 102.217 88.0637 102.142 88.1874 102.142H88.279C95.0082 102.142 101.301 97.0667 102.607 90.5889C102.632 90.4681 102.725 90.3722 102.844 90.3458L115.958 87.4069C116.054 87.3861 116.154 87.4097 116.229 87.4736C116.304 87.5375 116.344 87.6319 116.339 87.7292C116.294 88.5431 116.205 89.3722 116.073 90.1958C113.889 103.912 100.539 115.074 86.3179 115.074ZM83.4012 114.285C84.3499 114.393 85.329 114.449 86.3165 114.449C100.244 114.449 113.317 103.524 115.458 90.0958C115.564 89.4333 115.642 88.7667 115.69 88.1069L103.179 90.9111C101.737 97.5389 95.2971 102.71 88.3929 102.767L83.4012 114.285Z" fill="#F9FAFB"/>
<path d="M117.886 101.031C117.964 100.842 118.039 100.65 118.113 100.46C118.135 100.401 118.157 100.344 118.179 100.286C118.271 100.043 118.358 99.7986 118.442 99.5528C118.46 99.4986 118.478 99.4431 118.496 99.3889C118.563 99.1917 118.625 98.9945 118.688 98.7958C118.711 98.7208 118.733 98.6458 118.756 98.5708C118.819 98.3583 118.881 98.1458 118.938 97.9319C118.949 97.8917 118.961 97.85 118.971 97.8097C119.038 97.5583 119.1 97.3042 119.16 97.05C119.175 96.9833 119.19 96.9153 119.206 96.8472C119.25 96.6514 119.292 96.4542 119.332 96.2569C119.347 96.1819 119.363 96.1083 119.376 96.0333C119.426 95.775 119.472 95.5167 119.514 95.2556C119.644 94.4333 119.732 93.6222 119.775 92.8208L116.026 87.7111C115.982 88.5125 115.896 89.3222 115.765 90.1458C115.724 90.4056 115.676 90.6653 115.628 90.9236C115.614 90.9986 115.599 91.0722 115.583 91.1472C115.543 91.3445 115.501 91.5417 115.457 91.7375C115.442 91.8056 115.428 91.8722 115.411 91.9403C115.351 92.1944 115.289 92.4472 115.222 92.7C115.211 92.7403 115.2 92.7806 115.189 92.8222C115.131 93.0361 115.069 93.2486 115.007 93.4611C114.985 93.5361 114.961 93.6111 114.939 93.6861C114.878 93.8847 114.814 94.082 114.747 94.2792C114.729 94.3333 114.711 94.3889 114.693 94.4431C114.608 94.6889 114.521 94.9333 114.431 95.1764C114.408 95.2347 114.386 95.2917 114.364 95.35C114.29 95.5417 114.215 95.732 114.138 95.9208C114.108 95.9931 114.078 96.0653 114.049 96.1375C113.96 96.3486 113.869 96.5597 113.775 96.7681C113.761 96.7986 113.749 96.8292 113.735 96.8597C113.626 97.1 113.513 97.3375 113.397 97.575C113.365 97.6389 113.333 97.7028 113.301 97.7681C113.21 97.9514 113.117 98.1333 113.022 98.3153C112.989 98.3778 112.957 98.4417 112.922 98.5042C112.799 98.7361 112.671 98.9681 112.54 99.1972C112.522 99.2278 112.504 99.2583 112.488 99.2889C112.372 99.4903 112.254 99.6889 112.133 99.8875C112.088 99.9625 112.042 100.038 111.996 100.111C111.925 100.226 111.853 100.34 111.781 100.454C111.729 100.535 111.678 100.614 111.626 100.694C111.551 100.81 111.475 100.924 111.399 101.039C111.347 101.115 111.296 101.192 111.244 101.268C111.163 101.388 111.079 101.507 110.994 101.625C110.946 101.693 110.897 101.763 110.849 101.831C110.747 101.972 110.643 102.113 110.539 102.253C110.507 102.294 110.476 102.338 110.444 102.379C110.183 102.725 109.914 103.067 109.638 103.403C109.635 103.406 109.633 103.408 109.631 103.411C109.353 103.749 109.067 104.081 108.774 104.407C108.767 104.414 108.761 104.421 108.754 104.428C108.481 104.732 108.203 105.031 107.917 105.324C107.913 105.328 107.908 105.333 107.904 105.338C107.622 105.628 107.333 105.911 107.04 106.19C107.025 106.204 107.011 106.218 106.996 106.233C106.717 106.499 106.432 106.757 106.142 107.013C106.115 107.036 106.089 107.06 106.063 107.083C105.781 107.331 105.493 107.571 105.203 107.808C105.168 107.838 105.132 107.867 105.097 107.894C104.804 108.131 104.507 108.363 104.206 108.589C104.167 108.618 104.126 108.649 104.088 108.678C103.788 108.901 103.483 109.118 103.176 109.331C103.135 109.36 103.092 109.389 103.05 109.418C102.724 109.642 102.393 109.858 102.058 110.069C102.018 110.094 101.979 110.119 101.939 110.144C101.601 110.356 101.258 110.56 100.913 110.758C100.865 110.785 100.819 110.813 100.774 110.839C100.639 110.915 100.504 110.989 100.368 111.064C100.3 111.101 100.231 111.14 100.163 111.176C99.9736 111.278 99.782 111.378 99.5917 111.476C99.5764 111.485 99.5611 111.493 99.5459 111.501C99.3389 111.607 99.1292 111.71 98.9209 111.811C98.8556 111.843 98.7903 111.872 98.7236 111.904C98.5792 111.972 98.4334 112.04 98.2875 112.107C98.2236 112.136 98.1584 112.164 98.0945 112.193C97.9042 112.278 97.7139 112.361 97.5222 112.442C97.4514 112.472 97.3806 112.501 97.3098 112.531C97.0653 112.632 96.8195 112.731 96.5709 112.826C96.5681 112.828 96.5653 112.829 96.5625 112.829C96.3125 112.925 96.0611 113.017 95.8084 113.106C95.7361 113.131 95.6653 113.156 95.5931 113.181C95.3973 113.249 95.2 113.314 95.0028 113.378C94.9403 113.397 94.8778 113.418 94.8153 113.439C94.5167 113.533 94.2167 113.622 93.9139 113.706C93.8528 113.722 93.7903 113.739 93.7278 113.757C93.4181 113.842 93.1084 113.922 92.7959 113.996C92.7764 114 92.757 114.004 92.7389 114.008C92.4375 114.079 92.1334 114.144 91.8306 114.206C91.775 114.217 91.7181 114.229 91.6625 114.24C91.3542 114.3 91.0459 114.356 90.7361 114.406C90.6736 114.415 90.6125 114.425 90.55 114.435C90.2306 114.485 89.9097 114.531 89.5889 114.568C89.5778 114.569 89.5667 114.571 89.5556 114.572C89.2417 114.61 88.925 114.64 88.6097 114.667C88.55 114.672 88.4903 114.678 88.4306 114.682C88.1167 114.707 87.8028 114.725 87.4875 114.739C87.4264 114.742 87.3639 114.743 87.3028 114.746C86.975 114.758 86.6486 114.765 86.3195 114.765C85.1639 114.765 84.0403 114.692 82.9514 114.549L86.7 119.658C87.7903 119.803 88.9125 119.875 90.0681 119.875C90.3959 119.875 90.7236 119.867 91.0514 119.856C91.1125 119.853 91.175 119.851 91.2361 119.849C91.5514 119.835 91.8653 119.817 92.1792 119.792C92.2389 119.788 92.2986 119.782 92.3584 119.776C92.675 119.75 92.9903 119.719 93.3042 119.682C93.3153 119.681 93.3264 119.679 93.3375 119.678C93.6584 119.639 93.9792 119.593 94.2973 119.544C94.3598 119.535 94.4222 119.525 94.4847 119.515C94.7945 119.465 95.1028 119.41 95.4098 119.35C95.4667 119.339 95.5222 119.326 95.5792 119.315C95.882 119.254 96.1848 119.189 96.4861 119.118C96.5056 119.114 96.5264 119.11 96.5459 119.104C96.857 119.031 97.1681 118.949 97.4764 118.865C97.5389 118.849 97.6 118.832 97.6625 118.814C97.9639 118.729 98.2639 118.64 98.5625 118.547C98.5806 118.542 98.6 118.536 98.6181 118.531C98.6625 118.517 98.707 118.5 98.7528 118.486C98.95 118.422 99.1459 118.357 99.3417 118.29C99.4139 118.265 99.4861 118.24 99.5584 118.215C99.8111 118.126 100.063 118.035 100.313 117.939C100.317 117.938 100.321 117.936 100.325 117.935C100.571 117.84 100.815 117.742 101.06 117.64C101.131 117.611 101.203 117.581 101.274 117.55C101.464 117.469 101.654 117.388 101.843 117.303C101.886 117.283 101.929 117.267 101.971 117.247C101.993 117.238 102.015 117.226 102.038 117.215C102.182 117.15 102.326 117.082 102.469 117.014C102.536 116.982 102.603 116.951 102.669 116.919C102.879 116.818 103.088 116.715 103.294 116.61C103.31 116.601 103.325 116.593 103.34 116.586C103.532 116.488 103.722 116.389 103.913 116.286C103.982 116.249 104.05 116.211 104.118 116.174C104.254 116.1 104.389 116.025 104.524 115.949C104.547 115.935 104.571 115.924 104.593 115.91C104.617 115.896 104.639 115.882 104.663 115.868C105.008 115.669 105.35 115.465 105.688 115.254C105.728 115.229 105.768 115.203 105.808 115.178C106.143 114.967 106.474 114.75 106.799 114.528C106.817 114.515 106.835 114.504 106.853 114.493C106.878 114.476 106.901 114.457 106.926 114.44C107.233 114.228 107.538 114.011 107.838 113.788C107.878 113.758 107.917 113.728 107.956 113.699C108.257 113.472 108.554 113.242 108.847 113.004C108.86 112.994 108.874 112.983 108.888 112.974C108.91 112.956 108.931 112.936 108.954 112.918C109.244 112.681 109.532 112.44 109.814 112.193C109.84 112.169 109.867 112.146 109.893 112.122C110.182 111.868 110.467 111.608 110.746 111.344C110.75 111.34 110.754 111.336 110.76 111.332C110.771 111.322 110.781 111.311 110.792 111.301C111.085 111.022 111.374 110.739 111.656 110.449C111.66 110.444 111.664 110.439 111.669 110.435C111.954 110.142 112.233 109.843 112.507 109.54C112.511 109.535 112.517 109.531 112.521 109.525C112.522 109.524 112.524 109.521 112.525 109.519C112.818 109.193 113.104 108.861 113.382 108.524C113.385 108.521 113.386 108.518 113.389 108.515C113.665 108.179 113.935 107.839 114.196 107.492C114.199 107.489 114.201 107.486 114.203 107.482C114.232 107.443 114.26 107.404 114.289 107.365C114.393 107.225 114.497 107.085 114.6 106.942C114.649 106.874 114.696 106.806 114.744 106.738C114.829 106.618 114.913 106.499 114.996 106.378C115.047 106.303 115.099 106.226 115.15 106.15C115.226 106.036 115.303 105.921 115.379 105.806C115.431 105.726 115.482 105.646 115.533 105.565C115.606 105.451 115.678 105.338 115.749 105.224C115.776 105.179 115.804 105.136 115.831 105.093C115.85 105.063 115.867 105.031 115.886 105C116.007 104.801 116.125 104.603 116.24 104.401C116.258 104.371 116.276 104.34 116.293 104.31C116.424 104.081 116.55 103.85 116.675 103.617C116.708 103.554 116.742 103.49 116.775 103.428C116.869 103.246 116.963 103.064 117.054 102.881C117.086 102.817 117.118 102.753 117.15 102.688C117.265 102.45 117.378 102.213 117.488 101.972C117.49 101.967 117.493 101.961 117.496 101.956C117.507 101.931 117.517 101.906 117.528 101.881C117.622 101.671 117.713 101.461 117.801 101.25C117.828 101.175 117.857 101.103 117.886 101.031Z" fill="#D0D5DD"/>
<path d="M90.0652 120.183C88.9055 120.183 87.7583 120.11 86.6555 119.964C86.5708 119.953 86.4944 119.907 86.4444 119.839L82.6958 114.729C82.6222 114.628 82.6152 114.493 82.6791 114.385C82.743 114.276 82.8652 114.218 82.9888 114.235C84.0652 114.376 85.1861 114.449 86.3166 114.449C86.6083 114.449 86.9166 114.443 87.2888 114.429L87.4722 114.422C87.7833 114.408 88.0972 114.39 88.4041 114.367L88.5819 114.351C88.9249 114.322 89.2305 114.292 89.518 114.258C89.5194 114.258 89.5333 114.257 89.5347 114.257L89.5513 114.256C89.8361 114.221 90.1472 114.178 90.5013 114.124L90.6847 114.094C90.9916 114.044 91.2999 113.99 91.6013 113.931L91.768 113.897C92.0916 113.832 92.3861 113.768 92.6666 113.701L92.7236 113.689C93.0055 113.622 93.3069 113.544 93.6444 113.453L93.8277 113.403C94.1333 113.318 94.4333 113.228 94.7194 113.139L94.9055 113.079C95.1013 113.017 95.2958 112.951 95.4888 112.885L95.5027 112.881C95.5694 112.858 95.6361 112.835 95.7027 112.811C95.9888 112.71 96.2263 112.622 96.4499 112.538C96.6791 112.45 96.918 112.354 97.1888 112.242C97.2541 112.215 97.318 112.187 97.3833 112.16L97.3986 112.153C97.5888 112.072 97.7777 111.99 97.9652 111.907L98.0347 111.876C98.0749 111.858 98.1166 111.84 98.1569 111.822C98.3013 111.757 98.4458 111.689 98.5888 111.621L98.6708 111.582C98.7083 111.564 98.7458 111.547 98.7833 111.529C98.9902 111.429 99.1972 111.328 99.4027 111.222L99.4486 111.199C99.6388 111.101 99.8277 111.003 100.015 110.901C100.058 110.878 100.101 110.854 100.144 110.831L100.219 110.789C100.354 110.715 100.487 110.642 100.621 110.567L100.758 110.488C101.107 110.288 101.449 110.083 101.775 109.879L101.894 109.804C102.229 109.593 102.558 109.376 102.876 109.16L103.001 109.074C103.314 108.857 103.618 108.64 103.904 108.428L104.022 108.339C104.328 108.11 104.625 107.878 104.905 107.651L105.01 107.565C105.317 107.315 105.596 107.081 105.861 106.847L105.94 106.776C106.243 106.51 106.519 106.258 106.785 106.006L106.828 105.964C107.128 105.679 107.415 105.394 107.683 105.119L107.921 105.324L107.697 105.106C107.976 104.818 108.255 104.519 108.526 104.219C108.528 104.218 108.536 104.208 108.537 104.207C108.835 103.875 109.121 103.544 109.394 103.213C109.672 102.875 109.94 102.535 110.199 102.192L110.292 102.067C110.394 101.928 110.497 101.789 110.599 101.649C110.63 101.606 110.661 101.561 110.692 101.517L110.743 101.444C110.826 101.326 110.908 101.21 110.99 101.09C111.032 101.031 111.072 100.969 111.112 100.908L111.143 100.864C111.219 100.75 111.294 100.638 111.369 100.524C111.421 100.444 111.471 100.365 111.522 100.286C111.594 100.174 111.665 100.06 111.736 99.9472C111.782 99.8736 111.828 99.8 111.872 99.725C111.992 99.5292 112.108 99.3319 112.222 99.1333L112.275 99.0431C112.397 98.8292 112.521 98.6042 112.653 98.3583L112.751 98.1708C112.846 97.9917 112.937 97.8111 113.028 97.6306L113.122 97.4403C113.246 97.1875 113.354 96.9556 113.455 96.7333L113.496 96.6431C113.589 96.4361 113.679 96.2278 113.767 96.0194C113.796 95.9486 113.825 95.8778 113.854 95.8056C113.93 95.6181 114.005 95.4306 114.078 95.2403L114.104 95.1708C114.117 95.1375 114.13 95.1028 114.143 95.0694C114.233 94.8292 114.321 94.5847 114.403 94.3445L114.457 94.1819C114.522 93.9875 114.585 93.7917 114.646 93.5944C114.668 93.5208 114.692 93.4458 114.714 93.3722C114.776 93.1625 114.837 92.9514 114.894 92.7403L114.928 92.6194C114.992 92.3806 115.053 92.1361 115.115 91.8694C115.125 91.8264 115.135 91.7833 115.144 91.7403L115.16 91.6694C115.203 91.4764 115.244 91.2819 115.285 91.0861L115.294 91.0403C115.305 90.9819 115.318 90.9236 115.329 90.8653C115.385 90.5778 115.429 90.3278 115.465 90.0972C115.593 89.2958 115.679 88.4875 115.724 87.6958C115.73 87.5639 115.819 87.4514 115.946 87.4139C116.072 87.3764 116.208 87.4222 116.287 87.5292L120.036 92.6389C120.079 92.6972 120.1 92.7681 120.096 92.8403C120.051 93.6542 119.962 94.4847 119.831 95.3069C119.793 95.5431 119.747 95.8 119.692 96.0931C119.681 96.1514 119.668 96.2097 119.657 96.2681L119.647 96.3181C119.607 96.5181 119.564 96.7167 119.519 96.9153L119.504 96.9847C119.494 97.0292 119.485 97.075 119.474 97.1194C119.41 97.3931 119.347 97.6444 119.282 97.8889L119.247 98.0125C119.189 98.2292 119.126 98.4444 119.062 98.6597C119.04 98.7361 119.017 98.8111 118.993 98.8875C118.93 99.0889 118.867 99.2889 118.8 99.4875L118.744 99.6542C118.66 99.9 118.571 100.15 118.478 100.397C118.464 100.433 118.45 100.469 118.436 100.506L118.41 100.572C118.336 100.765 118.26 100.958 118.18 101.15C118.151 101.224 118.121 101.296 118.09 101.368C118 101.582 117.908 101.794 117.814 102.007L117.78 102.083C117.779 102.086 117.775 102.097 117.774 102.099C117.669 102.328 117.558 102.565 117.432 102.824L117.335 103.018C117.243 103.203 117.149 103.388 117.053 103.571L116.953 103.763C116.818 104.015 116.692 104.244 116.567 104.463L116.512 104.554C116.396 104.757 116.276 104.958 116.155 105.158L116.1 105.253C116.085 105.278 116.068 105.304 116.053 105.329L116.018 105.385C115.946 105.5 115.874 105.615 115.8 105.731C115.749 105.811 115.696 105.893 115.643 105.974C115.567 106.09 115.49 106.206 115.412 106.322L115.375 106.378C115.336 106.436 115.296 106.494 115.257 106.553C115.174 106.674 115.089 106.794 115.003 106.915L114.953 106.986C114.921 107.032 114.889 107.076 114.857 107.121C114.754 107.264 114.649 107.407 114.543 107.549L114.455 107.667C114.453 107.669 114.447 107.678 114.444 107.681C114.183 108.025 113.91 108.374 113.633 108.71C113.632 108.713 113.624 108.722 113.622 108.724C113.35 109.056 113.058 109.393 112.761 109.724L112.742 109.746C112.467 110.053 112.182 110.357 111.897 110.65L111.883 110.664C111.608 110.946 111.315 111.236 111.011 111.525L110.979 111.557C110.978 111.558 110.968 111.568 110.965 111.569C110.696 111.825 110.414 112.082 110.104 112.356L110.024 112.426C109.751 112.664 109.46 112.911 109.155 113.158L109.047 113.247C108.762 113.478 108.46 113.714 108.147 113.947L108.028 114.038C107.735 114.256 107.425 114.478 107.108 114.696L107.079 114.717C107.064 114.728 107.049 114.739 107.033 114.749C107.021 114.757 107.01 114.765 106.997 114.772L106.979 114.785C106.66 115.003 106.324 115.224 105.979 115.442L105.857 115.519C105.525 115.728 105.176 115.936 104.821 116.139L104.793 116.156C104.779 116.164 104.765 116.172 104.75 116.181L104.679 116.219C104.543 116.297 104.407 116.372 104.269 116.447L104.194 116.489C104.15 116.514 104.107 116.537 104.062 116.561C103.871 116.664 103.679 116.765 103.485 116.864L103.439 116.889C103.229 116.996 103.019 117.1 102.807 117.201C102.765 117.222 102.722 117.242 102.679 117.262L102.604 117.297C102.46 117.365 102.314 117.435 102.168 117.5L102.1 117.532C102.075 117.543 102.05 117.554 102.025 117.565L101.971 117.589C101.78 117.674 101.589 117.757 101.396 117.839L101.342 117.861C101.287 117.883 101.233 117.907 101.179 117.929C100.899 118.046 100.662 118.14 100.437 118.226C100.196 118.319 99.9458 118.411 99.6638 118.51C99.5986 118.533 99.5333 118.556 99.4666 118.578L99.4444 118.586C99.2472 118.654 99.0485 118.719 98.8499 118.785L98.7916 118.804C98.7652 118.813 98.7402 118.822 98.7138 118.831L98.6569 118.847C98.3666 118.939 98.0611 119.029 97.7472 119.117L97.5583 119.168C97.2124 119.263 96.9041 119.342 96.618 119.41L96.5583 119.424C96.2694 119.492 95.9694 119.557 95.6416 119.624L95.4694 119.658C95.168 119.718 94.8527 119.774 94.5347 119.825L94.3458 119.854C93.9861 119.91 93.6694 119.954 93.3749 119.989L93.3486 119.992C93.0472 120.028 92.7347 120.058 92.3847 120.088L92.2027 120.103C91.8888 120.128 91.568 120.146 91.2486 120.16L91.0611 120.167C90.6819 120.178 90.3666 120.183 90.0652 120.183ZM86.8694 119.361C87.9055 119.492 88.9791 119.558 90.0652 119.558C90.3583 119.558 90.6666 119.553 91.0374 119.539L91.2208 119.532C91.5319 119.518 91.8458 119.5 92.1527 119.476L92.3305 119.461C92.6736 119.432 92.9791 119.401 93.2666 119.368C93.268 119.368 93.2805 119.367 93.2819 119.367L93.2986 119.365C93.5861 119.331 93.8958 119.287 94.2486 119.233L94.4333 119.204C94.7458 119.154 95.0541 119.099 95.3486 119.04L95.5166 119.006C95.8374 118.94 96.1319 118.876 96.4124 118.811L96.4722 118.797C96.7499 118.731 97.0513 118.654 97.3916 118.561L97.5763 118.511C97.8833 118.425 98.1819 118.336 98.4666 118.247L98.5208 118.231C98.543 118.224 98.5652 118.217 98.5861 118.208L98.6541 118.186C98.8486 118.124 99.043 118.058 99.2361 117.992L99.2597 117.983C99.3236 117.961 99.3874 117.94 99.4513 117.917C99.7291 117.819 99.9722 117.729 100.197 117.643C100.429 117.554 100.66 117.461 100.936 117.347L101.147 117.258C101.336 117.179 101.524 117.097 101.711 117.014L101.775 116.986C101.796 116.976 101.817 116.968 101.839 116.958L101.907 116.926C102.049 116.861 102.192 116.794 102.333 116.728L102.411 116.692C102.451 116.672 102.492 116.654 102.532 116.635C102.74 116.535 102.946 116.433 103.151 116.328L103.197 116.303C103.386 116.206 103.575 116.107 103.762 116.006C103.804 115.983 103.847 115.96 103.889 115.936L103.967 115.893C104.101 115.819 104.235 115.746 104.368 115.671L104.464 115.617C104.478 115.608 104.492 115.6 104.507 115.592C104.854 115.392 105.196 115.188 105.522 114.985L105.642 114.91C105.979 114.697 106.31 114.481 106.622 114.265L106.749 114.178C107.06 113.963 107.362 113.746 107.651 113.532L107.768 113.443C108.074 113.214 108.371 112.982 108.651 112.756L108.755 112.669C109.054 112.426 109.34 112.185 109.607 111.951L109.686 111.882C109.99 111.614 110.267 111.363 110.53 111.111C110.532 111.11 110.54 111.103 110.543 111.1L110.575 111.068C110.874 110.785 111.161 110.5 111.43 110.224L111.447 110.207C111.724 109.922 112.003 109.625 112.272 109.324C112.275 109.321 112.282 109.313 112.285 109.31C112.582 108.978 112.868 108.647 113.14 108.315C113.418 107.978 113.687 107.638 113.946 107.294C113.947 107.292 113.953 107.286 113.954 107.283L114.037 107.169C114.142 107.031 114.244 106.892 114.344 106.751C114.375 106.708 114.405 106.665 114.436 106.622L114.487 106.549C114.571 106.431 114.654 106.313 114.736 106.193C114.775 106.136 114.812 106.079 114.851 106.024L114.889 105.968C114.965 105.854 115.04 105.742 115.115 105.626C115.167 105.547 115.218 105.468 115.268 105.389C115.34 105.276 115.411 105.164 115.48 105.05L115.617 104.828C115.735 104.632 115.851 104.435 115.967 104.236L116.019 104.146C116.14 103.933 116.264 103.708 116.397 103.461L116.496 103.274C116.59 103.094 116.682 102.914 116.772 102.733L116.867 102.543C116.99 102.29 117.099 102.058 117.2 101.836C117.201 101.833 117.205 101.824 117.207 101.821L117.24 101.746C117.333 101.539 117.424 101.331 117.511 101.122C117.54 101.051 117.569 100.981 117.599 100.908C117.675 100.721 117.75 100.533 117.822 100.344L117.849 100.275C117.861 100.242 117.875 100.207 117.887 100.174C117.978 99.9333 118.065 99.6889 118.147 99.4486L118.201 99.2861C118.267 99.0917 118.329 98.8958 118.39 98.6986C118.412 98.625 118.436 98.55 118.458 98.4764C118.521 98.2667 118.581 98.0569 118.639 97.8458L118.672 97.725C118.736 97.4875 118.797 97.2417 118.86 96.975L118.904 96.775C118.947 96.582 118.989 96.3875 119.029 96.1917L119.039 96.1403C119.05 96.0833 119.061 96.0278 119.072 95.9708C119.128 95.6847 119.172 95.4333 119.208 95.2028C119.33 94.4389 119.415 93.6694 119.46 92.9125L116.279 88.5764C116.23 89.1139 116.162 89.6542 116.076 90.1903C116.039 90.4264 115.993 90.6833 115.937 90.9764C115.926 91.0361 115.914 91.0972 115.901 91.1583L115.893 91.2028C115.853 91.4028 115.81 91.6014 115.765 91.8L115.75 91.8694C115.74 91.9153 115.729 91.9597 115.719 92.0056C115.655 92.2778 115.593 92.5292 115.528 92.775L115.493 92.8986C115.435 93.1153 115.372 93.3306 115.308 93.5458C115.286 93.6222 115.262 93.6972 115.239 93.7736C115.176 93.975 115.112 94.175 115.046 94.375L114.99 94.5417C114.905 94.7875 114.817 95.0375 114.724 95.2847C114.71 95.3208 114.696 95.3569 114.682 95.3931L114.655 95.4597C114.582 95.6528 114.505 95.8458 114.426 96.0375C114.397 96.1111 114.367 96.1833 114.336 96.2556C114.246 96.4694 114.154 96.6819 114.06 96.8944L114.019 96.9875C113.915 97.2153 113.804 97.4528 113.678 97.7111L113.581 97.9056C113.489 98.0903 113.394 98.275 113.299 98.4583L113.268 98.5167C113.244 98.5611 113.221 98.6056 113.197 98.65C113.062 98.9014 112.936 99.1306 112.811 99.35L112.757 99.4417C112.64 99.6444 112.521 99.8458 112.4 100.047C112.354 100.124 112.307 100.199 112.261 100.274C112.189 100.389 112.117 100.506 112.043 100.621C111.992 100.701 111.939 100.782 111.887 100.863C111.811 100.979 111.735 101.094 111.657 101.21L111.628 101.254C111.586 101.317 111.544 101.379 111.501 101.442C111.418 101.563 111.333 101.682 111.249 101.803L111.199 101.874C111.167 101.919 111.135 101.965 111.101 102.011C110.999 102.154 110.893 102.296 110.787 102.437L110.693 102.565C110.429 102.915 110.155 103.262 109.878 103.599C109.876 103.6 109.868 103.61 109.867 103.611C109.592 103.944 109.3 104.283 109.004 104.613L108.99 104.628C108.71 104.94 108.425 105.244 108.14 105.538C108.14 105.538 108.128 105.551 108.126 105.551C107.853 105.832 107.56 106.122 107.254 106.412L107.21 106.456C106.939 106.712 106.657 106.969 106.349 107.242L106.268 107.313C105.996 107.55 105.712 107.79 105.4 108.044L105.293 108.132C105.007 108.362 104.704 108.599 104.392 108.833L104.272 108.924C103.98 109.14 103.671 109.363 103.353 109.583L103.225 109.672C102.901 109.893 102.565 110.115 102.224 110.329L102.103 110.406C101.771 110.614 101.422 110.822 101.067 111.026L100.926 111.107C100.79 111.183 100.654 111.26 100.517 111.335L100.444 111.375C100.399 111.4 100.354 111.425 100.308 111.45C100.117 111.553 99.9249 111.654 99.7305 111.753L99.6833 111.778C99.4735 111.885 99.2638 111.989 99.0513 112.09C99.0111 112.11 98.9722 112.128 98.9319 112.147L98.8527 112.185C98.7055 112.254 98.5597 112.324 98.4124 112.39C98.3708 112.41 98.3277 112.428 98.2847 112.447L98.2166 112.478C98.0249 112.564 97.8319 112.647 97.6388 112.729L97.6236 112.736C97.5569 112.764 97.4916 112.792 97.4249 112.819C97.1486 112.933 96.9041 113.032 96.6791 113.118C96.443 113.208 96.2013 113.297 95.9083 113.4C95.8402 113.424 95.7722 113.447 95.7041 113.471L95.6944 113.472C95.4972 113.54 95.2972 113.607 95.0986 113.671L94.9097 113.732C94.6166 113.824 94.3097 113.915 93.9986 114.001L93.8111 114.053C93.4666 114.147 93.1597 114.226 92.8694 114.294L92.8111 114.307C92.5236 114.375 92.2222 114.44 91.893 114.507L91.7236 114.542C91.4152 114.601 91.1013 114.658 90.7861 114.708L90.5986 114.737C90.2374 114.793 89.9194 114.838 89.6263 114.872L89.5999 114.875C89.2986 114.911 88.9861 114.942 88.6361 114.971L88.4541 114.986C88.1402 115.011 87.8194 115.029 87.4999 115.043L87.3124 115.05C86.9333 115.064 86.618 115.069 86.318 115.069C85.4083 115.069 84.5055 115.024 83.6263 114.933L86.8694 119.361Z" fill="#F9FAFB"/>
<path d="M87.2734 66.4014L88.1276 78.4486C83.8179 79.7458 80.1151 82.9958 78.379 87.0583C77.9929 87.9597 77.7054 88.9028 77.529 89.8722C77.5123 89.9639 77.497 90.0556 77.4818 90.1458C76.5651 95.8903 79.8776 100.721 85.1832 102.076L80.0262 113.981C69.4707 111.233 62.8915 101.603 64.7193 90.1458C64.7332 90.0542 64.7484 89.9625 64.7651 89.8722C66.329 80.7139 72.8846 72.757 81.3234 68.6014C83.2221 67.6639 85.2179 66.9222 87.2734 66.4014Z" fill="#D0D5DD"/>
<path d="M80.0263 114.292C79.9999 114.292 79.9735 114.289 79.9471 114.282C68.9832 111.428 62.5943 101.482 64.4096 90.0958C64.4249 90.0028 64.4402 89.9111 64.4554 89.8181C65.9804 80.8875 72.3902 72.65 81.1832 68.3194C83.1221 67.3639 85.1457 66.6167 87.1957 66.0986C87.286 66.0764 87.3804 66.0944 87.4554 66.1486C87.5304 66.2028 87.5777 66.2875 87.5846 66.3792L88.4388 78.4264C88.4485 78.5722 88.3568 78.7056 88.2166 78.7472C84.0068 80.0139 80.3471 83.2458 78.6652 87.1806C78.2832 88.0736 78.0041 88.9986 77.8346 89.9278C77.8179 90.0167 77.8027 90.1056 77.7888 90.1958C76.9166 95.6667 79.9888 100.428 85.2596 101.774C85.3485 101.796 85.4221 101.857 85.4624 101.939C85.5027 102.021 85.5054 102.117 85.4679 102.201L80.311 114.106C80.2624 114.221 80.1485 114.292 80.0263 114.292ZM86.9874 66.7986C85.1041 67.3014 83.2457 68.0014 81.4596 68.8806C72.843 73.1236 66.5638 81.1875 65.0721 89.9236C65.0568 90.0139 65.0416 90.1042 65.0277 90.1944C63.2791 101.161 69.3638 110.75 79.8471 113.608L84.7527 102.282C79.3721 100.733 76.2666 95.775 77.1721 90.0958C77.1874 90.0028 77.2027 89.9083 77.2207 89.8153C77.3985 88.8403 77.6916 87.8708 78.0916 86.9347C79.8124 82.9083 83.5166 79.5903 87.7985 78.2236L86.9874 66.7986Z" fill="#F9FAFB"/>
<path d="M101.196 82.1166L104.944 87.2264C103.262 84.9333 100.6 83.375 97.3678 83.0222C96.908 82.9722 96.4358 82.9458 95.9539 82.9458C95.6261 82.9458 95.2955 82.9569 94.9705 82.9819L91.2219 77.8722C91.5469 77.8486 91.8775 77.8361 92.2053 77.8361C92.6872 77.8361 93.158 77.8611 93.6191 77.9125C96.8511 78.2653 99.5136 79.8222 101.196 82.1166Z" fill="#D0D5DD"/>
<path d="M104.944 87.5389C104.848 87.5389 104.753 87.4944 104.691 87.4111L104.69 87.4097C103.007 85.1153 100.394 83.668 97.3331 83.3333C96.572 83.25 95.7637 83.2375 94.9929 83.2944C94.8859 83.3014 94.7817 83.2541 94.7178 83.168L90.9692 78.0583C90.9026 77.9666 90.8901 77.8458 90.9373 77.743C90.9845 77.6403 91.0845 77.5708 91.1984 77.5625C92.0067 77.5041 92.8526 77.5166 93.6512 77.6041C96.8887 77.9569 99.6567 79.4944 101.446 81.9333L105.194 87.043C105.296 87.1819 105.266 87.3778 105.128 87.4805C105.073 87.5194 105.008 87.5389 104.944 87.5389ZM95.954 82.6333C96.4415 82.6333 96.929 82.6597 97.4012 82.7111C99.3373 82.9222 101.105 83.5569 102.597 84.5555L100.943 82.3C99.2595 80.0041 96.6456 78.5555 93.5845 78.2222C93.0095 78.1597 92.4095 78.1361 91.8165 78.1541L95.1206 82.6583C95.397 82.6416 95.6762 82.6333 95.954 82.6333Z" fill="#F9FAFB"/>
<mask id="mask2_8802_26787" style="mask-type:luminance" maskUnits="userSpaceOnUse" x="91" y="77" width="14" height="11">
<mask id="mask3_8802_26787" style="mask-type:luminance" maskUnits="userSpaceOnUse" x="91" y="77" width="14" height="11">
<path d="M101.196 82.1166L104.944 87.2264C103.262 84.9333 100.6 83.375 97.3678 83.0222C96.908 82.9722 96.4358 82.9458 95.9539 82.9458C95.6261 82.9458 95.2955 82.9569 94.9705 82.9819L91.2219 77.8722C91.5469 77.8486 91.8775 77.8361 92.2053 77.8361C92.6872 77.8361 93.158 77.8611 93.6191 77.9125C96.8511 78.2653 99.5136 79.8222 101.196 82.1166Z" fill="white"/>
</mask>
<g mask="url(#mask3_8802_26787)">
<path d="M104.944 87.5389C104.848 87.5389 104.753 87.4944 104.691 87.4111L104.69 87.4097C103.007 85.1153 100.394 83.668 97.3331 83.3333C96.572 83.25 95.7637 83.2375 94.9929 83.2944C94.8859 83.3014 94.7817 83.2541 94.7178 83.168L90.9692 78.0583C90.9026 77.9666 90.8901 77.8458 90.9373 77.743C90.9845 77.6403 91.0845 77.5708 91.1984 77.5625C92.0067 77.5041 92.8526 77.5166 93.6512 77.6041C96.8887 77.9569 99.6567 79.4944 101.446 81.9333L105.194 87.043C105.296 87.1819 105.266 87.3778 105.128 87.4805C105.073 87.5194 105.008 87.5389 104.944 87.5389ZM95.954 82.6333C96.4415 82.6333 96.929 82.6597 97.4012 82.7111C99.3373 82.9222 101.105 83.5569 102.597 84.5555L100.943 82.3C99.2595 80.0041 96.6456 78.5555 93.5845 78.2222C93.0095 78.1597 92.4095 78.1361 91.8165 78.1541L95.1206 82.6583C95.397 82.6416 95.6762 82.6333 95.954 82.6333Z" fill="white"/>
</g>
</mask>
<g mask="url(#mask2_8802_26787)">
<path d="M101.196 82.1166L104.944 87.2264C103.262 84.9333 100.6 83.375 97.3678 83.0222C96.908 82.9722 96.4358 82.9458 95.9539 82.9458C95.6261 82.9458 95.2955 82.9569 94.9705 82.9819L91.2219 77.8722C91.5469 77.8486 91.8775 77.8361 92.2053 77.8361C92.6872 77.8361 93.158 77.8611 93.6191 77.9125C96.8511 78.2653 99.5136 79.8222 101.196 82.1166Z" fill="#D0D5DD"/>
<path d="M104.944 87.5389C104.848 87.5389 104.753 87.4944 104.691 87.4111L104.69 87.4097C103.007 85.1153 100.394 83.668 97.3331 83.3333C96.572 83.25 95.7637 83.2375 94.9929 83.2944C94.8859 83.3014 94.7817 83.2541 94.7178 83.168L90.9692 78.0583C90.9026 77.9666 90.8901 77.8458 90.9373 77.743C90.9845 77.6403 91.0845 77.5708 91.1984 77.5625C92.0067 77.5041 92.8526 77.5166 93.6512 77.6041C96.8887 77.9569 99.6567 79.4944 101.446 81.9333L105.194 87.043C105.296 87.1819 105.266 87.3778 105.128 87.4805C105.073 87.5194 105.008 87.5389 104.944 87.5389ZM95.954 82.6333C96.4415 82.6333 96.929 82.6597 97.4012 82.7111C99.3373 82.9222 101.105 83.5569 102.597 84.5555L100.943 82.3C99.2595 80.0041 96.6456 78.5555 93.5845 78.2222C93.0095 78.1597 92.4095 78.1361 91.8165 78.1541L95.1206 82.6583C95.397 82.6416 95.6762 82.6333 95.954 82.6333Z" fill="#F9FAFB"/>
</g>
<path d="M94.1692 65.5277C94.6469 65.5277 95.1205 65.5402 95.5886 65.5652C107.04 66.1777 115.265 74.1972 116.015 84.7833L103.139 87.6694C102.872 82.4972 99.0483 78.5041 93.6192 77.9125C93.1594 77.8625 92.6872 77.8361 92.2053 77.8361C91.8775 77.8361 91.5469 77.8472 91.2219 77.8722L90.365 65.7944C91.6205 65.618 92.8914 65.5277 94.1692 65.5277Z" fill="#98A2B3"/>
<path d="M103.139 87.9819C103.071 87.9819 103.004 87.9597 102.95 87.918C102.876 87.8625 102.832 87.7778 102.826 87.6847C102.564 82.5986 98.8498 78.7958 93.5859 78.2222C92.8248 78.1389 92.0164 78.1264 91.2456 78.1833C91.1623 78.1889 91.0803 78.1625 91.0178 78.1083C90.9553 78.0541 90.9165 77.9764 90.9109 77.8944L90.054 65.8166C90.0428 65.6528 90.1595 65.5083 90.322 65.4847C92.0803 65.2389 93.8734 65.1611 95.6053 65.2541C107.035 65.8666 115.557 73.8889 116.326 84.7625C116.337 84.9166 116.233 85.0555 116.083 85.0889L103.207 87.975C103.185 87.9791 103.161 87.9819 103.139 87.9819ZM92.2067 77.5236C92.6942 77.5236 93.1817 77.55 93.654 77.6014C96.3817 77.8986 98.7623 79.025 100.539 80.8555C102.225 82.593 103.218 84.8097 103.425 87.2847L115.682 84.5375C114.814 74.1236 106.582 66.4666 95.5706 65.8764C93.9734 65.7902 92.322 65.8541 90.697 66.0639L91.5109 77.5402C91.7428 77.5291 91.9748 77.5236 92.2067 77.5236Z" fill="#F9FAFB"/>
<path d="M118.651 31.2917C117.362 29.8222 115.482 29.0875 113.483 29.0875C111.486 29.0875 109.371 29.8222 107.612 31.2917C105.853 32.7625 104.783 34.6903 104.475 36.6167C104.167 38.5444 104.622 40.4708 105.911 41.9403C107.201 43.4111 109.08 44.1444 111.078 44.1444C113.076 44.1444 115.193 43.4083 116.953 41.9375C118.711 40.4681 119.78 38.5417 120.087 36.6153C120.396 34.6889 119.942 32.7625 118.651 31.2917Z" fill="#F9FAFB"/>
<path d="M111.032 35.2042C111.337 35.2042 111.626 35.3167 111.826 35.5417C112.22 35.9917 112.104 36.7208 111.566 37.1694C111.295 37.3944 110.97 37.5069 110.665 37.5069C110.359 37.5069 110.072 37.3944 109.875 37.1694C109.48 36.7194 109.597 35.9903 110.134 35.5417C110.402 35.3167 110.725 35.2042 111.032 35.2042Z" fill="#F9FAFB"/>
<path d="M109.008 32.5625C109.604 32.5625 110.164 32.7819 110.548 33.2194C111.316 34.0944 111.09 35.5139 110.043 36.3889C109.518 36.8278 108.887 37.0472 108.291 37.0472C107.697 37.0472 107.137 36.8278 106.753 36.3903C105.985 35.5153 106.211 34.0944 107.258 33.2181C107.783 32.7806 108.412 32.5625 109.008 32.5625Z" fill="#F9FAFB"/>
<path d="M121.686 28.7542C125.118 32.6639 124.548 38.7625 120.609 43.1069L120.358 42.8208C120.05 42.4708 119.601 42.2958 119.125 42.2958C118.648 42.2958 118.144 42.4708 117.725 42.8208C116.887 43.5236 116.705 44.6583 117.319 45.3611L117.571 45.6472C115.344 47.0389 112.871 47.7361 110.508 47.7361C107.558 47.7361 104.78 46.65 102.875 44.4778C99.0637 40.1333 100.186 33.0944 105.383 28.7514C107.979 26.5805 111.101 25.4958 114.051 25.4958C117.003 25.4958 119.78 26.5819 121.686 28.7542ZM116.953 41.9375C118.711 40.468 119.78 38.5417 120.087 36.6153C120.394 34.6889 119.94 32.7625 118.65 31.2917C117.361 29.8222 115.48 29.0875 113.482 29.0875C111.483 29.0875 109.369 29.8222 107.611 31.2917C105.851 32.7625 104.782 34.6903 104.473 36.6167C104.165 38.5444 104.621 40.4708 105.909 41.9403C107.2 43.4111 109.079 44.1444 111.076 44.1444C113.076 44.1458 115.193 43.4097 116.953 41.9375Z" fill="#D0D5DD"/>
<path d="M119.126 42.2972C119.603 42.2972 120.051 42.4722 120.36 42.8222L120.611 43.1083L125.758 48.9778C126.372 49.6778 126.191 50.8153 125.354 51.5153C124.936 51.8653 124.43 52.0403 123.955 52.0403C123.479 52.0403 123.03 51.8653 122.723 51.5153L117.573 45.6486L117.322 45.3625C116.708 44.6597 116.889 43.525 117.728 42.8222C118.146 42.4722 118.65 42.2972 119.126 42.2972Z" fill="#D0D5DD"/>
</svg>
