<svg width="150" height="150" viewBox="0 0 150 150" fill="none" xmlns="http://www.w3.org/2000/svg">
<path d="M75 128.201C103.319 128.201 126.276 119.195 126.276 108.086C126.276 96.9767 103.319 87.9708 75 87.9708C46.6809 87.9708 23.7236 96.9767 23.7236 108.086C23.7236 119.195 46.6809 128.201 75 128.201Z" fill="#FFECE5"/>
<path d="M37.4527 63.7597L24.3208 73.0805C24.3208 73.0805 34.393 88.8208 44.2875 92.8041L54.3583 84.1889C54.3597 84.1889 42.8027 76.143 37.4527 63.7597Z" fill="#FFECE5"/>
<path d="M88.1013 111.849L89.0944 118.61C89.0944 118.61 98.7583 119.029 102.851 115.463L101.272 108.904C101.272 108.904 94.9527 112.285 88.1013 111.849Z" fill="#FFECE5"/>
<path d="M115.146 65.1958L125.679 57.1319C125.679 57.1319 116.072 40.6875 106.169 37.6361L97.1194 46.7944C97.1194 46.7944 108.961 53.6431 115.146 65.1958Z" fill="#FFECE5"/>
<path d="M50.8223 91.7361C49.7514 93.9194 48.8848 96.0486 48.2348 98.0722L43.5042 106.886L38.4542 91.7361H50.8223Z" fill="#F77A4A"/>
<path d="M43.5042 107.199C43.4958 107.199 43.4861 107.199 43.4778 107.197C43.3542 107.186 43.2472 107.103 43.2083 106.985L38.1583 91.8347C38.1264 91.7389 38.1431 91.6347 38.2014 91.5527C38.2597 91.4708 38.3542 91.4236 38.4556 91.4236H50.8236C50.9319 91.4236 51.0319 91.4791 51.0889 91.5708C51.1458 91.6625 51.1514 91.7764 51.1042 91.8736C50.0486 94.025 49.1847 96.143 48.5333 98.168C48.5278 98.1861 48.5194 98.2041 48.5111 98.2208L43.7806 107.035C43.725 107.136 43.6181 107.199 43.5042 107.199ZM38.8889 92.0486L43.5722 106.1L47.9472 97.95C48.5597 96.0458 49.3583 94.0639 50.325 92.0486H38.8889Z" fill="#FFECE5"/>
<path d="M46.8055 106.888H43.5042V106.886L48.2347 98.0723C47.1833 101.353 46.6944 104.36 46.8055 106.888Z" fill="#FCD2C2"/>
<path d="M46.8055 107.2H43.5042C43.3319 107.2 43.1917 107.06 43.1917 106.888C43.1917 106.836 43.2041 106.783 43.2291 106.738L47.9597 97.9236C48.0361 97.7806 48.2083 97.7208 48.3569 97.7833C48.5055 97.8458 48.5819 98.0125 48.5319 98.1667C47.4833 101.44 47.0069 104.369 47.118 106.874C47.1222 106.958 47.0903 107.042 47.0319 107.103C46.9722 107.165 46.8916 107.2 46.8055 107.2ZM44.025 106.575H46.4819C46.4389 104.804 46.6708 102.842 47.1722 100.71L44.025 106.575Z" fill="#FFECE5"/>
<path d="M50.3916 106.51L50.3124 106.782C49.9083 108.16 49.6041 109.499 49.4069 110.763L49.3846 110.907L49.4652 111.029C49.918 111.719 50.4916 112.264 51.1708 112.644L51.6846 112.933L51.7346 112.347C51.8735 110.721 52.2402 108.921 52.8221 107L52.9708 106.511H50.3916V106.51Z" fill="#F77A4A"/>
<path d="M51.6819 113.246C51.6291 113.246 51.5764 113.232 51.5291 113.206L51.0152 112.917C50.293 112.51 49.6833 111.932 49.2027 111.2L49.1222 111.078C49.0791 111.013 49.0625 110.935 49.075 110.858L49.0972 110.714C49.2958 109.438 49.6041 108.085 50.0125 106.694L50.0916 106.422C50.1305 106.289 50.2527 106.197 50.3916 106.197H52.968C53.0666 106.197 53.1597 106.244 53.2194 106.324C53.2777 106.403 53.2958 106.506 53.268 106.6L53.1194 107.089C52.543 108.99 52.1819 110.768 52.0444 112.372L51.9944 112.96C51.9847 113.065 51.9236 113.16 51.8291 113.21C51.7819 113.233 51.7319 113.246 51.6819 113.246ZM49.7111 110.836L49.725 110.857C50.15 111.506 50.6875 112.015 51.3222 112.372L51.4125 112.424L51.4208 112.321C51.5625 110.672 51.9319 108.851 52.5208 106.91L52.5472 106.824H50.6264L50.6125 106.871C50.2125 108.236 49.9097 109.561 49.7152 110.811L49.7111 110.836Z" fill="#FFECE5"/>
<path d="M52.693 91.7361H78.8138C75.5985 97.2403 71.461 102.351 67.0055 106.292C66.7763 106.494 66.5471 106.694 66.318 106.889H52.4569H50.6763H48.6055C48.3207 102.968 49.7471 97.5778 52.693 91.7361Z" fill="#FCD2C2"/>
<path d="M66.318 107.201H48.6055C48.4416 107.201 48.3055 107.075 48.2944 106.911C48.0013 102.885 49.4652 97.4445 52.4152 91.5945C52.468 91.4889 52.5763 91.4222 52.6944 91.4222H78.8152C78.9277 91.4222 79.0305 91.482 79.0861 91.5792C79.1416 91.6764 79.1416 91.7959 79.0847 91.8917C75.8638 97.4042 71.6486 102.601 67.2138 106.524C66.9833 106.728 66.7499 106.931 66.5208 107.125C66.4638 107.175 66.3916 107.201 66.318 107.201ZM48.8986 106.576H66.2027C66.3999 106.408 66.5999 106.235 66.7986 106.058C71.0583 102.29 75.1166 97.3306 78.2666 92.0486H52.8861C50.1138 97.5931 48.7055 102.729 48.8986 106.576Z" fill="#FFECE5"/>
<path d="M76.4027 106.51L76.2888 106.654C74.1513 109.36 71.8596 111.801 69.4749 113.91C64.7596 118.082 60.1291 120.475 56.7694 120.475C54.8749 120.475 53.4846 119.718 52.6388 118.226C52.0541 117.195 51.7305 115.864 51.6763 114.271L51.6666 114.01L51.4194 113.925C50.8069 113.715 50.2485 113.414 49.7596 113.029L49.1763 112.57L49.1457 113.311C49.0402 115.864 49.4499 117.974 50.3624 119.586C51.611 121.788 53.7319 122.95 56.4944 122.95C60.5874 122.95 65.7707 120.358 71.0902 115.65C73.6694 113.367 76.1416 110.721 78.4346 107.79C78.5638 107.626 78.6902 107.463 78.8166 107.297L79.4249 106.508H76.4027V106.51Z" fill="#F77A4A"/>
<path d="M56.4958 123.263C53.6138 123.263 51.3999 122.044 50.093 119.74C49.1499 118.076 48.7277 115.91 48.8361 113.299L48.8666 112.557C48.8722 112.44 48.9416 112.335 49.0486 112.286C49.1555 112.238 49.2805 112.251 49.3722 112.325L49.9555 112.785C50.4152 113.147 50.943 113.432 51.5222 113.631L51.7694 113.715C51.8916 113.757 51.9763 113.871 51.9805 114L51.9902 114.261C52.043 115.804 52.3541 117.086 52.9124 118.074C53.6986 119.461 54.9972 120.164 56.7708 120.164C60.0555 120.164 64.6111 117.8 69.2694 113.676C71.6388 111.581 73.9194 109.153 76.0458 106.461L76.1597 106.317C76.2194 106.242 76.3097 106.197 76.4055 106.197H79.4291C79.5486 106.197 79.6569 106.265 79.7097 106.372C79.7624 106.479 79.7499 106.607 79.6763 106.701L79.068 107.49C78.9388 107.658 78.8124 107.824 78.6833 107.986C76.3777 110.932 73.893 113.59 71.2999 115.886C65.9222 120.643 60.6638 123.263 56.4958 123.263ZM49.4652 113.194L49.4597 113.325C49.3555 115.818 49.7513 117.872 50.6361 119.432C51.8263 121.529 53.8527 122.638 56.4958 122.638C60.5124 122.638 65.6222 120.074 70.8847 115.417C73.4499 113.146 75.9083 110.515 78.1902 107.599C78.318 107.436 78.4444 107.274 78.5694 107.11L78.7916 106.821H76.5541L76.5347 106.846C74.3861 109.567 72.0805 112.022 69.6819 114.142C64.9111 118.364 60.2041 120.785 56.7694 120.785C54.7541 120.785 53.2736 119.975 52.368 118.378C51.7583 117.303 51.4208 115.924 51.3638 114.279L51.3624 114.233L51.3194 114.218C50.6722 113.997 50.0833 113.679 49.568 113.272L49.4652 113.194Z" fill="#FFECE5"/>
<path d="M95.2916 106.753L95.3694 106.781V106.782L95.3708 106.781L95.4499 106.81L95.393 106.917L95.3152 106.889L95.2333 106.858L95.2916 106.753Z" fill="black"/>
<path d="M95.393 107.229C95.3583 107.229 95.3222 107.224 95.2875 107.211L95.1278 107.154C95.0416 107.124 94.975 107.057 94.9416 106.972C94.9083 106.887 94.9153 106.793 94.9583 106.712L95.0153 106.606C95.0889 106.469 95.25 106.407 95.3958 106.458L95.4736 106.486C95.475 106.486 95.4764 106.487 95.4791 106.487L95.5555 106.515C95.6416 106.546 95.7083 106.612 95.7417 106.697C95.775 106.782 95.768 106.876 95.725 106.957L95.668 107.064C95.6125 107.168 95.5055 107.229 95.393 107.229Z" fill="#FFECE5"/>
<path d="M112.003 51.4167L117.018 66.4611L95.3708 106.781L90.3583 91.7361L103.868 66.5695L112.003 51.4167Z" fill="#F56630"/>
<path d="M95.3708 107.093C95.3625 107.093 95.3528 107.093 95.3444 107.092C95.2208 107.081 95.1139 106.997 95.075 106.879L90.0639 91.8333C90.0361 91.7514 90.0444 91.6625 90.0847 91.5861L111.729 51.2667C111.789 51.1569 111.908 51.0931 112.031 51.1028C112.154 51.1139 112.261 51.1972 112.3 51.3153L117.314 66.3597C117.342 66.4417 117.333 66.5306 117.293 66.6069L95.6458 106.926C95.5903 107.031 95.4847 107.093 95.3708 107.093ZM90.6972 91.7653L95.4375 105.994L116.678 66.4319L111.935 52.2028L90.6972 91.7653Z" fill="#FFECE5"/>
<path d="M95.2903 106.751L95.3694 106.779L90.3583 91.7361H80.7319C77.5083 97.4111 73.3111 102.724 68.7611 106.888H82.2236H95.3153L95.2333 106.86L95.2903 106.751Z" fill="#FCD2C2"/>
<path d="M95.3153 107.2H68.7611C68.6319 107.2 68.5166 107.121 68.4694 107C68.4222 106.879 68.4541 106.743 68.55 106.657C73.043 102.546 77.2736 97.1917 80.4611 91.5806C80.5166 91.4834 80.6208 91.4222 80.7333 91.4222H90.3597C90.4944 91.4222 90.6139 91.5084 90.6555 91.6361L95.6666 106.681C95.7 106.781 95.6805 106.89 95.6153 106.972C95.5791 107.106 95.4569 107.2 95.3153 107.2ZM69.5555 106.575H94.9722L90.1333 92.0486H80.9139C77.8444 97.4125 73.8361 102.538 69.5555 106.575Z" fill="#FFECE5"/>
<path d="M78.5958 91.3569L78.4861 91.5444C75.3013 96.9958 71.1361 102.132 66.7541 106.008C66.5263 106.21 66.2986 106.407 66.0722 106.6C61.6069 110.396 57.225 112.574 54.0514 112.574C53.0805 112.574 52.2361 112.375 51.5402 111.985C50.968 111.664 50.4833 111.203 50.0972 110.614C50.0361 110.521 49.9777 110.425 49.9208 110.325C49.3986 109.404 49.0833 108.239 48.9833 106.862C48.7 102.958 50.1375 97.6472 53.0319 91.9083L53.3097 91.3583H50.5875L50.4833 91.5708C47.6847 97.2778 46.2444 102.724 46.4291 106.907C46.5125 108.799 46.9222 110.407 47.6472 111.686C48.0847 112.458 48.6388 113.111 49.293 113.628C49.8486 114.065 50.4819 114.408 51.1763 114.646C51.9652 114.915 52.8402 115.051 53.7791 115.051C57.8722 115.051 63.0555 112.46 68.3736 107.751C68.5902 107.56 68.8041 107.367 69.0194 107.171C73.5625 103.012 77.8402 97.5972 81.0652 91.9264L81.3875 91.3597H78.5958V91.3569Z" fill="#FA9874"/>
<path d="M53.7778 115.361C52.8056 115.361 51.8958 115.219 51.075 114.939C50.3472 114.69 49.6833 114.331 49.0986 113.871C48.4125 113.329 47.832 112.646 47.3736 111.839C46.625 110.517 46.2014 108.861 46.1153 106.919C45.9292 102.685 47.3792 97.1847 50.2014 91.4319L50.3056 91.2194C50.3583 91.1125 50.4667 91.0444 50.5861 91.0444H53.3083C53.4167 91.0444 53.5181 91.1014 53.575 91.193C53.632 91.2861 53.6361 91.4014 53.5875 91.4972L53.3097 92.0472C50.4403 97.7375 49.0139 102.99 49.2945 106.839C49.3903 108.168 49.6931 109.289 50.1917 110.171C50.2431 110.261 50.2986 110.353 50.3583 110.443C50.7167 110.987 51.1653 111.415 51.6931 111.711C52.3417 112.075 53.1347 112.261 54.0514 112.261C57.1528 112.261 61.4611 110.111 65.8708 106.362C66.0958 106.171 66.3222 105.975 66.5486 105.775C70.9056 101.921 75.05 96.8111 78.2181 91.3875L78.3278 91.2C78.3834 91.1042 78.4861 91.0444 78.5972 91.0444H81.3847C81.4958 91.0444 81.5986 91.1042 81.6542 91.2C81.7097 91.2958 81.7111 91.4153 81.6556 91.5111L81.3333 92.0778C78.0945 97.7778 73.7945 103.218 69.2278 107.399C69.0111 107.596 68.7958 107.79 68.5778 107.983C63.2028 112.74 57.9472 115.361 53.7778 115.361ZM50.7806 91.6694L50.7625 91.7069C47.9861 97.3666 46.5583 102.76 46.7403 106.892C46.8208 108.733 47.2181 110.294 47.9181 111.531C48.3361 112.267 48.8625 112.89 49.4861 113.381C50.0139 113.797 50.6167 114.122 51.2778 114.347C52.0333 114.606 52.875 114.736 53.7792 114.736C57.7958 114.736 62.9056 112.172 68.1667 107.515C68.382 107.325 68.5945 107.133 68.8084 106.937C73.3292 102.8 77.5847 97.4125 80.7931 91.768L80.85 91.668H78.7778L78.7583 91.7014C75.5583 97.1805 71.3695 102.344 66.9639 106.242C66.7347 106.444 66.5056 106.643 66.2764 106.837C61.7556 110.681 57.3 112.885 54.0528 112.885C53.0278 112.885 52.132 112.672 51.3889 112.256C50.7736 111.91 50.2514 111.414 49.8375 110.785C49.7708 110.683 49.7083 110.581 49.65 110.478C49.1042 109.515 48.7764 108.307 48.6722 106.883C48.3847 102.924 49.8333 97.5542 52.7528 91.7653L52.8014 91.668H50.7806V91.6694Z" fill="#FFECE5"/>
<path d="M112.003 51.4167L103.868 66.5695L90.3583 91.7361H80.7333H78.8139H52.6931H50.8222H38.4556L60.1014 51.4167H112.003Z" fill="#FA9874"/>
<path d="M90.3584 92.0487H38.4556C38.3459 92.0487 38.2445 91.9903 38.1875 91.8959C38.1306 91.8015 38.1278 91.6848 38.1806 91.5876L59.8264 51.2681C59.8806 51.1667 59.9861 51.1028 60.1014 51.1028H112.003C112.113 51.1028 112.214 51.1612 112.271 51.2542C112.328 51.3473 112.331 51.4653 112.278 51.5626L90.6334 91.882C90.5792 91.9848 90.4736 92.0487 90.3584 92.0487ZM38.9778 91.4237H90.1722L111.481 51.7292H60.2889L38.9778 91.4237Z" fill="#FFECE5"/>
<path d="M94.7612 61.1528C95.1598 61.1528 95.4293 61.4542 95.3765 61.8319C95.3209 62.2111 94.9571 62.5236 94.5612 62.5278L68.6904 62.8667C68.2918 62.8667 68.0223 62.5639 68.0765 62.1889C68.1321 61.8083 68.4959 61.4972 68.8904 61.4917L94.7612 61.1528Z" fill="#FFECE5"/>
<path d="M91.3042 66.868C91.7056 66.868 91.9737 67.1708 91.9195 67.5458C91.864 67.9264 91.5001 68.2375 91.1056 68.243L65.2348 68.5819C64.8362 68.5819 64.5667 68.2805 64.6195 67.9028C64.6751 67.5236 65.039 67.2111 65.4348 67.2069L91.3042 66.868Z" fill="#FFECE5"/>
<path d="M87.8486 72.582C88.2458 72.582 88.5167 72.8834 88.4611 73.2611C88.407 73.6403 88.0417 73.9528 87.6486 73.957L61.7778 74.2959C61.3792 74.2959 61.1097 73.9931 61.1639 73.6181C61.2181 73.2375 61.5833 72.9264 61.9778 72.9209L87.8486 72.582Z" fill="#FFECE5"/>
<path d="M84.3917 78.2986C84.7931 78.2986 85.0598 78.6014 85.007 78.9764C84.9514 79.3569 84.5876 79.668 84.1917 79.6736L58.3209 80.0125C57.9237 80.0125 57.6528 79.7111 57.7084 79.3333C57.7639 78.9541 58.1278 78.6416 58.5209 78.6375L84.3917 78.2986Z" fill="#FFECE5"/>
<path d="M54.7181 59.0013C55.3667 59.0736 55.5889 59.6111 55.2181 60.2027C54.8486 60.793 54.025 61.2152 53.3764 61.1444C52.732 61.0736 52.5056 60.5347 52.875 59.9444C53.2459 59.3513 54.0736 58.9291 54.7181 59.0013Z" fill="#F56630"/>
<path d="M53.5236 61.4361C53.4639 61.4361 53.4042 61.4333 53.3459 61.4264C52.9486 61.3819 52.65 61.193 52.5042 60.8916C52.35 60.5736 52.3972 60.1736 52.6347 59.793C53.0639 59.1069 53.9931 58.6347 54.7486 58.718C55.1472 58.7625 55.4459 58.9514 55.5917 59.2527C55.7459 59.5708 55.6972 59.9722 55.4584 60.3541C55.0639 60.9861 54.2431 61.4361 53.5236 61.4361ZM54.5695 59.2777C54.0486 59.2777 53.407 59.6319 53.1167 60.0958C52.9847 60.3069 52.9486 60.5069 53.0153 60.6444C53.0722 60.7625 53.2125 60.8402 53.4084 60.8625C53.9459 60.9222 54.6653 60.5514 54.9764 60.0527C55.1097 59.8402 55.1472 59.6389 55.0792 59.5014C55.0222 59.3833 54.882 59.3069 54.6861 59.2847C54.6486 59.2791 54.6097 59.2777 54.5695 59.2777Z" fill="#FFECE5"/>
<path d="M62.4652 46.6277C63.1819 46.7069 63.4166 47.3472 62.9458 48.0069L55.8999 57.9778C55.7305 58.218 55.3888 58.3819 55.1236 58.3528L55.0902 58.3472C54.8458 58.3041 54.7666 58.093 54.8888 57.8666L60.418 47.7278C60.768 47.0847 61.6416 46.5889 62.3666 46.6222C62.4013 46.6222 62.4333 46.6236 62.4652 46.6277Z" fill="#F56630"/>
<path d="M55.1888 58.6389C55.1569 58.6389 55.125 58.6375 55.093 58.6333C55.0875 58.6333 55.0819 58.6319 55.0763 58.6305L55.043 58.625C54.8388 58.5889 54.6833 58.4778 54.6027 58.3111C54.5194 58.1375 54.5333 57.9264 54.6402 57.7291L60.1708 47.5903C60.575 46.85 61.5458 46.2986 62.3819 46.3361C62.4263 46.3389 62.4611 46.3403 62.4972 46.3444C62.9194 46.3916 63.2444 46.6055 63.3916 46.9347C63.5555 47.3 63.4777 47.7514 63.1777 48.1708L56.1333 58.1403C55.9222 58.4403 55.5375 58.6389 55.1888 58.6389ZM55.1625 58.0694C55.3277 58.0833 55.5611 57.9653 55.668 57.8125L62.7138 47.8416C62.8916 47.593 62.95 47.3417 62.8722 47.1667C62.8083 47.025 62.6527 46.9333 62.4347 46.9097C62.4097 46.9069 62.3861 46.9055 62.3611 46.9041C61.7319 46.875 60.9666 47.3153 60.6694 47.8625L55.1402 58.0014C55.125 58.0291 55.1208 58.0486 55.118 58.0597C55.1236 58.0611 55.1305 58.0639 55.1416 58.0653L55.1625 58.0694Z" fill="#FFECE5"/>
<path d="M64.1972 43.8458C70.2597 44.5152 72.3597 49.5541 68.8917 55.1C65.425 60.643 57.7 64.5958 51.6375 63.9264C45.5778 63.2569 43.4778 58.218 46.9445 52.675C50.4125 47.1278 58.1375 43.175 64.1972 43.8458Z" fill="#F56630"/>
<path d="M53 64.2833C52.5278 64.2833 52.0625 64.2583 51.6056 64.2083C48.7181 63.8889 46.5806 62.5819 45.5861 60.5292C44.5069 58.3014 44.9139 55.3833 46.7028 52.5236C50.2167 46.9028 58.0792 42.8847 64.2278 43.5639C67.1153 43.8833 69.2542 45.1903 70.2486 47.2444C71.3278 49.4722 70.9208 52.3917 69.1319 55.2514C65.8792 60.4528 58.8986 64.2833 53 64.2833ZM62.8194 44.0555C57.1083 44.0555 50.3431 47.7736 47.1847 52.8236C45.5028 55.5139 45.1069 58.2305 46.0986 60.2792C47.0042 62.15 48.9833 63.3444 51.6681 63.6417C57.6222 64.3 65.2403 60.4 68.65 54.9472C70.3333 52.2569 70.7292 49.5375 69.7375 47.4889C68.8306 45.6167 66.8528 44.4236 64.1667 44.1264C63.7264 44.0792 63.2764 44.0555 62.8194 44.0555Z" fill="#FFECE5"/>
<path d="M55.218 60.2027C55.5875 59.6111 55.3666 59.0722 54.718 59.0013C54.0736 58.9305 53.2458 59.3527 52.8764 59.9444C52.5069 60.5347 52.7333 61.0736 53.3778 61.1444C54.025 61.2152 54.8486 60.793 55.218 60.2027Z" fill="#FFECE5"/>
<path d="M53.5236 61.4361C53.4639 61.4361 53.4042 61.4333 53.3459 61.4264C52.9486 61.3819 52.65 61.193 52.5042 60.8916C52.35 60.5736 52.3972 60.1736 52.6347 59.793C53.0639 59.1069 53.9917 58.6347 54.7486 58.718C55.1472 58.7625 55.4459 58.9514 55.5917 59.2527C55.7459 59.5708 55.6972 59.9722 55.4584 60.3541C55.0639 60.9861 54.2431 61.4361 53.5236 61.4361ZM54.5695 59.2777C54.0486 59.2777 53.407 59.6319 53.1167 60.0958C52.9847 60.3069 52.9486 60.5069 53.0153 60.6444C53.0722 60.7625 53.2125 60.8402 53.4084 60.8625C53.9472 60.9222 54.6653 60.5514 54.9764 60.0527C55.1097 59.8402 55.1472 59.6389 55.0792 59.5014C55.0222 59.3833 54.882 59.3069 54.6861 59.2847C54.6486 59.2791 54.6097 59.2777 54.5695 59.2777Z" fill="#FFECE5"/>
<path d="M62.9457 48.0056C63.4166 47.3472 63.1819 46.7069 62.4652 46.6264C62.4332 46.6222 62.4013 46.6208 62.368 46.6194C61.643 46.5861 60.7694 47.0819 60.4194 47.725L54.8902 57.8639C54.7666 58.0903 54.8471 58.3014 55.0916 58.3444L55.1249 58.35C55.3902 58.3792 55.7319 58.2153 55.9013 57.975L62.9457 48.0056Z" fill="#FFECE5"/>
<path d="M55.1888 58.6389C55.1569 58.6389 55.125 58.6375 55.093 58.6333C55.0875 58.6333 55.0819 58.6319 55.0763 58.6305L55.043 58.625C54.8388 58.5889 54.6833 58.4778 54.6027 58.3111C54.5194 58.1375 54.5333 57.9264 54.6402 57.7291L60.1708 47.5903C60.575 46.85 61.5458 46.2986 62.3819 46.3361C62.425 46.3389 62.4611 46.3403 62.4972 46.3444C62.9194 46.3916 63.2444 46.6055 63.3916 46.9347C63.5555 47.3 63.4777 47.7514 63.1777 48.1708L56.1333 58.1416C55.9222 58.4403 55.5375 58.6389 55.1888 58.6389ZM55.1625 58.0694C55.325 58.0833 55.5611 57.9653 55.668 57.8125L62.7138 47.8416C62.7138 47.8416 62.7138 47.8403 62.7152 47.8403C62.8916 47.593 62.9513 47.3403 62.8722 47.1667C62.8083 47.025 62.6527 46.9333 62.4347 46.9097C62.4097 46.9069 62.3861 46.9055 62.3597 46.9041C61.7416 46.8764 60.9666 47.3153 60.6694 47.8625L55.1402 58.0014C55.125 58.0291 55.1208 58.0486 55.118 58.0597C55.1236 58.0611 55.1305 58.0639 55.1416 58.0653L55.1625 58.0694Z" fill="#FFECE5"/>
</svg>
