<svg width="150" height="150" viewBox="0 0 150 150" fill="none" xmlns="http://www.w3.org/2000/svg">
<path d="M75 107.001C103.319 107.001 126.276 97.9955 126.276 86.8861C126.276 75.7767 103.319 66.7708 75 66.7708C46.6809 66.7708 23.7236 75.7767 23.7236 86.8861C23.7236 97.9955 46.6809 107.001 75 107.001Z" fill="#FFECE5"/>
<path d="M126.092 37.5736L120.754 79.9806C120.592 81.2736 119.704 82.3583 118.471 82.7764L81.1222 95.4028V82.0944L111.107 59.4278L117.901 33.75H122.718C124.764 33.75 126.347 35.5444 126.092 37.5736Z" fill="#FA9874"/>
<path d="M81.1222 95.7166C81.0583 95.7166 80.9944 95.6972 80.9402 95.6583C80.8583 95.6 80.8097 95.5055 80.8097 95.4041V82.0958C80.8097 81.9972 80.8555 81.9055 80.9333 81.8472L110.833 59.2444L117.6 33.6708C117.636 33.5333 117.76 33.4389 117.903 33.4389H122.719C123.785 33.4389 124.799 33.8972 125.503 34.6958C126.207 35.4944 126.535 36.5583 126.401 37.6139L121.064 80.0208C120.887 81.4222 119.908 82.6208 118.569 83.0736L81.2222 95.7C81.1902 95.7111 81.1555 95.7166 81.1222 95.7166ZM81.4347 82.25V94.968L118.369 82.4805C119.482 82.1041 120.297 81.1083 120.443 79.9417L125.781 37.5347C125.892 36.6569 125.618 35.7722 125.033 35.1069C124.447 34.443 123.604 34.0625 122.718 34.0625H118.142L111.41 59.5083C111.392 59.5764 111.351 59.6361 111.296 59.6778L81.4347 82.25Z" fill="#FFECE5"/>
<path d="M81.1237 82.0958L42.9834 76.7958L72.9681 55.4778L111.108 59.4278L81.1237 82.0958Z" fill="#F56630"/>
<path d="M81.1236 82.4083C81.1097 82.4083 81.0945 82.4069 81.0806 82.4055L42.9403 77.1069C42.8139 77.0889 42.7097 76.9958 42.6792 76.8722C42.6486 76.7472 42.6972 76.618 42.8014 76.543L72.7861 55.225C72.8486 55.1805 72.9236 55.1611 73 55.1694L111.14 59.1194C111.268 59.1333 111.375 59.2222 111.41 59.3458C111.444 59.4694 111.4 59.6014 111.297 59.6791L81.3125 82.3458C81.257 82.3861 81.1903 82.4083 81.1236 82.4083ZM43.8056 76.5944L81.0375 81.768L110.286 59.6583L73.0528 55.8028L43.8056 76.5944Z" fill="#FFECE5"/>
<path d="M73.7652 58.0792L83.3444 59.0722L73.7625 58.0792H73.7652Z" fill="#FA9874"/>
<path d="M83.3458 59.3847C83.3347 59.3847 83.3235 59.3847 83.3138 59.3833L73.7319 58.3903C73.5666 58.3736 73.443 58.2292 73.4513 58.0639C73.461 57.8875 73.6208 57.7514 73.7972 57.7694L83.3777 58.7625C83.5499 58.7805 83.6736 58.9333 83.6569 59.1055C83.6388 59.2639 83.5027 59.3847 83.3458 59.3847Z" fill="#FFECE5"/>
<path d="M104.447 61.2569L98.3972 65.8319L87.8125 64.7361L94.1958 60.1972H94.1972L104.447 61.2569Z" fill="#FA9874"/>
<path d="M98.3972 66.1444C98.3861 66.1444 98.3764 66.1444 98.3653 66.143L87.7806 65.0472C87.6514 65.0333 87.5431 64.9417 87.5111 64.8153C87.4778 64.6889 87.5264 64.5569 87.632 64.4805L94.0153 59.9417C94.0764 59.8972 94.1556 59.8778 94.2306 59.8861L104.481 60.9472C104.608 60.9611 104.715 61.05 104.75 61.1736C104.785 61.2972 104.74 61.4292 104.638 61.5069L98.5875 66.0819C98.532 66.1222 98.4653 66.1444 98.3972 66.1444ZM88.6695 64.5111L98.307 65.5097L103.626 61.4875L94.282 60.5208L88.6695 64.5111Z" fill="#FFECE5"/>
<path d="M76.9597 63.6111L70.5736 68.1527L60.993 67.1597L67.3792 62.6208L76.9597 63.6111Z" fill="#FA9874"/>
<path d="M70.5736 68.4652C70.5625 68.4652 70.5528 68.4652 70.5417 68.4639L60.9611 67.4708C60.8319 67.4569 60.7236 67.3652 60.6917 67.2389C60.6583 67.1125 60.7069 66.9805 60.8125 66.9041L67.1986 62.3652C67.2611 62.3208 67.3361 62.3014 67.4111 62.3097L76.9917 63.3C77.1208 63.3139 77.2292 63.4055 77.2611 63.5319C77.2944 63.6583 77.2458 63.7902 77.1403 63.8666L70.7542 68.4083C70.7014 68.4444 70.6375 68.4652 70.5736 68.4652ZM61.85 66.9347L70.4889 67.8291L76.1042 63.8361L67.4653 62.943L61.85 66.9347Z" fill="#FFECE5"/>
<path d="M70.5736 68.1528L64.1874 72.6931H64.1861L54.6083 71.7L60.993 67.1597L70.5736 68.1528Z" fill="#FA9874"/>
<path d="M64.1875 73.0056C64.1763 73.0056 64.1638 73.0056 64.1541 73.0042L54.5763 72.0111C54.4472 71.9972 54.3388 71.9056 54.3069 71.7792C54.2736 71.6528 54.3222 71.5208 54.4277 71.4444L60.8125 66.9028C60.875 66.8583 60.95 66.8389 61.0263 66.8472L70.6069 67.8403C70.7361 67.8542 70.8444 67.9458 70.8763 68.0722C70.9097 68.1986 70.8611 68.3306 70.7555 68.4069L64.3708 72.9486C64.3166 72.9861 64.2527 73.0056 64.1875 73.0056ZM55.4638 71.475L64.1027 72.3694L69.7166 68.3764L61.0777 67.4819L55.4638 71.475Z" fill="#FFECE5"/>
<path d="M92.3471 70.4069L86.2958 74.9819L75.0388 73.8166L81.4263 69.275L92.3471 70.4069Z" fill="#FA9874"/>
<path d="M86.2958 75.2944C86.2847 75.2944 86.275 75.2944 86.2638 75.293L75.0083 74.1277C74.8791 74.1139 74.7708 74.0222 74.7388 73.8958C74.7069 73.7694 74.7541 73.6375 74.8597 73.5611L81.2458 69.0194C81.3083 68.975 81.3833 68.9555 81.4597 68.9639L92.3805 70.0958C92.5083 70.1097 92.6152 70.1986 92.65 70.3222C92.6847 70.4458 92.6402 70.5777 92.5375 70.6555L86.4861 75.2305C86.4291 75.2722 86.3625 75.2944 86.2958 75.2944ZM75.8958 73.5916L86.2055 74.6597L91.5263 70.6375L81.5111 69.6L75.8958 73.5916Z" fill="#FFECE5"/>
<path d="M86.2959 74.9819L80.3264 79.4944L69.2236 77.9514L75.0389 73.8167L86.2959 74.9819Z" fill="#FA9874"/>
<path d="M80.3264 79.8069C80.3125 79.8069 80.2972 79.8056 80.2833 79.8042L69.1805 78.2611C69.0541 78.2431 68.95 78.15 68.9194 78.0264C68.8889 77.9014 68.9375 77.7722 69.0416 77.6972L74.8569 73.5625C74.9194 73.5181 74.9944 73.4986 75.0708 73.507L86.3264 74.6722C86.4541 74.6861 86.5611 74.775 86.5958 74.8986C86.6305 75.0222 86.5861 75.1542 86.4833 75.2319L80.5153 79.7444C80.4611 79.7847 80.3944 79.8069 80.3264 79.8069ZM70.0458 77.75L80.2416 79.1667L85.4736 75.2111L75.1236 74.1389L70.0458 77.75Z" fill="#FFECE5"/>
<path d="M75.0389 73.8166L69.2237 77.9513L58.8223 76.5069L64.1862 72.693H64.1875L75.0389 73.8166Z" fill="#F77A4A"/>
<path d="M69.2236 78.2639C69.2097 78.2639 69.1944 78.2625 69.1806 78.2611L58.7792 76.8166C58.6528 76.7986 58.5486 76.7055 58.5181 76.5819C58.4875 76.4569 58.5361 76.3277 58.6403 76.2527L64.0042 72.4389C64.0653 72.3944 64.1444 72.375 64.2194 72.3833L75.0708 73.5069C75.2 73.5208 75.3083 73.6125 75.3403 73.7388C75.3736 73.8652 75.325 73.9972 75.2194 74.0736L69.4042 78.2083C69.3514 78.2444 69.2889 78.2639 69.2236 78.2639ZM59.6444 76.3055L69.1431 77.625L74.1819 74.0416L64.2708 73.0152L59.6444 76.3055Z" fill="#FFECE5"/>
<path d="M64.1862 72.693L58.8223 76.5069L49.6417 75.2305L54.6084 71.7L64.1862 72.693Z" fill="#FA9874"/>
<path d="M58.8222 76.8194C58.8083 76.8194 58.7931 76.818 58.7792 76.8166L49.5986 75.5403C49.4722 75.5222 49.3681 75.4291 49.3375 75.3055C49.307 75.1805 49.3556 75.0514 49.4597 74.9764L54.4264 71.4458C54.4889 71.4014 54.5639 71.3819 54.6403 71.3903L64.2181 72.3833C64.3472 72.3972 64.4556 72.4889 64.4875 72.6153C64.5208 72.7416 64.4722 72.8736 64.3667 72.95L59.0028 76.7639C58.95 76.8 58.8875 76.8194 58.8222 76.8194ZM50.4639 75.0291L58.7417 76.1805L63.3292 72.9194L54.6917 72.025L50.4639 75.0291Z" fill="#FFECE5"/>
<path d="M94.1958 60.1972L83.3472 59.0722L94.1972 60.1944H94.1999L104.447 61.2569L94.1972 60.1972H94.1958Z" fill="#FA9874"/>
<path d="M104.449 61.5694C104.437 61.5694 104.426 61.5694 104.417 61.568L94.1749 60.5083C94.1722 60.5083 94.168 60.5083 94.1652 60.5069L83.3152 59.3819C83.143 59.3638 83.0194 59.2111 83.0361 59.0388C83.0527 58.8666 83.2083 58.743 83.3791 58.7597L83.3916 58.7611L94.2222 59.8819C94.2249 59.8819 94.2291 59.8819 94.2319 59.8833L104.48 60.9458C104.653 60.9638 104.776 61.1166 104.76 61.2888C104.742 61.45 104.606 61.5694 104.449 61.5694Z" fill="#FFECE5"/>
<path d="M72.8334 55.4778L82.1181 32.3055L117.901 33.75L111.108 59.4292L72.8334 55.4778Z" fill="#F56630"/>
<path d="M111.108 59.7417C111.097 59.7417 111.087 59.7417 111.076 59.7403L72.8014 55.7903C72.7042 55.7805 72.6167 55.725 72.5667 55.6417C72.5153 55.5583 72.5069 55.4555 72.5444 55.3639L81.8292 32.1917C81.8778 32.0694 82 31.9903 82.1319 31.9958L117.915 33.4403C118.01 33.4444 118.097 33.4903 118.154 33.5667C118.211 33.643 118.229 33.7403 118.204 33.8319L111.411 59.5097C111.374 59.6472 111.249 59.7417 111.108 59.7417ZM73.2778 55.2097L110.875 59.0903L117.5 34.0472L82.3264 32.6278L73.2778 55.2097Z" fill="#FFECE5"/>
<path d="M76.1152 54.0792L84.0472 34.282L114.619 35.5153L108.815 57.4542L76.1152 54.0792Z" fill="#FFECE5"/>
<path d="M108.815 57.7667C108.804 57.7667 108.794 57.7667 108.783 57.7653L76.0833 54.3889C75.9861 54.3792 75.8986 54.3236 75.8486 54.2403C75.7986 54.1569 75.7889 54.0542 75.8264 53.9625L83.7583 34.1653C83.8069 34.0431 83.9292 33.9625 84.0611 33.9694L114.633 35.2042C114.728 35.2083 114.815 35.2542 114.872 35.3306C114.929 35.4069 114.947 35.5042 114.922 35.5958L109.118 57.5333C109.081 57.6722 108.956 57.7667 108.815 57.7667ZM76.5597 53.8097L108.582 57.1153L114.218 35.8125L84.2555 34.6028L76.5597 53.8097Z" fill="#FFECE5"/>
<path d="M42.9833 76.7958V90.1041L81.1222 95.4041V82.0944L42.9833 76.7958Z" fill="#EB5017"/>
<path d="M81.1222 95.7166C81.1083 95.7166 81.093 95.7153 81.0792 95.7139L42.9403 90.4152C42.7861 90.3944 42.6708 90.2611 42.6708 90.1055L42.6694 76.7972C42.6694 76.7069 42.7083 76.6208 42.7764 76.5611C42.8444 76.5014 42.9347 76.475 43.025 76.4875L81.1639 81.7861C81.318 81.8069 81.4333 81.9403 81.4333 82.0958V95.4041C81.4333 95.4944 81.3944 95.5805 81.3264 95.6402C81.2708 95.6889 81.1972 95.7166 81.1222 95.7166ZM43.2958 89.8319L80.8097 95.0444V82.3666L43.2958 77.1541V89.8319Z" fill="#FFECE5"/>
<path d="M76.7111 86.3917V88.1028L46.9181 84.3361V82.6236L76.7111 86.3917Z" fill="#F56630"/>
<path d="M77.0236 88.4569L46.6056 84.6125V82.2694L77.0236 86.1166V88.4569ZM47.2306 84.0611L76.3986 87.7486V86.6666L47.2306 82.9777V84.0611Z" fill="#F56630"/>
<path d="M13.6014 120.418C19.3001 118.967 25.0014 117.533 30.2264 114.737C35.4945 111.919 38.8584 107.785 40.4876 102.033C41.7778 97.475 42.3445 92.7 44.9806 88.6875C46.8903 85.7805 49.8473 83.8514 49.8473 83.8514L74.2542 86.9375C71.7112 89.6681 69.5237 92.7805 67.6362 95.9903C65.907 98.9306 64.3598 101.689 63.4723 105.012C62.5681 108.399 62.0195 111.933 60.3862 115.075C58.7487 118.224 56.0987 120.758 53.1487 122.731C47.4251 126.557 40.7042 128.897 34.0764 130.585C34.0764 130.583 13.6014 120.418 13.6014 120.418Z" fill="#FCD2C2"/>
<path d="M34.0764 130.896C34.0292 130.896 33.9806 130.885 33.9375 130.864L13.6931 120.812C13.3833 120.658 13.2417 120.589 13.2972 120.347C13.3236 120.233 13.4111 120.144 13.525 120.115L13.7181 120.067C19.2389 118.661 24.9486 117.208 30.0806 114.462C35.2861 111.678 38.5931 107.585 40.1875 101.949C40.5167 100.786 40.8042 99.5889 41.0806 98.4291C41.8917 95.0444 42.7292 91.5444 44.7194 88.5152C46.6431 85.5875 49.5542 83.668 49.6764 83.5889C49.7389 83.5486 49.8125 83.5305 49.8861 83.5402L74.293 86.6264C74.4097 86.6416 74.5083 86.7194 74.5472 86.8305C74.5875 86.9402 74.5625 87.0639 74.4819 87.15C72.1653 89.6375 69.9528 92.6652 67.9056 96.1486C66.1583 99.1222 64.6417 101.847 63.7736 105.093C63.5486 105.933 63.343 106.8 63.143 107.637C62.5347 110.189 61.9069 112.826 60.6625 115.219C59.1472 118.132 56.6778 120.747 53.3208 122.99C48.3486 126.314 42.2583 128.824 34.1514 130.887C34.1278 130.893 34.1014 130.896 34.0764 130.896ZM14.4958 120.514C18.0181 122.262 32.7319 129.567 34.1111 130.253C42.0903 128.212 48.0861 125.739 52.975 122.471C56.2431 120.286 58.643 117.75 60.1083 114.931C61.3167 112.607 61.9361 110.007 62.5361 107.493C62.7361 106.651 62.9444 105.781 63.1708 104.932C64.0583 101.61 65.5958 98.8458 67.368 95.8319C69.318 92.5152 71.418 89.6041 73.6167 87.1722L49.9264 84.1777C49.4139 84.5305 46.9056 86.3305 45.2431 88.8611C43.3125 91.8 42.4875 95.2458 41.6889 98.5777C41.4097 99.743 41.1208 100.947 40.7889 102.121C39.1444 107.928 35.7389 112.146 30.375 115.015C25.3694 117.69 19.8569 119.146 14.4958 120.514Z" fill="#FFECE5"/>
<path d="M87.8125 64.7361L81.4264 69.275L70.5736 68.1528L76.9597 63.6111L87.8125 64.7361Z" fill="#F77A4A"/>
<path d="M81.4264 69.5875C81.4153 69.5875 81.4056 69.5875 81.3945 69.5861L70.5417 68.4625C70.4125 68.4486 70.3042 68.3569 70.2722 68.2305C70.2389 68.1041 70.2875 67.9722 70.3931 67.8958L76.7792 63.3541C76.8417 63.3097 76.9167 63.2902 76.9931 63.2986L87.8458 64.4236C87.975 64.4375 88.0833 64.5291 88.1153 64.6555C88.1472 64.7819 88.1 64.9139 87.9945 64.9902L81.6083 69.5291C81.5542 69.568 81.4903 69.5875 81.4264 69.5875ZM71.4292 67.9264L81.3403 68.9527L86.9556 64.9611L77.0445 63.9333L71.4292 67.9264Z" fill="#FFECE5"/>
<path d="M94.1986 60.1975V60.1944H94.2001" fill="#FA9874"/>
<path d="M94.1986 60.5083C94.0264 60.5083 93.8861 60.3694 93.8861 60.1972V60.1958C93.8861 60.0236 94.0264 59.8833 94.1986 59.8833C94.3708 59.8833 94.5125 60.0236 94.5125 60.1958C94.5125 60.3222 94.4375 60.4305 94.3306 60.4805C94.2889 60.4986 94.2444 60.5083 94.1986 60.5083Z" fill="#FFECE5"/>
<path d="M83.3444 59.0722L76.9597 63.611L67.3792 62.6208L73.7625 58.0791L83.3444 59.0722Z" fill="#FA9874"/>
<path d="M76.9597 63.9236C76.9486 63.9236 76.9389 63.9236 76.9278 63.9222L67.3472 62.9319C67.2181 62.918 67.1097 62.8263 67.0778 62.7013C67.0444 62.575 67.0931 62.443 67.1986 62.3666L73.5819 57.825C73.6444 57.7805 73.7194 57.7611 73.7958 57.7694L83.3778 58.7625C83.5069 58.7763 83.6153 58.868 83.6472 58.9944C83.6792 59.1208 83.6319 59.2527 83.5264 59.3291L77.1417 63.868C77.0875 63.9027 77.025 63.9236 76.9597 63.9236ZM68.2361 62.3944L76.875 63.2875L82.4889 59.2972L73.8486 58.4027L68.2361 62.3944Z" fill="#FFECE5"/>
<path d="M94.1958 60.1972L87.8125 64.7361L76.9597 63.6111L83.3444 59.0722H83.3472L94.1958 60.1972Z" fill="#F77A4A"/>
<path d="M87.8125 65.0486C87.8014 65.0486 87.7917 65.0486 87.7806 65.0472L76.9278 63.9222C76.7986 63.9083 76.6903 63.8167 76.6583 63.6903C76.625 63.5639 76.6736 63.4319 76.7792 63.3555L83.1639 58.8167C83.225 58.7722 83.3042 58.7528 83.3792 58.7611L94.2292 59.8861C94.3583 59.9 94.4667 59.9917 94.4986 60.118C94.532 60.2444 94.4833 60.3764 94.3778 60.4528L87.9945 64.9917C87.9403 65.0292 87.8778 65.0486 87.8125 65.0486ZM77.8167 63.3861L87.7278 64.4139L93.3403 60.4222L83.4306 59.3944L77.8167 63.3861Z" fill="#FFECE5"/>
<path d="M98.3972 65.8319L92.3472 70.4069L81.4264 69.275L87.8125 64.7361L98.3972 65.8319Z" fill="#FA9874"/>
<path d="M92.3472 70.7194C92.3361 70.7194 92.3264 70.7194 92.3153 70.718L81.3945 69.5861C81.2653 69.5722 81.157 69.4805 81.125 69.3541C81.0917 69.2278 81.1403 69.0958 81.2458 69.0194L87.632 64.4805C87.6945 64.4361 87.7695 64.4166 87.8458 64.425L98.4306 65.5208C98.5584 65.5347 98.6653 65.6236 98.7 65.7472C98.7347 65.8708 98.6903 66.0028 98.5875 66.0805L92.5375 70.6555C92.4806 70.6972 92.4153 70.7194 92.3472 70.7194ZM82.2834 69.05L92.257 70.0833L97.5764 66.0611L87.8986 65.0583L82.2834 69.05Z" fill="#FFECE5"/>
<path d="M81.4264 69.275L75.0389 73.8167L64.1875 72.693L70.5736 68.1528L81.4264 69.275Z" fill="#F77A4A"/>
<path d="M75.0389 74.1291C75.0278 74.1291 75.0181 74.1291 75.007 74.1278L64.1556 73.0042C64.0264 72.9903 63.9181 72.8986 63.8861 72.7722C63.8528 72.6458 63.9014 72.5139 64.007 72.4375L70.3917 67.8958C70.4542 67.8514 70.5292 67.8319 70.6056 67.8403L81.4583 68.9639C81.5875 68.9778 81.6958 69.0694 81.7278 69.1958C81.7611 69.3222 81.7125 69.4542 81.607 69.5305L75.2208 74.0722C75.1681 74.1083 75.1042 74.1291 75.0389 74.1291ZM65.0445 72.468L74.9542 73.4944L80.5695 69.5014L70.6583 68.475L65.0445 72.468Z" fill="#FFECE5"/>
<path d="M106.535 40.4611C106.524 40.4611 106.511 40.4611 106.5 40.4597L89.9444 39.4305C89.6388 39.4111 89.4055 39.1472 89.425 38.8417C89.4444 38.5361 89.7069 38.3028 90.0138 38.3222L106.571 39.3528C106.876 39.3722 107.11 39.6361 107.09 39.9416C107.071 40.2347 106.826 40.4611 106.535 40.4611Z" fill="#FA9874"/>
<path d="M104.847 44.5889C104.836 44.5889 104.824 44.5889 104.813 44.5875L88.2556 43.5569C87.95 43.5375 87.7167 43.2736 87.7361 42.968C87.7556 42.6625 88.0181 42.4291 88.325 42.4486L104.882 43.4791C105.188 43.4986 105.421 43.7625 105.401 44.068C105.383 44.3611 105.139 44.5889 104.847 44.5889Z" fill="#FA9874"/>
<path d="M65.1347 94.1514C65.1055 94.1514 65.075 94.1486 65.0444 94.1444L46.8278 91.1625C46.525 91.1125 46.3194 90.8278 46.3694 90.525C46.4194 90.2222 46.7042 90.0166 47.0069 90.0666L65.2236 93.0486C65.5264 93.0986 65.7319 93.3833 65.6819 93.6861C65.6375 93.9569 65.4028 94.1514 65.1347 94.1514Z" fill="#FA9874"/>
<path d="M63.5944 97.3681C63.5653 97.3681 63.5375 97.3653 63.5083 97.3611L45.4139 94.5333C45.1111 94.4861 44.9028 94.2014 44.9514 93.8986C45 93.5958 45.2833 93.3875 45.5861 93.4361L63.6805 96.2639C63.9833 96.3111 64.1917 96.5958 64.143 96.8986C64.1 97.1722 63.8625 97.3681 63.5944 97.3681Z" fill="#FA9874"/>
<path d="M61.8153 100.933C61.7861 100.933 61.757 100.931 61.7264 100.926L44.4125 98.1583C44.1097 98.1097 43.9028 97.825 43.9514 97.5222C44 97.2194 44.2847 97.0125 44.5875 97.0611L61.9014 99.8291C62.2042 99.8778 62.4111 100.162 62.3625 100.465C62.3195 100.739 62.0834 100.933 61.8153 100.933Z" fill="#FA9874"/>
<path d="M60.6 104.499C60.5708 104.499 60.5417 104.496 60.5111 104.492L43.4944 101.772C43.1917 101.724 42.9847 101.439 43.0333 101.136C43.0819 100.833 43.3667 100.626 43.6694 100.675L60.6861 103.394C60.9889 103.443 61.1958 103.728 61.1472 104.031C61.1042 104.303 60.868 104.499 60.6 104.499Z" fill="#FA9874"/>
<path d="M103.16 48.7153C103.149 48.7153 103.136 48.7153 103.125 48.7139L86.5681 47.6833C86.2625 47.6639 86.0292 47.4 86.0486 47.0944C86.0681 46.7889 86.3306 46.5555 86.6375 46.575L103.194 47.6055C103.5 47.625 103.733 47.8889 103.714 48.1944C103.696 48.4889 103.451 48.7153 103.16 48.7153Z" fill="#FA9874"/>
<path d="M101.472 52.8417C101.461 52.8417 101.449 52.8417 101.437 52.8403L84.8806 51.8097C84.575 51.7903 84.3417 51.5264 84.3611 51.2208C84.3806 50.9153 84.6431 50.6819 84.95 50.7014L101.507 51.7319C101.812 51.7514 102.046 52.0153 102.026 52.3208C102.008 52.6153 101.762 52.8417 101.472 52.8417Z" fill="#FA9874"/>
<path d="M132.049 46.8138L132.358 48.7486C132.544 49.9083 133.34 50.8166 134.486 51.175L136.399 51.7708L134.296 52.3666C133.037 52.725 131.951 53.6319 131.394 54.793L130.468 56.7277L130.157 54.793C129.971 53.6333 129.175 52.725 128.029 52.3666L126.118 51.7708L128.219 51.175C129.478 50.8166 130.564 49.9097 131.121 48.7486L132.049 46.8138Z" fill="#F56630"/>
<path d="M71.3861 39.2111L71.6236 40.6944C71.7666 41.5833 72.3764 42.2805 73.2555 42.5541L74.7222 43.0111L73.1097 43.4694C72.1444 43.743 71.3125 44.4389 70.8847 45.3278L70.1736 46.8125L69.9361 45.3278C69.793 44.4389 69.1819 43.743 68.3041 43.4694L66.8389 43.0111L68.45 42.5541C69.4153 42.2805 70.2472 41.5833 70.675 40.6944L71.3861 39.2111Z" fill="#F56630"/>
<path d="M111.446 87.3083L111.578 88.1361C111.658 88.6305 111.999 89.0194 112.487 89.1722L113.304 89.4277L112.407 89.6833C111.868 89.8361 111.404 90.225 111.167 90.7194L110.771 91.5472L110.639 90.7194C110.558 90.225 110.219 89.8361 109.73 89.6833L108.914 89.4277L109.812 89.1722C110.351 89.0194 110.814 88.6305 111.051 88.1361L111.446 87.3083Z" fill="#F56630"/>
<path d="M36.775 89.4264L36.9069 90.2528C36.9861 90.7486 37.3264 91.1361 37.8167 91.2889L38.6333 91.5444L37.7361 91.8C37.1972 91.9528 36.7333 92.3417 36.4958 92.8375L36.1 93.6639L35.968 92.8375C35.8903 92.3417 35.5486 91.9542 35.0597 91.8L34.243 91.5444L35.1403 91.2889C35.6792 91.1375 36.143 90.7486 36.3792 90.2528L36.775 89.4264Z" fill="#F56630"/>
</svg>
