<svg width="150" height="150" viewBox="0 0 150 150" fill="none" xmlns="http://www.w3.org/2000/svg">
<path d="M75 121.99C103.319 121.99 126.276 112.984 126.276 101.875C126.276 90.7656 103.319 81.7597 75 81.7597C46.6809 81.7597 23.7236 90.7656 23.7236 101.875C23.7236 112.984 46.6809 121.99 75 121.99Z" fill="#FFECE5"/>
<path d="M41.7626 89.2292C41.457 88.7333 40.807 88.5792 40.3098 88.8847L39.4112 89.4389L38.857 88.5403C38.5515 88.0444 37.9015 87.8903 37.4042 88.1958C36.9084 88.5014 36.7542 89.1514 37.0598 89.6486L37.614 90.5472L38.7223 92.3444L40.5195 91.2361L41.4181 90.6819C41.914 90.375 42.0681 89.725 41.7626 89.2292Z" fill="#F56630"/>
<path d="M43.9013 53.8209H39.936L44.1999 51.9473L43.9013 53.8209Z" fill="#EB5017"/>
<path d="M43.9014 54.1333H39.9361C39.7889 54.1333 39.6611 54.0292 39.6306 53.8847C39.6 53.7403 39.675 53.5945 39.8111 53.5347L44.075 51.6625C44.1792 51.6167 44.3014 51.632 44.3917 51.7014C44.4819 51.7708 44.5278 51.8847 44.5097 51.9986L44.2111 53.8708C44.1847 54.0208 44.0542 54.1333 43.9014 54.1333ZM41.4236 53.5083H43.6333L43.8 52.4653L41.4236 53.5083Z" fill="#FFECE5"/>
<path d="M97.2181 30.6306L93.8487 51.7625L93.5195 53.8208L93.1125 56.3736L94.7084 55.4417L96.8153 58.3139L97.1431 56.2556L100.514 35.1236L97.2181 30.6306Z" fill="#FCD2C2"/>
<path d="M96.8152 58.6264C96.7166 58.6264 96.6236 58.5806 96.5638 58.4986L94.6236 55.8528L93.2708 56.6431C93.1666 56.7042 93.0361 56.7 92.9361 56.6306C92.8361 56.5611 92.7847 56.4431 92.8041 56.3236L96.9097 30.5806C96.9291 30.4556 97.0222 30.3556 97.1444 30.3264C97.2666 30.2972 97.3958 30.3431 97.4694 30.4458L100.765 34.9389C100.815 35.0056 100.835 35.0903 100.822 35.1736L97.1236 58.3639C97.1041 58.4889 97.0111 58.5889 96.8888 58.6181C96.8638 58.6236 96.8402 58.6264 96.8152 58.6264ZM94.7083 55.1292C94.8055 55.1292 94.8999 55.1736 94.9611 55.2569L96.6249 57.5264L100.185 35.2042L97.4083 31.4194L93.5249 55.7708L94.5499 55.1708C94.5999 55.1431 94.6541 55.1292 94.7083 55.1292Z" fill="#FFECE5"/>
<path d="M39.9333 53.8209H43.9014L43.4931 56.3778L39.9333 53.8209Z" fill="#FA9874"/>
<path d="M43.493 56.6903C43.4292 56.6903 43.3653 56.6709 43.3111 56.632L39.7514 54.075C39.6417 53.9959 39.5944 53.8542 39.6361 53.725C39.6778 53.5959 39.7972 53.5084 39.9333 53.5084H43.9C43.9917 53.5084 44.0778 53.5486 44.1375 53.6181C44.1972 53.6875 44.2222 53.7792 44.2083 53.8695L43.8 56.4264C43.7833 56.5334 43.7111 56.6236 43.6111 56.6653C43.575 56.682 43.5333 56.6903 43.493 56.6903ZM40.9042 54.1334L43.2639 55.8278L43.5347 54.1334H40.9042Z" fill="#FFECE5"/>
<path d="M97.2182 30.6306L93.8487 51.7625L93.5196 53.8208L93.1126 56.3736L71.7293 68.8722H62.9098L62.7015 70.1778L43.4932 56.3778L43.9015 53.8208L44.2001 51.9472L45.5598 43.4153H58.5876L60.5918 30.8472L60.8529 30.6306H97.2182Z" fill="#FFECE5"/>
<path d="M62.0028 74.5569L59.3945 90.9125H34.0181L52.5597 80.0764L62.0028 74.5569Z" fill="#F77A4A"/>
<path d="M59.3945 90.9125L62.6903 95.4055H37.3139L34.0181 90.9125H59.3945Z" fill="#FA9874"/>
<path d="M63.3069 95.718H37.1555L33.4014 90.6H59.5528L63.3069 95.718ZM37.4722 95.093H62.0736L59.2361 91.225H34.6347L37.4722 95.093Z" fill="#FFECE5"/>
<path d="M97.482 53.8208L100.778 58.3139L98.3764 73.3652L95.0806 68.8722L97.482 53.8208Z" fill="#FA9874"/>
<path d="M98.3764 73.6777C98.2778 73.6777 98.1847 73.6319 98.125 73.55L94.8292 69.0569C94.7792 68.9902 94.7597 68.9055 94.7722 68.8222L97.1722 53.7708C97.1917 53.6458 97.2847 53.5458 97.407 53.5166C97.5292 53.4875 97.6583 53.5333 97.732 53.6361L101.028 58.1291C101.078 58.1958 101.097 58.2805 101.085 58.3639L98.6847 73.4153C98.6653 73.5403 98.5722 73.6402 98.45 73.6694C98.4264 73.675 98.4014 73.6777 98.3764 73.6777ZM95.4097 68.793L98.1861 72.5778L100.449 58.3944L97.6722 54.6097L95.4097 68.793Z" fill="#FFECE5"/>
<path d="M111.396 68.8722L114.692 73.3652L109.847 103.737L106.552 99.2444L111.396 68.8722Z" fill="#FA9874"/>
<path d="M109.847 104.05C109.749 104.05 109.656 104.004 109.596 103.922L106.3 99.4291C106.25 99.3625 106.231 99.2778 106.243 99.1944L111.088 68.8222C111.107 68.6972 111.2 68.5972 111.322 68.568C111.445 68.5389 111.574 68.5847 111.647 68.6875L114.943 73.1805C114.993 73.2472 115.013 73.3319 115 73.4153L110.156 103.787C110.136 103.912 110.043 104.012 109.921 104.042C109.897 104.047 109.872 104.05 109.847 104.05ZM106.881 99.1653L109.657 102.95L114.363 73.4458L111.586 69.6611L106.881 99.1653Z" fill="#FFECE5"/>
<path d="M97.375 99.2444L97.1861 100.428L95.9458 108.203L99.2416 112.697L100.482 104.921L100.671 103.737L97.375 99.2444Z" fill="#FA9874"/>
<path d="M99.2416 113.01C99.143 113.01 99.05 112.964 98.9902 112.882L95.6944 108.388C95.6444 108.321 95.625 108.236 95.6375 108.153L97.0666 99.1945C97.0861 99.0695 97.1791 98.9695 97.3014 98.9403C97.4236 98.9111 97.5527 98.957 97.6263 99.0597L100.922 103.553C100.972 103.619 100.992 103.704 100.979 103.788L99.55 112.746C99.5305 112.871 99.4375 112.971 99.3152 113C99.2902 113.007 99.2666 113.01 99.2416 113.01ZM96.275 108.124L99.0514 111.908L100.342 103.818L97.5652 100.033L96.275 108.124Z" fill="#FFECE5"/>
<path d="M88.0874 99.2444L89.1263 100.428L95.9457 108.203L97.186 100.428L97.3749 99.2444H88.0874Z" fill="#FA9874"/>
<path d="M95.9459 108.515C95.857 108.515 95.7708 108.478 95.7111 108.408L87.8528 99.45C87.7722 99.3583 87.7528 99.2264 87.8028 99.1153C87.8528 99.0042 87.9653 98.9319 88.0875 98.9319H97.3736C97.4653 98.9319 97.5514 98.9722 97.6111 99.0417C97.6708 99.1111 97.6958 99.2028 97.682 99.2931L96.2528 108.251C96.2334 108.371 96.1472 108.469 96.0306 108.503C96.0042 108.512 95.975 108.515 95.9459 108.515ZM88.7778 99.5569L95.7417 107.497L97.0084 99.5569H88.7778Z" fill="#FFECE5"/>
<path d="M39.9333 53.8209L43.4931 56.3778L62.7014 70.1778L62.0028 74.557L52.5597 80.0764L34.0181 90.9125L39.9333 53.8209Z" fill="#F56630"/>
<path d="M34.018 91.225C33.9568 91.225 33.8944 91.207 33.8416 91.1709C33.7416 91.1028 33.6902 90.9834 33.7096 90.8639L39.6249 53.7722C39.6416 53.6653 39.7138 53.575 39.8138 53.5334C39.9138 53.4917 40.0277 53.5042 40.1166 53.5681L62.8846 69.925C62.9805 69.9945 63.0291 70.1111 63.011 70.2278L62.3124 74.607C62.2971 74.7 62.243 74.7806 62.161 74.8278L34.1763 91.182C34.1263 91.2111 34.0721 91.225 34.018 91.225ZM40.1624 54.3695L34.4305 90.3097L61.718 74.3611L62.3624 70.3181L40.1624 54.3695Z" fill="#FFECE5"/>
<path d="M97.482 53.8209L95.0806 68.8723H71.7292L97.482 53.8209Z" fill="#F56630"/>
<path d="M95.0806 69.1847H71.7292C71.5875 69.1847 71.4639 69.0903 71.4278 68.9542C71.3917 68.8181 71.45 68.6736 71.5723 68.6028L97.325 53.5514C97.4292 53.4903 97.5598 53.4944 97.6598 53.5639C97.7598 53.6319 97.8111 53.7514 97.7917 53.8708L95.3889 68.9208C95.3653 69.0736 95.2348 69.1847 95.0806 69.1847ZM72.8834 68.5597H94.8139L97.0681 54.4236L72.8834 68.5597Z" fill="#FFECE5"/>
<path d="M95.0805 68.8722H111.396L106.551 99.2444H97.3749H88.0888H58.0652L59.3944 90.9125L62.0027 74.5569L62.7013 70.1777L62.9096 68.8722H71.7291H95.0805ZM98.4888 86.5764C98.9318 86.5764 99.3444 86.2319 99.4124 85.8069C99.4805 85.3805 99.1777 85.0347 98.7346 85.0347H70.018C69.5777 85.0347 69.1638 85.3805 69.0957 85.8069C69.0277 86.2319 69.3305 86.5764 69.7707 86.5764H98.4888ZM99.586 79.693C100.029 79.693 100.442 79.3472 100.51 78.9208C100.578 78.4958 100.275 78.1514 99.8318 78.1514H71.1166C70.6763 78.1514 70.2624 78.4972 70.1957 78.9208C70.1277 79.3472 70.4305 79.693 70.8707 79.693H99.586ZM97.3902 93.4597C97.8332 93.4597 98.2457 93.1152 98.3138 92.6875C98.3818 92.2625 98.0791 91.9166 97.636 91.9166H80.9485C80.5055 91.9166 80.093 92.2625 80.0249 92.6875C79.9568 93.1139 80.2596 93.4597 80.7027 93.4597H97.3902Z" fill="#FA9874"/>
<path d="M106.551 99.5569H58.0653C57.9736 99.5569 57.8875 99.5166 57.8277 99.4472C57.768 99.3778 57.743 99.2861 57.7569 99.1958L62.6014 68.8236C62.625 68.6722 62.7569 68.5597 62.9097 68.5597H111.396C111.487 68.5597 111.574 68.6 111.633 68.6694C111.693 68.7389 111.718 68.8305 111.704 68.9208L106.86 99.293C106.836 99.4458 106.706 99.5569 106.551 99.5569ZM58.4319 98.9319H106.285L111.029 69.1847H63.1764L58.4319 98.9319ZM97.3902 93.7722H80.7014C80.3958 93.7722 80.1139 93.6472 79.9277 93.4305C79.7444 93.2153 79.668 92.9333 79.7153 92.6389C79.8083 92.0597 80.3486 91.6055 80.9472 91.6055H97.6361C97.9416 91.6055 98.2236 91.7305 98.4097 91.9472C98.593 92.1625 98.6694 92.443 98.6222 92.7361C98.5305 93.318 97.9889 93.7722 97.3902 93.7722ZM80.9486 92.2305C80.6597 92.2305 80.3777 92.4625 80.3347 92.7375C80.3166 92.85 80.3416 92.95 80.4055 93.025C80.4736 93.1041 80.5791 93.1472 80.7027 93.1472H97.3916C97.6805 93.1472 97.9625 92.9139 98.0069 92.6389C98.025 92.5277 98 92.4277 97.9361 92.3527C97.868 92.2736 97.7625 92.2291 97.6375 92.2291H80.9486V92.2305ZM98.4889 86.8889H69.7722C69.4666 86.8889 69.1861 86.7639 69 86.5472C68.8166 86.3319 68.7402 86.0514 68.7875 85.7569C68.8805 85.1764 69.4208 84.7222 70.018 84.7222H98.7347C99.0402 84.7222 99.3222 84.8472 99.5083 85.0639C99.6916 85.2791 99.768 85.5611 99.7208 85.8555C99.6277 86.4347 99.0875 86.8889 98.4889 86.8889ZM70.018 85.3472C69.7291 85.3472 69.4486 85.5805 69.4055 85.8555C69.3875 85.9652 69.4125 86.068 69.4764 86.1416C69.5444 86.2208 69.6486 86.2639 69.7722 86.2639H98.4889C98.7777 86.2639 99.0597 86.0319 99.1027 85.7569C99.1208 85.6444 99.0958 85.5444 99.0319 85.4694C98.9639 85.3902 98.8583 85.3472 98.7347 85.3472H70.018ZM99.5861 80.0055H70.8694C70.5639 80.0055 70.2833 79.8805 70.0986 79.6639C69.9139 79.4486 69.8389 79.1666 69.8861 78.8722C69.9791 78.293 70.5194 77.8389 71.1166 77.8389H99.8333C100.139 77.8389 100.421 77.9639 100.607 78.1805C100.79 78.3958 100.867 78.6764 100.819 78.9694C100.726 79.5514 100.185 80.0055 99.5861 80.0055ZM71.1166 78.4639C70.8277 78.4639 70.5472 78.6958 70.5041 78.9708C70.4861 79.0819 70.5111 79.1847 70.575 79.2583C70.6416 79.3375 70.7472 79.3805 70.8708 79.3805H99.5875C99.8764 79.3805 100.158 79.1472 100.203 78.8722C100.221 78.7611 100.196 78.6611 100.132 78.5875C100.064 78.5083 99.9583 78.4639 99.8333 78.4639H71.1166Z" fill="#FFECE5"/>
<path d="M99.8319 78.1514C100.275 78.1514 100.578 78.4973 100.51 78.9209C100.442 79.3473 100.029 79.6931 99.586 79.6931H70.8694C70.4291 79.6931 70.1263 79.3473 70.1944 78.9209C70.2624 78.4959 70.6749 78.1514 71.1152 78.1514H99.8319Z" fill="#F56630"/>
<path d="M99.5861 80.0125H70.8694C70.5625 80.0125 70.2791 79.8875 70.093 79.6681C69.9083 79.4514 69.8319 79.1681 69.8791 78.8709C69.9722 78.2889 70.5152 77.832 71.1152 77.832H99.8319C100.14 77.832 100.424 77.957 100.611 78.1764C100.796 78.3931 100.872 78.675 100.825 78.9709C100.732 79.5556 100.187 80.0125 99.5861 80.0125ZM71.1166 78.4709C70.8319 78.4709 70.5541 78.7 70.5097 78.9722C70.4916 79.0834 70.5166 79.1806 70.5791 79.2542C70.6458 79.332 70.7486 79.3736 70.8708 79.3736H99.5875C99.8736 79.3736 100.153 79.1431 100.196 78.8709C100.214 78.7611 100.189 78.6639 100.126 78.5903C100.06 78.5125 99.9555 78.4695 99.8333 78.4695H71.1166V78.4709Z" fill="#F56630"/>
<path d="M98.7347 85.0347C99.1778 85.0347 99.4805 85.3806 99.4125 85.807C99.3444 86.232 98.9319 86.5764 98.4889 86.5764H69.7722C69.3319 86.5764 69.0291 86.2306 69.0972 85.807C69.1653 85.3806 69.5778 85.0347 70.0194 85.0347H98.7347Z" fill="#F56630"/>
<path d="M98.4889 86.8944H69.7722C69.4653 86.8944 69.1819 86.7694 68.9958 86.55C68.8111 86.3333 68.7347 86.05 68.7819 85.7555C68.875 85.1722 69.4181 84.7153 70.0181 84.7153H98.7347C99.0431 84.7153 99.3264 84.8403 99.5125 85.0597C99.6972 85.2764 99.7736 85.5597 99.7264 85.8569C99.6333 86.4389 99.0903 86.8944 98.4889 86.8944ZM70.0181 85.3528C69.7333 85.3528 69.4556 85.5833 69.4111 85.8555C69.3931 85.9653 69.4181 86.0625 69.4806 86.1361C69.5472 86.2139 69.65 86.2569 69.7722 86.2569H98.4889C98.775 86.2569 99.0542 86.0278 99.0972 85.7555C99.1153 85.6444 99.0903 85.5472 99.0278 85.4736C98.9611 85.3958 98.8569 85.3528 98.7347 85.3528H70.0181Z" fill="#F56630"/>
<path d="M97.636 91.9181C98.079 91.9181 98.3818 92.2639 98.3137 92.6875C98.2457 93.1139 97.8332 93.4598 97.3901 93.4598H80.7012C80.2582 93.4598 79.9554 93.1139 80.0235 92.6875C80.0915 92.2625 80.504 91.9181 80.9471 91.9181H97.636Z" fill="#F56630"/>
<path d="M97.3902 93.7792H80.7014C80.393 93.7792 80.1097 93.6542 79.9236 93.4347C79.7389 93.2181 79.6625 92.9347 79.7097 92.6375C79.8027 92.0556 80.3458 91.5986 80.9472 91.5986H97.6361C97.9444 91.5986 98.2277 91.7236 98.4152 91.9431C98.6 92.1597 98.6764 92.4417 98.6291 92.7375C98.5361 93.3222 97.9916 93.7792 97.3902 93.7792ZM80.9486 92.2375C80.6625 92.2375 80.3833 92.4667 80.3402 92.7389C80.3222 92.85 80.3472 92.9472 80.4097 93.0209C80.4764 93.0986 80.5805 93.1417 80.7027 93.1417H97.3916C97.6777 93.1417 97.9569 92.9111 98 92.6389C98.018 92.5292 97.993 92.432 97.9305 92.3584C97.8638 92.2806 97.7597 92.2375 97.6375 92.2375H80.9486Z" fill="#F56630"/>
<path d="M88.0874 99.2444L91.3832 103.737H61.361L58.0652 99.2444H88.0874Z" fill="#FA9874"/>
<path d="M91.3832 104.05H61.361C61.261 104.05 61.168 104.003 61.1096 103.922L57.8138 99.4292C57.7443 99.3347 57.7332 99.2083 57.7874 99.1028C57.8402 98.9972 57.9485 98.9319 58.0666 98.9319H88.0888C88.1888 98.9319 88.2818 98.9792 88.3402 99.0597L91.636 103.553C91.7055 103.647 91.7166 103.774 91.6624 103.879C91.6096 103.985 91.5013 104.05 91.3832 104.05ZM61.5193 103.425H90.7666L87.9291 99.5569H58.6832L61.5193 103.425Z" fill="#FFECE5"/>
<path d="M95.9457 108.203L89.1263 100.428L88.0874 99.2444L91.3832 103.737L92.4207 104.921L99.2416 112.697L95.9457 108.203Z" fill="#FA9874"/>
<path d="M99.2416 113.01C99.1541 113.01 99.068 112.974 99.0069 112.903L91.1486 103.944C91.143 103.937 91.1375 103.931 91.1319 103.924L87.8361 99.4305C87.7375 99.2958 87.7625 99.1069 87.893 99.0014C88.0236 98.8972 88.2139 98.9139 88.3236 99.0389L96.1819 107.997C96.1875 108.004 96.193 108.011 96.1986 108.018L99.4944 112.511C99.593 112.646 99.568 112.835 99.4375 112.94C99.3791 112.986 99.3111 113.01 99.2416 113.01Z" fill="#FFECE5"/>
<path d="M106.551 99.2444L109.847 103.737H100.671L97.375 99.2444H106.551Z" fill="#FA9874"/>
<path d="M109.847 104.05H100.671C100.571 104.05 100.478 104.003 100.419 103.922L97.1236 99.4292C97.0542 99.3347 97.043 99.2083 97.0972 99.1028C97.15 98.9972 97.2583 98.9319 97.3764 98.9319H106.553C106.653 98.9319 106.746 98.9792 106.804 99.0597L110.1 103.553C110.169 103.647 110.181 103.774 110.126 103.879C110.074 103.985 109.965 104.05 109.847 104.05ZM100.829 103.425H109.231L106.393 99.5569H97.9917L100.829 103.425Z" fill="#FFECE5"/>
<path d="M62.7013 70.4903C62.6374 70.4903 62.5735 70.4708 62.5193 70.432L43.311 56.632C43.2152 56.5625 43.1666 56.4458 43.1846 56.3292L45.2513 43.3681C45.2638 43.2931 45.3013 43.2264 45.3596 43.1778L60.3916 30.6097L60.6541 30.3917C60.7096 30.3445 60.7805 30.3195 60.8541 30.3195H97.2193C97.311 30.3195 97.3971 30.3597 97.4568 30.4292C97.5166 30.4986 97.5416 30.5903 97.5277 30.6806L93.4221 56.4236C93.4068 56.5167 93.3527 56.5972 93.2707 56.6445L71.8874 69.1431C71.8402 69.1708 71.7846 69.1861 71.7291 69.1861H63.1763L63.0096 70.2278C62.993 70.3347 62.9207 70.425 62.8207 70.4667C62.7832 70.482 62.743 70.4903 62.7013 70.4903ZM43.8318 56.2361L62.4721 69.6292L62.5999 68.8236C62.6235 68.6722 62.7555 68.5597 62.9082 68.5597H71.643L92.8263 56.1778L96.8513 30.9417H60.9666L60.7916 31.0861L45.8499 43.5778L43.8318 56.2361Z" fill="#FFECE5"/>
<path d="M60.5918 30.8472L58.5876 43.4153H45.5598L60.5918 30.8472Z" fill="#FA9874"/>
<path d="M58.5876 43.7278H45.5598C45.4279 43.7278 45.3112 43.6458 45.2668 43.5222C45.2223 43.3986 45.2598 43.2597 45.3598 43.1764L60.3918 30.6083C60.4918 30.525 60.6334 30.5125 60.7459 30.5764C60.8598 30.6403 60.9209 30.768 60.9001 30.8972L58.8959 43.4653C58.8723 43.6167 58.7418 43.7278 58.5876 43.7278ZM46.4209 43.1028H58.3209L60.1515 31.6222L46.4209 43.1028Z" fill="#FFECE5"/>
<path d="M97.4138 25.1778C102.686 25.1778 106.301 29.2986 105.49 34.3833C104.679 39.468 99.7485 43.5889 94.4777 43.5889C89.2055 43.5889 85.5902 39.468 86.4013 34.3833C87.2124 29.2986 92.1416 25.1778 97.4138 25.1778ZM97.9249 28.8653C98.0707 28.2555 97.6374 27.7278 97.0138 27.7278C96.986 27.7278 96.9596 27.7292 96.9318 27.7305C96.318 27.7708 95.7791 28.2792 95.7263 28.8653L94.9166 38.0819C94.8971 38.2903 95.043 38.4611 95.2624 38.4764C95.2721 38.4764 95.2818 38.4778 95.293 38.4778C95.5235 38.4778 95.7443 38.3055 95.7971 38.0819L97.9249 28.8653ZM94.8846 41.0389C95.4471 41.0389 95.9735 40.6 96.0596 40.0569C96.1457 39.5139 95.761 39.075 95.1985 39.075C94.636 39.075 94.1096 39.5139 94.0235 40.0569C93.936 40.5986 94.3221 41.0389 94.8846 41.0389Z" fill="#F56630"/>
<path d="M94.4777 43.9014C91.793 43.9014 89.4402 42.8778 87.8527 41.018C86.3166 39.218 85.6916 36.8444 86.0916 34.3347C86.9249 29.1139 92.0027 24.8653 97.4138 24.8653C100.099 24.8653 102.451 25.8889 104.039 27.7486C105.575 29.5486 106.2 31.9222 105.8 34.4319C104.967 39.6542 99.8874 43.9014 94.4777 43.9014ZM97.4138 25.4903C92.2971 25.4903 87.4957 29.5014 86.7096 34.4333C86.3388 36.7597 86.9138 38.9542 88.3291 40.6125C89.7943 42.3305 91.9791 43.2764 94.4777 43.2764C99.5943 43.2764 104.396 39.2653 105.182 34.3333C105.553 32.0069 104.978 29.8125 103.562 28.1542C102.097 26.4361 99.9124 25.4903 97.4138 25.4903ZM94.8846 41.3514C94.5207 41.3514 94.1846 41.2042 93.9652 40.9458C93.7471 40.6903 93.6582 40.3569 93.7138 40.0069C93.8207 39.3403 94.418 38.8125 95.0985 38.7653C94.9652 38.7292 94.8485 38.6569 94.7596 38.5528C94.643 38.4153 94.5874 38.2389 94.6055 38.0542L95.4152 28.8389C95.4818 28.0944 96.1388 27.4722 96.911 27.4208C96.9443 27.418 96.9791 27.4167 97.0138 27.4167C97.4124 27.4167 97.7763 27.5861 98.0096 27.8833C98.2388 28.175 98.3193 28.5583 98.2291 28.9375L96.0999 38.1542C96.0235 38.4764 95.743 38.7278 95.418 38.7819C95.6943 38.8292 95.9416 38.9639 96.1152 39.1694C96.3332 39.425 96.4221 39.7583 96.3666 40.1083C96.2569 40.8042 95.6041 41.3514 94.8846 41.3514ZM95.1971 39.3861C94.7902 39.3861 94.393 39.7153 94.3305 40.1055C94.3041 40.2722 94.343 40.4264 94.4402 40.5403C94.543 40.6597 94.6999 40.7264 94.8846 40.7264C95.2916 40.7264 95.6888 40.3972 95.7513 40.0069C95.7777 39.8403 95.7388 39.6861 95.6416 39.5722C95.5388 39.4528 95.3805 39.3861 95.1971 39.3861ZM97.0138 28.0403C96.9943 28.0403 96.9749 28.0417 96.9541 28.043C96.4943 28.0736 96.0763 28.4625 96.0374 28.893L95.2277 38.1097C95.2263 38.1264 95.2291 38.1389 95.236 38.1472C95.2443 38.1569 95.2624 38.1639 95.2832 38.1653C95.3777 38.1653 95.4721 38.0917 95.4916 38.0111L97.6207 28.7958C97.6207 28.7944 97.6207 28.7944 97.6207 28.793C97.668 28.5986 97.6305 28.4125 97.5193 28.2694C97.4041 28.1236 97.2207 28.0403 97.0138 28.0403Z" fill="#FFECE5"/>
<path d="M95.1971 39.0736C95.7596 39.0736 96.1457 39.5125 96.0582 40.0556C95.9707 40.5986 95.4457 41.0375 94.8832 41.0375C94.3207 41.0375 93.9346 40.5986 94.0221 40.0556C94.1096 39.5125 94.6346 39.0736 95.1971 39.0736Z" fill="#FFECE5"/>
<path d="M94.8846 41.1083C94.5874 41.1083 94.3262 40.9944 94.1499 40.7875C93.979 40.5875 93.9096 40.3236 93.954 40.0458C94.0457 39.4722 94.604 39.0056 95.1971 39.0056C95.4943 39.0056 95.7554 39.1194 95.9318 39.3264C96.1026 39.5264 96.1721 39.7903 96.1276 40.0694C96.036 40.6403 95.4776 41.1083 94.8846 41.1083ZM95.1971 39.1431C94.6679 39.1431 94.1721 39.5569 94.0901 40.0667C94.0526 40.3042 94.111 40.5278 94.254 40.6972C94.404 40.8722 94.6262 40.9694 94.8832 40.9694C95.4124 40.9694 95.9082 40.5556 95.9901 40.0458C96.0276 39.8083 95.9693 39.5847 95.8262 39.4153C95.6762 39.2403 95.454 39.1431 95.1971 39.1431Z" fill="#FFECE5"/>
<path d="M97.0137 27.7278C97.6373 27.7278 98.0706 28.2542 97.9248 28.8653L95.7956 38.0819C95.7428 38.3056 95.522 38.4778 95.2914 38.4778C95.2817 38.4778 95.272 38.4778 95.2609 38.4764C95.0415 38.4611 94.8956 38.2903 94.9151 38.0819L95.7248 28.8653C95.7776 28.2792 96.3165 27.7722 96.9303 27.7306C96.9595 27.7292 96.9859 27.7278 97.0137 27.7278Z" fill="#FFECE5"/>
<path d="M95.2914 38.5472C95.2803 38.5472 95.2678 38.5472 95.2567 38.5458C95.1303 38.5375 95.0192 38.4833 94.9442 38.3944C94.8706 38.3083 94.8359 38.1944 94.847 38.075L95.6567 28.8583C95.7123 28.2417 96.2817 27.7042 96.9262 27.6611C97.2831 27.6347 97.6137 27.7736 97.8178 28.0319C98.0012 28.2653 98.0651 28.5736 97.9914 28.8806L95.8623 38.0972C95.8039 38.3542 95.5581 38.5472 95.2914 38.5472ZM97.0137 27.7972C96.9887 27.7972 96.9623 27.7986 96.9359 27.8C96.3553 27.8389 95.8442 28.3194 95.7956 28.8708L94.9859 38.0875C94.9789 38.1694 95.0012 38.2458 95.0512 38.3042C95.1026 38.3639 95.1789 38.4014 95.2678 38.4069C95.4692 38.4194 95.6831 38.2653 95.7289 38.0667L97.8581 28.85C97.922 28.5806 97.8706 28.3208 97.7109 28.1194C97.5484 27.9153 97.2942 27.7972 97.0137 27.7972Z" fill="#FFECE5"/>
</svg>
