<svg width="150" height="150" viewBox="0 0 150 150" fill="none" xmlns="http://www.w3.org/2000/svg">
<path d="M75 128.201C103.319 128.201 126.276 119.195 126.276 108.086C126.276 96.9767 103.319 87.9708 75 87.9708C46.6809 87.9708 23.7236 96.9767 23.7236 108.086C23.7236 119.195 46.6809 128.201 75 128.201Z" fill="#FFECE5"/>
<path d="M79.139 45.7931L77.4167 56.5903H66.2223L79.0737 45.7931H79.139Z" fill="#FA9874"/>
<path d="M77.4168 56.9028H66.2223C66.0904 56.9028 65.9737 56.8208 65.9292 56.6972C65.8848 56.5736 65.9209 56.4361 66.0223 56.3514L78.8737 45.5542C78.9306 45.5069 79.0015 45.4806 79.0751 45.4806H79.1404C79.232 45.4806 79.3181 45.5208 79.3779 45.5903C79.4376 45.6597 79.4626 45.7514 79.4487 45.8417L77.7265 56.6389C77.7015 56.7917 77.5709 56.9028 77.4168 56.9028ZM67.0806 56.2778H77.1501L78.7084 46.5083L67.0806 56.2778Z" fill="#FFECE5"/>
<path d="M113.974 49.4805L113.271 53.8833L105.6 101.979L108.972 102.642L116.128 57.7791L116.831 53.375L113.974 49.4805Z" fill="#FCD2C2"/>
<path d="M108.972 102.954C108.953 102.954 108.932 102.953 108.913 102.949L105.54 102.286C105.375 102.254 105.265 102.096 105.292 101.931L113.665 49.4305C113.685 49.3055 113.778 49.2055 113.9 49.1764C114.022 49.1472 114.151 49.193 114.225 49.2958L117.082 53.1903C117.132 53.2569 117.151 53.3416 117.139 53.4236L109.282 102.69C109.268 102.774 109.222 102.849 109.153 102.897C109.099 102.935 109.036 102.954 108.972 102.954ZM105.957 101.731L108.715 102.272L116.501 53.4541L114.164 50.268L105.957 101.731Z" fill="#FFECE5"/>
<path d="M113.974 49.4806L113.271 53.8847L104.304 110.108L92.1139 108.96L56.4362 106.521C56.4362 106.521 64.3653 65.1958 64.4292 64.5917L65.1167 60.2778H76.3112L78.0334 49.4806H113.974Z" fill="#FFECE5"/>
<path d="M104.304 110.419C104.294 110.419 104.285 110.419 104.275 110.418L92.0848 109.269L56.4153 106.831C56.3264 106.825 56.2431 106.781 56.1889 106.71C56.1348 106.639 56.1125 106.549 56.1292 106.46C58.8612 92.225 64.0445 65.1486 64.1181 64.5556C64.1181 64.5514 64.1195 64.5445 64.1195 64.5403L64.807 60.2264C64.8306 60.075 64.9625 59.9625 65.1153 59.9625H76.0431L77.7223 49.4292C77.7459 49.2778 77.8778 49.1653 78.0306 49.1653H113.971C114.063 49.1653 114.149 49.2056 114.208 49.275C114.268 49.3445 114.293 49.4361 114.279 49.5264L104.61 110.153C104.589 110.31 104.457 110.419 104.304 110.419ZM56.8098 106.232L92.1362 108.647L104.042 109.769L113.607 49.7931H78.3L76.6209 60.3264C76.5973 60.4778 76.4653 60.5903 76.3125 60.5903H65.3848L64.7389 64.6389C64.5917 65.6611 57.6223 101.994 56.8098 106.232Z" fill="#FFECE5"/>
<path d="M74.3667 42.3459L72.6445 53.1417H61.4501L74.3015 42.3459H74.3667Z" fill="#FA9874"/>
<path d="M72.6445 53.4542H61.4501C61.3181 53.4542 61.2015 53.3722 61.157 53.2486C61.1126 53.125 61.1487 52.9875 61.2501 52.9028L74.1015 42.1056C74.1584 42.0583 74.2293 42.032 74.3029 42.032H74.3681C74.4598 42.032 74.5459 42.0722 74.6056 42.1417C74.6654 42.2111 74.6904 42.3028 74.6765 42.3931L72.9543 53.1903C72.9293 53.3431 72.7987 53.4542 72.6445 53.4542ZM62.3084 52.8292H72.3779L73.9362 43.0597L62.3084 52.8292Z" fill="#FFECE5"/>
<path d="M109.754 44.1889L109.051 48.5916L101.381 96.6875L104.753 97.35L111.908 52.4875L112.611 48.0833L109.754 44.1889Z" fill="#FCD2C2"/>
<path d="M104.753 97.6625C104.733 97.6625 104.713 97.6611 104.693 97.6569L101.321 96.9944C101.156 96.9625 101.046 96.8042 101.072 96.6389L109.446 44.1389C109.465 44.0139 109.558 43.9139 109.681 43.8847C109.803 43.8555 109.932 43.9014 110.006 44.0042L112.863 47.8986C112.913 47.9653 112.932 48.05 112.92 48.1333L105.063 97.4C105.049 97.4833 105.003 97.5583 104.933 97.6069C104.879 97.6431 104.817 97.6625 104.753 97.6625ZM101.738 96.4389L104.496 96.9806L112.282 48.1625L109.944 44.9764L101.738 96.4389Z" fill="#FFECE5"/>
<path d="M109.754 44.1889L109.051 48.593L100.085 104.817L87.8945 103.668L52.2167 101.229C52.2167 101.229 60.1458 59.9042 60.2097 59.3L60.8972 54.9861H72.0917L73.8139 44.1889H109.754Z" fill="#FFECE5"/>
<path d="M100.085 105.128C100.075 105.128 100.065 105.128 100.056 105.126L87.8653 103.978L52.1958 101.539C52.1069 101.533 52.0236 101.489 51.9694 101.418C51.9153 101.347 51.8931 101.257 51.9097 101.168C54.6417 86.9333 59.825 59.8569 59.8986 59.2639C59.8986 59.2597 59.9 59.2528 59.9 59.2486L60.5875 54.9347C60.6111 54.7833 60.7431 54.6708 60.8958 54.6708H71.8236L73.5042 44.1375C73.5278 43.9861 73.6597 43.8736 73.8125 43.8736H109.753C109.844 43.8736 109.931 43.9139 109.99 43.9833C110.05 44.0528 110.075 44.1444 110.061 44.2347L100.392 104.861C100.369 105.018 100.238 105.128 100.085 105.128ZM52.5903 100.94L87.9167 103.356L99.8222 104.478L109.388 44.5014H74.0806L72.4 55.0347C72.3764 55.1861 72.2444 55.2986 72.0917 55.2986H61.1639L60.5181 59.3472C60.3722 60.3694 53.4028 96.7028 52.5903 100.94Z" fill="#FFECE5"/>
<path d="M69.5945 38.8972L67.8723 49.6931H56.6779L69.5292 38.8972H69.5945Z" fill="#FA9874"/>
<path d="M67.8723 50.0055H56.6779C56.5459 50.0055 56.4293 49.9236 56.3848 49.8C56.3404 49.6764 56.3765 49.5389 56.4779 49.4541L69.3293 38.6569C69.3862 38.6097 69.457 38.5833 69.5306 38.5833H69.5959C69.6876 38.5833 69.7737 38.6236 69.8334 38.693C69.8931 38.7625 69.9181 38.8541 69.9043 38.9444L68.182 49.7417C68.157 49.8944 68.0265 50.0055 67.8723 50.0055ZM57.5362 49.3805H67.6056L69.164 39.6111L57.5362 49.3805Z" fill="#FFECE5"/>
<path d="M105.535 38.8972L104.832 43.3L97.1613 91.3958L100.535 92.0583L107.689 47.1958L108.392 42.7917L105.535 38.8972Z" fill="#FCD2C2"/>
<path d="M100.535 92.3708C100.515 92.3708 100.495 92.3695 100.475 92.3653L97.1029 91.7028C96.9376 91.6708 96.8279 91.5125 96.8543 91.3472L105.228 38.8472C105.247 38.7222 105.34 38.6222 105.463 38.5931C105.585 38.5639 105.714 38.6097 105.788 38.7125L108.645 42.6069C108.695 42.6736 108.714 42.7583 108.701 42.8417L100.845 92.1083C100.831 92.1917 100.785 92.2667 100.715 92.3153C100.66 92.3514 100.597 92.3708 100.535 92.3708ZM97.5181 91.1472L100.276 91.6889L108.063 42.8708L105.725 39.6847L97.5181 91.1472Z" fill="#FFECE5"/>
<path d="M105.535 38.8972L104.832 43.3014L95.8654 99.525L83.6751 98.3764L47.9973 95.9375C47.9973 95.9375 55.9265 54.6125 55.9904 54.0083L56.6779 49.6944H67.8723L69.5945 38.8972H105.535Z" fill="#FFECE5"/>
<path d="M95.8654 99.8361C95.8556 99.8361 95.8459 99.8361 95.8362 99.8347L83.6459 98.6861L47.9765 96.2472C47.8876 96.2417 47.8043 96.1972 47.7501 96.1264C47.6959 96.0555 47.6737 95.9653 47.6904 95.8764C50.4209 81.6417 55.6056 54.5653 55.6793 53.9722C55.6793 53.968 55.6806 53.9611 55.6806 53.9569L56.3681 49.643C56.3918 49.4917 56.5237 49.3792 56.6765 49.3792H67.6043L69.2848 38.8458C69.3084 38.6944 69.4404 38.5819 69.5931 38.5819H105.533C105.625 38.5819 105.711 38.6222 105.771 38.6917C105.831 38.7611 105.856 38.8528 105.842 38.9431L96.1723 99.5694C96.1501 99.7264 96.0181 99.8361 95.8654 99.8361ZM48.3709 95.6486L83.6973 98.0639L95.6029 99.1861L105.168 39.2097H69.8612L68.1806 49.743C68.157 49.8944 68.0251 50.0069 67.8723 50.0069H56.9445L56.2987 54.0556C56.1529 55.0819 49.1848 91.4111 48.3709 95.6486Z" fill="#FFECE5"/>
<path d="M60.1611 54.175L63.0181 58.0694C63.4389 58.643 63.6292 59.3889 63.4986 60.2055C63.3681 61.0222 63.5584 61.7694 63.9792 62.343L61.1222 58.4486C60.7014 57.875 60.5111 57.1278 60.6417 56.3111C60.7722 55.4944 60.582 54.7486 60.1611 54.175Z" fill="#FA9874"/>
<path d="M63.9806 62.6555C63.8847 62.6555 63.7889 62.6111 63.7278 62.5278L60.8709 58.6333C60.3861 57.9722 60.1945 57.1292 60.3334 56.2611C60.4445 55.5611 60.2945 54.8861 59.9097 54.3611L59.9084 54.3597C59.807 54.2208 59.8361 54.025 59.975 53.9222C60.1139 53.8208 60.3097 53.85 60.4125 53.9889C60.4125 53.9903 60.4139 53.9903 60.4139 53.9903L63.2695 57.8833C63.7542 58.5444 63.9445 59.3861 63.807 60.2528C63.6959 60.9542 63.8459 61.6292 64.2292 62.1542L64.2306 62.1569C64.332 62.2958 64.3028 62.4917 64.1639 62.5944C64.1097 62.6361 64.0445 62.6555 63.9806 62.6555ZM60.9945 55.8389C60.9931 56.0111 60.9792 56.1847 60.9514 56.3597C60.8389 57.0611 60.9903 57.7375 61.3764 58.2639L63.1472 60.6792C63.1486 60.5069 63.1625 60.3319 63.1917 60.1569C63.3042 59.4555 63.1528 58.7805 62.7681 58.2555L60.9945 55.8389Z" fill="#FFECE5"/>
<mask id="mask0_8802_27497" style="mask-type:luminance" maskUnits="userSpaceOnUse" x="60" y="54" width="4" height="9">
<mask id="mask1_8802_27497" style="mask-type:luminance" maskUnits="userSpaceOnUse" x="60" y="54" width="4" height="9">
<path d="M60.1611 54.175L63.0181 58.0694C63.4389 58.643 63.6292 59.3889 63.4986 60.2055C63.3681 61.0222 63.5584 61.7694 63.9792 62.343L61.1222 58.4486C60.7014 57.875 60.5111 57.1278 60.6417 56.3111C60.7722 55.4944 60.582 54.7486 60.1611 54.175Z" fill="white"/>
</mask>
<g mask="url(#mask1_8802_27497)">
<path d="M63.9806 62.6555C63.8847 62.6555 63.7889 62.6111 63.7278 62.5278L60.8709 58.6333C60.3861 57.9722 60.1945 57.1292 60.3334 56.2611C60.4445 55.5611 60.2945 54.8861 59.9097 54.3611L59.9084 54.3597C59.807 54.2208 59.8361 54.025 59.975 53.9222C60.1139 53.8208 60.3097 53.85 60.4125 53.9889C60.4125 53.9903 60.4139 53.9903 60.4139 53.9903L63.2695 57.8833C63.7542 58.5444 63.9445 59.3861 63.807 60.2528C63.6959 60.9542 63.8459 61.6292 64.2292 62.1542L64.2306 62.1569C64.332 62.2958 64.3028 62.4917 64.1639 62.5944C64.1097 62.6361 64.0445 62.6555 63.9806 62.6555ZM60.9945 55.8389C60.9931 56.0111 60.9792 56.1847 60.9514 56.3597C60.8389 57.0611 60.9903 57.7375 61.3764 58.2639L63.1472 60.6792C63.1486 60.5069 63.1625 60.3319 63.1917 60.1569C63.3042 59.4555 63.1528 58.7805 62.7681 58.2555L60.9945 55.8389Z" fill="white"/>
</g>
</mask>
<g mask="url(#mask0_8802_27497)">
<path d="M60.1611 54.175L63.0181 58.0694C63.0403 58.1 63.0625 58.1319 63.0847 58.1639L60.2278 54.2694C60.207 54.2375 60.1847 54.2055 60.1611 54.175Z" fill="#FA9874"/>
<path d="M63.0847 58.4764C62.9889 58.4764 62.8931 58.4319 62.832 58.3486L59.975 54.4542C59.9486 54.4153 59.9292 54.3875 59.9084 54.3597C59.807 54.2208 59.8361 54.025 59.975 53.9236C60.1139 53.8208 60.3097 53.8514 60.4125 53.9903L63.2695 57.8847C63.2945 57.9194 63.3195 57.9542 63.3431 57.9903C63.4375 58.1319 63.4014 58.3222 63.2625 58.4194C63.2097 58.4583 63.1472 58.4764 63.0847 58.4764Z" fill="#FFECE5"/>
<path d="M60.2278 54.2694L63.0847 58.1639C63.1403 58.2472 63.1917 58.3347 63.2389 58.425L60.3819 54.5306C60.3347 54.4403 60.2833 54.3528 60.2278 54.2694Z" fill="#FA9874"/>
<path d="M63.2389 58.7375C63.1431 58.7375 63.0473 58.693 62.9861 58.6097L60.1292 54.7153C60.1195 54.7014 60.1111 54.6875 60.1028 54.6736C60.0625 54.5944 60.0167 54.5167 59.9667 54.443C59.8723 54.3014 59.9084 54.1111 60.0473 54.0139C60.1861 53.9167 60.3778 53.9486 60.4778 54.0847L63.3348 57.9792C63.4056 58.0833 63.4625 58.1819 63.5139 58.2819C63.5889 58.4264 63.5389 58.6042 63.4 58.6903C63.3514 58.7222 63.2945 58.7375 63.2389 58.7375Z" fill="#FFECE5"/>
<path d="M60.382 54.5305L63.2389 58.425C63.2903 58.525 63.3347 58.6278 63.3736 58.7347L60.5167 54.8403C60.4778 54.7333 60.432 54.6305 60.382 54.5305Z" fill="#FA9874"/>
<path d="M63.3736 59.0472C63.2764 59.0472 63.182 59.0028 63.1208 58.9194L60.2639 55.025C60.2458 55.0014 60.232 54.975 60.2222 54.9472C60.1889 54.8542 60.1486 54.7625 60.1028 54.6736C60.0278 54.5292 60.0778 54.3514 60.2167 54.2653C60.3556 54.1792 60.5361 54.2153 60.6333 54.3458L63.4903 58.2403C63.5 58.2542 63.5083 58.2681 63.5167 58.2819C63.5736 58.3931 63.625 58.5097 63.6667 58.6278C63.7195 58.7736 63.657 58.9361 63.5195 59.0097C63.4736 59.0361 63.4236 59.0472 63.3736 59.0472Z" fill="#FFECE5"/>
<path d="M60.5167 54.8403L63.3737 58.7347C63.4209 58.8653 63.4584 59 63.4862 59.1389L60.6292 55.2444C60.6014 55.1055 60.5639 54.9708 60.5167 54.8403Z" fill="#FA9874"/>
<path d="M63.4861 59.4528C63.3889 59.4528 63.2945 59.4069 63.2334 59.325L60.3764 55.4306C60.35 55.3931 60.3306 55.3514 60.3223 55.3056C60.2986 55.1833 60.2653 55.0625 60.2223 54.9472C60.1695 54.8014 60.232 54.6389 60.3695 54.5653C60.507 54.4917 60.6764 54.5306 60.7681 54.6556L63.625 58.55C63.6431 58.5736 63.657 58.6 63.6667 58.6278C63.7195 58.7736 63.7611 58.925 63.7917 59.0792C63.8195 59.2222 63.7445 59.3667 63.6111 59.425C63.5709 59.4444 63.5278 59.4528 63.4861 59.4528Z" fill="#FFECE5"/>
<path d="M60.6292 55.2444L63.4861 59.1389C63.5514 59.4722 63.5598 59.8319 63.5 60.2041C63.4403 60.5777 63.4472 60.9361 63.5139 61.2694L60.657 57.375C60.5917 57.0416 60.5834 56.6833 60.6431 56.3097C60.7014 55.9375 60.6945 55.5791 60.6292 55.2444Z" fill="#FA9874"/>
<path d="M63.5126 61.5833C63.4153 61.5833 63.3209 61.5375 63.2598 61.4555L60.4028 57.5611C60.3751 57.5236 60.357 57.4819 60.3487 57.4361C60.2751 57.0583 60.2695 56.6625 60.3334 56.2611C60.3862 55.9319 60.382 55.6111 60.3223 55.3055C60.2945 55.1625 60.3695 55.018 60.5028 54.9597C60.6362 54.9014 60.7931 54.943 60.8806 55.0611L63.7376 58.9555C63.764 58.993 63.7834 59.0347 63.7917 59.0805C63.8667 59.4583 63.8723 59.8541 63.807 60.2555C63.7542 60.5847 63.7584 60.9055 63.8181 61.2111C63.8459 61.3541 63.7709 61.4986 63.6376 61.5569C63.5973 61.575 63.5556 61.5833 63.5126 61.5833ZM60.9501 57.2486L63.1723 60.2791C63.1778 60.2389 63.1834 60.1972 63.1903 60.1555C63.239 59.8514 63.239 59.5514 63.1903 59.2666L60.9681 56.2361C60.9626 56.2764 60.957 56.318 60.9501 56.3583C60.9028 56.6639 60.9028 56.9625 60.9501 57.2486Z" fill="#FFECE5"/>
<path d="M60.6556 57.375L63.5126 61.2694C63.5404 61.4083 63.5779 61.5444 63.6251 61.675L60.7681 57.7805C60.7209 57.65 60.6834 57.5152 60.6556 57.375Z" fill="#FA9874"/>
<path d="M63.625 61.9889C63.5278 61.9889 63.4334 61.9444 63.3723 61.8611L60.5153 57.9666C60.4972 57.943 60.4834 57.9166 60.4736 57.8875C60.4209 57.7416 60.3792 57.5903 60.3486 57.4361C60.3209 57.293 60.3959 57.1486 60.5292 57.0903C60.6639 57.0319 60.8195 57.0736 60.907 57.1916L63.7639 61.0861C63.7917 61.1236 63.8097 61.1653 63.8181 61.2111C63.8417 61.3333 63.875 61.4541 63.9181 61.5708C63.9709 61.7166 63.9084 61.8791 63.7709 61.9528C63.725 61.9764 63.675 61.9889 63.625 61.9889Z" fill="#FFECE5"/>
<path d="M60.7681 57.7805L63.625 61.675C63.6639 61.7819 63.7083 61.8861 63.7597 61.9847L60.9028 58.0903C60.8514 57.9917 60.807 57.8875 60.7681 57.7805Z" fill="#FA9874"/>
<path d="M63.7597 62.2986C63.6639 62.2986 63.568 62.2541 63.5069 62.1708L60.65 58.2764C60.6403 58.2625 60.6319 58.2486 60.6236 58.2347C60.5666 58.1236 60.5153 58.0069 60.4736 57.8889C60.4208 57.743 60.4833 57.5805 60.6208 57.5069C60.7583 57.4333 60.9278 57.4722 61.0194 57.5972L63.8764 61.4916C63.8944 61.5153 63.9083 61.5416 63.918 61.5708C63.9514 61.6639 63.9916 61.7569 64.0375 61.8444C64.1125 61.9889 64.0625 62.1666 63.9236 62.2528C63.8736 62.2833 63.8166 62.2986 63.7597 62.2986Z" fill="#FFECE5"/>
<path d="M60.9028 58.0917L63.7598 61.9861C63.8056 62.0764 63.857 62.1639 63.9139 62.2472L61.057 58.3528C61.0001 58.2681 60.9501 58.182 60.9028 58.0917Z" fill="#FA9874"/>
<path d="M63.9139 62.5597C63.8181 62.5597 63.7222 62.5153 63.6611 62.4319L60.8042 58.5375C60.7333 58.4333 60.6764 58.3347 60.625 58.2333C60.55 58.0889 60.6 57.9111 60.7389 57.825C60.8778 57.7389 61.0583 57.775 61.1556 57.9056L64.0125 61.8C64.0222 61.8139 64.0306 61.8278 64.0389 61.8417C64.0792 61.9208 64.125 61.9986 64.175 62.0722C64.2694 62.2139 64.2333 62.4042 64.0945 62.5014C64.0375 62.5417 63.975 62.5597 63.9139 62.5597Z" fill="#FFECE5"/>
<path d="M61.0569 58.3528L63.9138 62.2472C63.9361 62.2791 63.9583 62.3111 63.9805 62.343L61.1236 58.4486C61.0999 58.4166 61.0777 58.3847 61.0569 58.3528Z" fill="#FA9874"/>
<path d="M63.9806 62.6555C63.8847 62.6555 63.7903 62.6111 63.7292 62.5278V62.5264C63.7292 62.525 63.7278 62.525 63.7278 62.5236L60.8736 58.6319C60.8486 58.5972 60.8236 58.5611 60.7986 58.525C60.7042 58.3833 60.7403 58.193 60.8792 58.0958C61.0181 57.9986 61.2097 58.0305 61.3097 58.1666L64.1667 62.0611C64.1931 62.1 64.2111 62.1264 64.2306 62.1528L64.2319 62.1555C64.3333 62.2944 64.3042 62.4903 64.1653 62.5916C64.1097 62.6361 64.0444 62.6555 63.9806 62.6555Z" fill="#FFECE5"/>
</g>
<path d="M66.3723 63.7944C65.282 63.7944 64.3181 63.3333 63.7278 62.5278L60.8709 58.6333C60.7695 58.4944 60.7987 58.2986 60.9375 58.1958C61.0764 58.093 61.2723 58.1236 61.375 58.2625L61.3764 58.2639C61.8473 58.9055 62.6264 59.2736 63.5153 59.2736C63.6153 59.2736 63.7084 59.3208 63.7667 59.4014L66.6237 63.2958C66.6931 63.3903 66.7042 63.5167 66.65 63.6222C66.5973 63.7278 66.4903 63.7944 66.3723 63.7944ZM62.4625 59.7458L64.232 62.1583C64.5806 62.6333 65.0959 62.9583 65.7014 63.0958L63.3542 59.8958C63.0431 59.8819 62.7445 59.8319 62.4625 59.7458Z" fill="#FFECE5"/>
<mask id="mask2_8802_27497" style="mask-type:luminance" maskUnits="userSpaceOnUse" x="60" y="58" width="7" height="6">
<path d="M66.3723 63.7944C65.282 63.7944 64.3181 63.3333 63.7278 62.5278L60.8709 58.6333C60.7695 58.4944 60.7987 58.2986 60.9375 58.1958C61.0764 58.093 61.2723 58.1236 61.375 58.2625L61.3764 58.2639C61.8473 58.9055 62.6264 59.2736 63.5153 59.2736C63.6153 59.2736 63.7084 59.3208 63.7667 59.4014L66.6237 63.2958C66.6931 63.3903 66.7042 63.5167 66.65 63.6222C66.5973 63.7278 66.4903 63.7944 66.3723 63.7944ZM62.4625 59.7458L64.232 62.1583C64.5806 62.6333 65.0959 62.9583 65.7014 63.0958L63.3542 59.8958C63.0431 59.8819 62.7445 59.8319 62.4625 59.7458Z" fill="white"/>
</mask>
<g mask="url(#mask2_8802_27497)">
<path d="M63.5153 59.5861L66.3723 63.4805C65.3431 63.4805 64.4917 63.0389 63.9806 62.3416L61.1237 58.4472C61.6348 59.1458 62.4862 59.5861 63.5153 59.5861Z" fill="#645D5D"/>
<path d="M66.3723 63.7944C65.282 63.7944 64.3181 63.3333 63.7278 62.5278L60.8709 58.6333C60.7695 58.4944 60.7987 58.2986 60.9375 58.1958C61.0764 58.093 61.2723 58.1236 61.375 58.2625L61.3764 58.2639C61.8473 58.9055 62.6264 59.2736 63.5153 59.2736C63.6153 59.2736 63.7084 59.3208 63.7667 59.4014L66.6237 63.2958C66.6931 63.3903 66.7042 63.5167 66.65 63.6222C66.5973 63.7278 66.4903 63.7944 66.3723 63.7944ZM62.4625 59.7458L64.232 62.1583C64.5806 62.6333 65.0959 62.9583 65.7014 63.0958L63.3542 59.8958C63.0431 59.8819 62.7445 59.8319 62.4625 59.7458Z" fill="#FFECE5"/>
</g>
<path d="M90.5043 59.5861L93.3612 63.4819H66.3723L63.5154 59.5861H90.5043Z" fill="#645D5D"/>
<path d="M93.3612 63.7944H66.3723C66.2723 63.7944 66.1793 63.7472 66.1209 63.6667L63.264 59.7722C63.1945 59.6778 63.1834 59.5514 63.2376 59.4458C63.2904 59.3403 63.3987 59.275 63.5168 59.275H90.5056C90.6056 59.275 90.6987 59.3222 90.757 59.4028L93.614 63.2972C93.6834 63.3917 93.6945 63.518 93.6404 63.6236C93.5862 63.7278 93.4793 63.7944 93.3612 63.7944ZM66.5306 63.1694H92.7445L90.3459 59.9H64.132L66.5306 63.1694Z" fill="#FFECE5"/>
<path d="M95.7543 64.9319C95.6584 64.9319 95.5626 64.8875 95.5015 64.8041C95.0306 64.1611 94.2501 63.793 93.3612 63.793C93.2612 63.793 93.1682 63.7458 93.1098 63.6653L90.2529 59.7708C90.1834 59.6764 90.1723 59.55 90.2265 59.4444C90.2793 59.3389 90.3876 59.2736 90.5057 59.2736C91.5959 59.2736 92.5598 59.7347 93.1501 60.5403L96.007 64.4347C96.1084 64.5736 96.0793 64.7694 95.9404 64.8722C95.882 64.9125 95.8181 64.9319 95.7543 64.9319ZM93.5223 63.1722C93.8334 63.1847 94.132 63.2361 94.414 63.3222L92.6445 60.9097C92.2959 60.4347 91.7793 60.1097 91.1751 59.9722L93.5223 63.1722Z" fill="#FFECE5"/>
<mask id="mask3_8802_27497" style="mask-type:luminance" maskUnits="userSpaceOnUse" x="90" y="59" width="7" height="6">
<path d="M95.7543 64.9319C95.6584 64.9319 95.5626 64.8875 95.5015 64.8041C95.0306 64.1611 94.2501 63.793 93.3612 63.793C93.2612 63.793 93.1682 63.7458 93.1098 63.6653L90.2529 59.7708C90.1834 59.6764 90.1723 59.55 90.2265 59.4444C90.2793 59.3389 90.3876 59.2736 90.5057 59.2736C91.5959 59.2736 92.5598 59.7347 93.1501 60.5403L96.007 64.4347C96.1084 64.5736 96.0793 64.7694 95.9404 64.8722C95.882 64.9125 95.8181 64.9319 95.7543 64.9319ZM93.5223 63.1722C93.8334 63.1847 94.132 63.2361 94.414 63.3222L92.6445 60.9097C92.2959 60.4347 91.7793 60.1097 91.1751 59.9722L93.5223 63.1722Z" fill="white"/>
</mask>
<g mask="url(#mask3_8802_27497)">
<path d="M92.8959 60.725L95.7529 64.6194C95.2418 63.9222 94.3904 63.4805 93.3612 63.4805L90.5043 59.5861C91.5334 59.5861 92.3848 60.0278 92.8959 60.725Z" fill="#645D5D"/>
<path d="M95.7543 64.9319C95.6584 64.9319 95.5626 64.8875 95.5015 64.8041C95.0306 64.1611 94.2501 63.793 93.3612 63.793C93.2612 63.793 93.1682 63.7458 93.1098 63.6653L90.2529 59.7708C90.1834 59.6764 90.1723 59.55 90.2265 59.4444C90.2793 59.3389 90.3876 59.2736 90.5057 59.2736C91.5959 59.2736 92.5598 59.7347 93.1501 60.5403L96.007 64.4347C96.1084 64.5736 96.0793 64.7694 95.9404 64.8722C95.882 64.9125 95.8181 64.9319 95.7543 64.9319ZM93.5223 63.1722C93.8334 63.1847 94.132 63.2361 94.414 63.3222L92.6445 60.9097C92.2959 60.4347 91.7793 60.1097 91.1751 59.9722L93.5223 63.1722Z" fill="#FFECE5"/>
</g>
<path d="M78.1945 78.6319L76.675 88.1639H48.3931L49.9139 78.6319H78.1945Z" fill="#FFECE5"/>
<path d="M96.2694 66.3709C96.2722 66.3084 96.2736 66.2445 96.2722 66.182C96.2708 66.1445 96.268 66.1097 96.2653 66.0722C96.2625 66.0167 96.2583 65.9611 96.2514 65.907C96.2472 65.8695 96.2403 65.832 96.2347 65.7945C96.2291 65.7597 96.2264 65.725 96.2194 65.6917C96.2153 65.6722 96.2097 65.6528 96.2055 65.6334C96.2 65.607 96.193 65.5806 96.1875 65.5556C96.1722 65.4959 96.1555 65.4361 96.1375 65.3792C96.1305 65.357 96.1236 65.3361 96.1166 65.3139C96.1139 65.3056 96.1111 65.2959 96.1083 65.2875C96.1014 65.2667 96.0903 65.2486 96.0819 65.2278C96.0541 65.157 96.025 65.0875 95.9916 65.0209C95.9847 65.007 95.9805 64.9917 95.9722 64.9778C95.9625 64.9584 95.95 64.9403 95.9389 64.9209C95.9111 64.8709 95.8819 64.8209 95.8514 64.7722C95.8403 64.7542 95.8305 64.7347 95.818 64.7167C95.7972 64.6847 95.775 64.6528 95.7514 64.6209L92.8944 60.7264C92.9305 60.775 92.9625 60.8264 92.9944 60.8778C93.025 60.9264 93.0541 60.975 93.0819 61.0264C93.1 61.0597 93.118 61.0931 93.1347 61.1264C93.168 61.1931 93.1972 61.2625 93.225 61.3334C93.2361 61.3625 93.2486 61.3903 93.2597 61.4195C93.2666 61.4403 93.2736 61.4625 93.2805 61.4847C93.2986 61.5431 93.3166 61.6014 93.3305 61.6611C93.3375 61.6875 93.343 61.7125 93.3486 61.7389C93.3597 61.7917 93.3694 61.8459 93.3778 61.9C93.3833 61.9375 93.3903 61.975 93.3944 62.0125C93.4014 62.0667 93.4041 62.1222 93.4083 62.1778C93.4111 62.2139 93.4139 62.25 93.4153 62.2875C93.4167 62.35 93.4139 62.4125 93.4125 62.4764C93.4111 62.5084 93.4125 62.5389 93.4097 62.5709C93.4028 62.6667 93.393 62.7625 93.3778 62.8611L87.7139 98.375L90.5708 102.269L96.2347 66.7556C96.25 66.6584 96.2611 66.5611 96.2666 66.4653C96.2694 66.4334 96.268 66.4028 96.2694 66.3709Z" fill="#FA9874"/>
<path d="M90.5695 102.583C90.4709 102.583 90.3778 102.538 90.3181 102.456L87.4611 98.5611C87.4111 98.4945 87.3917 98.4097 87.4042 98.3264L93.0681 62.8125C93.082 62.7278 93.0917 62.6417 93.0972 62.55C93.0986 62.5361 93.0986 62.5222 93.0986 62.5083L93.1 62.4653C93.1028 62.4083 93.1042 62.3514 93.1028 62.2958C93.1028 62.275 93.1014 62.2556 93.1 62.2347L93.0972 62.1986C93.0945 62.1486 93.0917 62.0986 93.0861 62.05C93.0834 62.025 93.0792 62 93.075 61.975L93.0709 61.9486C93.0639 61.9014 93.0556 61.8528 93.0445 61.8056C93.0389 61.7833 93.0334 61.7597 93.0278 61.7375C93.0139 61.6833 93 61.632 92.9834 61.5806L92.9653 61.5222C92.9611 61.5111 92.9556 61.4986 92.9514 61.4861L92.9347 61.4458C92.9084 61.3764 92.882 61.3167 92.8556 61.2625C92.8403 61.232 92.825 61.2028 92.8097 61.1736C92.7861 61.1292 92.7597 61.0861 92.7334 61.0431L92.7181 61.0195C92.6945 60.982 92.6709 60.9445 92.6459 60.9097C92.5445 60.7708 92.5736 60.575 92.7125 60.4722C92.8514 60.3708 93.0472 60.4 93.15 60.5389L96.007 64.4333C96.0334 64.4681 96.057 64.5042 96.082 64.5403C96.0931 64.557 96.1028 64.575 96.1125 64.5917C96.1528 64.6556 96.1847 64.7111 96.2153 64.7681C96.2334 64.7972 96.2431 64.8139 96.2528 64.8333C96.2598 64.8472 96.2667 64.8639 96.2736 64.8806C96.307 64.95 96.3403 65.0264 96.3736 65.1111C96.3861 65.1389 96.3959 65.1583 96.4028 65.1778C96.407 65.1889 96.4097 65.1986 96.4125 65.2083C96.4181 65.2264 96.4236 65.2431 96.4292 65.2611L96.4348 65.2806C96.4556 65.3445 96.475 65.4111 96.4917 65.4778C96.4986 65.507 96.5056 65.5347 96.5125 65.5653L96.5167 65.582C96.5209 65.5972 96.525 65.6139 96.5278 65.6292C96.5334 65.657 96.5375 65.6847 96.5403 65.7111L96.5486 65.7667C96.5542 65.8 96.5597 65.8333 96.5639 65.8681C96.5709 65.9292 96.575 65.9903 96.5792 66.0528L96.582 66.0861C96.5848 66.1153 96.5861 66.1445 96.5861 66.1736C96.5875 66.2431 96.5861 66.3125 96.5834 66.3806V66.4097C96.5834 66.4347 96.582 66.4597 96.5806 66.4861C96.5736 66.5945 96.5611 66.7014 96.5445 66.8028L90.8806 102.317C90.8611 102.442 90.7681 102.542 90.6459 102.571C90.6195 102.579 90.5945 102.583 90.5695 102.583ZM88.0417 98.2958L90.3792 101.482L95.925 66.707C95.9389 66.6236 95.9486 66.5347 95.9542 66.4445C95.9556 66.4292 95.9556 66.4167 95.9556 66.4028L95.957 66.3597C95.957 66.3597 95.957 66.3597 95.957 66.3583C95.9598 66.3014 95.9611 66.2445 95.9597 66.1889C95.9597 66.1695 95.9584 66.15 95.957 66.1306L95.9542 66.0903C95.9514 66.0403 95.9486 65.9903 95.9431 65.9417C95.9403 65.9167 95.9361 65.8917 95.932 65.8667L95.9209 65.7958C95.9195 65.7806 95.9167 65.7653 95.9139 65.75L95.9014 65.6986C95.8959 65.6764 95.8903 65.6528 95.8847 65.6306C95.8709 65.5764 95.857 65.525 95.8403 65.4736L95.8222 65.4167C95.8209 65.4125 95.8153 65.3958 95.8139 65.3917C95.8042 65.3722 95.7972 65.357 95.7917 65.3403C95.7653 65.2708 95.7389 65.2111 95.7125 65.157C95.7056 65.1431 95.7 65.1292 95.6945 65.1167C95.682 65.0958 95.6736 65.0833 95.6667 65.0695C95.6431 65.025 95.6167 64.982 95.5903 64.9389C95.582 64.925 95.5736 64.9125 95.5667 64.8986C95.5431 64.8611 95.5236 64.8333 95.5028 64.8056L93.7292 62.3875C93.7278 62.4208 93.7278 62.4542 93.7264 62.4875V62.5181C93.7264 62.5431 93.725 62.5681 93.7236 62.5931C93.7167 62.7042 93.7042 62.8083 93.6875 62.9111L88.0417 98.2958Z" fill="#FFECE5"/>
<path d="M112.097 83.3972L108.3 107.208H86.3043L87.714 98.375L90.1015 83.3972H102.475H105.275H108.072H112.097Z" fill="#F77A4A"/>
<path d="M108.3 107.521H86.3043C86.2126 107.521 86.1265 107.481 86.0668 107.411C86.007 107.342 85.982 107.25 85.9959 107.16L89.7932 83.3486C89.8168 83.1972 89.9487 83.0847 90.1015 83.0847H112.097C112.189 83.0847 112.275 83.125 112.335 83.1944C112.395 83.2639 112.42 83.3555 112.406 83.4458L108.608 107.257C108.585 107.41 108.454 107.521 108.3 107.521ZM86.6709 106.896H108.033L111.731 83.7097H90.3682L86.6709 106.896Z" fill="#FFECE5"/>
<path d="M90.5043 59.5861C92.3793 59.5861 93.6654 61.0514 93.3779 62.8611L87.714 98.375L86.3057 107.208H36.0848C34.2098 107.208 32.9223 105.743 33.2098 103.933L40.282 59.5861L40.8043 56.3097C41.0932 54.5014 42.8473 53.0347 44.7237 53.0347H57.7668C58.7112 53.0347 59.507 53.4056 60.0265 54.0056C60.539 54.5972 60.7848 55.4111 60.6418 56.3083C60.3529 58.1181 61.639 59.5847 63.514 59.5847H90.5043V59.5861ZM76.6751 88.1639L78.1945 78.632H49.914L48.3932 88.1639H76.6751Z" fill="#F56630"/>
<path d="M86.3042 107.521H36.0848C35.0695 107.521 34.1778 107.131 33.5737 106.424C32.9889 105.737 32.75 104.836 32.9014 103.885L40.4973 56.2611C40.8084 54.3097 42.7056 52.7236 44.725 52.7236H57.7681C58.775 52.7236 59.6611 53.1069 60.2639 53.8028C60.8598 54.4903 61.1042 55.3986 60.9514 56.3597C60.8292 57.1292 61.0167 57.8528 61.482 58.3972C61.9639 58.9625 62.6861 59.2736 63.5153 59.2736H90.5042C91.5195 59.2736 92.4111 59.6625 93.0139 60.3694C93.5986 61.0555 93.8375 61.9569 93.6861 62.9097L86.6139 107.257C86.5889 107.41 86.4584 107.521 86.3042 107.521ZM44.725 53.3486C42.9986 53.3486 41.3792 54.7 41.1139 56.3597L33.5181 103.983C33.3959 104.751 33.5834 105.474 34.0486 106.018C34.532 106.585 35.2542 106.896 36.0848 106.896H86.0375L93.0681 62.8125C93.1903 62.0444 93.0028 61.3208 92.5375 60.7764C92.0556 60.2111 91.332 59.9 90.5028 59.9H63.5153C62.5 59.9 61.6098 59.5111 61.0056 58.8042C60.4209 58.1181 60.182 57.2153 60.3334 56.2625C60.457 55.4861 60.2639 54.7583 59.7917 54.2125C59.3084 53.6555 58.5903 53.3486 57.7681 53.3486H44.725ZM76.675 88.4764H48.3931C48.3014 88.4764 48.2153 88.4361 48.1556 88.3667C48.0959 88.2972 48.0709 88.2055 48.0848 88.1153L49.6056 78.5833C49.6292 78.4319 49.7611 78.3194 49.9139 78.3194H78.1945C78.2861 78.3194 78.3723 78.3597 78.432 78.4292C78.4917 78.4986 78.5167 78.5903 78.5028 78.6805L76.982 88.2125C76.9584 88.3639 76.8278 88.4764 76.675 88.4764ZM48.7598 87.8514H76.4084L77.8292 78.9444H50.1806L48.7598 87.8514Z" fill="#FFECE5"/>
<path d="M112.097 83.3972L114.954 87.2917L111.157 111.103L108.3 107.208L112.097 83.3972Z" fill="#FA9874"/>
<path d="M111.157 111.415C111.058 111.415 110.965 111.369 110.906 111.287L108.049 107.393C107.999 107.326 107.979 107.242 107.992 107.158L111.789 83.3472C111.808 83.2222 111.901 83.1222 112.024 83.0931C112.146 83.0639 112.275 83.1097 112.349 83.2125L115.206 87.1069C115.256 87.1736 115.275 87.2583 115.263 87.3417L111.465 111.153C111.446 111.278 111.353 111.378 111.231 111.407C111.206 111.412 111.182 111.415 111.157 111.415ZM108.629 107.129L110.967 110.315L114.626 87.3722L112.289 84.1861L108.629 107.129Z" fill="#FFECE5"/>
<path d="M111.157 111.103L108.3 107.208H86.3042H36.0847C35.0555 107.208 34.2028 106.767 33.6917 106.069L36.5486 109.964C37.0611 110.661 37.9125 111.103 38.943 111.103H89.1625H111.157Z" fill="#EB5017"/>
<path d="M111.157 111.415H38.9417C37.8514 111.415 36.8861 110.953 36.2958 110.149L33.4389 106.254C33.3375 106.115 33.3667 105.919 33.5055 105.817C33.6444 105.715 33.8403 105.744 33.943 105.883C34.4153 106.526 35.1958 106.896 36.0847 106.896H108.3C108.4 106.896 108.493 106.943 108.551 107.024L111.408 110.918C111.478 111.012 111.489 111.139 111.435 111.244C111.383 111.35 111.275 111.415 111.157 111.415ZM35.0305 107.367L36.8 109.779C37.2722 110.422 38.0528 110.792 38.9417 110.792H110.54L108.142 107.522H36.0847C35.7153 107.521 35.3611 107.468 35.0305 107.367Z" fill="#FFECE5"/>
<path d="M118.897 66.6861C120.039 66.6861 120.964 65.7608 120.964 64.6194C120.964 63.478 120.039 62.5528 118.897 62.5528C117.756 62.5528 116.831 63.478 116.831 64.6194C116.831 65.7608 117.756 66.6861 118.897 66.6861Z" fill="#FFECE5"/>
<path d="M34.4584 73.9958C35.5998 73.9958 36.5251 73.0705 36.5251 71.9292C36.5251 70.7878 35.5998 69.8625 34.4584 69.8625C33.317 69.8625 32.3917 70.7878 32.3917 71.9292C32.3917 73.0705 33.317 73.9958 34.4584 73.9958Z" fill="#FFECE5"/>
<path d="M35.493 75.6667C35.895 75.6667 36.2208 75.3408 36.2208 74.9389C36.2208 74.537 35.895 74.2111 35.493 74.2111C35.0911 74.2111 34.7653 74.537 34.7653 74.9389C34.7653 75.3408 35.0911 75.6667 35.493 75.6667Z" fill="#FFECE5"/>
<path d="M52.2167 49.3486C54.1804 49.3486 55.7722 47.7567 55.7722 45.793C55.7722 43.8294 54.1804 42.2375 52.2167 42.2375C50.253 42.2375 48.6611 43.8294 48.6611 45.793C48.6611 47.7567 50.253 49.3486 52.2167 49.3486Z" fill="#FCD2C2"/>
<path d="M48.6625 44.0389C49.5976 44.0389 50.3556 43.2809 50.3556 42.3458C50.3556 41.4108 49.5976 40.6528 48.6625 40.6528C47.7275 40.6528 46.9695 41.4108 46.9695 42.3458C46.9695 43.2809 47.7275 44.0389 48.6625 44.0389Z" fill="#FFECE5"/>
<path d="M106.01 31.9125C110.951 31.9125 114.339 35.7736 113.579 40.5403C112.819 45.3042 108.2 49.1667 103.258 49.1667C98.318 49.1667 94.9305 45.3056 95.6902 40.5403C96.4499 35.7736 101.069 31.9125 106.01 31.9125ZM106.489 35.3681C106.625 34.7958 106.221 34.3028 105.635 34.3028C105.608 34.3028 105.582 34.3042 105.555 34.3056C104.982 34.3431 104.476 34.8194 104.426 35.3681L103.668 44.0042C103.651 44.2 103.786 44.3597 103.992 44.3736C104.001 44.375 104.012 44.375 104.022 44.375C104.237 44.375 104.443 44.2139 104.492 44.0042L106.489 35.3681ZM103.639 46.775C104.167 46.775 104.658 46.3639 104.74 45.8542C104.821 45.3472 104.46 44.9333 103.933 44.9333C103.407 44.9333 102.912 45.3458 102.832 45.8542C102.75 46.3639 103.112 46.775 103.639 46.775Z" fill="#F56630"/>
<path d="M103.258 49.4778C100.736 49.4778 98.5264 48.5153 97.0361 46.7694C95.593 45.0778 95.0055 42.8486 95.3819 40.4903C96.1639 35.5875 100.932 31.6 106.01 31.6C108.532 31.6 110.743 32.5625 112.233 34.3097C113.676 36.0014 114.264 38.232 113.887 40.5903C113.106 45.4903 108.337 49.4778 103.258 49.4778ZM106.01 32.225C101.225 32.225 96.7347 35.9778 95.9986 40.5889C95.6514 42.7625 96.1889 44.8139 97.5111 46.3639C98.8805 47.9695 100.922 48.8528 103.258 48.8528C108.043 48.8528 112.535 45.1014 113.271 40.4903C113.618 38.3153 113.081 36.2639 111.758 34.7139C110.387 33.1083 108.346 32.225 106.01 32.225ZM103.639 47.0875C103.292 47.0875 102.972 46.9458 102.762 46.7C102.554 46.4569 102.469 46.1389 102.522 45.8056C102.618 45.2014 103.14 44.7167 103.749 44.6347C103.657 44.5958 103.575 44.5375 103.51 44.4611C103.396 44.3292 103.343 44.1569 103.358 43.9792L104.117 35.3431C104.179 34.6347 104.803 34.0431 105.536 33.9958C105.568 33.9931 105.601 33.9917 105.635 33.9917C106.014 33.9917 106.36 34.1528 106.582 34.4347C106.801 34.7125 106.878 35.0792 106.792 35.4403L104.797 44.0764C104.733 44.357 104.506 44.5819 104.233 44.6597C104.46 44.7167 104.661 44.8375 104.808 45.0097C105.017 45.2542 105.101 45.5708 105.049 45.9042C104.943 46.5681 104.324 47.0875 103.639 47.0875ZM103.932 45.2458C103.56 45.2458 103.196 45.5472 103.139 45.9028C103.115 46.0528 103.15 46.1917 103.237 46.2931C103.331 46.4014 103.472 46.4611 103.639 46.4611C104.011 46.4611 104.375 46.1597 104.432 45.8042C104.456 45.6542 104.421 45.5153 104.333 45.4125C104.24 45.3056 104.099 45.2458 103.932 45.2458ZM105.635 34.6153C105.617 34.6153 105.597 34.6167 105.579 34.6181C105.157 34.6458 104.774 35.0028 104.739 35.3972L103.981 44.0333C103.979 44.0431 103.981 44.0514 103.983 44.0542C103.986 44.0583 103.997 44.0625 104.014 44.0639C104.014 44.0639 104.014 44.0639 104.015 44.0639C104.096 44.0639 104.174 44.0028 104.189 43.9361L106.183 35.3V35.2986C106.225 35.1208 106.193 34.9528 106.092 34.8236C105.987 34.6875 105.825 34.6153 105.635 34.6153Z" fill="#FFECE5"/>
<path d="M105.635 34.3028C106.221 34.3028 106.624 34.7959 106.489 35.3681L104.494 44.0042C104.446 44.2139 104.24 44.375 104.025 44.375C104.015 44.375 104.004 44.375 103.994 44.3736C103.789 44.3597 103.653 44.2 103.671 44.0042L104.429 35.3681C104.478 34.8181 104.983 34.3431 105.558 34.3056C105.583 34.3028 105.61 34.3028 105.635 34.3028Z" fill="#FFECE5"/>
<path d="M104.025 44.6875C104.007 44.6875 103.989 44.6875 103.971 44.6861C103.789 44.6736 103.624 44.5945 103.51 44.4597C103.396 44.3278 103.343 44.1556 103.358 43.9778L104.117 35.3417C104.179 34.6334 104.803 34.0417 105.536 33.9945C105.568 33.9917 105.601 33.9903 105.635 33.9903C106.014 33.9903 106.36 34.1514 106.582 34.4334C106.801 34.7111 106.878 35.0778 106.792 35.4403L104.797 44.075C104.718 44.4236 104.385 44.6875 104.025 44.6875ZM105.635 34.6153C105.617 34.6153 105.597 34.6167 105.579 34.6181C105.157 34.6459 104.774 35.0028 104.739 35.3972L103.981 44.0334C103.979 44.0431 103.981 44.0514 103.983 44.0542C103.986 44.0584 103.997 44.0625 104.014 44.0639C104.014 44.0639 104.014 44.0639 104.015 44.0639C104.096 44.0639 104.174 44.0028 104.189 43.9361L106.183 35.3C106.226 35.1209 106.193 34.9514 106.092 34.8236C105.987 34.6875 105.825 34.6153 105.635 34.6153Z" fill="#FFECE5"/>
<path d="M103.932 44.9333C104.46 44.9333 104.821 45.3458 104.739 45.8542C104.658 46.3625 104.165 46.775 103.637 46.775C103.111 46.775 102.749 46.3639 102.831 45.8542C102.912 45.3472 103.407 44.9333 103.932 44.9333Z" fill="#FFECE5"/>
<path d="M103.639 47.0875C103.292 47.0875 102.972 46.9458 102.763 46.7C102.554 46.4569 102.469 46.1389 102.522 45.8056C102.628 45.1417 103.247 44.6222 103.932 44.6222C104.279 44.6222 104.599 44.7639 104.808 45.0097C105.017 45.2542 105.101 45.5708 105.049 45.9056C104.943 46.5681 104.324 47.0875 103.639 47.0875ZM103.932 45.2458C103.56 45.2458 103.196 45.5472 103.139 45.9028C103.115 46.0528 103.15 46.1917 103.238 46.2931C103.331 46.4014 103.472 46.4611 103.639 46.4611C104.011 46.4611 104.375 46.1597 104.432 45.8042C104.456 45.6542 104.421 45.5153 104.333 45.4125C104.24 45.3056 104.099 45.2458 103.932 45.2458Z" fill="#FFECE5"/>
</svg>
