<svg width="150" height="150" viewBox="0 0 150 150" fill="none" xmlns="http://www.w3.org/2000/svg">
<path d="M75 122.697C103.319 122.697 126.276 113.691 126.276 102.582C126.276 91.4726 103.319 82.4667 75 82.4667C46.6809 82.4667 23.7236 91.4726 23.7236 102.582C23.7236 113.691 46.6809 122.697 75 122.697Z" fill="#F9FAFB"/>
<path d="M53.8251 56.993L55.9779 59.9278H44.6098L42.457 56.993H53.8251Z" fill="#475367"/>
<path d="M55.9779 60.1361H44.6098C44.5432 60.1361 44.4807 60.1041 44.4418 60.0513L42.289 57.1166C42.2432 57.0527 42.2362 56.9694 42.2709 56.8986C42.3057 56.8291 42.3779 56.7847 42.457 56.7847H53.8251C53.8918 56.7847 53.9543 56.8166 53.9932 56.8694L56.1459 59.8041C56.1918 59.868 56.1987 59.9513 56.164 60.0222C56.1279 60.0916 56.057 60.1361 55.9779 60.1361ZM44.7154 59.7194H55.5668L53.7195 57.2013H42.8682L44.7154 59.7194Z" fill="#F9FAFB"/>
<path d="M53.825 56.993C53.4639 61.9069 52.5361 66.4778 50.3958 70.3153H40.3333H31.75C33.0542 67.7917 34.2069 63.4555 35.1792 56.993H42.4569H53.825ZM50.3653 60.4153C50.6528 60.4153 50.9222 60.1903 50.9667 59.9111C51.0111 59.6333 50.8125 59.4083 50.525 59.4083H37.4278C37.1403 59.4083 36.8708 59.6333 36.8264 59.9111C36.7819 60.1903 36.9792 60.4153 37.2681 60.4153H50.3653ZM48.9319 66.2458C49.2194 66.2458 49.4889 66.0208 49.5333 65.7417C49.5778 65.4639 49.3792 65.2389 49.0917 65.2389H35.9944C35.7069 65.2389 35.4375 65.4639 35.3931 65.7417C35.3486 66.0208 35.5458 66.2458 35.8347 66.2458H48.9319ZM49.9 63.3305C50.1875 63.3305 50.4569 63.1055 50.5014 62.8278C50.5458 62.55 50.3472 62.325 50.0597 62.325H36.9625C36.675 62.325 36.4056 62.55 36.3611 62.8278C36.3167 63.1055 36.5153 63.3305 36.8028 63.3305H49.9Z" fill="#F7F9FC"/>
<path d="M50.3958 70.5236H31.7499C31.6777 70.5236 31.6097 70.4861 31.5722 70.4236C31.5347 70.3611 31.5319 70.2847 31.5652 70.2194C32.8874 67.6625 34.0347 63.2014 34.9735 56.9611C34.9888 56.8597 35.0763 56.7833 35.1791 56.7833H53.8249C53.8833 56.7833 53.9388 56.8069 53.9777 56.85C54.0166 56.893 54.0374 56.95 54.0333 57.0069C53.6166 62.6736 52.5194 66.9347 50.5777 70.4153C50.5402 70.4833 50.4708 70.5236 50.3958 70.5236ZM32.086 70.1069H50.2722C52.1208 66.7458 53.1805 62.6347 53.5999 57.2014H35.3583C34.4527 63.1569 33.3527 67.4944 32.086 70.1069ZM48.9319 66.4542H35.8347C35.6347 66.4542 35.4499 66.3722 35.3277 66.2292C35.2069 66.0875 35.1569 65.9028 35.1874 65.7083C35.2485 65.3278 35.6027 65.0292 35.9944 65.0292H49.0916C49.2916 65.0292 49.4777 65.1111 49.5985 65.2542C49.7194 65.3958 49.7694 65.5805 49.7388 65.7736C49.6777 66.1555 49.3235 66.4542 48.9319 66.4542ZM35.9944 65.4472C35.8083 65.4472 35.6263 65.5972 35.5985 65.775C35.5874 65.8472 35.6027 65.9111 35.6444 65.9597C35.6874 66.0097 35.7555 66.0375 35.8347 66.0375H48.9319C49.118 66.0375 49.2999 65.8875 49.3277 65.7083C49.3388 65.6361 49.3235 65.5736 49.2819 65.525C49.2388 65.475 49.1708 65.4458 49.0916 65.4458H35.9944V65.4472ZM49.8999 63.5389H36.8027C36.6027 63.5389 36.4166 63.4569 36.2958 63.3139C36.1749 63.1722 36.1249 62.9875 36.1555 62.7944C36.2166 62.4139 36.5708 62.1153 36.9624 62.1153H50.0597C50.2597 62.1153 50.4458 62.1972 50.5666 62.3403C50.6874 62.4819 50.7374 62.6667 50.7055 62.8597C50.6471 63.2403 50.293 63.5389 49.8999 63.5389ZM36.9638 62.5319C36.7777 62.5319 36.5958 62.6819 36.568 62.8597C36.5569 62.9319 36.5722 62.9944 36.6138 63.043C36.6569 63.093 36.7249 63.1222 36.8041 63.1222H49.9013C50.0874 63.1222 50.2694 62.9722 50.2972 62.7944C50.3083 62.7222 50.293 62.6597 50.2513 62.6111C50.2083 62.5611 50.1402 62.5319 50.061 62.5319H36.9638ZM50.3652 60.6236H37.268C37.068 60.6236 36.8833 60.5417 36.761 60.3986C36.6402 60.2569 36.5902 60.0722 36.6208 59.8778C36.6819 59.4972 37.036 59.1986 37.4277 59.1986H50.5249C50.7249 59.1986 50.911 59.2805 51.0319 59.4236C51.1527 59.5653 51.2027 59.75 51.1708 59.943C51.1124 60.325 50.7569 60.6236 50.3652 60.6236ZM37.4291 59.6167C37.243 59.6167 37.061 59.7667 37.0333 59.9444C37.0222 60.0167 37.0374 60.0805 37.0791 60.1292C37.1222 60.1792 37.1902 60.2069 37.2694 60.2069H50.3666C50.5527 60.2069 50.7347 60.0569 50.7624 59.8778C50.7735 59.8055 50.7583 59.743 50.7166 59.6944C50.6735 59.6444 50.6055 59.6153 50.5263 59.6153H37.4291V59.6167Z" fill="#F9FAFB"/>
<path d="M49.0915 65.2389C49.379 65.2389 49.5777 65.4639 49.5332 65.7417C49.4888 66.0208 49.2193 66.2458 48.9318 66.2458H35.8346C35.5471 66.2458 35.3485 66.0208 35.3929 65.7417C35.4374 65.4639 35.7068 65.2389 35.9943 65.2389H49.0915Z" fill="#D0D5DD"/>
<path d="M48.9319 66.4542H35.8347C35.6347 66.4542 35.45 66.3722 35.3277 66.2292C35.2069 66.0875 35.1569 65.9028 35.1875 65.7083C35.2486 65.3278 35.6027 65.0292 35.9944 65.0292H49.0916C49.2916 65.0292 49.4777 65.1111 49.5986 65.2542C49.7194 65.3958 49.7694 65.5806 49.7389 65.7736C49.6777 66.1556 49.3236 66.4542 48.9319 66.4542ZM35.9944 65.4472C35.8083 65.4472 35.6264 65.5972 35.5986 65.775C35.5875 65.8472 35.6028 65.9111 35.6444 65.9597C35.6875 66.0097 35.7555 66.0375 35.8347 66.0375H48.9319C49.118 66.0375 49.3 65.8875 49.3277 65.7083C49.3389 65.6361 49.3236 65.5736 49.2819 65.525C49.2389 65.475 49.1708 65.4458 49.0916 65.4458H35.9944V65.4472Z" fill="#D0D5DD"/>
<path d="M78.2666 49.5875L77.1305 56.7111C74.2555 56.7111 71.568 58.9584 71.1249 61.7306C70.6833 64.5042 72.6541 66.75 75.5291 66.75L74.393 73.8736H62.2833C61.8416 76.6459 59.1527 78.8931 56.2763 78.8931C53.4027 78.8931 51.4305 76.6459 51.8722 73.8736H39.7625L40.3305 70.3153H50.393C52.5333 66.4764 53.4624 61.907 53.8222 56.9931H42.4541L43.4347 50.8472C43.5458 50.1514 44.2208 49.5875 44.9402 49.5875H78.2666Z" fill="#D0D5DD"/>
<path d="M56.2778 79.1014C54.8028 79.1014 53.5097 78.5389 52.6375 77.5153C51.8417 76.5833 51.4903 75.3708 51.6361 74.0819H39.7653C39.7042 74.0819 39.6458 74.0555 39.6069 74.0083C39.5681 73.9625 39.55 73.9 39.5597 73.8403L40.1278 70.2819C40.1444 70.1805 40.2306 70.1069 40.3333 70.1069H50.2736C52.1222 66.7458 53.1819 62.6347 53.6014 57.2014H42.4583C42.3972 57.2014 42.3389 57.175 42.3 57.1278C42.2611 57.0819 42.2431 57.0194 42.2528 56.9597L43.2333 50.8139C43.3597 50.0222 44.1278 49.3792 44.9444 49.3792H78.2681C78.3292 49.3792 78.3875 49.4055 78.4264 49.4528C78.4653 49.4986 78.4833 49.5611 78.4736 49.6208L77.3375 56.7444C77.3208 56.8458 77.2347 56.9194 77.1319 56.9194C74.3597 56.9194 71.7583 59.093 71.3319 61.7639C71.1319 63.0222 71.4417 64.2083 72.2056 65.1028C72.9972 66.0305 74.1778 66.5417 75.5292 66.5417C75.5903 66.5417 75.6486 66.568 75.6875 66.6153C75.7264 66.6611 75.7444 66.7236 75.7347 66.7833L74.5986 73.9069C74.5819 74.0083 74.4958 74.0819 74.3931 74.0819H62.4583C61.9194 76.8667 59.1861 79.1014 56.2778 79.1014ZM40.0097 73.6653H51.875C51.9361 73.6653 51.9944 73.6916 52.0333 73.7389C52.0722 73.7847 52.0903 73.8472 52.0806 73.9069C51.8806 75.1639 52.1903 76.35 52.9556 77.2458C53.7472 78.1736 54.9278 78.6861 56.2792 78.6861C59.0514 78.6861 61.6542 76.5125 62.0806 73.8416C62.0972 73.7403 62.1833 73.6667 62.2861 73.6667H74.2181L75.2889 66.9542C73.9139 66.8958 72.7153 66.3403 71.8917 65.3736C71.0472 64.3833 70.7028 63.0778 70.9236 61.6986C71.3708 58.8917 74.0556 56.5972 76.9569 56.5055L78.0278 49.7958H44.9431C44.3208 49.7958 43.7389 50.2819 43.6431 50.8805L42.7014 56.7847H53.825C53.8833 56.7847 53.9389 56.8083 53.9778 56.8514C54.0167 56.8944 54.0375 56.9514 54.0333 57.0083C53.6167 62.675 52.5194 66.9361 50.5778 70.4167C50.5403 70.4833 50.4708 70.5236 50.3958 70.5236H40.5111L40.0097 73.6653Z" fill="#F9FAFB"/>
<path d="M53.2862 98.1611H37.1973C37.0487 98.1611 36.9098 98.1375 36.7848 98.0931C36.5751 98.0195 36.4014 97.8903 36.2778 97.7236L38.4306 100.658C38.6278 100.926 38.9542 101.096 39.3501 101.096H55.4403L53.2862 98.1611Z" fill="#D0D5DD"/>
<path d="M55.4388 101.304H39.3485C38.9013 101.304 38.5055 101.114 38.261 100.782L36.1097 97.8486L36.1083 97.8472C36.0402 97.7542 36.061 97.6236 36.1527 97.5556C36.2444 97.4875 36.3763 97.507 36.4444 97.6C36.5444 97.7347 36.6847 97.8375 36.8513 97.8958C36.9583 97.9333 37.0735 97.9514 37.1958 97.9514H53.286C53.3527 97.9514 53.4152 97.9833 53.4541 98.0361L55.6069 100.971C55.6527 101.035 55.6597 101.118 55.6249 101.189C55.5888 101.26 55.518 101.304 55.4388 101.304ZM36.9999 98.357L38.5972 100.535C38.761 100.758 39.036 100.888 39.3485 100.888H55.0277L53.1805 98.3695H37.1972C37.1305 98.3695 37.0638 98.3653 36.9999 98.357Z" fill="#F9FAFB"/>
<path d="M114.86 53.6334C114.861 53.6084 114.861 53.5847 114.861 53.5611C114.861 53.5472 114.86 53.5334 114.858 53.5195C114.857 53.4986 114.856 53.4764 114.853 53.4556C114.851 53.4403 114.849 53.4264 114.846 53.4125C114.843 53.4 114.843 53.3861 114.84 53.3722C114.839 53.3681 114.838 53.3639 114.836 53.3597C114.826 53.3125 114.814 53.2681 114.799 53.2236C114.797 53.2209 114.797 53.2195 114.797 53.2167C114.794 53.2084 114.79 53.2014 114.788 53.1931C114.776 53.1667 114.765 53.1389 114.753 53.1139C114.75 53.1084 114.749 53.1028 114.746 53.0972C114.742 53.0903 114.738 53.0834 114.733 53.075C114.722 53.0556 114.711 53.0361 114.7 53.0181C114.696 53.0111 114.692 53.0028 114.688 52.9959C114.679 52.9834 114.671 52.9709 114.663 52.9597L112.51 50.025C112.524 50.0445 112.536 50.0639 112.549 50.0834C112.56 50.1014 112.571 50.1209 112.582 50.1403C112.589 50.1528 112.596 50.1653 112.603 50.1792C112.615 50.2056 112.626 50.232 112.638 50.2584C112.642 50.2681 112.646 50.2778 112.65 50.2889C112.665 50.3334 112.678 50.3778 112.688 50.425C112.692 50.4431 112.694 50.4597 112.697 50.4778C112.7 50.4917 112.701 50.507 112.704 50.5209C112.707 50.5417 112.708 50.5639 112.71 50.5847C112.711 50.5986 112.713 50.6125 112.713 50.6264C112.713 50.65 112.713 50.675 112.711 50.7C112.711 50.7125 112.711 50.7236 112.71 50.7361C112.707 50.7736 112.703 50.8097 112.697 50.8486L111.403 58.9625L113.556 61.8972L114.85 53.7834C114.856 53.7459 114.86 53.7084 114.863 53.6722C114.86 53.6584 114.86 53.6459 114.86 53.6334Z" fill="#D0D5DD"/>
<path d="M113.553 62.1041C113.487 62.1041 113.425 62.0736 113.385 62.0194L111.232 59.0847C111.199 59.0402 111.186 58.9833 111.194 58.9291L112.489 50.8152C112.494 50.7833 112.497 50.7528 112.5 50.7222L112.501 50.6916C112.501 50.6722 112.503 50.6527 112.503 50.6319L112.501 50.5972C112.5 50.5805 112.499 50.5625 112.497 50.5458L112.493 50.5194C112.489 50.4972 112.487 50.4833 112.485 50.468C112.476 50.4291 112.467 50.3916 112.454 50.3583C112.454 50.3569 112.444 50.3361 112.444 50.3347C112.436 50.3125 112.426 50.2916 112.417 50.2708L112.4 50.2403C112.392 50.2264 112.383 50.2097 112.374 50.1958C112.361 50.175 112.353 50.1625 112.344 50.15C112.276 50.0569 112.296 49.9264 112.389 49.8583C112.482 49.7903 112.612 49.8097 112.681 49.9027L112.682 49.9041L114.833 52.8375C114.844 52.8527 114.854 52.8666 114.864 52.8819C114.869 52.8889 114.875 52.8986 114.879 52.9083C114.893 52.9305 114.907 52.9527 114.919 52.9764C114.925 52.9861 114.931 52.9944 114.935 53.0027C114.937 53.0083 114.944 53.0222 114.946 53.0291C114.958 53.0555 114.972 53.0875 114.985 53.1194C114.989 53.1264 114.992 53.1361 114.996 53.1444C114.997 53.15 115 53.1555 115.001 53.1625C115.018 53.2097 115.032 53.2597 115.043 53.3125C115.044 53.318 115.047 53.3264 115.047 53.3305C115.05 53.3458 115.051 53.3583 115.054 53.3708L115.057 53.3889C115.06 53.4041 115.061 53.418 115.064 53.4333C115.067 53.4597 115.068 53.4847 115.069 53.5097C115.071 53.5305 115.072 53.5444 115.072 53.5583C115.072 53.5861 115.072 53.6111 115.071 53.6375C115.071 53.6389 115.071 53.6458 115.071 53.6458V53.6555C115.071 53.6653 115.071 53.6764 115.069 53.6861C115.067 53.7291 115.061 53.7736 115.054 53.8166L113.76 61.9305C113.746 62.0139 113.685 62.0805 113.603 62.1C113.585 62.1014 113.569 62.1041 113.553 62.1041ZM111.619 58.9069L113.425 61.3694L114.64 53.7486C114.646 53.7166 114.649 53.6861 114.651 53.6555V53.6264V53.6208C114.651 53.6028 114.653 53.5833 114.653 53.5653L114.651 53.5444C114.651 53.543 114.65 53.5319 114.65 53.5305C114.649 53.5139 114.649 53.4958 114.646 53.4791L114.637 53.4222C114.637 53.418 114.635 53.4069 114.632 53.3972C114.625 53.3625 114.614 53.3264 114.603 53.293C114.603 53.2916 114.601 53.2889 114.6 53.2861C114.599 53.2819 114.594 53.2764 114.593 53.2694C114.585 53.2472 114.575 53.2264 114.565 53.2055C114.564 53.2027 114.561 53.1958 114.558 53.1916C114.554 53.1861 114.55 53.1777 114.549 53.175C114.54 53.1597 114.532 53.1444 114.522 53.1291C114.521 53.1264 114.512 53.1139 114.511 53.1097C114.506 53.1014 114.499 53.0916 114.492 53.0819L112.894 50.9041L111.619 58.9069Z" fill="#F9FAFB"/>
<path d="M70.5209 98.1611L72.6736 101.096H55.4389L53.2861 98.1611H70.5209Z" fill="#98A2B3"/>
<path d="M72.6736 101.304H55.4389C55.3723 101.304 55.3098 101.272 55.2709 101.219L53.1181 98.2847C53.0723 98.2208 53.0653 98.1375 53.1 98.0666C53.1348 97.9972 53.207 97.9528 53.2861 97.9528H70.5195C70.5861 97.9528 70.6486 97.9847 70.6875 98.0375L72.8403 100.972C72.8861 101.036 72.8931 101.119 72.8584 101.19C72.8236 101.26 72.7514 101.304 72.6736 101.304ZM55.5445 100.887H72.2611L70.4139 98.3694H53.6973L55.5445 100.887Z" fill="#F9FAFB"/>
<path d="M74.3943 73.8735L73.2582 80.9971C76.1319 80.9971 78.1041 83.2444 77.6624 86.0166C77.2207 88.7902 74.5318 91.036 71.6568 91.036L70.5207 98.1596H53.286H37.1971C36.4777 98.1596 35.9818 97.5971 36.093 96.9013L39.7652 73.8735H51.8749C51.4332 76.6458 53.4041 78.893 56.2791 78.893C59.1541 78.893 61.843 76.6458 62.286 73.8735H74.3943Z" fill="#F7F9FC"/>
<path d="M70.5208 98.3694H37.1972C36.7805 98.3694 36.4138 98.2083 36.1652 97.9166C35.9236 97.6333 35.825 97.2611 35.8875 96.8694L39.5597 73.8416C39.5763 73.7402 39.6625 73.6666 39.7652 73.6666H51.875C51.9361 73.6666 51.9944 73.693 52.0333 73.7402C52.0722 73.7861 52.0902 73.8486 52.0805 73.9083C51.8805 75.1652 52.1902 76.3513 52.9555 77.2472C53.7472 78.175 54.9277 78.6875 56.2791 78.6875C59.0513 78.6875 61.6541 76.5138 62.0805 73.843C62.0972 73.7416 62.1833 73.668 62.2861 73.668H74.3958C74.4569 73.668 74.5152 73.6944 74.5541 73.7416C74.593 73.7875 74.6111 73.85 74.6013 73.9097L73.5027 80.7972C74.8763 80.8555 76.0763 81.4125 76.9 82.3777C77.7444 83.368 78.0888 84.6736 77.868 86.0527C77.4208 88.8597 74.7361 91.1541 71.8347 91.2458L70.7263 98.1972C70.7097 98.2944 70.6222 98.3694 70.5208 98.3694ZM39.943 74.0819L36.2986 96.9347C36.2555 97.2041 36.3208 97.4569 36.4819 97.6458C36.65 97.843 36.9041 97.9527 37.1972 97.9527H70.343L71.4513 91.0041C71.468 90.9027 71.5541 90.8291 71.6569 90.8291C74.4291 90.8291 77.0305 88.6555 77.4569 85.9847C77.6569 84.7277 77.3472 83.5416 76.5833 82.6458C75.7916 81.718 74.6111 81.2069 73.2597 81.2069C73.1986 81.2069 73.1402 81.1805 73.1013 81.1333C73.0625 81.0875 73.0444 81.025 73.0541 80.9652L74.1513 74.0833H62.4611C61.9208 76.8666 59.1875 79.1027 56.2805 79.1027C54.8055 79.1027 53.5125 78.5402 52.6402 77.5166C51.8444 76.5847 51.493 75.3722 51.6388 74.0833H39.943V74.0819Z" fill="#F9FAFB"/>
<path d="M107.981 80.4015L110.133 83.3362H92.3875L90.2361 80.4015H107.981Z" fill="#98A2B3"/>
<path d="M110.133 83.5445H92.3874C92.3207 83.5445 92.2582 83.5126 92.2194 83.4598L90.0666 80.5251C90.0207 80.4612 90.0138 80.3778 90.0485 80.307C90.0832 80.2376 90.1555 80.1931 90.2346 80.1931H107.979C108.046 80.1931 108.108 80.2251 108.147 80.2778L110.3 83.2126C110.346 83.2764 110.353 83.3598 110.318 83.4306C110.283 83.5001 110.211 83.5445 110.133 83.5445ZM92.493 83.1278H109.722L107.875 80.6098H90.6471L92.493 83.1278Z" fill="#F9FAFB"/>
<path d="M118.225 58.9611L120.378 61.8958L119.144 69.6291L116.992 66.693L118.225 58.9611Z" fill="#E4E7EC"/>
<path d="M119.143 69.8374C119.078 69.8374 119.015 69.8069 118.975 69.7527L116.822 66.818C116.789 66.7736 116.776 66.7166 116.785 66.6624L118.018 58.9291C118.032 58.8458 118.093 58.7791 118.175 58.7597C118.257 58.7402 118.343 58.7708 118.392 58.8388L120.544 61.7736C120.578 61.818 120.59 61.875 120.582 61.9291L119.349 69.6624C119.335 69.7458 119.274 69.8125 119.192 69.8319C119.176 69.8347 119.16 69.8374 119.143 69.8374ZM117.211 66.6402L119.017 69.1027L120.157 61.9486L118.351 59.4861L117.211 66.6402Z" fill="#F9FAFB"/>
<path d="M111.4 58.9611H118.225L116.992 66.6944H110.167H106.115L107.349 58.9611H111.4ZM115.582 64.2458C115.87 64.2458 116.139 64.0208 116.184 63.7416C116.228 63.4638 116.029 63.2388 115.742 63.2388H108.44C108.153 63.2388 107.884 63.4638 107.839 63.7416C107.795 64.0208 107.992 64.2458 108.281 64.2458H115.582ZM115.96 61.8777C116.247 61.8777 116.517 61.6527 116.561 61.3749C116.606 61.0958 116.409 60.8708 116.12 60.8708H108.82C108.532 60.8708 108.263 61.0958 108.218 61.3749C108.174 61.6527 108.372 61.8777 108.66 61.8777H115.96Z" fill="#F7F9FC"/>
<path d="M116.992 66.9013H106.115C106.054 66.9013 105.996 66.875 105.957 66.8277C105.918 66.7819 105.9 66.7194 105.91 66.6597L107.143 58.9263C107.16 58.825 107.246 58.7513 107.349 58.7513H118.225C118.286 58.7513 118.345 58.7777 118.383 58.825C118.422 58.8708 118.44 58.9333 118.431 58.993L117.197 66.7263C117.181 66.8277 117.093 66.9013 116.992 66.9013ZM106.36 66.4847H116.814L117.981 59.168H107.526L106.36 66.4847ZM115.582 64.4541H108.281C108.081 64.4541 107.896 64.3722 107.774 64.2291C107.653 64.0875 107.603 63.9027 107.633 63.7083C107.695 63.3277 108.049 63.0291 108.44 63.0291H115.742C115.942 63.0291 116.128 63.1111 116.249 63.2541C116.37 63.3958 116.42 63.5805 116.389 63.7736C116.329 64.1555 115.974 64.4541 115.582 64.4541ZM108.442 63.4472C108.256 63.4472 108.074 63.5972 108.046 63.775C108.035 63.8472 108.05 63.9111 108.092 63.9597C108.135 64.0097 108.203 64.0375 108.282 64.0375H115.583C115.77 64.0375 115.951 63.8875 115.979 63.7083C115.99 63.6361 115.975 63.5736 115.933 63.525C115.89 63.475 115.822 63.4458 115.743 63.4458H108.442V63.4472ZM115.96 62.0861H108.658C108.458 62.0861 108.272 62.0041 108.151 61.8611C108.031 61.7194 107.981 61.5347 108.013 61.3416C108.074 60.9611 108.428 60.6625 108.82 60.6625H116.121C116.321 60.6625 116.506 60.7444 116.628 60.8875C116.749 61.0291 116.799 61.2138 116.768 61.4083C116.707 61.7875 116.351 62.0861 115.96 62.0861ZM108.82 61.0791C108.633 61.0791 108.451 61.2291 108.424 61.4083C108.413 61.4805 108.428 61.543 108.47 61.5916C108.513 61.6416 108.581 61.6708 108.66 61.6708H115.961C116.147 61.6708 116.329 61.5208 116.357 61.343C116.368 61.2708 116.353 61.2069 116.311 61.1583C116.268 61.1083 116.2 61.0805 116.121 61.0805H108.82V61.0791Z" fill="#F9FAFB"/>
<path d="M111.59 49.5875C112.311 49.5875 112.805 50.1514 112.694 50.8472L111.4 58.9611H107.349L106.115 66.6945H110.167L109.021 73.875H97.6527C98.0944 71.1014 96.1235 68.8556 93.2485 68.8556C90.3749 68.8556 87.686 71.1014 87.243 73.875H74.3944L75.5305 66.7514C72.6555 66.7514 70.6846 64.5042 71.1263 61.732C71.568 58.9597 74.2555 56.7125 77.1319 56.7125L78.268 49.5889H111.59V49.5875Z" fill="#D0D5DD"/>
<path d="M109.022 74.082H97.6527C97.5916 74.082 97.5332 74.0556 97.4944 74.0084C97.4555 73.9625 97.4374 73.9 97.4471 73.8403C97.6471 72.582 97.3374 71.3973 96.5735 70.5014C95.7819 69.5736 94.6013 69.0625 93.2485 69.0625C90.4763 69.0625 87.8749 71.2361 87.4485 73.907C87.4319 74.0084 87.3457 74.082 87.243 74.082H74.3944C74.3332 74.082 74.2749 74.0556 74.236 74.0084C74.1971 73.9625 74.1791 73.9 74.1888 73.8403L75.2874 66.9528C73.9124 66.8945 72.7138 66.3389 71.8902 65.3723C71.0457 64.382 70.7013 63.0764 70.9221 61.6973C71.3694 58.8903 74.0541 56.5959 76.9555 56.5042L78.0638 49.5528C78.0805 49.4514 78.1666 49.3778 78.2694 49.3778H111.592C112.008 49.3778 112.374 49.5389 112.624 49.8306C112.865 50.1139 112.965 50.4875 112.901 50.8792L111.607 58.9931C111.59 59.0945 111.504 59.1681 111.401 59.1681H107.528L106.361 66.4848H110.168C110.229 66.4848 110.287 66.5111 110.326 66.5584C110.365 66.6042 110.383 66.6667 110.374 66.7264L109.228 73.907C109.211 74.0084 109.124 74.082 109.022 74.082ZM97.8916 73.6653H108.844L109.924 66.9014H106.117C106.055 66.9014 105.997 66.875 105.958 66.8278C105.919 66.782 105.901 66.7195 105.911 66.6598L107.144 58.9264C107.161 58.825 107.247 58.7514 107.35 58.7514H111.224L112.489 50.8125C112.532 50.5431 112.467 50.2889 112.305 50.1C112.137 49.9028 111.883 49.7945 111.592 49.7945H78.4444L77.336 56.7431C77.3194 56.8445 77.2332 56.9181 77.1305 56.9181C74.3582 56.9181 71.7569 59.0917 71.3305 61.7625C71.1305 63.0209 71.4402 64.207 72.2041 65.1014C72.9957 66.0292 74.1763 66.5403 75.5277 66.5403C75.5888 66.5403 75.6471 66.5667 75.686 66.6139C75.7249 66.6598 75.743 66.7223 75.7332 66.782L74.636 73.6639H87.0666C87.6069 70.8806 90.3402 68.6445 93.2471 68.6445C94.7235 68.6445 96.0166 69.207 96.8888 70.2306C97.6846 71.1639 98.036 72.375 97.8916 73.6653Z" fill="#F9FAFB"/>
<path d="M110.167 66.693L112.319 69.6291L111.174 76.8083L109.021 73.8736L110.167 66.693Z" fill="#D0D5DD"/>
<path d="M111.174 77.0166C111.108 77.0166 111.046 76.986 111.006 76.9319L108.853 73.9972C108.819 73.9527 108.807 73.8958 108.815 73.8416L109.961 66.6611C109.975 66.5777 110.036 66.5111 110.118 66.4916C110.2 66.4722 110.286 66.5027 110.335 66.5708L112.487 69.5055C112.521 69.5499 112.533 69.6069 112.525 69.6611L111.379 76.8416C111.365 76.9249 111.304 76.9916 111.222 77.011C111.207 77.0152 111.19 77.0166 111.174 77.0166ZM109.242 73.8208L111.047 76.2833L112.1 69.6819L110.294 67.2194L109.242 73.8208Z" fill="#F9FAFB"/>
<path d="M109.021 73.8737L111.174 76.8084L110.133 83.3362L107.98 80.4014L109.021 73.8737Z" fill="#D0D5DD"/>
<path d="M110.133 83.5445C110.068 83.5445 110.006 83.5139 109.965 83.4598L107.812 80.5251C107.779 80.4806 107.767 80.4237 107.775 80.3695L108.817 73.8417C108.831 73.7584 108.892 73.6917 108.974 73.6723C109.056 73.6528 109.142 73.6834 109.19 73.7514L111.343 76.6862C111.376 76.7306 111.389 76.7875 111.381 76.8417L110.339 83.3695C110.325 83.4528 110.264 83.5195 110.182 83.5389C110.165 83.5431 110.15 83.5445 110.133 83.5445ZM108.2 80.3487L110.006 82.8112L110.954 76.8625L109.149 74.4L108.2 80.3487Z" fill="#F9FAFB"/>
<path d="M87.7527 98.1611L89.9055 101.096H72.6735L70.5208 98.1611H87.7527Z" fill="#98A2B3"/>
<path d="M89.9055 101.304H72.6735C72.6069 101.304 72.5444 101.272 72.5055 101.219L70.3527 98.2847C70.3069 98.2208 70.2999 98.1375 70.3347 98.0666C70.3694 97.9972 70.4416 97.9528 70.5208 97.9528H87.7541C87.8208 97.9528 87.8833 97.9847 87.9221 98.0375L90.0749 100.972C90.1208 101.036 90.1277 101.119 90.093 101.19C90.0569 101.26 89.9847 101.304 89.9055 101.304ZM72.7791 100.887H89.4958L87.6485 98.3694H70.9319L72.7791 100.887Z" fill="#F9FAFB"/>
<path d="M87.7527 98.161L89.9055 101.096L88.8527 107.699L86.7 104.764L87.7527 98.161Z" fill="#D0D5DD"/>
<path d="M88.8528 107.907C88.7875 107.907 88.725 107.876 88.6847 107.822L86.5319 104.887C86.4986 104.843 86.4861 104.786 86.4944 104.732L87.5472 98.1277C87.5611 98.0444 87.6222 97.9777 87.7042 97.9583C87.7861 97.9388 87.8708 97.9694 87.9208 98.0374L90.0736 100.972C90.1069 101.017 90.1194 101.074 90.1111 101.128L89.0583 107.732C89.0444 107.815 88.9833 107.882 88.9014 107.901C88.8847 107.906 88.8694 107.907 88.8528 107.907ZM86.9194 104.711L88.725 107.174L89.6861 101.149L87.8806 98.6861L86.9194 104.711Z" fill="#F9FAFB"/>
<path d="M86.7001 104.764L88.8528 107.699H54.3862L52.2334 104.764H86.7001Z" fill="#D0D5DD"/>
<path d="M88.8529 107.907H54.3862C54.3195 107.907 54.257 107.875 54.2181 107.822L52.0654 104.887C52.0195 104.824 52.0126 104.74 52.0473 104.669C52.082 104.6 52.1542 104.556 52.2334 104.556H86.7001C86.7667 104.556 86.8292 104.587 86.8681 104.64L89.0209 107.575C89.0667 107.639 89.0737 107.722 89.039 107.793C89.0029 107.864 88.9306 107.907 88.8529 107.907ZM54.4917 107.49H88.4417L86.5945 104.972H52.6445L54.4917 107.49Z" fill="#F9FAFB"/>
<path d="M87.7528 98.1611L86.7001 104.764H52.2334L53.2862 98.1611H70.5209H87.7528Z" fill="#98A2B3"/>
<path d="M86.7001 104.972H52.2334C52.1723 104.972 52.114 104.946 52.0751 104.899C52.0348 104.853 52.0181 104.79 52.0279 104.731L53.0806 98.1264C53.0973 98.025 53.1834 97.9514 53.2862 97.9514H87.7529C87.814 97.9514 87.8723 97.9778 87.9112 98.025C87.9501 98.0709 87.9681 98.1334 87.9584 98.1931L86.9056 104.797C86.8903 104.899 86.8029 104.972 86.7001 104.972ZM52.4778 104.556H86.5223L87.5084 98.3681H53.464L52.4778 104.556Z" fill="#F9FAFB"/>
<path d="M110.333 94.6292C110.418 94.4236 110.5 94.2181 110.578 94.0097C110.581 94.0028 110.583 93.9959 110.585 93.9889C110.661 93.7847 110.735 93.5778 110.807 93.3709C110.821 93.3306 110.835 93.2903 110.849 93.25C110.918 93.0445 110.986 92.8375 111.051 92.6292C111.064 92.5889 111.076 92.5486 111.089 92.507C111.151 92.3014 111.214 92.0945 111.272 91.8847C111.275 91.8722 111.279 91.8611 111.283 91.8486C111.343 91.632 111.4 91.4139 111.456 91.1959C111.467 91.1514 111.478 91.107 111.489 91.0625C111.542 90.8486 111.593 90.632 111.642 90.4153C111.65 90.3778 111.658 90.3417 111.665 90.3042C111.711 90.0986 111.754 89.8903 111.794 89.6834C111.8 89.657 111.806 89.6306 111.81 89.6042C111.853 89.3834 111.893 89.1597 111.932 88.9361C111.94 88.8889 111.949 88.8417 111.957 88.7931C111.994 88.5695 112.031 88.3459 112.064 88.1209C112.068 88.0903 112.072 88.0597 112.076 88.0292C112.107 87.8167 112.136 87.6042 112.164 87.3903C112.168 87.3542 112.174 87.3195 112.178 87.2834C112.206 87.057 112.232 86.8292 112.257 86.6C112.262 86.5514 112.267 86.5028 112.272 86.4556C112.296 86.2236 112.318 85.9917 112.339 85.7584C112.34 85.7389 112.342 85.7195 112.343 85.7C112.362 85.4764 112.379 85.2528 112.394 85.0278C112.397 84.9847 112.4 84.9417 112.403 84.8986C112.418 84.6667 112.432 84.4347 112.444 84.2014C112.447 84.1542 112.449 84.107 112.451 84.0597C112.462 83.8181 112.474 83.5778 112.482 83.3347L110.329 80.4C110.321 80.6431 110.31 80.8847 110.299 81.125C110.296 81.1722 110.294 81.2195 110.292 81.2667C110.279 81.5 110.267 81.7334 110.25 81.9639C110.247 82.007 110.244 82.05 110.242 82.0931C110.226 82.3181 110.21 82.5417 110.19 82.7653C110.189 82.7847 110.187 82.8042 110.186 82.8236C110.165 83.057 110.143 83.2903 110.119 83.5222C110.114 83.5709 110.11 83.6181 110.104 83.6667C110.079 83.8959 110.054 84.1236 110.025 84.35C110.021 84.3861 110.015 84.4222 110.011 84.457C109.983 84.6709 109.954 84.8834 109.924 85.0959C109.919 85.1264 109.915 85.157 109.911 85.1875C109.878 85.4125 109.842 85.6361 109.804 85.8597C109.796 85.907 109.787 85.9542 109.779 86.0014C109.74 86.225 109.7 86.4486 109.657 86.6695C109.651 86.6959 109.646 86.7209 109.642 86.7459C109.6 86.9542 109.557 87.1625 109.512 87.3681C109.504 87.4056 109.497 87.4417 109.489 87.4792C109.44 87.6959 109.39 87.9111 109.336 88.1264C109.325 88.1709 109.314 88.2153 109.303 88.2611C109.247 88.4792 109.19 88.6972 109.131 88.9139C109.128 88.9264 109.124 88.9375 109.119 88.95C109.061 89.1584 109 89.3653 108.936 89.5722C108.924 89.6125 108.911 89.6528 108.899 89.6931C108.833 89.9014 108.767 90.1084 108.696 90.3139C108.682 90.3542 108.668 90.3945 108.654 90.4347C108.582 90.6417 108.508 90.8472 108.432 91.0528C108.429 91.0597 108.426 91.0667 108.425 91.0736C108.346 91.282 108.264 91.4875 108.181 91.6931C108.164 91.7347 108.147 91.7764 108.129 91.8167C108.046 92.0167 107.96 92.2153 107.871 92.4111C107.853 92.4514 107.835 92.4903 107.817 92.5306C107.751 92.6736 107.685 92.8153 107.617 92.9556C107.596 92.9986 107.575 93.0431 107.553 93.0861C107.468 93.2584 107.381 93.4292 107.292 93.6C107.276 93.6278 107.261 93.657 107.246 93.6847C107.168 93.8306 107.089 93.975 107.008 94.1181C106.982 94.1639 106.957 94.2097 106.931 94.2556C106.835 94.4236 106.736 94.5903 106.635 94.757C106.635 94.757 106.635 94.7584 106.633 94.7584L108.786 97.6931C108.887 97.5264 108.986 97.3597 109.083 97.1903C109.11 97.1445 109.135 97.1 109.161 97.0542C109.242 96.9097 109.322 96.7653 109.399 96.6209C109.414 96.5931 109.429 96.5653 109.444 96.5361C109.535 96.3667 109.621 96.1945 109.706 96.0222C109.726 95.9792 109.747 95.9347 109.769 95.8917C109.837 95.7514 109.904 95.6097 109.969 95.4667C109.982 95.4389 109.996 95.4125 110.008 95.3847C110.014 95.3722 110.019 95.3597 110.025 95.3472C110.114 95.15 110.2 94.9514 110.283 94.7528C110.299 94.7111 110.315 94.6695 110.333 94.6292Z" fill="#D0D5DD"/>
<path d="M108.785 97.9014C108.718 97.9014 108.655 97.8694 108.617 97.8167L106.464 94.8819C106.414 94.8139 106.41 94.7222 106.454 94.65C106.555 94.4847 106.651 94.3194 106.747 94.1528L106.825 94.0167C106.905 93.875 106.983 93.7319 107.06 93.5875L107.105 93.5028C107.194 93.3347 107.28 93.1653 107.364 92.9944L107.426 92.8653C107.494 92.725 107.561 92.5847 107.625 92.4444L107.679 92.3264C107.764 92.1375 107.85 91.9389 107.935 91.7375L107.983 91.6194C108.076 91.3917 108.157 91.1917 108.228 91L108.236 90.9792C108.312 90.7778 108.385 90.5736 108.455 90.3681L108.497 90.2486C108.567 90.0444 108.633 89.8389 108.699 89.6319L108.735 89.5125C108.797 89.3083 108.858 89.1028 108.917 88.8958L108.926 88.8597C108.986 88.6444 109.043 88.4292 109.097 88.2125L109.13 88.0792C109.183 87.8667 109.233 87.6528 109.282 87.4375L109.305 87.3278C109.35 87.1222 109.393 86.9167 109.435 86.7083L109.45 86.6319C109.493 86.4125 109.533 86.1903 109.572 85.968L109.596 85.8264C109.633 85.6042 109.669 85.3819 109.703 85.1583L109.715 85.0667C109.746 84.8556 109.775 84.6444 109.801 84.4319L109.815 84.325C109.843 84.1 109.869 83.8722 109.894 83.6458L109.91 83.5014C109.933 83.2708 109.955 83.0389 109.976 82.8069L109.98 82.7472C109.999 82.5264 110.017 82.3028 110.032 82.0792L110.04 81.9514C110.055 81.7208 110.069 81.4889 110.08 81.2569L110.087 81.1181C110.099 80.875 110.11 80.6347 110.118 80.3931C110.121 80.3042 110.18 80.2278 110.265 80.2014C110.35 80.175 110.442 80.2056 110.494 80.2778L112.647 83.2125C112.675 83.25 112.689 83.2958 112.687 83.3431C112.679 83.5861 112.668 83.8292 112.657 84.0708L112.65 84.2139C112.637 84.4486 112.624 84.6819 112.608 84.9153L112.599 85.0444C112.583 85.2708 112.565 85.4958 112.547 85.7194L112.543 85.7792C112.524 86.0125 112.5 86.2458 112.476 86.4792L112.461 86.625C112.436 86.8542 112.41 87.0833 112.382 87.3111L112.368 87.418C112.34 87.6333 112.311 87.8472 112.28 88.0611L112.267 88.1542C112.233 88.3792 112.197 88.6042 112.16 88.8292L112.135 88.9722C112.096 89.1972 112.055 89.4222 112.011 89.6444L111.994 89.725C111.953 89.9333 111.91 90.1417 111.864 90.35L111.84 90.4625C111.792 90.6806 111.74 90.8972 111.687 91.1139L111.655 91.2417C111.599 91.4694 111.54 91.6889 111.48 91.9069L111.469 91.9431C111.411 92.1528 111.349 92.3625 111.285 92.5694L111.247 92.6917C111.182 92.9014 111.114 93.1097 111.043 93.3181L111.001 93.4403C110.929 93.6486 110.855 93.8569 110.778 94.0625L110.769 94.0833C110.699 94.2722 110.618 94.4764 110.522 94.7083L110.329 94.6292L110.519 94.7125L110.469 94.8333C110.383 95.0403 110.296 95.2431 110.208 95.4333L110.153 95.5528C110.086 95.6972 110.019 95.8403 109.95 95.9819L109.886 96.1139C109.8 96.2889 109.712 96.4611 109.621 96.6333L109.575 96.7181C109.497 96.8653 109.417 97.0111 109.335 97.1556L109.257 97.2931C109.16 97.4639 109.06 97.6333 108.957 97.8C108.921 97.8597 108.857 97.8958 108.787 97.9C108.792 97.9014 108.789 97.9014 108.785 97.9014ZM106.883 94.7472L108.768 97.3167C108.812 97.2403 108.857 97.1639 108.901 97.0861L108.978 96.9514C109.058 96.8083 109.137 96.6653 109.214 96.5222L109.258 96.4389C109.347 96.2694 109.433 96.1 109.518 95.9292L109.58 95.8C109.649 95.6611 109.714 95.5208 109.779 95.3792L109.833 95.2611C109.918 95.0736 110.004 94.875 110.089 94.6708L110.137 94.5528L110.14 94.5472C110.233 94.3194 110.314 94.1181 110.383 93.9333L110.586 93.9861L110.392 93.9125C110.468 93.7097 110.54 93.5056 110.611 93.3L110.653 93.1806C110.722 92.9764 110.789 92.7708 110.854 92.5639L110.89 92.4431C110.953 92.2375 111.014 92.0333 111.072 91.8264L111.082 91.7903C111.142 91.575 111.199 91.3597 111.253 91.1417L111.286 91.0097C111.339 90.7958 111.389 90.5819 111.437 90.3681L111.461 90.2583C111.505 90.0528 111.549 89.8472 111.59 89.6403L111.605 89.5625C111.649 89.343 111.689 89.1222 111.728 88.9L111.751 88.7583C111.789 88.5375 111.825 88.3153 111.857 88.0917L111.869 88C111.9 87.7889 111.929 87.5778 111.955 87.3653L111.969 87.2583C111.997 87.0333 112.024 86.8069 112.047 86.5792L112.061 86.4417C112.086 86.2042 112.108 85.9736 112.128 85.7417L112.132 85.6833C112.151 85.4611 112.168 85.2375 112.183 85.0139L112.192 84.8861C112.207 84.6556 112.221 84.4236 112.232 84.1917L112.239 84.05C112.25 83.8333 112.26 83.6167 112.267 83.4L110.508 81.0028C110.505 81.0472 110.504 81.0917 110.501 81.1347L110.494 81.2778C110.482 81.5125 110.468 81.7458 110.453 81.9792L110.443 82.1083C110.428 82.3347 110.41 82.5597 110.392 82.7833L110.387 82.8417C110.367 83.0764 110.344 83.3111 110.321 83.5431L110.305 83.6889C110.28 83.9181 110.254 84.1472 110.226 84.375L110.212 84.4833C110.185 84.6986 110.155 84.9125 110.125 85.125L110.112 85.2167C110.079 85.4431 110.043 85.6681 110.004 85.8931L109.979 86.0361C109.94 86.2611 109.9 86.4847 109.855 86.7083L109.84 86.7861C109.799 86.9958 109.755 87.2042 109.71 87.4125L109.686 87.5236C109.637 87.7417 109.586 87.9597 109.533 88.175L109.501 88.3042C109.444 88.5305 109.387 88.75 109.326 88.9681L109.315 89.0042C109.257 89.2139 109.194 89.4236 109.13 89.6306L109.093 89.7528C109.028 89.9625 108.96 90.1722 108.889 90.3792L108.847 90.5014C108.775 90.7097 108.701 90.9181 108.624 91.1236L108.618 91.1389C108.543 91.3389 108.461 91.5431 108.368 91.7694L108.317 91.8944C108.23 92.1 108.143 92.3014 108.057 92.4944L108.001 92.6139C107.935 92.7583 107.868 92.9014 107.799 93.043L107.735 93.175C107.649 93.3486 107.561 93.5222 107.471 93.6944L107.425 93.7792C107.347 93.9264 107.267 94.0722 107.185 94.2167L107.105 94.3556C107.036 94.4903 106.96 94.6194 106.883 94.7472Z" fill="#F9FAFB"/>
<path d="M110.329 80.4015C110.149 85.6848 109.174 90.607 106.632 94.7584H105.69H86.5403C88.5958 91.5487 90.0792 86.6945 90.2361 80.4015H107.981H110.329ZM107.661 83.857C107.989 83.857 108.296 83.6001 108.347 83.2834C108.397 82.9668 108.172 82.7098 107.844 82.7098H92.1667C91.8375 82.7098 91.5319 82.9668 91.4806 83.2834C91.4306 83.6001 91.6542 83.857 91.9833 83.857H107.661ZM107.132 87.1737C107.46 87.1737 107.767 86.9182 107.818 86.6015C107.868 86.2848 107.643 86.0279 107.315 86.0279H92.1306C91.8014 86.0279 91.4958 86.2834 91.4444 86.6015C91.3944 86.9182 91.6181 87.1737 91.9472 87.1737H107.132ZM105.525 90.4918C105.854 90.4918 106.16 90.2362 106.211 89.9182C106.261 89.6015 106.037 89.3459 105.708 89.3459H91.3083C90.9792 89.3459 90.6736 89.6015 90.6222 89.9182C90.5722 90.2348 90.7958 90.4918 91.125 90.4918H105.525Z" fill="#D0D5DD"/>
<path d="M106.633 94.9667H86.5402C86.4638 94.9667 86.3943 94.9251 86.3568 94.8584C86.3207 94.7917 86.3235 94.7098 86.3638 94.6459C88.5832 91.1806 89.8846 86.1195 90.0263 80.3959C90.0291 80.2834 90.1221 80.1931 90.2346 80.1931H110.329C110.386 80.1931 110.44 80.2167 110.479 80.257C110.518 80.2973 110.539 80.3528 110.537 80.4084C110.333 86.3751 109.114 91.1042 106.81 94.8667C106.772 94.9292 106.705 94.9667 106.633 94.9667ZM86.9152 94.5501H106.515C108.714 90.9126 109.892 86.3487 110.114 80.6098H90.4388C90.2735 86.1514 89.0277 91.0764 86.9152 94.5501ZM105.525 90.7001H91.1263C90.9054 90.7001 90.7027 90.6112 90.5693 90.4542C90.4374 90.3001 90.3832 90.0973 90.4166 89.8848C90.4832 89.4653 90.8749 89.1376 91.3082 89.1376H105.708C105.929 89.1376 106.132 89.2278 106.265 89.3834C106.397 89.5376 106.451 89.739 106.417 89.9515C106.35 90.3723 105.958 90.7001 105.525 90.7001ZM91.3082 89.5556C91.0818 89.5556 90.8624 89.7376 90.8277 89.9528C90.8138 90.0431 90.8332 90.1251 90.886 90.1862C90.9402 90.2501 91.0263 90.2862 91.1249 90.2862H105.525C105.751 90.2862 105.971 90.1042 106.005 89.8889C106.019 89.8001 106 89.7181 105.947 89.657C105.893 89.5931 105.807 89.557 105.707 89.557H91.3082V89.5556ZM107.132 87.382H91.9471C91.7263 87.382 91.5235 87.2917 91.3902 87.1362C91.2582 86.982 91.204 86.7806 91.2374 86.5681C91.304 86.1487 91.6957 85.8195 92.1291 85.8195H107.314C107.533 85.8195 107.736 85.9098 107.869 86.0653C108.001 86.2195 108.055 86.4223 108.022 86.6334C107.955 87.0542 107.565 87.382 107.132 87.382ZM92.1304 86.2376C91.9041 86.2376 91.6846 86.4195 91.6499 86.6348C91.636 86.7237 91.6554 86.8056 91.7082 86.8667C91.7624 86.9306 91.8485 86.9667 91.9485 86.9667H107.133C107.36 86.9667 107.579 86.7848 107.614 86.5695C107.628 86.4806 107.608 86.3973 107.555 86.3376C107.501 86.2737 107.415 86.2376 107.317 86.2376H92.1304ZM107.661 84.0653H91.9832C91.7638 84.0653 91.561 83.9764 91.4277 83.8195C91.2957 83.6653 91.2416 83.4626 91.2749 83.2514C91.3416 82.832 91.7332 82.5028 92.1665 82.5028H107.844C108.064 82.5028 108.267 82.5931 108.4 82.7487C108.532 82.9042 108.586 83.1056 108.553 83.3167C108.485 83.7362 108.094 84.0653 107.661 84.0653ZM92.1665 82.9181C91.9402 82.9181 91.7207 83.1001 91.686 83.3153C91.6721 83.4042 91.6929 83.4876 91.7443 83.5473C91.7985 83.6112 91.8846 83.6473 91.9832 83.6473H107.661C107.887 83.6473 108.107 83.4653 108.142 83.2501C108.155 83.1612 108.135 83.0778 108.083 83.0181C108.028 82.9542 107.943 82.9181 107.844 82.9181H92.1665Z" fill="#F9FAFB"/>
<path d="M103.843 98.1611L105.996 101.096H89.9055L87.7527 98.1611H103.843Z" fill="#D0D5DD"/>
<path d="M105.996 101.304H89.9055C89.8388 101.304 89.7763 101.272 89.7374 101.219L87.5846 98.2847C87.5388 98.2208 87.5319 98.1375 87.5666 98.0666C87.6013 97.9972 87.6735 97.9528 87.7527 97.9528H103.843C103.91 97.9528 103.972 97.9847 104.011 98.0375L106.164 100.972C106.21 101.036 106.217 101.119 106.182 101.19C106.146 101.26 106.074 101.304 105.996 101.304ZM90.011 100.887H105.585L103.737 98.3694H88.1638L90.011 100.887Z" fill="#F9FAFB"/>
<path d="M93.2488 68.8541C96.1238 68.8541 98.0946 71.1 97.6529 73.8736H109.022L107.981 80.4014H90.2363C90.0793 86.6944 88.596 91.5486 86.5404 94.7583H105.692L105.35 96.9013C105.239 97.5972 104.565 98.1597 103.845 98.1597H87.7529H70.521L71.6571 91.0361C74.5307 91.0361 77.2196 88.7902 77.6627 86.0166C78.1043 83.243 76.1335 80.9972 73.2585 80.9972L74.3946 73.8736H87.2432C87.6849 71.1 90.3752 68.8541 93.2488 68.8541Z" fill="#E4E7EC"/>
<path d="M103.843 98.3694H70.5209C70.4598 98.3694 70.4014 98.343 70.3626 98.2958C70.3237 98.25 70.3056 98.1875 70.3153 98.1278L71.4514 91.0042C71.4681 90.9028 71.5542 90.8292 71.657 90.8292C74.4292 90.8292 77.0306 88.6556 77.457 85.9847C77.657 84.7278 77.3473 83.5417 76.5834 82.6458C75.7917 81.718 74.6112 81.2069 73.2598 81.2069C73.1987 81.2069 73.1403 81.1805 73.1014 81.1333C73.0626 81.0875 73.0445 81.025 73.0542 80.9653L74.1903 73.8417C74.207 73.7403 74.2931 73.6667 74.3959 73.6667H87.0709C87.6112 70.8833 90.3445 68.6472 93.2514 68.6472C94.7278 68.6472 96.0209 69.2097 96.8931 70.2333C97.6889 71.1653 98.0403 72.3778 97.8945 73.668H109.025C109.086 73.668 109.145 73.6944 109.183 73.7417C109.222 73.7875 109.24 73.85 109.231 73.9097L108.189 80.4375C108.172 80.5389 108.086 80.6125 107.983 80.6125H90.4417C90.2764 86.1542 89.0306 91.0792 86.9181 94.5528H105.693C105.754 94.5528 105.813 94.5792 105.851 94.6264C105.89 94.6722 105.908 94.7347 105.899 94.7944L105.557 96.9375C105.428 97.725 104.661 98.3694 103.843 98.3694ZM70.7639 97.9528H103.843C104.465 97.9528 105.047 97.4667 105.143 96.8694L105.446 94.9667H86.5403C86.464 94.9667 86.3945 94.925 86.357 94.8583C86.3209 94.7917 86.3237 94.7097 86.3639 94.6458C88.5834 91.1805 89.8848 86.1194 90.0264 80.3958C90.0292 80.2833 90.1223 80.1931 90.2348 80.1931H107.801L108.776 74.0819H97.6515C97.5903 74.0819 97.532 74.0555 97.4931 74.0083C97.4542 73.9625 97.4362 73.9 97.4459 73.8403C97.6459 72.5819 97.3362 71.3972 96.5723 70.5014C95.7806 69.5736 94.6001 69.0625 93.2473 69.0625C90.4751 69.0625 87.8737 71.2361 87.4473 73.9069C87.4306 74.0083 87.3445 74.0819 87.2417 74.0819H74.5709L73.5001 80.7944C74.8737 80.8528 76.0737 81.4097 76.8973 82.375C77.7417 83.3653 78.0862 84.6708 77.8653 86.05C77.4181 88.8569 74.7334 91.1514 71.832 91.243L70.7639 97.9528Z" fill="#F9FAFB"/>
<path d="M107.465 99.9945C107.48 99.9431 107.493 99.8903 107.501 99.8375L107.843 97.6945L105.69 94.7598L105.348 96.9028C105.34 96.9556 105.328 97.0084 105.312 97.0598C105.308 97.075 105.303 97.0889 105.298 97.1042C105.286 97.1431 105.271 97.182 105.255 97.2195C105.25 97.232 105.244 97.2459 105.239 97.2584C105.217 97.307 105.192 97.3542 105.164 97.4C105.155 97.4125 105.147 97.425 105.139 97.4375C105.122 97.4639 105.104 97.4903 105.086 97.5153C105.073 97.532 105.06 97.5486 105.047 97.5653C105.033 97.5834 105.018 97.6014 105.003 97.6195C104.987 97.6361 104.971 97.6528 104.955 97.6695C104.942 97.6848 104.928 97.6987 104.914 97.7125C104.897 97.7292 104.878 97.7459 104.86 97.7612C104.846 97.7737 104.83 97.7875 104.817 97.7987C104.798 97.8139 104.779 97.8278 104.76 97.8417C104.743 97.8542 104.728 97.8667 104.711 97.8778C104.694 97.8903 104.676 97.9014 104.658 97.9125C104.637 97.925 104.618 97.9389 104.597 97.95C104.582 97.9584 104.567 97.9667 104.551 97.975C104.525 97.9889 104.497 98.0028 104.471 98.0167C104.457 98.0236 104.442 98.0292 104.428 98.0361C104.389 98.0528 104.35 98.0681 104.31 98.0806C104.293 98.0862 104.276 98.0917 104.26 98.0973C104.246 98.1014 104.23 98.1056 104.217 98.1098C104.19 98.1167 104.164 98.1223 104.139 98.1278C104.123 98.1306 104.11 98.1334 104.094 98.1362C104.067 98.1417 104.039 98.1445 104.01 98.1486C103.997 98.15 103.983 98.1528 103.971 98.1528C103.929 98.157 103.887 98.1584 103.846 98.1584L105.998 101.093C106.04 101.093 106.082 101.09 106.123 101.088C106.136 101.086 106.15 101.085 106.162 101.083C106.19 101.081 106.219 101.076 106.247 101.071C106.262 101.068 106.276 101.065 106.292 101.063C106.318 101.057 106.344 101.051 106.369 101.044C106.383 101.04 106.398 101.036 106.412 101.032C106.421 101.029 106.428 101.028 106.436 101.025C106.446 101.022 106.454 101.018 106.464 101.015C106.504 101.001 106.543 100.988 106.582 100.971C106.59 100.967 106.6 100.964 106.608 100.961C106.614 100.958 106.619 100.956 106.625 100.953C106.653 100.94 106.679 100.926 106.705 100.911C106.718 100.904 106.73 100.9 106.742 100.893C106.746 100.892 106.748 100.889 106.751 100.886C106.772 100.874 106.792 100.861 106.812 100.849C106.828 100.839 106.843 100.831 106.857 100.821C106.86 100.819 106.862 100.817 106.865 100.814C106.882 100.803 106.897 100.79 106.914 100.778C106.929 100.767 106.946 100.756 106.961 100.743C106.964 100.74 106.968 100.738 106.971 100.735C106.986 100.722 107 100.71 107.014 100.697C107.028 100.685 107.043 100.672 107.057 100.66C107.061 100.656 107.064 100.653 107.068 100.649C107.082 100.635 107.096 100.619 107.11 100.606C107.122 100.593 107.135 100.581 107.146 100.568C107.15 100.564 107.153 100.56 107.157 100.556C107.172 100.538 107.186 100.519 107.201 100.501C107.211 100.489 107.222 100.476 107.232 100.464C107.235 100.46 107.237 100.456 107.24 100.451C107.258 100.426 107.276 100.4 107.293 100.374C107.3 100.363 107.308 100.353 107.315 100.342C107.317 100.34 107.317 100.338 107.318 100.336C107.346 100.29 107.371 100.243 107.393 100.193C107.394 100.189 107.397 100.185 107.4 100.181C107.404 100.172 107.405 100.163 107.41 100.154C107.426 100.117 107.44 100.078 107.453 100.039C107.455 100.024 107.461 100.01 107.465 99.9945Z" fill="#D0D5DD"/>
<path d="M105.996 101.304C105.929 101.304 105.867 101.272 105.828 101.219L103.675 98.2847C103.629 98.2208 103.622 98.1375 103.657 98.0667C103.692 97.9972 103.764 97.9528 103.843 97.9528C103.879 97.9528 103.914 97.9514 103.95 97.9472L103.967 97.9458L103.982 97.9444C104.007 97.9417 104.031 97.9389 104.054 97.9347L104.093 97.9278C104.115 97.9236 104.137 97.9181 104.161 97.9111L104.242 97.8861C104.276 97.875 104.31 97.8611 104.343 97.8472L104.357 97.8417L104.381 97.8319C104.404 97.8208 104.428 97.8083 104.451 97.7958L104.492 97.775C104.506 97.7667 104.519 97.7583 104.532 97.75C104.532 97.75 104.543 97.7431 104.544 97.7417L104.561 97.7319C104.571 97.725 104.582 97.7194 104.592 97.7125C104.6 97.7069 104.608 97.7 104.617 97.6931L104.633 97.6806C104.657 97.6625 104.669 97.6528 104.682 97.6431L104.719 97.6097C104.74 97.5917 104.754 97.5792 104.767 97.5667C104.776 97.5569 104.785 97.5486 104.793 97.5389L104.803 97.5292C104.818 97.5139 104.832 97.5 104.844 97.4847C104.856 97.4722 104.865 97.4583 104.876 97.4458L104.892 97.4278C104.9 97.4181 104.908 97.4069 104.917 97.3958C104.933 97.3736 104.947 97.3514 104.962 97.3278L104.985 97.2958C105.008 97.2569 105.031 97.2153 105.049 97.1736L105.057 97.1556L105.062 97.1417C105.076 97.1083 105.089 97.075 105.1 97.0417L105.111 97.0042C105.125 96.9542 105.136 96.9125 105.142 96.8722L105.483 94.7292C105.497 94.6458 105.558 94.5792 105.64 94.5597C105.722 94.5403 105.807 94.5708 105.857 94.6389L108.01 97.5736C108.043 97.6181 108.056 97.675 108.047 97.7292L107.706 99.8722C107.696 99.9292 107.683 99.9875 107.664 100.054C107.658 100.071 107.654 100.086 107.649 100.103C107.633 100.15 107.617 100.193 107.599 100.238C107.596 100.247 107.592 100.258 107.586 100.269C107.583 100.275 107.578 100.286 107.575 100.29C107.553 100.338 107.526 100.39 107.496 100.439C107.492 100.446 107.489 100.453 107.485 100.458C107.483 100.461 107.476 100.471 107.469 100.481C107.444 100.518 107.425 100.547 107.404 100.576C107.403 100.579 107.399 100.585 107.393 100.592C107.386 100.601 107.376 100.612 107.368 100.622L107.358 100.633C107.337 100.66 107.324 100.678 107.308 100.694C107.307 100.697 107.303 100.703 107.297 100.708C107.287 100.719 107.278 100.729 107.267 100.74L107.256 100.751C107.236 100.772 107.222 100.786 107.208 100.8L107.196 100.812C107.185 100.824 107.172 100.833 107.161 100.843L107.149 100.854C107.125 100.875 107.112 100.886 107.099 100.897L107.087 100.907C107.076 100.915 107.064 100.925 107.05 100.935L107.022 100.956C107.008 100.967 106.994 100.976 106.981 100.986C106.958 101.001 106.946 101.01 106.933 101.017L106.907 101.033C106.889 101.046 106.869 101.057 106.851 101.068C106.851 101.068 106.84 101.075 106.839 101.075C106.829 101.081 106.818 101.086 106.807 101.092C106.768 101.112 106.737 101.128 106.707 101.143C106.701 101.146 106.694 101.15 106.686 101.153C106.678 101.157 106.667 101.161 106.657 101.164C106.612 101.183 106.568 101.2 106.524 101.215C106.514 101.219 106.503 101.224 106.493 101.226C106.489 101.228 106.474 101.232 106.469 101.233C106.453 101.239 106.439 101.242 106.424 101.246C106.387 101.256 106.358 101.262 106.328 101.269C106.311 101.274 106.293 101.276 106.276 101.279C106.244 101.285 106.212 101.289 106.181 101.293L106.136 101.299C106.092 101.301 106.043 101.304 105.996 101.304ZM104.221 98.3236L106.097 100.882C106.099 100.882 106.1 100.882 106.101 100.882L106.119 100.879C106.121 100.879 106.135 100.878 106.136 100.878C106.16 100.875 106.185 100.872 106.208 100.868L106.247 100.861C106.269 100.857 106.293 100.851 106.315 100.844L106.353 100.835C106.356 100.833 106.369 100.831 106.371 100.829C106.379 100.826 106.387 100.822 106.397 100.819C106.431 100.808 106.465 100.794 106.499 100.781C106.503 100.779 106.519 100.772 106.524 100.771C106.528 100.769 106.533 100.765 106.537 100.764C106.56 100.753 106.583 100.74 106.607 100.728L106.647 100.706C106.66 100.699 106.674 100.69 106.686 100.681L106.739 100.647C106.756 100.636 106.764 100.629 106.772 100.622L106.828 100.581C106.846 100.565 106.854 100.558 106.862 100.55L106.922 100.496C106.931 100.487 106.94 100.476 106.95 100.467L106.997 100.417C107.01 100.403 107.019 100.39 107.029 100.378L107.064 100.336C107.064 100.336 107.068 100.329 107.072 100.324C107.086 100.304 107.101 100.282 107.115 100.258L107.129 100.238C107.129 100.236 107.132 100.235 107.133 100.232C107.135 100.231 107.135 100.229 107.136 100.228C107.161 100.186 107.182 100.146 107.201 100.104C107.203 100.101 107.206 100.097 107.207 100.093C107.21 100.086 107.214 100.075 107.215 100.072C107.229 100.04 107.242 100.007 107.253 99.9736L107.265 99.9361C107.281 99.8861 107.29 99.8431 107.296 99.8042L107.624 97.7472L105.818 95.2847L105.556 96.9347C105.547 96.9903 105.533 97.05 105.514 97.1167L105.5 97.1583C105.482 97.2125 105.465 97.2569 105.447 97.3C105.439 97.3208 105.433 97.3333 105.428 97.3444C105.403 97.4 105.374 97.4542 105.342 97.5055C105.335 97.5167 105.328 97.5278 105.321 97.5389C105.294 97.5792 105.275 97.6097 105.253 97.6375C105.242 97.6528 105.229 97.6681 105.218 97.6819L105.21 97.6931C105.19 97.7181 105.175 97.7361 105.16 97.7542C105.142 97.775 105.124 97.7931 105.106 97.8125C105.085 97.8347 105.072 97.8486 105.058 97.8611C105.042 97.8778 105.024 97.8931 105.006 97.9083L104.986 97.925C104.974 97.9361 104.961 97.9472 104.949 97.9569C104.931 97.9722 104.912 97.9847 104.894 97.9986L104.871 98.0167C104.857 98.0264 104.844 98.0375 104.831 98.0472C104.815 98.0583 104.8 98.068 104.785 98.0778L104.771 98.0861C104.742 98.1055 104.722 98.1181 104.703 98.1292C104.69 98.1361 104.678 98.1431 104.665 98.15L104.651 98.1569C104.621 98.1736 104.59 98.1889 104.56 98.2028C104.547 98.2083 104.535 98.2139 104.521 98.2194C104.467 98.2431 104.422 98.2597 104.376 98.275L104.364 98.2792C104.35 98.2847 104.335 98.2889 104.321 98.2931C104.306 98.2972 104.289 98.3014 104.274 98.3056C104.253 98.3153 104.237 98.3194 104.221 98.3236Z" fill="#F9FAFB"/>
<path d="M50.3958 70.3153H40.3319H31.75L33.9028 73.25H42.4847H52.5486L50.3958 70.3153Z" fill="#D0D5DD"/>
<path d="M52.5486 73.4583H33.9028C33.8361 73.4583 33.7736 73.4264 33.7347 73.3736L31.582 70.4389C31.5361 70.375 31.5292 70.2917 31.5639 70.2208C31.5986 70.1514 31.6708 70.1069 31.75 70.1069H50.3958C50.4625 70.1069 50.525 70.1389 50.5639 70.1917L52.7167 73.1264C52.7625 73.1903 52.7695 73.2736 52.7347 73.3444C52.6986 73.4139 52.6264 73.4583 52.5486 73.4583ZM34.0083 73.0417H52.1375L50.2903 70.5236H32.1611L34.0083 73.0417Z" fill="#F9FAFB"/>
<path d="M53.2694 71.832C53.2833 71.8028 53.2972 71.7737 53.3111 71.7445C53.3222 71.7209 53.3333 71.6973 53.3444 71.6737C53.4403 71.464 53.5319 71.2515 53.6208 71.0376C53.6236 71.0306 53.6278 71.0237 53.6306 71.0153C53.7306 70.7751 53.8264 70.5306 53.9194 70.2862C53.95 70.207 53.9778 70.1265 54.0069 70.0473C54.0681 69.8792 54.1292 69.7112 54.1875 69.5417C54.2208 69.4459 54.2514 69.3501 54.2833 69.2542C54.3347 69.0973 54.3861 68.9403 54.4347 68.782C54.4667 68.6806 54.4972 68.5792 54.5278 68.4778C54.575 68.3209 54.6208 68.1626 54.6653 68.0042C54.6931 67.9028 54.7222 67.8015 54.75 67.7001C54.7944 67.5334 54.8375 67.3667 54.8792 67.1987C54.9028 67.1042 54.9278 67.0098 54.95 66.9153C54.9972 66.7181 55.0431 66.5181 55.0875 66.3181C55.1028 66.2528 55.1181 66.1876 55.1319 66.1209C55.1889 65.8542 55.2431 65.5862 55.2958 65.3167C55.3083 65.2515 55.3194 65.1834 55.3319 65.1181C55.3694 64.9126 55.4069 64.707 55.4417 64.5001C55.4583 64.4001 55.4736 64.3001 55.4903 64.2001C55.5181 64.0251 55.5458 63.8487 55.5722 63.6723C55.5889 63.5626 55.6042 63.4528 55.6194 63.3431C55.6431 63.1723 55.6667 63.0015 55.6889 62.8292C55.7028 62.7181 55.7181 62.6056 55.7306 62.4945C55.7514 62.3195 55.7722 62.1431 55.7917 61.9667C55.8042 61.8598 55.8153 61.7515 55.8264 61.6445C55.8458 61.4515 55.8653 61.2584 55.8833 61.064C55.8917 60.9723 55.9014 60.8806 55.9097 60.789C55.9347 60.5028 55.9583 60.2167 55.9792 59.9292L53.8264 56.9945C53.8056 57.282 53.7819 57.5695 53.7569 57.8542C53.7486 57.9459 53.7403 58.0376 53.7306 58.1292C53.7125 58.3237 53.6944 58.5167 53.6736 58.7098C53.6625 58.8181 53.65 58.9251 53.6389 59.032C53.6194 59.2084 53.5986 59.3848 53.5778 59.5598C53.5639 59.6723 53.55 59.7834 53.5361 59.8945C53.5139 60.0667 53.4903 60.2376 53.4667 60.4084C53.4514 60.5181 53.4361 60.6278 53.4194 60.7376C53.3931 60.914 53.3653 61.0903 53.3375 61.2653C53.3208 61.3653 53.3056 61.4667 53.2889 61.5653C53.2542 61.7723 53.2167 61.9778 53.1792 62.1834C53.1667 62.2501 53.1556 62.3167 53.1431 62.382C53.0917 62.6515 53.0375 62.9195 52.9792 63.1862C52.9653 63.2528 52.9486 63.3181 52.9347 63.3834C52.8903 63.5834 52.8458 63.782 52.7972 63.9806C52.7736 64.0765 52.75 64.1695 52.7264 64.2653C52.6847 64.4334 52.6417 64.6001 52.5972 64.7667C52.5694 64.8695 52.5417 64.9709 52.5125 65.0723C52.4681 65.2306 52.4222 65.389 52.3764 65.5459C52.3458 65.6473 52.3153 65.7501 52.2833 65.8501C52.2347 66.0084 52.1833 66.1653 52.1319 66.3223C52.1 66.4181 52.0681 66.5153 52.0361 66.6098C51.9778 66.7792 51.9167 66.9473 51.8556 67.1153C51.8264 67.1945 51.7986 67.2751 51.7681 67.3542C51.675 67.6001 51.5792 67.8431 51.4792 68.0834C51.4764 68.0917 51.4722 68.0987 51.4694 68.107C51.3708 68.3445 51.2667 68.5792 51.1597 68.8126C51.1458 68.8417 51.1319 68.8709 51.1181 68.9015C51.0125 69.1278 50.9056 69.3528 50.7931 69.5737C50.7833 69.5931 50.7736 69.6112 50.7639 69.6292C50.6458 69.8612 50.5236 70.0917 50.3972 70.3181L52.55 73.2528C52.6764 73.0251 52.7986 72.7959 52.9167 72.5626C52.9264 72.5445 52.9361 72.5251 52.9458 72.507C53.0556 72.2834 53.1639 72.0584 53.2694 71.832Z" fill="#E4E7EC"/>
<path d="M52.5487 73.4584C52.482 73.4584 52.4195 73.4264 52.3806 73.3737L50.2279 70.4389C50.1792 70.3737 50.1751 70.2848 50.214 70.2139C50.3334 70.0001 50.4515 69.7778 50.5765 69.532L50.6056 69.4764C50.7126 69.2653 50.8167 69.0487 50.9278 68.8098L50.9681 68.7223C51.0737 68.4917 51.1778 68.2556 51.2751 68.0223C51.2751 68.0209 51.282 68.007 51.282 68.0056C51.3765 67.7778 51.4709 67.5417 51.5723 67.2764C51.5903 67.2292 51.607 67.182 51.6251 67.1348L51.6598 67.0403C51.7209 66.8737 51.782 66.707 51.839 66.5389C51.864 66.4667 51.889 66.3931 51.9126 66.3195L51.9348 66.2528C51.9862 66.0973 52.0362 65.9417 52.0848 65.7848C52.1154 65.6848 52.1473 65.5834 52.1765 65.482C52.2237 65.3264 52.2681 65.1695 52.3126 65.0126L52.3209 64.9834C52.3459 64.8931 52.3723 64.8014 52.3959 64.7098C52.4403 64.5445 52.482 64.3792 52.5251 64.2126L52.5473 64.1223C52.564 64.0584 52.5792 63.9945 52.5959 63.9292C52.6431 63.732 52.6876 63.5348 52.732 63.3362L52.7529 63.2459C52.7612 63.2112 52.7695 63.1751 52.7765 63.1403C52.832 62.8806 52.8876 62.6126 52.939 62.3403C52.9459 62.3042 52.9515 62.2695 52.9584 62.2334L52.9751 62.1431C53.0126 61.9389 53.0501 61.7348 53.0848 61.5292C53.0973 61.4584 53.1084 61.3876 53.1195 61.3181L53.1334 61.2306C53.1612 61.0556 53.189 60.8806 53.2153 60.7056C53.232 60.5973 53.2473 60.4876 53.2626 60.3778C53.2862 60.2084 53.3098 60.0376 53.332 59.8667C53.3459 59.7556 53.3598 59.6445 53.3737 59.5334C53.3945 59.3584 53.4154 59.1834 53.4348 59.0084L53.4403 58.9612C53.4501 58.8695 53.4612 58.7792 53.4695 58.6876C53.489 58.4959 53.5084 58.3028 53.5265 58.1098L53.5528 57.8362C53.5778 57.5515 53.6015 57.2667 53.6223 56.9792C53.6292 56.8917 53.689 56.8181 53.7723 56.7945C53.8556 56.7709 53.9459 56.8014 53.9973 56.8709L56.1501 59.8056C56.1792 59.8459 56.1931 59.8945 56.1903 59.9445C56.1695 60.2334 56.1459 60.5209 56.1209 60.807L56.0945 61.0834C56.0765 61.2778 56.0584 61.4723 56.0376 61.6653C56.0278 61.757 56.0181 61.8487 56.007 61.9403L56.0015 61.9889C55.982 62.1667 55.9612 62.3431 55.9403 62.5195C55.9265 62.632 55.9126 62.7445 55.8987 62.8556C55.8765 63.0278 55.8528 63.2001 55.8292 63.3709C55.814 63.4806 55.7987 63.5917 55.782 63.7014C55.7556 63.8792 55.7278 64.0556 55.6987 64.232L55.682 64.3376C55.6709 64.4028 55.6612 64.4681 55.6501 64.5334C55.6153 64.7417 55.5778 64.9487 55.539 65.1542L55.5237 65.2417C55.5167 65.2792 55.5098 65.3167 55.5028 65.3542C55.4515 65.6209 55.3959 65.8931 55.339 66.1626C55.3306 66.2014 55.3209 66.2403 55.3126 66.2792L55.2945 66.3612C55.2501 66.5626 55.2042 66.7626 55.157 66.9612C55.1417 67.0278 55.1251 67.0931 55.1084 67.1584L55.0862 67.2473C55.0445 67.4167 55.0015 67.5848 54.9556 67.7514C54.9306 67.8445 54.9042 67.9376 54.8792 68.0306L54.8709 68.0584C54.8265 68.2181 54.7806 68.3778 54.7334 68.5362C54.7028 68.6389 54.6723 68.7417 54.6403 68.8431C54.5903 69.0028 54.539 69.1612 54.4876 69.3181L54.4709 69.3681C54.4445 69.4487 54.4181 69.5278 54.3903 69.6084C54.332 69.7792 54.2695 69.9487 54.2084 70.1181L54.1765 70.207C54.1584 70.2584 54.1404 70.3084 54.1209 70.3584C54.0195 70.6251 53.9251 70.8653 53.8292 71.0945C53.8292 71.0959 53.8237 71.1084 53.8223 71.1098C53.7265 71.3403 53.632 71.5556 53.5403 71.7598L53.4654 71.9195C53.3529 72.1626 53.2459 72.3848 53.1376 72.5987L53.1084 72.6556C52.9806 72.907 52.8598 73.1348 52.7376 73.3528C52.7028 73.4153 52.639 73.4542 52.5681 73.4598C52.557 73.4584 52.5528 73.4584 52.5487 73.4584ZM50.6417 70.3001L52.5223 72.8639C52.5903 72.7376 52.6584 72.6056 52.7292 72.4667L52.757 72.4126C52.864 72.2028 52.9681 71.9848 53.0792 71.7459L53.1529 71.5889C53.2431 71.3889 53.3362 71.1778 53.4278 70.9584C53.4278 70.957 53.4334 70.9445 53.4348 70.9431C53.5306 70.7126 53.6251 70.4751 53.7237 70.2139C53.7417 70.1653 53.7598 70.1167 53.7765 70.0681L53.8098 69.9764C53.8709 69.8098 53.932 69.6431 53.989 69.4751C54.0153 69.3973 54.0417 69.3181 54.0681 69.2403L54.0848 69.1889C54.1362 69.0334 54.1876 68.8778 54.2362 68.7209C54.2681 68.6209 54.2987 68.5195 54.3278 68.4181C54.3751 68.2626 54.4195 68.1056 54.464 67.9473L54.4723 67.9195C54.4973 67.8278 54.5237 67.7362 54.5487 67.6445C54.5931 67.4792 54.6348 67.3126 54.6765 67.1459L54.6987 67.057C54.7153 66.9931 54.7306 66.9292 54.7473 66.8639C54.7945 66.6681 54.839 66.4695 54.8834 66.2709L54.9028 66.1862C54.9112 66.1487 54.9195 66.1126 54.9279 66.0751C54.9848 65.8084 55.0403 65.5389 55.0903 65.2764L55.1265 65.0778C55.164 64.8737 55.2015 64.6695 55.2362 64.464C55.2473 64.4001 55.257 64.3362 55.2681 64.2709L55.2848 64.164C55.3126 63.989 55.3404 63.814 55.3667 63.639C55.3834 63.5306 55.3987 63.4209 55.414 63.3112C55.4376 63.1417 55.4612 62.9709 55.4834 62.8001C55.4973 62.6889 55.5112 62.5778 55.5251 62.4667C55.5459 62.2917 55.5667 62.1167 55.5862 61.9417L55.5917 61.8931C55.6015 61.8028 55.6126 61.7112 55.6209 61.6209C55.6403 61.4292 55.6598 61.2362 55.6778 61.0431L55.7042 60.7695C55.7265 60.5098 55.7487 60.2501 55.7681 59.989L53.9931 57.5681C53.9848 57.6695 53.9765 57.7695 53.9667 57.8709L53.9403 58.1473C53.9223 58.3417 53.9042 58.5362 53.8834 58.7292C53.8737 58.8223 53.864 58.9139 53.8528 59.0056L53.8473 59.0528C53.8279 59.2292 53.807 59.407 53.7862 59.582C53.7723 59.6945 53.7584 59.807 53.7431 59.9181C53.7209 60.0903 53.6973 60.2626 53.6737 60.4334C53.6584 60.5431 53.6431 60.6542 53.6265 60.7639C53.6001 60.9417 53.5723 61.1181 53.5431 61.2945L53.5292 61.3806C53.5181 61.4528 53.5056 61.5251 53.4945 61.5959C53.4598 61.8042 53.4223 62.0112 53.3834 62.2167L53.3681 62.3042C53.3612 62.3417 53.3542 62.3792 53.3473 62.4167C53.2945 62.6903 53.239 62.9626 53.1834 63.2251C53.1751 63.2626 53.1667 63.3001 53.1584 63.3362L53.139 63.4223C53.0945 63.6237 53.0487 63.8237 53.0015 64.0223C52.9862 64.0876 52.9695 64.1542 52.9529 64.2195L52.9306 64.3084C52.889 64.4778 52.8459 64.6459 52.8001 64.8126C52.7751 64.9056 52.7501 64.9973 52.7237 65.0903L52.7153 65.1195C52.6709 65.2792 52.6251 65.4389 52.5778 65.5959C52.5473 65.6987 52.5167 65.8014 52.4848 65.9028C52.4348 66.0626 52.3834 66.2209 52.332 66.3778L52.3098 66.4445C52.2848 66.5195 52.2598 66.5945 52.2348 66.6681C52.1765 66.8389 52.114 67.0084 52.0528 67.1778L52.0195 67.2695C52.0015 67.3195 51.9834 67.3695 51.9653 67.4181C51.8626 67.6889 51.7667 67.9292 51.6737 68.1542C51.6737 68.1556 51.6681 68.1681 51.6667 68.1695C51.564 68.4153 51.4584 68.6542 51.3515 68.8889L51.3098 68.9778C51.1973 69.2195 51.0903 69.4417 50.982 69.657L50.9528 69.7139C50.8431 69.9264 50.7431 70.1167 50.6417 70.3001Z" fill="#F9FAFB"/>
<path d="M116.992 66.693H110.167H106.115L108.268 69.6291H112.319H119.144L116.992 66.693Z" fill="#D0D5DD"/>
<path d="M119.143 69.8375H108.268C108.201 69.8375 108.139 69.8055 108.1 69.7527L105.947 66.818C105.901 66.7541 105.894 66.6708 105.929 66.6C105.964 66.5305 106.036 66.4861 106.115 66.4861H116.992C117.058 66.4861 117.121 66.518 117.16 66.5708L119.312 69.5055C119.358 69.5694 119.365 69.6528 119.331 69.7236C119.294 69.793 119.222 69.8375 119.143 69.8375ZM108.374 69.4208H118.732L116.885 66.9028H106.525L108.374 69.4208Z" fill="#F9FAFB"/>
<path d="M106.633 94.7584H105.69H86.5403L88.6931 97.6931H107.843H108.785L106.633 94.7584Z" fill="#D0D5DD"/>
<path d="M108.785 97.9014H88.6916C88.6249 97.9014 88.5624 97.8695 88.5236 97.8167L86.3708 94.882C86.3249 94.8181 86.318 94.7348 86.3527 94.6639C86.3874 94.5945 86.4597 94.55 86.5388 94.55H106.632C106.699 94.55 106.761 94.582 106.8 94.6348L108.953 97.5695C108.999 97.6334 109.006 97.7167 108.971 97.7875C108.936 97.8584 108.864 97.9014 108.785 97.9014ZM88.7972 97.4848H108.374L106.528 94.9667H86.9513L88.7972 97.4848Z" fill="#F9FAFB"/>
<path d="M107.843 82.7112C108.171 82.7112 108.396 82.9681 108.346 83.2848C108.296 83.6015 107.988 83.8584 107.66 83.8584H91.9834C91.6542 83.8584 91.4306 83.6015 91.4806 83.2848C91.5306 82.9681 91.8376 82.7112 92.1667 82.7112H107.843Z" fill="#98A2B3"/>
<path d="M107.661 84.0653H91.9833C91.7639 84.0653 91.5611 83.9764 91.4278 83.8195C91.2958 83.6653 91.2416 83.4625 91.275 83.2514C91.3416 82.832 91.7333 82.5028 92.1666 82.5028H107.844C108.064 82.5028 108.267 82.5931 108.4 82.7486C108.532 82.9042 108.586 83.1056 108.553 83.3167C108.485 83.7361 108.094 84.0653 107.661 84.0653ZM92.1666 82.9195C91.9402 82.9195 91.7208 83.1014 91.6861 83.3167C91.6722 83.4056 91.693 83.4889 91.7444 83.5486C91.7986 83.6125 91.8847 83.6486 91.9833 83.6486H107.661C107.887 83.6486 108.107 83.4667 108.142 83.2514C108.156 83.1625 108.135 83.0792 108.083 83.0195C108.029 82.9556 107.943 82.9195 107.844 82.9195H92.1666Z" fill="#98A2B3"/>
<path d="M107.314 86.0292C107.642 86.0292 107.868 86.2847 107.817 86.6028C107.767 86.9195 107.458 87.175 107.131 87.175H91.9473C91.6182 87.175 91.3932 86.9195 91.4446 86.6028C91.4946 86.2861 91.8015 86.0292 92.1307 86.0292H107.314Z" fill="#98A2B3"/>
<path d="M107.132 87.382H91.9473C91.7265 87.382 91.5237 87.2917 91.3904 87.1361C91.2585 86.982 91.2043 86.7806 91.2376 86.5681C91.3043 86.1486 91.696 85.8195 92.1293 85.8195H107.314C107.533 85.8195 107.736 85.9097 107.87 86.0653C108.002 86.2195 108.056 86.4222 108.022 86.6333C107.956 87.0542 107.565 87.382 107.132 87.382ZM92.1307 86.2375C91.9043 86.2375 91.6848 86.4195 91.6501 86.6347C91.6362 86.7236 91.6557 86.8056 91.7085 86.8667C91.7626 86.9306 91.8487 86.9667 91.9487 86.9667H107.133C107.36 86.9667 107.579 86.7847 107.614 86.5695C107.628 86.4806 107.608 86.3972 107.556 86.3375C107.502 86.2736 107.415 86.2375 107.317 86.2375H92.1307Z" fill="#98A2B3"/>
<path d="M105.708 89.3472C106.037 89.3472 106.262 89.6027 106.211 89.9194C106.161 90.2361 105.854 90.493 105.525 90.493H91.1263C90.7971 90.493 90.5721 90.2374 90.6235 89.9194C90.6735 89.6027 90.9805 89.3472 91.3096 89.3472H105.708Z" fill="#98A2B3"/>
<path d="M105.525 90.7H91.1263C90.9055 90.7 90.7027 90.6111 90.5693 90.4541C90.4374 90.3 90.3832 90.0972 90.4166 89.8847C90.4832 89.4652 90.8749 89.1375 91.3082 89.1375H105.708C105.929 89.1375 106.132 89.2263 106.265 89.3833C106.397 89.5375 106.451 89.7388 106.418 89.9513C106.35 90.3722 105.958 90.7 105.525 90.7ZM91.3082 89.5555C91.0819 89.5555 90.8624 89.7375 90.8277 89.9527C90.8138 90.043 90.8332 90.125 90.886 90.1861C90.9402 90.25 91.0263 90.2861 91.1249 90.2861H105.525C105.751 90.2861 105.971 90.1041 106.005 89.8888C106.019 89.8 106 89.718 105.947 89.6569C105.893 89.593 105.807 89.5569 105.707 89.5569H91.3082V89.5555Z" fill="#98A2B3"/>
<path d="M115.743 63.2389C116.03 63.2389 116.229 63.4639 116.185 63.7417C116.14 64.0208 115.871 64.2458 115.583 64.2458H108.282C107.994 64.2458 107.796 64.0208 107.84 63.7417C107.885 63.4639 108.154 63.2389 108.442 63.2389H115.743Z" fill="#D0D5DD"/>
<path d="M115.582 64.4542H108.28C108.08 64.4542 107.896 64.3722 107.774 64.2292C107.653 64.0875 107.603 63.9028 107.633 63.7083C107.694 63.3278 108.049 63.0292 108.44 63.0292H115.742C115.942 63.0292 116.128 63.1111 116.249 63.2542C116.369 63.3958 116.419 63.5806 116.389 63.7736C116.329 64.1556 115.974 64.4542 115.582 64.4542ZM108.442 63.4472C108.255 63.4472 108.074 63.5972 108.046 63.775C108.035 63.8472 108.05 63.9111 108.092 63.9597C108.135 64.0097 108.203 64.0375 108.282 64.0375H115.583C115.769 64.0375 115.951 63.8875 115.979 63.7083C115.99 63.6361 115.975 63.5736 115.933 63.525C115.89 63.475 115.822 63.4458 115.743 63.4458H108.442V63.4472Z" fill="#D0D5DD"/>
<path d="M50.5264 59.4083C50.8139 59.4083 51.0125 59.6333 50.968 59.9111C50.9236 60.1903 50.6541 60.4153 50.3666 60.4153H37.2694C36.9819 60.4153 36.7833 60.1903 36.8278 59.9111C36.8722 59.6333 37.1416 59.4083 37.4291 59.4083H50.5264Z" fill="#D0D5DD"/>
<path d="M50.3653 60.6236H37.268C37.068 60.6236 36.8833 60.5417 36.7611 60.3986C36.6403 60.2569 36.5903 60.0722 36.6208 59.8778C36.6819 59.4972 37.0361 59.1986 37.4278 59.1986H50.525C50.725 59.1986 50.9111 59.2806 51.0319 59.4236C51.1528 59.5653 51.2028 59.75 51.1708 59.9431C51.1125 60.325 50.7569 60.6236 50.3653 60.6236ZM37.4292 59.6167C37.243 59.6167 37.0611 59.7667 37.0333 59.9444C37.0222 60.0167 37.0375 60.0806 37.0792 60.1292C37.1222 60.1792 37.1903 60.2069 37.2694 60.2069H50.3667C50.5528 60.2069 50.7347 60.0569 50.7625 59.8778C50.7736 59.8056 50.7583 59.743 50.7167 59.6944C50.6736 59.6444 50.6055 59.6153 50.5264 59.6153H37.4292V59.6167Z" fill="#D0D5DD"/>
<path d="M50.061 62.3236C50.3485 62.3236 50.5471 62.5486 50.5027 62.8264C50.4583 63.1042 50.1888 63.3292 49.9013 63.3292H36.8041C36.5166 63.3292 36.318 63.1042 36.3624 62.8264C36.4069 62.5486 36.6763 62.3236 36.9638 62.3236H50.061Z" fill="#D0D5DD"/>
<path d="M49.8999 63.5388H36.8027C36.6027 63.5388 36.4166 63.4569 36.2958 63.3138C36.1749 63.1722 36.1249 62.9875 36.1555 62.7944C36.2166 62.4138 36.5708 62.1152 36.9624 62.1152H50.0597C50.2597 62.1152 50.4458 62.1972 50.5666 62.3402C50.6874 62.4819 50.7374 62.6666 50.7055 62.8597C50.6472 63.2402 50.293 63.5388 49.8999 63.5388ZM36.9638 62.5319C36.7777 62.5319 36.5958 62.6819 36.568 62.8597C36.5569 62.9319 36.5722 62.9944 36.6138 63.043C36.6569 63.093 36.7249 63.1222 36.8041 63.1222H49.9013C50.0874 63.1222 50.2694 62.9722 50.2972 62.7944C50.3083 62.7222 50.293 62.6597 50.2513 62.6111C50.2083 62.5611 50.1402 62.5319 50.061 62.5319H36.9638Z" fill="#D0D5DD"/>
<path d="M116.121 60.8708C116.408 60.8708 116.607 61.0959 116.563 61.375C116.518 61.6528 116.249 61.8778 115.961 61.8778H108.66C108.372 61.8778 108.174 61.6528 108.218 61.375C108.263 61.0959 108.532 60.8708 108.82 60.8708H116.121Z" fill="#D0D5DD"/>
<path d="M115.96 62.0861H108.658C108.458 62.0861 108.272 62.0041 108.151 61.8611C108.031 61.7194 107.981 61.5347 108.011 61.3416C108.072 60.9611 108.426 60.6625 108.82 60.6625H116.121C116.321 60.6625 116.506 60.7444 116.628 60.8875C116.749 61.0291 116.799 61.2139 116.768 61.4083C116.707 61.7875 116.351 62.0861 115.96 62.0861ZM108.82 61.0791C108.633 61.0791 108.451 61.2291 108.424 61.4083C108.413 61.4805 108.428 61.543 108.47 61.5916C108.513 61.6416 108.581 61.6708 108.66 61.6708H115.961C116.147 61.6708 116.329 61.5208 116.357 61.343C116.368 61.2708 116.353 61.2069 116.311 61.1583C116.268 61.1083 116.2 61.0805 116.121 61.0805H108.82V61.0791Z" fill="#D0D5DD"/>
<path d="M118.925 41.5181L119.199 43.2306C119.364 44.257 120.068 45.0611 121.082 45.3778L122.775 45.9056L120.914 46.4333C119.8 46.75 118.839 47.5542 118.346 48.5806L117.525 50.2931L117.25 48.5806C117.085 47.5542 116.381 46.75 115.367 46.4333L113.675 45.9056L115.535 45.3778C116.649 45.0611 117.61 44.257 118.103 43.2306L118.925 41.5181Z" fill="#D0D5DD"/>
<path d="M40.9388 43.2528L41.1485 44.5653C41.2749 45.3528 41.8152 45.9695 42.593 46.2111L43.8902 46.6153L42.4638 47.0209C41.6097 47.2625 40.8722 47.8792 40.4944 48.6653L39.8652 49.9792L39.6555 48.6653C39.5291 47.8778 38.9888 47.2625 38.211 47.0209L36.9138 46.6153L38.3402 46.2111C39.1944 45.9695 39.9319 45.3514 40.3097 44.5653L40.9388 43.2528Z" fill="#D0D5DD"/>
<path d="M113.974 94.1459L114.09 94.8778C114.161 95.3153 114.463 95.6598 114.896 95.7945L115.618 96.0195L114.824 96.2445C114.347 96.3806 113.936 96.7237 113.725 97.1612L113.374 97.8931L113.257 97.1612C113.186 96.7237 112.886 96.3792 112.453 96.2445L111.729 96.0195L112.525 95.7945C113.001 95.6584 113.411 95.3153 113.622 94.8778L113.974 94.1459Z" fill="#D0D5DD"/>
<path d="M33.8222 91.314L33.9389 92.0459C34.0097 92.4848 34.3111 92.8279 34.7445 92.9626L35.4667 93.1876L34.6722 93.4126C34.1958 93.5487 33.7847 93.8917 33.5736 94.3306L33.2236 95.0626L33.107 94.3306C33.0375 93.8917 32.7361 93.5487 32.3028 93.4126L31.5806 93.1876L32.375 92.9626C32.8514 92.8279 33.2625 92.4848 33.4722 92.0459L33.8222 91.314Z" fill="#D0D5DD"/>
</svg>
