<svg width="150" height="150" viewBox="0 0 150 150" fill="none" xmlns="http://www.w3.org/2000/svg">
<path d="M75 122.697C103.319 122.697 126.276 113.691 126.276 102.582C126.276 91.4726 103.319 82.4667 75 82.4667C46.6809 82.4667 23.7236 91.4726 23.7236 102.582C23.7236 113.691 46.6809 122.697 75 122.697Z" fill="#FFECE5"/>
<path d="M38.0566 80.5459C39.0661 79.8056 39.3733 78.5084 38.7427 77.6486C38.1122 76.7888 36.7826 76.692 35.7732 77.4323C34.7637 78.1727 34.4565 79.4698 35.087 80.3296C35.7176 81.1894 37.0471 81.2863 38.0566 80.5459Z" fill="#FA9874"/>
<path d="M36.5874 81.2486C35.9472 81.2486 35.3847 81.0028 35.0041 80.5569C34.6347 80.1236 34.4833 79.5541 34.5791 78.9541C34.7749 77.725 35.9694 76.725 37.2416 76.725C37.8819 76.725 38.4444 76.9708 38.8249 77.4166C39.1944 77.85 39.3458 78.4194 39.2499 79.0194C39.0541 80.2486 37.8597 81.2486 36.5874 81.2486ZM37.243 77.1416C36.1666 77.1416 35.1569 77.9847 34.9916 79.0194C34.9152 79.4972 35.0319 79.9472 35.3222 80.2861C35.6222 80.6389 36.0722 80.8319 36.5888 80.8319C37.6652 80.8319 38.6749 79.9889 38.8402 78.9541C38.9166 78.4764 38.7999 78.0264 38.5097 77.6875C38.2083 77.3347 37.7597 77.1416 37.243 77.1416Z" fill="#FFECE5"/>
<path d="M77.9998 51.6792C78.3262 51.6792 78.5498 51.9348 78.4998 52.25L78.0901 54.8223C78.0401 55.1375 77.7345 55.3917 77.4081 55.3917H67.8998C67.5748 55.3917 67.3498 55.1361 67.3998 54.8223L67.8095 52.25C67.8595 51.9348 68.1664 51.6792 68.4914 51.6792H77.9998Z" fill="#FFECE5"/>
<path d="M77.4082 55.6014H67.8999C67.6805 55.6014 67.4791 55.5125 67.3457 55.357C67.2138 55.2028 67.1596 55.0014 67.1943 54.7917L67.6041 52.2195C67.6707 51.8014 68.061 51.4722 68.4916 51.4722H77.9999C78.2193 51.4722 78.4207 51.5611 78.5527 51.7167C78.6846 51.8708 78.7388 52.0722 78.7041 52.2847L78.2943 54.857C78.2291 55.2736 77.8388 55.6014 77.4082 55.6014ZM68.4916 51.8875C68.268 51.8875 68.0499 52.0681 68.0152 52.2833L67.6055 54.8556C67.5916 54.9444 67.611 55.025 67.6624 55.0847C67.7166 55.1486 67.8013 55.1833 67.8999 55.1833H77.4082C77.6318 55.1833 77.8499 55.0028 77.8846 54.7889L78.2943 52.2167C78.3082 52.1278 78.2888 52.0458 78.236 51.9847C78.1818 51.9208 78.0985 51.8861 77.9999 51.8861H68.4916V51.8875Z" fill="#FFECE5"/>
<path d="M38.3652 73.1083H49.4944L48.0222 82.3403L43.5569 77.4042L35.593 85.1097L30.2624 78.7806L19.2666 89.9444L21.9513 73.1083H38.3652ZM36.5874 81.0403C37.7638 81.0403 38.8638 80.1208 39.0444 78.9861C39.2249 77.8514 38.4194 76.9319 37.243 76.9319C36.0666 76.9319 34.9666 77.8514 34.786 78.9861C34.6041 80.1208 35.411 81.0403 36.5874 81.0403Z" fill="#FCD2C2"/>
<path d="M19.2666 90.1527C19.2346 90.1527 19.2027 90.1458 19.1721 90.1305C19.0916 90.0903 19.0457 90.0014 19.061 89.9125L21.7457 73.0764C21.7624 72.975 21.8485 72.9014 21.9513 72.9014H49.493C49.5541 72.9014 49.6124 72.9278 49.6513 72.975C49.6902 73.0208 49.7082 73.0833 49.6985 73.143L48.2263 82.375C48.2138 82.4541 48.1569 82.5194 48.0805 82.5416C48.0041 82.5639 47.9207 82.5416 47.8666 82.4819L43.5457 77.7055L35.736 85.2611C35.6944 85.3014 35.6388 85.3222 35.5805 85.3194C35.5221 85.3166 35.4694 85.2903 35.4319 85.2458L30.2485 79.0916L19.4138 90.0916C19.3749 90.1305 19.3207 90.1527 19.2666 90.1527ZM22.1291 73.3166L19.5749 89.3333L30.1138 78.6333C30.1541 78.5916 30.2124 78.5694 30.2707 78.5708C30.3291 78.5736 30.3846 78.6 30.4221 78.6444L35.6082 84.8028L43.4124 77.2527C43.4527 77.2139 43.5055 77.1916 43.5638 77.1944C43.6207 77.1958 43.6735 77.2208 43.711 77.2625L47.8846 81.8764L49.2499 73.3153H22.1291V73.3166ZM36.5874 81.2486C35.9471 81.2486 35.3846 81.0028 35.0041 80.5569C34.6346 80.1236 34.4832 79.5541 34.5791 78.9541C34.7749 77.725 35.9694 76.725 37.2416 76.725C37.8819 76.725 38.4444 76.9708 38.8249 77.4166C39.1944 77.85 39.3457 78.4194 39.2499 79.0194C39.0541 80.2486 37.8596 81.2486 36.5874 81.2486ZM37.243 77.1416C36.1666 77.1416 35.1569 77.9847 34.9916 79.0194C34.9152 79.4972 35.0319 79.9472 35.3221 80.2861C35.6221 80.6389 36.0721 80.8319 36.5888 80.8319C37.6652 80.8319 38.6749 79.9889 38.8402 78.9541C38.9166 78.4764 38.7999 78.0264 38.5096 77.6875C38.2082 77.3347 37.7596 77.1416 37.243 77.1416Z" fill="#FFECE5"/>
<path d="M43.5555 77.4042L48.0222 82.3403L46.8097 89.9445H19.2666L30.2624 78.7806L35.5916 85.1097L43.5555 77.4042Z" fill="#FA9874"/>
<path d="M46.8098 90.1528H19.2667C19.1834 90.1528 19.107 90.1028 19.075 90.025C19.0431 89.9472 19.0598 89.8583 19.1195 89.7986L30.1153 78.6347C30.1556 78.5931 30.2139 78.5708 30.2723 78.5722C30.3306 78.575 30.3861 78.6014 30.4236 78.6459L35.6098 84.8042L43.4139 77.2542C43.4542 77.2153 43.507 77.1931 43.5653 77.1959C43.6223 77.1972 43.675 77.2222 43.7125 77.2639L48.1778 82.2C48.2195 82.2472 48.2389 82.3097 48.2292 82.3722L47.0167 89.9764C46.9986 90.0778 46.9111 90.1528 46.8098 90.1528ZM19.7639 89.7361H46.6306L47.8 82.407L43.5459 77.7042L35.7361 85.2597C35.6945 85.3 35.6389 85.3208 35.5806 85.3181C35.5223 85.3153 35.4695 85.2889 35.432 85.2445L30.2486 79.0903L19.7639 89.7361Z" fill="#FFECE5"/>
<path d="M118.426 46.0583L111.621 57.8319L114.693 52.5139L113.228 47.625L105.675 51.1736L104.058 45.0125L93.4751 50.3014L100.282 38.5264L118.426 46.0583ZM109.783 47.568C110.242 46.775 109.986 45.8708 109.211 45.5486C109.025 45.4708 108.825 45.4347 108.624 45.4347C107.986 45.4347 107.325 45.8 106.976 46.4028C106.518 47.1958 106.775 48.1 107.55 48.4222C107.736 48.5 107.935 48.5361 108.138 48.5361C108.775 48.5361 109.436 48.1708 109.783 47.568Z" fill="#FCD2C2"/>
<path d="M111.621 58.0403C111.586 58.0403 111.55 58.0319 111.517 58.0125C111.417 57.9555 111.383 57.8278 111.44 57.7278L114.468 52.4875L113.099 47.9167L105.765 51.3625C105.71 51.3889 105.644 51.3889 105.589 51.3625C105.533 51.3361 105.492 51.2861 105.475 51.2264L103.924 45.3139L93.5695 50.4875C93.4861 50.5292 93.3875 50.5111 93.325 50.4444C93.2625 50.3778 93.25 50.2764 93.2958 50.1972L100.103 38.4222C100.156 38.3319 100.267 38.2944 100.363 38.3347L118.506 45.8667C118.561 45.8903 118.604 45.9361 118.624 45.9917C118.643 46.0486 118.636 46.1111 118.607 46.1625L111.801 57.9361C111.763 58.0028 111.693 58.0403 111.621 58.0403ZM113.229 47.418C113.258 47.418 113.288 47.4236 113.314 47.4361C113.369 47.4611 113.411 47.5083 113.428 47.5667L114.754 51.9944L118.126 46.1611L100.371 38.7903L94.0028 49.8069L103.965 44.8292C104.022 44.8014 104.088 44.8 104.144 44.8264C104.201 44.8528 104.244 44.9028 104.26 44.9639L105.813 50.8819L113.139 47.4403C113.168 47.4236 113.199 47.418 113.229 47.418ZM108.138 48.7444C107.903 48.7444 107.678 48.7014 107.471 48.6139C107.064 48.4444 106.763 48.1264 106.625 47.718C106.474 47.2694 106.536 46.7514 106.799 46.2986C107.175 45.6472 107.893 45.2264 108.625 45.2264C108.86 45.2264 109.085 45.2694 109.292 45.3555C109.7 45.525 110 45.843 110.139 46.2514C110.29 46.7 110.228 47.218 109.965 47.6708C109.588 48.3236 108.871 48.7444 108.138 48.7444ZM108.624 45.6444C108.046 45.6444 107.457 45.9917 107.157 46.5083C106.956 46.8583 106.904 47.2514 107.018 47.5861C107.117 47.8792 107.335 48.1083 107.629 48.2305C107.786 48.2958 107.957 48.3292 108.136 48.3292C108.714 48.3292 109.303 47.9819 109.601 47.4653C109.804 47.1153 109.856 46.7222 109.742 46.3875C109.643 46.0944 109.425 45.8653 109.131 45.743C108.975 45.6764 108.804 45.6444 108.624 45.6444Z" fill="#FFECE5"/>
<path d="M92.568 51.8736L94.7194 54.8097L93.2097 57.4222L91.0569 54.4861L92.568 51.8736Z" fill="#CDC4C4"/>
<path d="M93.2097 57.6306C93.143 57.6306 93.0805 57.5986 93.0416 57.5458L90.8888 54.6111C90.8402 54.5445 90.8347 54.4556 90.8763 54.3833L92.3861 51.7708C92.4208 51.7097 92.4847 51.6708 92.5555 51.6667C92.6249 51.6639 92.693 51.6945 92.7347 51.7514L94.8874 54.6861C94.9361 54.7528 94.9416 54.8417 94.8999 54.9139L93.3902 57.5264C93.3555 57.5875 93.2916 57.6264 93.2208 57.6306C93.218 57.6306 93.2138 57.6306 93.2097 57.6306ZM91.3055 54.4736L93.1888 57.0417L94.4708 54.8236L92.5874 52.2556L91.3055 54.4736Z" fill="#FFECE5"/>
<path d="M88.6359 58.6763L90.7887 61.6111H56.0234L53.8706 58.6763H88.6359Z" fill="#711E00"/>
<path d="M90.7887 61.8194H56.0249C55.9582 61.8194 55.8957 61.7875 55.8568 61.7347L53.704 58.8C53.6582 58.7361 53.6512 58.6527 53.686 58.5819C53.7207 58.5125 53.7929 58.468 53.8721 58.468H88.636C88.7026 58.468 88.7651 58.5 88.804 58.5527L90.9568 61.4875C91.0026 61.5513 91.0096 61.6347 90.9749 61.7055C90.9387 61.775 90.8665 61.8194 90.7887 61.8194ZM56.129 61.4027H90.3762L88.529 58.8847H54.2818L56.129 61.4027Z" fill="#FFECE5"/>
<path d="M90.3888 58.6763L92.5415 61.6111H90.7888L88.636 58.6763H90.3888Z" fill="#711E00"/>
<path d="M92.5415 61.8194H90.7888C90.7221 61.8194 90.6596 61.7875 90.6207 61.7347L88.4679 58.8C88.4221 58.7361 88.4152 58.6527 88.4499 58.5819C88.4846 58.5125 88.5568 58.468 88.636 58.468H90.3888C90.4554 58.468 90.5179 58.5 90.5568 58.5527L92.7096 61.4875C92.7554 61.5513 92.7624 61.6347 92.7277 61.7055C92.6916 61.775 92.6207 61.8194 92.5415 61.8194ZM90.8943 61.4027H92.1304L90.2832 58.8847H89.0471L90.8943 61.4027Z" fill="#FFECE5"/>
<path d="M100.878 58.6764H43.3833C41.8833 58.6764 40.4806 59.8486 40.2486 61.2958L38.3653 73.1083H49.4944L48.0222 82.3403L46.8097 89.9431H35.6806L35.1292 93.3958C34.8986 94.8417 35.9292 96.0167 37.4292 96.0167H82.2083L83.7833 86.1444H99.2139L99.9986 81.2208L100.722 76.6889L101.451 72.1125L101.743 70.2833L103.043 62.1347L103.176 61.2958C103.407 59.8486 102.378 58.6764 100.878 58.6764ZM82.7195 77.3458C81.5667 84.5722 74.5583 90.4292 67.0667 90.4292C59.5736 90.4292 54.4347 84.5722 55.5875 77.3458C56.7389 70.1194 63.7472 64.2625 71.2403 64.2625C78.732 64.2625 83.8722 70.1194 82.7195 77.3458ZM97.7389 63.3861L97.0958 67.4111C97.0264 67.8472 96.6042 68.2014 96.1514 68.2014H88.6806C88.2292 68.2014 87.9195 67.8472 87.9889 67.4111L88.6306 63.3861C88.7 62.95 89.1236 62.5958 89.575 62.5958H97.0458C97.4986 62.5958 97.8083 62.95 97.7389 63.3861Z" fill="#F56630" stroke="#FFECE5" stroke-width="3" stroke-miterlimit="10" stroke-linecap="round" stroke-linejoin="round"/>
<path d="M92.5681 51.875L110.711 59.4069L103.906 71.1819L106.978 65.8639L105.514 60.975L103.042 62.1361L103.175 61.2972C103.406 59.85 102.376 58.6764 100.876 58.6764H96.4264L96.3431 58.3611L95.7125 58.6764H88.6348H90.3875L91.0556 54.4875L92.5681 51.875Z" fill="#FCD2C2"/>
<path d="M103.906 71.3889C103.879 71.3889 103.851 71.3833 103.826 71.3736L101.664 70.4764C101.583 70.443 101.536 70.3653 101.536 70.2833C101.536 70.2569 101.542 70.2291 101.551 70.2028C101.596 70.0972 101.717 70.0458 101.824 70.0903L103.817 70.918L106.753 65.8361L105.385 61.2639L103.132 62.3222C103.062 62.3555 102.979 62.3472 102.918 62.3C102.857 62.2541 102.825 62.1764 102.837 62.1L102.971 61.2611C103.071 60.6333 102.917 60.043 102.537 59.5986C102.143 59.1361 101.554 58.8819 100.878 58.8819H96.4277C96.3333 58.8819 96.25 58.818 96.2263 58.7264L96.2083 58.6597L95.8069 58.8597C95.7777 58.8736 95.7458 58.8819 95.7138 58.8819H88.6361C88.5208 58.8819 88.4277 58.7889 88.4277 58.6736C88.4277 58.5583 88.5208 58.4653 88.6361 58.4653H90.2125L90.8527 54.4514C90.8569 54.4264 90.8652 54.4014 90.8777 54.3805L92.3875 51.768C92.4402 51.6778 92.5513 51.6403 92.6472 51.6805L110.79 59.2125C110.846 59.2361 110.889 59.2819 110.908 59.3375C110.928 59.3944 110.921 59.4569 110.892 59.5083L104.086 71.2833C104.079 71.2958 104.069 71.3083 104.06 71.3194C104.018 71.3653 103.962 71.3889 103.906 71.3889ZM105.515 60.7653C105.544 60.7653 105.574 60.7708 105.6 60.7833C105.656 60.8083 105.697 60.8555 105.714 60.9139L107.039 65.3416L110.411 59.5069L92.6555 52.1361L91.2555 54.5569L90.6319 58.4666H95.6639L96.25 58.1736C96.3069 58.1458 96.3722 58.1444 96.4291 58.1708C96.4861 58.1972 96.5291 58.2472 96.5444 58.3083L96.5861 58.468H100.876C101.676 58.468 102.378 58.775 102.853 59.3305C103.312 59.8694 103.5 60.5791 103.381 61.3291L103.308 61.7791L105.424 60.7847C105.454 60.7722 105.485 60.7653 105.515 60.7653Z" fill="#FFECE5"/>
<path d="M99.9985 81.2208L100.722 76.6875L102.997 72.7527L101.453 72.1111L101.744 70.2819L103.907 71.1791L110.712 59.4041L92.5693 51.8722L91.0596 54.4847L91.7832 49.9514L107.379 22.968L128.583 31.7694L99.9985 81.2208ZM107.998 25.1777L101.192 36.9527L119.335 44.4847L122.408 39.1666L126.14 32.7097L107.998 25.1777ZM93.4762 50.3014L111.621 57.8319L118.426 46.0583L100.283 38.5264L93.4762 50.3014Z" fill="#FFECE5"/>
<path d="M99.9984 81.4291C99.9748 81.4291 99.9512 81.425 99.929 81.4167C99.8345 81.3833 99.7776 81.2861 99.7928 81.1875L100.516 76.6541C100.521 76.6291 100.529 76.6042 100.541 76.5833L102.697 72.8541L101.372 72.3042C101.283 72.2667 101.23 72.1736 101.246 72.0791L101.537 70.25C101.547 70.1875 101.586 70.1319 101.641 70.1014C101.697 70.0708 101.764 70.0666 101.823 70.0903L103.818 70.918L110.414 59.5069L92.6581 52.1361L91.2387 54.5903C91.1887 54.6778 91.0831 54.7167 90.9887 54.6819C90.8942 54.6486 90.8373 54.5514 90.8526 54.4528L91.5762 49.9194C91.5803 49.8944 91.5887 49.8694 91.6012 49.8486L107.197 22.8653C107.25 22.775 107.36 22.7375 107.457 22.7778L128.661 31.5792C128.716 31.6028 128.76 31.6472 128.779 31.7042C128.798 31.7611 128.791 31.8236 128.762 31.875L100.179 81.325C100.14 81.3916 100.071 81.4291 99.9984 81.4291ZM100.921 76.7597L100.382 80.143L128.282 31.8736L107.465 23.2333L91.979 50.025L91.4387 53.4097L92.3859 51.7722C92.4387 51.6819 92.5498 51.6444 92.6456 51.6847L110.789 59.2166C110.844 59.2403 110.887 59.2861 110.907 59.3417C110.926 59.3986 110.919 59.4611 110.89 59.5125L104.085 71.2875C104.032 71.3778 103.921 71.4153 103.825 71.3764L101.907 70.5805L101.683 71.9861L103.076 72.5639C103.132 72.5875 103.175 72.6319 103.194 72.6889C103.214 72.7458 103.207 72.8083 103.178 72.8597L100.921 76.7597ZM111.621 58.0403C111.594 58.0403 111.566 58.0347 111.541 58.025L93.397 50.4944C93.3415 50.4708 93.2984 50.425 93.2789 50.3694C93.2595 50.3125 93.2664 50.25 93.2956 50.1986L100.103 38.4236C100.155 38.3333 100.265 38.2944 100.362 38.3361L118.505 45.868C118.561 45.8917 118.604 45.9375 118.623 45.993C118.643 46.05 118.636 46.1125 118.607 46.1639L111.801 57.9375C111.762 58.0028 111.693 58.0403 111.621 58.0403ZM93.7748 50.2L111.532 57.5694L118.128 46.1597L100.372 38.7889L93.7748 50.2ZM119.335 44.693C119.308 44.693 119.28 44.6875 119.255 44.6778L101.111 37.1458C101.055 37.1222 101.012 37.0778 100.993 37.0208C100.973 36.9639 100.98 36.9014 101.01 36.85L107.816 25.075C107.869 24.9847 107.98 24.9472 108.076 24.9875L126.219 32.5194C126.275 32.543 126.318 32.5889 126.337 32.6444C126.357 32.7014 126.35 32.7639 126.321 32.8153L119.514 44.5903C119.478 44.6555 119.407 44.693 119.335 44.693ZM101.49 36.8514L119.246 44.2222L125.841 32.8111L108.086 25.4403L101.49 36.8514Z" fill="#FFECE5"/>
<path d="M90.739 48.3972C91.4515 48.3972 91.9404 48.9541 91.8306 49.6416L91.7806 49.9527L91.057 54.4874L90.389 58.6763H88.6362H53.8723L55.3126 49.6416C55.4223 48.9541 56.089 48.3972 56.8001 48.3972H90.739ZM78.0904 54.8235L78.5001 52.2513C78.5501 51.936 78.3265 51.6805 78.0001 51.6805H68.4918C68.1668 51.6805 67.8598 51.936 67.8098 52.2513L67.4001 54.8235C67.3501 55.1388 67.5751 55.393 67.9001 55.393H77.4084C77.7348 55.393 78.0404 55.1374 78.0904 54.8235Z" fill="#FA9874"/>
<path d="M90.3889 58.8847H53.8722C53.8111 58.8847 53.7528 58.8583 53.7139 58.8111C53.675 58.7652 53.6569 58.7027 53.6667 58.643L55.1069 49.6083C55.2319 48.825 55.9917 48.1888 56.8014 48.1888H90.7389C91.1514 48.1888 91.5139 48.3486 91.7611 48.6375C92 48.918 92.0986 49.2861 92.0361 49.675L90.5958 58.7097C90.5791 58.8097 90.4916 58.8847 90.3889 58.8847ZM54.1153 58.468H90.2111L91.6236 49.6083C91.6667 49.343 91.6014 49.0944 91.443 48.9069C91.2764 48.7125 91.0264 48.6055 90.7389 48.6055H56.8C56.1861 48.6055 55.6111 49.0847 55.518 49.6736L54.1153 58.468ZM77.4083 55.6013H67.9C67.6805 55.6013 67.4792 55.5125 67.3458 55.3569C67.2139 55.2027 67.1597 55.0013 67.1944 54.7916L67.6055 52.2194C67.6722 51.8013 68.0625 51.4722 68.493 51.4722H78.0014C78.2208 51.4722 78.4222 51.5611 78.5542 51.7166C78.6861 51.8708 78.7403 52.0722 78.7055 52.2833L78.2958 54.8555C78.2291 55.2736 77.8389 55.6013 77.4083 55.6013ZM68.4917 51.8875C68.268 51.8875 68.05 52.068 68.0153 52.2833L67.6042 54.8555C67.5903 54.9444 67.6111 55.025 67.6611 55.0847C67.7153 55.1486 67.8 55.1833 67.8986 55.1833H77.4069C77.6305 55.1833 77.8486 55.0027 77.8833 54.7888L78.293 52.2166C78.3069 52.1277 78.2875 52.0458 78.2347 51.9847C78.1805 51.9208 78.0972 51.8861 77.9986 51.8861H68.4917V51.8875Z" fill="#FFECE5"/>
<path d="M93.9973 52.3583C93.9986 52.3819 93.9973 52.4055 93.9959 52.4305V52.4652C93.9931 52.5027 93.9889 52.5388 93.9834 52.5763L93.9334 52.8875L93.2097 57.4222L93.0097 58.6763H90.3889L91.0584 54.4875L91.7806 49.9527L91.8306 49.6416C91.8361 49.6041 91.8403 49.568 91.8431 49.5305C91.8431 49.5194 91.8431 49.5069 91.8445 49.4958C91.8445 49.4708 91.8459 49.4472 91.8445 49.4236C91.8445 49.4097 91.8431 49.3958 91.8431 49.3819C91.8417 49.3611 91.8403 49.3402 91.8375 49.3194C91.8361 49.3041 91.8334 49.2902 91.8306 49.2763C91.8278 49.2583 91.825 49.2416 91.8223 49.225C91.8125 49.1777 91.8 49.1333 91.7847 49.0902C91.7806 49.0805 91.7764 49.0708 91.7736 49.0611C91.7625 49.0333 91.7514 49.0069 91.7389 48.9819C91.732 48.9694 91.725 48.9569 91.7195 48.9444C91.7084 48.925 91.6973 48.9055 91.6861 48.8875C91.6736 48.868 91.6611 48.8486 91.6472 48.8305L93.8 51.7652C93.8097 51.7763 93.8181 51.7888 93.8264 51.8013C93.8306 51.8083 93.8334 51.8152 93.8389 51.8222C93.85 51.8402 93.8611 51.8597 93.8709 51.8791C93.875 51.8861 93.8806 51.893 93.8847 51.9C93.8875 51.9055 93.8889 51.9111 93.8917 51.9166C93.9042 51.943 93.9153 51.9694 93.925 51.9958C93.9292 52.0027 93.932 52.0111 93.9348 52.018C93.9361 52.0208 93.9361 52.0222 93.9375 52.0249C93.9528 52.068 93.9653 52.1138 93.975 52.1597C93.975 52.1638 93.9764 52.168 93.9778 52.1722C93.9806 52.1847 93.982 52.1986 93.9834 52.2111C93.9861 52.225 93.9889 52.2388 93.9903 52.2541C93.9931 52.275 93.9945 52.2958 93.9959 52.3166C93.9959 52.3305 93.9973 52.3444 93.9973 52.3583Z" fill="#FCB59A"/>
<path d="M93.0096 58.8847H90.3888C90.3277 58.8847 90.2694 58.8583 90.2305 58.8111C90.1916 58.7638 90.1735 58.7027 90.1833 58.643L91.6249 49.6083C91.6291 49.5805 91.6319 49.5513 91.6346 49.5222C91.6346 49.5097 91.6346 49.4972 91.636 49.4847V49.468C91.636 49.4569 91.636 49.4472 91.636 49.4361C91.636 49.4361 91.6346 49.4152 91.6346 49.4138C91.6346 49.4027 91.6333 49.393 91.6333 49.3819C91.6333 49.3791 91.6319 49.3638 91.6291 49.3472C91.6277 49.3305 91.6263 49.3236 91.6249 49.318L91.6152 49.2583C91.6096 49.2291 91.5999 49.1944 91.5874 49.1597C91.5846 49.1527 91.5805 49.143 91.5763 49.1319C91.568 49.1125 91.561 49.093 91.5513 49.0763C91.5471 49.068 91.5402 49.0555 91.5333 49.0402C91.5249 49.025 91.5166 49.0111 91.5083 48.9972C91.5027 48.9888 91.4971 48.9791 91.4902 48.9694L91.4791 48.9541C91.411 48.8625 91.4305 48.7333 91.5221 48.6638C91.6138 48.5958 91.743 48.6125 91.8124 48.7041C91.8166 48.7097 91.8221 48.7166 91.8263 48.7236L93.9638 51.6375C93.9763 51.6527 93.9888 51.6694 93.9999 51.6875C94.0027 51.6916 94.0083 51.7 94.011 51.7069C94.0124 51.7097 94.0138 51.7111 94.0152 51.7138C94.0277 51.7333 94.0388 51.7541 94.0499 51.775C94.0541 51.7819 94.0583 51.7875 94.0624 51.7944C94.0694 51.8055 94.0777 51.8263 94.0833 51.8375C94.093 51.8583 94.1055 51.8847 94.1152 51.9138C94.1194 51.9222 94.1235 51.9305 94.1263 51.9388C94.1263 51.9402 94.1277 51.943 94.1291 51.9458C94.1305 51.95 94.1319 51.9527 94.1333 51.9569C94.1513 52.0069 94.1666 52.0611 94.1777 52.118C94.1777 52.1194 94.1791 52.1222 94.1791 52.1236C94.1791 52.125 94.1791 52.1263 94.1805 52.1277C94.1846 52.1444 94.1874 52.1638 94.1888 52.1805C94.193 52.1986 94.1957 52.2166 94.1971 52.2375C94.1999 52.2527 94.2013 52.2791 94.2027 52.3055C94.2027 52.3069 94.2041 52.3277 94.2041 52.3291C94.2041 52.3375 94.2055 52.3458 94.2055 52.3555C94.2069 52.3847 94.2055 52.4152 94.2041 52.4458V52.468C94.2041 52.4736 94.2041 52.4777 94.2041 52.4833C94.2013 52.5263 94.1958 52.5666 94.1902 52.6097L93.2166 58.7125C93.1985 58.8097 93.111 58.8847 93.0096 58.8847ZM90.6333 58.468H92.8319L93.7777 52.543C93.7819 52.5152 93.7846 52.4861 93.7874 52.4569V52.4305C93.7888 52.4013 93.7902 52.3861 93.7888 52.3708C93.7888 52.3666 93.7888 52.3625 93.7888 52.3583V52.3486C93.7888 52.3375 93.7874 52.3277 93.7874 52.3166C93.7874 52.3138 93.786 52.2986 93.7833 52.2819C93.7819 52.2652 93.7805 52.2583 93.7791 52.2527C93.7777 52.2458 93.7763 52.2402 93.7763 52.2333C93.7763 52.2333 93.7749 52.2236 93.7749 52.2194C93.7735 52.2111 93.7708 52.2027 93.7694 52.193C93.7624 52.1597 93.7527 52.1277 93.743 52.0972C93.743 52.0958 93.7416 52.0944 93.7416 52.093C93.7416 52.0916 93.7402 52.0902 93.7402 52.0888C93.736 52.0819 93.7333 52.0736 93.7305 52.0666C93.7221 52.0458 93.7138 52.025 93.7041 52.0041C93.7027 52.0027 93.7027 52 93.7013 51.9972C93.6971 51.9916 93.6944 51.9875 93.6916 51.9819C93.6805 51.9611 93.6735 51.9472 93.6666 51.9361C93.6596 51.9263 93.6541 51.9166 93.6485 51.9069C93.6485 51.9055 93.6458 51.9027 93.643 51.9C93.6416 51.8972 93.6346 51.8902 93.6333 51.8875L92.0319 49.7055L90.6333 58.468Z" fill="#FFECE5"/>
<path d="M107.999 25.1777L126.142 32.7097L122.41 39.1666L120.944 34.2777L113.392 37.8263L111.775 31.6652L101.192 36.9541L107.999 25.1777ZM117.499 34.2208C117.958 33.4263 117.701 32.5222 116.926 32.2027C116.74 32.125 116.54 32.0888 116.339 32.0888C115.701 32.0888 115.042 32.4541 114.693 33.0569C114.235 33.85 114.492 34.7541 115.267 35.0763C115.453 35.1541 115.651 35.1902 115.854 35.1902C116.489 35.1888 117.15 34.8236 117.499 34.2208Z" fill="#FCD2C2"/>
<path d="M122.41 39.375C122.401 39.375 122.393 39.375 122.386 39.3736C122.304 39.3639 122.235 39.3055 122.211 39.2264L120.815 34.5694L113.482 38.0152C113.426 38.0416 113.361 38.0416 113.305 38.0152C113.25 37.9889 113.208 37.9389 113.192 37.8791L111.64 31.9652L101.286 37.1389C101.203 37.1805 101.104 37.1625 101.042 37.0958C100.979 37.0291 100.967 36.9277 101.012 36.8486L107.819 25.0736C107.872 24.9833 107.983 24.9458 108.079 24.9861L126.222 32.518C126.278 32.5416 126.321 32.5875 126.34 32.643C126.36 32.7 126.353 32.7625 126.324 32.8139L122.59 39.2708C122.551 39.3361 122.483 39.375 122.41 39.375ZM120.944 34.0694C120.974 34.0694 121.003 34.075 121.029 34.0875C121.085 34.1125 121.126 34.1597 121.143 34.218L122.469 38.6444L125.842 32.8097L108.086 25.4389L101.718 36.4555L111.68 31.4777C111.737 31.45 111.803 31.4486 111.86 31.475C111.917 31.5014 111.96 31.5514 111.975 31.6125L113.528 37.5319L120.854 34.0902C120.883 34.0764 120.914 34.0694 120.944 34.0694ZM115.853 35.3972C115.618 35.3972 115.393 35.3541 115.186 35.2666C114.779 35.0972 114.478 34.7791 114.34 34.3708C114.189 33.9222 114.251 33.4041 114.512 32.9514C114.889 32.3 115.605 31.8791 116.339 31.8791C116.574 31.8791 116.799 31.9222 117.007 32.0097C117.414 32.1777 117.715 32.4958 117.853 32.9027C118.005 33.3514 117.942 33.8694 117.679 34.325C117.303 34.9764 116.585 35.3972 115.853 35.3972ZM116.339 32.2958C115.753 32.2958 115.176 32.6347 114.874 33.1597C114.672 33.5097 114.621 33.9027 114.735 34.2375C114.833 34.5305 115.051 34.7597 115.346 34.8819C115.503 34.9472 115.672 34.9805 115.853 34.9805C116.43 34.9805 117.019 34.6333 117.318 34.1166C117.521 33.7666 117.572 33.3722 117.458 33.0375C117.36 32.7444 117.142 32.5166 116.847 32.3944C116.69 32.3291 116.519 32.2958 116.339 32.2958Z" fill="#FFECE5"/>
<path d="M95.7136 58.6764L96.3442 58.3611L96.4261 58.6764H95.7136Z" fill="#FA9874"/>
<path d="M96.4262 58.8847H95.7137C95.6165 58.8847 95.5332 58.818 95.5109 58.7236C95.4887 58.6291 95.5345 58.5319 95.6207 58.4889L96.2512 58.1736C96.3082 58.1458 96.3734 58.1444 96.4304 58.1708C96.4873 58.1972 96.5304 58.2472 96.5457 58.3083L96.629 58.6236C96.6457 58.6861 96.6318 58.7528 96.5929 58.8041C96.554 58.8555 96.4915 58.8847 96.4262 58.8847Z" fill="#FFECE5"/>
<path d="M97.0458 62.5958C97.4986 62.5958 97.8083 62.95 97.7389 63.3861L97.0972 67.4125C97.0278 67.8486 96.6042 68.2028 96.1528 68.2028H88.6806C88.2278 68.2028 87.9181 67.85 87.9875 67.4125L88.6292 63.3861C88.6986 62.95 89.1222 62.5958 89.5736 62.5958H97.0458Z" fill="#FFECE5"/>
<path d="M96.1514 68.4097H88.6806C88.3959 68.4097 88.1459 68.2986 87.975 68.0986C87.8084 67.9028 87.7403 67.6472 87.7834 67.3792L88.425 63.3528C88.5111 62.8111 89.0167 62.3875 89.575 62.3875H97.0459C97.3306 62.3875 97.5806 62.4986 97.7528 62.6986C97.9195 62.8945 97.9875 63.15 97.9445 63.4181L97.3028 67.4445C97.2153 67.9861 96.7097 68.4097 96.1514 68.4097ZM89.575 62.8042C89.2278 62.8042 88.8889 63.0847 88.8361 63.4181L88.1945 67.4445C88.1709 67.5903 88.2056 67.7264 88.2917 67.8278C88.382 67.9333 88.5209 67.9931 88.6806 67.9931H96.1514C96.4986 67.9931 96.8375 67.7125 96.8903 67.3792L97.532 63.3528C97.5556 63.207 97.5209 63.0708 97.4348 62.9695C97.3445 62.8625 97.2056 62.8042 97.0459 62.8042H89.575Z" fill="#FFECE5"/>
<path d="M71.2402 64.2625C78.7319 64.2625 83.8721 70.1194 82.7194 77.3458C81.5666 84.5708 74.5582 90.4291 67.0666 90.4291C59.5735 90.4291 54.4346 84.5708 55.586 77.3458C56.7388 70.1194 63.7471 64.2625 71.2402 64.2625Z" fill="#FCB59A"/>
<path d="M67.0665 90.6375C63.3193 90.6375 60.0401 89.2111 57.8304 86.6208C55.6929 84.1152 54.8234 80.8097 55.3804 77.3125C56.547 70.0013 63.6609 64.0527 71.2401 64.0527C74.9859 64.0527 78.2665 65.4791 80.4762 68.068C82.6137 70.5736 83.4831 73.8791 82.9248 77.3763C81.7581 84.6902 74.6443 90.6375 67.0665 90.6375ZM71.2401 64.4708C63.8567 64.4708 56.9276 70.2611 55.7929 77.3791C55.254 80.7541 56.0915 83.9402 58.1484 86.3513C60.2776 88.8472 63.4456 90.2208 67.0679 90.2208C74.4498 90.2208 81.379 84.4305 82.5137 77.3125C83.0526 73.9375 82.2165 70.75 80.1595 68.3388C78.029 65.8444 74.8623 64.4708 71.2401 64.4708Z" fill="#FFECE5"/>
<path d="M105.515 60.9736L106.978 65.8638L103.906 71.1805L101.743 70.2833L103.043 62.1347L105.515 60.9736Z" fill="#FA9874"/>
<path d="M103.906 71.3889C103.879 71.3889 103.851 71.3833 103.826 71.3736L101.664 70.4764C101.575 70.4389 101.522 70.3458 101.538 70.2514L102.838 62.1028C102.849 62.0347 102.892 61.9764 102.954 61.9472L105.426 60.7861C105.482 60.7597 105.544 60.7597 105.6 60.7847C105.656 60.8097 105.697 60.8569 105.714 60.9152L107.178 65.8041C107.194 65.8597 107.188 65.918 107.158 65.968L104.086 71.2861C104.047 71.3514 103.978 71.3889 103.906 71.3889ZM101.975 70.1541L103.817 70.918L106.753 65.8361L105.385 61.2639L103.231 62.275L101.975 70.1541Z" fill="#FFECE5"/>
<path d="M128.58 31.7708L130.733 34.7055L102.151 84.1555L99.9985 81.2208L128.58 31.7708Z" fill="#FCD2C2"/>
<path d="M102.151 84.3639C102.085 84.3639 102.022 84.3319 101.983 84.2792L99.8305 81.3444C99.7819 81.2778 99.7763 81.1889 99.818 81.1167L128.4 31.6667C128.435 31.6056 128.499 31.5667 128.569 31.5625C128.639 31.5583 128.707 31.5903 128.749 31.6472L130.901 34.5819C130.95 34.6486 130.955 34.7375 130.914 34.8097L102.332 84.2611C102.297 84.3222 102.233 84.3611 102.162 84.3653C102.158 84.3639 102.154 84.3639 102.151 84.3639ZM100.247 81.2083L102.13 83.7764L130.485 34.7208L128.601 32.1528L100.247 81.2083Z" fill="#FFECE5"/>
<path d="M83.7819 86.1445L85.9346 89.0792L84.361 98.9514L82.2083 96.0167L83.7819 86.1445Z" fill="#711E00"/>
<path d="M84.3611 99.1597C84.2958 99.1597 84.2333 99.1292 84.193 99.075L82.0402 96.1403C82.0069 96.0958 81.9944 96.0389 82.0027 95.9847L83.5764 86.1111C83.5902 86.0278 83.6514 85.9611 83.7333 85.9417C83.8152 85.9222 83.9 85.9528 83.95 86.0208L86.1027 88.9556C86.1361 89 86.1486 89.057 86.1402 89.1111L84.5652 98.9833C84.5514 99.0667 84.4902 99.1333 84.4083 99.1528C84.393 99.157 84.3764 99.1597 84.3611 99.1597ZM82.4277 95.9625L84.2333 98.425L85.7152 89.132L83.9097 86.6695L82.4277 95.9625Z" fill="#FFECE5"/>
<path d="M82.2083 96.0167L82.0263 97.1514L79.293 96.0167H82.2083Z" fill="#F0E6E6"/>
<path d="M82.0264 97.3597C81.9986 97.3597 81.9722 97.3542 81.9458 97.3445L79.2125 96.2097C79.1208 96.1722 79.0681 96.0736 79.0875 95.9764C79.107 95.8792 79.1917 95.8083 79.2917 95.8083H82.207C82.2681 95.8083 82.3264 95.8347 82.3653 95.882C82.4056 95.9278 82.4222 95.9903 82.4125 96.05L82.232 97.1847C82.2222 97.2472 82.1833 97.3028 82.1278 97.3333C82.0972 97.35 82.0625 97.3597 82.0264 97.3597ZM80.3389 96.225L81.8639 96.8583L81.9653 96.225H80.3389Z" fill="#FFECE5"/>
<path d="M77.7637 98.8278C77.9651 98.8278 78.1637 98.8639 78.3498 98.9416C79.1248 99.2639 79.3804 100.168 78.9235 100.961C78.5748 101.564 77.9137 101.931 77.2762 101.931C77.0748 101.931 76.8762 101.894 76.6887 101.817C75.9137 101.494 75.6582 100.59 76.1165 99.7972C76.4651 99.193 77.1262 98.8278 77.7637 98.8278Z" fill="#FA9874"/>
<path d="M77.2763 102.138C77.0416 102.138 76.8179 102.094 76.6096 102.008C76.2013 101.839 75.9013 101.521 75.7624 101.113C75.611 100.664 75.6735 100.146 75.936 99.6917C76.3124 99.0403 77.0291 98.6194 77.7624 98.6194C77.9971 98.6194 78.2207 98.6625 78.4277 98.7486C78.836 98.9181 79.136 99.2361 79.2749 99.6444C79.4263 100.093 79.3638 100.611 79.1013 101.064C78.7263 101.717 78.0096 102.138 77.2763 102.138ZM77.7638 99.0361C77.1846 99.0361 76.5957 99.3833 76.2985 99.9C76.0957 100.25 76.0443 100.644 76.1582 100.979C76.2568 101.272 76.4749 101.501 76.7693 101.624C76.9263 101.689 77.0971 101.721 77.2763 101.721C77.8638 101.721 78.4402 101.382 78.7429 100.856C78.9443 100.506 78.9957 100.113 78.8818 99.7778C78.7832 99.4847 78.5652 99.2556 78.2707 99.1333C78.1138 99.0694 77.9443 99.0361 77.7638 99.0361Z" fill="#FFECE5"/>
<path d="M67.0525 96.0167H79.2928L82.0261 97.1514L81.3317 101.506L74.815 104.567L73.1983 98.4056L62.615 103.694L67.0525 96.0167ZM78.9233 100.96C79.3817 100.167 79.1247 99.2625 78.3497 98.9403C78.1636 98.8639 77.965 98.8264 77.7636 98.8264C77.1261 98.8264 76.465 99.1917 76.1178 99.7944C75.658 100.589 75.915 101.493 76.69 101.814C76.8761 101.89 77.0761 101.928 77.2775 101.928C77.9136 101.929 78.5747 101.564 78.9233 100.96Z" fill="#FCD2C2"/>
<path d="M74.8165 104.774C74.7859 104.774 74.7567 104.767 74.7276 104.754C74.672 104.728 74.6304 104.678 74.6137 104.618L73.0623 98.7056L62.7081 103.879C62.6248 103.921 62.5262 103.903 62.4637 103.836C62.4012 103.769 62.3887 103.668 62.4345 103.589L66.872 95.9111C66.9095 95.8472 66.9776 95.8069 67.0526 95.8069H79.2929C79.3206 95.8069 79.347 95.8125 79.3734 95.8222L82.1067 96.9569C82.1956 96.9944 82.2484 97.0875 82.2331 97.1819L81.5387 101.536C81.5276 101.604 81.4845 101.663 81.422 101.692L74.9054 104.753C74.8762 104.768 74.847 104.774 74.8165 104.774ZM73.1998 98.1972C73.229 98.1972 73.2581 98.2028 73.2859 98.2153C73.3429 98.2417 73.3859 98.2917 73.4012 98.3528L74.954 104.271L81.1442 101.363L81.7956 97.2806L79.2512 96.225H67.1734L63.1442 103.197L73.1067 98.2194C73.1359 98.2042 73.1679 98.1972 73.1998 98.1972ZM77.2762 102.138C77.0415 102.138 76.8165 102.094 76.6095 102.008C76.2012 101.839 75.9012 101.521 75.7623 101.113C75.6109 100.664 75.6734 100.146 75.9359 99.6917C76.3123 99.0403 77.029 98.6194 77.7623 98.6194C77.997 98.6194 78.2206 98.6625 78.4276 98.7486C78.8359 98.9181 79.1359 99.2361 79.2748 99.6444C79.4262 100.093 79.3637 100.611 79.1012 101.064C78.7262 101.715 78.0095 102.138 77.2762 102.138ZM77.7637 99.0361C77.1845 99.0361 76.5956 99.3833 76.297 99.9C76.0942 100.25 76.0429 100.644 76.1567 100.979C76.2554 101.272 76.4734 101.501 76.7679 101.624C76.9248 101.689 77.0956 101.721 77.2748 101.721C77.8623 101.721 78.4387 101.382 78.7415 100.856C78.9429 100.506 78.9942 100.113 78.8804 99.7778C78.7817 99.4847 78.5637 99.2556 78.2692 99.1333C78.1137 99.0694 77.9442 99.0361 77.7637 99.0361Z" fill="#FFECE5"/>
<path d="M82.2083 96.0167L84.3611 98.9514L84.1791 100.086L82.0264 97.1514L82.2083 96.0167Z" fill="#CDC4C4"/>
<path d="M84.1792 100.294C84.1139 100.294 84.0514 100.264 84.0111 100.21L81.8584 97.275C81.825 97.2306 81.8125 97.1736 81.8209 97.1194L82.0014 95.9847C82.0153 95.9014 82.0764 95.8347 82.1584 95.8153C82.2403 95.7958 82.325 95.8264 82.375 95.8944L84.5278 98.8292C84.5611 98.8736 84.5736 98.9306 84.5653 98.9847L84.3848 100.119C84.3709 100.203 84.3098 100.269 84.2278 100.289C84.2125 100.292 84.1959 100.294 84.1792 100.294ZM82.2459 97.0972L84.0514 99.5597L84.1403 99.0042L82.3347 96.5417L82.2459 97.0972Z" fill="#FFECE5"/>
<path d="M99.2137 86.1444L101.365 89.0791H85.9345L83.7817 86.1444H99.2137Z" fill="#711E00"/>
<path d="M101.365 89.2875H85.9345C85.8679 89.2875 85.8054 89.2555 85.7665 89.2028L83.6137 86.268C83.5679 86.2042 83.5609 86.1208 83.5956 86.05C83.6304 85.9805 83.7026 85.9361 83.7817 85.9361H99.2123C99.279 85.9361 99.3415 85.968 99.3804 86.0208L101.533 88.9555C101.579 89.0194 101.586 89.1028 101.551 89.1736C101.516 89.243 101.444 89.2875 101.365 89.2875ZM86.0401 88.8708H100.954L99.1067 86.3528H84.1929L86.0401 88.8708Z" fill="#FFECE5"/>
<path d="M82.0263 97.1514L84.1791 100.086L83.4846 104.439L81.3333 101.504L82.0263 97.1514Z" fill="#B7AFAF"/>
<path d="M83.4846 104.647C83.4193 104.647 83.3568 104.617 83.3166 104.562L81.1638 101.628C81.1304 101.583 81.1179 101.526 81.1263 101.472L81.8207 97.118C81.8346 97.0347 81.8957 96.968 81.9777 96.9486C82.0596 96.9291 82.1443 96.9597 82.1943 97.0277L84.3471 99.9625C84.3804 100.007 84.3929 100.064 84.3846 100.118L83.6902 104.472C83.6763 104.556 83.6152 104.622 83.5332 104.642C83.5179 104.646 83.5013 104.647 83.4846 104.647ZM81.5527 101.451L83.3582 103.914L83.9596 100.139L82.1541 97.6764L81.5527 101.451Z" fill="#FFECE5"/>
<path d="M81.3332 101.504L83.4846 104.439L82.9262 107.944L80.7734 105.008L81.3332 101.504Z" fill="#F56630"/>
<path d="M82.9263 108.153C82.861 108.153 82.7985 108.122 82.7582 108.068L80.6054 105.133C80.5721 105.089 80.5596 105.032 80.5679 104.978L81.1263 101.474C81.1401 101.39 81.2013 101.324 81.2832 101.304C81.3651 101.285 81.4499 101.315 81.4999 101.383L83.6526 104.318C83.686 104.363 83.6985 104.419 83.6901 104.474L83.1318 107.978C83.1179 108.061 83.0568 108.128 82.9749 108.147C82.9596 108.15 82.9429 108.153 82.9263 108.153ZM80.9929 104.956L82.7985 107.418L83.2651 104.493L81.4596 102.031L80.9929 104.956Z" fill="#FFECE5"/>
<path d="M83.564 105.008H84.3529L83.8334 105.907L83.564 105.008Z" fill="#CDC4C4"/>
<path d="M83.8333 106.115C83.825 106.115 83.8166 106.115 83.8097 106.114C83.7277 106.104 83.6583 106.046 83.6347 105.967L83.3652 105.069C83.3458 105.007 83.3583 104.937 83.3972 104.885C83.4361 104.832 83.4986 104.801 83.5638 104.801H84.3514C84.4264 104.801 84.4944 104.842 84.5319 104.906C84.5694 104.969 84.5694 105.05 84.5319 105.114L84.0125 106.011C83.9764 106.076 83.9069 106.115 83.8333 106.115ZM83.8444 105.217L83.8944 105.383L83.9916 105.217H83.8444Z" fill="#FFECE5"/>
<path d="M100.917 90.4292C102.235 90.4292 103.137 91.4584 102.935 92.7306C102.732 94.0014 101.5 95.032 100.182 95.032C98.8638 95.032 97.9597 94.0014 98.1624 92.7306C98.3652 91.4597 99.5986 90.4292 100.917 90.4292Z" fill="#FA9874"/>
<path d="M100.182 95.2417C99.4722 95.2417 98.8485 94.9695 98.4263 94.475C98.0166 93.9958 97.8499 93.3639 97.9569 92.6986C98.1749 91.3333 99.5027 90.2222 100.917 90.2222C101.626 90.2222 102.25 90.4945 102.671 90.9889C103.08 91.4681 103.247 92.0986 103.14 92.7639C102.924 94.1292 101.596 95.2417 100.182 95.2417ZM100.917 90.6375C99.6985 90.6375 98.5555 91.5903 98.368 92.7625C98.2819 93.3056 98.4152 93.8167 98.743 94.2028C99.0847 94.6028 99.5958 94.8236 100.182 94.8236C101.4 94.8236 102.542 93.8695 102.729 92.6972C102.815 92.1542 102.683 91.6431 102.354 91.2583C102.014 90.8583 101.503 90.6375 100.917 90.6375Z" fill="#FFECE5"/>
<path d="M73.1998 98.4055L74.8165 104.565L81.3331 101.504L80.7734 105.008H83.5637L83.8331 105.907L80.7595 111.225L62.6165 103.693L73.1998 98.4055Z" fill="#FA9874"/>
<path d="M80.7595 111.433C80.7332 111.433 80.7054 111.428 80.6804 111.418L62.5373 103.886C62.4623 103.854 62.4123 103.782 62.4095 103.701C62.4068 103.621 62.4512 103.544 62.5248 103.508L73.1082 98.2194C73.1651 98.1916 73.2304 98.1903 73.2873 98.2166C73.3443 98.243 73.3873 98.293 73.4026 98.3542L74.9554 104.272L81.2457 101.317C81.3151 101.283 81.397 101.292 81.4595 101.339C81.5207 101.385 81.5526 101.462 81.5401 101.539L81.0193 104.803H83.5665C83.6582 104.803 83.7401 104.862 83.7665 104.951L84.0359 105.849C84.0526 105.904 84.0457 105.962 84.0165 106.012L80.9429 111.331C80.9012 111.396 80.8318 111.433 80.7595 111.433ZM63.1165 103.676L80.6693 110.962L83.6068 105.881L83.4082 105.218H80.772C80.7109 105.218 80.6526 105.192 80.6137 105.144C80.5748 105.099 80.5568 105.036 80.5665 104.976L81.0637 101.861L74.904 104.756C74.8484 104.782 74.7832 104.782 74.7276 104.756C74.672 104.729 74.6304 104.679 74.6137 104.619L73.0623 98.7069L63.1165 103.676Z" fill="#FFECE5"/>
<path d="M86.2487 105.008L88.4014 107.943L83.532 116.368L81.3806 113.433L86.2487 105.008Z" fill="#FCD2C2"/>
<path d="M83.5319 116.576C83.4653 116.576 83.4028 116.544 83.3639 116.492L81.2111 113.557C81.1625 113.49 81.1569 113.401 81.1986 113.329L86.068 104.904C86.1028 104.843 86.1666 104.804 86.2375 104.8C86.3055 104.797 86.375 104.828 86.4167 104.885L88.5694 107.819C88.618 107.886 88.6236 107.975 88.5819 108.047L83.7125 116.472C83.6778 116.533 83.6139 116.572 83.543 116.576C83.5403 116.576 83.5361 116.576 83.5319 116.576ZM81.6278 113.419L83.5111 115.987L88.1528 107.957L86.2694 105.389L81.6278 113.419Z" fill="#FFECE5"/>
<path d="M81.3807 113.433L83.5321 116.368L62.3279 107.567L60.1765 104.632L81.3807 113.433Z" fill="#FA9874"/>
<path d="M83.532 116.576C83.5056 116.576 83.4778 116.571 83.4514 116.561L62.2472 107.76C62.2125 107.744 62.182 107.721 62.1597 107.69L60.007 104.756C59.9514 104.681 59.9528 104.578 60.0111 104.504C60.0695 104.431 60.1681 104.404 60.2542 104.44L81.4583 113.242C81.4931 113.257 81.5236 113.281 81.5458 113.311L83.6986 116.246C83.7542 116.321 83.7528 116.424 83.6945 116.497C83.6556 116.549 83.5945 116.576 83.532 116.576ZM62.4625 107.396L82.9236 115.889L81.2472 113.603L60.7861 105.11L62.4625 107.396Z" fill="#FFECE5"/>
<path d="M83.8332 105.907L84.3527 105.008H86.2485L81.3804 113.433L60.1763 104.632L65.1554 96.0166H67.0527L62.6152 103.693L80.7596 111.225L83.8332 105.907Z" fill="#FFECE5"/>
<path d="M81.3791 113.642C81.3528 113.642 81.325 113.636 81.3 113.626L60.0958 104.825C60.0403 104.801 59.9972 104.756 59.9778 104.7C59.9583 104.643 59.9653 104.581 59.9944 104.529L64.975 95.9139C65.0125 95.85 65.0805 95.8097 65.1555 95.8097H67.0528C67.1278 95.8097 67.1958 95.85 67.2333 95.9139C67.2708 95.9777 67.2708 96.0583 67.2333 96.1222L62.9153 103.594L80.6708 110.965L84.1722 104.907C84.2097 104.843 84.2778 104.803 84.3528 104.803H86.25C86.325 104.803 86.393 104.843 86.4305 104.907C86.468 104.971 86.468 105.051 86.4305 105.115L81.5611 113.54C81.5222 113.603 81.4528 113.642 81.3791 113.642ZM60.475 104.531L81.2916 113.171L85.8889 105.217H84.4722L84.0139 106.011L80.9403 111.329C80.8875 111.419 80.7764 111.457 80.6805 111.417L62.5375 103.885C62.4819 103.861 62.4389 103.817 62.4194 103.76C62.4 103.703 62.4069 103.64 62.4361 103.589L66.693 96.2236H65.2764L60.475 104.531Z" fill="#FFECE5"/>
<path d="M114.644 86.1445L116.797 89.0792L115.147 99.4236L112.994 96.4889L114.644 86.1445Z" fill="#FCD2C2"/>
<path d="M115.147 99.632C115.082 99.632 115.019 99.6014 114.979 99.5472L112.826 96.6125C112.793 96.5681 112.781 96.5111 112.789 96.457L114.439 86.1111C114.453 86.0278 114.514 85.9611 114.596 85.9417C114.678 85.9222 114.764 85.9528 114.812 86.0208L116.965 88.9556C116.999 89 117.011 89.057 117.003 89.1111L115.353 99.4556C115.339 99.5389 115.278 99.6056 115.196 99.625C115.179 99.6292 115.164 99.632 115.147 99.632ZM113.214 96.4347L115.019 98.8972L116.576 89.132L114.771 86.6695L113.214 96.4347Z" fill="#FFECE5"/>
<path d="M105.357 63.9236C105.358 63.8722 105.361 63.8222 105.36 63.7722C105.36 63.7431 105.357 63.7139 105.354 63.6847C105.351 63.6403 105.349 63.5959 105.343 63.5514C105.339 63.5209 105.335 63.4917 105.329 63.4611C105.325 63.4334 105.322 63.4056 105.317 63.3778C105.314 63.3625 105.31 63.3472 105.305 63.332C105.301 63.3111 105.296 63.2903 105.29 63.2695C105.278 63.2209 105.265 63.1736 105.25 63.1278C105.244 63.1111 105.239 63.0931 105.233 63.0764C105.23 63.0695 105.229 63.0625 105.226 63.0556C105.221 63.0389 105.212 63.0236 105.205 63.007C105.183 62.95 105.16 62.8959 105.133 62.8417C105.128 62.8306 105.124 62.8181 105.118 62.807C105.11 62.7917 105.1 62.7764 105.092 62.7611C105.069 62.7209 105.047 62.682 105.022 62.6431C105.012 62.6278 105.005 62.6125 104.996 62.5986C104.979 62.5722 104.961 62.5472 104.943 62.5222L102.79 59.5875C102.819 59.6264 102.844 59.6681 102.869 59.7084C102.894 59.7472 102.917 59.7861 102.939 59.8264C102.953 59.8528 102.968 59.8792 102.98 59.907C103.007 59.9611 103.03 60.0167 103.053 60.0722C103.062 60.0959 103.072 60.1181 103.08 60.1417C103.086 60.1584 103.092 60.1764 103.097 60.1931C103.112 60.2403 103.126 60.2875 103.137 60.3347C103.143 60.3556 103.147 60.3764 103.153 60.3972C103.162 60.4403 103.169 60.4834 103.176 60.5264C103.18 60.5556 103.186 60.5861 103.19 60.6167C103.196 60.6597 103.199 60.7042 103.201 60.75C103.203 60.7792 103.205 60.8084 103.207 60.8375C103.208 60.8875 103.207 60.9375 103.204 60.9889C103.203 61.0139 103.204 61.0389 103.201 61.0639C103.196 61.1403 103.187 61.2181 103.175 61.2959L103.042 62.1347L101.742 70.2834L101.45 72.1125L100.719 76.6889L99.9971 81.2209L99.2124 86.1431L101.365 89.0778L102.15 84.1556L102.872 79.6236L103.603 75.0473L103.894 73.2181L105.194 65.0695L105.328 64.2306C105.34 64.1528 105.349 64.075 105.354 63.9986C105.357 63.9736 105.355 63.9486 105.357 63.9236Z" fill="#FA9874"/>
<path d="M101.365 89.2875C101.3 89.2875 101.237 89.2569 101.197 89.2028L99.0444 86.2681C99.0111 86.2236 98.9986 86.1667 99.0069 86.1125L102.969 61.2653C102.981 61.1958 102.989 61.1264 102.993 61.0514C102.993 61.0403 102.994 61.0292 102.994 61.0167L102.996 60.9819C102.997 60.9361 103 60.8889 102.999 60.8431C102.999 60.8264 102.997 60.8097 102.996 60.7931L102.994 60.7625C102.992 60.7222 102.989 60.6819 102.985 60.6417C102.982 60.6208 102.979 60.6 102.975 60.5792L102.972 60.5611C102.967 60.5222 102.96 60.4819 102.951 60.4431C102.947 60.425 102.943 60.4056 102.937 60.3861C102.926 60.3431 102.914 60.3 102.901 60.2569L102.886 60.2111C102.882 60.2 102.878 60.1889 102.874 60.1792L102.861 60.1486C102.842 60.0972 102.819 60.0472 102.796 59.9986C102.785 59.975 102.771 59.9514 102.758 59.9264C102.739 59.8889 102.718 59.8542 102.696 59.8194L102.682 59.7986C102.662 59.7681 102.644 59.7389 102.624 59.7097C102.556 59.6167 102.575 59.4861 102.668 59.4181C102.761 59.35 102.892 59.3694 102.96 59.4625L102.961 59.4639L105.112 62.3972C105.133 62.425 105.153 62.4528 105.171 62.4806C105.179 62.4931 105.186 62.5056 105.194 62.5194C105.228 62.5722 105.253 62.6153 105.276 62.6597C105.29 62.6833 105.299 62.6958 105.306 62.7097C105.312 62.7222 105.317 62.7347 105.322 62.7458C105.351 62.8069 105.378 62.8681 105.403 62.9292C105.414 62.9528 105.419 62.9681 105.425 62.9819C105.426 62.9847 105.431 63 105.432 63.0042C105.437 63.0194 105.442 63.0319 105.446 63.0458L105.451 63.0625C105.468 63.1139 105.482 63.1653 105.496 63.2181C105.501 63.2417 105.507 63.2639 105.512 63.2875C105.519 63.3139 105.522 63.3264 105.525 63.3389C105.529 63.3583 105.532 63.3792 105.535 63.4L105.542 63.4431C105.546 63.4708 105.55 63.4972 105.554 63.525C105.56 63.5736 105.562 63.6222 105.565 63.6694L105.567 63.6944C105.568 63.7181 105.569 63.7403 105.571 63.7639C105.572 63.8181 105.571 63.8722 105.568 63.9278V63.9528C105.568 63.9722 105.567 63.9903 105.565 64.0097C105.56 64.0944 105.55 64.1792 105.537 64.2597L101.575 89.1069C101.561 89.1903 101.5 89.2569 101.418 89.2764C101.399 89.2847 101.382 89.2875 101.365 89.2875ZM99.4333 86.0903L101.239 88.5528L105.124 64.1986C105.135 64.1292 105.143 64.0583 105.147 63.9847C105.149 63.9722 105.149 63.9611 105.149 63.9486L105.15 63.9153C105.151 63.8694 105.154 63.8222 105.153 63.7764C105.153 63.7597 105.151 63.7431 105.15 63.7264L105.149 63.6958C105.146 63.6556 105.143 63.6153 105.139 63.575C105.136 63.5528 105.133 63.5319 105.129 63.5097L105.121 63.4556C105.119 63.4431 105.118 63.4306 105.115 63.4194L105.106 63.3764C105.101 63.3569 105.097 63.3389 105.092 63.3194C105.081 63.2764 105.068 63.2333 105.056 63.1917L105.04 63.1444C105.039 63.1417 105.035 63.1292 105.035 63.1264C105.025 63.1042 105.019 63.0931 105.015 63.0806C104.996 63.0306 104.975 62.9806 104.951 62.9319C104.946 62.9208 104.942 62.9111 104.939 62.9014L104.932 62.8889C104.926 62.8792 104.919 62.8694 104.914 62.8597C104.893 62.8222 104.872 62.7875 104.85 62.7514C104.844 62.7417 104.839 62.7319 104.833 62.7222C104.811 62.6875 104.796 62.6653 104.779 62.6417L103.417 60.7833C103.418 60.7986 103.418 60.8139 103.419 60.8292C103.421 60.8833 103.419 60.9389 103.417 60.9931V61.0181C103.417 61.0361 103.417 61.0542 103.415 61.0736C103.41 61.1597 103.4 61.2444 103.387 61.325L99.4333 86.0903Z" fill="#FFECE5"/>
<path d="M84.3611 98.9513H39.5806C38.7584 98.9513 38.0764 98.5972 37.6667 98.0388L35.5139 95.1041C35.5917 95.2097 35.6778 95.3069 35.7722 95.3958C36.1847 95.7819 36.7597 96.0152 37.4292 96.0152H82.2084L84.3611 98.9513Z" fill="#EB5017"/>
<path d="M84.3611 99.1597H39.5805C38.7222 99.1597 37.9639 98.7958 37.4986 98.1625L35.3472 95.2291C35.3472 95.2291 35.3472 95.2291 35.3472 95.2277C35.2791 95.1347 35.2986 95.0041 35.3916 94.9361C35.4847 94.868 35.6153 94.8875 35.6833 94.9805C35.7528 95.075 35.8319 95.1638 35.9166 95.2444C36.3041 95.6069 36.8416 95.8069 37.4305 95.8069H82.2083C82.275 95.8069 82.3375 95.8388 82.3764 95.8916L84.5291 98.8277C84.575 98.8916 84.5819 98.975 84.5472 99.0458C84.5111 99.1152 84.4389 99.1597 84.3611 99.1597ZM36.4736 96.0597L37.8347 97.9152C38.2208 98.4416 38.8569 98.743 39.5805 98.743H83.95L82.1028 96.2236H37.4291C37.093 96.2236 36.7694 96.168 36.4736 96.0597Z" fill="#FFECE5"/>
<path d="M99.2137 86.1444H114.644L112.994 96.4889L107.99 90.9583L99.0665 99.593L93.0943 92.5L80.7734 105.01L81.3318 101.506L82.0262 97.1514L82.2068 96.0166L83.7818 86.1444H99.2137ZM100.182 95.0333C101.5 95.0333 102.732 94.0027 102.935 92.7319C103.137 91.4611 102.233 90.4305 100.916 90.4305C99.5984 90.4305 98.3651 91.4597 98.1623 92.7319C97.9595 94.0014 98.8651 95.0333 100.182 95.0333Z" fill="#FCD2C2"/>
<path d="M80.7734 105.217C80.7415 105.217 80.7095 105.21 80.679 105.194C80.5984 105.154 80.5526 105.065 80.5679 104.976L83.5762 86.1111C83.5929 86.0097 83.679 85.9361 83.7817 85.9361H114.644C114.705 85.9361 114.764 85.9625 114.803 86.0097C114.841 86.0555 114.86 86.118 114.85 86.1778L113.2 96.5222C113.187 96.6014 113.13 96.6666 113.054 96.6889C112.978 96.7111 112.894 96.6889 112.84 96.6292L107.98 91.2583L99.2109 99.743C99.1692 99.7833 99.1137 99.8042 99.0554 99.8014C98.997 99.7986 98.9442 99.7722 98.9067 99.7278L93.0817 92.8097L80.9206 105.156C80.8817 105.196 80.8276 105.217 80.7734 105.217ZM83.9595 86.3528L81.0817 104.4L92.9456 92.3542C92.9873 92.3125 93.0442 92.2903 93.1026 92.2917C93.1609 92.2944 93.2165 92.3208 93.254 92.3653L99.0817 99.2875L107.846 90.8083C107.886 90.7694 107.941 90.7472 107.997 90.75C108.054 90.7514 108.107 90.7764 108.144 90.818L112.857 96.0264L114.4 86.3528H83.9595ZM100.182 95.2417C99.472 95.2417 98.8484 94.9694 98.4262 94.475C98.0165 93.9958 97.8498 93.3639 97.9567 92.6986C98.1748 91.3333 99.5026 90.2222 100.916 90.2222C101.626 90.2222 102.25 90.4944 102.672 90.9889C103.08 91.468 103.247 92.0986 103.141 92.7639C102.923 94.1292 101.596 95.2417 100.182 95.2417ZM100.916 90.6375C99.6984 90.6375 98.5554 91.5903 98.3679 92.7625C98.2817 93.3055 98.4151 93.8167 98.7429 94.2028C99.0845 94.6028 99.5956 94.8236 100.182 94.8236C101.4 94.8236 102.541 93.8694 102.729 92.6972C102.815 92.1542 102.683 91.643 102.354 91.2583C102.014 90.8583 101.503 90.6375 100.916 90.6375Z" fill="#FFECE5"/>
<path d="M107.99 90.9583L112.994 96.4889L111.636 105.008H80.7734L93.0943 92.5L99.0665 99.593L107.99 90.9583Z" fill="#FA9874"/>
<path d="M111.636 105.217H80.7735C80.6902 105.217 80.6138 105.167 80.5819 105.089C80.5499 105.011 80.5666 104.922 80.6263 104.862L92.9471 92.3527C92.9888 92.3111 93.0457 92.2889 93.1041 92.2902C93.1624 92.293 93.218 92.3194 93.2555 92.3639L99.0833 99.2861L107.847 90.8069C107.887 90.768 107.943 90.7458 107.999 90.7486C108.055 90.75 108.108 90.775 108.146 90.8166L113.15 96.3472C113.192 96.3944 113.211 96.4569 113.201 96.5194L111.843 105.04C111.825 105.143 111.737 105.217 111.636 105.217ZM81.2708 104.8H111.458L112.774 96.5541L107.982 91.2569L99.2124 99.7416C99.1708 99.7819 99.1152 99.8027 99.0569 99.8C98.9985 99.7972 98.9458 99.7708 98.9083 99.7264L93.0833 92.8083L81.2708 104.8Z" fill="#FFECE5"/>
<path d="M112.994 96.4889L115.147 99.4236L113.789 107.944L111.636 105.008L112.994 96.4889Z" fill="#FA9874"/>
<path d="M113.789 108.153C113.724 108.153 113.661 108.122 113.621 108.068L111.468 105.133C111.435 105.089 111.422 105.032 111.43 104.978L112.789 96.4569C112.803 96.3736 112.864 96.3069 112.946 96.2875C113.028 96.2681 113.112 96.2986 113.162 96.3667L115.315 99.3014C115.349 99.3458 115.361 99.4028 115.353 99.457L113.994 107.978C113.98 108.061 113.919 108.128 113.837 108.147C113.821 108.15 113.804 108.153 113.789 108.153ZM111.855 104.956L113.661 107.418L114.928 99.4764L113.122 97.0139L111.855 104.956Z" fill="#FFECE5"/>
<path d="M85.0025 79.1208C85.0081 79.0458 85.0108 78.9708 85.0136 78.8958C85.0192 78.7805 85.0247 78.6652 85.0275 78.5513C85.0289 78.4722 85.0289 78.3944 85.0289 78.3152C85.0289 78.2055 85.0289 78.0972 85.0261 77.9888C85.0247 77.9083 85.0206 77.8291 85.0178 77.7499C85.0136 77.6444 85.0081 77.5388 84.9997 77.4333C84.9942 77.3541 84.9872 77.2749 84.9803 77.1958C84.9706 77.0916 84.9594 76.9888 84.9469 76.8847C84.9372 76.8069 84.9275 76.7291 84.9178 76.6513C84.9039 76.5485 84.8872 76.4458 84.8706 76.343C84.8581 76.268 84.8456 76.193 84.8317 76.118C84.8261 76.0888 84.8219 76.0583 84.8164 76.0291C84.7956 75.9235 84.7719 75.8208 84.7483 75.7166C84.7428 75.6888 84.7372 75.661 84.7303 75.6347C84.6928 75.4722 84.6497 75.3124 84.6053 75.1541C84.5928 75.111 84.5789 75.068 84.5664 75.0235C84.5317 74.9055 84.4956 74.7888 84.4567 74.6736C84.44 74.6236 84.4233 74.5735 84.4053 74.5235C84.3928 74.486 84.3803 74.4486 84.3678 74.4124C84.3289 74.3041 84.2872 74.1958 84.2442 74.0888C84.2414 74.0833 84.2386 74.0763 84.2372 74.0708C84.1789 73.9263 84.1178 73.7833 84.0539 73.643C84.04 73.6124 84.0261 73.5819 84.0122 73.5499C83.9539 73.4222 83.8928 73.2972 83.8289 73.1722C83.8233 73.1624 83.8178 73.1513 83.8122 73.1416C83.7289 72.9791 83.6414 72.8208 83.5497 72.6638C83.5456 72.6555 83.5414 72.6472 83.5358 72.6388C83.4386 72.4749 83.3372 72.3138 83.2317 72.1541C83.2261 72.1458 83.2206 72.136 83.215 72.1277C83.1289 71.9985 83.04 71.8722 82.9483 71.7472L80.7956 68.8124C80.8928 68.9458 80.9872 69.0819 81.0789 69.2208C81.1844 69.3791 81.2858 69.5402 81.3831 69.7055C81.3872 69.7138 81.3914 69.7222 81.3969 69.7305C81.4886 69.8874 81.5761 70.0472 81.6594 70.2083C81.7289 70.343 81.7956 70.4791 81.8594 70.6166C81.8733 70.6472 81.8872 70.6777 81.9011 70.7097C81.965 70.8513 82.0261 70.993 82.0844 71.1374C82.0872 71.143 82.09 71.1499 82.0914 71.1555C82.1483 71.2985 82.2011 71.4444 82.2525 71.5916C82.2706 71.6416 82.2872 71.6916 82.3039 71.7416C82.3428 71.8569 82.3789 71.9749 82.4136 72.0916C82.4261 72.1347 82.44 72.1777 82.4525 72.2222C82.4969 72.3805 82.54 72.5416 82.5775 72.7027C82.5844 72.7305 82.5886 72.7583 82.5956 72.7847C82.6261 72.918 82.6525 73.0513 82.6789 73.186C82.6928 73.261 82.7053 73.336 82.7178 73.411C82.7344 73.5138 82.7511 73.6152 82.765 73.7194C82.7761 73.7972 82.7858 73.8749 82.7942 73.9527C82.8067 74.0555 82.8178 74.1597 82.8275 74.2638C82.8344 74.343 82.8414 74.4222 82.8469 74.5013C82.8539 74.6069 82.8594 74.7124 82.865 74.818C82.8692 74.8972 82.8719 74.9777 82.8733 75.0569C82.8761 75.1652 82.8761 75.2749 82.8761 75.3833C82.8761 75.4624 82.8761 75.5402 82.8747 75.6194C82.8719 75.7333 82.8664 75.8485 82.8608 75.9638C82.8567 76.0388 82.8539 76.1138 82.8497 76.1888C82.8414 76.3166 82.8289 76.4458 82.815 76.5749C82.8081 76.6388 82.8039 76.7013 82.7969 76.7652C82.7747 76.9583 82.7483 77.1527 82.7178 77.3485C82.6956 77.4874 82.6706 77.6249 82.6442 77.761C82.6372 77.8013 82.6289 77.8402 82.6206 77.8791C82.5997 77.9847 82.5775 78.0888 82.5539 78.193C82.5456 78.2291 82.5386 78.2652 82.5303 78.2999C82.4983 78.4347 82.465 78.5694 82.4289 78.7041C82.4233 78.7263 82.4164 78.7472 82.4108 78.7694C82.3803 78.8833 82.3469 78.9958 82.3136 79.1097C82.3011 79.1499 82.29 79.1888 82.2775 79.2277C82.2442 79.3347 82.2108 79.4402 82.1747 79.5458C82.165 79.5749 82.1567 79.6027 82.1469 79.6319C82.1025 79.7624 82.0553 79.893 82.0067 80.0222C81.9956 80.0527 81.9831 80.0833 81.9706 80.1138C81.9317 80.2152 81.8914 80.3166 81.8497 80.418C81.8344 80.4555 81.8192 80.4944 81.8025 80.5319C81.7553 80.6458 81.7067 80.7583 81.6553 80.8708C81.6483 80.886 81.6414 80.9013 81.6344 80.9166C81.5761 81.0444 81.5164 81.1708 81.4553 81.2972C81.4386 81.3319 81.4219 81.3652 81.4039 81.3999C81.3553 81.4972 81.3067 81.5944 81.2553 81.6902C81.2372 81.7235 81.2206 81.7569 81.2025 81.7902C81.1372 81.9138 81.0692 82.036 80.9997 82.1583C80.99 82.1749 80.9803 82.1916 80.9706 82.2083C80.9094 82.3138 80.8469 82.4194 80.7831 82.5249C80.7594 82.5652 80.7344 82.6041 80.7094 82.6444C80.6719 82.7055 80.6331 82.7666 80.5942 82.8263C80.5664 82.8694 80.54 82.911 80.5122 82.9541C80.4719 83.0152 80.4317 83.0763 80.39 83.1374C80.3622 83.1777 80.3358 83.218 80.3081 83.2583C80.2636 83.3222 80.2192 83.386 80.1747 83.4485C80.1497 83.4847 80.1233 83.5208 80.0983 83.5569C80.0428 83.6333 79.9872 83.7097 79.9303 83.7847C79.915 83.8055 79.8983 83.8277 79.8831 83.8485C79.7442 84.0333 79.5997 84.2152 79.4525 84.3944C79.4525 84.3958 79.4511 84.3958 79.4511 84.3972C79.3025 84.5763 79.1511 84.7541 78.9956 84.9277C78.9928 84.9319 78.9886 84.9347 78.9858 84.9388C78.8414 85.0999 78.6928 85.2583 78.5414 85.4138C78.5386 85.4166 78.5372 85.418 78.5344 85.4208C78.3844 85.5749 78.2303 85.7263 78.0747 85.8749C78.0678 85.8819 78.0594 85.8888 78.0525 85.8972C77.9039 86.0374 77.7525 86.1763 77.5983 86.311C77.5844 86.3235 77.5706 86.336 77.5567 86.3485C77.4067 86.4791 77.2539 86.6083 77.0997 86.7347C77.0817 86.7499 77.0622 86.7652 77.0442 86.7805C76.8886 86.9069 76.7303 87.0291 76.5706 87.1499C76.5497 87.1652 76.5289 87.1819 76.5081 87.1972C76.3483 87.3152 76.1872 87.4305 76.0233 87.5444C76.0011 87.5597 75.9789 87.5749 75.9567 87.5902C75.7831 87.7083 75.6081 87.8235 75.4303 87.936C75.4094 87.9499 75.3872 87.9624 75.3664 87.9763C75.1872 88.0888 75.0053 88.1972 74.8206 88.3027C74.7956 88.3166 74.7719 88.3319 74.7469 88.3458C74.6747 88.386 74.6039 88.4263 74.5317 88.4652C74.4956 88.4847 74.4594 88.5055 74.4233 88.5249C74.3219 88.5791 74.2206 88.6319 74.1192 88.6847C74.1108 88.6888 74.1025 88.693 74.0956 88.6972C73.9858 88.7527 73.8747 88.8083 73.7636 88.861C73.7289 88.8777 73.6928 88.8944 73.6567 88.911C73.5803 88.9472 73.5039 88.9833 73.4275 89.018C73.3928 89.0333 73.3581 89.0485 73.3247 89.0638C73.2233 89.1083 73.1233 89.1527 73.0219 89.1958C72.9844 89.211 72.9469 89.2277 72.9081 89.243C72.7789 89.2972 72.6483 89.3485 72.5178 89.3985C72.515 89.3999 72.5136 89.3999 72.5108 89.4013C72.3775 89.4527 72.2442 89.5013 72.1108 89.5485C72.0719 89.5624 72.0344 89.5749 71.9956 89.5888C71.8914 89.6249 71.7872 89.6597 71.6831 89.693C71.6497 89.7041 71.6164 89.7152 71.5831 89.7249C71.4247 89.7749 71.265 89.8222 71.1039 89.8666C71.0706 89.8763 71.0386 89.8847 71.0053 89.893C70.8414 89.9374 70.6761 89.9805 70.5108 90.0208C70.5011 90.0235 70.49 90.0249 70.4803 90.0277C70.3206 90.0652 70.1594 90.0999 69.9983 90.1333C69.9678 90.1388 69.9386 90.1458 69.9081 90.1513C69.7442 90.1833 69.5803 90.2124 69.4164 90.2388C69.3831 90.2444 69.3497 90.2485 69.3178 90.2541C69.1483 90.2805 68.9775 90.3041 68.8067 90.3249C68.8011 90.3249 68.7956 90.3263 68.79 90.3263C68.6219 90.3458 68.4553 90.3624 68.2858 90.3763C68.2539 90.3791 68.2219 90.3819 68.19 90.3847C68.0233 90.3972 67.8567 90.4083 67.6886 90.4152C67.6553 90.4166 67.6233 90.418 67.59 90.4194C67.4164 90.4263 67.2414 90.4305 67.0678 90.4305C65.5261 90.4305 64.0831 90.1819 62.7747 89.7249C62.5567 89.6485 62.3428 89.5666 62.1317 89.4791C61.29 89.1291 60.5108 88.6888 59.8025 88.1694C58.9178 87.5208 58.1469 86.7499 57.5081 85.8791L59.6608 88.8138C61.7039 91.5999 65.1081 93.3638 69.2192 93.3638C69.3942 93.3638 69.5678 93.3597 69.7414 93.3527C69.7747 93.3513 69.8067 93.3499 69.84 93.3485C70.0081 93.3416 70.1747 93.3319 70.3414 93.318C70.3733 93.3152 70.4053 93.3124 70.4372 93.3097C70.6053 93.2958 70.7733 93.2791 70.9414 93.2597C70.9469 93.2597 70.9525 93.2583 70.9581 93.2583C71.1289 93.2374 71.2997 93.2138 71.4692 93.1874C71.5025 93.1819 71.5358 93.1777 71.5678 93.1722C71.7331 93.1458 71.8969 93.1166 72.0594 93.0847C72.09 93.0791 72.1192 93.0722 72.1497 93.0666C72.3108 93.0347 72.4719 92.9999 72.6317 92.961C72.6414 92.9583 72.6525 92.9569 72.6622 92.9541C72.8275 92.9152 72.9928 92.8722 73.1567 92.8263C73.19 92.818 73.2219 92.8083 73.2553 92.7999C73.415 92.7555 73.5747 92.7083 73.7344 92.6583C73.7442 92.6555 73.7539 92.6527 73.7636 92.6499C73.7872 92.643 73.8108 92.6333 73.8344 92.6263C73.9386 92.593 74.0442 92.5583 74.1469 92.5222C74.1858 92.5083 74.2233 92.4958 74.2622 92.4819C74.3969 92.4347 74.5303 92.386 74.6622 92.3347C74.665 92.3333 74.6664 92.3333 74.6692 92.3319C74.7997 92.2819 74.9303 92.2291 75.0594 92.1763C75.0969 92.161 75.1344 92.1444 75.1733 92.1291C75.2747 92.086 75.3761 92.0416 75.4761 91.9972C75.4983 91.9874 75.5219 91.9777 75.5442 91.968C75.5567 91.9624 75.5678 91.9569 75.5803 91.9513C75.6567 91.9166 75.7331 91.8805 75.8094 91.8444C75.8456 91.8277 75.8803 91.811 75.9164 91.7944C76.0275 91.7402 76.1386 91.686 76.2483 91.6305C76.2567 91.6263 76.265 91.6222 76.2719 91.618C76.3733 91.5652 76.4747 91.5124 76.5761 91.4583C76.6122 91.4388 76.6483 91.418 76.6844 91.3985C76.7567 91.3597 76.8289 91.3194 76.8997 91.2791C76.9122 91.2722 76.9247 91.2652 76.9372 91.2583C76.9497 91.2513 76.9622 91.243 76.9747 91.236C77.1581 91.1305 77.34 91.0222 77.5206 90.9097C77.5414 90.8958 77.5636 90.8833 77.5844 90.8694C77.7622 90.7569 77.9386 90.6416 78.1108 90.5235C78.1206 90.5166 78.1303 90.511 78.1386 90.5055C78.1511 90.4958 78.165 90.486 78.1775 90.4777C78.3414 90.3652 78.5025 90.2485 78.6622 90.1305C78.6831 90.1152 78.7039 90.0985 78.7247 90.0833C78.8844 89.9624 79.0428 89.8402 79.1983 89.7138C79.2053 89.7083 79.2122 89.7027 79.2192 89.6972C79.2317 89.6874 79.2428 89.6777 79.2539 89.668C79.4081 89.5416 79.5608 89.4138 79.7108 89.2819C79.7247 89.2694 79.7386 89.2569 79.7525 89.2444C79.9067 89.1083 80.0581 88.9708 80.2067 88.8305C80.2094 88.8277 80.2108 88.8263 80.2136 88.8249C80.2192 88.8194 80.2247 88.8138 80.2303 88.8097C80.3858 88.661 80.54 88.5097 80.69 88.3555C80.6928 88.3527 80.6942 88.3513 80.6956 88.3485C80.8469 88.193 80.9956 88.0333 81.1414 87.8722C81.1442 87.8694 81.1469 87.8666 81.1497 87.8638C81.1511 87.8624 81.1511 87.8624 81.1525 87.861C81.3081 87.6874 81.4608 87.511 81.6081 87.3305C81.6081 87.3291 81.6094 87.3291 81.6094 87.3277C81.7567 87.1485 81.8997 86.9666 82.04 86.7819C82.0414 86.7805 82.0428 86.7791 82.0442 86.7777C82.0594 86.7583 82.0733 86.7374 82.0872 86.718C82.1442 86.643 82.1997 86.5666 82.2553 86.4902C82.2817 86.4541 82.3067 86.418 82.3317 86.3819C82.3761 86.318 82.4219 86.2541 82.465 86.1902C82.4928 86.1499 82.5192 86.1097 82.5469 86.0694C82.5886 86.0083 82.6289 85.9472 82.6692 85.886C82.6969 85.8444 82.7233 85.8013 82.7511 85.7583C82.79 85.6972 82.8275 85.6374 82.8664 85.5763C82.8803 85.5527 82.8956 85.5305 82.9094 85.5069C82.9192 85.4902 82.9289 85.4735 82.9386 85.4569C83.0025 85.3527 83.065 85.2472 83.1261 85.1402C83.1358 85.1235 83.1456 85.1069 83.1553 85.0902C83.2247 84.968 83.2914 84.8458 83.3581 84.7222C83.3761 84.6888 83.3928 84.6555 83.4108 84.6222C83.4608 84.5263 83.5108 84.4291 83.5594 84.3319C83.5761 84.2972 83.5942 84.2638 83.6108 84.2291C83.6719 84.1027 83.7331 83.9763 83.79 83.8485C83.7914 83.8458 83.7928 83.843 83.7942 83.8402C83.7997 83.8277 83.8053 83.8152 83.8108 83.8027C83.8608 83.6902 83.9094 83.5777 83.9581 83.4638C83.9733 83.4263 83.99 83.3874 84.0053 83.3499C84.0469 83.2485 84.0872 83.1472 84.1261 83.0458C84.1372 83.0152 84.1497 82.9847 84.1622 82.9541C84.2108 82.8249 84.2581 82.6944 84.3025 82.5638C84.3122 82.536 84.3219 82.5069 84.3303 82.4777C84.365 82.3722 84.3997 82.2666 84.4331 82.1597C84.4456 82.1208 84.4581 82.0805 84.4692 82.0416C84.5025 81.9291 84.5358 81.8152 84.5664 81.7013C84.5719 81.6791 84.5789 81.6583 84.5844 81.6361C84.6206 81.5027 84.6539 81.3666 84.6858 81.2319C84.6942 81.1958 84.7025 81.1597 84.7094 81.1249C84.7331 81.0208 84.7553 80.9166 84.7761 80.8111C84.7844 80.7722 84.7928 80.7319 84.7997 80.693C84.8261 80.5555 84.8511 80.418 84.8733 80.2791C84.9039 80.0833 84.9303 79.8888 84.9525 79.6958C84.9594 79.6319 84.9636 79.568 84.9706 79.5055C84.9817 79.3777 84.9942 79.2485 85.0025 79.1208Z" fill="#FA9874"/>
<path d="M69.2193 93.5736C65.1984 93.5736 61.654 91.8833 59.4929 88.9375L57.3415 86.0055C57.3415 86.0041 57.3401 86.0041 57.3401 86.0027C57.3332 85.993 57.3276 85.9833 57.3221 85.9736C57.2734 85.8764 57.3068 85.7583 57.3998 85.7027C57.4915 85.6458 57.6123 85.6694 57.6762 85.7569C58.304 86.6125 59.0596 87.368 59.9262 88.0027C60.6248 88.5152 61.3943 88.9472 62.2123 89.2875C62.4193 89.3736 62.6318 89.4541 62.8443 89.5291C64.1609 89.9888 65.5832 90.2222 67.0679 90.2222C67.2234 90.2222 67.3859 90.2194 67.5832 90.2111L67.6804 90.2069C67.8457 90.2 68.0095 90.1902 68.1748 90.1777L68.2693 90.1694C68.4346 90.1555 68.5998 90.1388 68.7651 90.1194L68.8068 90.325L68.7818 90.118C68.9498 90.0986 69.1179 90.0736 69.2859 90.0486L69.3832 90.0333C69.5457 90.0069 69.7068 89.9777 69.8693 89.9472L69.9582 89.9291C70.1179 89.8972 70.2762 89.8625 70.4332 89.825L70.4526 89.8208C70.6276 89.7791 70.7901 89.7375 70.9526 89.693L71.0498 89.6666C71.2082 89.6222 71.3651 89.5764 71.5221 89.5264L71.6207 89.4944C71.7248 89.4611 71.8276 89.4264 71.9304 89.3916L72.0443 89.3527C72.1762 89.3055 72.3082 89.2583 72.4387 89.2083C72.5748 89.1555 72.7026 89.1041 72.8304 89.0513L72.9415 89.0041C73.0415 88.9611 73.1415 88.918 73.2415 88.8736L73.3429 88.8277C73.4193 88.793 73.4943 88.7583 73.5693 88.7222L73.6748 88.6722C73.7846 88.6194 73.8943 88.5652 74.0026 88.5097C74.0026 88.5097 74.0248 88.4986 74.0262 88.4972C74.1276 88.4458 74.2276 88.393 74.3276 88.3388L74.4345 88.2791C74.5054 88.2402 74.5776 88.2014 74.6484 88.1611L74.7207 88.1194C74.9054 88.0139 75.0859 87.9055 75.2595 87.7972L75.3221 87.7583C75.5012 87.6458 75.6762 87.5305 75.8429 87.4166L75.9095 87.3708C76.0748 87.2569 76.2359 87.1416 76.3887 87.0277L76.4512 86.9805C76.6137 86.8583 76.7721 86.7361 76.9193 86.6166L76.9748 86.5722C77.1373 86.4402 77.2845 86.3152 77.4262 86.1916L77.4665 86.1555C77.6234 86.0166 77.7748 85.8791 77.9151 85.7458L77.9373 85.7236C78.0943 85.5736 78.247 85.4236 78.3915 85.2763C78.5484 85.1152 78.6957 84.9569 78.8373 84.8L79.0026 84.9277L78.8471 84.7888C79.0012 84.618 79.1526 84.4416 79.297 84.2652C79.4443 84.0861 79.5873 83.9055 79.7234 83.725L79.7707 83.6611C79.8262 83.5861 79.8818 83.5111 79.9359 83.4361L80.0109 83.3291C80.0554 83.2666 80.0984 83.2041 80.1429 83.1416L80.2234 83.0222C80.2637 82.9625 80.304 82.9027 80.3429 82.8416C80.3693 82.8 80.397 82.7583 80.4234 82.7166C80.4623 82.6569 80.4998 82.5972 80.5359 82.5375C80.5609 82.4986 80.5845 82.4597 80.6082 82.4194C80.6707 82.3152 80.7332 82.2125 80.7929 82.1069L80.822 82.0569C80.8901 81.9375 80.9568 81.8152 81.022 81.6944L81.0734 81.5958C81.1234 81.5 81.1721 81.4055 81.2193 81.3097L81.2693 81.2083C81.3304 81.0847 81.3887 80.9597 81.4457 80.8333L81.4665 80.7875C81.5165 80.6777 81.5637 80.5652 81.6109 80.4541L81.6568 80.343C81.697 80.243 81.7373 80.143 81.7762 80.043L81.8109 79.9514C81.8582 79.825 81.904 79.6958 81.9484 79.5666L81.9762 79.4833C82.0109 79.3791 82.0443 79.275 82.0776 79.1708L82.1137 79.0541C82.147 78.943 82.179 78.8305 82.2095 78.7194L82.2276 78.6555C82.2623 78.5236 82.2957 78.3916 82.3262 78.2583L82.3498 78.1527C82.3734 78.05 82.3957 77.9472 82.4151 77.8444L82.4387 77.7277C82.4651 77.593 82.4887 77.4569 82.5109 77.3208C82.5401 77.1375 82.5665 76.9444 82.5887 76.7472C82.5929 76.7097 82.5957 76.6722 82.5998 76.6347L82.6068 76.5597C82.6193 76.4333 82.6318 76.3055 82.6401 76.1805C82.6429 76.1305 82.6457 76.0819 82.6484 76.0319L82.6512 75.9583C82.6568 75.8444 82.6623 75.7319 82.6651 75.6194C82.6665 75.5555 82.6665 75.4916 82.6665 75.4264V75.3875C82.6665 75.2791 82.6665 75.1722 82.6637 75.0666C82.6623 74.9944 82.6595 74.9222 82.6554 74.85L82.654 74.8319C82.6498 74.7277 82.6443 74.625 82.6373 74.5208C82.6318 74.443 82.6262 74.3652 82.6179 74.2875C82.6082 74.1847 82.5984 74.0833 82.5859 73.9819C82.5762 73.9055 82.5679 73.8291 82.5568 73.7527C82.5429 73.6514 82.5262 73.5514 82.5096 73.45L82.504 73.418C82.4929 73.3541 82.4832 73.2916 82.4707 73.2291C82.4457 73.0972 82.4193 72.9666 82.3887 72.8361L82.3721 72.7555C82.3359 72.6027 82.2957 72.4486 82.2498 72.2833C82.2415 72.2555 82.2332 72.2291 82.2262 72.2013L82.2123 72.1555C82.1776 72.0402 82.1429 71.925 82.104 71.8111C82.0873 71.7611 82.0707 71.7125 82.054 71.6638C81.9957 71.4958 81.9457 71.3611 81.8957 71.2375L82.0818 71.143L81.8887 71.2208C81.8359 71.0902 81.7776 70.9527 81.7095 70.8013L81.6679 70.7111C81.6054 70.5764 81.5387 70.4416 81.472 70.3111C81.3887 70.15 81.3026 69.993 81.2151 69.843C81.2137 69.8402 81.2068 69.8277 81.2054 69.825C81.1109 69.6638 81.0137 69.5083 80.904 69.3444C80.8068 69.1986 80.7165 69.068 80.6262 68.9444C80.5582 68.8514 80.579 68.7208 80.6707 68.6527C80.7623 68.5847 80.8943 68.6041 80.9623 68.6972L83.1151 71.6319C83.2082 71.7597 83.2998 71.8902 83.3873 72.0208L83.3998 72.0416C83.5179 72.2194 83.6193 72.3805 83.7137 72.5416L83.7248 72.5611C83.8193 72.7236 83.9096 72.8875 83.9957 73.0541L84.0123 73.0861C84.0776 73.2125 84.1387 73.3402 84.1984 73.4708L84.2415 73.5652C84.3137 73.7236 84.3748 73.8666 84.429 74.0014L84.4359 74.0194C84.479 74.1277 84.5207 74.2389 84.5609 74.3486C84.5693 74.3708 84.5762 74.393 84.5832 74.4152L84.5984 74.4625C84.6165 74.5139 84.6332 74.5652 84.6512 74.6152C84.6901 74.7333 84.7276 74.8527 84.7637 74.9722L84.779 75.0236C84.7873 75.0513 84.7957 75.0777 84.8026 75.1055C84.8512 75.2764 84.8929 75.4361 84.9304 75.5958L84.9484 75.6805C84.972 75.7861 84.9957 75.8916 85.0165 75.9986C85.0207 76.0166 85.0234 76.0361 85.0262 76.0555L85.0318 76.0902C85.0443 76.1597 85.0568 76.2319 85.0679 76.3027L85.0707 76.3194C85.0887 76.4236 85.1054 76.5277 85.1193 76.6333C85.1304 76.7125 85.1401 76.7916 85.1498 76.8708C85.1623 76.9763 85.1734 77.0805 85.1832 77.1875C85.1901 77.268 85.1971 77.3486 85.2026 77.4291C85.2096 77.5361 85.2165 77.643 85.2207 77.7514C85.2248 77.8319 85.2276 77.9139 85.229 77.9944C85.2318 78.1041 85.2318 78.2152 85.2318 78.3264V78.3791C85.2318 78.4416 85.2318 78.5041 85.2304 78.5666C85.2276 78.6819 85.222 78.8 85.2165 78.9166L85.2137 78.9875C85.2109 79.0402 85.2095 79.093 85.2054 79.1458C85.197 79.2763 85.1832 79.4069 85.1707 79.5375L85.1637 79.6125C85.1595 79.6527 85.1568 79.6916 85.1526 79.7319C85.129 79.9402 85.1026 80.1347 85.0721 80.3236C85.0498 80.4639 85.0248 80.6041 84.997 80.743L84.9734 80.8625C84.9512 80.9694 84.929 81.075 84.9054 81.1819L84.8804 81.2916C84.8484 81.4291 84.8151 81.5652 84.7776 81.7014L84.7596 81.768C84.729 81.8833 84.6957 81.9986 84.6609 82.1125L84.6248 82.2333C84.5915 82.3416 84.5568 82.4486 84.5207 82.5555L84.4915 82.643C84.4457 82.775 84.3984 82.9069 84.3498 83.0389L84.3137 83.1319C84.2748 83.2347 84.2332 83.3375 84.1915 83.4402L84.1443 83.5555C84.0957 83.6708 84.0471 83.7847 83.9957 83.8986L83.979 83.9361C83.9151 84.075 83.8554 84.2041 83.7929 84.3319L83.7415 84.4361C83.6929 84.5347 83.6429 84.6333 83.5915 84.7305L83.5387 84.8319C83.472 84.9569 83.404 85.0819 83.3332 85.2055L83.304 85.2569C83.2415 85.3652 83.179 85.4722 83.1137 85.5777L83.0387 85.6986C83.0012 85.7597 82.9623 85.8222 82.9234 85.8833C82.8957 85.9263 82.8693 85.9694 82.8401 86.0125C82.7998 86.075 82.7582 86.1375 82.7165 86.1986L82.6345 86.3208C82.5901 86.3861 82.5443 86.45 82.4984 86.5152L82.4207 86.625C82.3651 86.7027 82.3082 86.7791 82.2512 86.8555L82.2068 86.9152C82.0623 87.1069 81.9151 87.293 81.7679 87.4722C81.6165 87.6555 81.4609 87.8361 81.304 88.0111C81.3026 88.0125 81.2943 88.0222 81.2929 88.0236C81.1484 88.1847 80.9971 88.3472 80.8429 88.5041C80.6887 88.6625 80.5332 88.8166 80.3707 88.9708L80.3554 88.9861C80.204 89.1291 80.0498 89.2708 79.8873 89.4125L79.8443 89.45C79.6998 89.5763 79.5484 89.7041 79.3818 89.8402L79.347 89.8708C79.3457 89.8722 79.3346 89.8805 79.3332 89.8819C79.1734 90.0111 79.0123 90.1361 78.8471 90.2611L78.7832 90.3083C78.6262 90.425 78.4609 90.543 78.2929 90.6597L78.2345 90.7C78.0512 90.825 77.8721 90.943 77.6915 91.0569L77.6276 91.0972C77.4484 91.2097 77.2623 91.3208 77.0748 91.4277L77.0012 91.4708C76.9276 91.5125 76.8554 91.5527 76.7818 91.593L76.672 91.6541C76.5693 91.7097 76.4679 91.7625 76.3637 91.8152L76.3387 91.8277C76.2276 91.8847 76.1151 91.9402 76.0026 91.9944L75.8943 92.0458C75.8165 92.0819 75.7401 92.1194 75.6623 92.1541L75.5582 92.2013C75.4568 92.2472 75.354 92.2916 75.2512 92.3347L75.1359 92.3833C75.0054 92.4375 74.8734 92.4902 74.7415 92.5416C74.5998 92.5958 74.4651 92.6458 74.329 92.693L74.2123 92.7333C74.1068 92.7694 74.0012 92.8055 73.8943 92.8389L73.8012 92.8694C73.6304 92.9222 73.4693 92.9708 73.3068 93.0166L73.2082 93.0444C73.0415 93.0902 72.8748 93.1333 72.7068 93.1736L72.6873 93.1777C72.5137 93.218 72.3498 93.2541 72.1873 93.2875L72.0957 93.3055C71.9304 93.3375 71.7637 93.368 71.597 93.3944L71.4971 93.4097C71.3248 93.4361 71.1526 93.4611 70.979 93.4819L70.9623 93.4833C70.7929 93.5041 70.622 93.5194 70.4512 93.5347L70.354 93.543C70.1845 93.5555 70.0151 93.5666 69.8443 93.5736L69.7443 93.5777C69.5484 93.5694 69.379 93.5736 69.2193 93.5736ZM70.9165 93.0555L70.9582 93.2611L70.9332 93.0541C71.1012 93.0333 71.2693 93.0097 71.4373 92.9833L71.5345 92.968C71.697 92.9416 71.8582 92.9125 72.0207 92.8819L72.1096 92.8638C72.2693 92.8319 72.4276 92.7972 72.5845 92.7597L72.6026 92.7555C72.779 92.7139 72.9429 92.6708 73.104 92.6263L73.2012 92.6C73.3595 92.5555 73.5165 92.5097 73.6734 92.4597L73.772 92.4277C73.8762 92.3944 73.979 92.3597 74.0818 92.325L74.1957 92.2861C74.3276 92.2389 74.4595 92.1916 74.5915 92.1416C74.7276 92.0888 74.8554 92.0375 74.9832 91.9847L75.0957 91.9375C75.1957 91.8958 75.2957 91.8514 75.3957 91.8069L75.4971 91.7611C75.5734 91.7263 75.6484 91.6916 75.7234 91.6555L75.829 91.6055C75.9387 91.5527 76.0484 91.4986 76.1568 91.443L76.1818 91.4305C76.2818 91.3791 76.3818 91.3263 76.4818 91.2736L76.5887 91.2152C76.6595 91.1764 76.7318 91.1375 76.8026 91.0972L76.8762 91.0555C77.0582 90.9513 77.2401 90.843 77.4151 90.7333L77.4776 90.693C77.654 90.5819 77.829 90.4666 77.9984 90.3514L78.0651 90.3055C78.229 90.1916 78.3901 90.0763 78.5443 89.9625L78.6068 89.9152C78.7679 89.7944 78.9262 89.6708 79.0748 89.5514L79.1304 89.5069C79.2929 89.375 79.4401 89.25 79.5818 89.1264L79.6234 89.0902C79.7818 88.9514 79.9318 88.8139 80.0721 88.6805L80.229 88.818L80.0943 88.6583C80.2526 88.5083 80.4054 88.3569 80.5484 88.2097C80.704 88.05 80.8526 87.8916 80.9943 87.7333C80.9957 87.7319 80.9984 87.7291 81.0012 87.7264C81.0054 87.7222 81.0082 87.718 81.0123 87.7152C81.1582 87.5527 81.3095 87.3764 81.4554 87.2C81.6012 87.0222 81.7443 86.8416 81.8818 86.6597L81.9276 86.5972C81.9832 86.5222 82.0387 86.4472 82.0929 86.3722L82.1679 86.2652C82.2123 86.2027 82.2568 86.1402 82.2998 86.0763L82.3804 85.9569C82.4207 85.8972 82.4609 85.8361 82.5012 85.775C82.5276 85.7333 82.5554 85.6916 82.5818 85.65C82.6207 85.5902 82.6582 85.5305 82.6957 85.4694L82.7679 85.3527C82.8304 85.2486 82.8929 85.1444 82.9526 85.0402L82.9818 84.9902C83.0498 84.8708 83.1165 84.7486 83.1818 84.6277L83.2332 84.5291C83.2832 84.4333 83.3318 84.3388 83.379 84.2416L83.429 84.1402C83.4901 84.0166 83.5484 83.8916 83.6054 83.7652C83.6068 83.7638 83.6109 83.7527 83.6123 83.7514L83.6248 83.7208C83.6748 83.6097 83.7234 83.4986 83.7693 83.3861L83.8151 83.2736C83.8554 83.1736 83.8957 83.0736 83.9332 82.9736L83.9679 82.8833C84.0151 82.7555 84.0623 82.6277 84.1054 82.4986L84.1332 82.4139C84.1679 82.3111 84.2012 82.2069 84.2332 82.1014L84.2693 81.9833C84.3026 81.8722 84.3345 81.7611 84.3651 81.6486L84.3832 81.5833C84.4179 81.4514 84.4512 81.3194 84.4818 81.1861L84.5054 81.0805C84.529 80.9777 84.5512 80.875 84.5707 80.7722L84.5943 80.6555C84.6207 80.5208 84.6443 80.3847 84.6665 80.2486C84.6957 80.0652 84.7207 79.8777 84.7443 79.675C84.7484 79.6388 84.7512 79.6027 84.7554 79.5666L84.7623 79.4861C84.7748 79.3597 84.7873 79.2333 84.7957 79.1069C84.7984 79.0569 84.8012 79.0083 84.804 78.9583L84.8082 78.8847C84.8137 78.7708 84.8193 78.6583 84.822 78.5458C84.8234 78.4861 84.8234 78.4264 84.8234 78.368V78.3138C84.8234 78.2069 84.8234 78.0986 84.8207 77.993C84.8193 77.9138 84.8151 77.8361 84.8123 77.7583C84.8082 77.6541 84.8026 77.5514 84.7957 77.4472C84.7901 77.3694 84.7832 77.2916 84.7762 77.2139C84.7665 77.1111 84.7568 77.0097 84.7443 76.9083C84.7345 76.8319 84.7262 76.7555 84.7151 76.6791C84.7012 76.5777 84.6845 76.4777 84.6679 76.3763L84.6651 76.3597C84.654 76.2916 84.6429 76.2236 84.6304 76.1555L84.6234 76.1111C84.6207 76.0972 84.6193 76.0819 84.6165 76.068C84.5957 75.9639 84.5734 75.8625 84.5498 75.7611L84.5332 75.6805C84.4971 75.5277 84.4568 75.3736 84.4109 75.2083L84.3734 75.0805C84.3387 74.9652 84.304 74.8513 84.2651 74.7375C84.2484 74.6875 84.2318 74.6388 84.2151 74.5902L84.197 74.5361C84.1915 74.5166 84.1846 74.4986 84.1776 74.4805C84.1387 74.3736 84.0984 74.268 84.0568 74.1638L84.2429 74.0694L84.0498 74.1472C83.997 74.0166 83.9387 73.8805 83.8707 73.7277L83.829 73.6375C83.7707 73.5125 83.7123 73.3889 83.6498 73.2666L83.6332 73.2375C83.5498 73.0764 83.4637 72.918 83.3748 72.768L83.3637 72.7486C83.2707 72.5888 83.1734 72.4333 83.0637 72.2694L83.0512 72.25C82.9637 72.118 82.8762 71.993 82.7859 71.8694L82.3859 71.3236C82.4082 71.3847 82.4318 71.45 82.4554 71.5194C82.4734 71.5708 82.4901 71.6208 82.5068 71.6722C82.5457 71.7902 82.5832 71.9097 82.6193 72.0291L82.6318 72.0722C82.6401 72.1027 82.6498 72.1319 82.6582 72.1625C82.7068 72.3333 82.7484 72.493 82.7845 72.6514L82.8026 72.7361C82.8332 72.8708 82.8609 73.0069 82.8873 73.1444C82.8998 73.2097 82.9109 73.2764 82.922 73.3416L82.9276 73.3736C82.9443 73.4777 82.9623 73.5819 82.9762 73.6875C82.9873 73.7666 82.9971 73.8458 83.0068 73.925C83.0193 74.0305 83.0304 74.1361 83.0401 74.2416C83.0471 74.3222 83.054 74.4027 83.0596 74.4833C83.0665 74.5902 83.0734 74.6972 83.0776 74.8055V74.8236C83.0804 74.8986 83.0845 74.9736 83.0859 75.0486C83.0887 75.1583 83.0887 75.2694 83.0887 75.3805V75.4194C83.0887 75.4861 83.0887 75.5527 83.0873 75.6208C83.0845 75.7375 83.079 75.8541 83.0734 75.9708L83.0707 76.0416C83.0679 76.0944 83.0665 76.1472 83.0623 76.2C83.054 76.3291 83.0401 76.4611 83.0276 76.5916L83.0207 76.6625C83.0165 76.7041 83.0137 76.7444 83.0082 76.7861C82.9845 76.9888 82.9582 77.1889 82.9276 77.3777C82.9054 77.518 82.8804 77.6583 82.8526 77.7972L82.829 77.9166C82.8068 78.0236 82.7845 78.1305 82.7609 78.2361L82.7359 78.3444C82.704 78.4819 82.6693 78.6194 82.6332 78.7555L82.6151 78.8208C82.5832 78.9375 82.5512 79.0514 82.5165 79.1666L82.4804 79.2875C82.447 79.3958 82.4123 79.5027 82.3762 79.6097L82.3471 79.6958C82.3012 79.8291 82.254 79.9611 82.2054 80.0916L82.1693 80.1847C82.129 80.2889 82.0887 80.3916 82.047 80.4944L81.9998 80.6097C81.9512 80.725 81.9026 80.8402 81.8512 80.9527L81.8304 81C81.772 81.1291 81.7109 81.2583 81.6484 81.3861L81.597 81.4902C81.5484 81.5888 81.4984 81.6875 81.447 81.7847L81.3943 81.8861C81.3276 82.0111 81.2595 82.1361 81.1887 82.2597L81.1595 82.3097C81.097 82.418 81.0345 82.525 80.9693 82.6305C80.9443 82.6708 80.9207 82.7111 80.8957 82.7513C80.8582 82.8125 80.8193 82.875 80.779 82.9361C80.7512 82.9791 80.7248 83.0222 80.6957 83.0652C80.6554 83.1277 80.6137 83.1888 80.572 83.2513L80.4887 83.3736C80.4443 83.4388 80.3984 83.5027 80.354 83.5666L80.2762 83.6763C80.2207 83.7541 80.1637 83.8305 80.1068 83.9083L80.0582 83.9736C79.9179 84.1597 79.7721 84.3444 79.6221 84.5264C79.4707 84.7097 79.3165 84.8902 79.1582 85.0652C79.1568 85.0666 79.1484 85.0763 79.147 85.0763C79.0012 85.2375 78.8498 85.4 78.697 85.5583C78.5429 85.7166 78.3859 85.8708 78.2248 86.025L78.2026 86.0458C78.0582 86.1833 77.9026 86.3236 77.7415 86.4652L77.6998 86.5027C77.5526 86.6319 77.4012 86.7583 77.2359 86.893L77.1804 86.9389C77.029 87.0611 76.8679 87.1875 76.6998 87.3125L76.6359 87.3597C76.479 87.4763 76.3137 87.5944 76.1457 87.7111L76.0776 87.7583C75.9068 87.875 75.7262 87.993 75.5443 88.1083L75.4804 88.1486C75.3026 88.2597 75.1165 88.3708 74.929 88.4791L74.854 88.5222C74.7818 88.5638 74.7082 88.6041 74.6345 88.643L74.5248 88.7041C74.4221 88.7597 74.3207 88.8125 74.2165 88.8652L74.1915 88.8777C74.0804 88.9347 73.9679 88.9902 73.8554 89.0444L73.747 89.0958C73.6693 89.1319 73.5929 89.1694 73.5151 89.2041L73.4109 89.2513C73.3095 89.2972 73.2068 89.3416 73.104 89.3847L72.9887 89.4333C72.8582 89.4875 72.7262 89.5402 72.5929 89.5916C72.4512 89.6458 72.3165 89.6944 72.1804 89.743L72.0637 89.7833C71.9582 89.8194 71.8526 89.8555 71.7457 89.8889L71.6443 89.9222C71.4832 89.9722 71.322 90.0208 71.1595 90.0666L71.0609 90.0944C70.8943 90.1402 70.7276 90.1833 70.5595 90.2236L70.5415 90.2277L70.5276 90.2305C70.3651 90.2694 70.2026 90.3041 70.0387 90.3375L69.947 90.3555C69.7818 90.3875 69.6151 90.418 69.4484 90.4444L69.3484 90.4597C69.1762 90.4861 69.004 90.5111 68.8304 90.5319L68.8137 90.5333C68.6443 90.5541 68.4734 90.5694 68.3026 90.5847L68.2054 90.593C68.0359 90.6055 67.8665 90.6166 67.6971 90.6236L67.5971 90.6277C67.3957 90.6347 67.2276 90.6388 67.0665 90.6388C65.5346 90.6388 64.0665 90.3972 62.7054 89.9222C62.4859 89.8458 62.2651 89.7611 62.0512 89.6722C61.2026 89.3194 60.404 88.8694 59.679 88.3388C59.5957 88.2777 59.5137 88.2166 59.4332 88.1527L59.829 88.6916C61.9109 91.5291 65.3332 93.1569 69.2193 93.1569C69.3748 93.1569 69.5373 93.1541 69.7345 93.1458L69.8318 93.1416C69.9971 93.1347 70.1609 93.125 70.3262 93.1125L70.4207 93.1041C70.5859 93.0902 70.7512 93.075 70.9165 93.0555Z" fill="#FFECE5"/>
<path d="M111.636 105.008L113.789 107.944H82.9262L80.7734 105.008H111.636Z" fill="#F77A4A"/>
<path d="M113.789 108.153H82.9262C82.8596 108.153 82.7971 108.121 82.7582 108.068L80.6054 105.133C80.5596 105.069 80.5526 104.986 80.5873 104.915C80.6221 104.846 80.6943 104.801 80.7735 104.801H111.636C111.703 104.801 111.765 104.833 111.804 104.886L113.957 107.821C114.003 107.885 114.01 107.968 113.975 108.039C113.939 108.108 113.867 108.153 113.789 108.153ZM83.0318 107.736H113.376L111.529 105.218H81.1846L83.0318 107.736Z" fill="#FFECE5"/>
<path d="M46.8097 89.9444L48.961 92.8791H21.4194L19.2666 89.9444H46.8097Z" fill="#F77A4A"/>
<path d="M48.9624 93.0875H21.4194C21.3527 93.0875 21.2902 93.0555 21.2513 93.0028L19.0986 90.068C19.0527 90.0041 19.0458 89.9208 19.0805 89.85C19.1152 89.7805 19.1874 89.7361 19.2666 89.7361H46.8097C46.8763 89.7361 46.9388 89.768 46.9777 89.8208L49.1305 92.7555C49.1763 92.8194 49.1833 92.9028 49.1486 92.9736C49.1124 93.043 49.0402 93.0875 48.9624 93.0875ZM21.5249 92.6708H48.5513L46.7041 90.1528H19.6777L21.5249 92.6708Z" fill="#FFECE5"/>
<path d="M49.4942 73.1083L51.647 76.0431L50.1748 85.275L48.022 82.3403L49.4942 73.1083Z" fill="#FCD2C2"/>
<path d="M50.1748 85.4833C50.1095 85.4833 50.047 85.4528 50.0067 85.3986L47.854 82.4639C47.8206 82.4195 47.8081 82.3625 47.8165 82.3083L49.2887 73.0764C49.3026 72.9931 49.3637 72.9264 49.4456 72.907C49.5276 72.8875 49.6123 72.9181 49.6623 72.9861L51.8151 75.9208C51.8484 75.9653 51.8609 76.0222 51.8526 76.0764L50.3804 85.3083C50.3665 85.3917 50.3054 85.4583 50.2234 85.4778C50.2067 85.4806 50.1901 85.4833 50.1748 85.4833ZM48.2415 82.2875L50.047 84.75L51.4276 76.0972L49.622 73.6347L48.2415 82.2875Z" fill="#FFECE5"/>
<path d="M48.0221 82.3403L50.1748 85.275L48.961 92.8792L46.8096 89.9444L48.0221 82.3403Z" fill="#FA9874"/>
<path d="M48.9624 93.0875C48.8971 93.0875 48.8346 93.0569 48.7943 93.0028L46.6416 90.068C46.6082 90.0236 46.5957 89.9667 46.6041 89.9125L47.8166 82.3083C47.8305 82.225 47.8916 82.1583 47.9735 82.1389C48.0555 82.1194 48.1402 82.15 48.1902 82.218L50.343 85.1528C50.3763 85.1972 50.3888 85.2542 50.3805 85.3083L49.168 92.9125C49.1541 92.9958 49.093 93.0625 49.011 93.0819C48.9943 93.0847 48.9777 93.0875 48.9624 93.0875ZM47.0291 89.8903L48.8346 92.3528L49.9555 85.3278L48.1499 82.8653L47.0291 89.8903Z" fill="#FFECE5"/>
<path d="M108.624 45.4361C108.825 45.4361 109.025 45.4722 109.211 45.55C109.986 45.8722 110.242 46.7764 109.783 47.5694C109.436 48.1722 108.775 48.5375 108.137 48.5375C107.936 48.5375 107.736 48.5014 107.55 48.4236C106.775 48.1014 106.519 47.1972 106.976 46.4041C107.326 45.8014 107.986 45.4361 108.624 45.4361Z" fill="#FA9874"/>
<path d="M108.138 48.7444C107.903 48.7444 107.678 48.7014 107.471 48.6139C107.064 48.4444 106.762 48.1264 106.625 47.718C106.474 47.2694 106.536 46.7514 106.797 46.2986C107.174 45.6472 107.892 45.2264 108.624 45.2264C108.858 45.2264 109.083 45.2694 109.29 45.3555C109.699 45.525 109.999 45.843 110.137 46.2514C110.289 46.7 110.226 47.218 109.964 47.6708C109.587 48.3236 108.871 48.7444 108.138 48.7444ZM108.624 45.6444C108.046 45.6444 107.457 45.9917 107.157 46.5083C106.956 46.8583 106.904 47.2514 107.018 47.5861C107.117 47.8792 107.335 48.1083 107.629 48.2305C107.786 48.2958 107.957 48.3292 108.136 48.3292C108.714 48.3292 109.303 47.9819 109.601 47.4653C109.804 47.1153 109.856 46.7222 109.742 46.3875C109.643 46.0944 109.425 45.8653 109.131 45.743C108.975 45.6764 108.804 45.6444 108.624 45.6444Z" fill="#FFECE5"/>
<path d="M104.06 45.0139L105.676 51.1736L113.229 47.6264L114.694 52.5139L111.621 57.8319L93.4763 50.3014L104.06 45.0139Z" fill="#FA9874"/>
<path d="M111.621 58.0403C111.594 58.0403 111.567 58.0347 111.542 58.025L93.3972 50.4944C93.3222 50.4625 93.2722 50.3903 93.2694 50.3097C93.2666 50.2292 93.3111 50.1528 93.3847 50.1167L103.968 44.8278C104.025 44.8 104.09 44.7986 104.147 44.825C104.204 44.8514 104.247 44.9014 104.262 44.9625L105.815 50.8805L113.142 47.4389C113.197 47.4125 113.26 47.4125 113.315 47.4375C113.371 47.4625 113.412 47.5097 113.429 47.568L114.894 52.4569C114.911 52.5125 114.904 52.5708 114.875 52.6208L111.803 57.9389C111.762 58.0028 111.693 58.0403 111.621 58.0403ZM93.9777 50.2847L111.532 57.5694L114.468 52.4875L113.099 47.9167L105.765 51.3625C105.71 51.3889 105.644 51.3889 105.589 51.3625C105.533 51.3361 105.492 51.2861 105.475 51.2264L103.924 45.3139L93.9777 50.2847Z" fill="#FFECE5"/>
<path d="M116.339 32.0875C116.54 32.0875 116.74 32.1236 116.926 32.2014C117.701 32.5222 117.957 33.4264 117.498 34.2194C117.15 34.8222 116.489 35.1875 115.853 35.1875C115.651 35.1875 115.453 35.1514 115.265 35.0736C114.49 34.7514 114.235 33.8472 114.691 33.0541C115.041 32.4527 115.701 32.0875 116.339 32.0875Z" fill="#FA9874"/>
<path d="M115.853 35.3972C115.618 35.3972 115.393 35.3542 115.186 35.2667C114.779 35.0972 114.478 34.7792 114.34 34.3708C114.189 33.9222 114.251 33.4042 114.512 32.9514C114.889 32.3 115.605 31.8792 116.339 31.8792C116.573 31.8792 116.798 31.9222 117.007 32.0097C117.414 32.1778 117.715 32.4958 117.853 32.9028C118.005 33.3514 117.941 33.8694 117.679 34.325C117.303 34.9764 116.585 35.3972 115.853 35.3972ZM116.339 32.2958C115.753 32.2958 115.176 32.6347 114.873 33.1597C114.672 33.5097 114.621 33.9028 114.735 34.2375C114.833 34.5305 115.051 34.7597 115.346 34.8819C115.503 34.9472 115.672 34.9805 115.853 34.9805C116.43 34.9805 117.019 34.6333 117.318 34.1167C117.521 33.7667 117.572 33.3722 117.458 33.0375C117.36 32.7444 117.141 32.5167 116.847 32.3944C116.69 32.3292 116.519 32.2958 116.339 32.2958Z" fill="#FFECE5"/>
<path d="M111.775 31.6652L113.392 37.8263L120.944 34.2777L122.41 39.1666L119.335 44.4847L101.192 36.9527L111.775 31.6652Z" fill="#FA9874"/>
<path d="M119.335 44.693C119.308 44.693 119.28 44.6875 119.255 44.6777L101.111 37.1458C101.036 37.1139 100.986 37.0416 100.983 36.9611C100.98 36.8805 101.025 36.8041 101.099 36.768L111.682 31.4791C111.739 31.4514 111.804 31.45 111.861 31.4764C111.918 31.5027 111.961 31.5527 111.976 31.6139L113.529 37.5333L120.855 34.0916C120.911 34.0652 120.974 34.0652 121.029 34.0902C121.085 34.1152 121.126 34.1625 121.143 34.2208L122.608 39.1097C122.625 39.1652 122.618 39.2236 122.589 39.2736L119.515 44.5916C119.478 44.6555 119.407 44.693 119.335 44.693ZM101.693 36.9361L119.246 44.2222L122.183 39.1402L120.814 34.5694L113.48 38.0152C113.425 38.0416 113.36 38.0416 113.304 38.0152C113.249 37.9889 113.207 37.9389 113.19 37.8791L111.639 31.9652L101.693 36.9361Z" fill="#FFECE5"/>
<path d="M114.488 69.2375L114.761 70.95C114.926 71.9764 115.631 72.7805 116.644 73.0972L118.338 73.625L116.476 74.1528C115.363 74.4694 114.401 75.2736 113.908 76.3L113.088 78.0125L112.813 76.3C112.647 75.2736 111.943 74.4694 110.929 74.1528L109.238 73.625L111.097 73.0972C112.211 72.7805 113.172 71.9764 113.665 70.95L114.488 69.2375Z" fill="#F56630"/>
<path d="M48.9681 48.0597L49.1778 49.3722C49.3042 50.1597 49.8445 50.7764 50.6223 51.018L51.9195 51.4222L50.4931 51.8277C49.6389 52.0694 48.9014 52.6861 48.5237 53.4722L47.8945 54.7861L47.6848 53.4722C47.5584 52.6847 47.0181 52.0694 46.2403 51.8277L44.9431 51.4222L46.3695 51.018C47.2237 50.7764 47.9612 50.1583 48.339 49.3722L48.9681 48.0597Z" fill="#F56630"/>
<path d="M94.0723 109.35L94.189 110.082C94.2598 110.519 94.5612 110.864 94.9946 110.999L95.7168 111.224L94.9223 111.449C94.4459 111.585 94.0348 111.928 93.8237 112.365L93.4723 113.097L93.3557 112.365C93.2848 111.928 92.9848 111.583 92.5515 111.449L91.8279 111.224L92.6237 110.999C93.1001 110.862 93.5098 110.519 93.7209 110.082L94.0723 109.35Z" fill="#F56630"/>
<path d="M86.5486 50.2208L86.6653 50.9528C86.7361 51.3903 87.0375 51.7347 87.4709 51.8694L88.1931 52.0944L87.3986 52.3194C86.9223 52.4555 86.5111 52.7986 86.3 53.2361L85.9486 53.968L85.832 53.2361C85.7611 52.7986 85.4611 52.4542 85.0278 52.3194L84.3042 52.0944L85.1 51.8694C85.5764 51.7333 85.9861 51.3903 86.1973 50.9528L86.5486 50.2208Z" fill="#FFECE5"/>
<path d="M31.0334 94.6138L31.1501 95.3458C31.2209 95.7847 31.5223 96.1277 31.9556 96.2624L32.6779 96.4874L31.8834 96.7124C31.407 96.8486 30.9959 97.1916 30.7848 97.6305L30.4348 98.3624L30.3181 97.6305C30.2487 97.1916 29.9473 96.8486 29.514 96.7124L28.7917 96.4874L29.5862 96.2624C30.0626 96.1277 30.4737 95.7847 30.6834 95.3458L31.0334 94.6138Z" fill="#F56630"/>
</svg>
