<svg width="150" height="150" viewBox="0 0 150 150" fill="none" xmlns="http://www.w3.org/2000/svg">
<path d="M75 122.697C103.319 122.697 126.276 113.691 126.276 102.582C126.276 91.4726 103.319 82.4667 75 82.4667C46.6809 82.4667 23.7236 91.4726 23.7236 102.582C23.7236 113.691 46.6809 122.697 75 122.697Z" fill="#FFECE5"/>
<path d="M56.8486 53.8792C57.2416 51.4153 59.6333 49.4111 62.1888 49.4028L58.8916 57.9389C57.418 57.2278 56.5624 55.675 56.8486 53.8792Z" fill="#F56630"/>
<path d="M58.8902 58.2514C58.843 58.2514 58.7972 58.2417 58.7541 58.2208C57.1097 57.4264 56.2402 55.7028 56.5388 53.8306C56.9541 51.2264 59.4874 49.1 62.186 49.0917C62.186 49.0917 62.186 49.0917 62.1874 49.0917C62.2902 49.0917 62.386 49.1417 62.4444 49.2264C62.5027 49.3111 62.5152 49.4194 62.4791 49.5167L59.1819 58.0528C59.1499 58.1347 59.086 58.1986 59.0055 58.2306C58.968 58.2444 58.9291 58.2514 58.8902 58.2514ZM61.7235 49.7403C59.4985 49.9708 57.5027 51.7625 57.1583 53.9278C56.9235 55.4028 57.5347 56.7667 58.7277 57.4944L61.7235 49.7403Z" fill="#FFECE5"/>
<path d="M105.94 51.5292L107.924 46.3958H63.35L62.7375 47.9833C64.7861 48.0819 66.4111 49.1736 67.1847 50.7708C67.4403 50.7056 67.7014 50.6708 67.9556 50.6708C68.6778 50.6708 69.2639 50.9486 69.6 51.4472C69.9389 51.9528 69.9778 52.6472 69.7042 53.3458C69.1722 54.7167 67.6361 55.7903 66.2084 55.7903C65.4861 55.7903 64.9028 55.5167 64.5681 55.0139C64.225 54.5097 64.1875 53.8167 64.4597 53.1153C64.7139 52.4667 65.1903 51.8861 65.7736 51.4528C65.1417 50.2194 63.8334 49.4042 62.1889 49.4042L58.8917 57.9389L58.3417 59.3611L57.6347 61.1972C59.6792 61.2917 61.3028 62.375 62.0847 63.9625C62.3292 63.9056 62.5778 63.8736 62.8195 63.8736C63.5417 63.8736 64.125 64.1472 64.4625 64.65C64.8028 65.1556 64.8403 65.8472 64.5695 66.5486C64.0361 67.9194 62.5014 68.9917 61.0736 68.9917C60.3514 68.9917 59.7653 68.7181 59.4306 68.2181C59.0903 67.7125 59.05 67.0181 59.3236 66.3167C59.5792 65.6583 60.0681 65.0681 60.6653 64.6319C60.3459 64.025 59.8611 63.5208 59.2528 63.1708C58.6792 62.8417 57.9986 62.6444 57.2375 62.6208C57.1958 62.6194 57.1542 62.6194 57.1111 62.6194H57.0834L53.7875 71.1486L53.2375 72.5708L52.5278 74.4111C54.5764 74.5014 56.2056 75.5806 56.9889 77.1708C57.2375 77.1097 57.4889 77.0764 57.7389 77.0764C58.4611 77.0764 59.0431 77.3528 59.3792 77.8528C59.7195 78.3583 59.7611 79.05 59.4875 79.7514C58.9542 81.1222 57.4181 82.1958 55.9889 82.1958C55.2667 82.1958 54.6847 81.9194 54.3486 81.4194C54.0084 80.9139 53.9681 80.2194 54.2417 79.5208C54.4959 78.8667 54.9778 78.2806 55.5695 77.8472C54.9306 76.6333 53.6334 75.8347 51.9722 75.8361L48.5195 84.7764L48.132 85.7792V85.7806L47.4195 87.6236C49.4639 87.7097 51.0931 88.7792 51.8834 90.3569C52.1153 90.3042 52.35 90.2764 52.5806 90.2764C53.3028 90.2764 53.8861 90.5528 54.2236 91.0528C54.5639 91.5583 54.6014 92.25 54.3278 92.9542C53.7959 94.3236 52.2597 95.3972 50.8334 95.3972C50.1111 95.3972 49.5278 95.1208 49.1903 94.6208C48.85 94.1153 48.8125 93.4236 49.0833 92.7194C49.3458 92.0514 49.8458 91.4528 50.4542 91.0153C49.8083 89.8278 48.5222 89.0472 46.8681 89.05L43.5597 97.6125L43.0278 98.9889L40.1208 106.513H84.6945L89.9 93.0375H62.1945L78.3556 51.5306H105.94V51.5292ZM76.0292 102.279H53.8986L54.45 100.851H76.582L76.0292 102.279ZM78.3639 96.2403L77.8097 97.6681H55.6806L56.2306 96.2403H78.3639Z" fill="#FFECE5" stroke="#FFECE5" stroke-width="4.5" stroke-miterlimit="10" stroke-linecap="round" stroke-linejoin="round"/>
<path d="M66.8166 53.8792C67.2707 53.8792 67.6749 53.4889 67.6805 53.0569C67.6874 52.6069 67.6388 52.1722 67.5388 51.7597C67.6221 51.7486 67.7041 51.7417 67.7846 51.7417C68.1638 51.7417 68.4624 51.875 68.6263 52.1153C68.7971 52.3708 68.8096 52.7236 68.6569 53.1125C68.318 53.9819 67.2749 54.7181 66.3791 54.7181C66.0013 54.7181 65.7027 54.5847 65.5388 54.3417C65.3666 54.0861 65.3569 53.7333 65.5069 53.3444C65.6305 53.0264 65.8485 52.7278 66.118 52.475C66.1638 52.725 66.186 52.9847 66.1819 53.2528C66.1777 53.6111 66.4444 53.8792 66.8166 53.8792Z" fill="#FFECE5"/>
<path d="M66.3791 55.0319C65.893 55.0319 65.5027 54.85 65.2805 54.5181C65.0514 54.1778 65.0277 53.7208 65.2166 53.2333C65.3527 52.8819 65.5916 52.5417 65.9069 52.2486C65.9902 52.1708 66.1097 52.1444 66.218 52.1806C66.3264 52.2167 66.4069 52.3083 66.4277 52.4208C66.4777 52.6931 66.5014 52.975 66.4972 53.2597C66.4958 53.3472 66.5236 53.4236 66.5777 53.4778C66.6361 53.5361 66.7194 53.5681 66.818 53.5681C67.0986 53.5681 67.3666 53.3181 67.3694 53.0542C67.375 52.6361 67.3305 52.2264 67.2361 51.8347C67.2152 51.7486 67.2319 51.6583 67.2819 51.5861C67.3319 51.5139 67.4097 51.4653 67.4972 51.4528C67.5944 51.4389 67.693 51.4319 67.7861 51.4319C68.2722 51.4319 68.6625 51.6139 68.8861 51.9431C69.1166 52.2889 69.1389 52.7444 68.9486 53.2292C68.5611 54.2236 67.4097 55.0319 66.3791 55.0319ZM65.8722 53.2986C65.8444 53.3514 65.8208 53.4056 65.8 53.4597C65.6875 53.75 65.6875 54.0028 65.8 54.1694C65.9027 54.3236 66.1097 54.4083 66.3805 54.4083C67.1472 54.4083 68.0764 53.7514 68.368 53.0028C68.4819 52.7125 68.4819 52.4611 68.368 52.2917C68.2833 52.1667 68.1264 52.0875 67.9208 52.0639C67.975 52.3903 68 52.725 67.9944 53.0625C67.9861 53.6639 67.4375 54.1931 66.818 54.1931C66.5514 54.1931 66.3083 54.0944 66.1333 53.9167C65.9708 53.7528 65.8791 53.5361 65.8722 53.2986Z" fill="#FFECE5"/>
<path d="M66.2083 56.1028C65.3778 56.1028 64.7028 55.7778 64.307 55.1889C63.9083 54.6 63.8583 53.8028 64.1681 53.0028C64.4333 52.3236 64.9375 51.6847 65.5861 51.2028C65.6403 51.1625 65.7056 51.1417 65.7722 51.1417C65.7958 51.1417 65.8195 51.1444 65.8431 51.15C65.932 51.1708 66.0083 51.2306 66.05 51.3125C66.2278 51.6597 66.3542 52.0333 66.425 52.4236C66.4445 52.5278 66.4083 52.6361 66.3306 52.7083C66.0833 52.9389 65.9 53.2 65.7972 53.4625C65.6847 53.7528 65.6847 54.0056 65.7972 54.1722C65.9014 54.3264 66.107 54.4111 66.3778 54.4111C67.1445 54.4111 68.0736 53.7542 68.3653 53.0056C68.4792 52.7153 68.4792 52.4639 68.3653 52.2944C68.2625 52.1431 68.0556 52.0583 67.7833 52.0583C67.7181 52.0583 67.65 52.0639 67.5806 52.0736C67.5653 52.075 67.5514 52.0764 67.5375 52.0764C67.3944 52.0764 67.2681 51.9792 67.2333 51.8375C67.1556 51.5153 67.0445 51.2042 66.9028 50.9111C66.8611 50.8264 66.8611 50.7278 66.9014 50.6431C66.9417 50.5583 67.0167 50.4944 67.1083 50.4722C67.3944 50.4 67.6792 50.3639 67.9556 50.3639C68.7847 50.3639 69.4611 50.6889 69.8583 51.2778C70.257 51.8722 70.3056 52.6694 69.9958 53.4653C69.4194 54.9417 67.7556 56.1028 66.2083 56.1028Z" fill="#F56630"/>
<path d="M67.9569 50.6708C68.6791 50.6708 69.2639 50.9472 69.6 51.4472C69.9389 51.9528 69.9791 52.6458 69.7055 53.3458C69.1722 54.7167 67.6361 55.7889 66.2097 55.7889C65.4875 55.7889 64.9041 55.5139 64.568 55.0125C64.2264 54.5083 64.1889 53.8153 64.4611 53.1139C64.7139 52.4653 65.1902 51.8847 65.7736 51.4514C65.9361 51.7681 66.0527 52.1111 66.1194 52.4764C65.8486 52.7292 65.6319 53.0278 65.5083 53.3458C65.3583 53.7347 65.368 54.0875 65.5402 54.3431C65.7027 54.5861 66.0014 54.7194 66.3791 54.7194C67.275 54.7194 68.3194 53.9833 68.6569 53.1139C68.8083 52.725 68.7972 52.3722 68.6263 52.1167C68.4625 51.8764 68.1652 51.7431 67.7847 51.7431C67.7041 51.7431 67.6222 51.7486 67.5389 51.7611C67.4555 51.4139 67.3361 51.0833 67.1847 50.7708C67.4416 50.7056 67.7014 50.6708 67.9569 50.6708ZM67.9569 50.0458C67.6555 50.0458 67.3458 50.0861 67.0347 50.1639C66.8527 50.2097 66.7 50.3347 66.6208 50.5056C66.5416 50.6764 66.543 50.8736 66.625 51.0431C66.7569 51.3167 66.8611 51.6069 66.9333 51.9069C67.0014 52.1917 67.2555 52.3861 67.5402 52.3861C67.5694 52.3861 67.5986 52.3847 67.6277 52.3806C67.6819 52.3722 67.7361 52.3694 67.7875 52.3694C67.9458 52.3694 68.0694 52.4083 68.1111 52.4694C68.15 52.5278 68.1625 52.6708 68.0777 52.8889C67.8319 53.5208 67.0236 54.0958 66.3819 54.0958C66.225 54.0958 66.1027 54.0583 66.0611 53.9972C66.0222 53.9389 66.0069 53.7944 66.093 53.5736C66.1777 53.3556 66.3361 53.1347 66.5486 52.9361C66.7041 52.7903 66.775 52.5764 66.7361 52.3667C66.6583 51.9458 66.5222 51.5444 66.3305 51.1694C66.2472 51.0056 66.0958 50.8875 65.9166 50.8458C65.8694 50.8347 65.8222 50.8292 65.775 50.8292C65.6416 50.8292 65.5111 50.8722 65.4027 50.9528C64.7069 51.4694 64.1666 52.1569 63.8805 52.8903C63.5319 53.7889 63.5958 54.6917 64.0514 55.3667C64.5055 56.0444 65.2736 56.4181 66.2111 56.4181C67.9055 56.4181 69.6597 55.1958 70.2902 53.5764C70.6389 52.6847 70.5777 51.7819 70.1222 51.1028C69.6611 50.4194 68.893 50.0458 67.9569 50.0458Z" fill="#FFECE5"/>
<path d="M53.3708 20.5056L63.3514 46.3958L62.7375 47.9833C62.6361 47.9792 62.5319 47.9764 62.4292 47.9764C59.0528 47.9764 55.8875 50.6222 55.368 53.8792C54.9722 56.3625 56.2264 58.4889 58.3417 59.3597L57.6319 61.1944C57.5347 61.1903 57.4375 61.1875 57.3389 61.1875C53.9625 61.1875 50.7958 63.8347 50.2778 67.0903C49.8819 69.5694 51.1305 71.693 53.2389 72.5667L52.5278 74.4069C52.4361 74.4042 52.343 74.4 52.2486 74.4C48.8722 74.4 45.7042 77.0472 45.1847 80.3042C44.7903 82.7764 46.0347 84.8972 48.1347 85.7736L47.4222 87.618C47.3069 87.6139 47.2361 87.6125 47.1667 87.6125C43.9833 87.6125 40.8875 90.0167 40.1764 93.1014C39.5667 95.7417 40.8236 98.0514 43.0319 98.9819L40.125 106.507L30.0555 80.65L53.3708 20.5056Z" fill="#F56630"/>
<path d="M40.1222 106.824C39.993 106.824 39.8777 106.744 39.8305 106.625L29.7611 80.7681C29.7333 80.6958 29.7333 80.6139 29.7611 80.5417L53.0791 20.3931C53.1263 20.2722 53.2347 20.1917 53.3708 20.1931C53.5 20.1931 53.6152 20.2722 53.6625 20.3931L63.643 46.2833C63.6708 46.3556 63.6708 46.4361 63.643 46.5083L63.0291 48.0958C62.9805 48.2208 62.8569 48.3014 62.7222 48.2958C62.6263 48.2917 62.5263 48.2903 62.4291 48.2903C59.2013 48.2903 56.1722 50.8194 55.6763 53.9292C55.3125 56.2069 56.4055 58.2264 58.4597 59.0722C58.6166 59.1375 58.693 59.3153 58.6319 59.4736L57.9222 61.3083C57.8736 61.4347 57.75 61.5139 57.6152 61.5083C57.5236 61.5042 57.4305 61.5028 57.3375 61.5028C54.1097 61.5028 51.0805 64.032 50.5847 67.1417C50.2222 69.4139 51.3097 71.4319 53.3569 72.2806C53.5138 72.3458 53.5902 72.5236 53.5291 72.6819L52.818 74.5222C52.7694 74.6458 52.6472 74.725 52.5152 74.7222C52.4222 74.7194 52.3361 74.7167 52.2472 74.7167C49.018 74.7167 45.9888 77.2472 45.4916 80.3583C45.1305 82.625 46.2138 84.6389 48.2527 85.4903C48.4083 85.5556 48.4847 85.7333 48.4236 85.8917L47.7111 87.7361C47.6625 87.8597 47.5375 87.9389 47.4083 87.9361C47.2986 87.932 47.2305 87.9306 47.1638 87.9306C44.093 87.9306 41.1569 90.2347 40.4777 93.1764C39.925 95.5736 40.9986 97.7931 43.15 98.7C43.3055 98.7653 43.3805 98.9431 43.3194 99.1L40.4125 106.625C40.368 106.743 40.2513 106.824 40.1222 106.824ZM30.3888 80.6542L40.1208 105.647L42.6319 99.15C40.3763 98.0528 39.2708 95.6347 39.8708 93.0361C40.6125 89.8222 43.8166 87.3056 47.1666 87.3056C47.1805 87.3056 47.1958 87.3056 47.2097 87.3056L47.7361 85.9417C45.6013 84.9125 44.4847 82.7153 44.8763 80.2583C45.418 76.8569 48.7263 74.0903 52.2486 74.0903C52.2708 74.0903 52.293 74.0903 52.3152 74.0903L52.8402 72.7333C50.6986 71.7069 49.5763 69.5069 49.9694 67.0431C50.5111 63.6431 53.818 60.8764 57.3402 60.8764C57.368 60.8764 57.3944 60.8764 57.4222 60.8764L57.9444 59.525C55.793 58.5014 54.6666 56.3 55.0611 53.8292C55.6027 50.4292 58.9097 47.6639 62.4305 47.6639C62.4625 47.6639 62.4944 47.6639 62.5263 47.6639L63.0166 46.3944L53.3708 21.3708L30.3888 80.6542Z" fill="#FFECE5"/>
<path d="M57.0834 62.6181L53.7875 71.1472C52.3195 70.4319 51.4709 68.8847 51.757 67.0917C52.1472 64.6417 54.5153 62.6458 57.0834 62.6181Z" fill="#F56630"/>
<path d="M53.7875 71.4597C53.7402 71.4597 53.6944 71.4486 53.65 71.4278C52.0139 70.6306 51.15 68.9097 51.4472 67.0417C51.8583 64.4583 54.3847 62.3347 57.0777 62.3056C57.0791 62.3056 57.0805 62.3056 57.0805 62.3056C57.1833 62.3056 57.2791 62.3556 57.3375 62.4403C57.3972 62.525 57.4097 62.6347 57.3722 62.7306L54.0764 71.2597C54.0444 71.3417 53.9805 71.4056 53.8986 71.4375C53.8652 71.4528 53.8264 71.4597 53.7875 71.4597ZM56.6166 62.9597C54.3972 63.2056 52.4069 64.9958 52.0666 67.1403C51.8319 68.6111 52.4389 69.9722 53.6264 70.7014L56.6166 62.9597Z" fill="#FFECE5"/>
<path d="M61.7264 67.0931C62.1792 67.0931 62.5848 66.7042 62.5903 66.2708C62.5973 65.8139 62.5459 65.3736 62.4445 64.9556C62.5139 64.9472 62.582 64.9431 62.6487 64.9431C63.0264 64.9431 63.3251 65.0764 63.4889 65.3194C63.6612 65.575 63.6723 65.9278 63.5209 66.3167C63.182 67.1861 62.139 67.9194 61.2431 67.9194C60.864 67.9194 60.5653 67.7861 60.4015 67.5444C60.2306 67.2889 60.2181 66.9361 60.3709 66.5472C60.5001 66.2153 60.732 65.9028 61.0195 65.6431C61.0709 65.9083 61.0973 66.1833 61.0931 66.4681C61.0876 66.8236 61.3528 67.0931 61.7264 67.0931Z" fill="#FFECE5"/>
<path d="M61.2431 68.2319C60.7569 68.2319 60.3667 68.05 60.1431 67.7208C59.9125 67.3764 59.8903 66.9194 60.0806 66.4347C60.2236 66.0694 60.475 65.7153 60.8111 65.4125C60.8944 65.3375 61.0125 65.3125 61.1194 65.3472C61.2264 65.3833 61.3056 65.4736 61.3278 65.5833C61.3847 65.8722 61.4111 66.1708 61.4069 66.4736C61.4056 66.5611 61.4333 66.6361 61.4875 66.6903C61.5458 66.7486 61.6292 66.7806 61.7278 66.7806C62.0083 66.7806 62.2764 66.5306 62.2792 66.2667C62.2847 65.8431 62.2389 65.4278 62.1417 65.0306C62.1208 64.9431 62.1375 64.8514 62.1889 64.7778C62.2403 64.7042 62.3194 64.6556 62.4083 64.6458C62.4889 64.6361 62.5708 64.6319 62.65 64.6319C63.1361 64.6319 63.5264 64.8153 63.7486 65.1458C63.9778 65.4861 64.0014 65.9431 63.8125 66.4306C63.425 67.4236 62.2722 68.2319 61.2431 68.2319ZM60.7806 66.4167C60.7333 66.4972 60.6931 66.5792 60.6611 66.6611C60.5472 66.9514 60.5472 67.2028 60.6611 67.3708C60.7639 67.5222 60.9708 67.6069 61.2431 67.6069C62.0097 67.6069 62.9389 66.9514 63.2306 66.2028C63.3431 65.9125 63.3431 65.6597 63.2306 65.4931C63.1514 65.375 63.0111 65.2972 62.8292 65.2681C62.8847 65.5958 62.9097 65.9333 62.9042 66.2736C62.8958 66.8764 62.3458 67.4042 61.7278 67.4042C61.4611 67.4042 61.2181 67.3056 61.0417 67.1278C60.8708 66.9542 60.7778 66.7181 60.7806 66.4639C60.7806 66.4486 60.7806 66.4333 60.7806 66.4167Z" fill="#FFECE5"/>
<path d="M46.6653 80.3069C47.0569 77.8514 49.4347 75.8556 51.9764 75.8319L48.5222 84.7722L48.6833 84.3542C47.225 83.6375 46.3806 82.0917 46.6653 80.3069Z" fill="#F56630"/>
<path d="M48.5222 85.0847C48.4847 85.0847 48.4472 85.0778 48.4097 85.0639C48.2486 85.0014 48.168 84.8208 48.2305 84.6597L48.293 84.4986C46.8319 83.6514 46.0763 82.018 46.3569 80.2569C46.7694 77.668 49.2902 75.5431 51.9736 75.5194C51.975 75.5194 51.975 75.5194 51.9763 75.5194C52.0791 75.5194 52.175 75.5694 52.2333 75.6542C52.2916 75.7389 52.3055 75.8486 52.268 75.9444L48.8138 84.8847C48.7652 85.0097 48.6472 85.0847 48.5222 85.0847ZM46.9736 80.3556C46.7402 81.8194 47.343 83.1764 48.5208 83.9069L51.5097 76.1722C49.3 76.4167 47.3166 78.2069 46.9736 80.3556Z" fill="#FFECE5"/>
<path d="M56.6347 80.3069C57.0875 80.3069 57.493 79.9167 57.4986 79.4833C57.5055 79.0236 57.4528 78.5792 57.35 78.1597C57.4236 78.15 57.4972 78.1458 57.5694 78.1458C57.9486 78.1458 58.2458 78.2792 58.4097 78.5222C58.5819 78.7778 58.5917 79.1305 58.4417 79.5194C58.1028 80.3889 57.0597 81.1222 56.1639 81.1222C55.7861 81.1222 55.4875 80.9889 55.3236 80.7472C55.1514 80.4917 55.1389 80.1361 55.2917 79.75C55.4194 79.4236 55.6458 79.1153 55.9278 78.8583C55.9792 79.1236 56.0042 79.3986 56 79.6833C55.9944 80.0389 56.2625 80.3069 56.6347 80.3069Z" fill="#FFECE5"/>
<path d="M56.1639 81.4333C55.6792 81.4333 55.2889 81.2514 55.0653 80.9208C54.8333 80.5778 54.8097 80.1208 55 79.6347C55.1403 79.275 55.3889 78.925 55.7167 78.625C55.8 78.5486 55.9181 78.5236 56.025 78.5583C56.132 78.5931 56.2125 78.6847 56.2333 78.7944C56.2903 79.0819 56.3167 79.3805 56.3125 79.6833C56.3111 79.7708 56.3389 79.8458 56.3931 79.9014C56.4514 79.9611 56.5347 79.9917 56.6347 79.9917C56.9153 79.9917 57.1833 79.7403 57.1861 79.475C57.1917 79.0486 57.1445 78.6306 57.0458 78.2306C57.025 78.1444 57.0417 78.0528 57.0917 77.9792C57.1417 77.9056 57.2222 77.8569 57.3097 77.8458C57.3958 77.8347 57.4833 77.8292 57.5681 77.8292C58.0542 77.8292 58.4445 78.0111 58.6667 78.3431C58.8972 78.6833 58.9194 79.1403 58.7306 79.6278C58.3458 80.625 57.1931 81.4333 56.1639 81.4333ZM55.6889 79.6417C55.6472 79.7153 55.6125 79.7889 55.5833 79.8625C55.4695 80.1514 55.4708 80.4042 55.5833 80.5722C55.6861 80.725 55.8931 80.8097 56.1639 80.8097C56.9306 80.8097 57.8597 80.1542 58.1514 79.4055C58.2639 79.1153 58.2639 78.8625 58.1514 78.6958C58.0708 78.575 57.925 78.4972 57.7347 78.4694C57.7917 78.8028 57.8181 79.1431 57.8125 79.4875C57.8042 80.0903 57.2542 80.6194 56.6361 80.6194C56.3695 80.6194 56.125 80.5208 55.9486 80.343C55.7764 80.1694 55.6847 79.9319 55.6875 79.6778C55.6875 79.6653 55.6875 79.6528 55.6889 79.6417Z" fill="#FFECE5"/>
<path d="M55.993 82.5056C55.1638 82.5056 54.4888 82.1806 54.0916 81.5917C53.693 80.9986 53.6416 80.2014 53.9527 79.4042C54.2194 78.7194 54.7277 78.075 55.386 77.5917C55.4402 77.5514 55.5055 77.5306 55.5708 77.5306C55.5944 77.5306 55.618 77.5333 55.6402 77.5389C55.7291 77.5597 55.8041 77.6167 55.8471 77.6986C56.0277 78.0417 56.1569 78.4111 56.2333 78.7972C56.2541 78.9042 56.218 79.0139 56.1374 79.0875C55.8791 79.3236 55.6874 79.5903 55.5819 79.8625C55.468 80.1514 55.468 80.4042 55.5819 80.5722C55.6846 80.725 55.8916 80.8083 56.1624 80.8083C56.9291 80.8083 57.8583 80.1528 58.1499 79.4042C58.2624 79.1139 58.2624 78.8611 58.1499 78.6944C58.0471 78.5403 57.8402 78.4556 57.5694 78.4556C57.511 78.4556 57.4513 78.4597 57.3888 78.4667C57.3763 78.4681 57.3624 78.4694 57.3499 78.4694C57.2083 78.4694 57.0819 78.3722 57.0471 78.2319C56.968 77.9097 56.8541 77.5986 56.7096 77.3056C56.668 77.2208 56.6666 77.1208 56.7069 77.0347C56.7471 76.9486 56.8235 76.8861 56.9152 76.8625C57.193 76.7944 57.4708 76.7597 57.7402 76.7597C58.5708 76.7597 59.2458 77.0847 59.6416 77.6736C60.0402 78.2653 60.0916 79.0625 59.7805 79.8597C59.2041 81.3444 57.5402 82.5056 55.993 82.5056Z" fill="#F56630"/>
<path d="M57.7402 77.075C58.4625 77.075 59.0458 77.35 59.3819 77.8514C59.7222 78.3569 59.7625 79.0486 59.4889 79.75C58.9555 81.1208 57.4194 82.193 55.993 82.193C55.2708 82.193 54.6875 81.9167 54.3514 81.4167C54.0111 80.9111 53.9708 80.2181 54.2444 79.5181C54.4986 78.8639 54.9819 78.2778 55.5722 77.843C55.7361 78.1555 55.8569 78.4958 55.9277 78.8569C55.6458 79.1139 55.4194 79.4222 55.2916 79.7486C55.1402 80.1361 55.1514 80.4903 55.3236 80.7458C55.4861 80.9875 55.7847 81.1208 56.1639 81.1208C57.0597 81.1208 58.1027 80.3861 58.4416 79.5181C58.5916 79.1292 58.5819 78.7764 58.4097 78.5208C58.2472 78.2778 57.95 78.1444 57.5708 78.1444C57.4986 78.1444 57.425 78.1486 57.3514 78.1583C57.2652 77.8111 57.1444 77.4806 56.9902 77.1681C57.2389 77.1069 57.4916 77.075 57.7402 77.075ZM57.7402 76.45C57.4458 76.45 57.1444 76.4875 56.8402 76.5611C56.6555 76.6056 56.5027 76.7319 56.4222 76.9042C56.3416 77.0764 56.3444 77.275 56.4277 77.4444C56.5625 77.718 56.668 78.0083 56.7416 78.3083C56.8111 78.5903 57.0639 78.7833 57.3472 78.7833C57.3736 78.7833 57.4 78.7819 57.4264 78.7778C57.475 78.7722 57.5222 78.7681 57.5666 78.7681C57.7236 78.7681 57.8458 78.8056 57.8875 78.8667C57.9264 78.925 57.9416 79.0694 57.8555 79.2903C57.6111 79.9194 56.8027 80.4944 56.1611 80.4944C56.0069 80.4944 55.8805 80.4556 55.8389 80.3944C55.8 80.3375 55.7847 80.1931 55.8708 79.975C55.9583 79.75 56.1277 79.5167 56.3458 79.3167C56.5069 79.1694 56.5791 78.9486 56.5375 78.7347C56.4555 78.3181 56.3166 77.9194 56.1222 77.55C56.0375 77.3889 55.8861 77.2722 55.7097 77.2319C55.6639 77.2208 55.6166 77.2167 55.5694 77.2167C55.4375 77.2167 55.3069 77.2583 55.1986 77.3389C54.493 77.8583 53.9458 78.5514 53.6583 79.2903C53.3097 80.1833 53.3722 81.0861 53.8291 81.7653C54.2861 82.4431 55.0541 82.8167 55.9902 82.8167C57.6847 82.8167 59.4389 81.5944 60.0694 79.975C60.418 79.0806 60.3555 78.1792 59.8986 77.5C59.4458 76.8236 58.6777 76.45 57.7402 76.45Z" fill="#FFECE5"/>
<path d="M107.925 46.3958L110.978 50.5583L108.994 55.6917L105.942 51.5292L107.925 46.3958Z" fill="#FA9874"/>
<path d="M108.994 56.0042C108.896 56.0042 108.801 55.9569 108.743 55.8764L105.69 51.7139C105.628 51.6278 105.613 51.5153 105.651 51.4167L107.635 46.2833C107.676 46.1764 107.772 46.1014 107.885 46.0861C107.999 46.0708 108.11 46.1194 108.178 46.2111L111.231 50.3736C111.293 50.4597 111.308 50.5722 111.269 50.6708L109.286 55.8042C109.244 55.9111 109.149 55.9861 109.036 56.0014C109.021 56.0028 109.007 56.0042 108.994 56.0042ZM106.294 51.4819L108.908 55.0458L110.624 50.6042L108.01 47.0403L106.294 51.4819Z" fill="#FFECE5"/>
<path d="M41.575 93.5194C41.9653 91.0694 44.3333 89.0764 46.8708 89.0472L43.5625 97.6097L43.5805 97.5625C42.1291 96.8417 41.2903 95.3014 41.575 93.5194Z" fill="#F56630"/>
<path d="M43.5625 97.9222C43.525 97.9222 43.4875 97.9153 43.45 97.9014C43.3792 97.8736 43.325 97.8236 43.2903 97.7625C41.7722 96.9306 40.9806 95.2653 41.2667 93.4708C41.6778 90.8903 44.1903 88.7653 46.8681 88.7347C46.9708 88.7319 47.0695 88.7833 47.1292 88.8694C47.1889 88.9542 47.2014 89.0639 47.1639 89.1597L43.8556 97.7222C43.8056 97.8458 43.6875 97.9222 43.5625 97.9222ZM41.8833 93.5681C41.6472 95.05 42.2306 96.3778 43.4181 97.1139L46.4042 89.3875C44.2 89.6375 42.225 91.4264 41.8833 93.5681Z" fill="#FFECE5"/>
<path d="M51.5443 93.5194C51.9971 93.5194 52.4012 93.1306 52.4082 92.6972C52.4151 92.2292 52.361 91.7792 52.2554 91.3528C52.3082 91.3486 52.3596 91.3458 52.411 91.3458C52.7901 91.3458 53.0887 91.4792 53.2526 91.7222C53.4235 91.9764 53.436 92.3306 53.2832 92.7181C52.9443 93.5889 51.9026 94.3236 51.0068 94.3236C50.6276 94.3236 50.329 94.1903 50.1651 93.9472C49.9943 93.6931 49.9818 93.3389 50.1346 92.9514C50.2707 92.6028 50.5179 92.2764 50.8248 92.0097C50.8846 92.2931 50.9151 92.5903 50.9096 92.8958C50.904 93.2514 51.1707 93.5194 51.5443 93.5194Z" fill="#FFECE5"/>
<path d="M51.0068 94.6347C50.5193 94.6347 50.1291 94.4514 49.9068 94.1208C49.6763 93.7792 49.6541 93.3222 49.8443 92.8361C49.993 92.4528 50.261 92.0847 50.6193 91.7736C50.7027 91.7014 50.8193 91.6778 50.9235 91.7125C51.0291 91.7472 51.1068 91.8361 51.1305 91.9444C51.1957 92.2542 51.2277 92.5764 51.2221 92.9C51.2207 92.9861 51.2485 93.0611 51.3027 93.1153C51.361 93.175 51.4443 93.2056 51.5443 93.2056C51.8235 93.2056 52.0916 92.9556 52.0957 92.6903C52.1013 92.2583 52.0541 91.8333 51.9513 91.4278C51.9291 91.3389 51.9471 91.2458 51.9999 91.1708C52.0527 91.0958 52.136 91.0486 52.2263 91.0403C52.2874 91.0347 52.3499 91.0319 52.411 91.0319C52.8985 91.0319 53.2888 91.2153 53.511 91.5458C53.7416 91.8875 53.7638 92.3444 53.5735 92.8306C53.1874 93.8264 52.036 94.6347 51.0068 94.6347ZM50.5957 92.7375C50.5249 92.8458 50.468 92.9556 50.4249 93.0639C50.311 93.3542 50.311 93.6056 50.4235 93.7722C50.5263 93.9264 50.7332 94.0097 51.0055 94.0097C51.2749 94.0097 51.5638 93.9292 51.8374 93.7917C51.743 93.8181 51.643 93.8319 51.543 93.8319C51.2763 93.8319 51.0318 93.7333 50.8555 93.5556C50.6846 93.3819 50.5916 93.1458 50.5943 92.8917C50.5971 92.8403 50.5971 92.7889 50.5957 92.7375ZM52.643 91.6819C52.6999 92.0153 52.7249 92.3556 52.7207 92.7014C52.7166 92.9125 52.6471 93.1153 52.5318 93.2875C52.7346 93.0819 52.8971 92.8486 52.9916 92.6042C53.1055 92.3139 53.1055 92.0639 52.993 91.8958C52.9221 91.7903 52.8013 91.7167 52.643 91.6819Z" fill="#FFECE5"/>
<path d="M50.8361 95.7069C50.0055 95.7069 49.3305 95.3819 48.9333 94.7931C48.5347 94.2014 48.4847 93.4028 48.7958 92.6042C49.0694 91.9028 49.5944 91.2472 50.275 90.7583C50.3291 90.7194 50.3916 90.7 50.4569 90.7C50.4805 90.7 50.5041 90.7028 50.5263 90.7083C50.6138 90.7278 50.6888 90.7847 50.7305 90.8639C50.9138 91.2 51.0472 91.5639 51.1291 91.9444C51.1527 92.0556 51.1138 92.1708 51.0291 92.2458C50.7513 92.4875 50.5375 92.7778 50.425 93.0639C50.3111 93.3542 50.3111 93.6042 50.4236 93.7722C50.5263 93.9264 50.7333 94.0097 51.0055 94.0097C51.7722 94.0097 52.7 93.3528 52.9902 92.6042C53.1041 92.3139 53.1041 92.0639 52.9916 91.8958C52.8888 91.7417 52.6819 91.6583 52.4097 91.6583C52.368 91.6583 52.325 91.6611 52.2819 91.6639C52.2722 91.6653 52.2638 91.6653 52.2541 91.6653C52.1125 91.6653 51.9861 91.5694 51.9513 91.4292C51.8694 91.1042 51.7541 90.7903 51.6055 90.4958C51.5625 90.4097 51.5611 90.3097 51.6027 90.2222C51.643 90.1361 51.7222 90.0722 51.8152 90.0514C52.0736 89.9917 52.3319 89.9625 52.5805 89.9625C53.4111 89.9625 54.0861 90.2875 54.4833 90.8764C54.8819 91.4681 54.9319 92.2667 54.6208 93.0653C54.0444 94.5458 52.3819 95.7069 50.8361 95.7069Z" fill="#F56630"/>
<path d="M52.582 90.2736C53.3042 90.2736 53.8889 90.55 54.225 91.05C54.5653 91.5556 54.6042 92.2486 54.3306 92.95C53.7972 94.3208 52.2611 95.3931 50.8361 95.3931C50.1125 95.3931 49.5292 95.1167 49.1931 94.6167C48.8528 94.1111 48.8139 93.4181 49.0875 92.7167C49.3486 92.0472 49.8486 91.4486 50.4583 91.0111C50.625 91.3181 50.75 91.6528 50.825 92.0083C50.5195 92.275 50.2708 92.6014 50.1347 92.95C49.9833 93.3375 49.9945 93.6917 50.1653 93.9458C50.3278 94.1889 50.6264 94.3222 51.007 94.3222C51.9028 94.3222 52.9445 93.5875 53.2833 92.7167C53.4347 92.3292 53.4236 91.975 53.2528 91.7208C53.0903 91.4778 52.7917 91.3444 52.4111 91.3444C52.3597 91.3444 52.3083 91.3472 52.2556 91.3514C52.1681 91.0014 52.0431 90.6667 51.8861 90.3542C52.1181 90.3028 52.3514 90.2736 52.582 90.2736ZM52.582 89.6486C52.3097 89.6486 52.0292 89.6806 51.7472 89.7458C51.5597 89.7889 51.4028 89.9153 51.3208 90.0889C51.2389 90.2625 51.2417 90.4639 51.3278 90.6361C51.4653 90.9097 51.5736 91.2028 51.65 91.5056C51.7208 91.7861 51.9722 91.9778 52.2556 91.9778C52.275 91.9778 52.2931 91.9764 52.3125 91.975C52.3472 91.9722 52.3806 91.9708 52.4111 91.9708C52.5695 91.9708 52.6917 92.0083 52.7333 92.0694C52.7722 92.1278 52.7875 92.2708 52.7014 92.4889C52.4556 93.1222 51.6472 93.6972 51.007 93.6972C50.8486 93.6972 50.7264 93.6597 50.6847 93.5986C50.6458 93.5403 50.6306 93.3972 50.7167 93.1792C50.8111 92.9375 50.9945 92.6903 51.2347 92.4819C51.4056 92.3333 51.4833 92.1028 51.4361 91.8806C51.3486 91.4708 51.2042 91.0792 51.007 90.7153C50.9208 90.5583 50.7722 90.4444 50.5972 90.4042C50.5514 90.3931 50.5042 90.3889 50.457 90.3889C50.3278 90.3889 50.2 90.4292 50.0931 90.5056C49.3639 91.0292 48.8 91.7347 48.5042 92.4917C48.1556 93.3875 48.2167 94.2903 48.6736 94.9681C49.1306 95.6458 49.8986 96.0194 50.8361 96.0194C52.5292 96.0194 54.282 94.7972 54.9139 93.1778C55.2625 92.2819 55.2014 91.3792 54.7445 90.7014C54.2861 90.0222 53.5195 89.6486 52.582 89.6486Z" fill="#FFECE5"/>
<path d="M78.3625 96.2417L77.8097 97.6694H55.6805L56.2305 96.2417H78.3625Z" fill="#F56630"/>
<path d="M77.8097 97.9819H55.6805C55.5778 97.9819 55.4805 97.9305 55.4222 97.8458C55.3639 97.7611 55.3514 97.6528 55.3889 97.5569L55.9403 96.1292C55.9861 96.0083 56.1028 95.9292 56.2319 95.9292H78.3639C78.4666 95.9292 78.5639 95.9805 78.6222 96.0653C78.6805 96.15 78.693 96.2583 78.6555 96.3542L78.1028 97.7819C78.0555 97.9028 77.9389 97.9819 77.8097 97.9819ZM56.1361 97.3569H77.5958L77.9069 96.5542H56.4458L56.1361 97.3569Z" fill="#F56630"/>
<path d="M76.5819 100.853L76.0291 102.281H53.8986L54.4499 100.853H76.5819Z" fill="#F56630"/>
<path d="M76.0291 102.593H53.8986C53.7958 102.593 53.6986 102.542 53.6402 102.457C53.5819 102.372 53.5694 102.264 53.6069 102.168L54.1583 100.74C54.2041 100.619 54.3208 100.54 54.4499 100.54H76.5819C76.6847 100.54 76.7819 100.592 76.8402 100.676C76.8986 100.761 76.9111 100.869 76.8736 100.965L76.3208 102.393C76.2736 102.514 76.1583 102.593 76.0291 102.593ZM54.3541 101.968H75.8138L76.1249 101.165H54.6638L54.3541 101.968Z" fill="#F56630"/>
<path d="M89.9027 93.0361L92.9555 97.1986L87.7486 110.672L84.6958 106.511L89.9027 93.0361Z" fill="#FA9874"/>
<path d="M87.7486 110.985C87.65 110.985 87.5556 110.937 87.4972 110.857L84.4444 106.696C84.3819 106.61 84.3667 106.497 84.4055 106.399L89.6125 92.9236C89.6542 92.8167 89.75 92.7417 89.8625 92.7264C89.9764 92.7111 90.0875 92.7597 90.1556 92.8514L93.2083 97.0139C93.2708 97.1 93.2861 97.2125 93.2472 97.3111L88.0403 110.786C87.9986 110.893 87.9028 110.968 87.7903 110.983C87.7764 110.985 87.7625 110.985 87.7486 110.985ZM85.0486 106.464L87.6625 110.028L92.6014 97.2444L89.9875 93.6805L85.0486 106.464Z" fill="#FFECE5"/>
<path d="M84.6958 106.511L87.7486 110.672H43.175L40.1222 106.511H84.6958Z" fill="#FA9874"/>
<path d="M87.7486 110.985H43.175C43.075 110.985 42.9819 110.937 42.9236 110.857L39.8708 106.694C39.8013 106.6 39.7902 106.474 39.8444 106.368C39.8972 106.262 40.0055 106.197 40.1236 106.197H84.6972C84.7972 106.197 84.8902 106.244 84.9486 106.325L88.0013 110.487C88.0708 110.582 88.0819 110.708 88.0277 110.814C87.9736 110.919 87.8666 110.985 87.7486 110.985ZM43.3333 110.36H87.1319L84.5375 106.822H40.7388L43.3333 110.36Z" fill="#FFECE5"/>
<path d="M116.893 63.0833L119.946 67.2458L108.285 97.1986L105.232 93.0361L116.893 63.0833Z" fill="#FA9874"/>
<path d="M108.285 97.5111C108.186 97.5111 108.092 97.4639 108.033 97.3833L104.981 93.2208C104.917 93.1347 104.903 93.0222 104.942 92.9222L116.603 62.9694C116.644 62.8625 116.74 62.7875 116.853 62.7736C116.965 62.7583 117.078 62.8069 117.146 62.8986L120.199 67.0611C120.263 67.1472 120.276 67.2597 120.238 67.3597L108.576 97.3125C108.535 97.4195 108.439 97.4944 108.326 97.5083C108.311 97.5097 108.299 97.5111 108.285 97.5111ZM105.585 92.9889L108.2 96.5542L119.593 67.2931L116.978 63.7278L105.585 92.9889Z" fill="#FFECE5"/>
<path d="M105.232 93.0361H89.9028H62.1945L65.2472 97.1986H92.9556H108.285L105.232 93.0361Z" fill="#FA9874"/>
<path d="M108.285 97.5111H65.2472C65.1472 97.5111 65.0542 97.4639 64.9958 97.3833L61.9431 93.2208C61.8736 93.1264 61.8625 93 61.9167 92.8944C61.9694 92.7889 62.0778 92.7236 62.1958 92.7236H105.233C105.333 92.7236 105.426 92.7708 105.485 92.8514L108.538 97.0139C108.607 97.1083 108.618 97.2347 108.564 97.3403C108.51 97.4444 108.403 97.5111 108.285 97.5111ZM65.4056 96.8861H107.668L105.074 93.3486H62.8111L65.4056 96.8861Z" fill="#FFECE5"/>
<path d="M97.9305 56.5264C100.846 56.5264 102.831 57.9986 103.415 60.2139C103.642 61.0736 103.657 62.0444 103.435 63.0847C103.343 63.5153 103.21 63.9569 103.035 64.4083C101.468 68.4347 97.0458 71.7556 92.8208 72.2333C92.4958 72.2139 92.1652 72.2042 91.8277 72.2042C91.4902 72.2042 91.1513 72.2139 90.8124 72.2333C86.9583 71.7556 85.1222 68.4347 86.6902 64.4083C88.3819 60.0542 93.4152 56.5264 97.9305 56.5264Z" fill="#F56630"/>
<path d="M90.8083 72.5445C90.7958 72.5445 90.7833 72.5431 90.7694 72.5417C88.8888 72.3083 87.3916 71.4056 86.5513 69.9986C85.6222 68.4431 85.5666 66.4167 86.393 64.2931C88.1277 59.8375 93.3027 56.2125 97.9277 56.2125C100.904 56.2125 103.067 57.6778 103.714 60.1333C103.958 61.0625 103.967 62.0764 103.736 63.1486C103.64 63.6 103.5 64.0611 103.321 64.5208C101.735 68.5986 97.2333 72.0472 92.85 72.5431C92.8319 72.5445 92.8138 72.5458 92.7958 72.5445C92.1569 72.507 91.4902 72.507 90.8222 72.5445C90.8208 72.5445 90.8152 72.5445 90.8083 72.5445ZM91.825 71.8903C92.1555 71.8903 92.4875 71.9 92.8097 71.9181C96.9708 71.4361 101.236 68.1625 102.742 64.2945C102.908 63.8667 103.039 63.4375 103.128 63.0181C103.336 62.0417 103.332 61.125 103.112 60.2931C102.542 58.1306 100.606 56.8389 97.9305 56.8389C93.5416 56.8389 88.6277 60.2861 86.9777 64.5222C86.2222 66.4625 86.2625 68.2945 87.0902 69.6806C87.825 70.9111 89.1486 71.7056 90.8208 71.9195C91.1569 71.9 91.4944 71.8903 91.825 71.8903Z" fill="#FFECE5"/>
<path d="M106.756 51.5292L116.893 63.0833H103.433C103.656 62.0431 103.64 61.0722 103.414 60.2125L106.756 51.5292Z" fill="#FA9874"/>
<path d="M116.893 63.3958H103.433C103.339 63.3958 103.25 63.3528 103.19 63.2792C103.131 63.2056 103.108 63.1097 103.128 63.0167C103.336 62.0403 103.332 61.1236 103.113 60.2917C103.096 60.2278 103.1 60.1611 103.124 60.1L106.465 51.4153C106.504 51.3125 106.594 51.2389 106.703 51.2194C106.81 51.2 106.921 51.2389 106.993 51.3208L117.131 62.875C117.211 62.9667 117.231 63.0986 117.181 63.2097C117.128 63.325 117.017 63.3958 116.893 63.3958ZM103.811 62.7708H116.204L106.863 52.1236L103.742 60.2319C103.935 61.0236 103.957 61.875 103.811 62.7708Z" fill="#FFECE5"/>
<path d="M91.8249 72.2028C92.1624 72.2028 92.493 72.2125 92.818 72.2319C101.224 72.7333 105.357 79.6194 102.079 88.0403H69.2374C72.5166 79.6194 82.0124 72.7319 90.8083 72.2319C91.1485 72.2125 91.4874 72.2028 91.8249 72.2028Z" fill="#F56630"/>
<path d="M102.079 88.3542H69.2374C69.1346 88.3542 69.0374 88.3028 68.9791 88.218C68.9208 88.1333 68.9083 88.025 68.9458 87.9278C72.243 79.4611 81.8374 72.4292 90.7902 71.9208C91.4833 71.8819 92.1735 71.8819 92.836 71.9208C96.8652 72.1611 100.089 73.8625 101.915 76.7097C103.885 79.7833 104.047 83.8486 102.369 88.1555C102.324 88.275 102.208 88.3542 102.079 88.3542ZM69.6999 87.7292H101.864C103.385 83.6875 103.218 79.9014 101.389 77.0472C99.6735 74.3722 96.6235 72.7736 92.7999 72.5444C92.161 72.5069 91.4944 72.5069 90.8263 72.5444C82.2499 73.0319 73.0666 79.6639 69.6999 87.7292Z" fill="#FFECE5"/>
<path d="M106.756 51.5292L103.414 60.2139C102.829 57.9986 100.844 56.5264 97.9292 56.5264C93.4153 56.5264 88.3806 60.0542 86.6861 64.4083C85.1181 68.4347 86.9542 71.7556 90.8083 72.2333C82.0125 72.7333 72.5167 79.6208 69.2375 88.0417H102.079C105.358 79.6208 101.224 72.7347 92.8181 72.2333C97.0445 71.7556 101.467 68.4347 103.032 64.4083C103.208 63.9569 103.34 63.5153 103.432 63.0847H116.892L105.231 93.0375H89.9028H62.1945L78.3556 51.5306H105.94H106.756V51.5292Z" fill="#FCD2C2"/>
<path d="M105.232 93.3486H62.1945C62.0917 93.3486 61.9945 93.2972 61.9361 93.2125C61.8778 93.1278 61.8653 93.0194 61.9028 92.9222L78.0639 51.4153C78.1111 51.2958 78.2264 51.2167 78.3556 51.2167H106.756C106.858 51.2167 106.956 51.2681 107.013 51.3528C107.071 51.4375 107.083 51.5458 107.047 51.6417L103.706 60.3264C103.657 60.4528 103.532 60.5347 103.397 60.5264C103.263 60.5194 103.147 60.425 103.113 60.2944C102.542 58.1306 100.606 56.8403 97.9306 56.8403C93.5417 56.8403 88.6278 60.2875 86.9778 64.5236C86.2222 66.4639 86.2625 68.2958 87.0903 69.6819C87.8292 70.9194 89.1625 71.7153 90.8472 71.925C91.0083 71.9444 91.1264 72.0833 91.1208 72.2458C91.1153 72.4069 90.9875 72.5389 90.8264 72.5472C82.25 73.0347 73.0667 79.6667 69.7 87.7319H101.864C103.385 83.6903 103.218 79.9042 101.389 77.05C99.6736 74.375 96.6236 72.7764 92.8 72.5472C92.6375 72.5375 92.5111 72.4056 92.5056 72.2431C92.5 72.0806 92.6222 71.9431 92.7833 71.9236C96.9528 71.4528 101.233 68.1736 102.742 64.2958C102.908 63.8681 103.039 63.4389 103.128 63.0194C103.158 62.875 103.286 62.7722 103.433 62.7722H116.893C116.996 62.7722 117.093 62.8236 117.151 62.9083C117.21 62.9931 117.222 63.1014 117.185 63.1986L105.524 93.1514C105.476 93.2694 105.361 93.3486 105.232 93.3486ZM62.6514 92.7236H105.018L116.436 63.3958H103.682C103.59 63.7681 103.471 64.1444 103.324 64.5208C101.965 68.0125 98.4695 71.0431 94.7417 72.1528C97.8806 72.7458 100.388 74.325 101.915 76.7083C103.885 79.7819 104.047 83.8472 102.369 88.1542C102.322 88.2736 102.207 88.3528 102.078 88.3528H69.2375C69.1347 88.3528 69.0375 88.3014 68.9792 88.2167C68.9208 88.1319 68.9083 88.0236 68.9458 87.9264C72.0292 80.0083 80.6222 73.3444 89.0458 72.0986C87.9736 71.6583 87.1153 70.9417 86.5528 69.9986C85.6236 68.4431 85.5681 66.4167 86.3945 64.2931C88.1292 59.8375 93.3042 56.2125 97.9292 56.2125C100.556 56.2125 102.549 57.3542 103.426 59.3097L106.3 51.8417H78.5695L62.6514 92.7236Z" fill="#FFECE5"/>
<path d="M58.3444 59.6736C58.3041 59.6736 58.2638 59.6653 58.225 59.65C55.8916 58.6903 54.6486 56.4056 55.0597 53.8306C55.6027 50.4306 58.9083 47.6639 62.4291 47.6639C62.5527 47.6639 62.6611 47.6667 62.7569 47.6722C64.8555 47.7736 66.6166 48.8806 67.4666 50.6347C67.6264 50.9625 67.7541 51.3167 67.843 51.6861C67.95 52.1347 68 52.5986 67.9916 53.0639C67.9861 53.6639 67.4375 54.1917 66.8166 54.1917C66.55 54.1917 66.3069 54.0944 66.1319 53.9167C65.9597 53.7431 65.8666 53.5069 65.8694 53.2514C65.8736 53.0056 65.8527 52.7639 65.8111 52.5319C65.7513 52.2056 65.6444 51.8903 65.493 51.5944C64.8902 50.4194 63.6541 49.7167 62.1861 49.7167C59.7819 49.7236 57.525 51.6139 57.1555 53.9292C56.9013 55.5236 57.6361 56.9875 59.025 57.6583C59.1708 57.7292 59.2389 57.9 59.1805 58.0514L58.6333 59.4736C58.6027 59.5528 58.543 59.6153 58.4652 59.6486C58.4277 59.6653 58.3861 59.6736 58.3444 59.6736Z" fill="#FA9874"/>
<path d="M62.4292 47.9764C62.5333 47.9764 62.6375 47.9778 62.7389 47.9847C64.7875 48.0833 66.4125 49.175 67.1861 50.7722C67.3375 51.0833 67.4555 51.4139 67.5403 51.7611C67.6389 52.175 67.6875 52.6083 67.6805 53.0597C67.6764 53.4917 67.2722 53.8806 66.818 53.8806C66.4444 53.8806 66.1805 53.6125 66.1833 53.2556C66.1875 52.9875 66.1653 52.7278 66.1208 52.4778C66.0542 52.1139 65.9361 51.7708 65.7736 51.4542C65.1417 50.2208 63.8194 49.4056 62.1889 49.4056C59.6347 49.4139 57.243 51.4167 56.8486 53.8806C56.5625 55.6764 57.418 57.2292 58.8917 57.9403L58.3444 59.3625C56.2264 58.4917 54.9722 56.3653 55.368 53.8806C55.8875 50.6236 59.0528 47.9764 62.4292 47.9764ZM62.4292 47.3514C60.65 47.3514 58.8736 48.0181 57.4264 49.2278C55.9764 50.4403 55.0264 52.0569 54.75 53.7806C54.5361 55.1222 54.7486 56.4181 55.3667 57.5292C55.9722 58.6181 56.9194 59.4514 58.1055 59.9389C58.1819 59.9708 58.2625 59.9861 58.343 59.9861C58.4278 59.9861 58.5111 59.9694 58.5903 59.9347C58.7444 59.8681 58.8653 59.7417 58.9264 59.5847L59.4736 58.1625C59.5903 57.8583 59.4555 57.5167 59.1625 57.375C57.8805 56.7569 57.2305 55.4542 57.4653 53.9764C57.8125 51.8069 59.9319 50.0347 62.1903 50.0278C63.5361 50.0278 64.668 50.6667 65.2167 51.7361C65.3528 52.0042 65.45 52.2917 65.5042 52.5875C65.543 52.7986 65.5597 53.0194 65.5569 53.2431C65.5528 53.5847 65.6778 53.9 65.9097 54.1333C66.1444 54.3708 66.4667 54.5014 66.8167 54.5014C67.6153 54.5014 68.2972 53.8417 68.3042 53.0611C68.3125 52.575 68.2597 52.0861 68.1472 51.6125C68.0514 51.2181 67.9167 50.8431 67.7458 50.4944C66.8458 48.6375 64.9833 47.4639 62.7667 47.3569C62.6722 47.3542 62.5597 47.3514 62.4292 47.3514Z" fill="#FFECE5"/>
<path d="M48.1347 86.0903C48.0944 86.0903 48.0527 86.0819 48.0138 86.0667C45.6986 85.1 44.4666 82.8194 44.875 80.2583C45.4166 76.8569 48.725 74.0903 52.2472 74.0903C52.3458 74.0903 52.4416 74.0931 52.5375 74.0972C54.6416 74.1903 56.4097 75.2875 57.2694 77.0306C57.4333 77.3639 57.5638 77.7181 57.6541 78.0847C57.7652 78.5361 57.8194 79.0083 57.8125 79.4889C57.8041 80.0917 57.2541 80.6208 56.6361 80.6208C56.3694 80.6208 56.125 80.5222 55.9486 80.3444C55.7763 80.1708 55.6847 79.9333 55.6875 79.6792C55.6916 79.4208 55.6694 79.1653 55.6208 78.9194C55.5569 78.5917 55.4472 78.2806 55.2958 77.9917C54.6875 76.8361 53.4638 76.1458 52.0208 76.1458L51.9888 76.1472C49.5875 76.1681 47.3416 78.0583 46.975 80.3583C46.7222 81.9417 47.4472 83.4 48.8222 84.0764C48.968 84.1472 49.0347 84.3181 48.9763 84.4694L48.4277 85.8931C48.3972 85.9722 48.3361 86.0347 48.2583 86.0681C48.218 86.0819 48.1763 86.0903 48.1347 86.0903Z" fill="#FA9874"/>
<path d="M52.2486 74.4028C52.3431 74.4028 52.4347 74.4056 52.5278 74.4097C54.5792 74.5 56.207 75.5806 56.9903 77.1694C57.1445 77.4819 57.2653 77.8125 57.3514 78.1597C57.4556 78.5806 57.507 79.0236 57.5 79.4833C57.4945 79.9167 57.0889 80.3069 56.6361 80.3069C56.2625 80.3069 55.9958 80.0389 56.0014 79.6819C56.0056 79.3972 55.9806 79.1222 55.9292 78.8569C55.8583 78.4958 55.7375 78.1556 55.5736 77.8431C54.9361 76.6306 53.6375 75.8306 52.0222 75.8306L51.9792 75.8319C49.4361 75.8542 47.0597 77.8514 46.6681 80.3069C46.3834 82.0917 47.2278 83.6375 48.6861 84.3542L48.525 84.7722L48.1375 85.7764C46.0361 84.8986 44.7931 82.7778 45.1875 80.3056C45.7042 77.05 48.8708 74.4028 52.2486 74.4028ZM52.2486 73.7778C48.5792 73.7778 45.1334 76.6625 44.5681 80.2083C44.3556 81.5431 44.5653 82.8347 45.1778 83.9417C45.7778 85.0278 46.7167 85.8611 47.8945 86.3528C47.9708 86.3847 48.0542 86.4014 48.1347 86.4014C48.2181 86.4014 48.3014 86.3847 48.3806 86.3514C48.5361 86.2847 48.657 86.1583 48.7181 86.0014L49.1056 84.9972L49.2667 84.5778C49.3833 84.2764 49.25 83.9347 48.9597 83.7917C47.6917 83.1681 47.0486 81.8708 47.2833 80.4042C47.6278 78.2472 49.7361 76.4764 51.9833 76.4569C51.9889 76.4569 51.9958 76.4569 52.0014 76.4569L52.0334 76.4556C53.3528 76.4597 54.4695 77.0861 55.0208 78.1347C55.1583 78.3972 55.2583 78.6806 55.3167 78.9778C55.3611 79.2028 55.382 79.4361 55.3778 79.6736C55.3722 80.0125 55.4972 80.3278 55.7278 80.5625C55.9625 80.8014 56.2861 80.9319 56.6375 80.9319C57.4347 80.9319 58.1167 80.2722 58.1264 79.4917C58.1334 78.9861 58.0778 78.4861 57.9597 78.0097C57.8639 77.6222 57.7278 77.2472 57.5528 76.8931C56.6403 75.0458 54.7736 73.8833 52.557 73.7861C52.4528 73.7806 52.3528 73.7778 52.2486 73.7778Z" fill="#FFECE5"/>
<path d="M43.032 99.3C42.9903 99.3 42.9501 99.2917 42.9112 99.275C40.4695 98.2458 39.2473 95.7375 39.8709 93.0347C40.6126 89.8208 43.8167 87.3042 47.1667 87.3042C47.2403 87.3042 47.3139 87.3056 47.3876 87.3083L47.4334 87.3097C49.5292 87.3972 51.2987 88.4847 52.1667 90.2153C52.3348 90.5514 52.4667 90.9083 52.5598 91.2764C52.6751 91.7333 52.7292 92.2139 52.7223 92.7014C52.7112 93.3042 52.1626 93.8319 51.5459 93.8319C51.2792 93.8319 51.0348 93.7333 50.8584 93.5556C50.6862 93.3819 50.5945 93.1458 50.5973 92.8917C50.6014 92.6125 50.5751 92.3375 50.5195 92.075C50.4514 91.7528 50.3376 91.4458 50.1834 91.1625C49.5695 90.0319 48.3528 89.3583 46.9292 89.3583C46.9251 89.3583 46.8806 89.3597 46.8737 89.3597C44.4876 89.3875 42.2487 91.275 41.8834 93.5694C41.6278 95.1708 42.332 96.5944 43.7195 97.2819C43.8639 97.3542 43.9306 97.5236 43.8723 97.6736L43.3237 99.0986C43.2931 99.1778 43.232 99.2403 43.1542 99.2736C43.1153 99.2917 43.0737 99.3 43.032 99.3Z" fill="#FA9874"/>
<path d="M47.1653 87.6167C47.2347 87.6167 47.3056 87.6181 47.3764 87.6208L47.4208 87.6222C49.4667 87.7083 51.0944 88.7778 51.8861 90.3556C52.0431 90.6694 52.1681 91.0028 52.2556 91.3528C52.3625 91.7792 52.4153 92.2292 52.4083 92.6972C52.4014 93.1306 51.9972 93.5194 51.5444 93.5194C51.1708 93.5194 50.9042 93.2514 50.9097 92.8958C50.9139 92.5889 50.8847 92.293 50.825 92.0097C50.75 91.6542 50.625 91.3208 50.4583 91.0125C49.8125 89.825 48.5264 89.0444 46.9306 89.0444C46.9125 89.0444 46.8903 89.0444 46.8722 89.0458C44.3347 89.075 41.9667 91.0681 41.5764 93.5181C41.2917 95.3 42.1306 96.8403 43.5819 97.5597L43.5639 97.6069L43.0333 98.9847C40.8236 98.0528 39.5681 95.7431 40.1764 93.1028C40.8875 90.0208 43.9819 87.6167 47.1653 87.6167ZM47.1653 86.9917C43.6764 86.9917 40.3389 89.6153 39.5653 92.9639C38.9056 95.8194 40.2014 98.4722 42.7875 99.5625C42.8653 99.5958 42.9472 99.6111 43.0306 99.6111C43.1139 99.6111 43.1972 99.5944 43.275 99.5611C43.4306 99.4944 43.5528 99.3681 43.6139 99.2111L44.1444 97.8333L44.1625 97.7861C44.2792 97.4847 44.1458 97.1444 43.8569 97.0014C42.5958 96.3764 41.9569 95.0792 42.1903 93.6181C42.5333 91.4681 44.6347 89.6972 46.8764 89.6722C46.8889 89.6722 46.9014 89.6722 46.9139 89.6708H46.9278C48.2347 89.6708 49.3472 90.2847 49.9069 91.3125C50.0472 91.5694 50.15 91.8486 50.2111 92.1403C50.2625 92.3805 50.2861 92.6319 50.2819 92.8875C50.2778 93.2264 50.4014 93.5417 50.6319 93.775C50.8667 94.0139 51.1903 94.1444 51.5417 94.1444C52.3347 94.1444 53.0167 93.4861 53.0306 92.7083C53.0375 92.1917 52.9806 91.6861 52.8583 91.2014C52.7597 90.8097 52.6194 90.4319 52.4417 90.0764C51.5222 88.2417 49.6542 87.0917 47.4444 86.9986L47.3944 86.9972C47.3208 86.9931 47.2431 86.9917 47.1653 86.9917Z" fill="#FFECE5"/>
<path d="M61.0722 69.3042C60.2403 69.3042 59.5639 68.9792 59.1708 68.3889C58.7722 67.7972 58.7222 67 59.0333 66.2028C59.3014 65.5125 59.8167 64.8653 60.4806 64.3792C60.5347 64.3403 60.5986 64.3194 60.6653 64.3194C60.6889 64.3194 60.7125 64.3222 60.7361 64.3278C60.825 64.3486 60.9 64.4069 60.9417 64.4861C61.1222 64.8278 61.2514 65.1972 61.3278 65.5833C61.3486 65.6917 61.3125 65.8014 61.2306 65.875C60.9667 66.1125 60.7708 66.3847 60.6639 66.6597C60.55 66.95 60.55 67.2014 60.6639 67.3708C60.7667 67.5222 60.9736 67.6069 61.2458 67.6069C62.0125 67.6069 62.9417 66.9514 63.2333 66.2028C63.3458 65.9125 63.3458 65.6597 63.2333 65.4931C63.1306 65.3389 62.9236 65.2542 62.6528 65.2542C62.5986 65.2542 62.5417 65.2569 62.4847 65.2639C62.4722 65.2653 62.4597 65.2667 62.4486 65.2667C62.3069 65.2667 62.1792 65.1694 62.1458 65.0278C62.0667 64.7056 61.9542 64.3931 61.8097 64.0986C61.7681 64.0139 61.7667 63.9139 61.8069 63.8278C61.8472 63.7417 61.925 63.6792 62.0167 63.6569C62.2889 63.5917 62.5611 63.5583 62.825 63.5583C63.6556 63.5583 64.3306 63.8833 64.7264 64.4722C65.1236 65.0625 65.175 65.8597 64.8653 66.6583C64.2819 68.1431 62.6194 69.3042 61.0722 69.3042Z" fill="#F56630"/>
<path d="M62.8194 63.8722C63.5417 63.8722 64.125 64.1472 64.4611 64.6486C64.8014 65.1542 64.8403 65.8472 64.5681 66.5472C64.0347 67.9181 62.4986 68.9903 61.0722 68.9903C60.35 68.9903 59.7653 68.7153 59.4306 68.2139C59.0903 67.7083 59.05 67.0153 59.3236 66.3153C59.5806 65.6569 60.0681 65.0667 60.6639 64.6306C60.8278 64.9431 60.9486 65.2819 61.0194 65.6431C60.7319 65.9028 60.5 66.2153 60.3708 66.5472C60.2195 66.9361 60.2306 67.2889 60.4014 67.5444C60.5653 67.7861 60.8625 67.9194 61.2431 67.9194C62.1389 67.9194 63.182 67.1847 63.5208 66.3167C63.6708 65.9278 63.6611 65.575 63.4889 65.3194C63.3264 65.0764 63.0278 64.9431 62.65 64.9431C62.5819 64.9431 62.5139 64.9472 62.4458 64.9556C62.3611 64.6069 62.2403 64.275 62.0861 63.9625C62.3292 63.9042 62.575 63.8722 62.8194 63.8722ZM62.8194 63.2472C62.5319 63.2472 62.2347 63.2833 61.9389 63.3542C61.7542 63.3986 61.6 63.525 61.5195 63.6958C61.4389 63.8667 61.4403 64.0667 61.5236 64.2375C61.6583 64.5111 61.7639 64.8028 61.8375 65.1028C61.907 65.3847 62.1597 65.5792 62.4445 65.5792C62.4695 65.5792 62.4931 65.5778 62.5181 65.575C62.5625 65.5694 62.6069 65.5667 62.65 65.5667C62.8069 65.5667 62.9292 65.6042 62.9708 65.6653C63.0097 65.7236 63.025 65.8681 62.9389 66.0889C62.6945 66.7181 61.8861 67.2931 61.2444 67.2931C61.0861 67.2931 60.9625 67.2542 60.9208 67.1931C60.882 67.1347 60.8694 66.9917 60.9542 66.7736C61.0431 66.5458 61.2153 66.3083 61.4403 66.1056C61.6028 65.9583 61.6764 65.7361 61.6347 65.5208C61.5528 65.1056 61.4125 64.7069 61.2195 64.3389C61.1347 64.1778 60.9847 64.0625 60.807 64.0208C60.7597 64.0097 60.7125 64.0042 60.6653 64.0042C60.5333 64.0042 60.4042 64.0458 60.2972 64.125C59.5847 64.6444 59.032 65.3417 58.7417 66.0875C58.3931 66.9806 58.4556 67.8833 58.9125 68.5625C59.3653 69.2403 60.1333 69.6139 61.0736 69.6139C62.7681 69.6139 64.5222 68.3917 65.1528 66.7722C65.5 65.8764 65.4375 64.975 64.9819 64.2972C64.525 63.6222 63.7569 63.2472 62.8194 63.2472Z" fill="#FFECE5"/>
<path d="M53.2388 72.8819C53.1986 72.8819 53.1569 72.8736 53.1194 72.8583C50.7958 71.8944 49.5597 69.6111 49.9708 67.0431C50.5124 63.6444 53.818 60.8792 57.3402 60.8792C57.4402 60.8792 57.543 60.8792 57.6458 60.8847C57.6472 60.8847 57.6486 60.8847 57.6499 60.8847C59.7444 60.9819 61.5069 62.0806 62.3652 63.8236C62.3694 63.8306 62.3722 63.8375 62.3749 63.8458C62.5319 64.1681 62.6583 64.5153 62.7486 64.8792C62.8583 65.3236 62.9097 65.7931 62.9041 66.275C62.8958 66.8764 62.3458 67.4042 61.7263 67.4042C61.4597 67.4042 61.2166 67.3056 61.0402 67.1278C60.8694 66.9542 60.7777 66.7181 60.7819 66.4639C60.7861 66.2069 60.7624 65.9514 60.7124 65.7056C60.6486 65.3792 60.5388 65.0667 60.3874 64.7764C60.0958 64.2208 59.6486 63.7597 59.0958 63.4417C58.5444 63.1222 57.9166 62.9514 57.2291 62.9333C57.1902 62.9319 57.1583 62.9319 57.1236 62.9319C57.1194 62.9319 57.0833 62.9319 57.0833 62.9319C54.6833 62.9583 52.4319 64.8458 52.0666 67.1417C51.8138 68.7306 52.543 70.1931 53.9249 70.8667C54.0708 70.9375 54.1388 71.1083 54.0791 71.2597L53.5291 72.6819C53.4986 72.7611 53.4374 72.8236 53.3611 72.8569C53.3222 72.8736 53.2805 72.8819 53.2388 72.8819Z" fill="#FA9874"/>
<path d="M57.3388 61.1903C57.4375 61.1903 57.5361 61.1903 57.6319 61.1958H57.6333C59.6777 61.2903 61.3013 62.3736 62.0833 63.9611V63.9625C62.2375 64.2736 62.3569 64.6069 62.443 64.9528C62.5458 65.3708 62.5944 65.8111 62.5889 66.2681C62.5833 66.7014 62.1777 67.0889 61.7236 67.0889C61.3514 67.0889 61.0861 66.8208 61.0916 66.4667C61.0958 66.1833 61.0694 65.9069 61.0166 65.6417C60.9458 65.2806 60.825 64.9431 60.6625 64.6292C60.343 64.0222 59.8583 63.5181 59.25 63.1681C58.675 62.8347 57.9916 62.6389 57.2347 62.6181C57.193 62.6167 57.1513 62.6167 57.1083 62.6167H57.0833C54.5152 62.6444 52.1472 64.6389 51.7569 67.0903C51.4708 68.8819 52.3208 70.4306 53.7875 71.1458L53.2375 72.5681C51.1305 71.6931 49.8805 69.5708 50.2777 67.0903C50.7958 63.8375 53.9611 61.1903 57.3388 61.1903ZM57.3388 60.5653C55.5597 60.5653 53.7819 61.2319 52.3347 62.4417C50.8847 63.6542 49.9347 65.2708 49.6597 66.9931C49.4458 68.3319 49.6569 69.6264 50.2722 70.7347C50.8736 71.8222 51.8166 72.6556 52.9986 73.1458C53.075 73.1778 53.1569 73.1931 53.2375 73.1931C53.3208 73.1931 53.4055 73.1764 53.4833 73.1431C53.6375 73.0764 53.7597 72.9514 53.8208 72.7931L54.3708 71.3708C54.4875 71.0681 54.3541 70.7264 54.0611 70.5833C52.7861 69.9625 52.1388 68.6611 52.3736 67.1875C52.7166 65.0361 54.8319 63.2653 57.0889 63.2403H57.1097C57.118 63.2403 57.125 63.2403 57.1333 63.2403C57.1583 63.2403 57.1833 63.2403 57.2069 63.2417C57.2111 63.2417 57.2152 63.2417 57.2194 63.2417C57.8541 63.2583 58.4319 63.4153 58.9375 63.7069C59.4402 63.9958 59.8444 64.4153 60.1097 64.9181C60.2472 65.1806 60.3458 65.4639 60.4041 65.7597C60.45 65.9861 60.4708 66.2194 60.4666 66.4556C60.4611 66.7917 60.5847 67.1069 60.8152 67.3417C61.05 67.5806 61.3722 67.7125 61.7236 67.7125C62.5208 67.7125 63.2027 67.0542 63.2139 66.275C63.2208 65.7667 63.1652 65.2708 63.05 64.8014C62.9541 64.4167 62.8222 64.0514 62.6569 63.7125C62.6527 63.7014 62.6472 63.6917 62.643 63.6819C61.7333 61.8347 59.8708 60.6708 57.6611 60.5681C57.6597 60.5681 57.6583 60.5681 57.6569 60.5681C57.5486 60.5653 57.4416 60.5653 57.3388 60.5653Z" fill="#FFECE5"/>
<path d="M118.349 49.2806L118.622 50.9931C118.787 52.0194 119.492 52.8236 120.505 53.1403L122.199 53.6681L120.337 54.1958C119.224 54.5125 118.262 55.3167 117.769 56.3431L116.949 58.0556L116.674 56.3431C116.508 55.3167 115.804 54.5125 114.79 54.1958L113.099 53.6681L114.958 53.1403C116.072 52.8236 117.033 52.0194 117.526 50.9931L118.349 49.2806Z" fill="#F56630"/>
<path d="M40.6583 36.5083L40.868 37.8208C40.9944 38.6083 41.5347 39.225 42.3125 39.4667L43.6097 39.8708L42.1833 40.2778C41.3291 40.5194 40.5916 41.1361 40.2139 41.9222L39.5847 43.2361L39.375 41.9222C39.2486 41.1347 38.7083 40.5194 37.9305 40.2778L36.6333 39.8722L38.0597 39.4681C38.9139 39.2264 39.6514 38.6083 40.0291 37.8222L40.6583 36.5083Z" fill="#F56630"/>
<path d="M96.0069 82.1931L96.1236 82.925C96.1944 83.3625 96.4958 83.7069 96.9291 83.8417L97.6513 84.0667L96.8569 84.2917C96.3805 84.4278 95.9694 84.7708 95.7583 85.2083L95.4069 85.9403L95.2902 85.2083C95.2194 84.7708 94.9194 84.4264 94.4861 84.2917L93.7625 84.0667L94.5583 83.8417C95.0347 83.7056 95.4444 83.3625 95.6555 82.925L96.0069 82.1931Z" fill="#FFECE5"/>
<path d="M31.8791 94.3667L31.9958 95.0986C32.0666 95.5375 32.368 95.8806 32.8013 96.0153L33.5236 96.2403L32.7291 96.4653C32.2527 96.6014 31.8416 96.9444 31.6305 97.3833L31.2805 98.1153L31.1638 97.3833C31.0944 96.9444 30.793 96.6014 30.3597 96.4653L29.6375 96.2403L30.4319 96.0153C30.9083 95.8806 31.3194 95.5375 31.5291 95.0986L31.8791 94.3667Z" fill="#F56630"/>
</svg>
