<svg width="150" height="150" viewBox="0 0 150 150" fill="none" xmlns="http://www.w3.org/2000/svg">
<path d="M75 122.697C103.319 122.697 126.276 113.691 126.276 102.582C126.276 91.4726 103.319 82.4667 75 82.4667C46.6809 82.4667 23.7236 91.4726 23.7236 102.582C23.7236 113.691 46.6809 122.697 75 122.697Z" fill="#F9FAFB"/>
<path d="M104.894 62.9416H115.143H116.056L110.629 96.9624L94.6208 87.1013L94.9014 85.3388H98.6375L99.2736 81.3513H101.957L104.328 66.4888C105.872 66.4874 107.315 65.2805 107.553 63.793H104.758L104.894 62.9416Z" fill="#D0D5DD"/>
<path d="M110.629 97.2402C110.578 97.2402 110.528 97.2263 110.483 97.1986L94.475 87.3375C94.3792 87.2791 94.3292 87.168 94.3458 87.0569L94.6264 85.2944C94.6472 85.1597 94.7639 85.0597 94.9014 85.0597H98.4L98.9986 81.3055C99.0194 81.1708 99.1361 81.0708 99.2736 81.0708H101.721L104.054 66.4416C104.075 66.3069 104.192 66.2083 104.328 66.2069C105.625 66.2069 106.849 65.2722 107.206 64.0666H104.758C104.676 64.0666 104.6 64.0305 104.547 63.9694C104.494 63.9069 104.471 63.8263 104.485 63.7458L104.621 62.8944C104.642 62.7597 104.758 62.6597 104.896 62.6597H116.057C116.139 62.6597 116.215 62.6958 116.268 62.7569C116.321 62.818 116.344 62.8999 116.331 62.9805L110.904 97.0013C110.889 97.093 110.831 97.1708 110.746 97.2097C110.708 97.2319 110.668 97.2402 110.629 97.2402ZM94.925 86.9611L110.421 96.5069L115.731 63.218H105.132L105.085 63.5138H107.554C107.636 63.5138 107.712 63.5499 107.765 63.6111C107.818 63.6722 107.842 63.7541 107.828 63.8347C107.582 65.3722 106.147 66.6374 104.567 66.7555L102.232 81.393C102.211 81.5277 102.094 81.6277 101.957 81.6277H99.5097L98.9111 85.3819C98.8903 85.5166 98.7736 85.6166 98.6361 85.6166H95.1389L94.925 86.9611Z" fill="#F9FAFB"/>
<path d="M110.629 96.9625L112.979 100.165H95.3986L93.0486 96.9625H110.629Z" fill="#D0D5DD"/>
<path d="M112.979 100.443H95.3986C95.3097 100.443 95.2263 100.401 95.1749 100.329L92.8249 97.125C92.7624 97.0403 92.7541 96.9292 92.8013 96.8347C92.8485 96.7417 92.9444 96.6819 93.0486 96.6819H110.629C110.718 96.6819 110.801 96.7236 110.853 96.7958L113.203 100C113.265 100.085 113.274 100.196 113.226 100.29C113.179 100.385 113.083 100.443 112.979 100.443ZM95.5388 99.8875H112.43L110.489 97.2389H93.5972L95.5388 99.8875Z" fill="#F9FAFB"/>
<path d="M94.6209 87.1014L110.629 96.9625H93.0487L94.6209 87.1014Z" fill="#D0D5DD"/>
<path d="M110.629 97.2403H93.0486C92.9667 97.2403 92.8903 97.2041 92.8375 97.143C92.7848 97.0805 92.7611 97 92.775 96.9194L94.3473 87.0583C94.3625 86.9666 94.4209 86.8889 94.5056 86.85C94.5903 86.8111 94.6875 86.8166 94.7667 86.8653L110.775 96.7264C110.881 96.7916 110.931 96.9194 110.897 97.0389C110.864 97.1583 110.754 97.2403 110.629 97.2403ZM93.3736 96.6847H109.649L94.8292 87.5555L93.3736 96.6847Z" fill="#F9FAFB"/>
<path d="M80.1555 28.15C80.9888 28.15 81.5596 28.8 81.4318 29.6041C81.3041 30.4069 80.5249 31.0583 79.6916 31.0583C78.8596 31.0583 78.2888 30.4069 78.4166 29.6041C78.5457 28.8 79.3235 28.15 80.1555 28.15Z" fill="#D0D5DD"/>
<path d="M79.6916 31.3361C79.2 31.3361 78.768 31.1458 78.4722 30.8014C78.1847 30.4652 78.068 30.025 78.1416 29.5611C78.2902 28.6305 79.193 27.8722 80.1541 27.8722C80.6472 27.8722 81.0805 28.0625 81.375 28.4083C81.6611 28.7444 81.7791 29.1847 81.7041 29.6486C81.5583 30.5777 80.6541 31.3361 79.6916 31.3361ZM80.1555 28.4277C79.4555 28.4277 78.7986 28.975 78.6916 29.6486C78.643 29.9486 78.7166 30.2305 78.8958 30.4402C79.0833 30.6597 79.3652 30.7805 79.6916 30.7805C80.393 30.7805 81.05 30.2333 81.1569 29.5597C81.2055 29.2597 81.1319 28.9777 80.9527 28.768C80.7666 28.5486 80.4833 28.4277 80.1555 28.4277Z" fill="#F9FAFB"/>
<path d="M45.3124 56.725L35.1499 50.4639H52.7305L52.1443 54.1403H45.7249L45.3124 56.725Z" fill="#D0D5DD"/>
<path d="M45.3124 57.0028C45.2624 57.0028 45.211 56.9889 45.1665 56.9611L35.004 50.7C34.8985 50.6347 34.8485 50.5069 34.8818 50.3875C34.9151 50.268 35.0249 50.1861 35.1485 50.1861H52.729C52.811 50.1861 52.8874 50.2222 52.9402 50.2833C52.9929 50.3458 53.0165 50.4264 53.0026 50.5069L52.4165 54.1833C52.3957 54.318 52.279 54.418 52.1415 54.418H45.9582L45.5832 56.768C45.5679 56.8597 45.5096 56.9375 45.4249 56.9764C45.3915 56.9944 45.3526 57.0028 45.3124 57.0028ZM36.1304 50.7417L45.104 56.2694L45.4513 54.0958C45.4721 53.9611 45.5888 53.8611 45.7263 53.8611H51.9096L52.4068 50.7403H36.1304V50.7417Z" fill="#F9FAFB"/>
<path d="M106.672 29.2708C106.671 29.2472 106.669 29.2236 106.667 29.2014C106.665 29.1861 106.663 29.1694 106.66 29.1541C106.657 29.1402 106.656 29.125 106.653 29.1111C106.651 29.1055 106.65 29.1014 106.649 29.0972C106.638 29.0458 106.625 28.9972 106.607 28.9486C106.606 28.9458 106.606 28.943 106.606 28.9416C106.603 28.9333 106.599 28.925 106.594 28.9166C106.583 28.8875 106.571 28.8583 106.557 28.8291C106.554 28.8236 106.551 28.8166 106.549 28.8111C106.545 28.8027 106.539 28.7958 106.535 28.7875C106.524 28.7666 106.511 28.7458 106.499 28.725C106.494 28.7166 106.49 28.7083 106.485 28.7014C106.475 28.6875 106.467 28.675 106.457 28.6611L104.107 25.4569C104.122 25.4777 104.135 25.4986 104.149 25.5208C104.161 25.5416 104.174 25.5625 104.185 25.5833C104.192 25.5972 104.2 25.6111 104.207 25.625C104.221 25.6527 104.233 25.6819 104.244 25.7125C104.249 25.7236 104.253 25.7333 104.257 25.7444C104.274 25.7916 104.288 25.8416 104.299 25.893C104.303 25.9125 104.306 25.9305 104.31 25.95C104.313 25.9652 104.315 25.9805 104.317 25.9972C104.319 26.0194 104.321 26.043 104.322 26.0666C104.324 26.0819 104.325 26.0972 104.325 26.1125C104.325 26.1389 104.325 26.1652 104.324 26.1916C104.324 26.2055 104.324 26.218 104.322 26.2319C104.319 26.2722 104.315 26.3125 104.308 26.3541L101.278 45.3555L103.628 48.5597L106.658 29.5583C106.665 29.5166 106.669 29.4764 106.672 29.4361C106.674 29.4236 106.672 29.4097 106.674 29.3972C106.675 29.3708 106.675 29.3444 106.675 29.318C106.675 29.3014 106.674 29.2861 106.672 29.2708Z" fill="#D0D5DD"/>
<path d="M103.629 48.8361C103.542 48.8361 103.458 48.7944 103.406 48.7222L101.056 45.518C101.011 45.4583 100.993 45.3833 101.006 45.3097L104.036 26.3083C104.042 26.2764 104.044 26.243 104.047 26.2111V26.1805C104.049 26.1597 104.049 26.1389 104.049 26.118L104.046 26.0819C104.044 26.0639 104.043 26.0458 104.042 26.0278L104.038 26.0028C104.033 25.9778 104.031 25.9625 104.028 25.9486C104.019 25.9069 104.008 25.8694 103.997 25.8361C103.996 25.8347 103.988 25.8139 103.988 25.8125C103.979 25.7903 103.969 25.768 103.958 25.7472C103.953 25.7361 103.947 25.7264 103.942 25.7153C103.933 25.6986 103.924 25.6833 103.914 25.668C103.9 25.6458 103.892 25.6333 103.883 25.6208C103.793 25.4972 103.819 25.3236 103.943 25.2333C104.067 25.143 104.24 25.1694 104.331 25.293C104.331 25.293 104.331 25.293 104.331 25.2944L106.679 28.4972C106.692 28.5139 106.703 28.5305 106.714 28.5472C106.721 28.5569 106.726 28.568 106.733 28.5792C106.747 28.6014 106.763 28.6278 106.778 28.6542C106.783 28.6625 106.789 28.6722 106.794 28.6833C106.799 28.6917 106.807 28.7083 106.81 28.7167C106.822 28.7417 106.838 28.7778 106.853 28.8153C106.857 28.8222 106.861 28.8333 106.865 28.8458C106.867 28.8514 106.869 28.8583 106.871 28.8653C106.889 28.9167 106.904 28.9722 106.917 29.0305C106.919 29.0403 106.922 29.0486 106.924 29.0583C106.926 29.0722 106.929 29.0875 106.931 29.1014L106.657 29.1542L106.932 29.118C106.935 29.1347 106.938 29.1514 106.939 29.1694C106.942 29.1972 106.944 29.2264 106.946 29.2542L106.947 29.2653C106.949 29.2805 106.949 29.2944 106.95 29.3097C106.951 29.3417 106.95 29.3736 106.949 29.4055C106.949 29.4278 106.947 29.4403 106.947 29.4528C106.944 29.5014 106.939 29.55 106.931 29.6L103.9 48.6C103.882 48.7111 103.8 48.8 103.692 48.8264C103.672 48.8333 103.65 48.8361 103.629 48.8361ZM101.572 45.2833L103.46 47.8569L106.385 29.5125C106.39 29.4792 106.393 29.4472 106.396 29.4153L106.397 29.3847C106.399 29.3639 106.399 29.343 106.399 29.3222L106.396 29.2875C106.396 29.2875 106.396 29.2875 106.396 29.2861C106.394 29.268 106.394 29.25 106.392 29.2333L106.383 29.1736C106.383 29.1736 106.381 29.1639 106.378 29.15C106.369 29.1111 106.36 29.0736 106.347 29.0403C106.346 29.0389 106.346 29.0361 106.344 29.0333C106.343 29.0305 106.34 29.0236 106.338 29.0153C106.329 28.993 106.319 28.9708 106.31 28.95C106.308 28.9458 106.304 28.9389 106.301 28.9319C106.299 28.9278 106.296 28.9222 106.293 28.918C106.285 28.9014 106.275 28.8861 106.265 28.8708C106.263 28.8667 106.254 28.8514 106.251 28.8472C106.249 28.843 106.242 28.8333 106.235 28.8236L104.563 26.543L101.572 45.2833Z" fill="#F9FAFB"/>
<path d="M103.104 24.9791C103.89 24.9791 104.431 25.5944 104.31 26.3527L101.279 45.3541C100.626 45.8055 100.015 46.3152 99.4598 46.8763L102.54 27.5638C102.601 27.1847 102.332 26.8763 101.939 26.8763H58.782C58.389 26.8763 58.0195 27.1847 57.9598 27.5638L53.7209 54.1388H52.1445L52.7306 50.4625L56.5765 26.3527C56.6973 25.5944 57.4348 24.9791 58.2195 24.9791H103.104Z" fill="#98A2B3"/>
<path d="M53.7209 54.418H52.1445C52.0625 54.418 51.9861 54.3819 51.9334 54.3208C51.8806 54.2583 51.857 54.1778 51.8709 54.0972L56.3028 26.3111C56.4445 25.425 57.3042 24.7028 58.2209 24.7028H103.106C103.575 24.7028 103.988 24.8847 104.269 25.2139C104.543 25.5347 104.656 25.9555 104.585 26.3972L101.554 45.3986C101.542 45.4736 101.5 45.5403 101.438 45.5833C100.8 46.0236 100.2 46.525 99.657 47.0722C99.5723 47.1583 99.4417 47.1791 99.3334 47.125C99.2264 47.0708 99.1653 46.9528 99.1847 46.8333L102.265 27.5208C102.281 27.4208 102.258 27.3305 102.203 27.2639C102.143 27.193 102.049 27.1541 101.939 27.1541H58.782C58.5236 27.1541 58.2736 27.3625 58.2334 27.6083L53.9945 54.1833C53.9736 54.318 53.857 54.418 53.7209 54.418ZM52.4709 53.8625H53.4847L57.6861 27.5208C57.7681 27.0041 58.25 26.5986 58.7834 26.5986H101.939C102.211 26.5986 102.461 26.7097 102.626 26.9028C102.79 27.0944 102.857 27.3458 102.815 27.6083L99.8639 46.1139C100.233 45.7861 100.621 45.4791 101.025 45.1944L104.036 26.3097C104.081 26.0305 104.014 25.7694 103.846 25.5736C103.672 25.3694 103.408 25.2569 103.104 25.2569H58.2195C57.5653 25.2569 56.95 25.768 56.85 26.3972L52.4709 53.8625Z" fill="#F9FAFB"/>
<path d="M45.3152 96.9625H27.7346L46.8874 87.1L45.3152 96.9625Z" fill="#D0D5DD"/>
<path d="M45.3152 97.2402H27.7347C27.6069 97.2402 27.4944 97.1527 27.4652 97.0277C27.4347 96.9027 27.4944 96.7736 27.6083 96.7152L46.7624 86.8527C46.8555 86.8041 46.968 86.8139 47.0527 86.875C47.1374 86.9361 47.1805 87.0402 47.1638 87.143L45.5916 97.0055C45.568 97.1402 45.4513 97.2402 45.3152 97.2402ZM28.8805 96.6847H45.0777L46.5277 87.5986L28.8805 96.6847Z" fill="#F9FAFB"/>
<path d="M45.3152 96.9625L47.6652 100.165H30.0846L27.7346 96.9625H45.3152Z" fill="#D0D5DD"/>
<path d="M47.6653 100.443H30.0847C29.9958 100.443 29.9125 100.401 29.8611 100.329L27.5111 97.125C27.4486 97.0403 27.4403 96.9292 27.4875 96.8347C27.5347 96.7417 27.6305 96.6819 27.7347 96.6819H45.3153C45.4042 96.6819 45.4875 96.7236 45.5389 96.7958L47.8889 100C47.9514 100.085 47.9597 100.196 47.9125 100.29C47.8653 100.385 47.7694 100.443 47.6653 100.443ZM30.225 99.8875H47.1167L45.175 97.2389H28.2833L30.225 99.8875Z" fill="#F9FAFB"/>
<path d="M48.7447 85.3389L51.0947 88.5416L47.9433 108.303L45.5933 105.099L48.7447 85.3389Z" fill="#344054"/>
<path d="M47.9432 108.581C47.8557 108.581 47.7723 108.539 47.7195 108.467L45.3695 105.262C45.3251 105.203 45.307 105.128 45.3195 105.054L48.4709 85.293C48.489 85.1819 48.5709 85.093 48.6793 85.0667C48.7876 85.0403 48.9029 85.0819 48.9682 85.1722L51.3182 88.3764C51.3626 88.4361 51.3807 88.5111 51.3682 88.5847L48.2168 108.346C48.1987 108.457 48.1168 108.546 48.0084 108.572C47.9862 108.578 47.9654 108.581 47.9432 108.581ZM45.8862 105.028L47.7737 107.601L50.8029 88.6125L48.9154 86.0389L45.8862 105.028Z" fill="#F9FAFB"/>
<path d="M48.0444 109.028C47.9583 109.028 47.8749 108.989 47.8208 108.914L45.4708 105.711C45.3346 105.526 45.2819 105.294 45.3194 105.056C45.3374 104.944 45.4194 104.856 45.5277 104.829C45.636 104.803 45.7513 104.844 45.8166 104.935L48.1666 108.139C48.211 108.199 48.2291 108.274 48.2166 108.347C48.2027 108.439 48.2194 108.521 48.2666 108.586C48.3569 108.71 48.3305 108.883 48.2069 108.975C48.1583 109.01 48.1013 109.028 48.0444 109.028Z" fill="#F9FAFB"/>
<mask id="mask0_8802_27970" style="mask-type:luminance" maskUnits="userSpaceOnUse" x="45" y="104" width="4" height="6">
<path d="M48.0444 109.028C47.9583 109.028 47.8749 108.989 47.8208 108.914L45.4708 105.711C45.3346 105.526 45.2819 105.294 45.3194 105.056C45.3374 104.944 45.4194 104.856 45.5277 104.829C45.636 104.803 45.7513 104.844 45.8166 104.935L48.1666 108.139C48.211 108.199 48.2291 108.274 48.2166 108.347C48.2027 108.439 48.2194 108.521 48.2666 108.586C48.3569 108.71 48.3305 108.883 48.2069 108.975C48.1583 109.01 48.1013 109.028 48.0444 109.028Z" fill="white"/>
</mask>
<g mask="url(#mask0_8802_27970)">
<path d="M45.5928 105.099L47.9428 108.303C47.9303 108.381 47.9317 108.456 47.9456 108.525L45.5956 105.321C45.5817 105.251 45.5803 105.176 45.5928 105.099Z" fill="#667185"/>
<path d="M47.9456 108.803C47.8595 108.803 47.7748 108.762 47.722 108.689L45.372 105.485C45.3484 105.451 45.3317 105.414 45.3234 105.374C45.3025 105.269 45.3012 105.162 45.3192 105.054C45.3373 104.943 45.4192 104.854 45.5275 104.828C45.6373 104.801 45.7512 104.843 45.8164 104.933L48.1664 108.137C48.2109 108.197 48.2289 108.272 48.2164 108.346C48.2095 108.389 48.2095 108.432 48.2178 108.471C48.2428 108.599 48.1762 108.726 48.0567 108.779C48.0206 108.794 47.9831 108.803 47.9456 108.803Z" fill="#F9FAFB"/>
<path d="M45.5955 105.321L47.9455 108.525C47.951 108.554 47.9593 108.582 47.9691 108.61L45.6191 105.406C45.6093 105.379 45.601 105.35 45.5955 105.321Z" fill="#344054"/>
<path d="M47.9692 108.888C47.8831 108.888 47.7983 108.847 47.7456 108.774L45.3956 105.569C45.3803 105.549 45.3678 105.525 45.3581 105.5C45.3428 105.46 45.3317 105.417 45.3233 105.374C45.2983 105.246 45.365 105.118 45.4844 105.065C45.6039 105.013 45.7428 105.05 45.8206 105.156L48.1706 108.36C48.1942 108.393 48.2108 108.431 48.2192 108.471C48.2219 108.486 48.2261 108.5 48.2317 108.515C48.2789 108.646 48.2233 108.79 48.1011 108.856C48.0581 108.876 48.0136 108.888 47.9692 108.888Z" fill="#F9FAFB"/>
<path d="M45.6194 105.406L47.9694 108.61C47.9777 108.632 47.9874 108.654 47.9972 108.675L45.6472 105.471C45.6374 105.45 45.6277 105.429 45.6194 105.406Z" fill="#344054"/>
<path d="M47.9971 108.953C47.911 108.953 47.8277 108.913 47.7735 108.839L45.4235 105.635C45.4152 105.622 45.4068 105.61 45.3999 105.597C45.3832 105.565 45.3693 105.533 45.3568 105.5C45.3096 105.369 45.3652 105.225 45.4874 105.161C45.6096 105.096 45.761 105.131 45.8415 105.242L48.1915 108.446C48.2068 108.467 48.2193 108.49 48.229 108.515C48.2332 108.526 48.2374 108.538 48.2429 108.549C48.3082 108.678 48.2652 108.836 48.1415 108.911C48.0985 108.939 48.0471 108.953 47.9971 108.953Z" fill="#F9FAFB"/>
<path d="M45.647 105.471L47.997 108.675C48.0067 108.694 48.0178 108.712 48.0289 108.731L45.6789 105.526C45.6678 105.508 45.6567 105.49 45.647 105.471Z" fill="#101928"/>
<path d="M48.0303 109.007C47.9442 109.007 47.8609 108.968 47.8067 108.893L45.4567 105.689C45.4317 105.653 45.4164 105.625 45.4012 105.596C45.3359 105.467 45.3789 105.308 45.5025 105.233C45.6262 105.157 45.7873 105.189 45.872 105.306L48.222 108.51C48.2303 108.522 48.2387 108.535 48.2456 108.547C48.2498 108.557 48.2553 108.565 48.2623 108.575C48.3456 108.7 48.315 108.871 48.19 108.957C48.14 108.992 48.0845 109.007 48.0303 109.007Z" fill="#F9FAFB"/>
<path d="M45.6804 105.526L48.0304 108.731C48.0346 108.737 48.0401 108.744 48.0443 108.75L45.6943 105.546C45.6888 105.539 45.6846 105.533 45.6804 105.526Z" fill="#344054"/>
<path d="M48.0443 109.028C47.9609 109.028 47.8776 108.99 47.8234 108.918C47.8234 108.918 47.8234 108.917 47.8221 108.917C47.8221 108.915 47.8207 108.915 47.8207 108.914L45.4721 105.712C45.4651 105.703 45.4582 105.693 45.4512 105.683C45.3665 105.558 45.3984 105.387 45.5221 105.301C45.6457 105.215 45.8165 105.243 45.9054 105.364L48.2554 108.568C48.2582 108.572 48.2623 108.578 48.2651 108.582L48.2693 108.587C48.3596 108.711 48.3332 108.885 48.2096 108.975C48.1582 109.01 48.1012 109.028 48.0443 109.028Z" fill="#F9FAFB"/>
</g>
<path d="M48.5457 109.267C48.2485 109.267 47.9832 109.137 47.8193 108.914L45.4707 105.711C45.4707 105.711 45.4707 105.711 45.4693 105.71C45.3791 105.586 45.4055 105.412 45.5291 105.321C45.6527 105.231 45.8263 105.257 45.918 105.381C45.9777 105.461 46.0763 105.507 46.1971 105.507C46.286 105.507 46.3694 105.549 46.4207 105.621L48.7707 108.825C48.8332 108.91 48.8416 109.021 48.7943 109.115C48.7471 109.208 48.6513 109.267 48.5457 109.267Z" fill="#F9FAFB"/>
<mask id="mask1_8802_27970" style="mask-type:luminance" maskUnits="userSpaceOnUse" x="45" y="105" width="4" height="5">
<path d="M48.5457 109.267C48.2485 109.267 47.9832 109.137 47.8193 108.914L45.4707 105.711C45.4707 105.711 45.4707 105.711 45.4693 105.71C45.3791 105.586 45.4055 105.412 45.5291 105.321C45.6527 105.231 45.8263 105.257 45.918 105.381C45.9777 105.461 46.0763 105.507 46.1971 105.507C46.286 105.507 46.3694 105.549 46.4207 105.621L48.7707 108.825C48.8332 108.91 48.8416 109.021 48.7943 109.115C48.7471 109.208 48.6513 109.267 48.5457 109.267Z" fill="white"/>
</mask>
<g mask="url(#mask1_8802_27970)">
<path d="M46.1971 105.786L48.5471 108.99C48.3304 108.99 48.1513 108.897 48.0443 108.751L45.6943 105.546C45.8013 105.693 45.9804 105.786 46.1971 105.786Z" fill="#98A2B3"/>
<path d="M48.5457 109.267C48.2485 109.267 47.9832 109.137 47.8193 108.914L45.4707 105.711C45.4707 105.711 45.4707 105.711 45.4693 105.71C45.3791 105.586 45.4055 105.412 45.5291 105.321C45.6527 105.231 45.8263 105.257 45.918 105.381C45.9777 105.461 46.0763 105.507 46.1971 105.507C46.286 105.507 46.3694 105.549 46.4207 105.621L48.7707 108.825C48.8332 108.91 48.8416 109.021 48.7943 109.115C48.7471 109.208 48.6513 109.267 48.5457 109.267Z" fill="#F9FAFB"/>
</g>
<path d="M93.325 85.3389L95.675 88.5416L92.5236 108.303L90.1736 105.099L93.325 85.3389Z" fill="#D0D5DD"/>
<path d="M92.5236 108.581C92.4361 108.581 92.3528 108.539 92.3 108.467L89.95 105.262C89.9055 105.203 89.8875 105.128 89.9 105.054L93.0514 85.293C93.0694 85.1819 93.1514 85.093 93.2597 85.0667C93.368 85.0403 93.4833 85.0819 93.5486 85.1722L95.8986 88.3764C95.943 88.4361 95.9611 88.5111 95.9486 88.5847L92.7972 108.346C92.7792 108.457 92.6972 108.546 92.5889 108.572C92.5667 108.578 92.5444 108.581 92.5236 108.581ZM90.4667 105.028L92.3542 107.601L95.3833 88.6125L93.4958 86.0389L90.4667 105.028Z" fill="#F9FAFB"/>
<path d="M89.3528 105.786L91.7028 108.989H48.5459L46.1973 105.786H89.3528Z" fill="#98A2B3"/>
<path d="M91.7028 109.267H48.5459C48.457 109.267 48.3737 109.225 48.3223 109.153L45.9723 105.95C45.9098 105.865 45.9014 105.754 45.9487 105.66C45.9959 105.567 46.0917 105.507 46.1959 105.507H89.3515C89.4403 105.507 89.5237 105.549 89.5751 105.621L91.9251 108.825C91.9876 108.91 91.9959 109.021 91.9487 109.115C91.9028 109.208 91.807 109.267 91.7028 109.267ZM48.6876 108.711H91.1542L89.2126 106.063H46.7445L48.6876 108.711Z" fill="#F9FAFB"/>
<path d="M90.1736 105.099L93.325 85.3375H94.9028L94.6222 87.1L93.05 96.9611L91.1083 109.136C90.9875 109.894 90.25 110.51 89.4653 110.51H44.5791C43.793 110.51 43.2528 109.894 43.3736 109.136L45.3152 96.9611L46.8875 87.1L47.168 85.3375H48.7444L45.593 105.099C45.5333 105.476 45.8027 105.785 46.1958 105.785H89.3514C89.7458 105.785 90.1125 105.478 90.1736 105.099Z" fill="#98A2B3"/>
<path d="M89.4625 110.787H44.5792C44.1098 110.787 43.6973 110.606 43.4153 110.276C43.1417 109.956 43.0292 109.535 43.1 109.093L46.8959 85.2944C46.9167 85.1597 47.0334 85.0597 47.1709 85.0597H48.7473C48.8292 85.0597 48.9056 85.0958 48.9584 85.1569C49.0111 85.218 49.0348 85.3 49.0209 85.3805L45.8695 105.142C45.8542 105.24 45.8764 105.331 45.9334 105.397C45.9945 105.468 46.0889 105.507 46.1986 105.507H89.3542C89.6111 105.507 89.8611 105.3 89.9014 105.054L93.0528 85.293C93.0736 85.1583 93.1903 85.0583 93.3278 85.0583H94.9042C94.9861 85.0583 95.0625 85.0944 95.1153 85.1555C95.1681 85.2166 95.1917 85.2986 95.1778 85.3791L91.3806 109.181C91.2403 110.067 90.3792 110.787 89.4625 110.787ZM47.4056 85.6166L43.6473 109.181C43.6028 109.46 43.6695 109.721 43.8361 109.917C44.0098 110.121 44.2736 110.233 44.5778 110.233H89.4625C90.1167 110.233 90.732 109.722 90.832 109.093L94.5764 85.6166H93.5625L90.4486 105.143C90.3667 105.66 89.8848 106.064 89.3528 106.064H46.1973C45.925 106.064 45.6736 105.953 45.5084 105.758C45.3445 105.567 45.2778 105.317 45.3195 105.056L48.4195 85.6166H47.4056Z" fill="#F9FAFB"/>
<path d="M35.1499 50.4639L45.3124 56.725L41.386 81.35H44.0693L43.4332 85.3389H47.1693L46.8874 87.1L27.7346 96.9625L35.1499 50.4639Z" fill="#D0D5DD"/>
<path d="M27.7347 97.2402C27.6777 97.2402 27.6194 97.2222 27.5722 97.1875C27.4874 97.1264 27.4444 97.0222 27.4611 96.9194L34.8763 50.4208C34.8916 50.3291 34.9499 50.2514 35.0347 50.2125C35.1194 50.1736 35.2166 50.1791 35.2958 50.2277L45.4583 56.4889C45.5541 56.5472 45.6041 56.6583 45.5874 56.7694L41.7111 81.0736H44.0694C44.1513 81.0736 44.2277 81.1097 44.2805 81.1708C44.3333 81.2319 44.3569 81.3138 44.343 81.3944L43.7583 85.0611H47.1694C47.2513 85.0611 47.3277 85.0972 47.3805 85.1583C47.4333 85.2208 47.4569 85.3014 47.443 85.3819L47.1624 87.1444C47.1486 87.2319 47.0944 87.3069 47.0152 87.3472L27.8611 97.2097C27.8208 97.2305 27.7777 97.2402 27.7347 97.2402ZM35.3597 50.918L28.0958 96.4639L46.6361 86.918L46.8444 85.6166H43.4333C43.3513 85.6166 43.2749 85.5805 43.2222 85.5194C43.1694 85.4569 43.1458 85.3764 43.1597 85.2958L43.7444 81.6291H41.3861C41.3041 81.6291 41.2277 81.593 41.1749 81.5319C41.1222 81.4694 41.0986 81.3889 41.1124 81.3083L45.0111 56.8652L35.3597 50.918Z" fill="#F9FAFB"/>
<path d="M111.806 46.75C111.719 46.75 111.636 46.7111 111.583 46.6388L109.233 43.4347C109.185 43.3694 109.168 43.2861 109.187 43.2069C109.194 43.1777 109.2 43.1541 109.204 43.1291C109.244 42.8722 109.19 42.6263 109.051 42.4375C108.961 42.3138 108.987 42.1402 109.111 42.0486C109.235 41.9583 109.408 41.9847 109.5 42.1083L111.85 45.3111C112.078 45.6208 112.167 46.0152 112.103 46.4194C112.097 46.4569 112.089 46.493 112.079 46.5319C112.054 46.6375 111.969 46.7208 111.864 46.743C111.843 46.7486 111.824 46.75 111.806 46.75Z" fill="#F9FAFB"/>
<mask id="mask2_8802_27970" style="mask-type:luminance" maskUnits="userSpaceOnUse" x="108" y="41" width="5" height="6">
<path d="M111.806 46.75C111.719 46.75 111.636 46.7111 111.583 46.6388L109.233 43.4347C109.185 43.3694 109.168 43.2861 109.187 43.2069C109.194 43.1777 109.2 43.1541 109.204 43.1291C109.244 42.8722 109.19 42.6263 109.051 42.4375C108.961 42.3138 108.987 42.1402 109.111 42.0486C109.235 41.9583 109.408 41.9847 109.5 42.1083L111.85 45.3111C112.078 45.6208 112.167 46.0152 112.103 46.4194C112.097 46.4569 112.089 46.493 112.079 46.5319C112.054 46.6375 111.969 46.7208 111.864 46.743C111.843 46.7486 111.824 46.75 111.806 46.75Z" fill="white"/>
</mask>
<g mask="url(#mask2_8802_27970)">
<path d="M109.275 42.2736L111.625 45.4777C111.635 45.4902 111.644 45.5041 111.653 45.518L109.303 42.3138C109.294 42.2999 109.285 42.2874 109.275 42.2736Z" fill="#667185"/>
<path d="M111.653 45.7959C111.567 45.7959 111.483 45.757 111.429 45.682L109.079 42.4778C109.067 42.4584 109.06 42.4486 109.053 42.4389L109.051 42.4375C108.961 42.3139 108.987 42.1403 109.111 42.05C109.235 41.9598 109.408 41.9861 109.499 42.1098C109.499 42.1098 109.499 42.1111 109.5 42.1111L111.849 45.3125C111.861 45.3292 111.872 45.3459 111.883 45.3625C111.967 45.4875 111.935 45.657 111.811 45.7445C111.764 45.7792 111.708 45.7959 111.653 45.7959Z" fill="#F9FAFB"/>
<path d="M109.303 42.3138L111.653 45.518C111.676 45.5527 111.699 45.5902 111.718 45.6277L109.368 42.4236C109.349 42.3861 109.326 42.35 109.303 42.3138Z" fill="#667185"/>
<path d="M111.718 45.9055C111.632 45.9055 111.549 45.8652 111.494 45.7916L109.144 42.5875C109.136 42.575 109.128 42.5625 109.121 42.55C109.106 42.5208 109.09 42.4944 109.072 42.468C108.989 42.343 109.019 42.1722 109.144 42.0861C109.268 42 109.439 42.0277 109.528 42.15L111.878 45.3541C111.914 45.4083 111.942 45.4541 111.965 45.5013C112.032 45.6305 111.988 45.7888 111.864 45.8652C111.818 45.8916 111.768 45.9055 111.718 45.9055Z" fill="#F9FAFB"/>
<path d="M109.368 42.4236L111.718 45.6277C111.74 45.6694 111.758 45.7139 111.775 45.7583L109.425 42.5541C109.408 42.5097 109.389 42.4666 109.368 42.4236Z" fill="#98A2B3"/>
<path d="M111.775 46.0361C111.689 46.0361 111.604 45.9958 111.551 45.9222L109.201 42.7181C109.186 42.6972 109.174 42.6736 109.164 42.6486C109.151 42.6153 109.138 42.5819 109.121 42.55C109.056 42.4208 109.099 42.2625 109.222 42.1875C109.346 42.1111 109.507 42.143 109.592 42.2597L111.942 45.4639C111.95 45.4764 111.958 45.4889 111.965 45.5014C111.992 45.5542 112.017 45.6083 112.036 45.6639C112.083 45.7944 112.028 45.9389 111.906 46.0028C111.864 46.025 111.82 46.0361 111.775 46.0361Z" fill="#F9FAFB"/>
<path d="M109.425 42.5541L111.775 45.7583C111.794 45.8125 111.811 45.8694 111.822 45.9291L109.472 42.725C109.46 42.6666 109.444 42.6097 109.425 42.5541Z" fill="#667185"/>
<path d="M111.822 46.2069C111.736 46.2069 111.651 46.1666 111.599 46.093L109.249 42.8889C109.225 42.8555 109.208 42.818 109.2 42.7777C109.192 42.7333 109.179 42.6902 109.164 42.6486C109.117 42.518 109.172 42.3736 109.294 42.3097C109.417 42.2444 109.567 42.2791 109.649 42.3902L111.999 45.5944C112.014 45.6152 112.026 45.6389 112.036 45.6639C112.061 45.7319 112.081 45.8027 112.094 45.875C112.119 46.0027 112.053 46.1305 111.933 46.1833C111.897 46.1986 111.86 46.2069 111.822 46.2069Z" fill="#F9FAFB"/>
<path d="M109.472 42.725L111.822 45.9291C111.85 46.0694 111.853 46.2208 111.828 46.3778C111.822 46.4097 111.815 46.4416 111.807 46.475L109.457 43.2708C109.465 43.2375 109.472 43.2055 109.478 43.1736C109.503 43.0166 109.5 42.8666 109.472 42.725Z" fill="#98A2B3"/>
<path d="M111.806 46.75C111.719 46.75 111.636 46.7111 111.583 46.6389L109.233 43.4347C109.185 43.3694 109.168 43.2861 109.188 43.2069C109.194 43.1777 109.2 43.1541 109.204 43.1291C109.224 43.0083 109.222 42.8902 109.2 42.7777C109.175 42.65 109.242 42.5222 109.361 42.4694C109.481 42.4166 109.619 42.4541 109.697 42.5597L112.047 45.7639C112.071 45.7972 112.088 45.8347 112.096 45.875C112.131 46.0514 112.133 46.2347 112.103 46.4208C112.097 46.4569 112.089 46.4944 112.079 46.5333C112.054 46.6389 111.969 46.7222 111.864 46.7444C111.843 46.7486 111.824 46.75 111.806 46.75Z" fill="#F9FAFB"/>
</g>
<path d="M101.938 26.8763C102.331 26.8763 102.6 27.1847 102.539 27.5638L99.4584 46.8763C97.7793 48.5694 96.5946 50.718 96.2209 53.0569L96.0487 54.1388H53.7209L57.9598 27.5624C58.0209 27.1833 58.389 26.8749 58.7821 26.8749H101.938V26.8763ZM79.6918 31.0583C80.5251 31.0583 81.3029 30.4069 81.4321 29.6041C81.5598 28.7999 80.989 28.1499 80.1557 28.1499C79.3237 28.1499 78.5459 28.7999 78.4168 29.6041C78.289 30.4055 78.8598 31.0583 79.6918 31.0583Z" fill="#F9FAFB"/>
<path d="M96.0501 54.418H53.7209C53.6389 54.418 53.5625 54.3819 53.5098 54.3208C53.457 54.2597 53.4334 54.1777 53.4473 54.0972L57.6862 27.5208C57.7681 27.0041 58.25 26.5986 58.7834 26.5986H101.939C102.211 26.5986 102.461 26.7097 102.626 26.9027C102.79 27.0944 102.857 27.3458 102.815 27.6083L99.7348 46.9208C99.7251 46.9777 99.6987 47.0319 99.657 47.0722C97.9681 48.775 96.8459 50.9166 96.4973 53.1013L96.325 54.1833C96.3028 54.318 96.1862 54.418 96.0501 54.418ZM54.0459 53.8625H95.8125L95.9473 53.0139C96.3153 50.7097 97.4389 48.543 99.1987 46.7444L102.265 27.5194C102.281 27.4194 102.258 27.3291 102.203 27.2625C102.143 27.1916 102.049 27.1527 101.939 27.1527H58.782C58.5237 27.1527 58.2723 27.3611 58.2334 27.6069L54.0459 53.8625ZM79.6917 31.3361C79.2001 31.3361 78.7681 31.1458 78.4723 30.8014C78.1848 30.4652 78.0681 30.025 78.1417 29.5611C78.2903 28.6305 79.1931 27.8736 80.1542 27.8736C80.6473 27.8736 81.0806 28.0639 81.3751 28.4097C81.6612 28.7458 81.7792 29.1861 81.7042 29.65C81.557 30.5777 80.6542 31.3361 79.6917 31.3361ZM80.1556 28.4277C79.4556 28.4277 78.7987 28.975 78.6917 29.6472C78.6445 29.9472 78.7167 30.2291 78.8959 30.4389C79.0834 30.6583 79.3653 30.7791 79.6917 30.7791C80.3931 30.7791 81.0501 30.2319 81.157 29.5583C81.2056 29.2583 81.132 28.9763 80.9528 28.7666C80.7667 28.5486 80.4834 28.4277 80.1556 28.4277Z" fill="#F9FAFB"/>
<path d="M118.044 50.4639L120.394 53.6666L119.179 54.293L116.829 51.0903L118.044 50.4639Z" fill="#98A2B3"/>
<path d="M119.179 54.5708C119.093 54.5708 119.008 54.5305 118.956 54.4569L116.606 51.2528C116.557 51.1875 116.54 51.1041 116.56 51.025C116.578 50.9458 116.631 50.8791 116.703 50.8416L117.918 50.2153C118.039 50.1528 118.189 50.1875 118.269 50.2986L120.619 53.5028C120.668 53.568 120.685 53.6514 120.665 53.7305C120.647 53.8097 120.594 53.8764 120.522 53.9139L119.307 54.5403C119.265 54.5611 119.222 54.5708 119.179 54.5708ZM117.246 51.1875L119.262 53.9375L119.978 53.5694L117.961 50.8194L117.246 51.1875Z" fill="#F9FAFB"/>
<path d="M116.776 50.4639H118.046L116.831 51.0903C116.819 50.8791 116.801 50.6694 116.776 50.4639Z" fill="#98A2B3"/>
<path d="M116.829 51.368C116.781 51.368 116.733 51.3555 116.69 51.3305C116.608 51.2833 116.556 51.1986 116.551 51.1042C116.542 50.9014 116.524 50.6972 116.5 50.4972C116.49 50.418 116.515 50.3389 116.568 50.2792C116.621 50.2194 116.696 50.1861 116.776 50.1861H118.046C118.174 50.1861 118.286 50.2736 118.315 50.3986C118.346 50.5236 118.286 50.6528 118.172 50.7111L116.957 51.3375C116.917 51.3569 116.874 51.368 116.829 51.368Z" fill="#F9FAFB"/>
<path d="M118.046 50.4639L120.394 53.6666L118.683 64.4014L116.333 61.1972L118.046 50.4639Z" fill="#D0D5DD"/>
<path d="M118.683 64.6792C118.596 64.6792 118.512 64.6375 118.46 64.5653L116.11 61.3611C116.065 61.3014 116.047 61.2264 116.06 61.1528L117.772 50.4194C117.79 50.3083 117.872 50.2195 117.98 50.1931C118.089 50.1667 118.204 50.2083 118.269 50.2986L120.619 53.5028C120.664 53.5625 120.682 53.6375 120.669 53.7111L118.957 64.4445C118.939 64.5556 118.857 64.6445 118.749 64.6708C118.726 64.6764 118.704 64.6792 118.683 64.6792ZM116.626 61.1264L118.514 63.7L120.103 53.7375L118.215 51.1639L116.626 61.1264Z" fill="#F9FAFB"/>
<path d="M104.328 66.4874L106.676 69.6916L104.308 84.5541L101.958 81.3499L104.328 66.4874Z" fill="#D0D5DD"/>
<path d="M104.308 84.8319C104.221 84.8319 104.137 84.7902 104.085 84.718L101.735 81.5138C101.69 81.4541 101.672 81.3791 101.685 81.3055L104.054 66.443C104.072 66.3319 104.154 66.243 104.262 66.2166C104.371 66.1902 104.486 66.2319 104.551 66.3222L106.901 69.5263C106.946 69.5861 106.964 69.6611 106.951 69.7347L104.582 84.5972C104.564 84.7083 104.482 84.7972 104.374 84.8236C104.351 84.8291 104.329 84.8319 104.308 84.8319ZM102.25 81.2791L104.137 83.8527L106.383 69.7611L104.496 67.1875L102.25 81.2791Z" fill="#F9FAFB"/>
<path d="M104.894 62.9416L104.758 63.793H101.964C101.726 65.2805 102.785 66.4889 104.328 66.4889L101.958 81.35H99.2748H44.0693H38.354L42.2818 56.7236L42.6943 54.1389H52.1457H53.7221H96.0512L95.2734 59.018L94.9443 59.5875H49.6207L49.4457 60.6875H94.3068L93.0026 62.9402H94.6457H104.894V62.9416ZM99.4221 67.3736L99.5971 66.2736H48.554L48.379 67.3736H99.4221ZM87.8665 74.0583L88.0415 72.9583H57.9776L57.8026 74.0583H87.8665Z" fill="#E4E7EC"/>
<path d="M101.958 81.6278H38.3527C38.2708 81.6278 38.1944 81.5917 38.1416 81.5305C38.0888 81.468 38.0652 81.3875 38.0791 81.3069L42.4194 54.0972C42.4402 53.9625 42.5569 53.8625 42.6944 53.8625H96.0513C96.1333 53.8625 96.2097 53.8986 96.2624 53.9597C96.3152 54.0222 96.3388 54.1028 96.3249 54.1833L95.5472 59.0625C95.5416 59.0958 95.5305 59.1278 95.5138 59.1583L95.1847 59.7278C95.1347 59.8139 95.043 59.8667 94.9444 59.8667H49.8569L49.7708 60.4111H94.3055C94.4041 60.4111 94.4972 60.4639 94.5458 60.55C94.5958 60.6361 94.5958 60.7417 94.5458 60.8278L93.4833 62.6639H104.893C104.975 62.6639 105.051 62.7 105.104 62.7611C105.157 62.8236 105.18 62.9042 105.167 62.9847L105.03 63.8361C105.008 63.9708 104.893 64.0708 104.755 64.0708H102.21C102.178 64.6083 102.336 65.1083 102.668 65.4958C103.061 65.9569 103.65 66.2111 104.325 66.2111C104.407 66.2111 104.483 66.2472 104.536 66.3083C104.589 66.3708 104.612 66.4514 104.599 66.5319L102.229 81.3944C102.211 81.5292 102.094 81.6278 101.958 81.6278ZM38.6791 81.0722H101.721L104.004 66.7486C103.299 66.6764 102.683 66.3653 102.247 65.8555C101.761 65.2861 101.562 64.5375 101.689 63.7486C101.71 63.6139 101.826 63.5139 101.964 63.5139H104.522L104.569 63.218H93.0027C92.9041 63.218 92.811 63.1653 92.7624 63.0792C92.7124 62.993 92.7124 62.8875 92.7624 62.8014L93.8249 60.9653H49.4458C49.3638 60.9653 49.2874 60.9292 49.2347 60.868C49.1819 60.8055 49.1583 60.725 49.1722 60.6444L49.3472 59.5444C49.368 59.4097 49.4847 59.3097 49.6222 59.3097H94.7833L95.0069 58.9236L95.7263 54.4167H42.9305L38.6791 81.0722ZM87.8666 74.3361H57.8027C57.7208 74.3361 57.6444 74.3 57.5916 74.2389C57.5388 74.1764 57.5152 74.0958 57.5291 74.0153L57.7041 72.9153C57.7249 72.7805 57.8416 72.6805 57.9791 72.6805H88.0416C88.1236 72.6805 88.1999 72.7167 88.2527 72.7778C88.3055 72.8403 88.3291 72.9208 88.3152 73.0014L88.1402 74.1014C88.1194 74.2361 88.0027 74.3361 87.8666 74.3361ZM58.1277 73.7805H87.6291L87.7152 73.2361H58.2138L58.1277 73.7805ZM99.4222 67.6514H48.3791C48.2972 67.6514 48.2208 67.6153 48.168 67.5542C48.1152 67.4917 48.0916 67.4111 48.1055 67.3305L48.2805 66.2305C48.3013 66.0958 48.418 65.9958 48.5555 65.9958H99.5985C99.6805 65.9958 99.7569 66.0319 99.8097 66.093C99.8624 66.1555 99.886 66.2361 99.8722 66.3167L99.6972 67.4167C99.6749 67.5514 99.5597 67.6514 99.4222 67.6514ZM48.7041 67.0958H99.1847L99.2708 66.5514H48.7916L48.7041 67.0958Z" fill="#F9FAFB"/>
<path d="M99.275 81.35L101.624 84.5541L100.988 88.5416L98.6389 85.3389L99.275 81.35Z" fill="#D0D5DD"/>
<path d="M100.987 88.8194C100.9 88.8194 100.817 88.7778 100.764 88.7056L98.4139 85.5014C98.3694 85.4417 98.3514 85.3667 98.3639 85.2931L99 81.3056C99.018 81.1945 99.1 81.1056 99.2083 81.0792C99.3166 81.0528 99.4319 81.0945 99.4972 81.1847L101.847 84.3889C101.892 84.4486 101.91 84.5236 101.897 84.5972L101.261 88.5847C101.243 88.6958 101.161 88.7847 101.053 88.8111C101.032 88.8167 101.01 88.8194 100.987 88.8194ZM98.9305 85.2681L100.818 87.8417L101.331 84.625L99.4444 82.0514L98.9305 85.2681Z" fill="#F9FAFB"/>
<path d="M89.4625 110.51H44.5792C44.1472 110.51 43.7903 110.324 43.5764 110.032L45.9264 113.236C46.1417 113.529 46.4986 113.714 46.9292 113.714H91.8139L89.4625 110.51Z" fill="#667185"/>
<path d="M91.8125 113.992H46.9292C46.425 113.992 45.9778 113.776 45.7014 113.4L43.3514 110.196C43.2612 110.072 43.2875 109.899 43.4112 109.807C43.5348 109.717 43.7084 109.743 43.8 109.867C43.9695 110.099 44.2542 110.232 44.5792 110.232H89.4639C89.5528 110.232 89.6362 110.274 89.6875 110.346L92.0375 113.55C92.1 113.635 92.1084 113.746 92.0612 113.84C92.0139 113.933 91.9181 113.992 91.8125 113.992ZM44.4723 110.785L46.15 113.071C46.3195 113.303 46.6042 113.436 46.9292 113.436H91.2653L89.3237 110.787H44.5792C44.5431 110.787 44.507 110.787 44.4723 110.785Z" fill="#F9FAFB"/>
<path d="M94.6208 87.1014L93.0486 96.9625L91.1069 109.138C91.0972 109.196 91.0833 109.253 91.068 109.308C91.0638 109.325 91.0583 109.34 91.0527 109.357C91.0388 109.4 91.0236 109.442 91.0055 109.482C90.9999 109.496 90.9944 109.51 90.9874 109.525C90.9624 109.578 90.9361 109.631 90.9055 109.681C90.8972 109.694 90.8875 109.707 90.8791 109.721C90.8597 109.75 90.8416 109.779 90.8208 109.807C90.8069 109.825 90.793 109.843 90.7777 109.861C90.7611 109.881 90.7458 109.901 90.7291 109.921C90.7124 109.94 90.6958 109.958 90.6777 109.976C90.6624 109.993 90.6472 110.008 90.6305 110.025C90.6124 110.043 90.5916 110.06 90.5722 110.078C90.5569 110.092 90.5402 110.107 90.5236 110.119C90.5041 110.136 90.4833 110.151 90.4625 110.167C90.4444 110.181 90.4277 110.194 90.4083 110.207C90.3888 110.219 90.3694 110.232 90.35 110.244C90.3277 110.258 90.3055 110.274 90.2833 110.286C90.2666 110.296 90.2499 110.304 90.2333 110.313C90.2041 110.328 90.1749 110.344 90.1444 110.358C90.1291 110.365 90.1125 110.372 90.0972 110.379C90.0555 110.397 90.0125 110.414 89.968 110.428C89.95 110.433 89.9319 110.44 89.9138 110.446C89.8986 110.45 89.8819 110.454 89.8666 110.458C89.8388 110.465 89.8097 110.472 89.7805 110.479C89.7638 110.482 89.7486 110.486 89.7319 110.489C89.7013 110.494 89.6708 110.499 89.6402 110.501C89.6263 110.503 89.6111 110.506 89.5972 110.507C89.5527 110.511 89.5069 110.514 89.4611 110.514L91.8111 113.718C91.8569 113.718 91.9013 113.715 91.9472 113.711C91.9611 113.71 91.9763 113.707 91.9902 113.706C92.0208 113.701 92.0513 113.697 92.0819 113.693C92.0986 113.69 92.1138 113.688 92.1305 113.683C92.1597 113.678 92.1875 113.671 92.2166 113.663C92.2319 113.658 92.2486 113.654 92.2638 113.65C92.2722 113.647 92.2805 113.646 92.2888 113.643C92.2986 113.64 92.3083 113.635 92.318 113.632C92.3611 113.617 92.4041 113.601 92.4458 113.583C92.4555 113.579 92.4652 113.576 92.4749 113.572C92.4819 113.569 92.4875 113.565 92.493 113.563C92.5236 113.549 92.5527 113.533 92.5819 113.517C92.5944 113.51 92.6083 113.504 92.6208 113.497C92.6249 113.494 92.6277 113.493 92.6319 113.49C92.6541 113.476 92.6763 113.463 92.6986 113.449C92.7138 113.439 92.7305 113.429 92.7458 113.418C92.7486 113.415 92.7527 113.413 92.7555 113.411C92.7736 113.399 92.7916 113.385 92.8097 113.371C92.8263 113.358 92.8444 113.346 92.8597 113.333C92.8638 113.331 92.8666 113.328 92.8708 113.324C92.8874 113.31 92.9027 113.296 92.9194 113.282C92.9347 113.268 92.9513 113.256 92.9652 113.242C92.9694 113.238 92.9736 113.233 92.9763 113.229C92.993 113.214 93.0083 113.197 93.0236 113.181C93.0361 113.167 93.0513 113.154 93.0638 113.14C93.068 113.136 93.0708 113.131 93.075 113.126C93.0916 113.107 93.1083 113.088 93.1236 113.067C93.1347 113.053 93.1472 113.04 93.1569 113.026C93.1597 113.022 93.1624 113.018 93.1652 113.014C93.1861 112.986 93.2055 112.957 93.2236 112.928C93.2305 112.917 93.2402 112.906 93.2472 112.893C93.2486 112.892 93.2486 112.889 93.25 112.888C93.2805 112.838 93.3083 112.785 93.3319 112.732C93.3347 112.728 93.3374 112.722 93.3388 112.718C93.343 112.708 93.3458 112.699 93.3499 112.689C93.368 112.647 93.3833 112.606 93.3972 112.564C93.4027 112.547 93.4083 112.532 93.4124 112.515C93.4291 112.46 93.443 112.403 93.4513 112.344L95.393 100.169L96.9652 90.3083L97.2458 88.5458L94.8958 85.3417L94.6208 87.1014Z" fill="#98A2B3"/>
<path d="M91.8125 113.992C91.7236 113.992 91.6403 113.95 91.5889 113.878L89.2389 110.674C89.1764 110.589 89.168 110.478 89.2153 110.383C89.2625 110.29 89.3583 110.231 89.4625 110.231C89.5 110.231 89.5361 110.228 89.5736 110.225L89.6083 110.221C89.6347 110.218 89.6597 110.214 89.6847 110.21L89.725 110.201C89.7486 110.196 89.7722 110.19 89.7958 110.185L89.8806 110.158C89.9167 110.146 89.9528 110.132 89.9875 110.117L90.0278 110.1C90.0528 110.089 90.0778 110.075 90.1028 110.062L90.1444 110.04C90.1583 110.032 90.1736 110.022 90.1875 110.014L90.2208 109.993C90.2306 109.986 90.2417 109.981 90.2514 109.974C90.2611 109.967 90.2708 109.96 90.2792 109.953L90.3097 109.931C90.3222 109.921 90.3361 109.911 90.3486 109.901L90.3889 109.865C90.4097 109.847 90.4236 109.835 90.4375 109.821C90.4472 109.811 90.4569 109.801 90.4653 109.792L90.4764 109.779C90.4944 109.76 90.5069 109.747 90.5194 109.733C90.5319 109.719 90.543 109.706 90.5542 109.69L90.5708 109.669C90.5792 109.658 90.5875 109.649 90.5958 109.637C90.6125 109.614 90.6292 109.59 90.6444 109.565L90.6667 109.532C90.6903 109.492 90.7125 109.45 90.7347 109.403L90.75 109.368C90.7639 109.335 90.7778 109.301 90.7889 109.267L90.8014 109.228C90.8167 109.175 90.8264 109.131 90.8333 109.09L94.6292 85.2916C94.6472 85.1805 94.7292 85.0916 94.8375 85.0653C94.9458 85.0389 95.0611 85.0805 95.1264 85.1708L97.4764 88.375C97.5208 88.4347 97.5389 88.5097 97.5264 88.5833L93.7305 112.382C93.7208 112.446 93.7056 112.512 93.6833 112.586C93.6792 112.601 93.6736 112.618 93.668 112.633C93.6486 112.693 93.6292 112.743 93.6083 112.792C93.6055 112.8 93.6014 112.812 93.5944 112.826C93.5917 112.832 93.5875 112.842 93.5833 112.849C93.5555 112.908 93.5264 112.964 93.4944 113.017C93.493 113.019 93.4917 113.022 93.4903 113.025C93.4792 113.043 93.4722 113.054 93.4639 113.065C93.4375 113.104 93.4153 113.139 93.3917 113.171C93.3917 113.171 93.3861 113.179 93.3806 113.186C93.3722 113.199 93.3611 113.21 93.3514 113.222L93.343 113.233C93.3194 113.262 93.3042 113.282 93.2861 113.301C93.2847 113.304 93.2778 113.311 93.2722 113.318C93.2611 113.331 93.25 113.342 93.2375 113.354L93.2264 113.365C93.2028 113.39 93.1875 113.406 93.1722 113.421L93.1583 113.435C93.1458 113.447 93.1319 113.46 93.1181 113.471L93.0944 113.492C93.0792 113.504 93.0653 113.518 93.05 113.531C93.0458 113.535 93.0403 113.539 93.0361 113.543C93.0236 113.553 93.0097 113.564 92.9944 113.574L92.9667 113.594C92.95 113.607 92.9347 113.619 92.9181 113.631C92.8931 113.649 92.8792 113.657 92.8653 113.665L92.8389 113.682C92.818 113.696 92.7958 113.71 92.7736 113.722L92.7611 113.731C92.7486 113.737 92.7361 113.744 92.7236 113.75C92.6819 113.772 92.6486 113.79 92.6139 113.806C92.6097 113.808 92.6014 113.812 92.593 113.817C92.5792 113.822 92.5681 113.828 92.5556 113.832C92.5097 113.851 92.4597 113.871 92.4097 113.887C92.4014 113.892 92.3889 113.896 92.3764 113.9C92.3667 113.903 92.3569 113.906 92.3486 113.908C92.3319 113.914 92.3153 113.918 92.3 113.922C92.2583 113.933 92.225 113.942 92.1917 113.949C92.1736 113.953 92.1542 113.957 92.1347 113.96C92.0986 113.967 92.0625 113.971 92.0264 113.975C92.0014 113.978 91.9889 113.979 91.9764 113.981C91.9194 113.989 91.8667 113.992 91.8125 113.992ZM89.9597 110.718L91.9472 113.428L91.9583 113.426C91.9833 113.424 92.0083 113.419 92.0333 113.415L92.0736 113.407C92.0986 113.401 92.1222 113.396 92.1458 113.39L92.1847 113.379C92.1875 113.378 92.2028 113.374 92.2055 113.374C92.2097 113.372 92.2194 113.368 92.2305 113.364C92.2667 113.351 92.3028 113.337 92.3375 113.322C92.3458 113.319 92.3542 113.315 92.3625 113.312C92.3681 113.31 92.3722 113.307 92.3778 113.306C92.4028 113.294 92.4278 113.281 92.4528 113.267L92.4792 113.253C92.4833 113.25 92.4889 113.247 92.4931 113.244C92.5083 113.235 92.5236 113.226 92.5375 113.217L92.5917 113.182C92.6097 113.169 92.618 113.162 92.6278 113.154L92.6861 113.11C92.7042 113.094 92.7125 113.086 92.7222 113.079L92.7847 113.022C92.7944 113.012 92.8042 113.003 92.8139 112.992L92.8236 112.982L92.8681 112.935C92.8792 112.922 92.8903 112.908 92.9014 112.894L92.9444 112.84C92.9625 112.817 92.9778 112.792 92.993 112.768L93.0097 112.743C93.0111 112.74 93.0125 112.739 93.0139 112.736C93.0389 112.696 93.0611 112.653 93.0833 112.607C93.0847 112.604 93.0875 112.6 93.0889 112.594C93.0903 112.589 93.0944 112.581 93.0972 112.572C93.1125 112.537 93.125 112.504 93.1361 112.469L93.1486 112.431C93.1639 112.378 93.1736 112.333 93.1806 112.293L96.9583 88.6097L95.0708 86.0361L91.3805 109.181C91.3708 109.244 91.3555 109.31 91.3333 109.385C91.3292 109.401 91.3236 109.418 91.318 109.435C91.2986 109.493 91.2805 109.542 91.2597 109.59C91.25 109.615 91.2444 109.628 91.2375 109.64C91.2083 109.704 91.175 109.767 91.1403 109.822C91.1333 109.835 91.125 109.846 91.1167 109.858C91.0875 109.903 91.0653 109.937 91.0403 109.969C91.0278 109.986 91.0139 110.004 91 110.019L90.9903 110.031C90.968 110.058 90.9514 110.079 90.9333 110.099C90.9153 110.118 90.8972 110.137 90.8792 110.157L90.8639 110.174C90.85 110.189 90.8347 110.204 90.8194 110.218C90.8 110.237 90.7792 110.256 90.7597 110.274L90.7403 110.29C90.7264 110.303 90.7125 110.315 90.6972 110.328C90.6778 110.343 90.6583 110.358 90.6389 110.372L90.6125 110.392C90.5972 110.404 90.5805 110.417 90.5639 110.428C90.5472 110.439 90.5305 110.45 90.5125 110.461L90.4833 110.479C90.4625 110.493 90.4403 110.507 90.4194 110.519C90.4056 110.528 90.3903 110.535 90.3764 110.543L90.3625 110.55C90.3278 110.568 90.2944 110.586 90.2597 110.603C90.2444 110.61 90.2305 110.615 90.2167 110.622C90.1555 110.649 90.1056 110.668 90.0556 110.685L90.0417 110.69C90.025 110.696 90.0097 110.701 89.9931 110.707C89.9833 110.712 89.9722 110.715 89.9597 110.718Z" fill="#F9FAFB"/>
<path d="M116.056 62.9417L118.404 66.1444L112.979 100.165L110.629 96.9625L116.056 62.9417Z" fill="#D0D5DD"/>
<path d="M112.979 100.443C112.892 100.443 112.808 100.401 112.756 100.329L110.406 97.125C110.361 97.0653 110.343 96.9903 110.356 96.9167L115.782 62.8958C115.8 62.7847 115.882 62.6958 115.99 62.6694C116.099 62.6431 116.214 62.6847 116.279 62.775L118.629 65.9792C118.674 66.0389 118.692 66.1139 118.679 66.1875L113.253 100.208C113.235 100.319 113.153 100.408 113.044 100.435C113.022 100.442 113 100.443 112.979 100.443ZM110.922 96.8917L112.81 99.4653L118.112 66.2153L116.225 63.6417L110.922 96.8917Z" fill="#F9FAFB"/>
<path d="M118.683 64.4L119.135 66.1431L116.785 62.9403L116.333 61.1972L115.768 59.0208L116.718 53.0583C116.825 52.3847 116.861 51.7278 116.829 51.0903C116.818 50.8792 116.8 50.6708 116.776 50.4639C116.757 50.3 116.731 50.1389 116.703 49.9806C116.699 49.9528 116.693 49.9264 116.687 49.9C116.658 49.7472 116.625 49.5972 116.589 49.4472C116.582 49.4181 116.574 49.3875 116.567 49.3597C116.528 49.2083 116.485 49.0569 116.437 48.9083C116.435 48.9014 116.432 48.8931 116.431 48.8861C116.39 48.7611 116.344 48.6389 116.297 48.5167C116.268 48.4375 116.236 48.3611 116.204 48.2833C116.171 48.2014 116.136 48.1208 116.1 48.0403C116.065 47.9639 116.031 47.8903 115.992 47.8139C115.953 47.7319 115.911 47.6514 115.867 47.5708C115.835 47.5097 115.803 47.4514 115.769 47.3917C115.721 47.3083 115.672 47.225 115.621 47.1431C115.586 47.0875 115.551 47.0292 115.515 46.975C115.436 46.8528 115.354 46.7306 115.269 46.6139L117.618 49.8167C117.687 49.9111 117.754 50.0042 117.818 50.1014C117.835 50.125 117.85 50.1514 117.865 50.1778C117.901 50.2319 117.936 50.2903 117.971 50.3458C118.022 50.4278 118.071 50.5111 118.119 50.5944C118.153 50.6542 118.185 50.7125 118.217 50.7736C118.237 50.8111 118.261 50.85 118.281 50.8889C118.301 50.9319 118.321 50.975 118.342 51.0167C118.378 51.0931 118.414 51.1667 118.45 51.2431C118.486 51.3236 118.519 51.4042 118.554 51.4861C118.586 51.5639 118.617 51.6403 118.647 51.7194C118.661 51.7542 118.676 51.7889 118.69 51.8236C118.722 51.9111 118.751 52.0014 118.779 52.0903C118.782 52.0972 118.785 52.1042 118.789 52.1111C118.836 52.2597 118.878 52.4111 118.918 52.5625C118.925 52.5931 118.933 52.6222 118.94 52.6514C118.972 52.7806 119.003 52.9111 119.028 53.0431C119.032 53.0625 119.035 53.0833 119.039 53.1042C119.044 53.1319 119.049 53.1569 119.054 53.1847C119.083 53.3444 119.108 53.5042 119.128 53.6681C119.151 53.8736 119.171 54.0833 119.181 54.2945C119.212 54.9306 119.178 55.5889 119.069 56.2639L118.119 62.225L118.683 64.4Z" fill="#D0D5DD"/>
<path d="M119.135 66.4222C119.049 66.4222 118.964 66.3819 118.911 66.3083L116.561 63.1055C116.54 63.0778 116.525 63.0444 116.517 63.0111L115.5 59.0903C115.49 59.0528 115.489 59.0139 115.494 58.9764L116.444 53.0139C116.547 52.3722 116.583 51.7292 116.551 51.1042C116.542 50.9069 116.524 50.7028 116.5 50.4972C116.483 50.3569 116.46 50.2042 116.428 50.0305C116.424 50.0055 116.421 49.9847 116.415 49.9639C116.387 49.8167 116.356 49.6722 116.317 49.5125L116.296 49.4305C116.254 49.2708 116.214 49.1292 116.174 49C116.169 48.9875 116.165 48.9764 116.161 48.9639C116.119 48.8375 116.072 48.7111 116.035 48.6153C116.006 48.5375 115.976 48.4639 115.946 48.3917C115.912 48.3083 115.879 48.2319 115.843 48.1542C115.81 48.0833 115.776 48.0111 115.74 47.9389C115.701 47.8569 115.662 47.7819 115.621 47.7055C115.587 47.643 115.557 47.5861 115.525 47.5305C115.481 47.4528 115.433 47.3722 115.383 47.293L115.36 47.2555C115.333 47.2139 115.308 47.1722 115.281 47.1305C115.196 46.9986 115.118 46.8847 115.042 46.7792C114.951 46.6555 114.979 46.4819 115.103 46.3917C115.226 46.3014 115.4 46.3278 115.49 46.4514L117.839 49.6542C117.918 49.7597 117.986 49.8569 118.047 49.9514C118.064 49.975 118.082 50.0055 118.1 50.0361C118.122 50.0694 118.151 50.1153 118.179 50.1611L118.203 50.2C118.256 50.2833 118.306 50.3694 118.356 50.4555C118.392 50.5208 118.425 50.5819 118.458 50.6444L118.471 50.668C118.489 50.7 118.507 50.7319 118.524 50.7653C118.537 50.7944 118.551 50.8222 118.565 50.8514L118.615 50.9555C118.643 51.0125 118.669 51.0694 118.696 51.1264C118.726 51.193 118.753 51.2569 118.781 51.3222L118.804 51.3764C118.837 51.4583 118.869 51.5375 118.9 51.6194L118.942 51.7222C118.975 51.8153 119.004 51.9042 119.033 51.993L119.04 52.0083C119.043 52.0153 119.046 52.0208 119.047 52.0278C119.092 52.168 119.135 52.3208 119.181 52.493L119.204 52.5847C119.243 52.7417 119.272 52.8708 119.296 52.9903C119.299 53.0042 119.304 53.0292 119.307 53.0542C119.308 53.0625 119.312 53.0792 119.315 53.0972L119.321 53.1236C119.357 53.3194 119.382 53.4819 119.4 53.6347C119.426 53.8542 119.444 54.0708 119.454 54.2805C119.487 54.9444 119.449 55.6264 119.34 56.3069L118.399 62.2111L118.95 64.3319L119.401 66.075C119.435 66.2042 119.372 66.3389 119.251 66.3958C119.217 66.4125 119.175 66.4222 119.135 66.4222ZM117.04 62.8194L118.503 64.8125L117.849 62.293C117.839 62.2555 117.837 62.2167 117.843 62.1792L118.793 56.218C118.896 55.575 118.932 54.9319 118.9 54.3069C118.89 54.1097 118.872 53.9055 118.849 53.7C118.832 53.5597 118.808 53.4069 118.776 53.2333C118.775 53.2264 118.771 53.2083 118.768 53.1903L118.762 53.1639C118.761 53.1583 118.76 53.1514 118.76 53.1458C118.757 53.1264 118.756 53.1167 118.753 53.1055C118.729 52.9847 118.703 52.8653 118.665 52.718L118.643 52.6292C118.603 52.4736 118.562 52.3347 118.522 52.2069L118.517 52.193C118.514 52.1875 118.512 52.1805 118.51 52.1736C118.482 52.0875 118.454 52.0014 118.424 51.9167L118.383 51.8194C118.353 51.7403 118.324 51.6653 118.293 51.5903L118.271 51.5375C118.244 51.4764 118.219 51.4167 118.192 51.3555C118.168 51.3028 118.142 51.25 118.115 51.1958L118.062 51.0861C118.051 51.0625 118.04 51.0375 118.028 51.0125C118.015 50.9889 118.003 50.9653 117.989 50.9417L117.969 50.9083C117.935 50.843 117.904 50.7875 117.872 50.7305C117.828 50.6528 117.781 50.5722 117.731 50.493L117.704 50.4514C117.679 50.4111 117.654 50.3694 117.628 50.3305C117.625 50.3264 117.622 50.3222 117.619 50.318C117.607 50.2958 117.596 50.2764 117.583 50.2583C117.525 50.1694 117.462 50.0805 117.389 49.9819L116.799 49.1778C116.808 49.2139 116.818 49.2514 116.828 49.2889L116.85 49.3764C116.893 49.5514 116.925 49.7042 116.953 49.8486C116.958 49.868 116.964 49.9014 116.969 49.9347C117.001 50.1153 117.028 50.2792 117.046 50.4305C117.072 50.65 117.09 50.8667 117.1 51.0764C117.133 51.7403 117.094 52.4222 116.986 53.1014L116.044 59.0069L117.04 62.8194Z" fill="#F9FAFB"/>
<path d="M99.275 81.35L98.6389 85.3389H94.9028H93.325H48.7445H47.1695H43.4333L44.0695 81.35H99.275Z" fill="#D0D5DD"/>
<path d="M98.6388 85.6167H43.4333C43.3513 85.6167 43.275 85.5806 43.2222 85.5194C43.1694 85.4569 43.1458 85.3764 43.1597 85.2958L43.7958 81.3083C43.8166 81.1736 43.9333 81.0736 44.0708 81.0736H99.2763C99.3583 81.0736 99.4347 81.1097 99.4875 81.1708C99.5402 81.2333 99.5638 81.3139 99.55 81.3944L98.9138 85.3819C98.8916 85.5167 98.775 85.6167 98.6388 85.6167ZM43.7583 85.0611H98.4013L98.9486 81.6292H44.3055L43.7583 85.0611Z" fill="#F9FAFB"/>
<path d="M45.593 105.099L48.7444 85.3375H93.325L90.1736 105.099C90.1138 105.476 89.7458 105.785 89.3527 105.785H46.1972C45.8027 105.786 45.5333 105.478 45.593 105.099Z" fill="#F9FAFB"/>
<path d="M89.3528 106.064H46.1973C45.925 106.064 45.6736 105.953 45.5084 105.758C45.3445 105.567 45.2778 105.317 45.3195 105.056L48.4709 85.2944C48.4917 85.1597 48.6084 85.0597 48.7459 85.0597H93.3264C93.4084 85.0597 93.4847 85.0958 93.5375 85.1569C93.5903 85.2194 93.6139 85.3 93.6 85.3805L90.4486 105.142C90.3653 105.658 89.8848 106.064 89.3528 106.064ZM48.982 85.6166L45.8681 105.143C45.8528 105.242 45.875 105.332 45.932 105.399C45.9931 105.469 46.0875 105.508 46.1973 105.508H89.3528C89.6098 105.508 89.8598 105.301 89.9 105.056L93 85.6166H48.982Z" fill="#F9FAFB"/>
<path d="M101.958 81.35H99.275H44.0694H38.3528L40.7028 84.5541H46.4181H101.624H104.308L101.958 81.35Z" fill="#D0D5DD"/>
<path d="M104.308 84.8319H40.7029C40.614 84.8319 40.5307 84.7902 40.4793 84.718L38.1293 81.5139C38.0668 81.4291 38.0584 81.318 38.1057 81.2236C38.1529 81.1305 38.2487 81.0708 38.3529 81.0708H101.958C102.047 81.0708 102.131 81.1125 102.182 81.1847L104.532 84.3889C104.595 84.4736 104.603 84.5847 104.556 84.6791C104.508 84.7722 104.413 84.8319 104.308 84.8319ZM40.8432 84.2764H103.758L101.817 81.6277H38.9015L40.8432 84.2764Z" fill="#F9FAFB"/>
<path d="M100.988 88.5416H45.7834L43.4333 85.3389H98.6389L100.988 88.5416Z" fill="#D0D5DD"/>
<path d="M100.988 88.8194H45.7834C45.6946 88.8194 45.6112 88.7777 45.5598 88.7055L43.2098 85.5027C43.1473 85.418 43.139 85.3069 43.1862 85.2125C43.2334 85.1194 43.3293 85.0597 43.4334 85.0597H98.639C98.7279 85.0597 98.8112 85.1014 98.8626 85.1736L101.213 88.3764C101.275 88.4611 101.283 88.5722 101.236 88.6666C101.189 88.7611 101.093 88.8194 100.988 88.8194ZM45.9237 88.2639H100.44L98.4987 85.6166H43.9821L45.9237 88.2639Z" fill="#F9FAFB"/>
<path d="M94.9416 59.5889L94.3055 60.6875H49.4458L49.6208 59.5889H94.9416Z" fill="#98A2B3"/>
<path d="M94.3056 60.9652H49.4445C49.3626 60.9652 49.2862 60.9291 49.2334 60.868C49.1806 60.8069 49.157 60.725 49.1709 60.6444L49.3459 59.5444C49.3667 59.4097 49.4834 59.3097 49.6209 59.3097H94.9417C95.0403 59.3097 95.1334 59.3625 95.182 59.4486C95.232 59.5347 95.232 59.6402 95.182 59.7264L94.5459 60.8264C94.4973 60.9125 94.4056 60.9652 94.3056 60.9652ZM49.7709 60.4097H94.1459L94.4612 59.8652H49.857L49.7709 60.4097Z" fill="#98A2B3"/>
<path d="M88.0416 72.9583L87.8666 74.0583H57.8027L57.9777 72.9583H88.0416Z" fill="#98A2B3"/>
<path d="M87.8666 74.3361H57.8027C57.7207 74.3361 57.6443 74.3 57.5916 74.2389C57.5388 74.1764 57.5152 74.0958 57.5291 74.0153L57.7041 72.9153C57.7249 72.7805 57.8416 72.6805 57.9791 72.6805H88.0416C88.1235 72.6805 88.1999 72.7167 88.2527 72.7778C88.3054 72.8403 88.3291 72.9208 88.3152 73.0014L88.1402 74.1014C88.1193 74.2361 88.0027 74.3361 87.8666 74.3361ZM58.1277 73.7805H87.6291L87.7152 73.2361H58.2138L58.1277 73.7805Z" fill="#98A2B3"/>
<path d="M99.5986 66.2736L99.4222 67.3736H48.3792L48.5542 66.2736H99.5986Z" fill="#98A2B3"/>
<path d="M99.4221 67.6513H48.3791C48.2971 67.6513 48.2208 67.6152 48.168 67.5541C48.1152 67.493 48.0916 67.4111 48.1055 67.3305L48.2805 66.2305C48.3013 66.0958 48.418 65.9958 48.5555 65.9958H99.5985C99.6805 65.9958 99.7569 66.0319 99.8096 66.093C99.8624 66.1541 99.886 66.2361 99.8721 66.3166L99.6971 67.4166C99.6749 67.5513 99.5596 67.6513 99.4221 67.6513ZM48.7041 67.0958H99.1846L99.2708 66.5513H48.7916L48.7041 67.0958Z" fill="#98A2B3"/>
<path d="M108.267 41.7944C109.057 41.7944 109.599 42.4111 109.478 43.175C109.472 43.2069 109.465 43.2389 109.457 43.2722C111.668 43.575 113.531 44.5861 114.832 46.0694C115.886 47.2694 116.571 48.7778 116.776 50.4639C116.801 50.6694 116.819 50.8792 116.829 51.0903C116.861 51.7264 116.826 52.3847 116.718 53.0583L115.767 59.0194L116.332 61.1972L116.785 62.9403H116.054H115.142H104.893H94.6444H93.0013L94.3055 60.6875L94.9416 59.5875L95.2708 59.018L96.0486 54.1389L96.2208 53.0569C96.5944 50.718 97.7791 48.568 99.4583 46.8764C100.015 46.3153 100.625 45.8055 101.278 45.3542C102.858 44.2625 104.689 43.5222 106.604 43.2694C106.607 43.2375 106.61 43.2055 106.614 43.1736C106.737 42.4111 107.476 41.7944 108.267 41.7944Z" fill="#D0D5DD"/>
<path d="M116.786 63.2194H93.0028C92.9041 63.2194 92.8111 63.1667 92.7625 63.0805C92.7125 62.9944 92.7125 62.8889 92.7625 62.8028L95.0055 58.9264L95.9486 53.0153C96.3208 50.6833 97.4666 48.493 99.2625 46.6819C99.8305 46.1097 100.456 45.5861 101.122 45.1264C102.718 44.025 104.525 43.3 106.362 43.025C106.553 42.1847 107.385 41.5167 108.267 41.5167C108.737 41.5167 109.153 41.6986 109.436 42.0305C109.674 42.3083 109.79 42.6625 109.771 43.0389C111.865 43.3861 113.729 44.3903 115.04 45.8861C116.147 47.1472 116.843 48.7194 117.051 50.4305C117.078 50.643 117.096 50.8597 117.107 51.0764C117.14 51.7389 117.101 52.4208 116.993 53.1028L116.051 59.0069L117.056 62.8722C117.078 62.9555 117.058 63.0444 117.007 63.1125C116.956 63.1805 116.872 63.2194 116.786 63.2194ZM93.4833 62.6639H116.426L115.499 59.0903C115.489 59.0528 115.487 59.0139 115.493 58.9764L116.444 53.0153C116.547 52.3722 116.583 51.7292 116.553 51.1042C116.543 50.9014 116.525 50.6972 116.501 50.4986C116.307 48.8986 115.658 47.4305 114.624 46.2528C113.324 44.7708 111.525 43.8361 109.419 43.5472C109.342 43.5361 109.272 43.493 109.228 43.4292C109.183 43.3653 109.168 43.2847 109.186 43.2083C109.193 43.1792 109.199 43.1556 109.203 43.1306C109.247 42.85 109.181 42.5875 109.012 42.3903C108.837 42.1847 108.572 42.0722 108.267 42.0722C107.608 42.0722 106.99 42.5861 106.89 43.2181C106.886 43.2431 106.885 43.268 106.882 43.293C106.872 43.4236 106.771 43.5292 106.642 43.5472C104.819 43.7875 103.021 44.4917 101.437 45.5847C100.8 46.025 100.2 46.5264 99.6569 47.0736C97.968 48.7764 96.8458 50.918 96.4972 53.1028L95.5458 59.0639C95.5403 59.0972 95.5291 59.1292 95.5125 59.1597L93.4833 62.6639Z" fill="#F9FAFB"/>
<path d="M117.392 52.6597C117.882 52.6597 118.22 53.0445 118.145 53.5181C118.068 53.9931 117.61 54.3764 117.118 54.3764C116.626 54.3764 116.289 53.9917 116.364 53.5181C116.44 53.0445 116.9 52.6597 117.392 52.6597Z" fill="#F0F2F5"/>
<path d="M118.981 42.7402C119.526 42.7402 119.904 43.2013 119.776 43.7333L117.915 51.793C117.869 51.9902 117.676 52.1388 117.476 52.1388C117.468 52.1388 117.458 52.1388 117.45 52.1375C117.258 52.125 117.131 51.975 117.147 51.793L117.857 43.7333C117.901 43.2222 118.372 42.7777 118.91 42.743C118.932 42.7416 118.956 42.7402 118.981 42.7402Z" fill="#F0F2F5"/>
<path d="M119.329 40.5083C123.939 40.5083 127.099 44.1125 126.39 48.5583C125.681 53.0055 121.371 56.6083 116.761 56.6083C112.15 56.6083 108.989 53.0055 109.699 48.5583C110.408 44.1125 114.719 40.5083 119.329 40.5083Z" fill="#98A2B3"/>
<path d="M116.763 56.9764C114.386 56.9764 112.303 56.0694 110.897 54.4222C109.536 52.8264 108.982 50.7236 109.336 48.5C110.071 43.8903 114.554 40.1403 119.331 40.1403C121.706 40.1403 123.789 41.0472 125.194 42.6944C126.556 44.2903 127.111 46.393 126.756 48.6166C126.019 53.2264 121.538 56.9764 116.763 56.9764ZM119.329 40.8764C114.9 40.8764 110.743 44.3486 110.063 48.6153C109.743 50.6222 110.238 52.5139 111.457 53.943C112.721 55.4236 114.604 56.2389 116.761 56.2389C121.189 56.2389 125.346 52.7666 126.026 48.5C126.346 46.493 125.851 44.6014 124.632 43.1722C123.369 41.693 121.486 40.8764 119.329 40.8764Z" fill="#F9FAFB"/>
<path d="M119.775 43.7333C119.903 43.2013 119.525 42.7402 118.979 42.7402C118.956 42.7402 118.931 42.7416 118.906 42.743C118.368 42.7777 117.897 43.2222 117.853 43.7333L117.143 51.793C117.127 51.9763 117.254 52.125 117.446 52.1375C117.454 52.1375 117.464 52.1388 117.472 52.1388C117.674 52.1388 117.867 51.9902 117.911 51.793L119.775 43.7333Z" fill="#F9FAFB"/>
<path d="M117.474 52.5069C117.456 52.5069 117.438 52.5069 117.421 52.5055C117.231 52.493 117.058 52.4083 116.938 52.268C116.818 52.1291 116.761 51.9486 116.778 51.7611L117.488 43.7014C117.547 43.0055 118.161 42.4222 118.883 42.3764C118.914 42.3736 118.947 42.3722 118.981 42.3722C119.358 42.3722 119.703 42.5347 119.926 42.8166C120.145 43.0944 120.221 43.4597 120.135 43.818L118.274 51.8764C118.19 52.2361 117.847 52.5069 117.474 52.5069ZM118.981 43.1083C118.965 43.1083 118.95 43.1083 118.935 43.1097C118.576 43.1333 118.251 43.4319 118.222 43.7639L117.52 51.7527C117.538 51.7402 117.553 51.7236 117.556 51.7083L119.417 43.6486C119.417 43.6472 119.417 43.6458 119.418 43.6458C119.451 43.5055 119.426 43.3722 119.347 43.2708C119.264 43.1666 119.133 43.1083 118.981 43.1083Z" fill="#F9FAFB"/>
<path d="M117.118 54.3777C117.608 54.3777 118.068 53.993 118.144 53.5194C118.221 53.0444 117.883 52.6611 117.392 52.6611C116.9 52.6611 116.44 53.0458 116.364 53.5194C116.289 53.9944 116.625 54.3777 117.118 54.3777Z" fill="#F9FAFB"/>
<path d="M117.118 54.7458C116.771 54.7458 116.451 54.6041 116.242 54.3583C116.033 54.1138 115.947 53.7944 116 53.4611C116.104 52.8055 116.715 52.2916 117.392 52.2916C117.738 52.2916 118.057 52.4333 118.267 52.6791C118.475 52.9236 118.561 53.243 118.508 53.5763C118.403 54.2333 117.793 54.7458 117.118 54.7458ZM117.392 53.0291C117.079 53.0291 116.775 53.2805 116.728 53.5777C116.708 53.6972 116.735 53.8013 116.801 53.8805C116.872 53.9638 116.985 54.0097 117.117 54.0097C117.428 54.0097 117.732 53.7583 117.779 53.4611C117.799 53.3416 117.772 53.2375 117.706 53.1583C117.635 53.075 117.524 53.0291 117.392 53.0291Z" fill="#F9FAFB"/>
<path d="M116.786 62.9417H116.056H115.142H104.894H94.6459H93.0028L95.3514 66.1444H96.9959H107.244H117.492H118.406H119.136L116.786 62.9417Z" fill="#D0D5DD"/>
<path d="M119.136 66.4222H95.3514C95.2625 66.4222 95.1792 66.3805 95.1278 66.3083L92.7778 63.1055C92.7153 63.0208 92.707 62.9097 92.7542 62.8152C92.8014 62.7222 92.8973 62.6625 93.0014 62.6625H116.785C116.874 62.6625 116.957 62.7041 117.008 62.7764L119.358 65.9805C119.421 66.0653 119.429 66.1764 119.382 66.2708C119.336 66.3639 119.24 66.4222 119.136 66.4222ZM95.4931 65.8666H118.588L116.646 63.218H93.55L95.4931 65.8666Z" fill="#F9FAFB"/>
<path d="M109.632 67.8305C109.642 67.8111 109.651 67.7916 109.661 67.7722C109.668 67.7583 109.675 67.7444 109.682 67.7291C109.71 67.668 109.735 67.6069 109.758 67.5444C109.761 67.5361 109.764 67.5278 109.767 67.5194C109.792 67.4486 109.815 67.3778 109.835 67.3055C109.84 67.2847 109.846 67.2639 109.851 67.243C109.872 67.1625 109.89 67.0805 109.903 66.9972L107.553 63.793C107.539 63.8764 107.521 63.9569 107.501 64.0389C107.496 64.0597 107.49 64.0805 107.485 64.1014C107.465 64.1736 107.442 64.2458 107.417 64.3153C107.414 64.3236 107.411 64.3319 107.408 64.3403C107.379 64.418 107.346 64.493 107.311 64.568C107.301 64.5875 107.292 64.6069 107.282 64.6264C107.251 64.6889 107.218 64.75 107.183 64.8097C107.175 64.8236 107.168 64.8375 107.16 64.8514C107.142 64.8805 107.122 64.9083 107.104 64.9361C107.067 64.993 107.029 65.05 106.989 65.1041C106.962 65.1403 106.933 65.175 106.906 65.2097C106.874 65.2486 106.843 65.2875 106.81 65.3264C106.778 65.3639 106.743 65.3986 106.71 65.4333C106.679 65.4653 106.65 65.4972 106.618 65.5278C106.581 65.5639 106.543 65.5972 106.504 65.6319C106.474 65.6597 106.443 65.6875 106.411 65.7139C106.372 65.7458 106.331 65.7764 106.29 65.8069C106.256 65.8333 106.222 65.8597 106.186 65.8847C106.149 65.9111 106.111 65.9333 106.072 65.9583C106.029 65.9861 105.986 66.0153 105.942 66.0403C105.91 66.0597 105.875 66.075 105.843 66.093C105.786 66.1236 105.728 66.1541 105.669 66.1819C105.599 66.2153 105.526 66.2472 105.453 66.275C105.453 66.275 105.451 66.275 105.451 66.2764C105.375 66.3055 105.296 66.3305 105.217 66.3555C105.186 66.3653 105.156 66.3722 105.124 66.3805C105.068 66.3958 105.012 66.4083 104.956 66.4208C104.924 66.4278 104.892 66.4347 104.86 66.4403C104.8 66.4514 104.74 66.4597 104.681 66.4666C104.653 66.4694 104.624 66.4736 104.596 66.4764C104.507 66.4847 104.418 66.4889 104.329 66.4889C104.186 66.4889 104.05 66.475 103.917 66.4555L101.964 63.793C101.951 63.8736 101.943 63.9528 101.937 64.0319C101.936 64.0583 101.936 64.0833 101.935 64.1097C101.933 64.1625 101.931 64.2139 101.932 64.2653C101.933 64.2958 101.936 64.325 101.937 64.3555C101.94 64.4014 101.943 64.4472 101.949 64.4916C101.953 64.5222 101.957 64.5528 101.962 64.5833C101.967 64.6111 101.969 64.6403 101.975 64.668C101.978 64.6847 101.983 64.7 101.986 64.7166C101.99 64.7389 101.996 64.7597 102.001 64.7805C102.014 64.8305 102.028 64.8791 102.043 64.9264C102.049 64.9444 102.054 64.9625 102.06 64.9791C102.062 64.9861 102.064 64.9944 102.067 65.0014C102.072 65.018 102.082 65.0333 102.087 65.05C102.11 65.1083 102.135 65.1653 102.161 65.2208C102.167 65.2319 102.171 65.2444 102.176 65.2569C102.185 65.2736 102.196 65.2875 102.204 65.3041C102.226 65.3458 102.25 65.3861 102.276 65.4264C102.286 65.4416 102.293 65.4583 102.304 65.4722C102.322 65.4986 102.34 65.525 102.36 65.5514L104.71 68.7555C104.71 68.7555 104.71 68.7541 104.708 68.7541L104.71 68.7555C105.131 69.3291 105.832 69.693 106.679 69.693C106.768 69.693 106.857 69.6875 106.946 69.6805C106.974 69.6778 107.003 69.6736 107.031 69.6708C107.09 69.6639 107.151 69.6555 107.21 69.6444C107.242 69.6389 107.274 69.6319 107.306 69.625C107.362 69.6125 107.418 69.6 107.474 69.5847C107.504 69.5764 107.535 69.568 107.567 69.5597C107.583 69.5555 107.599 69.5514 107.615 69.5458C107.678 69.5264 107.74 69.5041 107.801 69.4805H107.803C107.864 69.4569 107.924 69.4319 107.982 69.4055C107.994 69.4 108.007 69.393 108.019 69.3861C108.079 69.3583 108.136 69.3278 108.193 69.2972C108.218 69.2833 108.244 69.2722 108.269 69.2583C108.276 69.2541 108.285 69.2486 108.292 69.2444C108.336 69.218 108.379 69.1903 108.422 69.1625C108.454 69.143 108.486 69.125 108.517 69.1028C108.524 69.0986 108.529 69.093 108.536 69.0889C108.572 69.0639 108.606 69.0375 108.64 69.0111C108.674 68.9861 108.707 68.9625 108.739 68.9375C108.746 68.9319 108.753 68.925 108.76 68.9194C108.792 68.893 108.822 68.8653 108.853 68.8375C108.883 68.8111 108.914 68.7861 108.943 68.7583C108.951 68.75 108.958 68.7416 108.967 68.7347C108.999 68.7041 109.028 68.6722 109.058 68.6403C109.083 68.6139 109.111 68.5875 109.136 68.5611C109.144 68.5528 109.151 68.5416 109.16 68.5333C109.193 68.4958 109.224 68.4569 109.256 68.4166C109.278 68.3903 109.3 68.3639 109.321 68.3375C109.326 68.3291 109.332 68.3208 109.337 68.3125C109.378 68.2583 109.415 68.2014 109.453 68.1444C109.468 68.1222 109.485 68.1 109.499 68.0764C109.501 68.0708 109.506 68.0653 109.508 68.0597C109.517 68.0458 109.524 68.0319 109.532 68.018C109.568 67.9528 109.601 67.8916 109.632 67.8305Z" fill="#D0D5DD"/>
<path d="M106.678 69.9694C105.776 69.9694 104.979 69.5889 104.489 68.9236C104.487 68.9222 104.486 68.9194 104.485 68.918L102.135 65.7139C102.114 65.6847 102.093 65.6555 102.072 65.625C102.062 65.6111 102.054 65.5958 102.046 65.5805C102.012 65.5277 101.986 65.4819 101.961 65.4361C101.947 65.4125 101.937 65.3986 101.931 65.3819C101.924 65.3694 101.918 65.3555 101.912 65.3402C101.883 65.2791 101.856 65.2152 101.831 65.15C101.819 65.1277 101.812 65.1111 101.807 65.0944C101.806 65.0902 101.8 65.0736 101.799 65.0694C101.794 65.0555 101.789 65.0416 101.785 65.0277L101.779 65.0111C101.762 64.9569 101.746 64.9027 101.732 64.8472C101.726 64.8236 101.721 64.7986 101.715 64.775C101.708 64.7486 101.706 64.7347 101.703 64.7208C101.699 64.6986 101.696 64.675 101.692 64.6527L101.685 64.6083C101.681 64.5805 101.675 64.5513 101.672 64.5222C101.667 64.4722 101.662 64.4208 101.66 64.3694L101.658 64.3444C101.657 64.3194 101.655 64.2944 101.654 64.2694C101.653 64.2125 101.654 64.1541 101.657 64.0972V64.0722C101.657 64.0514 101.658 64.0319 101.66 64.0111C101.667 63.9194 101.676 63.8319 101.689 63.7472C101.707 63.6361 101.789 63.5472 101.899 63.5208C102.007 63.4944 102.122 63.5361 102.187 63.6263L104.069 66.193C104.247 66.2138 104.383 66.2138 104.569 66.1972C104.585 66.1958 104.599 66.1944 104.614 66.1916L104.646 66.1875C104.701 66.1805 104.756 66.1736 104.81 66.1639C104.839 66.1583 104.868 66.1527 104.897 66.1472C104.949 66.1361 105 66.1236 105.051 66.1111L105.065 66.1069C105.089 66.1 105.112 66.0944 105.136 66.0875C105.221 66.0625 105.287 66.0402 105.347 66.0166C105.349 66.0152 105.351 66.0152 105.353 66.0138C105.419 65.9875 105.486 65.9583 105.551 65.9277C105.605 65.9027 105.658 65.875 105.711 65.8458L105.747 65.8264C105.765 65.8166 105.783 65.8069 105.801 65.7972C105.833 65.7791 105.865 65.7583 105.896 65.7375L105.956 65.7C105.979 65.6847 106.003 65.6708 106.026 65.6541C106.049 65.6388 106.071 65.6222 106.092 65.6055L106.147 65.5638C106.176 65.5416 106.206 65.5194 106.233 65.4972C106.253 65.4805 106.272 65.4638 106.292 65.4458L106.331 65.4111C106.362 65.3833 106.393 65.3555 106.424 65.3264C106.446 65.3055 106.465 65.2833 106.486 65.2625L106.507 65.2402C106.544 65.2014 106.572 65.1722 106.6 65.1416C106.626 65.1125 106.65 65.0819 106.675 65.0513L106.707 65.0125C106.726 64.9888 106.746 64.9638 106.765 64.9388C106.803 64.8888 106.836 64.8361 106.871 64.7847L106.896 64.7458C106.904 64.7333 106.914 64.7208 106.921 64.7069L106.942 64.6694C106.974 64.6138 107.004 64.5583 107.032 64.5014L107.058 64.4472C107.094 64.3722 107.122 64.3041 107.146 64.2402C107.147 64.2375 107.153 64.2208 107.154 64.2166C107.178 64.1527 107.197 64.0875 107.215 64.0222C107.221 64.0027 107.225 63.9847 107.231 63.9652C107.253 63.8805 107.267 63.8097 107.278 63.7444C107.296 63.6333 107.378 63.5444 107.487 63.518C107.596 63.4916 107.71 63.5333 107.776 63.6236L110.126 66.8277C110.171 66.8875 110.189 66.9625 110.176 67.0361C110.162 67.1194 110.144 67.2041 110.119 67.3055C110.114 67.3277 110.107 67.3514 110.101 67.375C110.078 67.4583 110.054 67.5347 110.026 67.6097L110.017 67.6375C109.99 67.7055 109.964 67.7736 109.933 67.8402C109.928 67.8527 109.922 67.8639 109.917 67.875L109.91 67.8875C109.903 67.9041 109.893 67.9208 109.885 67.9389L109.631 67.8264L109.879 67.95C109.846 68.018 109.81 68.0847 109.772 68.15L109.765 68.1625C109.76 68.1736 109.753 68.1847 109.746 68.1958L109.736 68.2139C109.725 68.2319 109.712 68.25 109.7 68.2666L109.686 68.2875C109.646 68.35 109.606 68.4111 109.561 68.4708C109.556 68.4791 109.55 68.4889 109.542 68.4986C109.526 68.518 109.51 68.5375 109.494 68.5569L109.46 68.5986C109.43 68.6361 109.4 68.6736 109.368 68.7083C109.358 68.7194 109.351 68.7291 109.343 68.7389C109.325 68.7597 109.305 68.7791 109.286 68.7986L109.24 68.8458C109.214 68.8736 109.187 68.9014 109.16 68.9277C109.15 68.9389 109.142 68.9458 109.133 68.9541C109.111 68.975 109.089 68.9944 109.067 69.0138L109.011 69.0625C108.986 69.0847 108.961 69.1069 108.936 69.1277C108.928 69.1347 108.921 69.1416 108.914 69.1472C108.89 69.1666 108.865 69.1847 108.84 69.2027L108.779 69.2486C108.751 69.2694 108.724 69.2916 108.694 69.3111C108.689 69.3152 108.682 69.3208 108.674 69.3263C108.651 69.3416 108.628 69.3569 108.604 69.3708L108.546 69.4069C108.508 69.4319 108.469 69.4555 108.431 69.4791C108.424 69.4833 108.415 69.4888 108.406 69.4944C108.387 69.5055 108.367 69.5152 108.347 69.525L108.324 69.5375C108.261 69.5708 108.2 69.6027 108.136 69.6333C108.121 69.6416 108.108 69.6486 108.096 69.6541C108.033 69.6819 107.969 69.7097 107.905 69.7333C107.904 69.7333 107.903 69.7347 107.9 69.7347C107.833 69.7597 107.767 69.7833 107.699 69.8055C107.685 69.8097 107.672 69.8138 107.658 69.8166C107.615 69.8291 107.586 69.8375 107.556 69.8444C107.485 69.8639 107.424 69.8777 107.362 69.8902C107.328 69.8972 107.293 69.9041 107.258 69.9111C107.193 69.9222 107.128 69.9319 107.062 69.9389L107.035 69.9416C107.012 69.9444 106.992 69.9472 106.969 69.9486C106.864 69.9639 106.769 69.9694 106.678 69.9694ZM104.936 68.593C105.326 69.1166 105.958 69.4139 106.679 69.4139C106.753 69.4139 106.832 69.4097 106.921 69.4014C106.935 69.4 106.95 69.3986 106.965 69.3958L106.999 69.3916C107.053 69.3847 107.108 69.3777 107.162 69.368C107.192 69.3625 107.221 69.3569 107.25 69.3513C107.301 69.3402 107.353 69.3277 107.403 69.3152C107.439 69.3055 107.462 69.2986 107.487 69.2916L107.519 69.2833C107.589 69.2625 107.644 69.243 107.7 69.2208C107.706 69.218 107.711 69.2166 107.715 69.2152C107.76 69.1986 107.814 69.175 107.868 69.1514C107.881 69.1444 107.89 69.1388 107.901 69.1347C107.956 69.1097 108.008 69.0819 108.061 69.0527C108.075 69.0444 108.09 69.0375 108.104 69.0305C108.112 69.0263 108.122 69.0222 108.13 69.0166C108.136 69.0125 108.144 69.0083 108.153 69.0027C108.183 68.9847 108.214 68.9652 108.244 68.9458L108.315 68.9014C108.331 68.893 108.344 68.8833 108.358 68.8736L108.376 68.8611C108.399 68.8458 108.421 68.8291 108.442 68.8125L108.514 68.7583C108.53 68.7458 108.549 68.7333 108.564 68.7208C108.568 68.718 108.58 68.7069 108.583 68.7027C108.603 68.6875 108.621 68.6694 108.64 68.6527L108.706 68.5958C108.721 68.5819 108.737 68.5694 108.751 68.5555C108.76 68.5472 108.765 68.5402 108.772 68.5333C108.794 68.5125 108.815 68.4902 108.836 68.468L108.892 68.4111C108.904 68.3986 108.917 68.3861 108.929 68.3736C108.936 68.3639 108.943 68.3555 108.95 68.3486C108.976 68.318 109.001 68.2875 109.025 68.2569L109.037 68.2416C109.047 68.2291 109.058 68.2166 109.069 68.2027C109.079 68.1916 109.089 68.1805 109.097 68.168C109.101 68.1625 109.107 68.1541 109.112 68.1458C109.15 68.0944 109.185 68.043 109.218 67.9902C109.226 67.9764 109.236 67.9639 109.244 67.9514C109.25 67.9444 109.255 67.9361 109.26 67.9291L109.29 67.8763C109.322 67.8208 109.353 67.7652 109.38 67.7097C109.382 67.7083 109.386 67.6972 109.386 67.6972L109.426 67.6166C109.451 67.5625 109.474 67.5069 109.494 67.45L109.503 67.425C109.525 67.3625 109.546 67.2986 109.564 67.2333C109.569 67.2138 109.574 67.1958 109.579 67.1764C109.589 67.1361 109.599 67.1 109.605 67.0652L107.671 64.4263L107.667 64.4402C107.637 64.5166 107.603 64.5986 107.561 64.6889L107.535 64.743C107.496 64.8194 107.461 64.8861 107.422 64.9527L107.397 64.9972C107.383 65.0194 107.369 65.0402 107.356 65.0611L107.337 65.0889C107.297 65.1514 107.257 65.2125 107.212 65.2722C107.189 65.3041 107.165 65.3347 107.14 65.3638L107.11 65.4014C107.081 65.4389 107.05 65.475 107.018 65.5111C106.986 65.5472 106.951 65.5833 106.918 65.618L106.889 65.6486C106.862 65.6764 106.837 65.7027 106.81 65.7291C106.774 65.7639 106.736 65.7972 106.699 65.8305L106.662 65.8625C106.637 65.8847 106.612 65.9069 106.586 65.9291C106.551 65.9583 106.515 65.9847 106.479 66.0111L106.428 66.05C106.4 66.0708 106.372 66.093 106.343 66.1125C106.312 66.1333 106.282 66.1527 106.251 66.1722L106.197 66.2069C106.158 66.2319 106.119 66.2569 106.081 66.2791C106.056 66.2944 106.029 66.3069 106.004 66.3208L105.974 66.3375C105.912 66.3708 105.85 66.4027 105.786 66.4333C105.71 66.4694 105.633 66.5027 105.556 66.5333C105.55 66.5361 105.544 66.5375 105.539 66.5402C105.476 66.5638 105.396 66.5916 105.296 66.6208C105.267 66.6291 105.239 66.6375 105.21 66.6444L105.196 66.6486C105.135 66.6652 105.074 66.6791 105.012 66.6916C104.978 66.6986 104.943 66.7055 104.908 66.7125C104.843 66.7236 104.778 66.7333 104.712 66.7402L104.686 66.743C104.664 66.7458 104.642 66.7486 104.619 66.7513C104.35 66.775 104.151 66.7694 103.875 66.7291C103.801 66.718 103.736 66.6791 103.692 66.618L102.26 64.6652C102.264 64.6805 102.267 64.6972 102.271 64.7125C102.282 64.7555 102.294 64.7986 102.307 64.8402L102.322 64.8875C102.324 64.8916 102.328 64.9055 102.329 64.9097C102.336 64.9236 102.342 64.9361 102.347 64.95C102.367 65 102.387 65.05 102.412 65.0986C102.418 65.1097 102.424 65.1222 102.428 65.1333C102.437 65.1472 102.443 65.1583 102.45 65.1708C102.469 65.2069 102.49 65.243 102.512 65.2777C102.519 65.2889 102.526 65.3014 102.533 65.3125C102.551 65.3416 102.568 65.3639 102.585 65.3875L104.931 68.5861C104.932 68.5875 104.933 68.5902 104.936 68.593Z" fill="#F9FAFB"/>
<path d="M107.554 63.7916C107.317 65.2791 105.874 66.4861 104.329 66.4875C102.786 66.4875 101.726 65.2791 101.964 63.7916H104.758H107.554Z" fill="#D0D5DD"/>
<path d="M104.329 66.7652C103.487 66.7652 102.749 66.4416 102.247 65.8555C101.761 65.2861 101.562 64.5375 101.689 63.7486C101.71 63.6139 101.826 63.5139 101.964 63.5139H107.554C107.636 63.5139 107.712 63.55 107.765 63.6111C107.818 63.6736 107.842 63.7541 107.828 63.8347C107.571 65.45 106 66.7652 104.329 66.7652ZM102.212 64.0694C102.181 64.6069 102.339 65.1069 102.671 65.4944C103.064 65.9555 103.653 66.2097 104.329 66.2097C105.626 66.2097 106.85 65.275 107.207 64.0694H102.212Z" fill="#F9FAFB"/>
</svg>
