<svg width="150" height="150" viewBox="0 0 150 150" fill="none" xmlns="http://www.w3.org/2000/svg">
<path d="M75 122.697C103.319 122.697 126.276 113.691 126.276 102.582C126.276 91.4726 103.319 82.4667 75 82.4667C46.6809 82.4667 23.7236 91.4726 23.7236 102.582C23.7236 113.691 46.6809 122.697 75 122.697Z" fill="#FFECE5"/>
<path d="M104.894 62.9416H115.143H116.055L110.629 96.9624L94.6206 87.1013L94.9012 85.3388H98.6373L99.2734 81.3513H101.957L104.328 66.4888C105.872 66.4874 107.315 65.2805 107.553 63.793H104.758L104.894 62.9416Z" fill="#FCB59A"/>
<path d="M110.629 97.2402C110.579 97.2402 110.528 97.2263 110.483 97.1986L94.4749 87.3375C94.379 87.2791 94.329 87.168 94.3457 87.0569L94.6263 85.2944C94.6471 85.1597 94.7638 85.0597 94.9013 85.0597H98.3999L98.9985 81.3055C99.0193 81.1708 99.136 81.0708 99.2735 81.0708H101.721L104.054 66.4416C104.075 66.3069 104.192 66.2083 104.328 66.2069C105.625 66.2069 106.848 65.2722 107.205 64.0666H104.758C104.676 64.0666 104.6 64.0305 104.547 63.9694C104.494 63.9069 104.471 63.8263 104.485 63.7458L104.621 62.8944C104.642 62.7597 104.758 62.6597 104.896 62.6597H116.057C116.139 62.6597 116.215 62.6958 116.268 62.7569C116.321 62.8194 116.344 62.8999 116.33 62.9805L110.904 97.0013C110.889 97.093 110.83 97.1708 110.746 97.2097C110.708 97.2319 110.668 97.2402 110.629 97.2402ZM94.9249 86.9611L110.421 96.5069L115.73 63.218H105.132L105.085 63.5138H107.554C107.636 63.5138 107.712 63.5499 107.765 63.6111C107.818 63.6736 107.842 63.7541 107.828 63.8347C107.582 65.3722 106.147 66.6374 104.567 66.7555L102.232 81.393C102.211 81.5277 102.094 81.6277 101.957 81.6277H99.5096L98.911 85.3819C98.8901 85.5166 98.7735 85.6166 98.636 85.6166H95.1388L94.9249 86.9611Z" fill="#FFECE5"/>
<path d="M110.629 96.9625L112.979 100.165H95.3986L93.0486 96.9625H110.629Z" fill="#FCB59A"/>
<path d="M112.979 100.443H95.3987C95.3098 100.443 95.2265 100.401 95.1751 100.329L92.8251 97.125C92.7626 97.0403 92.7542 96.9292 92.8014 96.8347C92.8487 96.7417 92.9445 96.6819 93.0487 96.6819H110.629C110.718 96.6819 110.801 96.7236 110.853 96.7958L113.203 100C113.265 100.085 113.274 100.196 113.226 100.29C113.179 100.385 113.083 100.443 112.979 100.443ZM95.539 99.8875H112.431L110.489 97.2389H93.5973L95.539 99.8875Z" fill="#FFECE5"/>
<path d="M94.6208 87.1014L110.629 96.9625H93.0486L94.6208 87.1014Z" fill="#FCB59A"/>
<path d="M110.629 97.2403H93.0485C92.9666 97.2403 92.8902 97.2041 92.8374 97.143C92.7846 97.0805 92.761 97 92.7749 96.9194L94.3471 87.0583C94.3624 86.9666 94.4207 86.8889 94.5055 86.85C94.5902 86.8111 94.6874 86.8166 94.7666 86.8653L110.775 96.7264C110.88 96.7916 110.93 96.9194 110.897 97.0389C110.864 97.1583 110.754 97.2403 110.629 97.2403ZM93.3735 96.6847H109.649L94.8291 87.5555L93.3735 96.6847Z" fill="#FFECE5"/>
<path d="M80.1555 28.15C80.9888 28.15 81.5596 28.8 81.4318 29.6041C81.3041 30.4069 80.5249 31.0583 79.6916 31.0583C78.8596 31.0583 78.2888 30.4069 78.4166 29.6041C78.5457 28.8 79.3235 28.15 80.1555 28.15Z" fill="#F56630"/>
<path d="M79.6916 31.3361C79.2 31.3361 78.768 31.1458 78.4722 30.8014C78.1847 30.4652 78.068 30.025 78.1416 29.5611C78.2902 28.6305 79.193 27.8722 80.1541 27.8722C80.6472 27.8722 81.0805 28.0625 81.375 28.4083C81.6611 28.7444 81.7791 29.1847 81.7041 29.6486C81.5583 30.5777 80.6541 31.3361 79.6916 31.3361ZM80.1555 28.4277C79.4555 28.4277 78.7986 28.975 78.6916 29.6486C78.643 29.9486 78.7166 30.2305 78.8958 30.4402C79.0833 30.6597 79.3652 30.7805 79.6916 30.7805C80.393 30.7805 81.05 30.2333 81.1569 29.5597C81.2055 29.2597 81.1319 28.9777 80.9527 28.768C80.7666 28.5486 80.4833 28.4277 80.1555 28.4277Z" fill="#FFECE5"/>
<path d="M45.3124 56.725L35.1499 50.4639H52.7305L52.1443 54.1403H45.7249L45.3124 56.725Z" fill="#FCB59A"/>
<path d="M45.3124 57.0028C45.2624 57.0028 45.211 56.9889 45.1665 56.9611L35.004 50.7C34.8985 50.6347 34.8485 50.5069 34.8818 50.3875C34.9151 50.268 35.0249 50.1861 35.1485 50.1861H52.729C52.811 50.1861 52.8874 50.2222 52.9402 50.2833C52.9929 50.3458 53.0165 50.4264 53.0027 50.5069L52.4165 54.1833C52.3957 54.318 52.279 54.418 52.1415 54.418H45.9582L45.5832 56.768C45.5679 56.8597 45.5096 56.9375 45.4249 56.9764C45.3915 56.9944 45.3527 57.0028 45.3124 57.0028ZM36.1304 50.7417L45.104 56.2694L45.4513 54.0958C45.4721 53.9611 45.5888 53.8611 45.7263 53.8611H51.9096L52.4068 50.7403H36.1304V50.7417Z" fill="#FFECE5"/>
<path d="M106.672 29.2708C106.671 29.2472 106.669 29.2236 106.667 29.2014C106.665 29.1861 106.663 29.1694 106.66 29.1541C106.657 29.1402 106.656 29.125 106.653 29.1111C106.651 29.1055 106.65 29.1014 106.649 29.0972C106.638 29.0458 106.625 28.9972 106.607 28.9486C106.606 28.9458 106.606 28.943 106.606 28.9416C106.603 28.9333 106.599 28.925 106.594 28.9166C106.583 28.8875 106.571 28.8583 106.557 28.8291C106.554 28.8236 106.551 28.8166 106.549 28.8111C106.545 28.8027 106.539 28.7958 106.535 28.7875C106.524 28.7666 106.511 28.7458 106.499 28.725C106.494 28.7166 106.49 28.7083 106.485 28.7014C106.475 28.6875 106.467 28.675 106.457 28.6611L104.107 25.4569C104.122 25.4777 104.135 25.4986 104.149 25.5208C104.161 25.5416 104.174 25.5625 104.185 25.5833C104.192 25.5972 104.2 25.6111 104.207 25.625C104.221 25.6527 104.233 25.6819 104.244 25.7125C104.249 25.7236 104.253 25.7333 104.257 25.7444C104.274 25.7916 104.288 25.8416 104.299 25.893C104.303 25.9125 104.306 25.9305 104.31 25.95C104.313 25.9652 104.315 25.9805 104.317 25.9972C104.319 26.0194 104.321 26.043 104.322 26.0666C104.324 26.0819 104.325 26.0972 104.325 26.1125C104.325 26.1389 104.325 26.1652 104.324 26.1916C104.324 26.2055 104.324 26.218 104.322 26.2319C104.319 26.2722 104.315 26.3125 104.308 26.3541L101.278 45.3555L103.628 48.5597L106.658 29.5583C106.665 29.5166 106.669 29.4764 106.672 29.4361C106.674 29.4236 106.672 29.4097 106.674 29.3972C106.675 29.3708 106.675 29.3444 106.675 29.318C106.675 29.3014 106.674 29.2861 106.672 29.2708Z" fill="#FCB59A"/>
<path d="M103.629 48.8361C103.542 48.8361 103.458 48.7944 103.406 48.7222L101.056 45.518C101.011 45.4583 100.993 45.3833 101.006 45.3097L104.036 26.3083C104.042 26.2764 104.044 26.243 104.047 26.2111V26.1805C104.049 26.1597 104.049 26.1389 104.049 26.118L104.046 26.0819C104.044 26.0639 104.043 26.0458 104.042 26.0278L104.038 26.0028C104.033 25.9778 104.031 25.9625 104.028 25.9486C104.019 25.9069 104.008 25.8694 103.997 25.8361C103.996 25.8347 103.988 25.8139 103.988 25.8125C103.979 25.7903 103.969 25.768 103.958 25.7472C103.953 25.7361 103.947 25.7264 103.942 25.7153C103.933 25.6986 103.924 25.6833 103.914 25.668C103.9 25.6458 103.892 25.6333 103.883 25.6208C103.793 25.4972 103.819 25.3236 103.943 25.2333C104.067 25.143 104.24 25.1694 104.331 25.293C104.331 25.293 104.331 25.293 104.331 25.2944L106.679 28.4972C106.692 28.5139 106.703 28.5305 106.714 28.5472C106.721 28.5569 106.726 28.568 106.733 28.5792C106.747 28.6014 106.763 28.6278 106.778 28.6542C106.783 28.6625 106.789 28.6722 106.794 28.6833C106.799 28.6917 106.807 28.7083 106.81 28.7167C106.822 28.7417 106.838 28.7778 106.853 28.8153C106.857 28.8222 106.861 28.8333 106.865 28.8458C106.867 28.8514 106.869 28.8583 106.871 28.8653C106.889 28.9167 106.904 28.9722 106.917 29.0305C106.919 29.0403 106.922 29.0486 106.924 29.0583C106.926 29.0722 106.929 29.0875 106.931 29.1014L106.657 29.1542L106.932 29.118C106.935 29.1347 106.938 29.1514 106.939 29.1694C106.942 29.1972 106.944 29.2264 106.946 29.2542L106.947 29.2653C106.949 29.2805 106.949 29.2944 106.95 29.3097C106.951 29.3417 106.95 29.3736 106.949 29.4055C106.949 29.4278 106.947 29.4403 106.947 29.4528C106.944 29.5014 106.939 29.55 106.931 29.6L103.9 48.6C103.882 48.7111 103.8 48.8 103.692 48.8264C103.672 48.8333 103.65 48.8361 103.629 48.8361ZM101.572 45.2833L103.46 47.8569L106.385 29.5125C106.39 29.4792 106.393 29.4472 106.396 29.4153L106.397 29.3847C106.399 29.3639 106.399 29.343 106.399 29.3222L106.396 29.2875C106.396 29.2875 106.396 29.2875 106.396 29.2861C106.394 29.268 106.394 29.25 106.392 29.2333L106.383 29.1736C106.383 29.1736 106.381 29.1639 106.378 29.15C106.369 29.1111 106.36 29.0736 106.347 29.0403C106.346 29.0389 106.346 29.0361 106.344 29.0333C106.343 29.0305 106.34 29.0236 106.338 29.0153C106.329 28.993 106.319 28.9708 106.31 28.95C106.308 28.9458 106.304 28.9389 106.301 28.9319C106.299 28.9278 106.296 28.9222 106.293 28.918C106.285 28.9014 106.275 28.8861 106.265 28.8708C106.263 28.8667 106.254 28.8514 106.251 28.8472C106.249 28.843 106.242 28.8333 106.235 28.8236L104.563 26.543L101.572 45.2833Z" fill="#FFECE5"/>
<path d="M44.0695 81.35L46.4181 84.5541L45.782 88.5416L43.4333 85.3389L44.0695 81.35Z" fill="#F56630"/>
<path d="M45.782 88.8194C45.6945 88.8194 45.6112 88.7778 45.5584 88.7056L43.2084 85.5014C43.164 85.4417 43.1459 85.3667 43.1584 85.2931L43.7945 81.3056C43.8126 81.1945 43.8945 81.1056 44.0029 81.0792C44.1112 81.0528 44.2265 81.0945 44.2917 81.1847L46.6417 84.3889C46.6862 84.4486 46.7042 84.5236 46.6917 84.5972L46.0556 88.5847C46.0376 88.6958 45.9556 88.7847 45.8473 88.8111C45.8265 88.8167 45.8042 88.8194 45.782 88.8194ZM43.7251 85.2681L45.6126 87.8417L46.1251 84.625L44.2376 82.0514L43.7251 85.2681Z" fill="#FFECE5"/>
<path d="M103.104 24.9791C103.89 24.9791 104.431 25.5944 104.31 26.3527L101.279 45.3541C100.626 45.8055 100.015 46.3152 99.4598 46.8763L102.54 27.5638C102.601 27.1847 102.332 26.8763 101.939 26.8763H58.782C58.389 26.8763 58.0195 27.1847 57.9598 27.5638L53.7209 54.1388H52.1445L52.7306 50.4625L56.5765 26.3527C56.6973 25.5944 57.4348 24.9791 58.2195 24.9791H103.104Z" fill="#F77A4A"/>
<path d="M53.7209 54.418H52.1445C52.0625 54.418 51.9861 54.3819 51.9334 54.3208C51.8806 54.2583 51.857 54.1778 51.8709 54.0972L56.3028 26.3111C56.4445 25.425 57.3042 24.7028 58.2209 24.7028H103.106C103.575 24.7028 103.988 24.8847 104.269 25.2139C104.543 25.5347 104.656 25.9555 104.585 26.3972L101.554 45.3986C101.542 45.4736 101.5 45.5403 101.438 45.5833C100.8 46.0236 100.2 46.525 99.657 47.0722C99.5723 47.1583 99.4417 47.1791 99.3334 47.125C99.2264 47.0708 99.1653 46.9528 99.1847 46.8333L102.265 27.5208C102.281 27.4208 102.258 27.3305 102.203 27.2639C102.143 27.193 102.049 27.1541 101.939 27.1541H58.782C58.5236 27.1541 58.2736 27.3625 58.2334 27.6083L53.9945 54.1833C53.9736 54.318 53.857 54.418 53.7209 54.418ZM52.4709 53.8625H53.4847L57.6861 27.5208C57.7681 27.0041 58.25 26.5986 58.7834 26.5986H101.939C102.211 26.5986 102.461 26.7097 102.626 26.9028C102.79 27.0944 102.857 27.3458 102.815 27.6083L99.8639 46.1139C100.233 45.7861 100.621 45.4791 101.025 45.1944L104.036 26.3097C104.081 26.0305 104.014 25.7694 103.846 25.5736C103.672 25.3694 103.408 25.2569 103.104 25.2569H58.2195C57.5653 25.2569 56.95 25.768 56.85 26.3972L52.4709 53.8625Z" fill="#FFECE5"/>
<path d="M45.3152 96.9625H27.7346L46.8874 87.1L45.3152 96.9625Z" fill="#FCB59A"/>
<path d="M45.3152 97.2402H27.7347C27.6069 97.2402 27.4944 97.1527 27.4652 97.0277C27.4347 96.9027 27.4944 96.7736 27.6083 96.7152L46.7624 86.8527C46.8555 86.8041 46.968 86.8139 47.0527 86.875C47.1374 86.9361 47.1805 87.0402 47.1638 87.143L45.5916 97.0055C45.568 97.1402 45.4513 97.2402 45.3152 97.2402ZM28.8805 96.6847H45.0777L46.5277 87.5986L28.8805 96.6847Z" fill="#FFECE5"/>
<path d="M45.3152 96.9625L47.6652 100.165H30.0846L27.7346 96.9625H45.3152Z" fill="#FCB59A"/>
<path d="M47.6653 100.443H30.0847C29.9958 100.443 29.9125 100.401 29.8611 100.329L27.5111 97.125C27.4486 97.0403 27.4403 96.9292 27.4875 96.8347C27.5347 96.7417 27.6305 96.6819 27.7347 96.6819H45.3153C45.4042 96.6819 45.4875 96.7236 45.5389 96.7958L47.8889 100C47.9514 100.085 47.9597 100.196 47.9125 100.29C47.8653 100.385 47.7694 100.443 47.6653 100.443ZM30.225 99.8875H47.1167L45.175 97.2389H28.2833L30.225 99.8875Z" fill="#FFECE5"/>
<path d="M48.7447 85.3389L51.0947 88.5416L47.9433 108.303L45.5933 105.099L48.7447 85.3389Z" fill="#CC400C"/>
<path d="M47.9432 108.581C47.8557 108.581 47.7723 108.539 47.7195 108.467L45.3695 105.262C45.3251 105.203 45.307 105.128 45.3195 105.054L48.4709 85.293C48.489 85.1819 48.5709 85.093 48.6793 85.0667C48.7876 85.0403 48.9029 85.0819 48.9682 85.1722L51.3182 88.3764C51.3626 88.4361 51.3807 88.5111 51.3682 88.5847L48.2168 108.346C48.1987 108.457 48.1168 108.546 48.0084 108.572C47.9862 108.578 47.9654 108.581 47.9432 108.581ZM45.8862 105.028L47.7737 107.601L50.8029 88.6125L48.9154 86.0389L45.8862 105.028Z" fill="#FFECE5"/>
<path d="M48.0444 109.028C47.9583 109.028 47.8749 108.989 47.8208 108.914L45.4708 105.711C45.3346 105.526 45.2819 105.294 45.3194 105.056C45.3374 104.944 45.4194 104.856 45.5277 104.829C45.636 104.803 45.7513 104.844 45.8166 104.935L48.1666 108.139C48.211 108.199 48.2291 108.274 48.2166 108.347C48.2027 108.439 48.2194 108.521 48.2666 108.586C48.3569 108.71 48.3305 108.883 48.2069 108.975C48.1583 109.01 48.1013 109.028 48.0444 109.028Z" fill="#FFECE5"/>
<mask id="mask0_8802_27781" style="mask-type:luminance" maskUnits="userSpaceOnUse" x="45" y="104" width="4" height="6">
<path d="M48.0444 109.028C47.9583 109.028 47.8749 108.989 47.8208 108.914L45.4708 105.711C45.3346 105.526 45.2819 105.294 45.3194 105.056C45.3374 104.944 45.4194 104.856 45.5277 104.829C45.636 104.803 45.7513 104.844 45.8166 104.935L48.1666 108.139C48.211 108.199 48.2291 108.274 48.2166 108.347C48.2027 108.439 48.2194 108.521 48.2666 108.586C48.3569 108.71 48.3305 108.883 48.2069 108.975C48.1583 109.01 48.1013 109.028 48.0444 109.028Z" fill="white"/>
</mask>
<g mask="url(#mask0_8802_27781)">
<path d="M45.593 105.099L47.943 108.303C47.9305 108.381 47.9319 108.456 47.9458 108.525L45.5958 105.321C45.5819 105.251 45.5805 105.176 45.593 105.099Z" fill="#AD3307"/>
<path d="M47.9458 108.803C47.8597 108.803 47.775 108.762 47.7222 108.689L45.3722 105.485C45.3486 105.451 45.332 105.414 45.3236 105.374C45.3028 105.269 45.3014 105.162 45.3195 105.054C45.3375 104.943 45.4195 104.854 45.5278 104.828C45.6375 104.801 45.7514 104.843 45.8167 104.933L48.1667 108.137C48.2111 108.197 48.2292 108.272 48.2167 108.346C48.2097 108.389 48.2097 108.432 48.2181 108.471C48.2431 108.599 48.1764 108.726 48.057 108.779C48.0209 108.794 47.9833 108.803 47.9458 108.803Z" fill="#FFECE5"/>
<path d="M45.5957 105.321L47.9457 108.525C47.9513 108.554 47.9596 108.582 47.9693 108.61L45.6193 105.406C45.6096 105.379 45.6013 105.35 45.5957 105.321Z" fill="#711E00"/>
<path d="M47.9694 108.888C47.8833 108.888 47.7986 108.847 47.7458 108.774L45.3958 105.569C45.3805 105.549 45.368 105.525 45.3583 105.5C45.343 105.46 45.3319 105.417 45.3236 105.374C45.2986 105.246 45.3652 105.118 45.4847 105.065C45.6041 105.013 45.743 105.05 45.8208 105.156L48.1708 108.36C48.1944 108.393 48.2111 108.431 48.2194 108.471C48.2222 108.486 48.2264 108.5 48.2319 108.515C48.2791 108.646 48.2236 108.79 48.1014 108.856C48.0583 108.876 48.0139 108.888 47.9694 108.888Z" fill="#FFECE5"/>
<path d="M45.6196 105.406L47.9696 108.61C47.978 108.632 47.9877 108.654 47.9974 108.675L45.6474 105.471C45.6377 105.45 45.628 105.429 45.6196 105.406Z" fill="#8F2802"/>
<path d="M47.9973 108.953C47.9112 108.953 47.8279 108.913 47.7737 108.839L45.4237 105.635C45.4154 105.622 45.4071 105.61 45.4001 105.597C45.3835 105.565 45.3696 105.533 45.3571 105.5C45.3098 105.369 45.3654 105.225 45.4876 105.161C45.6098 105.096 45.7612 105.131 45.8418 105.242L48.1918 108.446C48.2071 108.467 48.2196 108.49 48.2293 108.515C48.2335 108.526 48.2376 108.538 48.2432 108.549C48.3085 108.678 48.2654 108.836 48.1418 108.911C48.0987 108.939 48.0473 108.953 47.9973 108.953Z" fill="#FFECE5"/>
<path d="M45.6472 105.471L47.9972 108.675C48.0069 108.694 48.018 108.712 48.0292 108.731L45.6792 105.526C45.6681 105.508 45.6569 105.49 45.6472 105.471Z" fill="#8F2802"/>
<path d="M48.0306 109.007C47.9445 109.007 47.8611 108.968 47.807 108.893L45.457 105.689C45.432 105.653 45.4167 105.625 45.4014 105.596C45.3361 105.467 45.3792 105.308 45.5028 105.233C45.6264 105.157 45.7875 105.189 45.8722 105.306L48.2222 108.51C48.2306 108.522 48.2389 108.535 48.2458 108.547C48.25 108.557 48.2556 108.565 48.2625 108.575C48.3458 108.7 48.3153 108.871 48.1903 108.957C48.1403 108.992 48.0847 109.007 48.0306 109.007Z" fill="#FFECE5"/>
<path d="M45.6807 105.526L48.0307 108.731C48.0348 108.738 48.0404 108.744 48.0446 108.75L45.6946 105.546C45.689 105.539 45.6848 105.533 45.6807 105.526Z" fill="#8F2802"/>
<path d="M48.0445 109.028C47.9612 109.028 47.8779 108.99 47.8237 108.918C47.8237 108.918 47.8237 108.917 47.8223 108.917C47.8223 108.915 47.8209 108.915 47.8209 108.914L45.4723 105.713C45.4654 105.703 45.4584 105.693 45.4515 105.683C45.3667 105.558 45.3987 105.388 45.5223 105.301C45.6459 105.215 45.8167 105.243 45.9056 105.364L48.2556 108.568C48.2584 108.572 48.2626 108.578 48.2654 108.582L48.2695 108.588C48.3598 108.711 48.3334 108.885 48.2098 108.975C48.1584 109.01 48.1015 109.028 48.0445 109.028Z" fill="#FFECE5"/>
</g>
<path d="M48.5457 109.267C48.2485 109.267 47.9832 109.137 47.8193 108.914L45.4707 105.711C45.4707 105.711 45.4707 105.711 45.4693 105.71C45.3791 105.586 45.4055 105.412 45.5291 105.321C45.6527 105.231 45.8263 105.257 45.918 105.381C45.9777 105.461 46.0763 105.507 46.1971 105.507C46.286 105.507 46.3694 105.549 46.4207 105.621L48.7707 108.825C48.8332 108.91 48.8416 109.021 48.7943 109.115C48.7471 109.208 48.6513 109.267 48.5457 109.267Z" fill="#FFECE5"/>
<mask id="mask1_8802_27781" style="mask-type:luminance" maskUnits="userSpaceOnUse" x="45" y="105" width="4" height="5">
<path d="M48.5457 109.267C48.2485 109.267 47.9832 109.137 47.8193 108.914L45.4707 105.711C45.4707 105.711 45.4707 105.711 45.4693 105.71C45.3791 105.586 45.4055 105.412 45.5291 105.321C45.6527 105.231 45.8263 105.257 45.918 105.381C45.9777 105.461 46.0763 105.507 46.1971 105.507C46.286 105.507 46.3694 105.549 46.4207 105.621L48.7707 108.825C48.8332 108.91 48.8416 109.021 48.7943 109.115C48.7471 109.208 48.6513 109.267 48.5457 109.267Z" fill="white"/>
</mask>
<g mask="url(#mask1_8802_27781)">
<path d="M46.1971 105.786L48.5471 108.99C48.3304 108.99 48.1513 108.897 48.0443 108.751L45.6943 105.546C45.8013 105.693 45.9804 105.786 46.1971 105.786Z" fill="#A29999"/>
<path d="M48.5457 109.267C48.2485 109.267 47.9832 109.137 47.8193 108.914L45.4707 105.711C45.4707 105.711 45.4707 105.711 45.4693 105.71C45.3791 105.586 45.4055 105.412 45.5291 105.321C45.6527 105.231 45.8263 105.257 45.918 105.381C45.9777 105.461 46.0763 105.507 46.1971 105.507C46.286 105.507 46.3694 105.549 46.4207 105.621L48.7707 108.825C48.8332 108.91 48.8416 109.021 48.7943 109.115C48.7471 109.208 48.6513 109.267 48.5457 109.267Z" fill="#FFECE5"/>
</g>
<path d="M93.325 85.3389L95.675 88.5416L92.5236 108.303L90.1736 105.099L93.325 85.3389Z" fill="#B7AFAF"/>
<path d="M92.5235 108.581C92.436 108.581 92.3526 108.539 92.2999 108.467L89.9499 105.262C89.9054 105.203 89.8874 105.128 89.8999 105.054L93.0512 85.293C93.0693 85.1819 93.1512 85.093 93.2596 85.0667C93.3679 85.0403 93.4832 85.0819 93.5485 85.1722L95.8985 88.3764C95.9429 88.4361 95.961 88.5111 95.9485 88.5847L92.7971 108.346C92.779 108.457 92.6971 108.546 92.5888 108.572C92.5665 108.578 92.5443 108.581 92.5235 108.581ZM90.4665 105.028L92.354 107.601L95.3832 88.6125L93.4957 86.0389L90.4665 105.028Z" fill="#FFECE5"/>
<path d="M90.1736 105.099L93.325 85.3375H94.9028L94.6222 87.1L93.05 96.9611L91.1083 109.136C90.9875 109.894 90.25 110.51 89.4653 110.51H44.5791C43.793 110.51 43.2528 109.894 43.3736 109.136L45.3152 96.9611L46.8875 87.1L47.168 85.3375H48.7444L45.593 105.099C45.5333 105.476 45.8027 105.785 46.1958 105.785H89.3514C89.7458 105.785 90.1125 105.478 90.1736 105.099Z" fill="#F77A4A"/>
<path d="M89.4625 110.787H44.5792C44.1098 110.787 43.6973 110.606 43.4153 110.276C43.1417 109.956 43.0292 109.535 43.1 109.093L46.8959 85.2944C46.9167 85.1597 47.0334 85.0597 47.1709 85.0597H48.7473C48.8292 85.0597 48.9056 85.0958 48.9584 85.1569C49.0111 85.218 49.0348 85.3 49.0209 85.3805L45.8695 105.142C45.8542 105.24 45.8764 105.331 45.9334 105.397C45.9945 105.468 46.0889 105.507 46.1986 105.507H89.3542C89.6111 105.507 89.8611 105.3 89.9014 105.054L93.0528 85.293C93.0736 85.1583 93.1903 85.0583 93.3278 85.0583H94.9042C94.9861 85.0583 95.0625 85.0944 95.1153 85.1555C95.1681 85.2166 95.1917 85.2986 95.1778 85.3791L91.3806 109.181C91.2403 110.067 90.3792 110.787 89.4625 110.787ZM47.4056 85.6166L43.6473 109.181C43.6028 109.46 43.6695 109.721 43.8361 109.917C44.0098 110.121 44.2736 110.233 44.5778 110.233H89.4625C90.1167 110.233 90.732 109.722 90.832 109.093L94.5764 85.6166H93.5625L90.4486 105.143C90.3667 105.66 89.8848 106.064 89.3528 106.064H46.1973C45.925 106.064 45.6736 105.953 45.5084 105.758C45.3445 105.567 45.2778 105.317 45.3195 105.056L48.4195 85.6166H47.4056Z" fill="#FFECE5"/>
<path d="M35.1499 50.4639L45.3124 56.725L41.386 81.35H44.0693L43.4332 85.3389H47.1693L46.8874 87.1L27.7346 96.9625L35.1499 50.4639Z" fill="#FCB59A"/>
<path d="M27.7347 97.2402C27.6777 97.2402 27.6194 97.2222 27.5722 97.1875C27.4874 97.1264 27.4444 97.0222 27.4611 96.9194L34.8763 50.4208C34.8916 50.3291 34.9499 50.2514 35.0347 50.2125C35.1194 50.1736 35.2166 50.1791 35.2958 50.2277L45.4583 56.4889C45.5541 56.5472 45.6041 56.6583 45.5874 56.7694L41.7111 81.0736H44.0694C44.1513 81.0736 44.2277 81.1097 44.2805 81.1708C44.3333 81.2319 44.3569 81.3138 44.343 81.3944L43.7583 85.0611H47.1694C47.2513 85.0611 47.3277 85.0972 47.3805 85.1583C47.4333 85.2208 47.4569 85.3014 47.443 85.3819L47.1624 87.1444C47.1486 87.2319 47.0944 87.3069 47.0152 87.3472L27.8611 97.2097C27.8208 97.2305 27.7777 97.2402 27.7347 97.2402ZM35.3597 50.918L28.0958 96.4639L46.6361 86.918L46.8444 85.6166H43.4333C43.3513 85.6166 43.2749 85.5805 43.2222 85.5194C43.1694 85.4569 43.1458 85.3764 43.1597 85.2958L43.7444 81.6291H41.3861C41.3041 81.6291 41.2277 81.593 41.1749 81.5319C41.1222 81.4694 41.0986 81.3889 41.1124 81.3083L45.0111 56.8652L35.3597 50.918Z" fill="#FFECE5"/>
<path d="M101.938 26.8763C102.331 26.8763 102.6 27.1847 102.539 27.5638L99.4584 46.8763C97.7793 48.5694 96.5946 50.718 96.2209 53.0569L96.0487 54.1388H53.7209L57.9598 27.5624C58.0209 27.1833 58.389 26.8749 58.7821 26.8749H101.938V26.8763ZM79.6918 31.0583C80.5251 31.0583 81.3029 30.4069 81.4321 29.6041C81.5598 28.7999 80.989 28.1499 80.1557 28.1499C79.3237 28.1499 78.5459 28.7999 78.4168 29.6041C78.289 30.4055 78.8598 31.0583 79.6918 31.0583Z" fill="#FFECE5"/>
<path d="M96.0501 54.418H53.7209C53.6389 54.418 53.5625 54.3819 53.5098 54.3208C53.457 54.2597 53.4334 54.1777 53.4473 54.0972L57.6862 27.5208C57.7681 27.0041 58.25 26.5986 58.7834 26.5986H101.939C102.211 26.5986 102.461 26.7097 102.626 26.9027C102.79 27.0944 102.857 27.3458 102.815 27.6083L99.7348 46.9208C99.7251 46.9777 99.6987 47.0319 99.657 47.0722C97.9681 48.775 96.8459 50.9166 96.4973 53.1013L96.325 54.1833C96.3028 54.318 96.1862 54.418 96.0501 54.418ZM54.0459 53.8625H95.8125L95.9473 53.0139C96.3153 50.7097 97.4389 48.543 99.1987 46.7444L102.265 27.5194C102.281 27.4194 102.258 27.3291 102.203 27.2625C102.143 27.1916 102.049 27.1527 101.939 27.1527H58.782C58.5237 27.1527 58.2723 27.3611 58.2334 27.6069L54.0459 53.8625ZM79.6917 31.3361C79.2001 31.3361 78.7681 31.1458 78.4723 30.8014C78.1848 30.4652 78.0681 30.025 78.1417 29.5611C78.2903 28.6305 79.1931 27.8736 80.1542 27.8736C80.6473 27.8736 81.0806 28.0639 81.3751 28.4097C81.6612 28.7458 81.7792 29.1861 81.7042 29.65C81.557 30.5777 80.6542 31.3361 79.6917 31.3361ZM80.1556 28.4277C79.4556 28.4277 78.7987 28.975 78.6917 29.6472C78.6445 29.9472 78.7167 30.2291 78.8959 30.4389C79.0834 30.6583 79.3653 30.7791 79.6917 30.7791C80.3931 30.7791 81.0501 30.2319 81.157 29.5583C81.2056 29.2583 81.132 28.9763 80.9528 28.7666C80.7667 28.5486 80.4834 28.4277 80.1556 28.4277Z" fill="#FFECE5"/>
<path d="M116.777 50.4639H118.046L116.831 51.0903C116.82 50.8791 116.802 50.6694 116.777 50.4639Z" fill="#FA9874"/>
<path d="M116.829 51.3681C116.781 51.3681 116.733 51.3556 116.69 51.3306C116.608 51.2833 116.556 51.1986 116.551 51.1042C116.542 50.9014 116.524 50.6972 116.5 50.4986C116.49 50.4194 116.515 50.3403 116.568 50.2806C116.621 50.2208 116.696 50.1875 116.776 50.1875H118.046C118.174 50.1875 118.286 50.275 118.315 50.4C118.346 50.525 118.286 50.6542 118.172 50.7125L116.957 51.3389C116.917 51.3569 116.872 51.3681 116.829 51.3681Z" fill="#FFECE5"/>
<path d="M118.046 50.4639L120.395 53.6666L118.684 64.4014L116.333 61.1972L118.046 50.4639Z" fill="#F77A4A"/>
<path d="M118.683 64.6792C118.596 64.6792 118.513 64.6375 118.46 64.5653L116.11 61.3611C116.065 61.3014 116.047 61.2264 116.06 61.1528L117.772 50.4194C117.79 50.3083 117.872 50.2195 117.981 50.1931C118.089 50.1667 118.204 50.2083 118.269 50.2986L120.62 53.5028C120.664 53.5625 120.682 53.6375 120.67 53.7111L118.957 64.4445C118.939 64.5556 118.857 64.6445 118.749 64.6708C118.726 64.6764 118.704 64.6792 118.683 64.6792ZM116.626 61.1264L118.514 63.7L120.103 53.7375L118.215 51.1639L116.626 61.1264Z" fill="#FFECE5"/>
<path d="M116.829 51.0903L118.044 50.4639L116.332 61.1972L115.767 59.0194L116.718 53.0583C116.826 52.3847 116.861 51.7264 116.829 51.0903Z" fill="#F77A4A"/>
<path d="M116.333 61.475C116.207 61.475 116.096 61.3902 116.065 61.2666L115.5 59.0888C115.49 59.0513 115.489 59.0125 115.494 58.975L116.446 53.0138C116.549 52.3708 116.585 51.7277 116.554 51.1027C116.549 50.9944 116.607 50.8916 116.704 50.8416L117.919 50.2152C118.013 50.1666 118.125 50.1763 118.21 50.2375C118.294 50.2986 118.338 50.4027 118.321 50.5055L116.608 61.2388C116.588 61.3694 116.479 61.4666 116.347 61.4722C116.342 61.475 116.338 61.475 116.333 61.475ZM116.051 59.0055L116.268 59.8416L117.685 50.9611L117.114 51.2541C117.132 51.8597 117.092 52.4805 116.993 53.1L116.051 59.0055Z" fill="#FFECE5"/>
<path d="M104.328 66.4874L106.677 69.6916L104.309 84.5541L101.958 81.3499L104.328 66.4874Z" fill="#FCB59A"/>
<path d="M104.308 84.8319C104.221 84.8319 104.138 84.7902 104.085 84.718L101.735 81.5138C101.69 81.4541 101.672 81.3791 101.685 81.3055L104.054 66.443C104.072 66.3319 104.154 66.243 104.263 66.2166C104.371 66.1902 104.486 66.2319 104.551 66.3222L106.901 69.5263C106.946 69.5861 106.964 69.6611 106.951 69.7347L104.582 84.5972C104.564 84.7083 104.482 84.7972 104.374 84.8236C104.351 84.8291 104.329 84.8319 104.308 84.8319ZM102.25 81.2791L104.138 83.8527L106.383 69.7611L104.496 67.1875L102.25 81.2791Z" fill="#FFECE5"/>
<path d="M104.894 62.9416L104.758 63.793H101.964C101.726 65.2805 102.785 66.4889 104.328 66.4889L101.958 81.35H99.2748H44.0693H38.354L42.2818 56.7236L42.6943 54.1389H52.1457H53.7221H96.0512L95.2734 59.018L94.9443 59.5875H49.6207L49.4457 60.6875H94.3068L93.0026 62.9402H94.6457H104.894V62.9416ZM99.4221 67.3736L99.5971 66.2736H48.554L48.379 67.3736H99.4221ZM87.8665 74.0583L88.0415 72.9583H57.9776L57.8026 74.0583H87.8665Z" fill="#FCD2C2"/>
<path d="M101.958 81.6278H38.3527C38.2708 81.6278 38.1944 81.5917 38.1416 81.5305C38.0888 81.468 38.0652 81.3875 38.0791 81.3069L42.4194 54.0972C42.4402 53.9625 42.5569 53.8625 42.6944 53.8625H96.0513C96.1333 53.8625 96.2097 53.8986 96.2624 53.9597C96.3152 54.0222 96.3388 54.1028 96.3249 54.1833L95.5472 59.0625C95.5416 59.0958 95.5305 59.1278 95.5138 59.1583L95.1847 59.7278C95.1347 59.8139 95.043 59.8667 94.9444 59.8667H49.8569L49.7708 60.4111H94.3055C94.4041 60.4111 94.4972 60.4639 94.5458 60.55C94.5958 60.6361 94.5958 60.7417 94.5458 60.8278L93.4833 62.6639H104.893C104.975 62.6639 105.051 62.7 105.104 62.7611C105.157 62.8236 105.18 62.9042 105.167 62.9847L105.03 63.8361C105.008 63.9708 104.893 64.0708 104.755 64.0708H102.21C102.178 64.6083 102.336 65.1083 102.668 65.4958C103.061 65.9569 103.65 66.2111 104.325 66.2111C104.407 66.2111 104.483 66.2472 104.536 66.3083C104.589 66.3708 104.612 66.4514 104.599 66.5319L102.229 81.3944C102.211 81.5292 102.094 81.6278 101.958 81.6278ZM38.6791 81.0722H101.721L104.004 66.7486C103.299 66.6764 102.683 66.3653 102.247 65.8555C101.761 65.2861 101.562 64.5375 101.689 63.7486C101.71 63.6139 101.826 63.5139 101.964 63.5139H104.522L104.569 63.218H93.0027C92.9041 63.218 92.811 63.1653 92.7624 63.0792C92.7124 62.993 92.7124 62.8875 92.7624 62.8014L93.8249 60.9653H49.4458C49.3638 60.9653 49.2874 60.9292 49.2347 60.868C49.1819 60.8055 49.1583 60.725 49.1722 60.6444L49.3472 59.5444C49.368 59.4097 49.4847 59.3097 49.6222 59.3097H94.7833L95.0069 58.9236L95.7263 54.4167H42.9305L38.6791 81.0722ZM87.8666 74.3361H57.8027C57.7208 74.3361 57.6444 74.3 57.5916 74.2389C57.5388 74.1764 57.5152 74.0958 57.5291 74.0153L57.7041 72.9153C57.7249 72.7805 57.8416 72.6805 57.9791 72.6805H88.0416C88.1236 72.6805 88.1999 72.7167 88.2527 72.7778C88.3055 72.8403 88.3291 72.9208 88.3152 73.0014L88.1402 74.1014C88.1194 74.2361 88.0027 74.3361 87.8666 74.3361ZM58.1277 73.7805H87.6291L87.7152 73.2361H58.2138L58.1277 73.7805ZM99.4222 67.6514H48.3791C48.2972 67.6514 48.2208 67.6153 48.168 67.5542C48.1152 67.4917 48.0916 67.4111 48.1055 67.3305L48.2805 66.2305C48.3013 66.0958 48.418 65.9958 48.5555 65.9958H99.5985C99.6805 65.9958 99.7569 66.0319 99.8097 66.093C99.8624 66.1555 99.886 66.2361 99.8722 66.3167L99.6972 67.4167C99.6749 67.5514 99.5597 67.6514 99.4222 67.6514ZM48.7041 67.0958H99.1847L99.2708 66.5514H48.7916L48.7041 67.0958Z" fill="#FFECE5"/>
<path d="M99.275 81.35L101.624 84.5541L100.988 88.5416L98.6389 85.3389L99.275 81.35Z" fill="#FCB59A"/>
<path d="M100.988 88.8194C100.9 88.8194 100.817 88.7778 100.764 88.7056L98.414 85.5014C98.3695 85.4417 98.3515 85.3667 98.364 85.2931L99.0001 81.3056C99.0181 81.1945 99.1001 81.1056 99.2084 81.0792C99.3168 81.0528 99.432 81.0945 99.4973 81.1847L101.847 84.3889C101.892 84.4486 101.91 84.5236 101.897 84.5972L101.261 88.5847C101.243 88.6958 101.161 88.7847 101.053 88.8111C101.032 88.8167 101.01 88.8194 100.988 88.8194ZM98.9306 85.2681L100.818 87.8417L101.331 84.625L99.4445 82.0514L98.9306 85.2681Z" fill="#FFECE5"/>
<path d="M89.4625 110.51H44.5792C44.1472 110.51 43.7903 110.324 43.5764 110.032L45.9264 113.236C46.1417 113.529 46.4986 113.714 46.9292 113.714H91.8139L89.4625 110.51Z" fill="#F56630"/>
<path d="M91.8125 113.992H46.9292C46.425 113.992 45.9778 113.776 45.7014 113.4L43.3514 110.196C43.2612 110.072 43.2875 109.899 43.4112 109.807C43.5348 109.717 43.7084 109.743 43.8 109.867C43.9695 110.099 44.2542 110.232 44.5792 110.232H89.4639C89.5528 110.232 89.6361 110.274 89.6875 110.346L92.0375 113.55C92.1 113.635 92.1084 113.746 92.0612 113.84C92.0139 113.933 91.9181 113.992 91.8125 113.992ZM44.4723 110.785L46.15 113.071C46.3195 113.303 46.6042 113.436 46.9292 113.436H91.2653L89.3237 110.787H44.5792C44.5431 110.787 44.507 110.787 44.4723 110.785Z" fill="#FFECE5"/>
<path d="M94.6209 87.1014L93.0487 96.9625L91.107 109.138C91.0973 109.196 91.0834 109.253 91.0681 109.308C91.064 109.325 91.0584 109.34 91.0529 109.357C91.039 109.4 91.0237 109.442 91.0056 109.482C91.0001 109.496 90.9945 109.51 90.9876 109.525C90.9626 109.578 90.9362 109.631 90.9056 109.681C90.8973 109.694 90.8876 109.707 90.8792 109.721C90.8598 109.75 90.8417 109.779 90.8209 109.807C90.807 109.825 90.7931 109.843 90.7778 109.861C90.7612 109.881 90.7459 109.901 90.7292 109.921C90.7126 109.94 90.6959 109.958 90.6778 109.976C90.6626 109.993 90.6473 110.008 90.6306 110.025C90.6126 110.043 90.5917 110.06 90.5723 110.078C90.557 110.092 90.5404 110.107 90.5237 110.119C90.5042 110.136 90.4834 110.151 90.4626 110.167C90.4445 110.181 90.4278 110.194 90.4084 110.207C90.389 110.219 90.3695 110.232 90.3501 110.244C90.3279 110.258 90.3056 110.274 90.2834 110.286C90.2667 110.296 90.2501 110.304 90.2334 110.313C90.2042 110.328 90.1751 110.344 90.1445 110.358C90.1292 110.365 90.1126 110.372 90.0973 110.379C90.0556 110.397 90.0126 110.414 89.9681 110.428C89.9501 110.433 89.932 110.44 89.914 110.446C89.8987 110.45 89.882 110.454 89.8667 110.458C89.839 110.465 89.8098 110.472 89.7806 110.479C89.764 110.482 89.7487 110.486 89.732 110.489C89.7015 110.494 89.6709 110.499 89.6403 110.501C89.6265 110.503 89.6112 110.506 89.5973 110.507C89.5528 110.511 89.507 110.514 89.4612 110.514L91.8112 113.718C91.857 113.718 91.9015 113.715 91.9473 113.711C91.9612 113.71 91.9765 113.707 91.9904 113.706C92.0209 113.701 92.0515 113.697 92.082 113.693C92.0987 113.69 92.114 113.688 92.1306 113.683C92.1598 113.678 92.1876 113.671 92.2167 113.663C92.232 113.658 92.2487 113.654 92.264 113.65C92.2723 113.647 92.2806 113.646 92.289 113.643C92.2987 113.64 92.3084 113.635 92.3181 113.632C92.3612 113.617 92.4042 113.601 92.4459 113.583C92.4556 113.579 92.4653 113.576 92.4751 113.572C92.482 113.569 92.4876 113.565 92.4931 113.563C92.5237 113.549 92.5529 113.533 92.582 113.517C92.5945 113.51 92.6084 113.504 92.6209 113.497C92.6251 113.494 92.6279 113.493 92.632 113.49C92.6542 113.476 92.6765 113.463 92.6987 113.449C92.714 113.439 92.7306 113.429 92.7459 113.418C92.7487 113.415 92.7529 113.413 92.7556 113.411C92.7737 113.399 92.7917 113.385 92.8098 113.371C92.8265 113.358 92.8445 113.346 92.8598 113.333C92.864 113.331 92.8667 113.328 92.8709 113.324C92.8876 113.31 92.9029 113.296 92.9195 113.282C92.9348 113.268 92.9515 113.256 92.9653 113.242C92.9695 113.238 92.9737 113.233 92.9765 113.229C92.9931 113.214 93.0084 113.197 93.0237 113.181C93.0362 113.167 93.0515 113.154 93.064 113.14C93.0681 113.136 93.0709 113.131 93.0751 113.126C93.0917 113.107 93.1084 113.088 93.1237 113.067C93.1348 113.053 93.1473 113.04 93.157 113.026C93.1598 113.022 93.1626 113.018 93.1653 113.014C93.1862 112.986 93.2056 112.957 93.2237 112.928C93.2306 112.917 93.2403 112.906 93.2473 112.893C93.2487 112.892 93.2487 112.889 93.2501 112.888C93.2806 112.838 93.3084 112.785 93.332 112.732C93.3348 112.728 93.3376 112.722 93.339 112.718C93.3431 112.708 93.3459 112.699 93.3501 112.689C93.3681 112.647 93.3834 112.606 93.3973 112.564C93.4029 112.547 93.4084 112.532 93.4126 112.515C93.4292 112.46 93.4431 112.403 93.4515 112.344L95.3931 100.169L96.9654 90.3083L97.2459 88.5458L94.8959 85.3417L94.6209 87.1014Z" fill="#F77A4A"/>
<path d="M91.8125 113.992C91.7236 113.992 91.6403 113.95 91.5889 113.878L89.2389 110.674C89.1764 110.589 89.168 110.478 89.2153 110.383C89.2625 110.29 89.3583 110.231 89.4625 110.231C89.5 110.231 89.5361 110.228 89.5736 110.225L89.6083 110.221C89.6347 110.218 89.6597 110.214 89.6847 110.21L89.725 110.201C89.7486 110.196 89.7722 110.19 89.7958 110.185L89.8806 110.158C89.9167 110.146 89.9528 110.132 89.9875 110.117L90.0278 110.1C90.0528 110.089 90.0778 110.075 90.1028 110.062L90.1444 110.04C90.1583 110.032 90.1736 110.022 90.1875 110.014L90.2208 109.993C90.2306 109.986 90.2417 109.981 90.2514 109.974C90.2611 109.967 90.2708 109.96 90.2792 109.953L90.3097 109.931C90.3222 109.921 90.3361 109.911 90.3486 109.901L90.3889 109.865C90.4097 109.847 90.4236 109.835 90.4375 109.821C90.4472 109.811 90.4569 109.801 90.4653 109.792L90.4764 109.779C90.4944 109.76 90.5069 109.747 90.5194 109.733C90.5319 109.719 90.543 109.706 90.5542 109.69L90.5708 109.669C90.5792 109.658 90.5875 109.649 90.5958 109.637C90.6125 109.614 90.6292 109.59 90.6444 109.565L90.6667 109.532C90.6903 109.492 90.7125 109.45 90.7347 109.403L90.75 109.368C90.7639 109.335 90.7778 109.301 90.7889 109.267L90.8014 109.228C90.8167 109.175 90.8264 109.131 90.8333 109.09L94.6292 85.2916C94.6472 85.1805 94.7292 85.0916 94.8375 85.0653C94.9458 85.0389 95.0611 85.0805 95.1264 85.1708L97.4764 88.375C97.5208 88.4347 97.5389 88.5097 97.5264 88.5833L93.7305 112.382C93.7208 112.446 93.7056 112.512 93.6833 112.586C93.6792 112.601 93.6736 112.618 93.668 112.633C93.6486 112.693 93.6292 112.743 93.6083 112.792C93.6055 112.8 93.6014 112.812 93.5944 112.826C93.5917 112.832 93.5875 112.842 93.5833 112.849C93.5555 112.908 93.5264 112.964 93.4944 113.017C93.493 113.019 93.4917 113.022 93.4903 113.025C93.4792 113.043 93.4722 113.054 93.4639 113.065C93.4375 113.104 93.4153 113.139 93.3917 113.171C93.3917 113.171 93.3861 113.179 93.3806 113.186C93.3722 113.199 93.3611 113.21 93.3514 113.222L93.343 113.233C93.3194 113.262 93.3042 113.282 93.2861 113.301C93.2847 113.304 93.2778 113.311 93.2722 113.318C93.2611 113.331 93.25 113.342 93.2375 113.354L93.2264 113.365C93.2028 113.39 93.1875 113.406 93.1722 113.421L93.1583 113.435C93.1458 113.447 93.1319 113.46 93.1181 113.471L93.0944 113.492C93.0792 113.504 93.0653 113.518 93.05 113.531C93.0458 113.535 93.0403 113.539 93.0361 113.543C93.0236 113.553 93.0097 113.564 92.9944 113.574L92.9667 113.594C92.95 113.607 92.9347 113.619 92.9181 113.631C92.8931 113.649 92.8792 113.657 92.8653 113.665L92.8389 113.682C92.818 113.696 92.7958 113.71 92.7736 113.722L92.7611 113.731C92.7486 113.737 92.7361 113.744 92.7236 113.75C92.6819 113.772 92.6486 113.79 92.6139 113.806C92.6097 113.808 92.6014 113.812 92.593 113.817C92.5792 113.822 92.5681 113.828 92.5556 113.832C92.5097 113.851 92.4597 113.871 92.4097 113.887C92.4014 113.892 92.3889 113.896 92.3764 113.9C92.3667 113.903 92.3569 113.906 92.3486 113.908C92.3319 113.914 92.3153 113.918 92.3 113.922C92.2583 113.933 92.225 113.942 92.1917 113.949C92.1736 113.953 92.1542 113.957 92.1347 113.96C92.0986 113.967 92.0625 113.971 92.0264 113.975C92.0014 113.978 91.9889 113.979 91.9764 113.981C91.9194 113.989 91.8667 113.992 91.8125 113.992ZM89.9597 110.718L91.9472 113.428L91.9583 113.426C91.9833 113.424 92.0083 113.419 92.0333 113.415L92.0736 113.407C92.0986 113.401 92.1222 113.396 92.1458 113.39L92.1847 113.379C92.1875 113.378 92.2028 113.374 92.2055 113.374C92.2097 113.372 92.2194 113.368 92.2305 113.364C92.2667 113.351 92.3028 113.337 92.3375 113.322C92.3458 113.319 92.3542 113.315 92.3625 113.312C92.3681 113.31 92.3722 113.307 92.3778 113.306C92.4028 113.294 92.4278 113.281 92.4528 113.267L92.4792 113.253C92.4833 113.25 92.4889 113.247 92.4931 113.244C92.5083 113.235 92.5236 113.226 92.5375 113.217L92.5917 113.182C92.6097 113.169 92.618 113.162 92.6278 113.154L92.6861 113.11C92.7042 113.094 92.7125 113.086 92.7222 113.079L92.7847 113.022C92.7944 113.012 92.8042 113.003 92.8139 112.992L92.8236 112.982L92.8681 112.935C92.8792 112.922 92.8903 112.908 92.9014 112.894L92.9444 112.84C92.9625 112.817 92.9778 112.792 92.993 112.768L93.0097 112.743C93.0111 112.74 93.0125 112.739 93.0139 112.736C93.0389 112.696 93.0611 112.653 93.0833 112.607C93.0847 112.604 93.0875 112.6 93.0889 112.594C93.0903 112.589 93.0944 112.581 93.0972 112.572C93.1125 112.537 93.125 112.504 93.1361 112.469L93.1486 112.431C93.1639 112.378 93.1736 112.333 93.1806 112.293L96.9583 88.6097L95.0708 86.0361L91.3805 109.181C91.3708 109.244 91.3555 109.31 91.3333 109.385C91.3292 109.401 91.3236 109.418 91.318 109.435C91.2986 109.493 91.2805 109.542 91.2597 109.59C91.25 109.615 91.2444 109.628 91.2375 109.64C91.2083 109.704 91.175 109.767 91.1403 109.822C91.1333 109.835 91.125 109.846 91.1167 109.858C91.0875 109.903 91.0653 109.937 91.0403 109.969C91.0278 109.986 91.0139 110.004 91 110.019L90.9903 110.031C90.968 110.058 90.9514 110.079 90.9333 110.099C90.9153 110.118 90.8972 110.137 90.8792 110.157L90.8639 110.174C90.85 110.189 90.8347 110.204 90.8194 110.218C90.8 110.237 90.7792 110.256 90.7597 110.274L90.7403 110.29C90.7264 110.303 90.7125 110.315 90.6972 110.328C90.6778 110.343 90.6583 110.358 90.6389 110.372L90.6125 110.392C90.5972 110.404 90.5805 110.417 90.5639 110.428C90.5472 110.439 90.5305 110.45 90.5125 110.461L90.4833 110.479C90.4625 110.493 90.4403 110.507 90.4194 110.519C90.4056 110.528 90.3903 110.535 90.3764 110.543L90.3625 110.55C90.3278 110.568 90.2944 110.586 90.2597 110.603C90.2444 110.61 90.2305 110.615 90.2167 110.622C90.1555 110.649 90.1056 110.668 90.0556 110.685L90.0417 110.69C90.025 110.696 90.0097 110.701 89.9931 110.707C89.9833 110.712 89.9722 110.715 89.9597 110.718Z" fill="#FFECE5"/>
<path d="M116.056 62.9417L118.404 66.1444L112.979 100.165L110.629 96.9625L116.056 62.9417Z" fill="#F77A4A"/>
<path d="M112.979 100.443C112.892 100.443 112.808 100.401 112.755 100.329L110.405 97.125C110.361 97.0653 110.343 96.9903 110.355 96.9167L115.782 62.8958C115.8 62.7847 115.882 62.6958 115.99 62.6694C116.098 62.6431 116.214 62.6847 116.279 62.775L118.629 65.9792C118.673 66.0389 118.692 66.1139 118.679 66.1875L113.253 100.208C113.235 100.319 113.153 100.408 113.044 100.435C113.022 100.442 113 100.443 112.979 100.443ZM110.922 96.8917L112.81 99.4653L118.112 66.2153L116.225 63.6417L110.922 96.8917Z" fill="#FFECE5"/>
<path d="M118.683 64.3999L119.135 66.143L116.785 62.9402L116.333 61.1972L115.768 59.0208L116.718 53.0583C116.825 52.3847 116.861 51.7277 116.829 51.0902C116.818 50.8791 116.8 50.6708 116.776 50.4638C116.757 50.2999 116.731 50.1388 116.703 49.9805C116.699 49.9527 116.693 49.9263 116.688 49.8999C116.658 49.7472 116.625 49.5972 116.589 49.4472C116.582 49.418 116.574 49.3874 116.567 49.3597C116.528 49.2083 116.485 49.0569 116.438 48.9083C116.435 48.9013 116.432 48.893 116.431 48.8861C116.39 48.7611 116.345 48.6388 116.297 48.5166C116.268 48.4374 116.236 48.3611 116.204 48.2833C116.171 48.2013 116.136 48.1208 116.1 48.0402C116.065 47.9638 116.031 47.8902 115.992 47.8138C115.953 47.7319 115.911 47.6513 115.867 47.5708C115.835 47.5097 115.803 47.4513 115.77 47.3916C115.721 47.3083 115.672 47.2249 115.621 47.143C115.586 47.0874 115.551 47.0291 115.515 46.9749C115.436 46.8527 115.354 46.7305 115.27 46.6138L117.618 49.8166C117.688 49.9111 117.754 50.0041 117.818 50.1013C117.835 50.1249 117.85 50.1513 117.865 50.1777C117.901 50.2319 117.936 50.2902 117.971 50.3458C118.022 50.4277 118.071 50.5111 118.12 50.5944C118.153 50.6541 118.185 50.7124 118.217 50.7736C118.238 50.8111 118.261 50.8499 118.281 50.8888C118.301 50.9319 118.321 50.9749 118.342 51.0166C118.378 51.093 118.414 51.1666 118.45 51.243C118.486 51.3236 118.52 51.4041 118.554 51.4861C118.586 51.5638 118.617 51.6402 118.647 51.7194C118.661 51.7541 118.676 51.7888 118.69 51.8236C118.722 51.9111 118.751 52.0013 118.779 52.0902C118.782 52.0972 118.785 52.1041 118.789 52.1111C118.836 52.2597 118.878 52.4111 118.918 52.5624C118.925 52.593 118.933 52.6222 118.94 52.6513C118.972 52.7805 119.003 52.9111 119.028 53.043C119.032 53.0624 119.035 53.0833 119.039 53.1041C119.045 53.1319 119.049 53.1569 119.054 53.1847C119.083 53.3444 119.108 53.5041 119.128 53.668C119.151 53.8736 119.171 54.0833 119.181 54.2944C119.213 54.9305 119.178 55.5888 119.07 56.2638L118.12 62.2249L118.683 64.3999Z" fill="#FCB59A"/>
<path d="M119.135 66.4222C119.049 66.4222 118.964 66.3819 118.911 66.3083L116.561 63.1055C116.54 63.0777 116.525 63.0444 116.517 63.0111L115.5 59.0902C115.49 59.0527 115.489 59.0139 115.495 58.9764L116.445 53.0139C116.547 52.3722 116.583 51.7291 116.551 51.1041C116.542 50.9069 116.524 50.7027 116.5 50.4972C116.483 50.3555 116.46 50.2027 116.428 50.0305C116.424 50.0055 116.421 49.9847 116.415 49.9639C116.388 49.8166 116.356 49.6736 116.317 49.5125L116.296 49.4305C116.254 49.2694 116.214 49.1291 116.174 49C116.17 48.9875 116.165 48.9764 116.163 48.9639C116.121 48.8361 116.072 48.7097 116.036 48.6139C116.007 48.5347 115.976 48.4611 115.946 48.3861C115.914 48.3069 115.881 48.2291 115.845 48.1527C115.811 48.0819 115.778 48.0097 115.742 47.9361C115.703 47.8555 115.664 47.7791 115.622 47.7027C115.589 47.6402 115.558 47.5833 115.526 47.5277C115.481 47.45 115.435 47.3694 115.385 47.2902L115.363 47.2541C115.336 47.2125 115.31 47.1694 115.283 47.1291C115.199 46.9972 115.121 46.8833 115.045 46.7777C114.954 46.6541 114.982 46.4805 115.106 46.3902C115.229 46.3 115.403 46.3264 115.493 46.45L117.842 49.6527C117.92 49.7583 117.989 49.8555 118.05 49.95C118.067 49.9736 118.085 50.0041 118.103 50.0347C118.126 50.068 118.156 50.1152 118.183 50.1625L118.207 50.2C118.258 50.2805 118.307 50.3652 118.356 50.45C118.396 50.5208 118.429 50.5833 118.463 50.6458L118.475 50.668C118.493 50.7 118.511 50.7319 118.528 50.7652C118.542 50.793 118.556 50.8222 118.568 50.85L118.617 50.9514C118.645 51.0097 118.672 51.068 118.7 51.1264C118.731 51.193 118.757 51.2583 118.785 51.3236L118.807 51.3764C118.84 51.4583 118.872 51.5375 118.903 51.6194L118.945 51.7222C118.978 51.8152 119.007 51.9055 119.036 51.9944L119.043 52.0097C119.046 52.0152 119.047 52.0222 119.05 52.0291C119.095 52.1708 119.138 52.3222 119.183 52.4944L119.207 52.5861C119.246 52.743 119.275 52.8708 119.299 52.9916C119.303 53.0069 119.307 53.0333 119.31 53.0583C119.311 53.0639 119.314 53.0819 119.317 53.0986L119.322 53.125C119.358 53.3194 119.383 53.4833 119.401 53.6361C119.428 53.8555 119.446 54.0722 119.456 54.2819C119.489 54.9458 119.45 55.6277 119.342 56.3083L118.4 62.2125L118.951 64.3333L119.403 66.0764C119.436 66.2055 119.374 66.3402 119.253 66.3972C119.217 66.4125 119.175 66.4222 119.135 66.4222ZM117.04 62.8194L118.503 64.8125L117.849 62.293C117.839 62.2555 117.838 62.2166 117.843 62.1791L118.793 56.218C118.896 55.575 118.932 54.9319 118.9 54.3069C118.89 54.1097 118.872 53.9055 118.849 53.7C118.832 53.5597 118.808 53.4069 118.776 53.2333C118.775 53.2264 118.771 53.2083 118.768 53.1902L118.763 53.1639C118.761 53.1583 118.76 53.1514 118.76 53.1458C118.757 53.1291 118.756 53.1166 118.753 53.1055C118.729 52.9861 118.703 52.8652 118.665 52.718L118.643 52.6291C118.603 52.4736 118.563 52.3347 118.522 52.2055L118.517 52.1916C118.514 52.1861 118.513 52.1791 118.51 52.1736C118.482 52.0875 118.454 52.0014 118.424 51.9166L118.383 51.818C118.353 51.7402 118.324 51.6639 118.293 51.5889L118.271 51.5375C118.245 51.4764 118.22 51.4152 118.192 51.3541C118.167 51.3 118.14 51.2458 118.114 51.1902L118.063 51.0819C118.051 51.0583 118.04 51.0333 118.028 51.0097C118.015 50.9861 118.003 50.9625 117.989 50.9389L117.971 50.9055C117.936 50.8402 117.906 50.7833 117.874 50.7277C117.826 50.6458 117.781 50.568 117.732 50.4902L117.707 50.45C117.682 50.4083 117.656 50.3666 117.629 50.3277C117.626 50.3236 117.624 50.3194 117.621 50.3152C117.608 50.2944 117.597 50.275 117.585 50.2555C117.525 50.1652 117.463 50.0764 117.39 49.9791L116.8 49.175C116.81 49.2111 116.82 49.2486 116.829 49.2861L116.851 49.3736C116.895 49.5486 116.928 49.7014 116.954 49.8458C116.958 49.8652 116.965 49.8986 116.971 49.9319C117.003 50.1111 117.028 50.275 117.047 50.4277C117.074 50.6472 117.092 50.8639 117.101 51.0736C117.135 51.7375 117.096 52.4194 116.988 53.0986L116.046 59.0041L117.04 62.8194Z" fill="#FFECE5"/>
<path d="M99.275 81.35L98.6389 85.3389H94.9028H93.325H48.7445H47.1695H43.4333L44.0695 81.35H99.275Z" fill="#FA9874"/>
<path d="M98.6388 85.6167H43.4333C43.3513 85.6167 43.275 85.5806 43.2222 85.5194C43.1694 85.4569 43.1458 85.3764 43.1597 85.2958L43.7958 81.3083C43.8166 81.1736 43.9333 81.0736 44.0708 81.0736H99.2763C99.3583 81.0736 99.4347 81.1097 99.4875 81.1708C99.5402 81.2333 99.5638 81.3139 99.55 81.3944L98.9138 85.3819C98.8916 85.5167 98.775 85.6167 98.6388 85.6167ZM43.7583 85.0611H98.4013L98.9486 81.6292H44.3055L43.7583 85.0611Z" fill="#FFECE5"/>
<path d="M45.593 105.099L48.7444 85.3375H93.325L90.1736 105.099C90.1138 105.476 89.7458 105.785 89.3527 105.785H46.1972C45.8027 105.786 45.5333 105.478 45.593 105.099Z" fill="#FFECE5"/>
<path d="M89.3528 106.064H46.1973C45.925 106.064 45.6736 105.953 45.5084 105.758C45.3445 105.567 45.2778 105.317 45.3195 105.056L48.4709 85.2944C48.4917 85.1597 48.6084 85.0597 48.7459 85.0597H93.3264C93.4084 85.0597 93.4848 85.0958 93.5375 85.1569C93.5903 85.2194 93.6139 85.3 93.6 85.3805L90.4486 105.142C90.3653 105.658 89.8848 106.064 89.3528 106.064ZM48.982 85.6166L45.8681 105.143C45.8528 105.242 45.875 105.332 45.932 105.399C45.9931 105.469 46.0875 105.508 46.1973 105.508H89.3528C89.6098 105.508 89.8598 105.301 89.9 105.056L93 85.6166H48.982Z" fill="#FFECE5"/>
<path d="M101.958 81.35H99.275H44.0694H38.3528L40.7028 84.5541H46.4181H101.624H104.308L101.958 81.35Z" fill="#FCB59A"/>
<path d="M104.308 84.8319H40.7029C40.614 84.8319 40.5307 84.7902 40.4793 84.718L38.1293 81.5139C38.0668 81.4291 38.0584 81.318 38.1057 81.2236C38.1529 81.1305 38.2487 81.0708 38.3529 81.0708H101.958C102.047 81.0708 102.131 81.1125 102.182 81.1847L104.532 84.3889C104.595 84.4736 104.603 84.5847 104.556 84.6791C104.508 84.7722 104.413 84.8319 104.308 84.8319ZM40.8432 84.2764H103.758L101.817 81.6277H38.9015L40.8432 84.2764Z" fill="#FFECE5"/>
<path d="M100.988 88.5416H45.7834L43.4333 85.3389H98.6389L100.988 88.5416Z" fill="#FCB59A"/>
<path d="M100.988 88.8194H45.7834C45.6946 88.8194 45.6112 88.7777 45.5598 88.7055L43.2098 85.5027C43.1473 85.418 43.139 85.3069 43.1862 85.2125C43.2334 85.1194 43.3293 85.0597 43.4334 85.0597H98.639C98.7279 85.0597 98.8112 85.1014 98.8626 85.1736L101.213 88.3764C101.275 88.4611 101.283 88.5722 101.236 88.6666C101.189 88.7611 101.093 88.8194 100.988 88.8194ZM45.9237 88.2639H100.44L98.4987 85.6166H43.9821L45.9237 88.2639Z" fill="#FFECE5"/>
<path d="M94.9416 59.5889L94.3055 60.6875H49.4458L49.6208 59.5889H94.9416Z" fill="#F56630"/>
<path d="M94.3056 60.9652H49.4445C49.3626 60.9652 49.2862 60.9291 49.2334 60.868C49.1806 60.8069 49.157 60.725 49.1709 60.6444L49.3459 59.5444C49.3667 59.4097 49.4834 59.3097 49.6209 59.3097H94.9417C95.0403 59.3097 95.1334 59.3625 95.182 59.4486C95.232 59.5347 95.232 59.6402 95.182 59.7264L94.5459 60.8264C94.4973 60.9125 94.4056 60.9652 94.3056 60.9652ZM49.7709 60.4097H94.1459L94.4612 59.8652H49.857L49.7709 60.4097Z" fill="#F56630"/>
<path d="M88.0416 72.9583L87.8666 74.0583H57.8027L57.9777 72.9583H88.0416Z" fill="#F56630"/>
<path d="M87.8666 74.3361H57.8027C57.7207 74.3361 57.6443 74.3 57.5916 74.2389C57.5388 74.1764 57.5152 74.0958 57.5291 74.0153L57.7041 72.9153C57.7249 72.7805 57.8416 72.6805 57.9791 72.6805H88.0416C88.1235 72.6805 88.1999 72.7167 88.2527 72.7778C88.3054 72.8403 88.3291 72.9208 88.3152 73.0014L88.1402 74.1014C88.1193 74.2361 88.0027 74.3361 87.8666 74.3361ZM58.1277 73.7805H87.6291L87.7152 73.2361H58.2138L58.1277 73.7805Z" fill="#F56630"/>
<path d="M99.5986 66.2736L99.4222 67.3736H48.3792L48.5542 66.2736H99.5986Z" fill="#F56630"/>
<path d="M99.4221 67.6513H48.3791C48.2971 67.6513 48.2208 67.6152 48.168 67.5541C48.1152 67.493 48.0916 67.4111 48.1055 67.3305L48.2805 66.2305C48.3013 66.0958 48.418 65.9958 48.5555 65.9958H99.5985C99.6805 65.9958 99.7569 66.0319 99.8096 66.093C99.8624 66.1541 99.886 66.2361 99.8721 66.3166L99.6971 67.4166C99.6749 67.5513 99.5596 67.6513 99.4221 67.6513ZM48.7041 67.0958H99.1846L99.2708 66.5513H48.7916L48.7041 67.0958Z" fill="#F56630"/>
<path d="M108.267 41.7944C109.057 41.7944 109.599 42.4111 109.478 43.175C109.472 43.2069 109.465 43.2389 109.457 43.2722C111.668 43.575 113.531 44.5861 114.832 46.0694C115.886 47.2694 116.571 48.7778 116.776 50.4639C116.801 50.6694 116.82 50.8792 116.829 51.0903C116.861 51.7264 116.826 52.3847 116.718 53.0583L115.767 59.0194L116.332 61.1972L116.785 62.9403H116.054H115.142H104.893H94.6445H93.0015L94.3056 60.6875L94.9417 59.5875L95.2709 59.018L96.0487 54.1389L96.2209 53.0569C96.5945 50.718 97.7792 48.568 99.4584 46.8764C100.015 46.3153 100.625 45.8055 101.278 45.3542C102.858 44.2625 104.689 43.5222 106.604 43.2694C106.607 43.2375 106.61 43.2055 106.614 43.1736C106.738 42.4111 107.476 41.7944 108.267 41.7944Z" fill="#FCB59A"/>
<path d="M116.786 63.2194H93.0029C92.9043 63.2194 92.8112 63.1667 92.7626 63.0805C92.7126 62.9944 92.7126 62.8889 92.7626 62.8028L95.0056 58.9264L95.9487 53.0153C96.3209 50.6833 97.4668 48.493 99.2626 46.6819C99.8307 46.1097 100.456 45.5861 101.122 45.1264C102.718 44.025 104.525 43.3 106.363 43.025C106.553 42.1847 107.385 41.5167 108.267 41.5167C108.738 41.5167 109.153 41.6986 109.436 42.0305C109.674 42.3083 109.79 42.6625 109.771 43.0389C111.865 43.3861 113.729 44.3903 115.04 45.8861C116.147 47.1472 116.843 48.7194 117.051 50.4305C117.078 50.643 117.096 50.8597 117.107 51.0764C117.14 51.7389 117.101 52.4208 116.993 53.1028L116.051 59.0069L117.056 62.8722C117.078 62.9555 117.058 63.0444 117.007 63.1125C116.953 63.1792 116.872 63.2194 116.786 63.2194ZM93.4834 62.6639H116.426L115.499 59.0903C115.489 59.0528 115.488 59.0139 115.493 58.9764L116.445 53.0153C116.547 52.3722 116.583 51.7292 116.553 51.1042C116.543 50.9014 116.525 50.6972 116.501 50.4972C116.307 48.8972 115.658 47.4292 114.624 46.2514C113.324 44.7694 111.525 43.8347 109.42 43.5458C109.342 43.5347 109.272 43.493 109.228 43.4278C109.183 43.3639 109.168 43.2833 109.186 43.2069C109.193 43.1764 109.199 43.1528 109.203 43.1292C109.247 42.8486 109.181 42.5847 109.013 42.3889C108.838 42.1833 108.572 42.0708 108.267 42.0708C107.608 42.0708 106.99 42.5847 106.89 43.2167C106.886 43.2417 106.885 43.2667 106.882 43.2917C106.872 43.4222 106.771 43.5278 106.642 43.5458C104.82 43.7861 103.021 44.4903 101.438 45.5833C100.8 46.0236 100.2 46.525 99.657 47.0722C97.9682 48.775 96.8459 50.9167 96.4973 53.1014L95.5459 59.0625C95.5404 59.0958 95.5293 59.1278 95.5126 59.1583L93.4834 62.6639Z" fill="#FFECE5"/>
<path d="M117.391 53.6597C117.882 53.6597 118.219 54.0445 118.144 54.5181C118.068 54.9931 117.61 55.3764 117.118 55.3764C116.626 55.3764 116.289 54.9917 116.364 54.5181C116.44 54.0445 116.9 53.6597 117.391 53.6597Z" fill="#CDC4C4"/>
<path d="M118.981 43.7402C119.526 43.7402 119.904 44.2013 119.776 44.7333L117.915 52.793C117.869 52.9902 117.676 53.1388 117.476 53.1388C117.468 53.1388 117.458 53.1388 117.45 53.1375C117.258 53.125 117.131 52.975 117.147 52.793L117.857 44.7333C117.901 44.2222 118.372 43.7777 118.91 43.743C118.932 43.7416 118.956 43.7402 118.981 43.7402Z" fill="#CDC4C4"/>
<path d="M119.329 41.5083C123.939 41.5083 127.098 45.1125 126.39 49.5583C125.68 54.0055 121.371 57.6083 116.761 57.6083C112.15 57.6083 108.989 54.0055 109.698 49.5583C110.408 45.1125 114.719 41.5083 119.329 41.5083Z" fill="#F56630"/>
<path d="M116.762 57.9764C114.386 57.9764 112.303 57.0694 110.897 55.4222C109.536 53.8264 108.982 51.7236 109.336 49.5C110.071 44.8903 114.554 41.1403 119.33 41.1403C121.705 41.1403 123.789 42.0472 125.194 43.6944C126.555 45.2903 127.111 47.393 126.755 49.6166C126.019 54.2264 121.537 57.9764 116.762 57.9764ZM119.329 41.8764C114.9 41.8764 110.743 45.3486 110.062 49.6153C109.743 51.6222 110.237 53.5139 111.457 54.943C112.721 56.4236 114.604 57.2389 116.761 57.2389C121.189 57.2389 125.346 53.7666 126.026 49.5C126.346 47.493 125.851 45.6014 124.632 44.1722C123.369 42.693 121.486 41.8764 119.329 41.8764Z" fill="#FFECE5"/>
<path d="M119.775 44.7333C119.903 44.2013 119.525 43.7402 118.979 43.7402C118.956 43.7402 118.931 43.7416 118.906 43.743C118.368 43.7777 117.897 44.2222 117.853 44.7333L117.143 52.793C117.126 52.9763 117.254 53.125 117.446 53.1375C117.454 53.1375 117.464 53.1388 117.472 53.1388C117.674 53.1388 117.867 52.9902 117.911 52.793L119.775 44.7333Z" fill="#FFECE5"/>
<path d="M117.474 53.5069C117.456 53.5069 117.437 53.5069 117.421 53.5055C117.231 53.493 117.058 53.4083 116.937 53.268C116.818 53.1291 116.761 52.9486 116.778 52.7611L117.487 44.7014C117.547 44.0055 118.16 43.4222 118.883 43.3764C118.914 43.3736 118.947 43.3722 118.981 43.3722C119.358 43.3722 119.703 43.5347 119.926 43.8166C120.144 44.0944 120.221 44.4597 120.135 44.818L118.274 52.8764C118.19 53.2361 117.847 53.5069 117.474 53.5069ZM118.981 44.1083C118.965 44.1083 118.95 44.1083 118.933 44.1097C118.575 44.1333 118.25 44.4319 118.221 44.7639L117.518 52.7527C117.536 52.7402 117.551 52.7236 117.554 52.7083L119.417 44.6486C119.417 44.6472 119.417 44.6458 119.418 44.6458C119.451 44.5055 119.426 44.3722 119.347 44.2708C119.264 44.1666 119.133 44.1083 118.981 44.1083Z" fill="#FFECE5"/>
<path d="M117.118 55.3777C117.608 55.3777 118.068 54.993 118.145 54.5194C118.221 54.0444 117.883 53.6611 117.392 53.6611C116.9 53.6611 116.44 54.0458 116.364 54.5194C116.289 54.9944 116.625 55.3777 117.118 55.3777Z" fill="#FFECE5"/>
<path d="M117.118 55.7458C116.771 55.7458 116.451 55.6041 116.242 55.3583C116.033 55.1138 115.947 54.7944 116 54.4611C116.104 53.8055 116.715 53.2916 117.392 53.2916C117.738 53.2916 118.057 53.4333 118.267 53.6791C118.475 53.9236 118.561 54.243 118.508 54.5777C118.403 55.2333 117.793 55.7458 117.118 55.7458ZM117.392 54.0291C117.079 54.0291 116.775 54.2805 116.728 54.5777C116.708 54.6972 116.735 54.8013 116.801 54.8805C116.872 54.9638 116.985 55.0097 117.117 55.0097C117.428 55.0097 117.732 54.7583 117.779 54.4611C117.799 54.3416 117.772 54.2375 117.706 54.1583C117.635 54.075 117.524 54.0291 117.392 54.0291Z" fill="#FFECE5"/>
<path d="M116.786 62.9417H116.055H115.142H104.894H94.6457H93.0027L95.3513 66.1444H96.9957H107.244H117.492H118.405H119.136L116.786 62.9417Z" fill="#FCB59A"/>
<path d="M119.136 66.4222H95.3513C95.2624 66.4222 95.1791 66.3805 95.1277 66.3083L92.7777 63.1055C92.7152 63.0208 92.7069 62.9097 92.7541 62.8152C92.8013 62.7222 92.8971 62.6625 93.0013 62.6625H116.785C116.874 62.6625 116.957 62.7041 117.008 62.7764L119.358 65.9805C119.421 66.0653 119.429 66.1764 119.382 66.2708C119.336 66.3639 119.24 66.4222 119.136 66.4222ZM95.493 65.8666H118.587L116.646 63.218H93.5499L95.493 65.8666Z" fill="#FFECE5"/>
<path d="M109.632 67.8305C109.641 67.8111 109.651 67.7916 109.661 67.7722C109.668 67.7583 109.675 67.7444 109.682 67.7291C109.71 67.668 109.735 67.6069 109.758 67.5444C109.761 67.5361 109.764 67.5278 109.767 67.5194C109.792 67.4486 109.815 67.3778 109.835 67.3055C109.84 67.2847 109.846 67.2639 109.851 67.243C109.872 67.1625 109.89 67.0805 109.903 66.9972L107.553 63.793C107.539 63.8764 107.521 63.9569 107.501 64.0389C107.496 64.0597 107.49 64.0805 107.485 64.1014C107.465 64.1736 107.442 64.2458 107.417 64.3153C107.414 64.3236 107.411 64.3319 107.408 64.3403C107.379 64.418 107.346 64.493 107.311 64.568C107.301 64.5875 107.291 64.6069 107.282 64.6264C107.251 64.6889 107.218 64.75 107.183 64.8097C107.175 64.8236 107.168 64.8375 107.16 64.8514C107.141 64.8805 107.122 64.9083 107.104 64.9361C107.067 64.993 107.029 65.05 106.989 65.1041C106.962 65.1403 106.933 65.175 106.905 65.2097C106.873 65.2486 106.843 65.2875 106.81 65.3264C106.778 65.3639 106.743 65.3986 106.71 65.4333C106.679 65.4653 106.65 65.4972 106.618 65.5278C106.58 65.5639 106.543 65.5972 106.504 65.6319C106.473 65.6597 106.443 65.6875 106.411 65.7139C106.372 65.7458 106.33 65.7764 106.29 65.8069C106.255 65.8333 106.222 65.8597 106.186 65.8847C106.148 65.9111 106.111 65.9333 106.072 65.9583C106.029 65.9861 105.986 66.0153 105.942 66.0403C105.91 66.0597 105.875 66.075 105.843 66.093C105.786 66.1236 105.728 66.1541 105.669 66.1819C105.598 66.2153 105.526 66.2472 105.453 66.275C105.453 66.275 105.451 66.275 105.451 66.2764C105.375 66.3055 105.296 66.3305 105.217 66.3555C105.186 66.3653 105.155 66.3722 105.123 66.3805C105.068 66.3958 105.012 66.4083 104.955 66.4208C104.923 66.4278 104.891 66.4347 104.86 66.4403C104.8 66.4514 104.74 66.4597 104.68 66.4666C104.653 66.4694 104.623 66.4736 104.596 66.4764C104.507 66.4847 104.418 66.4889 104.329 66.4889C104.186 66.4889 104.05 66.475 103.917 66.4555L101.964 63.793C101.951 63.8736 101.943 63.9528 101.937 64.0319C101.936 64.0583 101.936 64.0833 101.935 64.1097C101.933 64.1625 101.93 64.2139 101.932 64.2653C101.933 64.2958 101.936 64.325 101.937 64.3555C101.94 64.4014 101.943 64.4472 101.948 64.4916C101.953 64.5222 101.957 64.5528 101.962 64.5833C101.967 64.6111 101.969 64.6403 101.975 64.668C101.978 64.6847 101.983 64.7 101.986 64.7166C101.99 64.7389 101.996 64.7597 102.001 64.7805C102.014 64.8305 102.028 64.8791 102.043 64.9264C102.048 64.9444 102.054 64.9625 102.06 64.9791C102.062 64.9861 102.064 64.9944 102.067 65.0014C102.072 65.018 102.082 65.0333 102.087 65.05C102.11 65.1083 102.135 65.1653 102.161 65.2208C102.167 65.2319 102.171 65.2444 102.176 65.2569C102.185 65.2736 102.196 65.2875 102.204 65.3041C102.226 65.3458 102.25 65.3861 102.276 65.4264C102.286 65.4416 102.293 65.4583 102.304 65.4722C102.322 65.4986 102.34 65.525 102.36 65.5514L104.71 68.7555C104.71 68.7555 104.71 68.7541 104.708 68.7541L104.71 68.7555C105.13 69.3291 105.832 69.693 106.679 69.693C106.768 69.693 106.857 69.6875 106.946 69.6805C106.973 69.6778 107.003 69.6736 107.03 69.6708C107.09 69.6639 107.151 69.6555 107.21 69.6444C107.241 69.6389 107.273 69.6319 107.305 69.625C107.362 69.6125 107.418 69.6 107.473 69.5847C107.504 69.5764 107.535 69.568 107.566 69.5597C107.583 69.5555 107.598 69.5514 107.615 69.5458C107.678 69.5264 107.74 69.5041 107.801 69.4805H107.803C107.864 69.4569 107.923 69.4319 107.982 69.4055C107.994 69.4 108.007 69.393 108.019 69.3861C108.079 69.3583 108.136 69.3278 108.193 69.2972C108.218 69.2833 108.244 69.2722 108.269 69.2583C108.276 69.2541 108.285 69.2486 108.292 69.2444C108.336 69.218 108.379 69.1903 108.422 69.1625C108.454 69.143 108.486 69.125 108.517 69.1028C108.523 69.0986 108.529 69.093 108.536 69.0889C108.572 69.0639 108.605 69.0375 108.64 69.0111C108.673 68.9861 108.707 68.9625 108.739 68.9375C108.746 68.9319 108.753 68.925 108.76 68.9194C108.792 68.893 108.822 68.8653 108.853 68.8375C108.883 68.8111 108.914 68.7861 108.943 68.7583C108.951 68.75 108.958 68.7416 108.966 68.7347C108.998 68.7041 109.028 68.6722 109.058 68.6403C109.083 68.6139 109.111 68.5875 109.136 68.5611C109.144 68.5528 109.151 68.5416 109.16 68.5333C109.193 68.4958 109.223 68.4569 109.255 68.4166C109.278 68.3903 109.3 68.3639 109.321 68.3375C109.326 68.3291 109.332 68.3208 109.337 68.3125C109.378 68.2583 109.415 68.2014 109.453 68.1444C109.468 68.1222 109.485 68.1 109.498 68.0764C109.501 68.0708 109.505 68.0653 109.508 68.0597C109.517 68.0458 109.523 68.0319 109.532 68.018C109.568 67.9528 109.601 67.8916 109.632 67.8305Z" fill="#FCB59A"/>
<path d="M106.678 69.9694C105.776 69.9694 104.979 69.5889 104.489 68.9236C104.487 68.9222 104.486 68.9194 104.485 68.918L102.135 65.7139C102.114 65.6847 102.093 65.6555 102.072 65.625C102.062 65.6111 102.054 65.5958 102.046 65.5805C102.012 65.5277 101.986 65.4819 101.961 65.4361C101.947 65.4125 101.937 65.3986 101.931 65.3819C101.924 65.3694 101.918 65.3555 101.912 65.3402C101.883 65.2791 101.856 65.2152 101.831 65.15C101.819 65.1277 101.812 65.1111 101.807 65.0944C101.806 65.0902 101.8 65.0736 101.799 65.0694C101.794 65.0555 101.789 65.0416 101.785 65.0277L101.779 65.0111C101.762 64.9569 101.746 64.9027 101.732 64.8472C101.726 64.8236 101.721 64.7986 101.715 64.775C101.708 64.7486 101.706 64.7347 101.703 64.7208C101.699 64.6986 101.696 64.675 101.692 64.6527L101.685 64.6083C101.681 64.5805 101.675 64.5513 101.672 64.5222C101.667 64.4722 101.662 64.4208 101.66 64.3694L101.658 64.3444C101.657 64.3194 101.655 64.2944 101.654 64.2694C101.653 64.2125 101.654 64.1541 101.657 64.0972V64.0722C101.657 64.0514 101.658 64.0319 101.66 64.0111C101.667 63.9194 101.676 63.8319 101.689 63.7472C101.707 63.6361 101.789 63.5472 101.899 63.5208C102.008 63.4944 102.122 63.5361 102.187 63.6263L104.069 66.193C104.247 66.2138 104.383 66.2138 104.569 66.1972C104.585 66.1958 104.599 66.1944 104.614 66.1916L104.646 66.1875C104.701 66.1805 104.756 66.1736 104.81 66.1639C104.839 66.1583 104.868 66.1527 104.897 66.1472C104.949 66.1361 105 66.1236 105.051 66.1111L105.065 66.1069C105.089 66.1 105.112 66.0944 105.136 66.0875C105.221 66.0625 105.287 66.0402 105.347 66.0166C105.349 66.0152 105.351 66.0152 105.353 66.0138C105.419 65.9875 105.486 65.9583 105.551 65.9277C105.605 65.9027 105.658 65.875 105.711 65.8458L105.747 65.8264C105.765 65.8166 105.783 65.8069 105.801 65.7972C105.833 65.7791 105.865 65.7583 105.896 65.7375L105.956 65.7C105.979 65.6847 106.003 65.6708 106.026 65.6541C106.049 65.6388 106.071 65.6222 106.092 65.6055L106.147 65.5638C106.176 65.5416 106.206 65.5194 106.233 65.4972C106.253 65.4805 106.272 65.4638 106.292 65.4458L106.331 65.4111C106.362 65.3833 106.393 65.3555 106.424 65.3264C106.446 65.3055 106.465 65.2833 106.486 65.2625L106.507 65.2402C106.544 65.2014 106.572 65.1722 106.6 65.1416C106.626 65.1125 106.65 65.0819 106.675 65.0513L106.707 65.0125C106.726 64.9888 106.746 64.9638 106.765 64.9388C106.803 64.8888 106.836 64.8361 106.871 64.7847L106.896 64.7458C106.904 64.7333 106.914 64.7208 106.921 64.7069L106.942 64.6694C106.974 64.6138 107.004 64.5583 107.032 64.5014L107.058 64.4472C107.094 64.3722 107.122 64.3041 107.146 64.2402C107.147 64.2375 107.153 64.2208 107.154 64.2166C107.178 64.1527 107.197 64.0875 107.215 64.0222C107.221 64.0027 107.225 63.9847 107.231 63.9652C107.253 63.8805 107.267 63.8097 107.278 63.7444C107.296 63.6333 107.378 63.5444 107.487 63.518C107.596 63.4916 107.711 63.5333 107.776 63.6236L110.126 66.8277C110.171 66.8875 110.189 66.9625 110.176 67.0361C110.164 67.118 110.146 67.2041 110.119 67.3055C110.114 67.3291 110.107 67.3514 110.101 67.375C110.078 67.4597 110.053 67.5361 110.026 67.6097L110.017 67.6375C109.992 67.7055 109.964 67.7722 109.933 67.8389C109.928 67.8514 109.922 67.8625 109.917 67.8736L109.885 67.9375L109.631 67.825L109.879 67.9486C109.846 68.0166 109.81 68.0833 109.771 68.1486L109.735 68.2111C109.724 68.2305 109.711 68.2472 109.699 68.2652L109.685 68.2861C109.644 68.3486 109.604 68.4097 109.56 68.4694C109.554 68.4777 109.549 68.4875 109.542 68.4972C109.526 68.518 109.51 68.5375 109.493 68.5569L109.461 68.5958C109.431 68.6333 109.4 68.6722 109.368 68.7083C109.358 68.7194 109.351 68.7291 109.343 68.7389C109.325 68.7597 109.305 68.7791 109.286 68.7986L109.24 68.8458C109.214 68.8736 109.187 68.9 109.161 68.9263C109.151 68.9375 109.143 68.9444 109.135 68.9527C109.112 68.9736 109.09 68.993 109.067 69.0125L109.011 69.0611C108.986 69.0833 108.961 69.1055 108.936 69.1263C108.929 69.1333 108.921 69.1402 108.914 69.1458C108.89 69.1652 108.865 69.1833 108.84 69.2014L108.779 69.2472C108.751 69.268 108.724 69.2902 108.694 69.3097C108.689 69.3139 108.682 69.3194 108.674 69.325C108.65 69.3402 108.626 69.3555 108.603 69.3694L108.546 69.4055C108.507 69.4305 108.469 69.4541 108.429 69.4777C108.422 69.4819 108.414 69.4875 108.404 69.493C108.386 69.5041 108.365 69.5139 108.346 69.5236L108.322 69.5347C108.26 69.568 108.197 69.6014 108.133 69.6305C108.118 69.6389 108.106 69.6458 108.093 69.6513C108.029 69.6805 107.964 69.7069 107.899 69.7319C107.831 69.7583 107.764 69.7819 107.696 69.8027C107.682 69.8069 107.669 69.8111 107.656 69.8139C107.612 69.8264 107.583 69.8347 107.553 69.8416C107.482 69.8611 107.421 69.875 107.36 69.8875C107.325 69.8944 107.29 69.9014 107.256 69.9083C107.19 69.9194 107.125 69.9291 107.06 69.9361L107.032 69.9389C107.01 69.9416 106.989 69.9444 106.967 69.9458C106.864 69.9638 106.769 69.9694 106.678 69.9694ZM104.936 68.593C105.326 69.1166 105.958 69.4139 106.679 69.4139C106.753 69.4139 106.832 69.4097 106.921 69.4014C106.935 69.4 106.95 69.3986 106.965 69.3958L106.999 69.3916C107.053 69.3847 107.108 69.3777 107.162 69.368C107.192 69.3625 107.221 69.3569 107.25 69.3513C107.301 69.3402 107.353 69.3277 107.403 69.3152C107.439 69.3055 107.462 69.2986 107.487 69.2916L107.519 69.2833C107.589 69.2611 107.646 69.2416 107.703 69.2208C107.76 69.1986 107.815 69.1764 107.869 69.1514C107.882 69.1444 107.893 69.1389 107.903 69.1333C107.957 69.1083 108.01 69.0805 108.062 69.0514C108.076 69.043 108.092 69.0361 108.107 69.0291C108.115 69.025 108.125 69.0208 108.133 69.0152C108.139 69.0111 108.147 69.0069 108.154 69.0014C108.186 68.9833 108.217 68.9625 108.247 68.943L108.318 68.8986C108.333 68.8902 108.347 68.8805 108.362 68.8708L108.379 68.8583C108.401 68.843 108.424 68.8263 108.444 68.8097L108.517 68.7555C108.533 68.743 108.55 68.7305 108.567 68.718C108.571 68.7152 108.583 68.7027 108.587 68.7C108.607 68.6847 108.625 68.668 108.644 68.65L108.71 68.593C108.725 68.5791 108.742 68.5666 108.755 68.5527C108.764 68.5444 108.769 68.5375 108.778 68.5305C108.8 68.5097 108.821 68.4875 108.842 68.4652L108.897 68.4083C108.91 68.3958 108.922 68.3833 108.935 68.3694C108.942 68.3597 108.949 68.3514 108.955 68.343C108.982 68.3125 109.007 68.2819 109.032 68.25L109.043 68.2361C109.054 68.2236 109.064 68.2097 109.075 68.1972C109.085 68.1861 109.094 68.175 109.103 68.1625C109.107 68.1569 109.112 68.1472 109.118 68.1389C109.156 68.0889 109.19 68.0361 109.224 67.9833C109.232 67.9708 109.242 67.9569 109.251 67.943C109.257 67.9361 109.262 67.9291 109.267 67.9208L109.297 67.868C109.329 67.8125 109.36 67.7569 109.387 67.7014L109.393 67.6888L109.432 67.6083C109.457 67.5527 109.479 67.4972 109.501 67.4402C109.503 67.4375 109.508 67.4194 109.51 67.4166C109.532 67.3541 109.553 67.2889 109.571 67.2236L109.586 67.1666C109.596 67.1277 109.604 67.0902 109.612 67.0569L107.678 64.418L107.674 64.4319C107.644 64.5083 107.61 64.5902 107.568 64.6805L107.542 64.7347C107.503 64.8111 107.468 64.8777 107.429 64.9444L107.404 64.9889C107.39 65.0111 107.376 65.0319 107.362 65.0527L107.344 65.0805C107.304 65.143 107.264 65.2041 107.219 65.2638C107.196 65.2958 107.172 65.3263 107.147 65.3555L107.117 65.393C107.087 65.4305 107.057 65.4666 107.025 65.5027C106.993 65.5388 106.958 65.575 106.925 65.6097L106.896 65.6402C106.869 65.668 106.844 65.6944 106.817 65.7208C106.781 65.7555 106.743 65.7889 106.706 65.8222L106.669 65.8541C106.644 65.8763 106.619 65.8986 106.593 65.9208C106.558 65.95 106.522 65.9764 106.486 66.0027L106.435 66.0416C106.407 66.0625 106.379 66.0847 106.35 66.1041C106.319 66.125 106.289 66.1444 106.258 66.1639L106.204 66.1986C106.165 66.2236 106.126 66.2486 106.087 66.2708C106.062 66.2861 106.036 66.2986 106.011 66.3125L105.981 66.3291C105.919 66.3625 105.857 66.3944 105.793 66.425C105.717 66.4611 105.64 66.4944 105.562 66.525C105.557 66.5277 105.551 66.5291 105.546 66.5319C105.483 66.5555 105.403 66.5833 105.303 66.6125C105.274 66.6208 105.246 66.6291 105.217 66.6361L105.203 66.6402C105.142 66.6569 105.081 66.6708 105.019 66.6833C104.985 66.6902 104.95 66.6972 104.915 66.7041C104.85 66.7152 104.785 66.725 104.719 66.7319L104.693 66.7347C104.671 66.7375 104.649 66.7402 104.626 66.743C104.357 66.7666 104.158 66.7611 103.882 66.7208C103.808 66.7097 103.743 66.6708 103.699 66.6097L102.267 64.6569C102.271 64.6722 102.274 64.6888 102.278 64.7041C102.289 64.7472 102.301 64.7902 102.314 64.8319L102.329 64.8791C102.331 64.8833 102.335 64.8972 102.336 64.9014C102.343 64.9152 102.349 64.9277 102.354 64.9416C102.374 64.9916 102.394 65.0416 102.419 65.0902C102.425 65.1013 102.431 65.1138 102.435 65.125C102.444 65.1388 102.45 65.15 102.457 65.1625C102.476 65.1986 102.497 65.2347 102.519 65.2694C102.526 65.2805 102.533 65.293 102.54 65.3041C102.558 65.3333 102.575 65.3555 102.592 65.3791L104.937 68.5777C104.932 68.5875 104.933 68.5902 104.936 68.593Z" fill="#FFECE5"/>
<path d="M107.554 63.7916C107.317 65.2791 105.874 66.4861 104.329 66.4875C102.786 66.4875 101.726 65.2791 101.964 63.7916H104.758H107.554Z" fill="#FA9874"/>
<path d="M104.329 66.7652C103.488 66.7652 102.749 66.4416 102.247 65.8555C101.761 65.2861 101.563 64.5375 101.689 63.7486C101.71 63.6139 101.827 63.5139 101.964 63.5139H107.554C107.636 63.5139 107.713 63.55 107.765 63.6111C107.818 63.6736 107.842 63.7541 107.828 63.8347C107.571 65.45 106 66.7652 104.329 66.7652ZM102.213 64.0694C102.181 64.6069 102.339 65.1069 102.671 65.4944C103.064 65.9555 103.653 66.2097 104.329 66.2097C105.627 66.2097 106.85 65.275 107.207 64.0694H102.213Z" fill="#FFECE5"/>
</svg>
