<svg width="150" height="150" viewBox="0 0 150 150" fill="none" xmlns="http://www.w3.org/2000/svg">
<path d="M75 122.697C103.319 122.697 126.276 113.691 126.276 102.582C126.276 91.4726 103.319 82.4667 75 82.4667C46.6809 82.4667 23.7236 91.4726 23.7236 102.582C23.7236 113.691 46.6809 122.697 75 122.697Z" fill="#FFECE5"/>
<path d="M122.386 53.9833L125.479 58.2013L113.856 92.0527L110.762 87.8347L122.386 53.9833Z" fill="#CDC4C4"/>
<path d="M113.855 92.3652C113.757 92.3652 113.662 92.318 113.604 92.2374L110.51 88.0194C110.449 87.9374 110.433 87.8305 110.467 87.7333L122.09 53.8833C122.128 53.7736 122.224 53.693 122.339 53.6763C122.454 53.6583 122.569 53.7069 122.637 53.7999L125.732 58.018C125.793 58.0999 125.808 58.2069 125.775 58.3041L114.151 92.1541C114.114 92.2638 114.018 92.3444 113.903 92.3611C113.887 92.3638 113.871 92.3652 113.855 92.3652ZM111.111 87.7805L113.755 91.3847L125.132 58.2541L122.487 54.6499L111.111 87.7805Z" fill="#FFECE5"/>
<path d="M125.35 52.5472L128.444 56.7653L116.099 93.4889L112.781 89.2709L125.35 52.5472Z" fill="#FA9874"/>
<path d="M116.099 93.8014C116.004 93.8014 115.912 93.7583 115.853 93.6819L112.535 89.4639C112.469 89.3805 112.45 89.2694 112.485 89.1694L125.054 52.4458C125.092 52.3361 125.187 52.2555 125.303 52.2375C125.418 52.2194 125.533 52.268 125.601 52.3611L128.696 56.5792C128.755 56.6611 128.772 56.7667 128.74 56.8639L116.394 93.5875C116.358 93.6958 116.264 93.7764 116.151 93.7958C116.135 93.8 116.117 93.8014 116.099 93.8014ZM113.13 89.2111L115.986 92.8417L128.096 56.8208L125.451 53.2153L113.13 89.2111Z" fill="#FFECE5"/>
<path d="M112.781 89.2709H47.7014L21.5555 102.4H86.8597L112.781 89.2709ZM102.861 92.3209L98.8278 94.3209L94.7903 96.3223L90.0236 98.6834H89.643L86.2819 100.349H29.7611L33.1222 98.6834H32.7347L36.9542 96.5931L40.8083 94.6834L44.8417 92.6834L49.6083 90.3209H53.9569H58.3028H62.6514H66.9972H71.3458H75.693H80.0403H84.3875H88.7347H93.0819H97.4292H102.547H106.894L102.861 92.3209Z" fill="#F56630"/>
<path d="M86.8597 102.713H21.5555C21.411 102.713 21.2847 102.613 21.2513 102.472C21.218 102.332 21.2861 102.186 21.4152 102.121L47.5597 88.9917C47.6027 88.9695 47.6513 88.9584 47.6999 88.9584H112.779C112.924 88.9584 113.05 89.057 113.083 89.1986C113.117 89.3389 113.05 89.4848 112.921 89.55L87.0013 102.679C86.9569 102.701 86.9083 102.713 86.8597 102.713ZM22.8749 102.088H86.786L111.471 89.5834H47.7749L22.8749 102.088ZM86.2819 100.661H29.761C29.6152 100.661 29.4902 100.561 29.4569 100.419C29.4235 100.278 29.493 100.133 29.6222 100.068L32.4222 98.6806C32.4235 98.5653 32.4888 98.4556 32.5958 98.4028L49.4694 90.0389C49.5124 90.0181 49.5597 90.007 49.6083 90.007H106.897C107.042 90.007 107.168 90.107 107.201 90.2486C107.235 90.3903 107.165 90.5348 107.036 90.6L90.1624 98.9639C90.1194 98.9848 90.0722 98.9959 90.0235 98.9959H89.7152L86.4194 100.629C86.3777 100.65 86.3305 100.661 86.2819 100.661ZM31.0958 100.036H86.2097L89.5055 98.4028C89.5485 98.382 89.5958 98.3709 89.6444 98.3709H89.9527L105.565 90.632H49.6819L33.4347 98.6848C33.4333 98.8 33.368 98.9098 33.261 98.9625L31.0958 100.036Z" fill="#FFECE5"/>
<path d="M86.8597 102.4H21.5555V107.375H86.8597V102.4Z" fill="#FA9874"/>
<path d="M86.8597 107.688H21.5555C21.4722 107.688 21.393 107.654 21.3347 107.596C21.2764 107.538 21.243 107.458 21.243 107.375V102.4C21.243 102.228 21.3833 102.088 21.5555 102.088H86.8597C87.0319 102.088 87.1722 102.228 87.1722 102.4V107.375C87.1722 107.547 87.0319 107.688 86.8597 107.688ZM21.868 107.063H86.5472V102.713H21.868V107.063Z" fill="#FFECE5"/>
<path d="M102.55 90.3195H97.4334H93.0847H88.7375H84.3903H80.0431H75.6959H71.3472H66.9986H62.6528H58.3042H53.9584H49.6084L44.8431 92.682L40.8097 94.682L36.9556 96.5917L32.7347 98.682L29.4222 100.349H86.5445L90.0236 98.682L94.7889 96.3208L98.825 94.3195L102.858 92.3209L106.897 90.3195H102.55Z" fill="#FCD2C2"/>
<path d="M86.5444 100.661H29.4222C29.2777 100.661 29.1514 100.561 29.118 100.421C29.0847 100.281 29.1527 100.135 29.2819 100.069L32.5944 98.4041L49.4694 90.0402C49.5125 90.0194 49.5597 90.0083 49.6083 90.0083H106.897C107.042 90.0083 107.168 90.1083 107.201 90.25C107.235 90.3916 107.165 90.5361 107.036 90.6014L90.1625 98.9652L86.6778 100.633C86.6361 100.65 86.5902 100.661 86.5444 100.661ZM30.7402 100.036H86.4722L89.8889 98.4014L105.562 90.6319H49.6805L32.8722 98.9625L30.7402 100.036Z" fill="#FFECE5"/>
<path d="M98.0778 94.5L94.0389 96.5014H89.6917L93.7291 94.5H98.0778Z" fill="#F56630"/>
<path d="M94.0389 96.7791H89.6916C89.5625 96.7791 89.45 96.6902 89.4208 96.5652C89.3916 96.4402 89.4527 96.3097 89.568 96.2527L93.6055 94.2513C93.6444 94.2319 93.6861 94.2222 93.7291 94.2222H98.0777C98.2069 94.2222 98.3194 94.3111 98.3486 94.4361C98.3777 94.5611 98.3166 94.6916 98.2014 94.7486L94.1625 96.7499C94.1236 96.7694 94.0819 96.7791 94.0389 96.7791ZM90.8777 96.2236H93.975L96.893 94.7777H93.7944L90.8777 96.2236Z" fill="#FFECE5"/>
<path d="M67.0179 90.5L62.9818 92.5014H58.636L62.6721 90.5H67.0179Z" fill="#F56630"/>
<path d="M62.9818 92.7791H58.636C58.5068 92.7791 58.3943 92.6902 58.3651 92.5652C58.336 92.4402 58.3971 92.3097 58.5124 92.2527L62.5499 90.2513C62.5887 90.2319 62.6304 90.2222 62.6735 90.2222H67.0193C67.1485 90.2222 67.261 90.3111 67.2901 90.4361C67.3193 90.5611 67.2582 90.6916 67.1429 90.7486L63.1054 92.7499C63.0665 92.7694 63.0249 92.7791 62.9818 92.7791ZM59.8221 92.2236H62.9165L65.8332 90.7777H62.7387L59.8221 92.2236Z" fill="#FFECE5"/>
<path d="M93.1054 90.5L89.0679 92.5014H84.7207L88.7582 90.5H93.1054Z" fill="#F56630"/>
<path d="M89.0679 92.7791H84.7207C84.5915 92.7791 84.479 92.6902 84.4499 92.5652C84.4207 92.4402 84.4818 92.3097 84.5971 92.2527L88.6346 90.2513C88.6735 90.2319 88.7151 90.2222 88.7582 90.2222H93.1054C93.2346 90.2222 93.3471 90.3111 93.3762 90.4361C93.4054 90.5611 93.3443 90.6916 93.229 90.7486L89.1915 92.7499C89.154 92.7694 89.111 92.7791 89.0679 92.7791ZM85.9068 92.2236H89.004L91.9207 90.7777H88.8235L85.9068 92.2236Z" fill="#FFECE5"/>
<path d="M72.3013 96.5013L68.268 98.5013H50.8763L54.9111 96.5013H59.2569H63.6069H67.9541H72.3013Z" fill="#F56630"/>
<path d="M68.268 98.7791H50.8763C50.7472 98.7791 50.6347 98.6902 50.6055 98.5652C50.5763 98.4402 50.6374 98.3096 50.7527 98.2527L54.7874 96.2527C54.8263 96.2332 54.868 96.2235 54.911 96.2235H72.3013C72.4305 96.2235 72.543 96.3124 72.5722 96.4374C72.6013 96.5624 72.5402 96.693 72.4249 96.7499L68.3916 98.7499C68.3527 98.7693 68.311 98.7791 68.268 98.7791ZM52.0624 98.2235H68.2027L71.1152 96.7791H54.9763L52.0624 98.2235Z" fill="#FFECE5"/>
<path d="M41.8665 96.5013L37.8346 98.5013H33.486L37.5207 96.5013H41.8665Z" fill="#F56630"/>
<path d="M37.8346 98.7791H33.4874C33.3582 98.7791 33.2457 98.6902 33.2166 98.5652C33.1874 98.4402 33.2485 98.3096 33.3638 98.2527L37.3985 96.2527C37.4374 96.2332 37.4791 96.2235 37.5221 96.2235H41.868C41.9971 96.2235 42.1096 96.3124 42.1388 96.4374C42.168 96.5624 42.1069 96.693 41.9916 96.7499L37.9569 98.7499C37.9194 98.7693 37.8763 98.7791 37.8346 98.7791ZM34.6721 98.2235H37.768L40.6805 96.7791H37.586L34.6721 98.2235Z" fill="#FFECE5"/>
<path d="M45.9041 94.5L41.8666 96.5014H37.5208L41.5583 94.5H45.9041Z" fill="#F56630"/>
<path d="M41.8666 96.7791H37.5207C37.3916 96.7791 37.2791 96.6902 37.2499 96.5652C37.2207 96.4402 37.2818 96.3097 37.3971 96.2527L41.4346 94.2513C41.4735 94.2319 41.5152 94.2222 41.5582 94.2222H45.9041C46.0332 94.2222 46.1457 94.3111 46.1749 94.4361C46.2041 94.5611 46.143 94.6916 46.0277 94.7486L41.9902 96.7499C41.9527 96.7694 41.9096 96.7791 41.8666 96.7791ZM38.7068 96.2236H41.8013L44.718 94.7777H41.6235L38.7068 96.2236Z" fill="#FFECE5"/>
<path d="M46.2165 96.5013L42.1818 98.5013H37.8346L41.8665 96.5013H46.2165Z" fill="#F56630"/>
<path d="M42.1818 98.7791H37.8346C37.7054 98.7791 37.5929 98.6902 37.5637 98.5652C37.5346 98.4402 37.5957 98.3096 37.711 98.2527L41.7443 96.2527C41.7832 96.2332 41.8249 96.2235 41.8679 96.2235H46.2165C46.3457 96.2235 46.4582 96.3124 46.4874 96.4374C46.5165 96.5624 46.4554 96.693 46.3401 96.7499L42.3054 98.7499C42.2665 98.7693 42.2249 98.7791 42.1818 98.7791ZM39.0193 98.2235H42.1165L45.0304 96.7791H41.9318L39.0193 98.2235Z" fill="#FFECE5"/>
<path d="M50.2527 94.5L46.2166 96.5014H41.8666L45.9041 94.5H50.2527Z" fill="#F56630"/>
<path d="M46.2166 96.7791H41.868C41.7389 96.7791 41.6264 96.6902 41.5972 96.5652C41.568 96.4402 41.6291 96.3097 41.7444 96.2527L45.7819 94.2513C45.8208 94.2319 45.8625 94.2222 45.9055 94.2222H50.2541C50.3833 94.2222 50.4958 94.3111 50.525 94.4361C50.5541 94.5611 50.493 94.6916 50.3777 94.7486L46.3402 96.7499C46.3014 96.7694 46.2597 96.7791 46.2166 96.7791ZM43.0528 96.2236H46.1514L49.068 94.7777H45.9694L43.0528 96.2236Z" fill="#FFECE5"/>
<path d="M54.286 92.5013L50.2527 94.5H45.9041H41.5582L45.5916 92.5013H49.9402H54.286Z" fill="#F56630"/>
<path d="M50.2527 94.7777H41.5582C41.429 94.7777 41.3165 94.6888 41.2874 94.5638C41.2582 94.4388 41.3193 94.3083 41.4346 94.2513L45.4679 92.2513C45.5068 92.2319 45.5485 92.2222 45.5915 92.2222H54.286C54.4152 92.2222 54.5277 92.3111 54.5568 92.4361C54.586 92.5611 54.5249 92.6916 54.4096 92.7486L50.3763 94.7486C50.3388 94.768 50.2957 94.7777 50.2527 94.7777ZM42.7443 94.2222H50.1888L53.1013 92.7777H45.6568L42.7443 94.2222Z" fill="#FFECE5"/>
<path d="M54.5985 94.5L50.5624 96.5014H46.2166L50.2527 94.5H54.5985Z" fill="#F56630"/>
<path d="M50.5624 96.7791H46.2165C46.0874 96.7791 45.9749 96.6902 45.9457 96.5652C45.9165 96.4402 45.9776 96.3097 46.0929 96.2527L50.1304 94.2513C50.1693 94.2319 50.211 94.2222 50.254 94.2222H54.5999C54.729 94.2222 54.8415 94.3111 54.8707 94.4361C54.8999 94.5611 54.8388 94.6916 54.7235 94.7486L50.686 96.7499C50.6471 96.7694 50.6054 96.7791 50.5624 96.7791ZM47.4026 96.2236H50.4971L53.4138 94.7777H50.3193L47.4026 96.2236Z" fill="#FFECE5"/>
<path d="M58.636 92.5013L54.5985 94.5H50.2527L54.286 92.5013H58.636Z" fill="#F56630"/>
<path d="M54.5985 94.7777H50.2527C50.1235 94.7777 50.011 94.6888 49.9818 94.5638C49.9527 94.4388 50.0138 94.3083 50.1291 94.2513L54.1624 92.2513C54.2013 92.2319 54.2429 92.2222 54.286 92.2222H58.6346C58.7638 92.2222 58.8763 92.3111 58.9054 92.4361C58.9346 92.5611 58.8735 92.6916 58.7582 92.7486L54.7221 94.7499C54.6846 94.768 54.6416 94.7777 54.5985 94.7777ZM51.4388 94.2222H54.5346L57.4499 92.7777H54.3527L51.4388 94.2222Z" fill="#FFECE5"/>
<path d="M62.6721 90.5L58.636 92.5014H54.286L58.3235 90.5H62.6721Z" fill="#F56630"/>
<path d="M58.6361 92.7791H54.2875C54.1583 92.7791 54.0458 92.6902 54.0166 92.5652C53.9875 92.4402 54.0486 92.3097 54.1638 92.2527L58.2013 90.2513C58.2402 90.2319 58.2819 90.2222 58.325 90.2222H62.6736C62.8027 90.2222 62.9152 90.3111 62.9444 90.4361C62.9736 90.5611 62.9125 90.6916 62.7972 90.7486L58.7597 92.7499C58.7208 92.7694 58.6791 92.7791 58.6361 92.7791ZM55.4722 92.2236H58.5708L61.4875 90.7777H58.3888L55.4722 92.2236Z" fill="#FFECE5"/>
<path d="M54.911 96.5013L50.8763 98.5013H46.5291L50.5624 96.5013H54.911Z" fill="#F56630"/>
<path d="M50.8763 98.7791H46.529C46.3999 98.7791 46.2874 98.6902 46.2582 98.5652C46.229 98.4402 46.2901 98.3096 46.4054 98.2527L50.4388 96.2527C50.4776 96.2332 50.5193 96.2235 50.5624 96.2235H54.911C55.0401 96.2235 55.1526 96.3124 55.1818 96.4374C55.211 96.5624 55.1499 96.693 55.0346 96.7499L50.9999 98.7499C50.961 98.7693 50.9193 98.7791 50.8763 98.7791ZM47.7151 98.2235H50.8124L53.7263 96.7791H50.6276L47.7151 98.2235Z" fill="#FFECE5"/>
<path d="M58.9485 94.5L54.911 96.5014H50.5624L54.5985 94.5H58.9485Z" fill="#F56630"/>
<path d="M54.911 96.7791H50.5624C50.4332 96.7791 50.3207 96.6902 50.2915 96.5652C50.2624 96.4402 50.3235 96.3097 50.4388 96.2527L54.4763 94.2513C54.5151 94.2319 54.5568 94.2222 54.5999 94.2222H58.9485C59.0776 94.2222 59.1901 94.3111 59.2193 94.4361C59.2485 94.5611 59.1874 94.6916 59.0721 94.7486L55.0346 96.7499C54.9971 96.7694 54.954 96.7791 54.911 96.7791ZM51.7485 96.2236H54.8471L57.7637 94.7777H54.6651L51.7485 96.2236Z" fill="#FFECE5"/>
<path d="M62.9818 92.5013L58.9485 94.5H54.5985L58.636 92.5013H62.9818Z" fill="#F56630"/>
<path d="M58.9486 94.7777H54.6C54.4708 94.7777 54.3583 94.6888 54.3291 94.5638C54.3 94.4388 54.3611 94.3083 54.4763 94.2513L58.5125 92.2513C58.5513 92.2319 58.593 92.2222 58.6361 92.2222H62.9819C63.1111 92.2222 63.2236 92.3111 63.2527 92.4361C63.2819 92.5611 63.2208 92.6916 63.1055 92.7486L59.0722 94.7486C59.0333 94.768 58.9916 94.7777 58.9486 94.7777ZM55.7861 94.2222H58.8833L61.7958 92.7777H58.7L55.7861 94.2222Z" fill="#FFECE5"/>
<path d="M63.2943 94.5L59.2568 96.5014H54.911L58.9485 94.5H63.2943Z" fill="#F56630"/>
<path d="M59.2568 96.7791H54.911C54.7818 96.7791 54.6693 96.6902 54.6402 96.5652C54.611 96.4402 54.6721 96.3097 54.7874 96.2527L58.8249 94.2513C58.8638 94.2319 58.9054 94.2222 58.9485 94.2222H63.2943C63.4235 94.2222 63.536 94.3111 63.5652 94.4361C63.5943 94.5611 63.5332 94.6916 63.4179 94.7486L59.3804 96.7499C59.3429 96.7694 59.2999 96.7791 59.2568 96.7791ZM56.0971 96.2236H59.1915L62.1082 94.7777H59.0138L56.0971 96.2236Z" fill="#FFECE5"/>
<path d="M67.3304 92.5013L63.2943 94.5H58.9485L62.9818 92.5013H67.3304Z" fill="#F56630"/>
<path d="M63.2943 94.7777H58.9485C58.8193 94.7777 58.7068 94.6888 58.6776 94.5638C58.6485 94.4388 58.7096 94.3083 58.8249 94.2513L62.8582 92.2513C62.8971 92.2319 62.9387 92.2222 62.9818 92.2222H67.3304C67.4596 92.2222 67.5721 92.3111 67.6012 92.4361C67.6304 92.5611 67.5693 92.6916 67.454 92.7486L63.4179 94.7486C63.379 94.768 63.3374 94.7777 63.2943 94.7777ZM60.1346 94.2222H63.2304L66.1457 92.7777H63.0485L60.1346 94.2222Z" fill="#FFECE5"/>
<path d="M67.6429 94.5L63.6068 96.5014H59.2568L63.2943 94.5H67.6429Z" fill="#F56630"/>
<path d="M63.6069 96.7791H59.2583C59.1291 96.7791 59.0166 96.6902 58.9875 96.5652C58.9583 96.4402 59.0194 96.3097 59.1347 96.2527L63.1722 94.2513C63.2111 94.2319 63.2527 94.2222 63.2958 94.2222H67.6444C67.7736 94.2222 67.8861 94.3111 67.9152 94.4361C67.9444 94.5611 67.8833 94.6916 67.768 94.7486L63.7305 96.7499C63.6916 96.7694 63.65 96.7791 63.6069 96.7791ZM60.443 96.2236H63.5416L66.4583 94.7777H63.3597L60.443 96.2236Z" fill="#FFECE5"/>
<path d="M71.6776 92.5013L67.6429 94.5H63.2943L67.3304 92.5013H71.6776Z" fill="#F56630"/>
<path d="M67.6429 94.7777H63.2943C63.1651 94.7777 63.0526 94.6888 63.0235 94.5638C62.9943 94.4388 63.0554 94.3083 63.1707 94.2513L67.2068 92.2513C67.2457 92.2319 67.2874 92.2222 67.3304 92.2222H71.6776C71.8068 92.2222 71.9193 92.3111 71.9485 92.4361C71.9776 92.5611 71.9165 92.6916 71.8012 92.7486L67.7665 94.7486C67.729 94.768 67.686 94.7777 67.6429 94.7777ZM64.4804 94.2222H67.5776L70.4915 92.7777H67.3957L64.4804 94.2222Z" fill="#FFECE5"/>
<path d="M71.9929 94.5L67.954 96.5014H63.6068L67.6429 94.5H71.9929Z" fill="#F56630"/>
<path d="M67.954 96.7791H63.6068C63.4776 96.7791 63.3651 96.6902 63.336 96.5652C63.3068 96.4402 63.3679 96.3097 63.4832 96.2527L67.5207 94.2513C67.5596 94.2319 67.6012 94.2222 67.6443 94.2222H71.9929C72.1221 94.2222 72.2346 94.3111 72.2637 94.4361C72.2929 94.5611 72.2318 94.6916 72.1165 94.7486L68.0776 96.7499C68.0387 96.7694 67.9971 96.7791 67.954 96.7791ZM64.7915 96.2236H67.8887L70.8068 94.7777H67.7082L64.7915 96.2236Z" fill="#FFECE5"/>
<path d="M76.0263 92.5013L71.9929 94.5H67.6429L71.6777 92.5013H76.0263Z" fill="#F56630"/>
<path d="M71.993 94.7777H67.6444C67.5152 94.7777 67.4027 94.6888 67.3736 94.5638C67.3444 94.4388 67.4055 94.3083 67.5208 94.2513L71.5555 92.2513C71.5944 92.2319 71.6361 92.2222 71.6791 92.2222H76.0263C76.1555 92.2222 76.268 92.3111 76.2972 92.4361C76.3263 92.5611 76.2652 92.6916 76.15 92.7486L72.1166 94.7486C72.0777 94.768 72.0361 94.7777 71.993 94.7777ZM68.8291 94.2222H71.9277L74.8402 92.7777H71.743L68.8291 94.2222Z" fill="#FFECE5"/>
<path d="M80.0625 90.5L76.0263 92.5014H71.6777L75.7152 90.5H80.0625Z" fill="#F56630"/>
<path d="M76.0263 92.7791H71.6791C71.5499 92.7791 71.4374 92.6902 71.4082 92.5652C71.3791 92.4402 71.4402 92.3097 71.5555 92.2527L75.593 90.2513C75.6318 90.2319 75.6735 90.2222 75.7166 90.2222H80.0638C80.193 90.2222 80.3054 90.3111 80.3346 90.4361C80.3638 90.5611 80.3027 90.6916 80.1874 90.7486L76.1499 92.7499C76.111 92.7694 76.0693 92.7791 76.0263 92.7791ZM72.8638 92.2236H75.961L78.8777 90.7777H75.7804L72.8638 92.2236Z" fill="#FFECE5"/>
<path d="M76.3388 94.5L72.3013 96.5014H67.9541L71.993 94.5H76.3388Z" fill="#F56630"/>
<path d="M72.3013 96.7791H67.9541C67.8249 96.7791 67.7124 96.6902 67.6833 96.5652C67.6541 96.4402 67.7152 96.3097 67.8305 96.2527L71.8694 94.2513C71.9083 94.2319 71.9499 94.2222 71.993 94.2222H76.3388C76.468 94.2222 76.5805 94.3111 76.6096 94.4361C76.6388 94.5611 76.5777 94.6916 76.4624 94.7486L72.4249 96.7499C72.386 96.7694 72.3444 96.7791 72.3013 96.7791ZM69.1402 96.2236H72.236L75.1527 94.7777H72.0583L69.1402 96.2236Z" fill="#FFECE5"/>
<path d="M80.3736 92.5013L76.3389 94.5H71.993L76.0264 92.5013H80.3736Z" fill="#F56630"/>
<path d="M76.3389 94.7777H71.993C71.8639 94.7777 71.7514 94.6888 71.7222 94.5638C71.693 94.4388 71.7541 94.3083 71.8694 94.2513L75.9027 92.2513C75.9416 92.2319 75.9833 92.2222 76.0264 92.2222H80.3736C80.5027 92.2222 80.6152 92.3111 80.6444 92.4361C80.6736 92.5611 80.6125 92.6916 80.4972 92.7486L76.4625 94.7486C76.4236 94.768 76.3819 94.7777 76.3389 94.7777ZM73.1777 94.2222H76.2722L79.1861 92.7777H76.0902L73.1777 94.2222Z" fill="#FFECE5"/>
<path d="M84.4097 90.5L80.3736 92.5014H76.0264L80.0625 90.5H84.4097Z" fill="#F56630"/>
<path d="M80.3736 92.7791H76.0264C75.8972 92.7791 75.7847 92.6902 75.7555 92.5652C75.7264 92.4402 75.7875 92.3097 75.9027 92.2527L79.9402 90.2513C79.9791 90.2319 80.0208 90.2222 80.0639 90.2222H84.4111C84.5402 90.2222 84.6527 90.3111 84.6819 90.4361C84.7111 90.5611 84.65 90.6916 84.5347 90.7486L80.4972 92.7499C80.4583 92.7694 80.4166 92.7791 80.3736 92.7791ZM77.2111 92.2236H80.3083L83.225 90.7777H80.1277L77.2111 92.2236Z" fill="#FFECE5"/>
<path d="M76.6485 96.5013L72.6138 98.5013H68.2679L72.3013 96.5013H76.6485Z" fill="#F56630"/>
<path d="M72.6138 98.7791H68.2679C68.1388 98.7791 68.0263 98.6902 67.9971 98.5652C67.9679 98.4402 68.029 98.3096 68.1443 98.2527L72.1777 96.2527C72.2165 96.2332 72.2582 96.2235 72.3013 96.2235H76.6485C76.7777 96.2235 76.8902 96.3124 76.9193 96.4374C76.9485 96.5624 76.8874 96.693 76.7721 96.7499L72.7374 98.7499C72.6985 98.7693 72.6568 98.7791 72.6138 98.7791ZM69.454 98.2235H72.5485L75.4624 96.7791H72.3665L69.454 98.2235Z" fill="#FFECE5"/>
<path d="M80.6874 94.5L76.6485 96.5014H72.3013L76.3388 94.5H80.6874Z" fill="#F56630"/>
<path d="M76.6485 96.7791H72.3013C72.1721 96.7791 72.0596 96.6902 72.0304 96.5652C72.0013 96.4402 72.0624 96.3097 72.1776 96.2527L76.2151 94.2513C76.254 94.2319 76.2957 94.2222 76.3388 94.2222H80.6874C80.8165 94.2222 80.929 94.3111 80.9582 94.4361C80.9874 94.5611 80.9263 94.6916 80.811 94.7486L76.7721 96.7499C76.7346 96.7694 76.6915 96.7791 76.6485 96.7791ZM73.4874 96.2236H76.5846L79.5026 94.7777H76.404L73.4874 96.2236Z" fill="#FFECE5"/>
<path d="M84.7208 92.5013L80.6875 94.5H76.3389L80.3736 92.5013H84.7208Z" fill="#F56630"/>
<path d="M80.6875 94.7777H76.3389C76.2097 94.7777 76.0972 94.6888 76.068 94.5638C76.0389 94.4388 76.1 94.3083 76.2152 94.2513L80.25 92.2513C80.2888 92.2319 80.3305 92.2222 80.3736 92.2222H84.7208C84.85 92.2222 84.9625 92.3111 84.9916 92.4361C85.0208 92.5611 84.9597 92.6916 84.8444 92.7486L80.8111 94.7486C80.7722 94.768 80.7305 94.7777 80.6875 94.7777ZM77.525 94.2222H80.6236L83.5361 92.7777H80.4388L77.525 94.2222Z" fill="#FFECE5"/>
<path d="M88.7583 90.5L84.7208 92.5014H80.3735L84.4096 90.5H88.7583Z" fill="#F56630"/>
<path d="M84.7207 92.7791H80.3735C80.2444 92.7791 80.1319 92.6902 80.1027 92.5652C80.0735 92.4402 80.1346 92.3097 80.2499 92.2527L84.2874 90.2513C84.3263 90.2319 84.368 90.2222 84.411 90.2222H88.7582C88.8874 90.2222 88.9999 90.3111 89.0291 90.4361C89.0582 90.5611 88.9971 90.6916 88.8819 90.7486L84.8444 92.7499C84.8055 92.7694 84.7638 92.7791 84.7207 92.7791ZM81.5596 92.2236H84.6569L87.5735 90.7777H84.4763L81.5596 92.2236Z" fill="#FFECE5"/>
<path d="M80.9972 96.5013L76.9639 98.5013H72.6139L76.6486 96.5013H80.9972Z" fill="#F56630"/>
<path d="M76.9638 98.7791H72.6152C72.4861 98.7791 72.3736 98.6902 72.3444 98.5652C72.3152 98.4402 72.3763 98.3096 72.4916 98.2527L76.5263 96.2527C76.5652 96.2332 76.6069 96.2235 76.6499 96.2235H80.9972C81.1263 96.2235 81.2388 96.3124 81.268 96.4374C81.2972 96.5624 81.2361 96.693 81.1208 96.7499L77.0861 98.7499C77.0486 98.7693 77.0055 98.7791 76.9638 98.7791ZM73.7999 98.2235H76.8985L79.8111 96.7791H76.7138L73.7999 98.2235Z" fill="#FFECE5"/>
<path d="M85.0333 94.5L80.9972 96.5014H76.6486L80.6875 94.5H85.0333Z" fill="#F56630"/>
<path d="M80.9971 96.7791H76.6499C76.5207 96.7791 76.4082 96.6902 76.3791 96.5652C76.3499 96.4402 76.411 96.3097 76.5263 96.2527L80.5652 94.2513C80.6041 94.2319 80.6457 94.2222 80.6888 94.2222H85.0346C85.1638 94.2222 85.2763 94.3111 85.3054 94.4361C85.3346 94.5611 85.2735 94.6916 85.1582 94.7486L81.1207 96.7499C81.0818 96.7694 81.0388 96.7791 80.9971 96.7791ZM77.8346 96.2236H80.9304L83.8471 94.7777H80.7527L77.8346 96.2236Z" fill="#FFECE5"/>
<path d="M85.3444 96.5013L81.3097 98.5013H76.9639L80.9972 96.5013H85.3444Z" fill="#F56630"/>
<path d="M81.3097 98.7791H76.9639C76.8347 98.7791 76.7222 98.6902 76.693 98.5652C76.6639 98.4402 76.725 98.3096 76.8402 98.2527L80.8736 96.2527C80.9125 96.2332 80.9541 96.2235 80.9972 96.2235H85.3444C85.4736 96.2235 85.5861 96.3124 85.6152 96.4374C85.6444 96.5624 85.5833 96.693 85.468 96.7499L81.4319 98.7499C81.3944 98.7693 81.3513 98.7791 81.3097 98.7791ZM78.1486 98.2235H81.243L84.1569 96.7791H81.0611L78.1486 98.2235Z" fill="#FFECE5"/>
<path d="M89.3833 94.5L85.3444 96.5014H80.9972L85.0333 94.5H89.3833Z" fill="#F56630"/>
<path d="M85.3444 96.7791H80.9972C80.868 96.7791 80.7555 96.6902 80.7263 96.5652C80.6972 96.4402 80.7583 96.3097 80.8736 96.2527L84.9111 94.2513C84.95 94.2319 84.9916 94.2222 85.0347 94.2222H89.3833C89.5125 94.2222 89.625 94.3111 89.6541 94.4361C89.6833 94.5611 89.6222 94.6916 89.5069 94.7486L85.468 96.7499C85.4291 96.7694 85.3875 96.7791 85.3444 96.7791ZM82.1819 96.2236H85.2791L88.1972 94.7777H85.0986L82.1819 96.2236Z" fill="#FFECE5"/>
<path d="M97.4527 90.5L93.4166 92.5014H89.068L93.1055 90.5H97.4527Z" fill="#F56630"/>
<path d="M93.4165 92.7791H89.0693C88.9402 92.7791 88.8277 92.6902 88.7985 92.5652C88.7693 92.4402 88.8304 92.3097 88.9457 92.2527L92.9832 90.2513C93.0221 90.2319 93.0638 90.2222 93.1068 90.2222H97.454C97.5832 90.2222 97.6957 90.3111 97.7249 90.4361C97.754 90.5611 97.6929 90.6916 97.5777 90.7486L93.5402 92.7499C93.5013 92.7694 93.4582 92.7791 93.4165 92.7791ZM90.254 92.2236H93.3513L96.2679 90.7777H93.1707L90.254 92.2236Z" fill="#FFECE5"/>
<path d="M89.6916 96.5013L85.6583 98.5013H81.3097L85.3444 96.5013H89.6916Z" fill="#F56630"/>
<path d="M85.6583 98.7791H81.3097C81.1805 98.7791 81.068 98.6902 81.0388 98.5652C81.0097 98.4402 81.0708 98.3096 81.1861 98.2527L85.2208 96.2527C85.2597 96.2332 85.3013 96.2235 85.3444 96.2235H89.6916C89.8208 96.2235 89.9333 96.3124 89.9625 96.4374C89.9916 96.5624 89.9305 96.693 89.8152 96.7499L85.7819 98.7499C85.743 98.7693 85.7013 98.7791 85.6583 98.7791ZM82.4958 98.2235H85.5944L88.5069 96.7791H85.4097L82.4958 98.2235Z" fill="#FFECE5"/>
<path d="M93.7291 94.5L89.6916 96.5014H85.3444L89.3833 94.5H93.7291Z" fill="#F56630"/>
<path d="M89.6916 96.7791H85.3443C85.2152 96.7791 85.1027 96.6902 85.0735 96.5652C85.0443 96.4402 85.1055 96.3097 85.2207 96.2527L89.2596 94.2513C89.2985 94.2319 89.3402 94.2222 89.3832 94.2222H93.7291C93.8582 94.2222 93.9707 94.3111 93.9999 94.4361C94.0291 94.5611 93.968 94.6916 93.8527 94.7486L89.8152 96.7499C89.7763 96.7694 89.7346 96.7791 89.6916 96.7791ZM86.5305 96.2236H89.6263L92.543 94.7777H89.4485L86.5305 96.2236Z" fill="#FFECE5"/>
<path d="M97.7639 92.5013L93.7292 94.5H89.3833H85.0333H80.6875L84.7208 92.5013H89.0681H93.4167H97.7639Z" fill="#F56630"/>
<path d="M93.7291 94.7777H80.6888C80.5597 94.7777 80.4472 94.6888 80.418 94.5638C80.3888 94.4388 80.4499 94.3083 80.5652 94.2513L84.5985 92.2513C84.6374 92.2319 84.6791 92.2222 84.7222 92.2222H97.7652C97.8944 92.2222 98.0069 92.3111 98.036 92.4361C98.0652 92.5611 98.0041 92.6916 97.8888 92.7486L93.8541 94.7486C93.8138 94.768 93.7708 94.7777 93.7291 94.7777ZM81.8735 94.2222H93.6638L96.5777 92.7777H84.7861L81.8735 94.2222Z" fill="#FFECE5"/>
<path d="M101.8 90.5L97.7639 92.5014H93.4166L97.4527 90.5H101.8Z" fill="#F56630"/>
<path d="M97.7638 92.7791H93.4166C93.2874 92.7791 93.1749 92.6902 93.1458 92.5652C93.1166 92.4402 93.1777 92.3097 93.293 92.2527L97.3305 90.2513C97.3694 90.2319 97.411 90.2222 97.4541 90.2222H101.801C101.93 90.2222 102.043 90.3111 102.072 90.4361C102.101 90.5611 102.04 90.6916 101.925 90.7486L97.8874 92.7499C97.8485 92.7694 97.8069 92.7791 97.7638 92.7791ZM94.6013 92.2236H97.6986L100.615 90.7777H97.518L94.6013 92.2236Z" fill="#FFECE5"/>
<path d="M94.0388 96.5013L90.004 98.5013H85.6582L89.6915 96.5013H94.0388Z" fill="#F56630"/>
<path d="M90.004 98.7791H85.6582C85.529 98.7791 85.4165 98.6902 85.3874 98.5652C85.3582 98.4402 85.4193 98.3096 85.5346 98.2527L89.5679 96.2527C89.6068 96.2332 89.6485 96.2235 89.6915 96.2235H94.0387C94.1679 96.2235 94.2804 96.3124 94.3096 96.4374C94.3388 96.5624 94.2776 96.693 94.1624 96.7499L90.1276 98.7499C90.0887 98.7693 90.0471 98.7791 90.004 98.7791ZM86.8443 98.2235H89.9387L92.8526 96.7791H89.7568L86.8443 98.2235Z" fill="#FFECE5"/>
<path d="M102.111 92.5013L98.0777 94.5H93.7291L97.7639 92.5013H102.111Z" fill="#F56630"/>
<path d="M98.0777 94.7777H93.7291C93.5999 94.7777 93.4874 94.6888 93.4583 94.5638C93.4291 94.4388 93.4902 94.3083 93.6055 94.2513L97.6402 92.2513C97.6791 92.2319 97.7208 92.2222 97.7638 92.2222H102.111C102.24 92.2222 102.353 92.3111 102.382 92.4361C102.411 92.5611 102.35 92.6916 102.235 92.7486L98.2013 94.7486C98.1624 94.768 98.1208 94.7777 98.0777 94.7777ZM94.9152 94.2222H98.0138L100.926 92.7777H97.8291L94.9152 94.2222Z" fill="#FFECE5"/>
<path d="M106.149 90.5L102.111 92.5014H97.7638L101.8 90.5H106.149Z" fill="#F56630"/>
<path d="M102.111 92.7791H97.7638C97.6346 92.7791 97.5221 92.6902 97.4929 92.5652C97.4638 92.4402 97.5249 92.3097 97.6402 92.2527L101.678 90.2513C101.717 90.2319 101.758 90.2222 101.801 90.2222H106.149C106.278 90.2222 106.39 90.3111 106.419 90.4361C106.448 90.5611 106.387 90.6916 106.272 90.7486L102.235 92.7499C102.196 92.7694 102.154 92.7791 102.111 92.7791ZM98.9485 92.2236H102.046L104.962 90.7777H101.865L98.9485 92.2236Z" fill="#FFECE5"/>
<path d="M58.3235 90.5L54.286 92.5014H49.9402L53.9777 90.5H58.3235Z" fill="#F56630"/>
<path d="M54.286 92.7791H49.9402C49.811 92.7791 49.6985 92.6902 49.6693 92.5652C49.6402 92.4402 49.7013 92.3097 49.8166 92.2527L53.8541 90.2513C53.8929 90.2319 53.9346 90.2222 53.9777 90.2222H58.3235C58.4527 90.2222 58.5652 90.3111 58.5943 90.4361C58.6235 90.5611 58.5624 90.6916 58.4471 90.7486L54.4096 92.7499C54.3721 92.7694 54.3291 92.7791 54.286 92.7791ZM51.1263 92.2236H54.2207L57.1374 90.7777H54.0429L51.1263 92.2236Z" fill="#FFECE5"/>
<path d="M53.9777 90.5L49.9402 92.5014H45.5916L49.629 90.5H53.9777Z" fill="#F56630"/>
<path d="M49.9401 92.7791H45.5915C45.4624 92.7791 45.3499 92.6902 45.3207 92.5652C45.2915 92.4402 45.3526 92.3097 45.4679 92.2527L49.5054 90.2513C49.5443 90.2319 49.586 90.2222 49.629 90.2222H53.9777C54.1068 90.2222 54.2193 90.3111 54.2485 90.4361C54.2776 90.5611 54.2165 90.6916 54.1013 90.7486L50.0638 92.7499C50.0263 92.7694 49.9832 92.7791 49.9401 92.7791ZM46.7776 92.2236H49.8763L52.7929 90.7777H49.6943L46.7776 92.2236Z" fill="#FFECE5"/>
<path d="M71.3679 90.5L67.3304 92.5014H62.9818L67.0179 90.5H71.3679Z" fill="#F56630"/>
<path d="M67.3304 92.7791H62.9818C62.8526 92.7791 62.7401 92.6902 62.711 92.5652C62.6818 92.4402 62.7429 92.3097 62.8582 92.2527L66.8957 90.2513C66.9346 90.2319 66.9762 90.2222 67.0193 90.2222H71.3679C71.4971 90.2222 71.6096 90.3111 71.6387 90.4361C71.6679 90.5611 71.6068 90.6916 71.4915 90.7486L67.454 92.7499C67.4165 92.7694 67.3735 92.7791 67.3304 92.7791ZM64.1679 92.2236H67.2665L70.1832 90.7777H67.0832L64.1679 92.2236Z" fill="#FFECE5"/>
<path d="M75.7152 90.5L71.6777 92.5014H67.3304L71.3679 90.5H75.7152Z" fill="#F56630"/>
<path d="M71.6777 92.7791H67.3304C67.2013 92.7791 67.0888 92.6902 67.0596 92.5652C67.0304 92.4402 67.0915 92.3097 67.2068 92.2527L71.2443 90.2513C71.2832 90.2319 71.3249 90.2222 71.3679 90.2222H75.7152C75.8443 90.2222 75.9568 90.3111 75.986 90.4361C76.0151 90.5611 75.954 90.6916 75.8388 90.7486L71.8013 92.7499C71.7638 92.7694 71.7207 92.7791 71.6777 92.7791ZM68.5165 92.2236H71.6138L74.5304 90.7777H71.4332L68.5165 92.2236Z" fill="#FFECE5"/>
<path d="M50.5624 96.5013L46.5291 98.5013H42.1819L46.2166 96.5013H50.5624Z" fill="#F56630"/>
<path d="M46.5291 98.7791H42.1819C42.0527 98.7791 41.9402 98.6902 41.911 98.5652C41.8819 98.4402 41.943 98.3096 42.0583 98.2527L46.093 96.2527C46.1319 96.2332 46.1735 96.2235 46.2166 96.2235H50.5624C50.6916 96.2235 50.8041 96.3124 50.8333 96.4374C50.8624 96.5624 50.8013 96.693 50.686 96.7499L46.6527 98.7499C46.6138 98.7693 46.5721 98.7791 46.5291 98.7791ZM43.368 98.2235H46.4638L49.3763 96.7791H46.2819L43.368 98.2235Z" fill="#FFECE5"/>
<path d="M122.386 53.9833L110.762 87.8347H50.7028L53.2972 80.2541H67.5069L77.118 53.9833H122.386Z" fill="#FFECE5"/>
<path d="M110.762 88.1472H50.7027C50.6013 88.1472 50.5069 88.0986 50.4485 88.0166C50.3902 87.9347 50.3749 87.8291 50.4069 87.7333L53.0013 80.1527C53.0444 80.0263 53.1638 79.9416 53.2972 79.9416H67.2874L76.8249 53.8763C76.8694 53.7527 76.9874 53.6708 77.118 53.6708H122.385C122.486 53.6708 122.58 53.7194 122.639 53.8013C122.697 53.8833 122.712 53.9888 122.68 54.0847L111.057 87.9347C111.014 88.0624 110.896 88.1472 110.762 88.1472ZM51.1388 87.5222H110.539L121.949 54.2972H77.3374L67.7999 80.3611C67.7555 80.4847 67.6374 80.5666 67.5069 80.5666H53.5208L51.1388 87.5222Z" fill="#FFECE5"/>
<path d="M125.35 52.5472L112.781 89.2709H47.7417L50.8278 80.2542H53.2973L50.7028 87.8347H110.763L122.386 53.9834H77.1181L77.6445 52.5472H125.35Z" fill="#F56630"/>
<path d="M112.781 89.5833H47.7416C47.6403 89.5833 47.5458 89.5347 47.4875 89.4528C47.4292 89.3708 47.4139 89.2653 47.4458 89.1694L50.5319 80.1527C50.575 80.0264 50.6944 79.9416 50.8278 79.9416H53.2972C53.3986 79.9416 53.493 79.9903 53.5514 80.0722C53.6097 80.1541 53.625 80.2597 53.593 80.3555L51.1403 87.5222H110.54L121.95 54.2972H77.118C77.0166 54.2972 76.9208 54.2472 76.8625 54.1639C76.8041 54.0805 76.7903 53.9736 76.825 53.8778L77.35 52.4416C77.3944 52.318 77.5125 52.2361 77.643 52.2361H125.349C125.45 52.2361 125.544 52.2847 125.603 52.3666C125.661 52.4486 125.676 52.5541 125.644 52.65L113.075 89.3736C113.032 89.4986 112.914 89.5833 112.781 89.5833ZM48.1792 88.9583H112.557L124.912 52.8597H77.8625L77.5653 53.6708H122.385C122.486 53.6708 122.581 53.7194 122.639 53.8014C122.697 53.8833 122.712 53.9889 122.681 54.0847L111.057 87.9347C111.014 88.0611 110.894 88.1458 110.761 88.1458H50.7028C50.6014 88.1458 50.5069 88.0972 50.4486 88.0153C50.3903 87.9333 50.375 87.8277 50.4069 87.7319L52.8597 80.5653H51.0514L48.1792 88.9583Z" fill="#FFECE5"/>
<path d="M112.78 89.2709L116.099 93.4889L86.8596 107.375V102.4L112.78 89.2709Z" fill="#FA9874"/>
<path d="M86.8596 107.688C86.8013 107.688 86.743 107.671 86.693 107.639C86.6027 107.582 86.5471 107.482 86.5471 107.375V102.4C86.5471 102.282 86.6138 102.175 86.7179 102.121L112.639 88.9917C112.772 88.925 112.933 88.9597 113.026 89.0778L116.344 93.2958C116.403 93.3708 116.425 93.4681 116.403 93.5611C116.38 93.6542 116.318 93.732 116.232 93.7722L86.9929 107.658C86.9513 107.676 86.9055 107.688 86.8596 107.688ZM87.1721 102.592V106.881L115.611 93.375L112.693 89.6653L87.1721 102.592Z" fill="#FFECE5"/>
<path d="M67.9945 32.9055C67.9945 32.8472 67.9917 32.7902 67.9861 32.7333C67.9847 32.725 67.9847 32.7166 67.9834 32.7083C67.9778 32.6652 67.9722 32.6222 67.9639 32.5805C67.9625 32.5722 67.9584 32.5652 67.957 32.5569C67.9472 32.5083 67.9334 32.4625 67.9181 32.4152C67.9125 32.4 67.9111 32.3833 67.9056 32.368C67.9042 32.3638 67.9028 32.3611 67.9014 32.3569C67.8931 32.3333 67.8806 32.3097 67.8709 32.2875C67.8597 32.2611 67.8486 32.2333 67.8361 32.2069C67.8334 32.2013 67.8306 32.1972 67.8278 32.1916C67.8195 32.175 67.8084 32.1597 67.7986 32.143C67.7847 32.1194 67.7722 32.0958 67.7584 32.0736C67.7472 32.0569 67.7361 32.0416 67.725 32.025L65.2695 28.6777C65.2972 28.7152 65.3209 28.7555 65.3445 28.7958C65.3542 28.8125 65.3639 28.8277 65.3736 28.8444C65.3903 28.875 65.4028 28.9083 65.4167 28.9402C65.4264 28.9638 65.4375 28.9861 65.4472 29.0097C65.4542 29.0291 65.4584 29.0486 65.4653 29.068C65.4806 29.1138 65.4945 29.1611 65.5042 29.2097C65.5153 29.2597 65.5236 29.3097 65.5306 29.3611C65.532 29.3694 65.532 29.3777 65.5334 29.3861C65.5389 29.4416 65.5417 29.5 65.5417 29.5583C65.5417 29.5638 65.5417 29.5694 65.5417 29.575C65.5403 29.6361 65.5361 29.6972 65.5292 29.7597C65.5278 29.7722 65.5264 29.7833 65.525 29.7958C65.5167 29.8583 65.5056 29.9208 65.4903 29.9847C65.4875 29.9958 65.4847 30.0069 65.482 30.018C65.4653 30.0847 65.4472 30.1527 65.4236 30.2208C65.3931 30.3097 65.357 30.3972 65.3167 30.4833C65.3111 30.4958 65.3042 30.5097 65.2972 30.5222C65.257 30.6041 65.2139 30.6847 65.1653 30.7638C65.1653 30.7638 65.1653 30.7638 65.1653 30.7652C65.1195 30.8402 65.0681 30.9138 65.0139 30.9861C65 31.0055 64.9847 31.025 64.9709 31.043C64.9278 31.0986 64.8834 31.1527 64.8375 31.2055C64.8264 31.218 64.8167 31.2305 64.807 31.2416C64.7514 31.3027 64.6931 31.3625 64.6334 31.4208C64.6181 31.4361 64.6014 31.45 64.5861 31.4638C64.5389 31.5069 64.4903 31.55 64.4417 31.5902C64.4222 31.6069 64.4028 31.6222 64.382 31.6388C64.3222 31.6861 64.2611 31.7319 64.1986 31.7763C64.1903 31.7819 64.1834 31.7875 64.175 31.793C64.1014 31.843 64.0264 31.8902 63.95 31.9347C63.9306 31.9458 63.9125 31.9555 63.8931 31.9666C63.8125 32.0111 63.7306 32.0541 63.6472 32.0916C63.6417 32.0944 63.6375 32.0972 63.632 32.0986C63.6153 32.1055 63.5986 32.1125 63.5834 32.1194C63.5389 32.1388 63.4945 32.1569 63.45 32.175C63.4264 32.1833 63.4042 32.1916 63.3806 32.1986C63.3431 32.2125 63.3042 32.225 63.2653 32.2375C63.2278 32.2486 63.1903 32.2583 63.1514 32.2694C63.1236 32.2763 63.0945 32.2847 63.0667 32.2916C63.0264 32.3013 62.9875 32.3083 62.9472 32.3152C62.9209 32.3208 62.8945 32.3263 62.8681 32.3305C62.8236 32.3375 62.7792 32.3416 62.7361 32.3472C62.7139 32.35 62.6917 32.3527 62.6695 32.3555C62.6028 32.3611 62.5361 32.3638 62.4709 32.3638C62.3875 32.3638 62.3084 32.3583 62.2306 32.35C61.7556 31.793 61.2334 31.2611 60.8681 30.7625C60.8625 30.8319 60.8639 30.8986 60.8667 30.9652C60.8667 30.9791 60.8681 30.993 60.8681 31.0069C60.8722 31.0708 60.8806 31.1333 60.8917 31.1944C60.8917 31.1972 60.8917 31.2013 60.8931 31.2041C60.8945 31.2111 60.8972 31.2166 60.8986 31.2222C60.9125 31.2875 60.9292 31.3513 60.9514 31.4125C60.9528 31.4152 60.9528 31.418 60.9542 31.4208C60.9542 31.4222 60.9556 31.4222 60.9556 31.4236C60.9736 31.4722 60.9945 31.5208 61.0181 31.5666C61.0209 31.5708 61.0222 31.5763 61.0236 31.5805C61.0278 31.5902 61.0347 31.5986 61.0403 31.6083C61.0556 31.6361 61.0722 31.6638 61.0889 31.6902C61.0931 31.6972 61.0972 31.7055 61.1028 31.7138C61.1139 31.7291 61.125 31.7458 61.1361 31.7611L62.2361 33.2611L63.5917 35.1083C63.8639 35.4791 64.3292 35.7083 64.9278 35.7083C64.9945 35.7083 65.0597 35.7055 65.1264 35.7C65.1486 35.6986 65.1709 35.6944 65.1931 35.6916C65.2375 35.6875 65.2806 35.6819 65.325 35.675C65.3514 35.6708 65.3778 35.6652 65.4042 35.6597C65.4445 35.6527 65.4847 35.6444 65.5236 35.6361C65.5514 35.6291 65.5806 35.6208 65.6084 35.6138C65.6459 35.6041 65.6847 35.5944 65.7222 35.5819C65.7278 35.5805 65.7334 35.5791 65.7389 35.5777C65.7722 35.568 65.8042 35.5555 65.8361 35.543C65.8597 35.5347 65.882 35.5277 65.9056 35.5194C65.95 35.5027 65.9945 35.4833 66.0389 35.4638C66.0556 35.4569 66.0722 35.4513 66.0875 35.443C66.0889 35.443 66.0903 35.4416 66.0917 35.4416C66.0959 35.4402 66.0986 35.4375 66.1028 35.4361C66.1861 35.3986 66.2681 35.3555 66.3486 35.3111C66.3597 35.3055 66.3709 35.3 66.3806 35.2944C66.3889 35.2902 66.3972 35.2833 66.4056 35.2791C66.482 35.2347 66.557 35.1875 66.6306 35.1375C66.632 35.1361 66.6334 35.1361 66.6347 35.1347C66.6417 35.1305 66.6472 35.125 66.6542 35.1208C66.7167 35.0777 66.7778 35.0319 66.8375 34.9833C66.8459 34.9763 66.8556 34.9694 66.8653 34.9625C66.8764 34.9541 66.8861 34.9444 66.8972 34.9347C66.9472 34.893 66.9945 34.8513 67.0417 34.8069C67.0528 34.7972 67.0653 34.7875 67.0764 34.7763C67.0806 34.7722 67.0847 34.768 67.0889 34.7638C67.1486 34.7055 67.207 34.6472 67.2625 34.5847C67.2653 34.5819 67.2681 34.5791 67.2709 34.5763C67.2792 34.5666 67.2861 34.5569 67.2945 34.5486C67.3403 34.4958 67.3847 34.4416 67.4278 34.3861C67.4361 34.3763 67.4445 34.3666 67.4528 34.3569C67.4597 34.3486 67.4653 34.3388 67.4709 34.3291C67.5236 34.2569 67.575 34.1833 67.6222 34.1083C67.6709 34.0291 67.7139 33.9486 67.7542 33.8666C67.7611 33.8541 67.7667 33.8416 67.7736 33.8277C67.7778 33.818 67.7834 33.8083 67.7875 33.7986C67.8222 33.7222 67.8542 33.6444 67.8806 33.5652C67.9042 33.4972 67.9236 33.4291 67.9389 33.3625C67.9417 33.3513 67.9445 33.3402 67.9472 33.3291C67.9611 33.2652 67.9736 33.2027 67.982 33.1402C67.9834 33.1277 67.9847 33.1166 67.9861 33.1041C67.9931 33.0416 67.9986 32.9791 67.9986 32.9194C67.9945 32.9166 67.9945 32.9111 67.9945 32.9055Z" fill="#F77A4A"/>
<path d="M64.9194 36.025C64.2389 36.025 63.675 35.7667 63.3305 35.2972L60.875 31.95C60.875 31.9486 60.8736 31.9486 60.8736 31.9472C60.8597 31.9292 60.8472 31.9097 60.8347 31.8917C60.8264 31.8805 60.8208 31.868 60.8139 31.8569C60.7958 31.8292 60.7764 31.7958 60.7569 31.7611C60.7514 31.7528 60.7444 31.7403 60.7375 31.7278C60.7347 31.7208 60.7291 31.7111 60.7264 31.7028C60.6986 31.6472 60.6764 31.5944 60.6569 31.543C60.6555 31.5375 60.6527 31.5333 60.6514 31.5278C60.65 31.5222 60.6472 31.5167 60.6458 31.5111C60.6236 31.4458 60.6041 31.3764 60.5875 31.3014C60.5847 31.2903 60.5819 31.2792 60.5791 31.268C60.5778 31.2625 60.5764 31.2542 60.5764 31.2472C60.5639 31.1792 60.5555 31.1083 60.55 31.0333L60.5472 30.9917C60.543 30.8944 60.5444 30.8194 60.5486 30.7444C60.5583 30.6139 60.6486 30.5028 60.7736 30.4667C60.9 30.4305 61.0347 30.4764 61.1125 30.5819C61.3402 30.893 61.6347 31.2222 61.9472 31.5694C62.0889 31.7264 62.2333 31.8889 62.3764 32.0528C62.4652 32.0569 62.55 32.0542 62.6361 32.0472L62.6958 32.0403C62.743 32.0347 62.7777 32.0319 62.8125 32.0264C62.8236 32.025 62.8361 32.0222 62.8486 32.0194L62.9014 32.0083C62.9305 32.0028 62.9597 31.9972 62.9889 31.9903C63.0041 31.9861 63.0194 31.9819 63.0347 31.9778L63.0847 31.9639C63.1125 31.9569 63.1389 31.95 63.1666 31.9403C63.2 31.9292 63.2333 31.918 63.2666 31.9055L63.3319 31.8833C63.3722 31.868 63.4125 31.85 63.4527 31.8333L63.5111 31.8083C63.5805 31.7764 63.6541 31.7389 63.7347 31.6944L63.7875 31.6653C63.8652 31.6194 63.9319 31.5778 63.993 31.5361C63.9958 31.5347 64.0125 31.5222 64.0152 31.5208C64.0722 31.4805 64.1277 31.4389 64.1833 31.3958C64.2014 31.3819 64.2194 31.3667 64.2375 31.3514C64.2819 31.3139 64.3264 31.275 64.3694 31.2361L64.4125 31.1972C64.4666 31.1444 64.5208 31.0903 64.5708 31.0347L64.5986 31.0014C64.6402 30.9542 64.6805 30.9042 64.7194 30.8542C64.7333 30.8375 64.7458 30.8194 64.7583 30.8028C64.8139 30.7264 64.8569 30.6639 64.8944 30.6042C64.8958 30.6028 64.8958 30.6014 64.8972 30.6C64.9361 30.5375 64.9736 30.468 65.0125 30.3875L65.0291 30.3528C65.068 30.2708 65.0986 30.1958 65.1236 30.1222C65.1416 30.0694 65.1583 30.0111 65.175 29.9458C65.175 29.9444 65.1791 29.9305 65.1791 29.9305L65.1819 29.9167C65.1944 29.8625 65.2041 29.8097 65.2111 29.7569L65.2139 29.7347C65.2208 29.675 65.225 29.6222 65.225 29.5722V29.5583C65.225 29.5111 65.2222 29.4639 65.218 29.418C65.218 29.4153 65.2166 29.4028 65.2166 29.4C65.2125 29.3555 65.2041 29.3167 65.1958 29.2764C65.1875 29.2389 65.1764 29.2014 65.1652 29.1653L65.1555 29.1319C65.1486 29.1111 65.1444 29.1028 65.1416 29.0944L65.1222 29.05C65.1139 29.0305 65.1055 29.0111 65.0958 28.9917L65.0736 28.9542C65.0555 28.9236 65.0375 28.893 65.0166 28.8639C64.9152 28.725 64.9444 28.5292 65.0833 28.4278C65.2222 28.3264 65.418 28.3555 65.5194 28.4944L67.975 31.8417C67.9889 31.8611 68.0027 31.8805 68.0166 31.9014C68.0319 31.9236 68.0444 31.9458 68.0569 31.9694L68.075 32C68.0833 32.0125 68.0902 32.0264 68.0986 32.0403C68.1041 32.0486 68.1083 32.0569 68.1139 32.0667C68.1264 32.0917 68.1375 32.118 68.1486 32.1444L68.1652 32.1833C68.1736 32.2028 68.1833 32.2222 68.1902 32.2417C68.193 32.25 68.1972 32.2583 68.2 32.2639C68.2069 32.2833 68.2125 32.3028 68.2166 32.3222C68.2333 32.375 68.2486 32.4278 68.2611 32.4833C68.2652 32.4972 68.268 32.5097 68.2708 32.5222C68.2805 32.5722 68.2875 32.6236 68.2944 32.675C68.2944 32.6792 68.2958 32.6958 68.2972 32.7C68.3041 32.7722 68.3069 32.8389 68.3069 32.9055C68.3069 32.9111 68.3069 32.9236 68.3069 32.9278C68.3055 32.9944 68.3014 33.0653 68.2916 33.1444L68.2861 33.1861C68.2764 33.2583 68.2639 33.3319 68.2472 33.4028L68.2402 33.4305C68.2166 33.525 68.1944 33.6014 68.1708 33.6722C68.1416 33.7597 68.1055 33.8472 68.0666 33.9333L68.0361 33.9958C67.9819 34.1083 67.9333 34.1958 67.8847 34.2764C67.8819 34.2805 67.8805 34.2833 67.8777 34.2875C67.8291 34.3653 67.7805 34.4375 67.718 34.5208C67.7125 34.5292 67.7055 34.5403 67.6972 34.55C67.6889 34.5597 67.6805 34.5708 67.6722 34.5805C67.6236 34.643 67.575 34.7014 67.525 34.7597C67.5166 34.7708 67.5083 34.7805 67.5 34.7903C67.4958 34.7958 67.4875 34.8042 67.4819 34.8083C67.4319 34.8639 67.368 34.9305 67.3 34.9944C67.3 34.9958 67.293 35.0028 67.2861 35.0083C67.2764 35.018 67.2652 35.0264 67.2555 35.0361C67.1972 35.0889 67.1458 35.1347 67.0916 35.1792C67.0777 35.1917 67.068 35.2 67.0583 35.2083C67.0486 35.2167 67.0389 35.2236 67.0291 35.2305C66.9625 35.2833 66.8972 35.3333 66.8291 35.3805C66.825 35.3847 66.8166 35.3903 66.8097 35.3958C66.8069 35.3986 66.8027 35.4 66.7986 35.4028C66.7264 35.4528 66.6472 35.5014 66.5583 35.5528C66.5514 35.5583 66.5402 35.5639 66.5305 35.5694C66.5194 35.5764 66.5083 35.5819 66.4958 35.5875C66.4027 35.6389 66.3166 35.6833 66.2333 35.7208C66.2264 35.7236 66.2194 35.7278 66.2152 35.7292C66.1972 35.7375 66.1847 35.7417 66.1708 35.7472L66.1569 35.7528C66.1083 35.7736 66.0597 35.7944 66.0111 35.8125C65.993 35.8194 65.975 35.825 65.9583 35.8319L65.9083 35.85C65.8819 35.8597 65.8541 35.8694 65.8277 35.8778C65.8222 35.8792 65.8097 35.8833 65.8041 35.8847C65.7736 35.8944 65.7361 35.9042 65.7 35.9139L65.6583 35.925C65.6361 35.9319 65.6125 35.9375 65.5902 35.943C65.5527 35.9514 65.5139 35.9597 65.4764 35.9667L65.4319 35.975C65.4111 35.9792 65.3889 35.9833 65.368 35.9875C65.3236 35.9944 65.2777 36 65.2333 36.0042L65.2 36.0083C65.1819 36.0111 65.1639 36.0125 65.1458 36.0139C65.0694 36.0222 64.9944 36.025 64.9194 36.025ZM63.8361 34.9278C64.0597 35.2319 64.4444 35.4 64.9208 35.4C64.9777 35.4 65.0361 35.3972 65.0944 35.393L65.1541 35.3861C65.2014 35.3805 65.2347 35.3778 65.2694 35.3722C65.2819 35.3708 65.2944 35.368 65.3069 35.3653L65.3611 35.3542C65.3902 35.3486 65.418 35.343 65.4472 35.3361C65.4625 35.3333 65.4764 35.3292 65.4916 35.325L65.5403 35.3111C65.568 35.3042 65.5972 35.2958 65.625 35.2875C65.6291 35.2861 65.643 35.2819 65.6472 35.2805C65.6583 35.2764 65.6777 35.2694 65.6972 35.2625L65.7916 35.2292C65.8319 35.2139 65.8722 35.1972 65.9125 35.1792L65.9569 35.1611C65.9555 35.1611 65.9639 35.1569 65.9722 35.1542C66.0402 35.1222 66.1139 35.0861 66.1958 35.0403C66.2055 35.0347 66.2166 35.0292 66.2277 35.0236C66.2305 35.0208 66.2389 35.0153 66.2486 35.0111C66.3264 34.9667 66.393 34.9236 66.4541 34.8819C66.4555 34.8805 66.4569 34.8792 66.4597 34.8792C66.4652 34.875 66.4736 34.8694 66.4778 34.8667C66.5333 34.8278 66.5902 34.7861 66.6444 34.7417C66.6527 34.7347 66.6611 34.7292 66.6694 34.7222C66.6805 34.7111 66.6889 34.7042 66.6986 34.6972C66.7444 34.6597 66.7875 34.6208 66.8305 34.5805C66.8389 34.5736 66.8472 34.5653 66.8569 34.5583C66.8611 34.5542 66.8694 34.5458 66.8736 34.5417C66.9277 34.4889 66.9805 34.4347 67.0319 34.3792C67.0333 34.3778 67.0361 34.3736 67.0389 34.3708C67.0472 34.3611 67.0527 34.3528 67.0597 34.3458C67.1014 34.2986 67.1416 34.2486 67.1805 34.1986C67.1875 34.1903 67.1944 34.1805 67.2014 34.1722C67.2055 34.1653 67.2125 34.1555 67.2194 34.1458C67.275 34.0708 67.318 34.0069 67.3555 33.9472C67.3555 33.9458 67.3569 33.9458 67.3569 33.9444C67.3958 33.8819 67.4333 33.8125 67.4722 33.7319L67.5 33.675C67.5319 33.6042 67.5597 33.5347 67.5833 33.4667C67.6014 33.4139 67.618 33.3555 67.6347 33.2903C67.6347 33.2889 67.6389 33.275 67.6389 33.275C67.6541 33.2069 67.6639 33.1542 67.6708 33.1014L67.6736 33.0792C67.6805 33.0194 67.6847 32.968 67.6847 32.9167V32.9028C67.6847 32.8555 67.6819 32.8083 67.6777 32.7625C67.6777 32.7597 67.6764 32.7472 67.6764 32.7444C67.6722 32.7111 67.668 32.6805 67.6625 32.6514C67.6597 32.6417 67.6569 32.6319 67.6541 32.6208C67.6458 32.5833 67.6347 32.5458 67.6236 32.5097C67.6194 32.4972 67.6152 32.4833 67.6125 32.4708C67.6111 32.468 67.6111 32.4667 67.6097 32.4639C67.6069 32.4555 67.6027 32.4472 67.5986 32.4375L67.5722 32.3764C67.5694 32.368 67.5666 32.3611 67.5625 32.3542C67.5597 32.3486 67.5555 32.343 67.5527 32.3375L67.5152 32.2736C67.5097 32.2653 67.5055 32.2555 67.5 32.2472C67.4916 32.2347 67.4833 32.2222 67.4736 32.2097L65.8152 29.9486C65.8083 29.9833 65.8014 30.018 65.7944 30.0528L65.7875 30.0805C65.7639 30.175 65.743 30.25 65.718 30.3208C65.6861 30.4153 65.6458 30.5111 65.5986 30.6139L65.5833 30.6444C65.5291 30.7555 65.4805 30.8444 65.4319 30.925C65.4305 30.9264 65.4291 30.9292 65.4277 30.9305C65.3805 31.0055 65.3291 31.0819 65.2652 31.1694C65.25 31.1903 65.2333 31.2111 65.218 31.2319C65.1708 31.2917 65.1222 31.3514 65.0722 31.4097L65.0625 31.4208C65.0541 31.4305 65.0458 31.4403 65.0375 31.45C64.9791 31.5153 64.9152 31.5805 64.8472 31.6444L64.7958 31.6917C64.7444 31.7389 64.6916 31.7847 64.6389 31.8292C64.618 31.8472 64.5958 31.8639 64.575 31.8819C64.5097 31.9333 64.4444 31.9833 64.3764 32.0305L64.35 32.0486C64.2764 32.0986 64.1972 32.1486 64.1055 32.2014L64.043 32.2361C63.9472 32.2889 63.8597 32.3347 63.775 32.3722L63.7583 32.3805C63.7458 32.3861 63.7319 32.3917 63.7194 32.3972L63.7041 32.4028C63.6555 32.4236 63.6069 32.4444 63.5583 32.4625C63.5402 32.4694 63.5222 32.475 63.5041 32.4819L63.4819 32.4889C63.4375 32.5042 63.3972 32.5194 63.3555 32.5319C63.3208 32.543 63.2847 32.5528 63.25 32.5625L63.2069 32.5736C63.1833 32.5805 63.1611 32.5861 63.1375 32.5917C63.1 32.6 63.0611 32.6083 63.0236 32.6153L62.9791 32.6236C62.9583 32.6278 62.9375 32.6319 62.9166 32.6361C62.8708 32.643 62.825 32.6486 62.7791 32.6528L62.7472 32.6569C62.7291 32.6597 62.7111 32.6611 62.693 32.6625C62.5291 32.6764 62.3722 32.6764 62.1944 32.6555C62.1875 32.6542 62.1819 32.6542 62.1764 32.6528L63.8361 34.9278Z" fill="#FFECE5"/>
<path d="M63.9319 28.0791C65.1597 28.0791 65.8263 29.0388 65.4194 30.2222C65.3555 30.4097 65.268 30.5916 65.1624 30.7652C64.5985 31.686 63.4972 32.3666 62.4638 32.3666C61.4305 32.3666 60.7958 31.686 60.861 30.7652C60.8735 30.5916 60.911 30.4097 60.9749 30.2222C61.3819 29.0388 62.7055 28.0791 63.9319 28.0791Z" fill="#FA9874"/>
<path d="M62.4652 32.6778C61.868 32.6778 61.3471 32.4722 60.9985 32.0972C60.6721 31.7472 60.5138 31.2653 60.5513 30.7416C60.5666 30.5389 60.6096 30.3291 60.6819 30.1194C61.1333 28.7986 62.561 27.7653 63.9333 27.7653C64.6221 27.7653 65.1916 28.0291 65.5333 28.5097C65.8833 29 65.9485 29.6444 65.7166 30.3222C65.6471 30.5278 65.5499 30.7305 65.4305 30.9264C64.7985 31.9583 63.5791 32.6778 62.4652 32.6778ZM63.9319 28.3916C62.8291 28.3916 61.636 29.2583 61.2721 30.3236C61.218 30.4819 61.1846 30.6389 61.1735 30.7875C61.1485 31.1416 61.2458 31.4472 61.4555 31.6722C61.6874 31.9222 62.036 32.0528 62.4638 32.0528C63.3721 32.0528 64.3721 31.4555 64.8958 30.6014C64.9916 30.4444 65.068 30.2833 65.1235 30.1208C65.2888 29.6389 65.2527 29.1958 65.0235 28.8736C64.8027 28.5625 64.4138 28.3916 63.9319 28.3916Z" fill="#FFECE5"/>
<path d="M43.2027 33.6958H45.5291C42.1694 43.0541 38.5152 52.3694 32.9138 61.818L43.2027 33.6958Z" fill="#F56630"/>
<path d="M32.9138 62.1306C32.8694 62.1306 32.8236 62.1208 32.7805 62.1C32.6347 62.0306 32.5652 61.8625 32.6208 61.7097L42.9097 33.5875C42.9541 33.4639 43.0722 33.382 43.2027 33.382H45.5291C45.6305 33.382 45.7263 33.432 45.7847 33.5153C45.843 33.5986 45.8569 33.7056 45.8236 33.8C42.0791 44.2306 38.4958 53.0139 33.1833 61.9764C33.1236 62.075 33.0208 62.1306 32.9138 62.1306ZM43.4208 34.0083L34.4791 58.4486C38.7263 50.7333 41.8527 42.9792 45.0833 34.0083H43.4208Z" fill="#FFECE5"/>
<path d="M74.8291 30.7653L77.2846 34.1125L76.2818 37.043L73.8263 33.6958L74.8291 30.7653Z" fill="#F77A4A"/>
<path d="M76.2819 37.3556C76.1833 37.3556 76.0888 37.3084 76.0305 37.2278L73.575 33.8806C73.5138 33.7986 73.4986 33.6917 73.5319 33.5945L74.5361 30.6639C74.5736 30.5542 74.6694 30.4736 74.7847 30.4556C74.9 30.4389 75.0152 30.4861 75.0833 30.5792L77.5389 33.9264C77.6 34.0084 77.6152 34.1153 77.5819 34.2125L76.5777 37.1431C76.5402 37.2528 76.4444 37.3333 76.3291 37.3514C76.3125 37.3542 76.2972 37.3556 76.2819 37.3556ZM74.175 33.6417L76.1791 36.375L76.9361 34.1653L74.9319 31.432L74.175 33.6417Z" fill="#FFECE5"/>
<path d="M74.8291 30.7653L73.8249 33.6958L72.6263 37.1944H50.3694L51.568 33.6958L52.5722 30.7653H60.8638C60.7972 31.6861 61.4333 32.3666 62.4666 32.3666C63.4999 32.3666 64.6013 31.6861 65.1652 30.7653H74.8291Z" fill="#FA9874"/>
<path d="M72.6277 37.5069H50.3693C50.2679 37.5069 50.1735 37.4583 50.1152 37.3764C50.0568 37.2944 50.0416 37.1889 50.0735 37.093L52.2749 30.6639C52.3179 30.5375 52.4374 30.4528 52.5707 30.4528H60.8624C60.9485 30.4528 61.0318 30.4889 61.0916 30.5528C61.1513 30.6166 61.1804 30.7014 61.1749 30.7875C61.1499 31.1416 61.2471 31.4472 61.4568 31.6722C61.6888 31.9222 62.0374 32.0528 62.4652 32.0528C63.3735 32.0528 64.3735 31.4555 64.8971 30.6014C64.9541 30.5083 65.0554 30.4528 65.1638 30.4528H74.8305C74.9318 30.4528 75.0263 30.5014 75.0846 30.5833C75.1429 30.6653 75.1582 30.7708 75.1263 30.8666L72.9249 37.2958C72.8804 37.4222 72.761 37.5069 72.6277 37.5069ZM50.8068 36.8819H72.4054L74.3929 31.0778H65.3332C64.6804 32.0278 63.5249 32.6791 62.4652 32.6791C61.8679 32.6791 61.3471 32.4736 60.9985 32.0986C60.7429 31.825 60.5902 31.4694 60.5541 31.0778H52.7943L50.8068 36.8819Z" fill="#FFECE5"/>
<path d="M73.8264 33.6958H79.3347C74.2125 49.0764 69.5916 65.4958 61.5736 74.8805H28.1347H23.85C27.3833 70.4875 30.3528 66.1389 32.9139 61.818C38.5153 52.3694 42.1694 43.0541 45.5291 33.6958H51.568L50.3694 37.1944H72.6278L73.8264 33.6958ZM68.4416 48.268L68.625 47.1194H45.2278L45.0444 48.268H68.4416ZM66.9819 51.9319L67.1653 50.7833H43.768L43.5847 51.9319H66.9819ZM65.5222 55.593L65.7055 54.4444H42.3069L42.1236 55.593H65.5222ZM69.9014 44.6055L70.0847 43.4569H46.6889L46.5055 44.6055H69.9014Z" fill="#FFECE5"/>
<path d="M61.5722 75.1916H23.8499C23.7291 75.1916 23.6194 75.1222 23.568 75.0139C23.5166 74.9055 23.5305 74.7764 23.6069 74.6833C26.9749 70.4972 29.9319 66.2361 32.6458 61.6583C37.9333 52.7402 41.5027 43.9875 45.2347 33.5902C45.2791 33.4666 45.3972 33.3833 45.5291 33.3833H51.568C51.6694 33.3833 51.7638 33.4319 51.8222 33.5139C51.8805 33.5958 51.8958 33.7014 51.8638 33.7972L50.8069 36.8819H72.4055L73.5319 33.5944C73.5749 33.468 73.6944 33.3833 73.8277 33.3833H79.336C79.436 33.3833 79.5305 33.4319 79.5902 33.5125C79.6485 33.5944 79.6652 33.6986 79.6333 33.7944C78.9763 35.7694 78.3152 37.7944 77.6763 39.7541C73.3333 53.0791 68.8416 66.8569 61.8124 75.0833C61.7513 75.1514 61.6638 75.1916 61.5722 75.1916ZM24.4999 74.5666H61.4277C68.3235 66.4222 72.7735 52.7666 77.0791 39.5597C77.6735 37.7347 78.2874 35.8527 78.8999 34.0069H74.0485L72.9221 37.2944C72.8791 37.4208 72.7596 37.5055 72.6263 37.5055H50.3694C50.268 37.5055 50.1735 37.4569 50.1152 37.375C50.0569 37.293 50.0416 37.1875 50.0735 37.0916L51.1305 34.0069H45.7485C42.0305 44.3486 38.4597 53.0736 33.1833 61.9764C30.5624 66.3958 27.718 70.5208 24.4999 74.5666ZM65.5222 55.9055H42.1235C42.0319 55.9055 41.9458 55.8652 41.886 55.7958C41.8263 55.7264 41.8013 55.6347 41.8152 55.5444L41.9985 54.3958C42.0222 54.2444 42.1541 54.1319 42.3069 54.1319H65.7041C65.7958 54.1319 65.8819 54.1722 65.9416 54.2416C66.0013 54.3111 66.0263 54.4027 66.0124 54.493L65.8291 55.6416C65.8055 55.7944 65.6749 55.9055 65.5222 55.9055ZM42.4902 55.2805H65.2555L65.3388 54.7569H42.5735L42.4902 55.2805ZM66.9819 52.2444H43.5847C43.493 52.2444 43.4069 52.2041 43.3472 52.1347C43.2874 52.0652 43.2624 51.9736 43.2763 51.8833L43.4597 50.7347C43.4833 50.5833 43.6152 50.4708 43.768 50.4708H67.1652C67.2569 50.4708 67.343 50.5111 67.4027 50.5805C67.4624 50.65 67.4874 50.7416 67.4735 50.8319L67.2902 51.9805C67.2666 52.1319 67.136 52.2444 66.9819 52.2444ZM43.9499 51.6194H66.7152L66.7985 51.0958H44.0347L43.9499 51.6194ZM68.4416 48.5805H45.0444C44.9527 48.5805 44.8666 48.5402 44.8069 48.4708C44.7472 48.4014 44.7222 48.3097 44.736 48.2194L44.9194 47.0708C44.943 46.9194 45.0749 46.8069 45.2277 46.8069H68.6249C68.7166 46.8069 68.8027 46.8472 68.8624 46.9166C68.9222 46.9861 68.9472 47.0777 68.9333 47.168L68.7499 48.3166C68.7263 48.4694 68.5958 48.5805 68.4416 48.5805ZM45.411 47.9555H68.1763L68.2597 47.4319H45.4944L45.411 47.9555ZM69.9013 44.918H46.5055C46.4138 44.918 46.3277 44.8777 46.268 44.8083C46.2083 44.7389 46.1833 44.6472 46.1972 44.5569L46.3805 43.4083C46.4041 43.2569 46.536 43.1444 46.6888 43.1444H70.0847C70.1763 43.1444 70.2624 43.1847 70.3222 43.2541C70.3819 43.3236 70.4069 43.4152 70.393 43.5055L70.2097 44.6541C70.186 44.8069 70.0555 44.918 69.9013 44.918ZM46.8708 44.293H69.6347L69.718 43.7694H46.9541L46.8708 44.293Z" fill="#FFECE5"/>
<path d="M67.8431 81.1459H53.0472H51.0889H25.8417L28.2972 84.4931H53.5431H55.5028H70.2986L67.8431 81.1459Z" fill="#F77A4A"/>
<path d="M70.2986 84.8056H28.2972C28.1972 84.8056 28.1042 84.7584 28.0458 84.6778L25.5903 81.3306C25.5208 81.2362 25.5097 81.1098 25.5639 81.0042C25.6181 80.8986 25.725 80.8334 25.8431 80.8334H67.8444C67.9444 80.8334 68.0375 80.8806 68.0958 80.9611L70.5514 84.3084C70.6208 84.4028 70.6319 84.5292 70.5778 84.6348C70.5236 84.7389 70.4167 84.8056 70.2986 84.8056ZM28.4556 84.1806H69.6819L67.6847 81.4584H26.4583L28.4556 84.1806Z" fill="#FFECE5"/>
<path d="M85.2055 33.6958L75.8875 59.1611L75.4708 60.3L67.843 81.1458L70.2986 84.493L77.9264 63.6472L78.343 62.5083L87.6611 37.043L85.2055 33.6958Z" fill="#FA9874"/>
<path d="M70.2986 84.8055C70.2 84.8055 70.1055 84.7583 70.0472 84.6777L67.5916 81.3305C67.5291 81.2458 67.5139 81.136 67.55 81.0388L84.9125 33.5874C84.9528 33.4791 85.0486 33.4013 85.1625 33.386C85.2764 33.3694 85.3903 33.418 85.4583 33.511L87.9139 36.8583C87.9764 36.943 87.9917 37.0527 87.9555 37.1499L70.5916 84.5999C70.5528 84.7083 70.4555 84.7861 70.3416 84.8013C70.3278 84.8041 70.3125 84.8055 70.2986 84.8055ZM68.1944 81.0958L70.2055 83.8374L87.3097 37.0916L85.2986 34.3499L68.1944 81.0958Z" fill="#FFECE5"/>
<path d="M79.3333 33.6958H85.2236L75.9056 59.1611L75.4889 60.3L67.8611 81.1458H53.0472H51.0875H25.8417L28.1347 74.8791H61.5722C69.5903 65.4944 74.2125 49.0764 79.3333 33.6958Z" fill="#F56630"/>
<path d="M67.8625 81.4583H25.8416C25.7402 81.4583 25.6444 81.4083 25.5861 81.325C25.5277 81.2417 25.5139 81.1347 25.5486 81.0389L27.8416 74.7722C27.8861 74.6486 28.0041 74.5667 28.1347 74.5667H61.4277C68.3222 66.4222 72.7736 52.7667 77.0791 39.5597C77.718 37.6 78.3791 35.5736 79.0375 33.5958C79.0805 33.4681 79.2 33.382 79.3333 33.382H85.2236C85.325 33.382 85.4208 33.432 85.4791 33.5153C85.5375 33.5986 85.5514 33.7056 85.5166 33.8014L68.1555 81.2528C68.1111 81.3764 67.993 81.4583 67.8625 81.4583ZM26.2889 80.8333H67.6444L84.7778 34.0083H79.5597C78.925 35.9153 78.2903 37.8653 77.6736 39.7542C73.3305 53.0792 68.8389 66.857 61.8097 75.0833C61.75 75.1528 61.6639 75.1931 61.5722 75.1931H28.3527L26.2889 80.8333Z" fill="#FFECE5"/>
<path d="M61.5721 74.8792H28.1346H23.8499L26.304 78.2264H30.5887H64.0276L61.5721 74.8792Z" fill="#FA9874"/>
<path d="M64.0277 78.5389H26.3041C26.2041 78.5389 26.111 78.4916 26.0527 78.4111L23.5971 75.0639C23.5277 74.9694 23.5166 74.843 23.5707 74.7375C23.6235 74.6319 23.7318 74.5667 23.8499 74.5667H61.5735C61.6735 74.5667 61.7666 74.6139 61.8249 74.6944L64.2804 78.0417C64.3499 78.1361 64.361 78.2625 64.3068 78.368C64.2527 78.4736 64.1457 78.5389 64.0277 78.5389ZM26.4624 77.9139H63.4096L61.4124 75.1917H24.4666L26.4624 77.9139Z" fill="#FFECE5"/>
<path d="M68.7874 71.2389C68.8457 71.1347 68.9026 71.0292 68.961 70.9236C69.0971 70.6778 69.2304 70.4306 69.3651 70.1806C69.4276 70.0625 69.4901 69.9444 69.5526 69.8264C69.6915 69.5639 69.8276 69.2986 69.9637 69.0306C70.0124 68.9347 70.061 68.8417 70.1096 68.7458C70.2915 68.3861 70.4707 68.0222 70.6485 67.6556C70.6846 67.5806 70.7193 67.5056 70.7554 67.4306C70.8985 67.1333 71.0401 66.8333 71.1804 66.5306C71.2388 66.4069 71.2957 66.2819 71.3526 66.1569C71.411 66.0292 71.4707 65.9028 71.529 65.775C71.5679 65.6903 71.6054 65.6028 71.6429 65.5181C71.8026 65.1625 71.9624 64.8042 72.1193 64.4431C72.1818 64.3014 72.2443 64.1597 72.3054 64.0181C72.5193 63.5194 72.7332 63.0181 72.9429 62.5097C72.9707 62.4431 72.9985 62.3736 73.0262 62.3069C73.2096 61.8611 73.3915 61.4111 73.5721 60.9583C73.6387 60.7917 73.704 60.625 73.7693 60.4569C73.9138 60.0889 74.0582 59.7181 74.2013 59.3458C74.2665 59.1736 74.3332 59.0028 74.3985 58.8306C74.561 58.4028 74.7221 57.9722 74.8832 57.5403C74.9221 57.4375 74.9596 57.3347 74.9985 57.2319C75.1957 56.6958 75.3915 56.1569 75.586 55.6153C75.6387 55.4694 75.6901 55.3208 75.7429 55.175C75.8874 54.7708 76.0304 54.3653 76.1735 53.9583C76.2388 53.7736 76.3026 53.5875 76.3679 53.4014C76.5054 53.0056 76.6429 52.6097 76.779 52.2125C76.8346 52.0514 76.8901 51.8903 76.9457 51.7278C77.1332 51.1764 77.3207 50.625 77.5068 50.0694C77.5221 50.0236 77.5374 49.9764 77.5526 49.9306C77.7263 49.4125 77.8999 48.8944 78.0721 48.3736C78.1332 48.1889 78.1943 48.0042 78.2554 47.8194C78.386 47.4236 78.5165 47.0278 78.6471 46.6306C78.7096 46.4417 78.7721 46.2514 78.8332 46.0625C78.9804 45.6153 79.1263 45.1681 79.2721 44.7208C79.3096 44.6042 79.3485 44.4889 79.386 44.3722C79.5985 43.7194 79.8124 43.0667 80.0249 42.4139C80.1693 41.9722 80.3137 41.5292 80.4582 41.0875C80.5207 40.8944 80.5846 40.7028 80.6471 40.5097C80.7804 40.1028 80.9137 39.6972 81.0471 39.2917C81.1054 39.1125 81.1651 38.9333 81.2235 38.7542C81.411 38.1833 81.5999 37.6139 81.7888 37.0458L79.3332 33.6986C79.1443 34.2667 78.9554 34.8347 78.7679 35.4056C78.7082 35.5861 78.6499 35.7667 78.5901 35.9458C78.4568 36.3514 78.3235 36.7556 78.1915 37.1611C78.129 37.3542 78.0651 37.5458 78.0026 37.7389C77.8582 38.1806 77.7138 38.6222 77.5693 39.0653C77.3568 39.7181 77.1443 40.3708 76.9304 41.0236C76.8929 41.1403 76.854 41.2556 76.8165 41.3722C76.6707 41.8208 76.5235 42.2681 76.3776 42.7153C76.3151 42.9042 76.254 43.0917 76.1915 43.2806C76.061 43.6792 75.929 44.0778 75.7985 44.475C75.7374 44.6583 75.6776 44.8417 75.6165 45.0236C75.4429 45.5458 75.2693 46.0681 75.0943 46.5889C75.079 46.6319 75.0651 46.6764 75.0499 46.7208C74.8637 47.275 74.6763 47.8264 74.4888 48.3778C74.4332 48.5417 74.3776 48.7028 74.3207 48.8667C74.1846 49.2639 74.0471 49.6597 73.9096 50.0556C73.8457 50.2417 73.7804 50.4264 73.7151 50.6111C73.5721 51.0181 73.429 51.4222 73.2846 51.8264C73.2318 51.9736 73.179 52.1222 73.1263 52.2694C72.9318 52.8111 72.736 53.3486 72.5388 53.8847C72.4999 53.9903 72.461 54.0931 72.4221 54.1986C72.2624 54.6292 72.1013 55.0583 71.9388 55.4847C71.8735 55.6569 71.8068 55.8292 71.7415 56C71.5985 56.3722 71.454 56.7431 71.3096 57.1111C71.2443 57.2778 71.1776 57.4458 71.1124 57.6125C70.9318 58.0653 70.7499 58.5153 70.5665 58.9611C70.5387 59.0278 70.511 59.0972 70.4832 59.1639C70.2735 59.6722 70.061 60.1736 69.8457 60.6722C69.7846 60.8153 69.7221 60.9556 69.6596 61.0986C69.5026 61.4597 69.3443 61.8181 69.1832 62.1736C69.086 62.3875 68.9901 62.6014 68.8929 62.8139C68.836 62.9389 68.7776 63.0639 68.7207 63.1875C68.5804 63.4889 68.4388 63.7889 68.2957 64.0861C68.2596 64.1611 68.2235 64.2375 68.1874 64.3125C68.0096 64.6806 67.8304 65.0444 67.6485 65.4042C67.6013 65.4986 67.5526 65.5917 67.504 65.6861C67.3679 65.9542 67.2304 66.2208 67.0915 66.4833C67.029 66.6014 66.9665 66.7194 66.904 66.8375C66.7707 67.0875 66.636 67.3347 66.4999 67.5806C66.4415 67.6861 66.3846 67.7917 66.3262 67.8958C66.1346 68.2389 65.9415 68.5778 65.7457 68.9111C65.7388 68.9236 65.7318 68.9347 65.7249 68.9458C65.5374 69.2639 65.3485 69.5778 65.1582 69.8875C65.0832 70.0097 65.0068 70.1292 64.9304 70.25C64.7971 70.4611 64.6637 70.6722 64.529 70.8792C64.4471 71.0056 64.3638 71.1319 64.2804 71.2569C64.1485 71.4556 64.0151 71.6528 63.8804 71.8472C63.7957 71.9694 63.711 72.0931 63.6262 72.2139C63.486 72.4125 63.3457 72.6069 63.204 72.8014C63.1235 72.9111 63.0429 73.0222 62.9624 73.1319C62.8096 73.3361 62.6554 73.5347 62.4999 73.7333C62.4235 73.8306 62.3485 73.9306 62.2721 74.0264C62.0401 74.3181 61.8054 74.6028 61.5665 74.8819L64.0221 78.2292C64.261 77.95 64.4957 77.6639 64.7276 77.3736C64.804 77.2778 64.879 77.1778 64.9554 77.0806C65.0818 76.9181 65.2096 76.7583 65.3346 76.5931C65.3624 76.5556 65.3901 76.5167 65.4179 76.4792C65.4999 76.3708 65.579 76.2597 65.6596 76.1486C65.8013 75.9542 65.9429 75.7597 66.0818 75.5611C66.1665 75.4403 66.2513 75.3167 66.336 75.1944C66.4693 75 66.6026 74.8028 66.7346 74.6042C66.8179 74.4792 66.9013 74.3528 66.9846 74.225C67.1193 74.0181 67.2526 73.8083 67.3846 73.5972C67.461 73.4764 67.5374 73.3556 67.6124 73.2333C67.6388 73.1889 67.6665 73.1472 67.6943 73.1028C67.8582 72.8361 68.0193 72.5653 68.1804 72.2917C68.1874 72.2792 68.1943 72.2681 68.2012 72.2569C68.404 71.9208 68.5957 71.5819 68.7874 71.2389Z" fill="#FCD2C2"/>
<path d="M64.0277 78.5389C64.0235 78.5389 64.0193 78.5389 64.0166 78.5389C63.9207 78.5347 63.8332 78.4889 63.7763 78.4111L61.3207 75.0639C61.2346 74.9472 61.2416 74.7861 61.3346 74.6764C61.5582 74.4139 61.7874 74.1375 62.0332 73.8292C62.0791 73.7722 62.1249 73.7125 62.1693 73.6542L62.2582 73.5389C62.4124 73.3417 62.5652 73.1445 62.7166 72.9431C62.7735 72.8667 62.8291 72.7903 62.886 72.7125L62.9568 72.6153C63.0971 72.4222 63.2374 72.2292 63.3763 72.032C63.461 71.9111 63.5457 71.7903 63.6291 71.6681C63.7624 71.475 63.8943 71.2792 64.0263 71.082C64.1096 70.957 64.1916 70.8333 64.2735 70.707C64.4068 70.5014 64.5402 70.2917 64.6721 70.082L64.7374 69.9778C64.7916 69.8931 64.8443 69.8083 64.8971 69.7222C65.1041 69.3861 65.2888 69.0792 65.461 68.7861L65.4818 68.7514C65.6582 68.45 65.8471 68.1195 66.0582 67.7403C66.0971 67.6695 66.1374 67.5986 66.1763 67.5264L66.2304 67.4264C66.3652 67.182 66.4999 66.9347 66.6318 66.6861C66.6943 66.5695 66.7568 66.4514 66.8193 66.3333C66.9568 66.0708 67.0943 65.8056 67.2304 65.5389L67.2888 65.425C67.3166 65.3695 67.3457 65.3139 67.3735 65.2583C67.5568 64.8931 67.7374 64.5278 67.911 64.1708L68.0179 63.9458C68.1596 63.65 68.3013 63.3514 68.4416 63.05C68.4943 62.9375 68.5457 62.825 68.5985 62.7111L68.6138 62.6778C68.711 62.4667 68.8068 62.2528 68.9041 62.0389C69.0638 61.6847 69.2221 61.3278 69.3777 60.9681L69.4457 60.8125C69.4846 60.7236 69.5235 60.6333 69.5624 60.5445C69.7902 60.0167 69.9971 59.525 70.1971 59.0403L70.2791 58.8375C70.4624 58.3931 70.6429 57.9445 70.8235 57.4931C70.8763 57.3625 70.9277 57.2306 70.9791 57.0986L71.0207 56.9931C71.1652 56.625 71.3096 56.2556 71.4527 55.8833L71.4777 55.8181C71.5346 55.6681 71.5929 55.5181 71.6499 55.3681C71.8124 54.9431 71.9721 54.5139 72.1318 54.0833L72.2485 53.7708C72.4457 53.2361 72.6402 52.6986 72.8346 52.1583L72.9929 51.7153C73.1374 51.3125 73.2804 50.907 73.4221 50.5014L73.6152 49.9458C73.7527 49.5514 73.8888 49.1556 74.0249 48.7583L74.1929 48.2708C74.3804 47.7208 74.5679 47.1695 74.7541 46.6153L74.7985 46.4847C74.9735 45.9639 75.1471 45.4431 75.3207 44.9208L75.5027 44.3722C75.6346 43.975 75.7652 43.5764 75.8957 43.1778L76.0818 42.6125C76.2291 42.1653 76.3749 41.7181 76.5207 41.2695L77.8943 37.0597C78.0277 36.6542 78.1596 36.2486 78.2929 35.8431L78.4707 35.3028C78.6582 34.732 78.8471 34.1625 79.036 33.5958C79.0735 33.4847 79.1679 33.4042 79.2846 33.3861C79.3999 33.3681 79.5166 33.4153 79.5846 33.5097L82.0402 36.857C82.0999 36.9389 82.1166 37.0445 82.0846 37.1403C81.8957 37.7083 81.7068 38.2778 81.5193 38.8472L81.3429 39.3847C81.2096 39.7903 81.0763 40.1958 80.9429 40.6028L79.5693 44.8125C79.4235 45.2611 79.2763 45.7083 79.1304 46.1556L78.9443 46.7236C78.8138 47.1208 78.6832 47.5167 78.5527 47.9125L78.3693 48.4667C78.1971 48.9875 78.0235 49.507 77.8499 50.0236L77.8027 50.1625C77.6166 50.7181 77.4291 51.2708 77.2402 51.8222L77.0735 52.307C76.9374 52.7056 76.7999 53.1014 76.6624 53.4972L76.4679 54.0542C76.3249 54.4625 76.1818 54.8681 76.0374 55.2736L75.8804 55.7153C75.686 56.2583 75.4888 56.7986 75.2916 57.3347L75.1763 57.6431C75.0152 58.0764 74.8541 58.507 74.6916 58.9361C74.6346 59.0861 74.5763 59.2361 74.5193 59.3861L74.4943 59.4528C74.3513 59.8264 74.2068 60.1972 74.061 60.5667L74.0193 60.6736C73.9679 60.8056 73.9152 60.9375 73.8638 61.0681C73.6832 61.5222 73.5013 61.9722 73.3166 62.4195L73.2332 62.6236C73.0318 63.1097 72.8235 63.6042 72.5943 64.1361C72.5554 64.2264 72.5166 64.3167 72.4763 64.4056L72.4082 64.5625C72.2499 64.925 72.0916 65.2847 71.9304 65.6417L71.8791 65.7597C71.8582 65.807 71.8374 65.8542 71.8166 65.9C71.7804 65.9792 71.7443 66.0556 71.7082 66.1333L71.6166 66.3306C71.5666 66.4403 71.5166 66.55 71.4652 66.6583C71.3235 66.9625 71.1818 67.2625 71.0374 67.5625L70.9304 67.7875C70.7568 68.1458 70.5749 68.5139 70.3902 68.8833C70.361 68.9417 70.3318 68.9986 70.3027 69.0556L70.2443 69.1695C70.1082 69.4375 69.9693 69.7042 69.8318 69.9681C69.7693 70.0875 69.7054 70.2056 69.6429 70.325C69.5082 70.5764 69.3735 70.825 69.2374 71.0722L69.1832 71.1708C69.1429 71.2431 69.1041 71.3167 69.0638 71.3889C68.8499 71.7708 68.6596 72.1042 68.4804 72.4097L68.4582 72.4458C68.2971 72.7208 68.1346 72.9931 67.9707 73.2611L67.8888 73.3917C67.8346 73.4792 67.7804 73.5653 67.7263 73.6528L67.6596 73.7583C67.5263 73.9708 67.3929 74.182 67.2568 74.3903C67.1735 74.5181 67.0902 74.6445 67.0054 74.7722C66.8721 74.9722 66.7388 75.1708 66.6041 75.3667C66.5193 75.4903 66.4332 75.6139 66.3471 75.7361C66.2068 75.9361 66.0638 76.1333 65.9207 76.3278L65.8499 76.425C65.7929 76.5042 65.7346 76.582 65.6777 76.6597L65.6402 76.7097C65.6249 76.732 65.6082 76.7528 65.5929 76.7736C65.4999 76.8972 65.4054 77.0167 65.311 77.1375L65.1235 77.3778C65.0763 77.4389 65.0291 77.5014 64.9804 77.5611C64.7304 77.8736 64.4971 78.1569 64.2679 78.425C64.2054 78.4986 64.1193 78.5389 64.0277 78.5389ZM61.9707 74.8931L64.0457 77.7208C64.1888 77.5486 64.336 77.3681 64.4902 77.175C64.536 77.1181 64.5818 77.0583 64.6263 77L64.8166 76.7556C64.9082 76.6389 64.9999 76.5208 65.0916 76.4014L65.1749 76.2889C65.2318 76.2139 65.2874 76.1375 65.3429 76.0597L65.4152 75.9611C65.5554 75.7681 65.6957 75.575 65.8346 75.3778C65.9193 75.2569 66.0041 75.1361 66.0874 75.0139C66.2207 74.8208 66.3527 74.625 66.4832 74.4278C66.5666 74.3028 66.6485 74.1778 66.7304 74.0514C66.8638 73.8458 66.9957 73.6375 67.1277 73.4278L67.1943 73.3208C67.2471 73.2361 67.3013 73.1514 67.3541 73.0653L67.4346 72.9361C67.5971 72.6708 67.7582 72.4014 67.9166 72.1292L67.9374 72.0931C68.1138 71.7917 68.3027 71.4611 68.5138 71.0833C68.5527 71.0125 68.5929 70.9417 68.6318 70.8695L68.6874 70.7695C68.8221 70.525 68.9568 70.2778 69.0888 70.0292C69.1513 69.9125 69.2138 69.7945 69.2763 69.6764C69.4138 69.4153 69.5499 69.15 69.686 68.8847L69.7457 68.7695C69.7749 68.7139 69.8027 68.6583 69.8318 68.6014C70.0166 68.2361 70.1971 67.8695 70.3679 67.5153L70.4749 67.2917C70.6179 66.9945 70.7582 66.6958 70.8985 66.3945C70.9485 66.2861 70.9985 66.1778 71.0485 66.0695L71.1402 65.8695C71.1749 65.7931 71.211 65.7167 71.2457 65.6403C71.2652 65.5958 71.2846 65.5514 71.3054 65.507C71.3235 65.4653 71.3416 65.4236 71.3596 65.3833C71.5193 65.0292 71.6777 64.6708 71.8346 64.3111L71.9041 64.1528C71.9429 64.0639 71.9818 63.9764 72.0207 63.8861C72.2485 63.357 72.4568 62.8653 72.6554 62.382L72.7374 62.1792C72.9207 61.7347 73.1013 61.2861 73.2818 60.8347C73.3332 60.7042 73.3846 60.5736 73.436 60.4431L73.4777 60.3347C73.6221 59.9667 73.7666 59.5972 73.9096 59.225L73.9346 59.1583C73.9916 59.0097 74.0499 58.8597 74.1068 58.7097C74.2693 58.2833 74.4304 57.8528 74.5902 57.4222L74.7054 57.1139C74.9027 56.5792 75.0985 56.0403 75.2929 55.5L75.4499 55.0597C75.5943 54.6556 75.7374 54.2514 75.8804 53.8445L76.0749 53.2889C76.2124 52.8945 76.3485 52.4972 76.4846 52.1014L76.6513 51.6181C76.8388 51.0681 77.0263 50.5153 77.2124 49.9611L77.2582 49.8222C77.4318 49.3056 77.6041 48.7861 77.7763 48.2667L77.9596 47.7125C78.0902 47.3167 78.2207 46.9208 78.3513 46.5236L78.5374 45.9556C78.6832 45.5083 78.8304 45.0611 78.9763 44.6139L80.3499 40.4042C80.4832 39.9972 80.6166 39.5917 80.7499 39.1861L80.9263 38.6486C81.0971 38.1292 81.2693 37.6097 81.4416 37.0931L79.4402 34.3639C79.3152 34.7403 79.1902 35.1181 79.0666 35.4958L78.8888 36.0361C78.7554 36.4403 78.6235 36.8458 78.4902 37.2514L77.1166 41.4611C76.9707 41.9097 76.8235 42.357 76.6777 42.8042L76.4916 43.3695C76.361 43.7681 76.2291 44.1667 76.0971 44.5639L75.9152 45.1125C75.7416 45.6361 75.5679 46.1583 75.3929 46.6792L75.3485 46.8111C75.1624 47.3653 74.9749 47.9181 74.7874 48.4695L74.6193 48.9583C74.4832 49.3556 74.3457 49.7528 74.2082 50.1486L74.0138 50.7042C73.8707 51.1111 73.7277 51.5167 73.5832 51.9208L73.4249 52.3653C73.2304 52.907 73.0346 53.4472 72.8374 53.982L72.7207 54.2958C72.561 54.7278 72.3999 55.1583 72.2374 55.5847C72.1804 55.7361 72.1221 55.8861 72.0638 56.0361L72.0388 56.1014C71.8957 56.475 71.7513 56.8458 71.6054 57.2153L71.5638 57.3208C71.511 57.4528 71.4596 57.5861 71.4068 57.7181C71.2263 58.1722 71.0443 58.6222 70.8596 59.0695L70.7763 59.2736C70.5749 59.7611 70.3652 60.2556 70.1374 60.7861C70.0985 60.8778 70.0582 60.9681 70.0179 61.0583L69.9499 61.2125C69.7916 61.575 69.6332 61.9333 69.4721 62.2903C69.3749 62.5056 69.2777 62.7208 69.1804 62.9333L69.1666 62.9722C69.1138 63.0861 69.061 63.2 69.0082 63.3139C68.8666 63.6167 68.7249 63.9181 68.5818 64.2167L68.4735 64.4445C68.2999 64.8042 68.1179 65.1722 67.9318 65.5403C67.9027 65.5972 67.8735 65.6542 67.8443 65.7111L67.7874 65.8236C67.6499 66.0931 67.5124 66.3597 67.3735 66.625C67.311 66.7445 67.2471 66.8625 67.1846 66.9806C67.0499 67.232 66.9152 67.4806 66.7791 67.7278L66.7249 67.8264C66.6846 67.8986 66.6443 67.9722 66.6041 68.0445C66.3902 68.4264 66.1999 68.7611 66.0207 69.0653L65.9999 69.1C65.8249 69.3972 65.6388 69.707 65.4291 70.0472C65.3749 70.1347 65.3207 70.2222 65.2652 70.3097L65.1999 70.4125C65.0666 70.625 64.9318 70.8375 64.7957 71.0458C64.7124 71.1736 64.6291 71.3 64.5457 71.4264C64.4124 71.6264 64.2791 71.825 64.1429 72.0208C64.0582 72.1445 63.9721 72.2681 63.886 72.3903C63.7457 72.5903 63.6027 72.7875 63.4596 72.9819L63.3902 73.0778C63.3318 73.1569 63.2749 73.2361 63.2166 73.3153C63.0624 73.5208 62.9068 73.7222 62.7499 73.9222L62.6624 74.0347C62.6152 74.0958 62.5679 74.1583 62.5193 74.2181C62.3291 74.4597 62.1471 74.6819 61.9707 74.8931Z" fill="#FFECE5"/>
<path d="M70.0847 43.4569L69.9013 44.6055H46.5055L46.6888 43.4569H70.0847Z" fill="#F56630"/>
<path d="M69.9013 44.918H46.5054C46.4138 44.918 46.3277 44.8777 46.2679 44.8083C46.2082 44.7389 46.1832 44.6472 46.1971 44.5569L46.3804 43.4083C46.404 43.2569 46.536 43.1444 46.6888 43.1444H70.0846C70.1763 43.1444 70.2624 43.1847 70.3221 43.2541C70.3818 43.3236 70.4068 43.4152 70.3929 43.5055L70.2096 44.6541C70.186 44.8069 70.0554 44.918 69.9013 44.918ZM46.8707 44.293H69.6346L69.7179 43.7694H46.954L46.8707 44.293Z" fill="#F56630"/>
<path d="M67.1653 50.7833L66.9819 51.9319H43.5847L43.7681 50.7833H67.1653Z" fill="#F56630"/>
<path d="M66.9819 52.2444H43.5847C43.493 52.2444 43.4069 52.2042 43.3472 52.1347C43.2874 52.0653 43.2624 51.9736 43.2763 51.8833L43.4597 50.7347C43.4833 50.5833 43.6152 50.4708 43.768 50.4708H67.1652C67.2569 50.4708 67.343 50.5111 67.4027 50.5805C67.4624 50.65 67.4874 50.7417 67.4736 50.8319L67.2902 51.9805C67.2666 52.1333 67.1361 52.2444 66.9819 52.2444ZM43.9499 51.6194H66.7152L66.7986 51.0958H44.0347L43.9499 51.6194Z" fill="#F56630"/>
<path d="M65.7056 54.4445L65.5223 55.5931H42.1237L42.307 54.4445H65.7056Z" fill="#F56630"/>
<path d="M65.5222 55.9056H42.1236C42.0319 55.9056 41.9458 55.8653 41.8861 55.7958C41.8264 55.7264 41.8014 55.6347 41.8153 55.5445L41.9986 54.3958C42.0222 54.2445 42.1542 54.132 42.3069 54.132H65.7042C65.7958 54.132 65.8819 54.1722 65.9417 54.2417C66.0014 54.3111 66.0264 54.4028 66.0125 54.4931L65.8292 55.6417C65.8055 55.7945 65.675 55.9056 65.5222 55.9056ZM42.4903 55.2806H65.2555L65.3389 54.757H42.5736L42.4903 55.2806Z" fill="#F56630"/>
<path d="M68.625 47.1194L68.443 48.268H45.0444L45.2278 47.1194H68.625Z" fill="#F56630"/>
<path d="M68.443 48.5805H45.0444C44.9527 48.5805 44.8666 48.5402 44.8069 48.4708C44.7472 48.4013 44.7222 48.3097 44.736 48.2194L44.9194 47.0708C44.943 46.9194 45.0749 46.8069 45.2277 46.8069H68.6249C68.7166 46.8069 68.8027 46.8472 68.8624 46.9166C68.9222 46.986 68.9472 47.0777 68.9333 47.168L68.7499 48.3166C68.7263 48.4694 68.5958 48.5805 68.443 48.5805ZM45.411 47.9555H68.1763L68.2597 47.4319H45.4944L45.411 47.9555Z" fill="#F56630"/>
<path d="M120.586 99.8514C122.179 99.8514 123.471 98.5598 123.471 96.9666C123.471 95.3734 122.179 94.0819 120.586 94.0819C118.993 94.0819 117.701 95.3734 117.701 96.9666C117.701 98.5598 118.993 99.8514 120.586 99.8514Z" fill="#FFECE5"/>
<path d="M124.185 98.9222C125.778 98.9222 127.069 97.6306 127.069 96.0374C127.069 94.4442 125.778 93.1527 124.185 93.1527C122.592 93.1527 121.3 94.4442 121.3 96.0374C121.3 97.6306 122.592 98.9222 124.185 98.9222Z" fill="#FFECE5"/>
<path d="M30.4917 90.1444C31.2473 90.1444 31.8598 89.5319 31.8598 88.7764C31.8598 88.0208 31.2473 87.4083 30.4917 87.4083C29.7362 87.4083 29.1237 88.0208 29.1237 88.7764C29.1237 89.5319 29.7362 90.1444 30.4917 90.1444Z" fill="#FFECE5"/>
<path d="M29.032 91.1319C29.7876 91.1319 30.4001 90.5194 30.4001 89.7638C30.4001 89.0082 29.7876 88.3958 29.032 88.3958C28.2764 88.3958 27.6639 89.0082 27.6639 89.7638C27.6639 90.5194 28.2764 91.1319 29.032 91.1319Z" fill="#FFECE5"/>
<path d="M31.4904 44.6055C32.6318 44.6055 33.557 43.6802 33.557 42.5388C33.557 41.3974 32.6318 40.4722 31.4904 40.4722C30.349 40.4722 29.4237 41.3974 29.4237 42.5388C29.4237 43.6802 30.349 44.6055 31.4904 44.6055Z" fill="#FFECE5"/>
<path d="M87.6611 48.2403C88.8025 48.2403 89.7278 47.315 89.7278 46.1736C89.7278 45.0322 88.8025 44.1069 87.6611 44.1069C86.5198 44.1069 85.5945 45.0322 85.5945 46.1736C85.5945 47.315 86.5198 48.2403 87.6611 48.2403Z" fill="#FFECE5"/>
<path d="M88.6945 49.9125C89.0964 49.9125 89.4222 49.5866 89.4222 49.1847C89.4222 48.7827 89.0964 48.4569 88.6945 48.4569C88.2925 48.4569 87.9667 48.7827 87.9667 49.1847C87.9667 49.5866 88.2925 49.9125 88.6945 49.9125Z" fill="#FFECE5"/>
<path d="M125.007 78.3902C125.862 78.3902 126.556 77.6969 126.556 76.8416C126.556 75.9863 125.862 75.293 125.007 75.293C124.152 75.293 123.458 75.9863 123.458 76.8416C123.458 77.6969 124.152 78.3902 125.007 78.3902Z" fill="#FFECE5"/>
<path d="M126.817 75.8347C127.118 75.8347 127.363 75.5903 127.363 75.2889C127.363 74.9874 127.118 74.743 126.817 74.743C126.515 74.743 126.271 74.9874 126.271 75.2889C126.271 75.5903 126.515 75.8347 126.817 75.8347Z" fill="#FFECE5"/>
<path d="M133.692 55.7055C135.655 55.7055 137.247 54.1136 137.247 52.1499C137.247 50.1862 135.655 48.5944 133.692 48.5944C131.728 48.5944 130.136 50.1862 130.136 52.1499C130.136 54.1136 131.728 55.7055 133.692 55.7055Z" fill="#FCD2C2"/>
<path d="M130.136 50.3944C131.071 50.3944 131.829 49.6364 131.829 48.7014C131.829 47.7663 131.071 47.0083 130.136 47.0083C129.201 47.0083 128.443 47.7663 128.443 48.7014C128.443 49.6364 129.201 50.3944 130.136 50.3944Z" fill="#FFECE5"/>
</svg>
