<svg width="150" height="150" viewBox="0 0 150 150" fill="none" xmlns="http://www.w3.org/2000/svg">
<path d="M75 124.579C103.319 124.579 126.276 115.573 126.276 104.464C126.276 93.3546 103.319 84.3486 75 84.3486C46.6809 84.3486 23.7236 93.3546 23.7236 104.464C23.7236 115.573 46.6809 124.579 75 124.579Z" fill="#FFECE5"/>
<path d="M60.6054 25.4208L64.3596 30.5389L54.0763 95.0111L50.3235 89.8931L60.6054 25.4208Z" fill="#FCB59A"/>
<path d="M54.0762 95.3236C53.9776 95.3236 53.8845 95.2778 53.8248 95.1958L50.0706 90.0778C50.0206 90.0111 50.0012 89.9264 50.0137 89.8431L60.2956 25.3708C60.3151 25.2458 60.4081 25.1458 60.5304 25.1167C60.6526 25.0875 60.7817 25.1333 60.8554 25.2361L64.6095 30.3542C64.6595 30.4208 64.679 30.5056 64.6665 30.5889L54.3845 95.0611C54.3651 95.1861 54.272 95.2861 54.1498 95.3153C54.1262 95.3209 54.1012 95.3236 54.0762 95.3236ZM50.6526 89.8139L53.8859 94.2236L64.0304 30.6195L60.797 26.2097L50.6526 89.8139Z" fill="#FFECE5"/>
<path d="M72.6972 36.1667L76.4514 41.2847L67.8819 95.0111L64.1292 89.8931L72.6972 36.1667Z" fill="#FCB59A"/>
<path d="M67.8819 95.3236C67.7832 95.3236 67.6902 95.2778 67.6305 95.1958L63.8763 90.0778C63.8263 90.0111 63.8069 89.9264 63.8194 89.8431L72.3874 36.1153C72.4069 35.9903 72.4999 35.8903 72.6221 35.8611C72.7444 35.832 72.8735 35.8778 72.9471 35.9806L76.7013 41.0986C76.7513 41.1653 76.7707 41.25 76.7582 41.3333L68.1888 95.0611C68.1694 95.1861 68.0763 95.2861 67.9541 95.3153C67.9319 95.3208 67.9069 95.3236 67.8819 95.3236ZM64.4582 89.8139L67.6916 94.2236L76.1221 41.3639L72.8888 36.9542L64.4582 89.8139Z" fill="#FFECE5"/>
<path d="M84.7901 46.9111L88.5429 52.0292L85.0859 73.7083L81.3318 68.5903L84.7901 46.9111Z" fill="#FCB59A"/>
<path d="M85.086 74.0208C84.9873 74.0208 84.8943 73.975 84.8346 73.8931L81.0804 68.775C81.0304 68.7083 81.011 68.6236 81.0235 68.5403L84.4804 46.8611C84.4998 46.7361 84.5929 46.6361 84.7151 46.6069C84.8373 46.5778 84.9665 46.6236 85.0401 46.7264L88.7943 51.8444C88.8443 51.9111 88.8637 51.9958 88.8512 52.0792L85.3943 73.7583C85.3748 73.8833 85.2818 73.9833 85.1596 74.0125C85.1346 74.0181 85.1096 74.0208 85.086 74.0208ZM81.661 68.5111L84.8943 72.9208L88.2137 52.1097L84.9804 47.7L81.661 68.5111Z" fill="#FFECE5"/>
<path d="M96.8998 57.5264L100.654 62.6445L99.3748 70.6695L95.6206 65.5514L96.8998 57.5264Z" fill="#FCB59A"/>
<path d="M99.3748 70.982C99.2762 70.982 99.1831 70.9361 99.1234 70.8542L95.3692 65.7361C95.3192 65.6695 95.2998 65.5847 95.3123 65.5014L96.5928 57.4764C96.6123 57.3514 96.7053 57.2514 96.8275 57.2222C96.9498 57.1931 97.0789 57.2389 97.1526 57.3417L100.907 62.4597C100.957 62.5264 100.976 62.6111 100.964 62.6945L99.6831 70.7195C99.6637 70.8445 99.5706 70.9445 99.4484 70.9736C99.4234 70.9792 99.3984 70.982 99.3748 70.982ZM95.9498 65.4709L99.1831 69.8806L100.325 62.7236L97.0914 58.3139L95.9498 65.4709Z" fill="#FFECE5"/>
<path d="M93.6485 77.9167L97.4027 83.0347L95.4915 95.0111L91.7388 89.893L93.6485 77.9167Z" fill="#FCB59A"/>
<path d="M95.4915 95.3236C95.3929 95.3236 95.2998 95.2778 95.2401 95.1958L91.4859 90.0778C91.4359 90.0111 91.4165 89.9264 91.429 89.8431L93.3387 77.8667C93.3581 77.7417 93.4512 77.6417 93.5734 77.6125C93.6956 77.5833 93.8248 77.6292 93.8984 77.7319L97.6526 82.85C97.7026 82.9167 97.722 83.0014 97.7095 83.0847L95.7998 95.0611C95.7804 95.1861 95.6873 95.2861 95.5651 95.3153C95.5415 95.3208 95.5165 95.3236 95.4915 95.3236ZM92.0679 89.8139L95.3012 94.2236L97.0734 83.1153L93.8401 78.7056L92.0679 89.8139Z" fill="#FFECE5"/>
<path d="M60.6054 25.4208L50.3235 89.8931H36.5193L46.8012 25.4208H60.6054Z" fill="#FCD2C2"/>
<path d="M50.3235 90.2058H36.5194C36.4277 90.2058 36.3416 90.1656 36.2819 90.0961C36.2221 90.0267 36.1971 89.935 36.211 89.8447L46.493 25.3725C46.5166 25.2211 46.6485 25.1086 46.8013 25.1086H60.6055C60.6971 25.1086 60.7832 25.1489 60.843 25.2183C60.9027 25.2878 60.9277 25.3794 60.9138 25.4697L50.6319 89.942C50.6069 90.0947 50.4763 90.2058 50.3235 90.2058ZM36.886 89.5808H50.0569L60.2402 25.7336H47.0694L36.886 89.5808Z" fill="#FFECE5"/>
<path d="M72.6971 36.1667L64.129 89.893H50.3235L58.8915 36.1667H72.6971Z" fill="#F56630"/>
<path d="M64.1291 90.2056H50.3236C50.2319 90.2056 50.1458 90.1653 50.0861 90.0958C50.0263 90.0264 50.0013 89.9347 50.0152 89.8444L58.5847 36.1167C58.6083 35.9653 58.7402 35.8528 58.893 35.8528H72.6986C72.7902 35.8528 72.8763 35.8931 72.9361 35.9625C72.9958 36.0319 73.0208 36.1236 73.0069 36.2139L64.4388 89.9417C64.4138 90.0944 64.2819 90.2056 64.1291 90.2056ZM50.6888 89.5806H63.8611L72.3305 36.4778H59.1583L50.6888 89.5806Z" fill="#FFECE5"/>
<path d="M70.9832 46.9111H84.7888L81.3319 68.5903C72.8805 72.7514 66.3152 80.7222 64.7485 89.8931H64.1277L70.9832 46.9111Z" fill="#FCD2C2"/>
<path d="M64.7486 90.2056H64.1278C64.0361 90.2056 63.95 90.1653 63.8903 90.0959C63.8305 90.0264 63.8055 89.9347 63.8194 89.8445L70.675 46.8625C70.6986 46.7111 70.8305 46.5986 70.9833 46.5986H84.7889C84.8805 46.5986 84.9666 46.6389 85.0264 46.7084C85.0861 46.7778 85.1111 46.8695 85.0972 46.9597L81.6403 68.6389C81.625 68.7389 81.5611 68.825 81.4694 68.8695C72.8403 73.1195 66.55 81.1945 65.0569 89.9445C65.0319 90.0958 64.9014 90.2056 64.7486 90.2056ZM71.25 47.2236L64.5416 89.2861C66.225 80.6056 72.4986 72.6472 81.0486 68.382L84.4236 47.2236H71.25Z" fill="#FFECE5"/>
<path d="M82.7846 102.946C82.6846 102.796 82.5888 102.644 82.4971 102.489C82.4958 102.486 82.493 102.482 82.4916 102.479C82.4027 102.326 82.318 102.172 82.236 102.015C82.2138 101.971 82.193 101.926 82.1708 101.882C82.1069 101.753 82.0444 101.622 81.9846 101.489C81.9569 101.428 81.9319 101.367 81.9055 101.306C81.8541 101.183 81.8055 101.061 81.7583 100.936C81.7305 100.863 81.7027 100.789 81.6763 100.715C81.6596 100.668 81.6444 100.621 81.6277 100.574C81.5916 100.464 81.5569 100.354 81.5235 100.243C81.511 100.203 81.4985 100.163 81.4874 100.121C81.4458 99.9708 81.4055 99.8208 81.3694 99.6681C81.3624 99.6417 81.3583 99.6139 81.3513 99.5875C81.3235 99.4639 81.2971 99.3389 81.2735 99.2125C81.2596 99.1417 81.2485 99.0708 81.236 99C81.2194 98.9042 81.2041 98.807 81.1916 98.7097C81.1819 98.6375 81.1721 98.5639 81.1638 98.4903C81.1527 98.3931 81.1416 98.2958 81.1333 98.1972C81.1263 98.1236 81.1208 98.0486 81.1152 97.9736C81.1083 97.875 81.1027 97.775 81.0985 97.675C81.0958 97.6 81.0916 97.525 81.0902 97.45C81.0874 97.3472 81.0874 97.2444 81.0874 97.1417C81.0874 97.0681 81.0874 96.9945 81.0888 96.9195C81.0916 96.8111 81.0971 96.7028 81.1027 96.5944C81.1069 96.5236 81.1083 96.4528 81.1138 96.382C81.1221 96.2611 81.1333 96.1403 81.1458 96.0181C81.1513 95.9583 81.1555 95.8986 81.1624 95.8389C81.1833 95.6569 81.2083 95.4736 81.2374 95.2889C81.2527 95.1972 81.268 95.1056 81.2846 95.0139C81.461 94.0431 81.7499 93.1 82.136 92.1958L78.3819 87.0778C77.9958 87.982 77.7069 88.925 77.5305 89.8958C77.5138 89.9875 77.4985 90.0792 77.4833 90.1708C77.4541 90.3556 77.4291 90.5375 77.4083 90.7208C77.4013 90.7806 77.3971 90.8403 77.3916 90.9C77.3791 91.0222 77.368 91.1431 77.3596 91.2639C77.3541 91.3347 77.3527 91.4056 77.3485 91.4764C77.343 91.5847 77.3374 91.6931 77.3346 91.8014C77.3333 91.8764 77.3333 91.95 77.3333 92.0236C77.3333 92.1264 77.3333 92.2292 77.336 92.3319C77.3374 92.4069 77.3416 92.4819 77.3444 92.5569C77.3485 92.6569 77.3541 92.757 77.361 92.8556C77.3666 92.9306 77.3721 93.0056 77.3791 93.0792C77.3874 93.1778 77.3985 93.275 77.4096 93.3722C77.418 93.4458 77.4277 93.5195 77.4374 93.5917C77.4513 93.6889 77.4666 93.7847 77.4819 93.882C77.4944 93.9528 77.5055 94.025 77.5194 94.0958C77.5249 94.1236 77.5291 94.1528 77.5333 94.1792C77.5527 94.2764 77.5749 94.3722 77.5958 94.4695C77.6013 94.4958 77.6069 94.5236 77.6138 94.5514C77.6499 94.7042 77.6888 94.8556 77.7319 95.0042C77.743 95.0445 77.7569 95.0861 77.768 95.1264C77.8013 95.2375 77.8346 95.3472 77.8721 95.4569C77.8874 95.5042 77.9041 95.5514 77.9208 95.5986C77.9333 95.6347 77.9444 95.6708 77.9583 95.707C77.9721 95.7458 77.9888 95.782 78.0027 95.8195C78.0499 95.9445 78.0985 96.0667 78.1499 96.1889C78.1763 96.25 78.2013 96.3111 78.2291 96.3722C78.2888 96.5056 78.3513 96.6361 78.4152 96.7667C78.4319 96.8014 78.4471 96.8361 78.4638 96.8708C78.4694 96.8806 78.4749 96.8903 78.4791 96.9C78.561 97.057 78.6458 97.2125 78.7346 97.3653C78.736 97.3681 78.7388 97.3722 78.7402 97.375C78.8319 97.5306 78.9277 97.682 79.0277 97.832C79.0333 97.8403 79.0388 97.85 79.0444 97.8583C79.1249 97.9792 79.2083 98.0972 79.2944 98.2153L83.0485 103.333C82.9583 103.203 82.8694 103.075 82.7846 102.946Z" fill="#FCB59A"/>
<path d="M83.05 103.64C82.9542 103.64 82.8583 103.596 82.7972 103.513L79.0431 98.3945C78.9542 98.2736 78.8681 98.15 78.7861 98.0264L78.7708 98.0028C78.6583 97.8333 78.5625 97.6792 78.4722 97.5278C78.4708 97.525 78.4653 97.5153 78.4625 97.5111C78.3778 97.3667 78.2889 97.2056 78.2028 97.0375L78.1861 97.0083C78.175 96.9861 78.1639 96.9625 78.1528 96.9403C78.1472 96.9278 78.1417 96.9139 78.1347 96.9014C78.0625 96.7556 77.9986 96.6222 77.9417 96.4945C77.9153 96.4347 77.8903 96.375 77.8653 96.3153C77.8083 96.1792 77.757 96.0528 77.7083 95.9236C77.7028 95.9083 77.6972 95.8945 77.6903 95.8792C77.6806 95.8556 77.6708 95.832 77.6611 95.807C77.6528 95.7833 77.6444 95.7611 77.6375 95.7389L77.6236 95.6958C77.607 95.6472 77.5903 95.5986 77.5736 95.5486C77.5361 95.4361 77.5014 95.3222 77.4667 95.2083L77.4542 95.1653C77.4458 95.1375 77.4375 95.1097 77.4292 95.082C77.3847 94.9222 77.3431 94.7653 77.3083 94.6153L77.2903 94.532C77.2667 94.4292 77.2445 94.332 77.225 94.2333C77.2222 94.2153 77.2181 94.1972 77.2153 94.1792L77.2097 94.1472C77.1972 94.0806 77.1861 94.0125 77.175 93.9458L77.1722 93.9278C77.1556 93.8292 77.1403 93.7292 77.1264 93.6292C77.1153 93.5542 77.1069 93.4792 77.0972 93.4028C77.0847 93.3028 77.075 93.2028 77.0653 93.1014C77.0583 93.025 77.0514 92.9486 77.0458 92.8708C77.0389 92.7681 77.0333 92.6667 77.0292 92.5639C77.0264 92.4875 77.0222 92.4097 77.0208 92.3333C77.0181 92.2278 77.0181 92.1222 77.0181 92.0167V91.9708C77.0181 91.9097 77.0181 91.85 77.0194 91.7889C77.0222 91.6778 77.0278 91.5667 77.0333 91.4556L77.0361 91.3903C77.0389 91.3389 77.0403 91.2889 77.0444 91.2375C77.0528 91.1139 77.0653 90.9889 77.0778 90.8639L77.0847 90.7945C77.0875 90.7556 77.0917 90.7181 77.0958 90.6792C77.1181 90.4806 77.1431 90.2958 77.1722 90.1153C77.1875 90.0222 77.2028 89.9278 77.2208 89.8347C77.3986 88.8583 77.6917 87.8875 78.0931 86.95C78.1375 86.8472 78.2333 86.775 78.3445 86.7625C78.4556 86.75 78.5653 86.7972 78.632 86.8875L82.3861 92.0056C82.4514 92.0945 82.4653 92.2111 82.4208 92.3125C82.0389 93.207 81.7583 94.1333 81.5889 95.0639C81.5722 95.1528 81.5569 95.2431 81.5431 95.332C81.5153 95.5042 81.4917 95.6792 81.4708 95.8667C81.4667 95.9 81.4639 95.9347 81.4611 95.9681L81.4542 96.0417C81.4431 96.1597 81.4306 96.2792 81.4222 96.3958C81.4194 96.4417 81.4167 96.4875 81.4153 96.5347L81.4125 96.6028C81.4069 96.7083 81.4014 96.8139 81.4 96.9195C81.3986 96.975 81.3986 97.0292 81.3986 97.0847V97.1361C81.3986 97.2361 81.3986 97.3361 81.4014 97.4361C81.4028 97.5097 81.407 97.582 81.4097 97.6542C81.4139 97.7514 81.4195 97.8486 81.4264 97.9445C81.432 98.0167 81.4375 98.0889 81.4445 98.1611C81.4528 98.257 81.4639 98.3514 81.475 98.4458C81.4833 98.5167 81.4917 98.5889 81.5014 98.6597C81.5139 98.7542 81.5292 98.8472 81.5445 98.9403L81.5486 98.9639C81.5583 99.025 81.5695 99.0861 81.5806 99.1472C81.6042 99.2695 81.6292 99.3903 81.6556 99.5111L81.6722 99.5889C81.7056 99.7306 81.7444 99.8778 81.7861 100.028L81.8208 100.146C81.8528 100.254 81.8861 100.361 81.9208 100.467C81.9361 100.513 81.9514 100.558 81.9681 100.604C81.9875 100.66 82.0083 100.714 82.0292 100.769L82.0472 100.818C82.0931 100.939 82.1403 101.058 82.1903 101.176C82.2153 101.238 82.2403 101.296 82.2667 101.354C82.3195 101.472 82.3778 101.597 82.4472 101.735L82.4764 101.794C82.4875 101.818 82.4986 101.842 82.5111 101.864C82.5931 102.021 82.6764 102.172 82.7583 102.314C82.7611 102.318 82.7653 102.326 82.7667 102.331C82.8472 102.467 82.9375 102.611 83.0403 102.767C83.132 102.904 83.2167 103.025 83.2972 103.138C83.3986 103.276 83.3695 103.472 83.2306 103.575C83.1792 103.621 83.1153 103.64 83.05 103.64ZM78.4639 87.7125C78.1861 88.4458 77.9764 89.1958 77.8389 89.9486C77.8222 90.0375 77.8069 90.1264 77.7931 90.2167C77.7653 90.3875 77.7417 90.5625 77.7208 90.7528C77.7167 90.7861 77.7139 90.8195 77.7111 90.8514L77.7042 90.9278C77.6931 91.0458 77.6806 91.1653 77.6722 91.282C77.6694 91.3278 77.6667 91.3736 77.6653 91.4195L77.6625 91.4875C77.6569 91.5931 77.6514 91.6986 77.65 91.8042C77.6486 91.8611 77.6486 91.9167 77.6486 91.9736V92.0208C77.6486 92.1208 77.6486 92.2208 77.6514 92.3208C77.6528 92.3945 77.657 92.4667 77.6597 92.5389C77.6639 92.6361 77.6695 92.7333 77.6764 92.8292C77.682 92.9014 77.6875 92.9736 77.6945 93.0458C77.7028 93.1417 77.7125 93.2361 77.725 93.3306C77.7333 93.4014 77.7417 93.4736 77.7528 93.5445C77.7653 93.6389 77.7806 93.732 77.7958 93.825L77.7986 93.8445C77.8097 93.907 77.8195 93.9708 77.832 94.0333L77.8458 94.1153C77.8639 94.2083 77.8847 94.3 77.9056 94.3917L77.9236 94.475C77.9569 94.6167 77.9958 94.7639 78.0375 94.9139L78.0722 95.032C78.1042 95.1403 78.1375 95.2458 78.1722 95.3528C78.1875 95.3986 78.2028 95.4445 78.2195 95.4903L78.2375 95.5417C78.2431 95.5597 78.25 95.5778 78.2556 95.5945C78.2611 95.6097 78.2681 95.625 78.2736 95.6417C78.282 95.6625 78.2903 95.6833 78.2986 95.7042C78.3445 95.8236 78.3917 95.9445 78.4417 96.0625C78.4695 96.1292 78.4931 96.1847 78.5181 96.2403C78.5708 96.3597 78.6306 96.4847 78.6986 96.6222C78.7083 96.6417 78.7167 96.6597 78.725 96.6792C78.732 96.6931 78.7389 96.7083 78.7458 96.7222L78.7611 96.75C78.8431 96.9083 78.9264 97.0597 79.0083 97.2C79.0097 97.2028 79.0153 97.2111 79.0167 97.2153C79.0972 97.3528 79.1889 97.4972 79.2917 97.6542L79.3056 97.6764C79.3833 97.7945 79.4653 97.9097 79.5486 98.0236L81.2167 100.299L81.2125 100.285C81.2042 100.257 81.1958 100.229 81.1875 100.201C81.1431 100.042 81.1014 99.8847 81.0667 99.7347L81.0486 99.6514C81.0194 99.5236 80.9931 99.3945 80.9694 99.2653C80.9569 99.2 80.9458 99.1347 80.9347 99.0695L80.9306 99.0458C80.9139 98.9472 80.8986 98.8472 80.8847 98.7472C80.875 98.6722 80.8653 98.5972 80.8556 98.5222C80.8431 98.4222 80.8333 98.3222 80.8236 98.2208C80.8167 98.1445 80.8097 98.0681 80.8056 97.9917C80.7986 97.8889 80.7931 97.7875 80.7889 97.6847C80.7861 97.6083 80.782 97.5306 80.7806 97.4542C80.7778 97.3486 80.7778 97.2431 80.7778 97.1375V97.0861C80.7778 97.0264 80.7778 96.9681 80.7792 96.9083C80.7819 96.7972 80.7875 96.6861 80.7931 96.575L80.7958 96.5097C80.7986 96.4583 80.8 96.4083 80.8042 96.357C80.8125 96.2333 80.825 96.1083 80.8375 95.9833L80.8431 95.9167C80.8458 95.8778 80.85 95.8389 80.8542 95.8C80.8764 95.6028 80.9014 95.4195 80.9306 95.2375C80.9458 95.1431 80.9611 95.05 80.9792 94.9556C81.1472 94.0361 81.4167 93.1222 81.782 92.2361L78.4639 87.7125Z" fill="#FFECE5"/>
<path d="M96.8999 57.5264L95.6194 65.5514C95.1513 65.5264 94.6763 65.5139 94.1972 65.5139C92.9166 65.5139 91.6444 65.6042 90.3874 65.7806L91.2458 77.8764C91.5708 77.8528 91.9027 77.8403 92.2305 77.8403C92.7124 77.8403 93.1847 77.8667 93.6458 77.9167L91.7361 89.8931H77.9319L78.3819 87.075C80.1208 83.007 83.8291 79.7514 88.1444 78.4528L87.2916 66.3889C85.2333 66.9097 83.2347 67.6542 81.3319 68.5917L83.0972 57.5278H96.8999V57.5264Z" fill="#FCD2C2"/>
<path d="M91.7388 90.2056H77.9346C77.843 90.2056 77.7569 90.1653 77.6971 90.0958C77.6374 90.0264 77.6124 89.9347 77.6263 89.8445L78.0763 87.0264C78.0805 87.0014 78.0874 86.9764 78.0971 86.9528C79.8207 82.9208 83.5305 79.5972 87.818 78.2278L87.0069 66.7847C85.1208 67.2889 83.2596 67.9889 81.4708 68.8708C81.3666 68.9222 81.2416 68.9111 81.1471 68.8417C81.0527 68.7722 81.0055 68.657 81.0235 68.5417L82.7888 57.4778C82.8124 57.3264 82.9444 57.2139 83.0971 57.2139H96.9013C96.993 57.2139 97.0791 57.2542 97.1388 57.3236C97.1985 57.3931 97.2235 57.4847 97.2096 57.575L95.9291 65.6C95.9041 65.7583 95.761 65.8708 95.6041 65.8625C93.9999 65.7764 92.3499 65.8403 90.7221 66.05L91.5374 77.5445C92.2541 77.5083 92.9846 77.5292 93.6819 77.6056C93.7666 77.6153 93.8444 77.6583 93.8957 77.7264C93.9471 77.7945 93.9694 77.8806 93.9555 77.9653L92.0457 89.9417C92.0221 90.0945 91.8916 90.2056 91.7388 90.2056ZM78.3013 89.5806H91.4721L93.2874 78.1958C92.6249 78.1417 91.9346 78.1389 91.2708 78.1875C91.1888 78.1931 91.1069 78.1667 91.043 78.1125C90.9805 78.0583 90.9416 77.9806 90.936 77.8986L90.0777 65.8028C90.0666 65.6389 90.1832 65.4945 90.3457 65.4708C92.011 65.2375 93.6985 65.1556 95.3555 65.2264L96.5332 57.8389H83.3624L81.7332 68.05C83.5096 67.2167 85.3499 66.557 87.2138 66.0847C87.3041 66.0625 87.3985 66.0806 87.4735 66.1347C87.5485 66.1889 87.5957 66.2736 87.6027 66.3653L88.4583 78.4306C88.468 78.5764 88.3763 78.7097 88.236 78.7514C84.0319 80.0167 80.3763 83.2375 78.686 87.1625L78.3013 89.5806Z" fill="#FFECE5"/>
<path d="M50.3235 89.8931H36.5193L40.2735 95.0111H54.0762H67.8818L64.129 89.8931H50.3235Z" fill="#FA9874"/>
<path d="M67.8818 95.3236H40.2734C40.1734 95.3236 40.0804 95.2764 40.0221 95.1958L36.2679 90.0778C36.1984 89.9833 36.1873 89.857 36.2415 89.7514C36.2943 89.6458 36.4026 89.5806 36.5207 89.5806H64.1304C64.2304 89.5806 64.3234 89.6278 64.3818 89.7084L68.1359 94.8264C68.2054 94.9208 68.2165 95.0472 68.1623 95.1528C68.1082 95.257 67.9998 95.3236 67.8818 95.3236ZM40.4318 94.6986H67.2665L63.9707 90.2056H37.1359L40.4318 94.6986Z" fill="#FFECE5"/>
<path d="M91.7387 89.8931H77.9346L81.6887 95.0111H95.4915L91.7387 89.8931Z" fill="#FA9874"/>
<path d="M95.4914 95.3236H81.6873C81.5873 95.3236 81.4942 95.2764 81.4359 95.1958L77.6817 90.0778C77.6123 89.9833 77.6012 89.857 77.6553 89.7514C77.7081 89.6458 77.8164 89.5806 77.9345 89.5806H91.7387C91.8387 89.5806 91.9317 89.6278 91.99 89.7084L95.7442 94.8264C95.8136 94.9208 95.8248 95.0472 95.7706 95.1528C95.7178 95.257 95.6095 95.3236 95.4914 95.3236ZM81.847 94.6986H94.8761L91.5803 90.2056H78.5512L81.847 94.6986Z" fill="#FFECE5"/>
<path d="M113.007 75.2625C113.122 75.4445 113.233 75.6292 113.342 75.8167C113.372 75.8695 113.401 75.9222 113.432 75.9764C113.51 76.1125 113.586 76.2486 113.66 76.3861C113.696 76.4542 113.732 76.5208 113.768 76.5889C113.832 76.7111 113.894 76.8333 113.957 76.957C113.999 77.0417 114.04 77.125 114.082 77.2097C114.14 77.3306 114.197 77.4528 114.253 77.575C114.29 77.6583 114.329 77.7417 114.367 77.825C114.424 77.9542 114.478 78.0847 114.532 78.2153C114.565 78.2945 114.599 78.3722 114.631 78.4514C114.692 78.6028 114.75 78.757 114.807 78.9097C114.829 78.9695 114.853 79.0278 114.874 79.0861C114.899 79.1542 114.921 79.2236 114.944 79.2917C115.004 79.4611 115.062 79.6306 115.118 79.8028C115.147 79.8945 115.174 79.9861 115.203 80.0792C115.249 80.2292 115.294 80.3792 115.337 80.5306C115.365 80.632 115.392 80.7333 115.419 80.8347C115.458 80.9792 115.496 81.125 115.531 81.2708C115.556 81.3764 115.581 81.4833 115.604 81.5903C115.636 81.7347 115.668 81.8792 115.697 82.0236C115.722 82.1486 115.747 82.275 115.771 82.4C115.789 82.4945 115.806 82.5889 115.822 82.6847C115.846 82.8264 115.868 82.9681 115.889 83.1097C115.903 83.2 115.917 83.2917 115.929 83.382C115.95 83.5389 115.969 83.6972 115.987 83.8556C115.996 83.9333 116.007 84.0097 116.015 84.0875C116.04 84.3236 116.061 84.5611 116.078 84.8L119.832 89.9181C119.815 89.6792 119.793 89.4417 119.769 89.2056C119.761 89.1278 119.751 89.0514 119.743 88.975C119.725 88.8167 119.706 88.6583 119.685 88.5C119.672 88.4097 119.658 88.3195 119.644 88.2292C119.624 88.0861 119.601 87.9445 119.576 87.8028C119.56 87.7083 119.543 87.6139 119.525 87.5181C119.511 87.4417 119.499 87.3639 119.483 87.2875C119.474 87.2389 119.461 87.1903 119.451 87.1417C119.422 86.9958 119.39 86.8514 119.358 86.7083C119.335 86.6014 119.311 86.4958 119.285 86.3889C119.25 86.2431 119.211 86.0972 119.174 85.9528C119.147 85.8514 119.121 85.75 119.092 85.6486C119.049 85.4972 119.003 85.3472 118.958 85.1986C118.931 85.1056 118.903 85.0125 118.874 84.9208C118.818 84.75 118.76 84.5806 118.7 84.4111C118.679 84.35 118.66 84.2875 118.637 84.2278C118.635 84.2195 118.632 84.2125 118.629 84.2056C118.608 84.1458 118.585 84.0889 118.563 84.0292C118.506 83.875 118.447 83.7222 118.386 83.5695C118.354 83.4903 118.321 83.4139 118.289 83.3347C118.235 83.2042 118.179 83.0736 118.122 82.9431C118.085 82.8597 118.047 82.7764 118.008 82.6931C117.953 82.5708 117.896 82.4486 117.837 82.3278C117.797 82.2431 117.754 82.1583 117.713 82.075C117.682 82.0139 117.653 81.9528 117.622 81.8917C117.59 81.8292 117.556 81.7681 117.524 81.7056C117.487 81.6375 117.453 81.5695 117.415 81.5028C117.34 81.3653 117.264 81.2292 117.187 81.0931C117.157 81.0403 117.128 80.9861 117.097 80.9333C116.989 80.7472 116.876 80.5625 116.762 80.3792C116.744 80.35 116.725 80.3222 116.707 80.2931C116.626 80.1667 116.546 80.0403 116.463 79.9153C116.449 79.8958 116.435 79.8764 116.421 79.857C116.272 79.6361 116.121 79.4195 115.964 79.2042L112.21 74.0861C112.367 74.3 112.518 74.5181 112.667 74.7375C112.764 74.882 112.858 75.0264 112.953 75.1736C112.969 75.2042 112.989 75.2333 113.007 75.2625Z" fill="#FCB59A"/>
<path d="M119.832 90.2292C119.735 90.2292 119.64 90.1833 119.581 90.1014L115.826 84.9833C115.792 84.9361 115.771 84.8792 115.767 84.8208C115.75 84.5945 115.731 84.3653 115.704 84.1181C115.7 84.0722 115.694 84.0264 115.689 83.982L115.678 83.8903C115.66 83.7347 115.642 83.5778 115.621 83.4236C115.613 83.3611 115.603 83.2986 115.593 83.2375L115.581 83.1556C115.56 83.0153 115.538 82.875 115.514 82.7361C115.497 82.6431 115.481 82.55 115.464 82.4556C115.44 82.3306 115.417 82.207 115.392 82.0847C115.363 81.9417 115.332 81.8 115.3 81.657L115.296 81.6375C115.274 81.5389 115.251 81.4417 115.228 81.3431C115.193 81.1986 115.156 81.0556 115.118 80.9139L115.097 80.832C115.078 80.7597 115.058 80.6861 115.039 80.6139C114.997 80.4639 114.951 80.3167 114.907 80.1695L114.878 80.0722C114.86 80.0139 114.843 79.9556 114.824 79.8972C114.769 79.7278 114.711 79.5611 114.653 79.3945L114.622 79.3056C114.61 79.2681 114.597 79.2306 114.583 79.1931C114.571 79.1597 114.56 79.1278 114.547 79.0958L114.518 79.0181C114.461 78.8667 114.404 78.7153 114.344 78.5667C114.324 78.5153 114.303 78.4653 114.281 78.4139L114.247 78.3347C114.194 78.207 114.14 78.0778 114.083 77.9514C114.054 77.8861 114.024 77.8208 113.994 77.7556L113.972 77.7056C113.917 77.5847 113.861 77.4653 113.804 77.3458C113.764 77.2625 113.722 77.1792 113.681 77.0958C113.619 76.975 113.558 76.8528 113.494 76.7333C113.46 76.6667 113.424 76.6 113.389 76.5333C113.315 76.3972 113.24 76.2639 113.164 76.1306L113.126 76.0625C113.11 76.0333 113.093 76.0028 113.075 75.9736C112.961 75.7778 112.853 75.6 112.746 75.4292L112.692 75.3445C112.6 75.2 112.506 75.057 112.41 74.9139C112.25 74.6764 112.103 74.4667 111.96 74.2722C111.858 74.1333 111.888 73.9375 112.026 73.8361C112.165 73.7347 112.361 73.7639 112.464 73.9028L112.465 73.9042L116.218 79.0195C116.365 79.2195 116.517 79.4361 116.682 79.682L116.696 79.7028C116.706 79.7167 116.715 79.7292 116.724 79.7431C116.807 79.8681 116.89 79.9972 116.971 80.125L117.028 80.2139C117.14 80.3931 117.251 80.5764 117.368 80.7764C117.388 80.8097 117.407 80.8445 117.426 80.8792L117.46 80.9375C117.539 81.075 117.615 81.2139 117.692 81.3528C117.729 81.4208 117.765 81.4903 117.801 81.5597L117.84 81.632C117.861 81.6708 117.882 81.7097 117.903 81.7486C117.922 81.7861 117.94 81.8236 117.958 81.8611L117.994 81.9347C118.038 82.0195 118.079 82.1056 118.121 82.1917C118.181 82.3153 118.238 82.4389 118.294 82.5625L118.317 82.6097C118.349 82.6778 118.379 82.7472 118.41 82.8153C118.468 82.9472 118.524 83.0792 118.579 83.2125L118.613 83.2917C118.635 83.3445 118.657 83.3972 118.679 83.4514C118.742 83.6056 118.8 83.7625 118.858 83.9181L118.885 83.9875C118.899 84.0236 118.913 84.0597 118.926 84.0958L118.935 84.1195C118.947 84.1556 118.96 84.1917 118.972 84.2292C118.981 84.2542 118.989 84.2806 118.999 84.3056C119.058 84.4778 119.118 84.6486 119.175 84.8222C119.194 84.8847 119.214 84.9472 119.233 85.0097L119.261 85.1028C119.307 85.2542 119.354 85.407 119.397 85.5597C119.418 85.6347 119.439 85.7111 119.458 85.7875L119.479 85.8681C119.518 86.0153 119.557 86.1625 119.593 86.3111C119.618 86.4125 119.64 86.5139 119.663 86.6153L119.667 86.6347C119.7 86.7806 119.732 86.9278 119.761 87.075L119.775 87.1375C119.782 87.1667 119.788 87.1945 119.793 87.2236C119.803 87.2708 119.811 87.3181 119.818 87.3653L119.838 87.475C119.854 87.5653 119.871 87.6556 119.886 87.7472C119.911 87.8903 119.933 88.0347 119.954 88.1806L119.967 88.2611C119.976 88.325 119.986 88.3903 119.996 88.4556C120.018 88.6153 120.036 88.7764 120.056 88.9375L120.065 89.0236C120.071 89.0722 120.078 89.1222 120.082 89.1708C120.108 89.4264 120.129 89.6625 120.146 89.8945C120.156 90.0333 120.072 90.1625 119.942 90.2097C119.904 90.2222 119.868 90.2292 119.832 90.2292ZM116.383 84.6861L119.408 88.8111C119.397 88.7208 119.386 88.6306 119.374 88.5403C119.365 88.4792 119.356 88.4167 119.346 88.3556L119.333 88.2722C119.313 88.132 119.29 87.9917 119.267 87.8528C119.251 87.7639 119.236 87.6764 119.219 87.5889L119.199 87.4736C119.192 87.4306 119.183 87.3875 119.175 87.3458C119.171 87.3222 119.165 87.3 119.16 87.2764C119.154 87.2514 119.149 87.2264 119.143 87.2014C119.114 87.0583 119.083 86.9167 119.051 86.7736L119.047 86.7542C119.025 86.6556 119.003 86.5583 118.979 86.4597C118.944 86.3153 118.907 86.1722 118.869 86.0306L118.849 85.9486C118.829 85.8764 118.81 85.8028 118.79 85.7306C118.749 85.582 118.703 85.4347 118.658 85.2875L118.629 85.1903C118.611 85.132 118.594 85.0722 118.575 85.0139C118.521 84.8445 118.463 84.6778 118.404 84.5125C118.394 84.4833 118.385 84.4542 118.375 84.425C118.364 84.3931 118.354 84.3625 118.343 84.3306L118.335 84.307C118.324 84.275 118.311 84.2431 118.299 84.2111L118.269 84.1347C118.213 83.9833 118.156 83.832 118.096 83.682C118.075 83.632 118.054 83.582 118.033 83.532L117.999 83.45C117.944 83.3208 117.892 83.1931 117.835 83.0653C117.806 82.9986 117.775 82.9333 117.744 82.8681L117.722 82.8195C117.667 82.6986 117.611 82.5792 117.554 82.4597C117.514 82.3764 117.472 82.2931 117.432 82.2111L117.393 82.132C117.376 82.0986 117.361 82.0653 117.343 82.032C117.325 81.9958 117.306 81.9611 117.288 81.9264L117.247 81.85C117.213 81.7833 117.176 81.7167 117.142 81.65C117.068 81.5139 116.993 81.3806 116.917 81.2472L116.882 81.1847C116.864 81.1528 116.846 81.1222 116.828 81.0903C116.714 80.8958 116.607 80.7181 116.497 80.5445L116.442 80.4597C116.363 80.3347 116.283 80.2111 116.201 80.0889L116.161 80.0306C116 79.7917 115.853 79.582 115.711 79.3889L114.903 78.2875C114.908 78.3028 114.915 78.3167 114.921 78.332C114.983 78.4861 115.042 78.6417 115.1 78.7972L115.126 78.8681C115.14 78.9042 115.154 78.9403 115.168 78.9764C115.183 79.0181 115.197 79.0597 115.211 79.1028L115.239 79.1847C115.3 79.357 115.36 79.5292 115.415 79.7028C115.435 79.7653 115.454 79.8278 115.472 79.8889L115.5 79.982C115.547 80.1333 115.593 80.2861 115.636 80.4403C115.657 80.5153 115.678 80.5917 115.697 80.6695L115.718 80.75C115.757 80.8972 115.796 81.0445 115.832 81.1931C115.857 81.2945 115.879 81.3958 115.901 81.4972L115.906 81.5167C115.939 81.6625 115.971 81.8097 116 81.957C116.026 82.0847 116.05 82.2111 116.074 82.3389C116.092 82.4347 116.108 82.5306 116.125 82.6264C116.15 82.7695 116.172 82.9139 116.193 83.0583L116.206 83.1389C116.215 83.2042 116.225 83.2695 116.235 83.3347C116.257 83.4945 116.275 83.6542 116.293 83.8153L116.303 83.9028C116.308 83.9514 116.315 84.0014 116.319 84.05C116.349 84.2736 116.368 84.482 116.383 84.6861Z" fill="#FFECE5"/>
<path d="M116.078 84.7986L119.832 89.9167L106.935 92.807L103.182 87.6889L116.078 84.7986Z" fill="#FCB59A"/>
<path d="M106.935 93.1195C106.836 93.1195 106.743 93.0736 106.683 92.9917L102.929 87.8736C102.867 87.7889 102.851 87.6778 102.889 87.5792C102.926 87.4806 103.01 87.407 103.112 87.3833L116.008 84.4931C116.131 84.4653 116.256 84.5125 116.329 84.6125L120.083 89.7306C120.146 89.8153 120.161 89.9264 120.124 90.025C120.086 90.1236 120.003 90.1972 119.9 90.2208L107.004 93.1111C106.981 93.1167 106.958 93.1195 106.935 93.1195ZM103.717 87.8889L107.067 92.457L119.297 89.7153L115.947 85.1472L103.717 87.8889Z" fill="#FFECE5"/>
<path d="M85.1986 102.117L88.9527 107.235L83.7874 119.157L80.0347 114.039L85.1986 102.117Z" fill="#FCB59A"/>
<path d="M83.7875 119.469C83.6889 119.469 83.5945 119.422 83.5361 119.342L79.782 114.224C79.7167 114.135 79.7028 114.017 79.7472 113.914L84.9111 101.992C84.9556 101.889 85.0514 101.818 85.1625 101.806C85.2736 101.793 85.3833 101.842 85.45 101.932L89.2042 107.05C89.2695 107.139 89.2833 107.257 89.2389 107.36L84.075 119.282C84.0306 119.385 83.9347 119.456 83.8236 119.468C83.8111 119.468 83.8 119.469 83.7875 119.469ZM80.3917 113.999L83.7167 118.533L88.5931 107.275L85.2681 102.74L80.3917 113.999Z" fill="#FFECE5"/>
<path d="M72.0779 111.367L68.3237 106.249C71.071 109.994 75.1223 112.76 80.0335 114.039L83.7876 119.157C78.8779 117.878 74.8265 115.113 72.0779 111.367Z" fill="#FA9874"/>
<path d="M83.7875 119.469C83.7611 119.469 83.7347 119.467 83.7083 119.46C78.7903 118.179 74.6806 115.444 71.825 111.551L68.0708 106.433C67.9694 106.294 67.9986 106.099 68.1375 105.996C68.2764 105.893 68.4722 105.924 68.575 106.063C71.3444 109.838 75.3333 112.492 80.1111 113.735C80.1806 113.753 80.2417 113.794 80.2847 113.853L84.0389 118.971C84.1167 119.078 84.1194 119.222 84.0458 119.331C83.9875 119.419 83.8903 119.469 83.7875 119.469ZM71.5417 110.107L72.3292 111.182C74.9292 114.726 78.6042 117.282 82.9986 118.611L79.8458 114.314C76.7069 113.479 73.9 112.051 71.5417 110.107Z" fill="#FFECE5"/>
<mask id="mask0_8802_26667" style="mask-type:luminance" maskUnits="userSpaceOnUse" x="68" y="106" width="16" height="14">
<mask id="mask1_8802_26667" style="mask-type:luminance" maskUnits="userSpaceOnUse" x="68" y="106" width="16" height="14">
<path d="M72.0779 111.367L68.3237 106.249C71.071 109.994 75.1223 112.76 80.0335 114.039L83.7876 119.157C78.8779 117.878 74.8265 115.113 72.0779 111.367Z" fill="white"/>
</mask>
<g mask="url(#mask1_8802_26667)">
<path d="M83.7877 119.469C83.7614 119.469 83.735 119.467 83.7086 119.46C78.7905 118.179 74.6808 115.444 71.8252 111.551L68.0711 106.433C67.9697 106.294 67.9989 106.099 68.1377 105.996C68.2766 105.893 68.4725 105.924 68.5752 106.063C71.3447 109.838 75.3336 112.492 80.1114 113.735C80.1808 113.753 80.2419 113.794 80.285 113.853L84.0391 118.971C84.1169 119.078 84.1197 119.222 84.0461 119.331C83.9877 119.419 83.8905 119.469 83.7877 119.469ZM71.5419 110.107L72.3294 111.182C74.9294 114.726 78.6044 117.282 82.9989 118.611L79.8461 114.314C76.7072 113.479 73.9002 112.051 71.5419 110.107Z" fill="white"/>
</g>
</mask>
<g mask="url(#mask0_8802_26667)">
<path d="M80.0349 114.039L83.7891 119.157C78.878 117.879 74.8266 115.113 72.0794 111.367L68.3252 106.249C71.0724 109.994 75.1238 112.76 80.0349 114.039Z" fill="#FA9874"/>
<path d="M83.7877 119.469C83.7614 119.469 83.735 119.467 83.7086 119.46C78.7905 118.179 74.6808 115.444 71.8252 111.551L68.0711 106.433C67.9697 106.294 67.9989 106.099 68.1377 105.996C68.2766 105.893 68.4725 105.924 68.5752 106.063C71.3447 109.838 75.3336 112.492 80.1114 113.735C80.1808 113.753 80.2419 113.794 80.285 113.853L84.0391 118.971C84.1169 119.078 84.1197 119.222 84.0461 119.331C83.9877 119.419 83.8905 119.469 83.7877 119.469ZM71.5419 110.107L72.3294 111.182C74.9294 114.726 78.6044 117.282 82.9989 118.611L79.8461 114.314C76.7072 113.479 73.9002 112.051 71.5419 110.107Z" fill="#FFECE5"/>
</g>
<path d="M116.092 87.7305C116.047 88.5333 115.961 89.3444 115.829 90.168C113.658 103.782 100.449 114.821 86.3348 114.821C85.1778 114.821 84.0528 114.747 82.9612 114.604L88.2084 102.496H88.3001C95.182 102.496 101.632 97.2472 102.957 90.6736L116.092 87.7305Z" fill="#FCD2C2"/>
<path d="M86.3347 115.133C85.1736 115.133 84.025 115.06 82.9194 114.914C82.8222 114.901 82.7361 114.843 82.6889 114.758C82.6403 114.674 82.6347 114.569 82.6736 114.481L87.9208 102.372C87.9708 102.258 88.0833 102.183 88.2069 102.183H88.2986C95.0375 102.183 101.342 97.1014 102.649 90.6125C102.674 90.4917 102.767 90.3958 102.886 90.3694L116.021 87.4264C116.117 87.4056 116.217 87.4292 116.292 87.4931C116.367 87.5569 116.407 87.6514 116.401 87.7486C116.357 88.5639 116.268 89.3944 116.136 90.2181C113.947 103.956 100.578 115.133 86.3347 115.133ZM83.4139 114.344C84.3639 114.453 85.3444 114.508 86.3347 114.508C100.283 114.508 113.376 103.567 115.521 90.1181C115.626 89.4542 115.704 88.7861 115.753 88.125L103.222 90.9333C101.778 97.5708 95.3278 102.75 88.4139 102.806L83.4139 114.344Z" fill="#FFECE5"/>
<path d="M117.951 101.069C118.029 100.879 118.104 100.689 118.178 100.497C118.2 100.439 118.222 100.382 118.244 100.324C118.336 100.081 118.424 99.8347 118.508 99.5889C118.526 99.5347 118.544 99.4792 118.562 99.4236C118.629 99.2264 118.693 99.0278 118.754 98.8292C118.778 98.7542 118.8 98.6792 118.822 98.6042C118.886 98.3917 118.947 98.1778 119.006 97.9639C119.017 97.9236 119.029 97.882 119.04 97.8417C119.107 97.5889 119.171 97.3361 119.231 97.0806C119.246 97.0125 119.261 96.9458 119.276 96.8778C119.321 96.682 119.362 96.4847 119.403 96.2875C119.418 96.2125 119.433 96.1389 119.447 96.0639C119.497 95.8056 119.544 95.5458 119.585 95.2861C119.717 94.4625 119.803 93.65 119.846 92.8486L116.092 87.7306C116.047 88.5333 115.961 89.3445 115.831 90.1681C115.789 90.4292 115.742 90.6875 115.693 90.9458C115.679 91.0208 115.664 91.0945 115.649 91.1695C115.608 91.3667 115.567 91.5639 115.522 91.7597C115.507 91.8278 115.492 91.8945 115.476 91.9625C115.417 92.2167 115.354 92.4708 115.286 92.7236C115.275 92.7639 115.264 92.8042 115.253 92.8458C115.194 93.0597 115.133 93.2736 115.069 93.4861C115.047 93.5611 115.024 93.6361 115.001 93.7111C114.94 93.9097 114.876 94.1083 114.81 94.3056C114.792 94.3611 114.774 94.4153 114.756 94.4708C114.671 94.7167 114.583 94.9625 114.492 95.2056C114.469 95.2639 114.447 95.3208 114.425 95.3792C114.351 95.5708 114.276 95.7611 114.199 95.9514C114.169 96.0236 114.139 96.0958 114.11 96.1681C114.021 96.3792 113.931 96.5903 113.836 96.8C113.822 96.8306 113.81 96.8611 113.796 96.8917C113.687 97.132 113.574 97.3708 113.458 97.6083C113.426 97.6722 113.394 97.7375 113.362 97.8014C113.271 97.9847 113.178 98.1667 113.083 98.3486C113.05 98.4125 113.018 98.475 112.983 98.5389C112.86 98.7722 112.732 99.0028 112.601 99.2319C112.583 99.2625 112.565 99.2931 112.549 99.3236C112.433 99.525 112.315 99.725 112.194 99.9236C112.149 99.9986 112.103 100.074 112.057 100.147C111.986 100.263 111.914 100.376 111.84 100.492C111.789 100.572 111.737 100.651 111.686 100.732C111.611 100.847 111.535 100.963 111.457 101.076C111.406 101.153 111.354 101.229 111.303 101.306C111.221 101.425 111.136 101.544 111.053 101.664C111.004 101.733 110.956 101.801 110.907 101.871C110.804 102.013 110.701 102.153 110.596 102.293C110.564 102.335 110.533 102.378 110.501 102.421C110.24 102.768 109.971 103.11 109.693 103.446C109.69 103.449 109.689 103.451 109.686 103.454C109.407 103.793 109.121 104.125 108.828 104.451C108.821 104.458 108.815 104.465 108.808 104.472C108.535 104.776 108.256 105.075 107.969 105.369C107.965 105.374 107.961 105.379 107.956 105.383C107.674 105.674 107.385 105.958 107.09 106.238C107.075 106.251 107.061 106.267 107.046 106.281C106.767 106.546 106.481 106.806 106.192 107.06C106.165 107.083 106.139 107.107 106.111 107.131C105.829 107.378 105.542 107.619 105.25 107.857C105.215 107.886 105.179 107.915 105.144 107.943C104.851 108.181 104.553 108.411 104.251 108.638C104.211 108.667 104.172 108.697 104.132 108.726C103.832 108.95 103.528 109.168 103.219 109.381C103.178 109.41 103.135 109.439 103.093 109.468C102.767 109.692 102.435 109.908 102.1 110.121C102.06 110.146 102.021 110.172 101.981 110.197C101.642 110.408 101.299 110.614 100.953 110.813C100.906 110.839 100.86 110.867 100.812 110.893C100.678 110.969 100.542 111.044 100.407 111.118C100.337 111.156 100.269 111.194 100.2 111.232C100.01 111.333 99.8194 111.435 99.6278 111.532C99.6125 111.54 99.5972 111.549 99.5819 111.557C99.375 111.663 99.1653 111.765 98.9555 111.867C98.8903 111.899 98.8236 111.928 98.7583 111.96C98.6139 112.028 98.468 112.097 98.3222 112.163C98.2583 112.192 98.1931 112.219 98.1278 112.249C97.9375 112.333 97.7472 112.417 97.5542 112.497C97.4833 112.528 97.4125 112.557 97.3417 112.586C97.0958 112.688 96.85 112.788 96.6028 112.882C96.6 112.883 96.5972 112.885 96.5944 112.885C96.3444 112.981 96.0917 113.072 95.8389 113.161C95.7667 113.186 95.6944 113.211 95.6236 113.236C95.4278 113.304 95.2305 113.369 95.0319 113.433C94.9694 113.453 94.9069 113.474 94.843 113.494C94.5444 113.589 94.243 113.678 93.9403 113.763C93.8778 113.781 93.8167 113.797 93.7542 113.814C93.4444 113.899 93.1333 113.979 92.8208 114.054C92.8014 114.058 92.7819 114.063 92.7639 114.067C92.4611 114.138 92.1583 114.203 91.8542 114.265C91.7986 114.276 91.7417 114.289 91.6861 114.3C91.3778 114.36 91.0681 114.415 90.7583 114.465C90.6958 114.475 90.6347 114.485 90.5722 114.494C90.2528 114.544 89.9319 114.59 89.6097 114.628C89.5986 114.629 89.5875 114.631 89.5764 114.632C89.2611 114.669 88.9458 114.7 88.6292 114.726C88.5694 114.732 88.5097 114.738 88.4486 114.742C88.1347 114.767 87.8194 114.785 87.5042 114.799C87.4431 114.801 87.3806 114.803 87.3181 114.806C86.9903 114.818 86.6625 114.825 86.3333 114.825C85.1764 114.825 84.0514 114.751 82.9597 114.608L86.7153 119.722C87.8069 119.867 88.9319 119.939 90.0889 119.939C90.4181 119.939 90.7458 119.931 91.0736 119.919C91.1361 119.917 91.1972 119.915 91.2597 119.913C91.575 119.899 91.8903 119.881 92.2042 119.856C92.2639 119.851 92.3236 119.846 92.3847 119.84C92.7014 119.814 93.0167 119.783 93.3319 119.746C93.343 119.744 93.3542 119.743 93.3653 119.742C93.6875 119.703 94.0069 119.657 94.3264 119.608C94.3889 119.599 94.4514 119.589 94.5139 119.579C94.8236 119.529 95.1333 119.474 95.4403 119.414C95.4972 119.403 95.5542 119.39 95.6097 119.379C95.9139 119.318 96.2167 119.253 96.518 119.182C96.5375 119.178 96.5583 119.174 96.5778 119.168C96.8903 119.094 97.2 119.013 97.5097 118.928C97.5722 118.911 97.6347 118.894 97.6958 118.876C97.9972 118.792 98.2986 118.703 98.5972 118.608C98.6153 118.603 98.6347 118.597 98.6528 118.592C98.6972 118.578 98.7417 118.561 98.7875 118.547C98.9847 118.483 99.1806 118.418 99.3764 118.351C99.4486 118.326 99.5208 118.301 99.5931 118.276C99.8458 118.188 100.097 118.096 100.349 118C100.353 117.999 100.357 117.997 100.361 117.996C100.608 117.901 100.853 117.803 101.097 117.701C101.168 117.672 101.24 117.642 101.311 117.611C101.503 117.531 101.692 117.447 101.882 117.364C101.925 117.344 101.968 117.328 102.011 117.308C102.033 117.299 102.056 117.288 102.078 117.276C102.222 117.211 102.367 117.143 102.51 117.075C102.576 117.043 102.644 117.013 102.711 116.981C102.921 116.879 103.129 116.776 103.337 116.671C103.353 116.663 103.368 116.654 103.383 116.647C103.575 116.549 103.767 116.449 103.956 116.347C104.025 116.31 104.093 116.272 104.161 116.233C104.297 116.16 104.432 116.085 104.567 116.008C104.59 115.994 104.614 115.983 104.636 115.969C104.66 115.956 104.682 115.942 104.706 115.928C105.051 115.729 105.394 115.525 105.733 115.314C105.774 115.289 105.814 115.263 105.854 115.238C106.189 115.026 106.519 114.81 106.846 114.586C106.864 114.574 106.882 114.563 106.9 114.551C106.925 114.535 106.949 114.515 106.974 114.499C107.282 114.286 107.586 114.068 107.886 113.846C107.926 113.817 107.965 113.786 108.004 113.757C108.306 113.531 108.604 113.299 108.897 113.063C108.91 113.053 108.924 113.042 108.937 113.032C108.96 113.014 108.981 112.994 109.004 112.976C109.296 112.739 109.583 112.497 109.865 112.25C109.892 112.226 109.918 112.203 109.944 112.179C110.233 111.924 110.519 111.665 110.799 111.4C110.803 111.396 110.807 111.392 110.812 111.388C110.824 111.378 110.833 111.367 110.844 111.357C111.137 111.078 111.426 110.793 111.71 110.503C111.714 110.499 111.718 110.493 111.724 110.489C112.01 110.196 112.289 109.896 112.562 109.593C112.567 109.588 112.572 109.583 112.576 109.578C112.578 109.576 112.579 109.574 112.581 109.572C112.874 109.246 113.16 108.913 113.439 108.575C113.442 108.572 113.443 108.569 113.446 108.567C113.722 108.231 113.992 107.889 114.254 107.542C114.257 107.539 114.26 107.536 114.261 107.532C114.29 107.493 114.318 107.454 114.347 107.415C114.451 107.275 114.557 107.133 114.658 106.992C114.707 106.924 114.754 106.856 114.803 106.788C114.887 106.668 114.972 106.549 115.054 106.428C115.106 106.353 115.157 106.276 115.208 106.2C115.285 106.085 115.362 105.971 115.437 105.854C115.49 105.775 115.542 105.694 115.592 105.614C115.664 105.5 115.736 105.386 115.807 105.271C115.835 105.226 115.862 105.183 115.889 105.14C115.908 105.11 115.925 105.078 115.944 105.047C116.065 104.849 116.183 104.649 116.299 104.447C116.317 104.417 116.335 104.386 116.351 104.356C116.482 104.126 116.608 103.894 116.733 103.663C116.767 103.6 116.8 103.536 116.833 103.472C116.929 103.29 117.022 103.108 117.112 102.925C117.144 102.861 117.176 102.797 117.208 102.732C117.324 102.494 117.437 102.256 117.546 102.015C117.549 102.01 117.551 102.004 117.554 101.999C117.565 101.974 117.575 101.949 117.586 101.924C117.681 101.714 117.771 101.503 117.86 101.292C117.893 101.214 117.922 101.142 117.951 101.069Z" fill="#FA9874"/>
<path d="M90.0888 120.251C88.9277 120.251 87.7791 120.178 86.6735 120.032C86.5888 120.021 86.5124 119.975 86.4624 119.907L82.7082 114.789C82.6346 114.687 82.6277 114.553 82.6916 114.444C82.7554 114.336 82.8763 114.278 83.0013 114.294C84.0804 114.437 85.2013 114.508 86.3346 114.508C86.6277 114.508 86.936 114.503 87.3082 114.489L87.4916 114.482C87.8027 114.468 88.1179 114.45 88.4249 114.426L88.6027 114.411C88.9457 114.382 89.2527 114.351 89.5402 114.318C89.5416 114.318 89.5541 114.317 89.5554 114.317L89.5721 114.315C89.8582 114.281 90.1693 114.237 90.5235 114.183L90.7082 114.154C91.0166 114.104 91.3263 114.049 91.6263 113.99L91.7929 113.957C92.1166 113.892 92.411 113.828 92.6929 113.761L92.7499 113.749C93.0332 113.681 93.3346 113.604 93.6721 113.511L93.8554 113.461C94.1624 113.375 94.4624 113.286 94.7485 113.196L94.9346 113.136C95.1305 113.074 95.3249 113.008 95.5193 112.942L95.536 112.936C95.6027 112.914 95.668 112.89 95.7332 112.868C96.0193 112.767 96.2568 112.679 96.4818 112.594C96.7096 112.507 96.9485 112.411 97.2221 112.299C97.286 112.272 97.3513 112.244 97.4152 112.218L97.4318 112.211C97.6221 112.131 97.811 112.049 97.9999 111.965L98.1916 111.879C98.336 111.814 98.4805 111.746 98.6235 111.678L98.7068 111.639C98.7443 111.621 98.7818 111.604 98.8193 111.586C99.0277 111.486 99.2346 111.383 99.4402 111.279L99.4846 111.256C99.6763 111.157 99.8652 111.058 100.053 110.957C100.097 110.933 100.142 110.908 100.185 110.885L100.255 110.846C100.39 110.772 100.525 110.699 100.658 110.622L100.797 110.543C101.146 110.343 101.489 110.138 101.815 109.935L101.935 109.86C102.269 109.649 102.6 109.432 102.918 109.214L103.044 109.126C103.358 108.91 103.662 108.692 103.947 108.479L104.065 108.39C104.372 108.16 104.669 107.929 104.95 107.701L105.055 107.615C105.361 107.367 105.64 107.131 105.908 106.896L105.987 106.825C106.292 106.557 106.568 106.306 106.833 106.053L106.876 106.011C107.176 105.726 107.465 105.442 107.733 105.165L107.971 105.369L107.747 105.151C108.029 104.863 108.308 104.564 108.578 104.264C108.579 104.263 108.587 104.253 108.589 104.251C108.887 103.919 109.174 103.587 109.446 103.256C109.724 102.918 109.993 102.576 110.251 102.233L110.344 102.107C110.448 101.968 110.551 101.829 110.651 101.689C110.682 101.646 110.714 101.601 110.744 101.558L110.796 101.485C110.879 101.367 110.962 101.249 111.043 101.131C111.083 101.072 111.122 101.014 111.161 100.956L111.196 100.904C111.272 100.79 111.347 100.678 111.422 100.562C111.474 100.483 111.525 100.404 111.575 100.325C111.647 100.213 111.718 100.099 111.789 99.9847C111.835 99.9111 111.88 99.8375 111.925 99.7625C112.044 99.5667 112.161 99.3681 112.275 99.1694L112.328 99.0792C112.449 98.8667 112.572 98.6431 112.705 98.3931L112.804 98.2056C112.899 98.0264 112.99 97.8458 113.08 97.6639L113.175 97.4736C113.299 97.2194 113.408 96.9875 113.508 96.7653L113.549 96.675C113.642 96.4681 113.732 96.2597 113.819 96.05C113.849 95.9792 113.879 95.9069 113.908 95.8361C113.985 95.6486 114.06 95.4597 114.132 95.2708L114.199 95.1C114.289 94.8583 114.376 94.6139 114.46 94.3736L114.514 94.2111C114.579 94.0167 114.642 93.8208 114.703 93.6236C114.726 93.55 114.748 93.475 114.771 93.4014C114.833 93.1917 114.894 92.9806 114.951 92.7694L114.985 92.6486C115.049 92.4083 115.11 92.1625 115.172 91.8972C115.182 91.8542 115.192 91.8111 115.201 91.7681L115.217 91.6972C115.261 91.5028 115.301 91.3083 115.342 91.1139L115.351 91.0667C115.362 91.0083 115.375 90.9514 115.386 90.8931C115.442 90.6056 115.486 90.3542 115.522 90.1236C115.65 89.3208 115.737 88.5125 115.78 87.7181C115.787 87.5861 115.876 87.4736 116.004 87.4361C116.13 87.3986 116.267 87.4444 116.346 87.5514L120.1 92.6694C120.143 92.7278 120.164 92.7986 120.16 92.8708C120.115 93.6861 120.026 94.5181 119.894 95.3403C119.857 95.5764 119.811 95.8347 119.754 96.1278C119.743 96.1861 119.732 96.2431 119.719 96.3014L119.708 96.3542C119.668 96.5542 119.625 96.7542 119.58 96.9528L119.565 97.0222C119.555 97.0667 119.546 97.1125 119.535 97.1569C119.471 97.4306 119.408 97.6819 119.343 97.9264L119.308 98.05C119.25 98.2667 119.187 98.4833 119.124 98.6972C119.101 98.7736 119.078 98.8486 119.054 98.925C118.992 99.1264 118.928 99.3264 118.861 99.5264L118.805 99.6931C118.721 99.9389 118.632 100.189 118.539 100.436C118.525 100.474 118.511 100.51 118.496 100.547L118.471 100.612C118.397 100.806 118.321 100.999 118.242 101.192C118.211 101.265 118.182 101.337 118.151 101.411C118.061 101.625 117.969 101.839 117.875 102.05L117.842 102.126C117.84 102.129 117.836 102.139 117.835 102.142C117.73 102.371 117.619 102.607 117.493 102.867L117.396 103.061C117.303 103.247 117.21 103.431 117.112 103.615L117.012 103.807C116.876 104.062 116.75 104.292 116.626 104.508L116.572 104.6C116.455 104.804 116.336 105.006 116.214 105.206L116.19 105.246C116.179 105.264 116.169 105.282 116.158 105.3C116.143 105.325 116.126 105.351 116.111 105.376L116.076 105.432C116.004 105.547 115.932 105.664 115.858 105.778C115.807 105.858 115.754 105.94 115.701 106.021C115.625 106.137 115.547 106.254 115.469 106.369L115.435 106.421C115.394 106.481 115.354 106.54 115.314 106.599C115.23 106.721 115.146 106.842 115.06 106.962L115.01 107.033C114.978 107.079 114.946 107.124 114.914 107.169C114.811 107.312 114.705 107.456 114.6 107.597L114.562 107.649C114.546 107.671 114.529 107.694 114.512 107.717C114.511 107.719 114.504 107.726 114.503 107.729C114.242 108.076 113.967 108.424 113.689 108.761C113.403 109.108 113.111 109.447 112.815 109.778L112.796 109.799C112.519 110.106 112.235 110.41 111.949 110.704L111.935 110.718C111.66 111.001 111.365 111.29 111.061 111.581L111.029 111.612C111.028 111.614 111.017 111.624 111.015 111.625C110.746 111.881 110.462 112.139 110.153 112.411L110.072 112.482C109.799 112.721 109.505 112.968 109.201 113.215L109.175 113.237C109.161 113.249 109.149 113.26 109.135 113.271L109.093 113.303C108.808 113.533 108.504 113.769 108.193 114.004L108.074 114.094C107.779 114.314 107.469 114.535 107.153 114.754L107.125 114.775C107.11 114.786 107.094 114.797 107.079 114.808L107.024 114.844C106.704 115.062 106.367 115.285 106.022 115.501L105.9 115.579C105.567 115.787 105.217 115.996 104.862 116.2L104.835 116.217C104.821 116.225 104.805 116.235 104.792 116.243L104.721 116.282C104.585 116.36 104.447 116.435 104.31 116.51L104.236 116.55C104.192 116.575 104.146 116.6 104.101 116.624C103.91 116.726 103.717 116.828 103.524 116.926L103.478 116.951C103.268 117.058 103.057 117.162 102.844 117.264C102.801 117.285 102.758 117.304 102.715 117.325L102.642 117.36C102.497 117.428 102.351 117.497 102.205 117.564L102.137 117.596C102.112 117.607 102.087 117.618 102.062 117.629L102.007 117.653C101.815 117.737 101.624 117.821 101.43 117.903L101.214 117.993C100.932 118.11 100.696 118.204 100.471 118.29C100.228 118.383 99.9791 118.475 99.6957 118.575C99.6291 118.599 99.5624 118.622 99.4943 118.644L99.4763 118.65C99.2791 118.718 99.0804 118.785 98.8818 118.849L98.8235 118.868C98.7971 118.876 98.7707 118.886 98.7457 118.894L98.6888 118.911C98.3985 119.003 98.0916 119.093 97.7791 119.181L97.5902 119.232C97.2443 119.326 96.936 119.406 96.6485 119.474L96.5888 119.487C96.2999 119.556 95.9999 119.621 95.6707 119.687L95.4985 119.722C95.1943 119.782 94.8791 119.838 94.561 119.889L94.3707 119.918C94.0124 119.974 93.6943 120.018 93.3985 120.053L93.3721 120.056C93.0707 120.092 92.7582 120.122 92.4068 120.151L92.2249 120.167C91.9096 120.192 91.5888 120.21 91.2693 120.224L91.0818 120.231C90.7054 120.244 90.3888 120.251 90.0888 120.251ZM86.8874 119.429C87.9249 119.56 89.0013 119.626 90.0888 119.626C90.3818 119.626 90.6902 119.621 91.0624 119.607L91.2457 119.6C91.5568 119.586 91.8707 119.568 92.1791 119.544L92.3568 119.529C92.6999 119.5 93.0068 119.469 93.2943 119.436C93.2957 119.436 93.3082 119.435 93.311 119.435L93.3277 119.433C93.6166 119.399 93.9277 119.356 94.2791 119.301L94.4638 119.272C94.7749 119.222 95.0832 119.167 95.3804 119.108L95.5485 119.074C95.8707 119.008 96.1638 118.944 96.4457 118.878L96.5055 118.864C96.7846 118.797 97.086 118.719 97.4263 118.628L97.611 118.578C97.9179 118.492 98.2179 118.403 98.5027 118.312L98.5568 118.296C98.5804 118.289 98.6013 118.281 98.6235 118.274L98.6916 118.251C98.886 118.189 99.0805 118.124 99.2749 118.057L99.2929 118.05C99.3582 118.028 99.4235 118.006 99.4888 117.982C99.7666 117.883 100.011 117.794 100.236 117.708C100.467 117.619 100.699 117.526 100.976 117.412L101.189 117.324C101.378 117.244 101.565 117.163 101.753 117.078L101.817 117.05C101.837 117.04 101.86 117.032 101.88 117.022L101.949 116.99C102.09 116.925 102.233 116.858 102.376 116.792L102.453 116.756C102.493 116.736 102.535 116.718 102.575 116.699C102.783 116.599 102.99 116.496 103.194 116.392L103.24 116.368C103.43 116.271 103.619 116.172 103.807 116.071C103.85 116.047 103.893 116.024 103.936 116L104.011 115.958C104.146 115.885 104.28 115.811 104.414 115.735L104.51 115.681C104.523 115.672 104.539 115.663 104.553 115.654C104.9 115.454 105.243 115.25 105.569 115.046L105.689 114.969C106.026 114.756 106.357 114.539 106.671 114.325L106.796 114.238C107.107 114.022 107.411 113.804 107.7 113.59L107.818 113.501C108.125 113.271 108.422 113.04 108.703 112.812L108.807 112.726C109.105 112.483 109.393 112.242 109.66 112.007L109.739 111.938C110.043 111.669 110.319 111.417 110.586 111.165C110.589 111.164 110.596 111.157 110.599 111.154L110.63 111.124C110.929 110.839 111.218 110.554 111.487 110.278L111.504 110.261C111.782 109.976 112.061 109.678 112.33 109.376C112.332 109.374 112.342 109.365 112.343 109.362C112.64 109.032 112.926 108.7 113.2 108.368C113.201 108.367 113.21 108.357 113.21 108.356C113.478 108.031 113.747 107.689 114.005 107.346C114.007 107.343 114.012 107.336 114.014 107.335L114.097 107.221C114.201 107.082 114.304 106.943 114.405 106.801C114.436 106.758 114.467 106.715 114.497 106.672L114.549 106.599C114.632 106.481 114.715 106.363 114.797 106.243C114.836 106.186 114.875 106.128 114.914 106.069L114.949 106.017C115.025 105.903 115.1 105.79 115.175 105.675C115.226 105.596 115.278 105.517 115.328 105.438C115.4 105.325 115.471 105.211 115.542 105.099L115.678 104.876C115.797 104.681 115.914 104.483 116.028 104.283L116.08 104.193C116.201 103.982 116.325 103.757 116.458 103.507L116.557 103.319C116.651 103.14 116.743 102.96 116.833 102.778L116.928 102.588C117.051 102.333 117.161 102.101 117.261 101.879C117.262 101.876 117.267 101.867 117.268 101.864L117.301 101.787C117.394 101.581 117.485 101.372 117.572 101.162C117.601 101.092 117.632 101.019 117.661 100.949C117.737 100.761 117.812 100.572 117.885 100.383L117.951 100.213C118.042 99.9708 118.129 99.7264 118.212 99.4861L118.267 99.3236C118.332 99.1292 118.394 98.9333 118.455 98.7361C118.478 98.6625 118.501 98.5875 118.524 98.5139C118.586 98.3042 118.647 98.0931 118.704 97.8819L118.737 97.7611C118.801 97.5222 118.862 97.2764 118.925 97.0097L118.969 96.8097C119.014 96.6153 119.054 96.4208 119.094 96.2264L119.105 96.1736C119.117 96.1181 119.128 96.0611 119.139 96.0056C119.194 95.7181 119.239 95.4667 119.275 95.2375C119.397 94.4722 119.482 93.7014 119.526 92.9431L116.34 88.6C116.292 89.1389 116.224 89.6806 116.137 90.2181C116.1 90.4542 116.054 90.7125 115.997 91.0056C115.986 91.0653 115.974 91.125 115.961 91.1847L115.951 91.2319C115.911 91.4319 115.868 91.6319 115.824 91.8306L115.808 91.9C115.799 91.9458 115.789 91.9903 115.778 92.0361C115.714 92.3083 115.651 92.5597 115.586 92.8056L115.551 92.9292C115.493 93.1458 115.43 93.3625 115.367 93.5764C115.344 93.6528 115.321 93.7278 115.297 93.8042C115.235 94.0056 115.171 94.2056 115.104 94.4056L115.082 94.4708C115.071 94.5042 115.06 94.5389 115.048 94.5722C114.965 94.8181 114.875 95.0681 114.782 95.3153C114.768 95.3528 114.754 95.3889 114.739 95.4264L114.714 95.4917C114.64 95.6847 114.564 95.8778 114.485 96.0708C114.454 96.1444 114.425 96.2167 114.394 96.2903C114.304 96.5042 114.212 96.7181 114.118 96.9292L114.076 97.0222C113.973 97.2486 113.862 97.4861 113.735 97.7458L113.637 97.9403C113.544 98.1264 113.451 98.3111 113.354 98.4944L113.254 98.6861C113.118 98.9417 112.992 99.1708 112.868 99.3875L112.814 99.4806C112.697 99.6833 112.578 99.8861 112.455 100.086C112.41 100.162 112.362 100.237 112.317 100.312C112.244 100.429 112.172 100.544 112.099 100.66C112.047 100.74 111.994 100.822 111.943 100.903C111.867 101.019 111.79 101.135 111.712 101.251L111.678 101.303C111.637 101.363 111.597 101.424 111.555 101.483C111.472 101.604 111.387 101.725 111.303 101.844L111.253 101.917C111.221 101.962 111.189 102.008 111.155 102.053C111.053 102.196 110.947 102.339 110.842 102.481L110.747 102.608C110.483 102.958 110.208 103.307 109.93 103.643C109.644 103.99 109.353 104.329 109.057 104.66L109.043 104.675C108.764 104.986 108.479 105.29 108.192 105.586L108.178 105.6C107.904 105.882 107.61 106.172 107.304 106.463L107.26 106.506C106.989 106.763 106.707 107.019 106.397 107.292L106.317 107.363C106.043 107.603 105.758 107.842 105.447 108.096L105.34 108.183C105.054 108.415 104.75 108.651 104.439 108.885L104.319 108.975C104.028 109.192 103.718 109.414 103.398 109.635L103.271 109.724C102.947 109.946 102.61 110.167 102.268 110.382L102.147 110.458C101.814 110.667 101.465 110.875 101.11 111.079L100.968 111.161C100.832 111.239 100.696 111.314 100.558 111.389L100.489 111.428C100.443 111.453 100.396 111.479 100.35 111.504C100.158 111.607 99.9652 111.708 99.7721 111.807L99.7249 111.832C99.5152 111.939 99.3041 112.043 99.0929 112.144C99.0541 112.164 99.0138 112.182 98.9749 112.2L98.8943 112.237C98.7471 112.307 98.6013 112.376 98.4527 112.443L98.2568 112.531C98.0652 112.617 97.8721 112.7 97.6777 112.782L97.661 112.789C97.5957 112.817 97.5291 112.844 97.4638 112.872C97.186 112.987 96.9416 113.085 96.7166 113.171C96.4791 113.263 96.236 113.351 95.9443 113.454C95.8763 113.478 95.8096 113.501 95.7416 113.525L95.7263 113.531C95.5277 113.599 95.3291 113.665 95.1291 113.729L94.9388 113.79C94.6457 113.882 94.3388 113.974 94.0263 114.061L93.8388 114.112C93.4943 114.207 93.186 114.286 92.8957 114.354L92.8374 114.367C92.5485 114.435 92.2471 114.5 91.9166 114.567L91.7457 114.601C91.4388 114.661 91.1235 114.718 90.8082 114.769L90.6193 114.799C90.2568 114.854 89.9388 114.899 89.6457 114.935L89.6193 114.937C89.3179 114.974 89.0054 115.004 88.6541 115.033L88.4721 115.049C88.1568 115.074 87.836 115.092 87.5166 115.106L87.3291 115.112C86.9499 115.126 86.6332 115.132 86.3332 115.132C85.4221 115.132 84.5179 115.086 83.636 114.996L86.8874 119.429Z" fill="#FFECE5"/>
<path d="M87.2916 66.3889L88.1472 78.4542C83.8319 79.7528 80.1222 83.0084 78.3847 87.0764C77.9986 87.9792 77.7097 88.9236 77.5333 89.8945C77.5166 89.9861 77.5014 90.0778 77.4861 90.1695C76.568 95.9222 79.8861 100.761 85.2 102.118L80.0361 114.04C69.4653 111.289 62.875 101.643 64.7055 90.1695C64.7194 90.0778 64.7347 89.9861 64.7514 89.8945C66.318 80.7222 72.8833 72.7528 81.3347 68.5917C83.2347 67.6528 85.2333 66.9097 87.2916 66.3889Z" fill="#FCD2C2"/>
<path d="M80.0347 114.351C80.0084 114.351 79.982 114.349 79.9556 114.342C68.975 111.483 62.5764 101.522 64.3959 90.1195C64.4111 90.0264 64.4264 89.9333 64.4417 89.8417C65.9695 80.8972 72.3889 72.6472 81.1945 68.3111C83.1361 67.3542 85.1625 66.6056 87.2153 66.0861C87.3056 66.0639 87.4 66.082 87.475 66.1361C87.55 66.1903 87.5972 66.275 87.6042 66.3667L88.4597 78.432C88.4695 78.5778 88.3778 78.7111 88.2375 78.7528C84.0209 80.0209 80.3556 83.2584 78.6722 87.1986C78.2903 88.0931 78.0098 89.0195 77.8403 89.95C77.8236 90.0389 77.8084 90.1278 77.7945 90.2181C76.9209 95.6972 79.9972 100.465 85.2764 101.814C85.3653 101.836 85.4389 101.897 85.4792 101.979C85.5195 102.061 85.5222 102.157 85.4847 102.242L80.3209 114.164C80.2709 114.279 80.1556 114.351 80.0347 114.351ZM87.007 66.7847C85.1209 67.2889 83.2598 67.9889 81.4709 68.8708C72.8417 73.1208 66.5514 81.1958 65.0584 89.9458C65.0431 90.0361 65.0278 90.1264 65.0139 90.2167C63.2625 101.2 69.357 110.804 79.8556 113.667L84.7695 102.322C79.382 100.772 76.2709 95.8056 77.1778 90.1181C77.1931 90.0236 77.2084 89.9306 77.2264 89.8361C77.4042 88.8597 77.6972 87.8889 78.0986 86.9514C79.8222 82.9195 83.532 79.5958 87.8195 78.2264L87.007 66.7847Z" fill="#FFECE5"/>
<path d="M101.236 82.1264L104.99 87.2444C103.305 84.9472 100.639 83.3875 97.4027 83.0347C96.9416 82.9847 96.4694 82.9583 95.9874 82.9583C95.6596 82.9583 95.3277 82.9694 95.0027 82.9944L91.2485 77.8764C91.5735 77.8528 91.9055 77.8403 92.2333 77.8403C92.7152 77.8403 93.1874 77.8667 93.6485 77.9167C96.8846 78.2694 99.5513 79.8292 101.236 82.1264Z" fill="#FCB59A"/>
<path d="M104.99 87.5569C104.894 87.5569 104.799 87.5125 104.737 87.4292C103.051 85.1305 100.435 83.6792 97.368 83.3444C96.6055 83.2611 95.7972 83.2486 95.0235 83.3042C94.9166 83.3111 94.8124 83.2639 94.7486 83.1778L90.9944 78.0597C90.9277 77.968 90.9152 77.8472 90.9624 77.7444C91.0097 77.6417 91.1097 77.5722 91.2236 77.5639C92.0347 77.5055 92.8819 77.518 93.6805 77.6055C96.9222 77.9597 99.6944 79.4986 101.486 81.9417L105.24 87.0597C105.342 87.1986 105.312 87.3944 105.174 87.4972C105.118 87.5375 105.054 87.5569 104.99 87.5569ZM95.986 82.6458C96.4749 82.6458 96.9624 82.6722 97.436 82.7236C99.3763 82.9347 101.149 83.5722 102.642 84.5722L100.983 82.3111C99.2972 80.0125 96.6805 78.5611 93.6138 78.2264C93.0374 78.1639 92.4374 78.1403 91.843 78.1583L95.1527 82.6708C95.4277 82.6542 95.7083 82.6458 95.986 82.6458Z" fill="#FFECE5"/>
<mask id="mask2_8802_26667" style="mask-type:luminance" maskUnits="userSpaceOnUse" x="91" y="77" width="14" height="11">
<mask id="mask3_8802_26667" style="mask-type:luminance" maskUnits="userSpaceOnUse" x="91" y="77" width="14" height="11">
<path d="M101.236 82.1264L104.99 87.2444C103.305 84.9472 100.639 83.3875 97.4027 83.0347C96.9416 82.9847 96.4694 82.9583 95.9874 82.9583C95.6596 82.9583 95.3277 82.9694 95.0027 82.9944L91.2485 77.8764C91.5735 77.8528 91.9055 77.8403 92.2333 77.8403C92.7152 77.8403 93.1874 77.8667 93.6485 77.9167C96.8846 78.2694 99.5513 79.8292 101.236 82.1264Z" fill="white"/>
</mask>
<g mask="url(#mask3_8802_26667)">
<path d="M104.99 87.5569C104.894 87.5569 104.799 87.5125 104.737 87.4292C103.051 85.1305 100.435 83.6792 97.368 83.3444C96.6055 83.2611 95.7972 83.2486 95.0235 83.3042C94.9166 83.3111 94.8124 83.2639 94.7486 83.1778L90.9944 78.0597C90.9277 77.968 90.9152 77.8472 90.9624 77.7444C91.0097 77.6417 91.1097 77.5722 91.2236 77.5639C92.0347 77.5055 92.8819 77.518 93.6805 77.6055C96.9222 77.9597 99.6944 79.4986 101.486 81.9417L105.24 87.0597C105.342 87.1986 105.312 87.3944 105.174 87.4972C105.118 87.5375 105.054 87.5569 104.99 87.5569ZM95.986 82.6458C96.4749 82.6458 96.9624 82.6722 97.436 82.7236C99.3763 82.9347 101.149 83.5722 102.642 84.5722L100.983 82.3111C99.2972 80.0125 96.6805 78.5611 93.6138 78.2264C93.0374 78.1639 92.4374 78.1403 91.843 78.1583L95.1527 82.6708C95.4277 82.6542 95.7083 82.6458 95.986 82.6458Z" fill="white"/>
</g>
</mask>
<g mask="url(#mask2_8802_26667)">
<path d="M101.236 82.1264L104.99 87.2444C103.305 84.9472 100.639 83.3875 97.4027 83.0347C96.9416 82.9847 96.4694 82.9583 95.9874 82.9583C95.6596 82.9583 95.3277 82.9694 95.0027 82.9944L91.2485 77.8764C91.5735 77.8528 91.9055 77.8403 92.2333 77.8403C92.7152 77.8403 93.1874 77.8667 93.6485 77.9167C96.8846 78.2694 99.5513 79.8292 101.236 82.1264Z" fill="#FCB59A"/>
<path d="M104.99 87.5569C104.894 87.5569 104.799 87.5125 104.737 87.4292C103.051 85.1305 100.435 83.6792 97.368 83.3444C96.6055 83.2611 95.7972 83.2486 95.0235 83.3042C94.9166 83.3111 94.8124 83.2639 94.7486 83.1778L90.9944 78.0597C90.9277 77.968 90.9152 77.8472 90.9624 77.7444C91.0097 77.6417 91.1097 77.5722 91.2236 77.5639C92.0347 77.5055 92.8819 77.518 93.6805 77.6055C96.9222 77.9597 99.6944 79.4986 101.486 81.9417L105.24 87.0597C105.342 87.1986 105.312 87.3944 105.174 87.4972C105.118 87.5375 105.054 87.5569 104.99 87.5569ZM95.986 82.6458C96.4749 82.6458 96.9624 82.6722 97.436 82.7236C99.3763 82.9347 101.149 83.5722 102.642 84.5722L100.983 82.3111C99.2972 80.0125 96.6805 78.5611 93.6138 78.2264C93.0374 78.1639 92.4374 78.1403 91.843 78.1583L95.1527 82.6708C95.4277 82.6542 95.7083 82.6458 95.986 82.6458Z" fill="#FFECE5"/>
</g>
<path d="M94.1987 65.5125C94.6779 65.5125 95.1515 65.525 95.6209 65.55C107.089 66.1639 115.326 74.1958 116.078 84.7972L103.182 87.6875C102.915 82.5083 99.0862 78.5083 93.6487 77.9153C93.1876 77.8653 92.7154 77.8389 92.2334 77.8389C91.9057 77.8389 91.5737 77.85 91.2487 77.875L90.3904 65.7792C91.6459 65.6042 92.9182 65.5125 94.1987 65.5125Z" fill="#F56630"/>
<path d="M103.182 88.0014C103.114 88.0014 103.047 87.9792 102.993 87.9375C102.919 87.8819 102.875 87.7972 102.869 87.7042C102.607 82.6111 98.8875 78.8028 93.6139 78.2264C92.8528 78.1431 92.0431 78.1306 91.2695 78.1861C91.1875 78.1917 91.1056 78.1653 91.0417 78.1111C90.9792 78.0569 90.9403 77.9792 90.9347 77.8972L90.0764 65.8014C90.0653 65.6375 90.182 65.4931 90.3445 65.4694C92.1056 65.2236 93.8959 65.1444 95.6361 65.2375C107.083 65.85 115.617 73.8847 116.389 84.775C116.4 84.9292 116.296 85.0681 116.146 85.1014L103.25 87.9917C103.228 87.9986 103.204 88.0014 103.182 88.0014ZM92.2334 77.5278C92.7223 77.5278 93.2098 77.5542 93.6834 77.6056C96.4153 77.9042 98.7986 79.0306 100.579 80.8653C102.268 82.6056 103.263 84.825 103.469 87.3042L115.746 84.5528C114.876 74.1236 106.632 66.4542 95.6042 65.8625C94 65.7764 92.35 65.8403 90.7223 66.05L91.5375 77.5444C91.7681 77.5333 92.0014 77.5278 92.2334 77.5278Z" fill="#FFECE5"/>
<path d="M118.717 31.2264C117.425 29.7542 115.542 29.0195 113.542 29.0195C111.54 29.0195 109.422 29.7556 107.662 31.2264C105.9 32.7 104.829 34.6292 104.521 36.5597C104.212 38.4903 104.668 40.4195 105.958 41.8917C107.25 43.3639 109.132 44.1 111.132 44.1C113.133 44.1 115.253 43.3625 117.017 41.8889C118.778 40.4167 119.849 38.4889 120.157 36.5584C120.464 34.6292 120.01 32.6986 118.717 31.2264Z" fill="#FFECE5"/>
<path d="M111.086 35.1445C111.393 35.1445 111.682 35.257 111.882 35.482C112.276 35.932 112.161 36.6625 111.622 37.1125C111.35 37.3375 111.025 37.45 110.719 37.45C110.413 37.45 110.125 37.3375 109.928 37.1125C109.533 36.6625 109.649 35.932 110.188 35.482C110.456 35.257 110.779 35.1445 111.086 35.1445Z" fill="#FFECE5"/>
<path d="M109.06 32.4973C109.655 32.4973 110.217 32.7167 110.601 33.1556C111.371 34.032 111.144 35.4528 110.094 36.3292C109.569 36.7695 108.937 36.9889 108.34 36.9889C107.744 36.9889 107.183 36.7695 106.8 36.332C106.03 35.4556 106.257 34.032 107.307 33.1556C107.832 32.7167 108.464 32.4973 109.06 32.4973Z" fill="#FFECE5"/>
<path d="M121.757 28.6847C125.194 32.6 124.625 38.7084 120.679 43.0597L120.428 42.7736C120.119 42.4236 119.669 42.2472 119.193 42.2472C118.717 42.2472 118.211 42.4222 117.79 42.7736C116.951 43.4778 116.769 44.6139 117.385 45.3181L117.636 45.6042C115.407 46.9986 112.929 47.6959 110.564 47.6959C107.608 47.6959 104.828 46.6084 102.919 44.4334C99.1027 40.0834 100.226 33.0334 105.432 28.6834C108.032 26.5097 111.16 25.4222 114.114 25.4222C117.067 25.4209 119.849 26.5084 121.757 28.6847ZM117.017 41.8875C118.778 40.4153 119.849 38.4875 120.157 36.557C120.465 34.6278 120.01 32.6972 118.718 31.225C117.426 29.7528 115.543 29.0181 113.543 29.0181C111.542 29.0181 109.424 29.7542 107.664 31.225C105.901 32.6986 104.83 34.6278 104.522 36.5584C104.214 38.4889 104.669 40.4181 105.96 41.8903C107.251 43.3625 109.133 44.0986 111.133 44.0986C113.133 44.0986 115.254 43.3611 117.017 41.8875Z" fill="#F56630"/>
<path d="M119.193 42.2473C119.669 42.2473 120.119 42.4223 120.428 42.7736L120.679 43.0598L125.833 48.9375C126.448 49.6389 126.267 50.7778 125.428 51.4792C125.008 51.8292 124.503 52.0056 124.026 52.0056C123.55 52.0056 123.1 51.8306 122.793 51.4792L117.635 45.6028L117.383 45.3167C116.768 44.6125 116.95 43.4764 117.789 42.7723C118.211 42.4223 118.715 42.2473 119.193 42.2473Z" fill="#F56630"/>
</svg>
