<svg width="150" height="150" viewBox="0 0 150 150" fill="none" xmlns="http://www.w3.org/2000/svg">
<path d="M74.4055 128.201C102.725 128.201 125.682 119.195 125.682 108.086C125.682 96.9767 102.725 87.9708 74.4055 87.9708C46.0864 87.9708 23.1292 96.9767 23.1292 108.086C23.1292 119.195 46.0864 128.201 74.4055 128.201Z" fill="#F9FAFB"/>
<path d="M36.8584 63.7597L23.7264 73.0805C23.7264 73.0805 33.7987 88.8208 43.6931 92.8041L53.7639 84.1889C53.7653 84.1889 42.2084 76.143 36.8584 63.7597Z" fill="#F7F9FC"/>
<path d="M87.507 111.849L88.5 118.61C88.5 118.61 98.1639 119.029 102.257 115.463L100.678 108.904C100.678 108.904 94.3583 112.285 87.507 111.849Z" fill="#F7F9FC"/>
<path d="M114.551 65.1958L125.085 57.1319C125.085 57.1319 115.478 40.6875 105.575 37.6361L96.525 46.7944C96.525 46.7944 108.367 53.6431 114.551 65.1958Z" fill="#F7F9FC"/>
<g opacity="0.6">
<path d="M50.2279 91.7361C49.157 93.9194 48.2904 96.0486 47.6404 98.0722L42.9098 106.886L37.8612 91.7361H50.2279Z" fill="#98A2B3"/>
<path d="M42.9098 107.199C42.9015 107.199 42.8918 107.199 42.8834 107.197C42.7598 107.186 42.6529 107.103 42.614 106.985L37.564 91.8347C37.532 91.7389 37.5487 91.6347 37.607 91.5527C37.6654 91.4708 37.7598 91.4236 37.8612 91.4236H50.2293C50.3376 91.4236 50.4376 91.4791 50.4945 91.5708C50.5515 91.6625 50.557 91.7764 50.5098 91.8736C49.4543 94.025 48.5904 96.1416 47.939 98.168C47.9334 98.1861 47.9251 98.2041 47.9168 98.2208L43.1862 107.035C43.1306 107.136 43.0237 107.199 42.9098 107.199ZM38.2945 92.0486L42.9779 106.1L47.3529 97.95C47.9654 96.0458 48.7654 94.0625 49.7306 92.0486H38.2945Z" fill="#F9FAFB"/>
</g>
<path d="M46.2112 106.888H42.9098V106.886L47.6403 98.0723C46.589 101.353 46.1001 104.36 46.2112 106.888Z" fill="#D0D5DD"/>
<path d="M46.2112 107.2H42.9098C42.7376 107.2 42.5973 107.06 42.5973 106.888C42.5973 106.836 42.6098 106.783 42.6348 106.738L47.3653 97.9236C47.4417 97.782 47.614 97.7209 47.7626 97.7834C47.9112 97.8459 47.9876 98.0125 47.9376 98.1667C46.8876 101.439 46.4126 104.368 46.5237 106.874C46.5278 106.958 46.4959 107.042 46.4376 107.103C46.3778 107.165 46.2973 107.2 46.2112 107.2ZM43.4306 106.575H45.8876C45.8445 104.804 46.0765 102.842 46.5778 100.711L43.4306 106.575Z" fill="#F9FAFB"/>
<path d="M49.7972 106.51L49.7181 106.782C49.3139 108.16 49.0097 109.499 48.8125 110.763L48.7903 110.907L48.8708 111.029C49.3236 111.719 49.8972 112.264 50.5764 112.644L51.0903 112.933L51.1403 112.347C51.2792 110.721 51.6458 108.921 52.2278 107L52.3764 106.511H49.7972V106.51Z" fill="#D0D5DD"/>
<path d="M51.0876 113.246C51.0348 113.246 50.982 113.232 50.9348 113.206L50.4209 112.917C49.6987 112.511 49.0889 111.933 48.6084 111.2L48.5278 111.078C48.4848 111.013 48.4681 110.935 48.4806 110.858L48.5028 110.714C48.7028 109.438 49.0098 108.085 49.4181 106.694L49.4973 106.422C49.5362 106.289 49.6584 106.197 49.7973 106.197H52.3737C52.4723 106.197 52.5653 106.244 52.6251 106.324C52.6834 106.403 52.7014 106.506 52.6737 106.6L52.5251 107.089C51.9487 108.99 51.5876 110.768 51.4501 112.372L51.4001 112.96C51.3903 113.065 51.3292 113.16 51.2348 113.21C51.1876 113.233 51.1376 113.246 51.0876 113.246ZM49.1167 110.835L49.1306 110.856C49.5556 111.504 50.0931 112.014 50.7278 112.371L50.8181 112.422L50.8264 112.319C50.9681 110.671 51.3376 108.85 51.9264 106.908L51.9528 106.822H50.032L50.0181 106.869C49.6181 108.235 49.3153 109.56 49.1209 110.81L49.1167 110.835Z" fill="#F9FAFB"/>
<path d="M52.0986 91.7361H78.2194C75.0042 97.2403 70.8667 102.351 66.4111 106.292C66.1819 106.494 65.9528 106.694 65.7236 106.889H51.8625H50.0819H48.0111C47.7264 102.968 49.1528 97.5778 52.0986 91.7361Z" fill="#E4E7EC"/>
<path d="M65.7236 107.201H48.0111C47.8472 107.201 47.7111 107.075 47.7 106.911C47.407 102.885 48.8709 97.4445 51.8209 91.5945C51.8736 91.4889 51.982 91.4222 52.1 91.4222H78.2209C78.3334 91.4222 78.4361 91.482 78.4917 91.5792C78.5473 91.6764 78.5472 91.7959 78.4903 91.8931C75.2709 97.4056 71.0542 102.603 66.6195 106.525C66.3889 106.729 66.157 106.929 65.9264 107.126C65.8695 107.175 65.7986 107.201 65.7236 107.201ZM48.3056 106.576H65.6098C65.8084 106.407 66.007 106.233 66.2056 106.058C70.4667 102.289 74.5236 97.3306 77.6736 92.0486H52.2917C49.5195 97.5931 48.1111 102.729 48.3056 106.576Z" fill="#F9FAFB"/>
<path d="M75.8083 106.51L75.6944 106.653C73.5569 109.358 71.2653 111.8 68.8806 113.908C64.1653 118.081 59.5347 120.474 56.175 120.474C54.2806 120.474 52.8903 119.717 52.0444 118.225C51.4597 117.193 51.1361 115.863 51.0819 114.269L51.0722 114.008L50.825 113.924C50.2125 113.714 49.6542 113.413 49.1653 113.028L48.5819 112.568L48.5514 113.31C48.4458 115.863 48.8556 117.972 49.7681 119.585C51.0167 121.786 53.1375 122.949 55.9 122.949C59.9931 122.949 65.1764 120.357 70.4958 115.649C73.075 113.365 75.5472 110.719 77.8403 107.789C77.9694 107.625 78.0958 107.461 78.2222 107.296L78.8306 106.507H75.8083V106.51Z" fill="#98A2B3"/>
<path d="M55.9014 123.263C53.0209 123.263 50.8056 122.044 49.4986 119.74C48.5556 118.076 48.1334 115.91 48.2417 113.299L48.2723 112.557C48.2778 112.44 48.3473 112.335 48.4542 112.286C48.5611 112.238 48.6861 112.251 48.7778 112.325L49.3611 112.785C49.8209 113.147 50.3486 113.432 50.9278 113.631L51.175 113.715C51.2973 113.757 51.382 113.871 51.3861 114L51.3959 114.261C51.4486 115.804 51.7598 117.086 52.3181 118.074C53.1042 119.461 54.4014 120.164 56.1764 120.164C59.4611 120.164 64.0167 117.8 68.675 113.676C71.0459 111.581 73.325 109.153 75.4514 106.461L75.5653 106.317C75.625 106.242 75.7153 106.197 75.8111 106.197H78.8361C78.9556 106.197 79.0639 106.265 79.1167 106.372C79.1695 106.479 79.157 106.607 79.0834 106.701L78.4598 107.51C78.3375 107.669 78.2153 107.828 78.0903 107.986C75.7848 110.932 73.3 113.59 70.707 115.886C65.3278 120.643 60.0709 123.263 55.9014 123.263ZM48.8709 113.194L48.8653 113.325C48.7625 115.818 49.1584 117.872 50.0417 119.432C51.232 121.529 53.2584 122.638 55.9014 122.638C59.9181 122.638 65.0278 120.074 70.2903 115.417C72.8542 113.146 75.3125 110.515 77.5959 107.599C77.7195 107.442 77.8403 107.285 77.9611 107.128L78.1973 106.821H75.9598L75.9403 106.846C73.7917 109.567 71.4861 112.022 69.0875 114.143C64.3167 118.365 59.6098 120.786 56.175 120.786C54.1598 120.786 52.6792 119.976 51.7736 118.379C51.1639 117.304 50.8264 115.925 50.7695 114.281L50.7681 114.235L50.725 114.219C50.0778 113.999 49.4889 113.681 48.9736 113.274L48.8709 113.194Z" fill="#F9FAFB"/>
<path d="M94.6973 106.753L94.7751 106.781V106.782L94.7765 106.781L94.8557 106.81L94.7987 106.917L94.7209 106.889L94.6404 106.858L94.6973 106.753Z" fill="black"/>
<path d="M94.7987 107.229C94.764 107.229 94.7278 107.224 94.6931 107.211L94.5334 107.154C94.4473 107.124 94.3806 107.057 94.3473 106.972C94.314 106.887 94.3209 106.793 94.364 106.712L94.4209 106.606C94.4945 106.469 94.657 106.407 94.8015 106.458L94.8792 106.486H94.8806L94.9612 106.515C95.0473 106.546 95.114 106.612 95.1473 106.697C95.1806 106.782 95.1737 106.876 95.1306 106.957L95.0737 107.064C95.0181 107.168 94.9112 107.229 94.7987 107.229Z" fill="#F9FAFB"/>
<path d="M111.408 51.4167L116.424 66.4611L94.7764 106.781L89.7639 91.7361L103.275 66.5695L111.408 51.4167Z" fill="#98A2B3"/>
<path d="M94.7765 107.093C94.7681 107.093 94.7584 107.093 94.7501 107.092C94.6265 107.081 94.5195 106.997 94.4806 106.879L89.4695 91.8333C89.4417 91.7514 89.4501 91.6625 89.4904 91.5861L111.135 51.2667C111.193 51.1569 111.315 51.0931 111.436 51.1028C111.56 51.1139 111.667 51.1972 111.706 51.3153L116.72 66.3597C116.747 66.4417 116.739 66.5306 116.699 66.6069L95.0515 106.926C94.9959 107.031 94.8904 107.093 94.7765 107.093ZM90.1042 91.7653L94.8445 105.994L116.085 66.4319L111.342 52.2028L90.1042 91.7653Z" fill="#F9FAFB"/>
<path d="M94.6959 106.751L94.7751 106.779L89.764 91.7361H80.1376C76.914 97.4111 72.7167 102.724 68.1667 106.888H81.6292H94.7209L94.639 106.86L94.6959 106.751Z" fill="#E4E7EC"/>
<path d="M94.7209 107.2H68.1667C68.0376 107.2 67.9223 107.121 67.8751 107C67.8278 106.879 67.8598 106.743 67.9556 106.657C72.4487 102.546 76.6792 97.1917 79.8667 91.5806C79.9223 91.4834 80.0265 91.4222 80.139 91.4222H89.7653C89.9001 91.4222 90.0195 91.5084 90.0612 91.6361L95.0723 106.681C95.1056 106.781 95.0862 106.89 95.0209 106.972C94.9834 107.107 94.8626 107.2 94.7209 107.2ZM68.9612 106.575H94.3778L89.539 92.0486H80.3195C77.2501 97.4125 73.2417 102.538 68.9612 106.575Z" fill="#F9FAFB"/>
<path d="M78.0014 91.3569L77.8917 91.5444C74.707 96.9958 70.5417 102.132 66.1598 106.008C65.932 106.21 65.7042 106.407 65.4778 106.6C61.0125 110.396 56.6306 112.574 53.457 112.574C52.4862 112.574 51.6417 112.375 50.9459 111.985C50.3737 111.664 49.8889 111.203 49.5028 110.614C49.4417 110.521 49.3834 110.425 49.3264 110.325C48.8042 109.404 48.4889 108.239 48.3889 106.862C48.1056 102.958 49.5431 97.6472 52.4375 91.9083L52.7153 91.3583H49.9931L49.8889 91.5708C47.0903 97.2778 45.65 102.724 45.8348 106.907C45.9181 108.799 46.3278 110.407 47.0528 111.686C47.4903 112.458 48.0445 113.111 48.6987 113.628C49.2542 114.065 49.8875 114.408 50.582 114.646C51.3709 114.915 52.2459 115.051 53.1848 115.051C57.2778 115.051 62.4612 112.46 67.7792 107.751C67.9959 107.56 68.2098 107.367 68.425 107.171C72.9681 103.012 77.2459 97.5972 80.4709 91.9264L80.7931 91.3597H78.0014V91.3569Z" fill="#D0D5DD"/>
<path d="M53.1834 115.361C52.2112 115.361 51.3015 115.219 50.4807 114.939C49.7529 114.69 49.089 114.331 48.5043 113.871C47.8182 113.329 47.2376 112.646 46.7793 111.839C46.0307 110.517 45.607 108.861 45.5209 106.919C45.3348 102.685 46.7848 97.1847 49.607 91.4319L49.7112 91.2194C49.764 91.1125 49.8723 91.0444 49.9918 91.0444H52.714C52.8223 91.0444 52.9237 91.1014 52.9807 91.193C53.0376 91.2861 53.0418 91.4014 52.9932 91.4972L52.7154 92.0472C49.8459 97.7375 48.4195 102.99 48.7001 106.839C48.7959 108.168 49.0987 109.289 49.5973 110.171C49.6487 110.261 49.7043 110.353 49.764 110.443C50.1223 110.987 50.5709 111.415 51.0987 111.711C51.7473 112.075 52.5404 112.261 53.457 112.261C56.5584 112.261 60.8668 110.111 65.2765 106.362C65.5015 106.171 65.7279 105.975 65.9543 105.775C70.3112 101.921 74.4557 96.8111 77.6237 91.3889L77.7334 91.2014C77.789 91.1055 77.8918 91.0458 78.0029 91.0458H80.7904C80.9015 91.0458 81.0043 91.1055 81.0598 91.2014C81.1154 91.2972 81.1168 91.4167 81.0612 91.5125L80.739 92.0791C77.5001 97.7778 73.2015 103.218 68.6334 107.399C68.4182 107.596 68.2015 107.79 67.9848 107.983C62.6098 112.74 57.3529 115.361 53.1834 115.361ZM50.1862 91.6694L50.1682 91.7069C47.3918 97.3666 45.964 102.76 46.1459 106.892C46.2265 108.733 46.6237 110.294 47.3237 111.531C47.7418 112.267 48.2682 112.89 48.8918 113.381C49.4195 113.797 50.0223 114.122 50.6834 114.347C51.439 114.606 52.2807 114.736 53.1848 114.736C57.2015 114.736 62.3112 112.172 67.5723 107.515C67.7862 107.325 68.0001 107.133 68.214 106.937C72.7334 102.8 76.9904 97.4125 80.1987 91.768L80.2557 91.668H78.1834L78.164 91.7014C74.964 97.1805 70.7751 102.343 66.3695 106.242C66.1404 106.444 65.9112 106.643 65.682 106.837C61.1612 110.681 56.7057 112.885 53.4584 112.885C52.4334 112.885 51.5362 112.672 50.7945 112.256C50.1793 111.91 49.657 111.414 49.2445 110.785C49.1779 110.683 49.1154 110.581 49.057 110.478C48.5112 109.515 48.1834 108.307 48.0793 106.883C47.7918 102.924 49.2404 97.5555 52.1598 91.7653L52.2084 91.668H50.1862V91.6694Z" fill="#F9FAFB"/>
<path d="M111.408 51.4166L103.275 66.5694L89.764 91.7361H80.139H78.2195H52.0987H50.2279H37.8612L59.507 51.4166H111.408Z" fill="#D0D5DD"/>
<path d="M89.764 92.0486H37.8612C37.7515 92.0486 37.6501 91.9903 37.5932 91.8958C37.5362 91.8014 37.5334 91.6847 37.5862 91.5875L59.232 51.2681C59.2862 51.1667 59.3918 51.1028 59.507 51.1028H111.408C111.518 51.1028 111.62 51.1611 111.676 51.2542C111.733 51.3472 111.736 51.4653 111.683 51.5625L90.039 91.8819C89.9848 91.9847 89.8793 92.0486 89.764 92.0486ZM38.3834 91.4236H89.5779L110.886 51.7292H59.6945L38.3834 91.4236Z" fill="#F9FAFB"/>
<path d="M94.1669 61.1528C94.5655 61.1528 94.8349 61.4542 94.7821 61.8319C94.7266 62.2111 94.3627 62.5236 93.9669 62.5278L68.096 62.8667C67.6974 62.8667 67.428 62.5639 67.4821 62.1889C67.5377 61.8083 67.9016 61.4972 68.296 61.4917L94.1669 61.1528Z" fill="#F7F9FC"/>
<path d="M90.7099 66.868C91.1113 66.868 91.3793 67.1708 91.3251 67.5458C91.2696 67.9264 90.9057 68.2375 90.5113 68.243L64.6404 68.5819C64.2418 68.5819 63.9724 68.2805 64.0251 67.9028C64.0807 67.5236 64.4446 67.2111 64.8404 67.2069L90.7099 66.868Z" fill="#F7F9FC"/>
<path d="M87.2543 72.582C87.6515 72.582 87.9223 72.8834 87.8668 73.2611C87.8126 73.6403 87.4473 73.9528 87.0543 73.957L61.1834 74.2959C60.7848 74.2959 60.5154 73.9931 60.5695 73.6181C60.6237 73.2375 60.989 72.9264 61.3834 72.9209L87.2543 72.582Z" fill="#F7F9FC"/>
<path d="M83.7974 78.2986C84.1988 78.2986 84.4654 78.6014 84.4126 78.9764C84.3571 79.3569 83.9932 79.668 83.5974 79.6736L57.7265 80.0125C57.3293 80.0125 57.0585 79.7111 57.114 79.3333C57.1696 78.9541 57.5335 78.6416 57.9265 78.6375L83.7974 78.2986Z" fill="#F7F9FC"/>
<path d="M54.1236 59.0013C54.7722 59.0736 54.9944 59.6111 54.6236 60.2027C54.2541 60.793 53.4305 61.2152 52.7819 61.1444C52.1375 61.0736 51.9111 60.5347 52.2805 59.9444C52.6514 59.3513 53.4791 58.9291 54.1236 59.0013Z" fill="#98A2B3"/>
<path d="M52.9291 61.4361C52.8694 61.4361 52.8097 61.4333 52.7514 61.4264C52.3541 61.3819 52.0555 61.193 51.9097 60.8916C51.7555 60.5736 51.8028 60.1736 52.0403 59.793C52.4694 59.1069 53.3972 58.6347 54.1541 58.718C54.5528 58.7625 54.8514 58.9514 54.9972 59.2514C55.1514 59.5694 55.1028 59.9708 54.8639 60.3527C54.4694 60.9861 53.6486 61.4361 52.9291 61.4361ZM53.975 59.2777C53.4541 59.2777 52.8125 59.6319 52.5222 60.0958C52.3903 60.3055 52.3541 60.5069 52.4208 60.6444C52.4778 60.7625 52.618 60.8402 52.8139 60.8625C53.3514 60.9222 54.0708 60.5514 54.3819 60.0527C54.5153 59.8402 54.5528 59.6389 54.4847 59.5014C54.4278 59.3833 54.2875 59.3069 54.0916 59.2847C54.0541 59.2791 54.0153 59.2777 53.975 59.2777Z" fill="#F9FAFB"/>
<path d="M61.8709 46.6277C62.5875 46.7069 62.8223 47.3472 62.3514 48.0069L55.3056 57.9778C55.1361 58.218 54.7945 58.3819 54.5292 58.3528L54.4959 58.3472C54.2514 58.3041 54.1723 58.093 54.2945 57.8666L59.8236 47.7278C60.1736 47.0847 61.0473 46.5889 61.7723 46.6222C61.807 46.6222 61.8389 46.6236 61.8709 46.6277Z" fill="#98A2B3"/>
<path d="M54.5945 58.6389C54.5625 58.6389 54.5306 58.6375 54.4987 58.6333C54.4931 58.6333 54.4875 58.6319 54.482 58.6305L54.4487 58.625C54.2445 58.5889 54.0889 58.4778 54.0084 58.3111C53.925 58.1375 53.9389 57.9264 54.0459 57.7291L59.5764 47.5903C59.9806 46.85 60.9542 46.2986 61.7875 46.3361C61.832 46.3389 61.8667 46.3403 61.9028 46.3444C62.325 46.3916 62.65 46.6055 62.7973 46.9347C62.9612 47.3 62.8834 47.7514 62.5834 48.1708L55.5389 58.1403C55.3278 58.4403 54.9431 58.6389 54.5945 58.6389ZM54.5681 58.0694C54.7334 58.0833 54.9667 57.9653 55.0737 57.8125L62.1195 47.8416C62.2973 47.593 62.3556 47.3417 62.2778 47.1667C62.2139 47.025 62.0584 46.9333 61.8403 46.9097C61.8153 46.9069 61.7917 46.9055 61.7667 46.9041C61.1431 46.8764 60.3723 47.3153 60.075 47.8625L54.5459 58.0014C54.5306 58.0291 54.5264 58.0486 54.5237 58.0597C54.5292 58.0611 54.5361 58.0639 54.5473 58.0653L54.5681 58.0694Z" fill="#F9FAFB"/>
<path d="M63.6028 43.8458C69.6653 44.5152 71.7653 49.5541 68.2972 55.1C64.8305 60.643 57.1055 64.5958 51.043 63.9264C44.9833 63.2569 42.8833 58.218 46.35 52.675C49.818 47.1278 57.543 43.175 63.6028 43.8458Z" fill="#98A2B3"/>
<path d="M52.4056 64.2833C51.9334 64.2833 51.4681 64.2583 51.0125 64.2083C48.125 63.8889 45.9875 62.5819 44.9931 60.5292C43.9139 58.3014 44.3209 55.3833 46.1098 52.5236C49.6236 46.9028 57.4875 42.8847 63.6348 43.5639C66.5223 43.8833 68.6611 45.1903 69.6556 47.2444C70.7348 49.4722 70.3278 52.3917 68.5389 55.2514C65.2848 60.4528 58.3042 64.2833 52.4056 64.2833ZM62.2264 44.0555C56.5153 44.0555 49.75 47.7736 46.5917 52.8236C44.9098 55.5139 44.5139 58.2305 45.5056 60.2792C46.4112 62.15 48.3903 63.3444 51.075 63.6417C57.0306 64.3 64.6473 60.4 68.057 54.9472C69.7403 52.2569 70.1362 49.5389 69.1445 47.4903C68.2375 45.618 66.2598 44.425 63.5737 44.1278C63.132 44.0792 62.682 44.0555 62.2264 44.0555Z" fill="#F9FAFB"/>
<path d="M54.6237 60.2027C54.9931 59.6111 54.7723 59.0722 54.1237 59.0013C53.4792 58.9305 52.6514 59.3527 52.282 59.9444C51.9126 60.5347 52.1389 61.0736 52.7834 61.1444C53.432 61.2152 54.2556 60.793 54.6237 60.2027Z" fill="#F9FAFB"/>
<path d="M52.9293 61.4361C52.8695 61.4361 52.8098 61.4333 52.7515 61.4264C52.3543 61.3819 52.0557 61.193 51.9098 60.8916C51.7557 60.5736 51.8029 60.1736 52.0404 59.793C52.4695 59.1069 53.3959 58.6347 54.1543 58.718C54.5529 58.7625 54.8515 58.9514 54.9973 59.2514C55.1515 59.5694 55.1029 59.9708 54.864 60.3527C54.4695 60.9861 53.6487 61.4361 52.9293 61.4361ZM53.9751 59.2777C53.4543 59.2777 52.8126 59.6319 52.5223 60.0958C52.3904 60.3055 52.3543 60.5069 52.4209 60.6444C52.4779 60.7625 52.6182 60.8402 52.814 60.8625C53.3529 60.9222 54.0709 60.5514 54.382 60.0527C54.5154 59.8402 54.5529 59.6389 54.4848 59.5014C54.4279 59.3833 54.2876 59.3069 54.0918 59.2847C54.0543 59.2791 54.0154 59.2777 53.9751 59.2777Z" fill="#F9FAFB"/>
<path d="M62.3514 48.0056C62.8222 47.3472 62.5875 46.7069 61.8708 46.6264C61.8389 46.6222 61.8069 46.6208 61.7736 46.6194C61.0486 46.5861 60.175 47.0819 59.825 47.725L54.2958 57.8639C54.1722 58.0903 54.2528 58.3014 54.4972 58.3444L54.5305 58.35C54.7958 58.3792 55.1375 58.2153 55.3069 57.975L62.3514 48.0056Z" fill="#F9FAFB"/>
<path d="M54.5945 58.6389C54.5625 58.6389 54.5306 58.6375 54.4987 58.6333C54.4931 58.6333 54.4875 58.6319 54.482 58.6305L54.4487 58.625C54.2445 58.5889 54.0889 58.4778 54.0084 58.3111C53.925 58.1375 53.9389 57.9264 54.0459 57.7291L59.5764 47.5903C59.9806 46.85 60.9542 46.2986 61.7875 46.3361C61.8306 46.3389 61.8667 46.3403 61.9028 46.3444C62.325 46.3916 62.65 46.6055 62.7973 46.9347C62.9612 47.3 62.8834 47.7514 62.5834 48.1708L55.5389 58.1403C55.3278 58.4403 54.9431 58.6389 54.5945 58.6389ZM54.5681 58.0694C54.7306 58.0833 54.9667 57.9653 55.0737 57.8125L62.1195 47.8416V47.8403C62.2959 47.593 62.3556 47.3403 62.2764 47.1667C62.2125 47.025 62.057 46.9333 61.8389 46.9097C61.8139 46.9069 61.7903 46.9055 61.7653 46.9041C61.1403 46.875 60.3723 47.3153 60.0737 47.8625L54.5445 58.0014C54.5292 58.0291 54.525 58.0486 54.5223 58.0597C54.5278 58.0611 54.5348 58.0639 54.5459 58.0653L54.5681 58.0694Z" fill="#F9FAFB"/>
</svg>
