<svg width="150" height="150" viewBox="0 0 150 150" fill="none" xmlns="http://www.w3.org/2000/svg">
<path d="M75 122.697C103.319 122.697 126.276 113.691 126.276 102.582C126.276 91.4726 103.319 82.4667 75 82.4667C46.6809 82.4667 23.7236 91.4726 23.7236 102.582C23.7236 113.691 46.6809 122.697 75 122.697Z" fill="#FFECE5"/>
<path d="M76.6848 42.9931C76.5862 42.8597 76.4737 42.7375 76.3487 42.6278C75.907 42.2417 75.3098 42.0195 74.6473 42.0195C74.4431 42.0195 74.2292 42.0417 74.0126 42.0861C73.907 42.1084 73.8042 42.1361 73.7028 42.1667C73.6917 42.1695 73.6806 42.1722 73.6695 42.175C73.6278 42.1889 73.5862 42.2042 73.5445 42.2195C73.5278 42.225 73.5098 42.2306 73.4931 42.2375C73.4251 42.2639 73.357 42.2917 73.2903 42.3209C73.2862 42.3222 73.282 42.325 73.2792 42.3264C73.1876 42.3681 73.0987 42.4139 73.0112 42.4625C73.0056 42.4653 73.0015 42.4681 72.9959 42.4709C72.9751 42.4834 72.9556 42.4972 72.9348 42.5097C72.8806 42.5431 72.8265 42.5764 72.7737 42.6111C72.764 42.6181 72.7528 42.6236 72.7431 42.6306C72.7223 42.6445 72.7028 42.6611 72.682 42.6764C72.639 42.7084 72.5959 42.7389 72.5528 42.7722C72.5403 42.782 72.5265 42.7917 72.5126 42.8014C72.4959 42.8153 72.4792 42.8306 72.4626 42.8445C72.4223 42.8778 72.3834 42.9125 72.3445 42.9472C72.3292 42.9611 72.314 42.9736 72.2987 42.9875C72.2695 43.0153 72.2403 43.0431 72.2126 43.0722C72.1751 43.1111 72.139 43.15 72.1028 43.1889C72.0931 43.1986 72.0862 43.2097 72.0765 43.2209C72.0348 43.2681 71.9945 43.3181 71.9556 43.3667C71.9417 43.3847 71.9251 43.4014 71.9126 43.4195C71.9084 43.425 71.9056 43.4306 71.9015 43.4361C71.8417 43.5153 71.7862 43.5972 71.7348 43.682C71.732 43.6861 71.7292 43.6889 71.7265 43.6931C71.6903 43.7528 71.6556 43.8139 71.6223 43.875C71.6153 43.8875 71.6098 43.9014 71.6028 43.9139C71.5806 43.9584 71.557 44.0028 71.5376 44.0472C71.532 44.0584 71.5292 44.0695 71.5237 44.0806C71.514 44.1042 71.5042 44.1278 71.4945 44.1528C71.4751 44.2 71.457 44.2472 71.4403 44.2945C71.4306 44.3195 71.4223 44.3459 71.414 44.3709C71.3973 44.4209 71.3834 44.4695 71.3695 44.5195C71.364 44.5431 71.357 44.5653 71.3515 44.5889C71.3334 44.6611 71.3181 44.7347 71.307 44.8084C71.2751 45.0056 71.264 45.2084 71.2792 45.4097L71.3515 46.4625L74.3542 50.5556L74.282 49.5028C74.2667 49.3 74.2778 49.0986 74.3098 48.9014C74.3209 48.8278 74.3376 48.7542 74.3542 48.682C74.3598 48.6584 74.3667 48.6361 74.3723 48.6125C74.3862 48.5625 74.4001 48.5125 74.4153 48.4639C74.4237 48.4389 74.432 48.4125 74.4417 48.3875C74.4584 48.3403 74.4765 48.2931 74.4959 48.2459C74.5056 48.2222 74.5153 48.1986 74.5251 48.175C74.5501 48.1195 74.5765 48.0639 74.6042 48.0084C74.6112 47.9959 74.6167 47.982 74.6237 47.9695C74.6584 47.9042 74.6959 47.8389 74.7348 47.775C74.7862 47.6917 74.8431 47.6097 74.9015 47.5292C74.9195 47.5056 74.9376 47.4834 74.957 47.4597C74.9959 47.4097 75.0362 47.3611 75.0778 47.3139C75.1223 47.2639 75.1667 47.2139 75.214 47.1653C75.257 47.1222 75.3015 47.082 75.3459 47.0403C75.3848 47.0056 75.4237 46.9709 75.464 46.9375C75.4931 46.9125 75.5237 46.8875 75.5542 46.8639C75.5959 46.8306 75.639 46.7986 75.6834 46.7681C75.714 46.7459 75.7431 46.7236 75.7751 46.7028C75.8278 46.6681 75.882 46.6347 75.9362 46.6014C75.9626 46.5861 75.9876 46.5695 76.014 46.5542C76.1015 46.5056 76.1903 46.4597 76.282 46.4181C76.3528 46.3861 76.4237 46.3556 76.4973 46.3278C76.514 46.3209 76.532 46.3153 76.5487 46.3097C76.6015 46.2903 76.6542 46.2736 76.7084 46.257C76.8098 46.2264 76.9126 46.1972 77.0181 46.1764C77.2348 46.132 77.4487 46.1097 77.6528 46.1097C78.3167 46.1097 78.914 46.332 79.3542 46.7181C79.4792 46.8278 79.5917 46.9486 79.6903 47.0834L76.6848 42.9931Z" fill="#FA9874"/>
<path d="M74.3529 50.8347C74.2668 50.8347 74.182 50.7945 74.1292 50.7209L71.1265 46.6264C71.0959 46.5834 71.0765 46.5334 71.0737 46.4806L71.0015 45.4278C70.9848 45.2139 70.9959 44.9889 71.032 44.7625C71.0445 44.6875 71.0598 44.6097 71.0806 44.5222C71.0848 44.5042 71.0904 44.4861 71.0945 44.4681L71.1001 44.4472C71.1154 44.3931 71.1306 44.3375 71.1487 44.2847C71.1584 44.257 71.1681 44.2292 71.1779 44.2C71.1959 44.1486 71.2154 44.0972 71.2376 44.0459L71.2445 44.0278C71.2529 44.0084 71.2612 43.9875 71.2695 43.9681L71.2848 43.932C71.3056 43.8847 71.3293 43.8403 71.3529 43.7945L71.3779 43.7459C71.4126 43.6792 71.4501 43.6125 71.4904 43.5472C71.4931 43.5417 71.5015 43.5306 71.5056 43.525C71.5529 43.4472 71.614 43.357 71.6793 43.2695C71.6793 43.2681 71.6862 43.2597 71.6918 43.25C71.7015 43.2375 71.7126 43.2236 71.7251 43.2097L71.7376 43.1945C71.7793 43.1403 71.8223 43.0875 71.8681 43.0361C71.8793 43.0208 71.8876 43.0111 71.8959 43.0028C71.9348 42.9597 71.9737 42.9181 72.014 42.8764C72.0445 42.8459 72.0751 42.8153 72.107 42.7861C72.1195 42.775 72.1306 42.7639 72.1431 42.7542L72.1556 42.7431C72.1959 42.7056 72.239 42.6681 72.282 42.632L72.2973 42.6181C72.3098 42.607 72.3223 42.5958 72.3362 42.5847C72.3473 42.5764 72.3584 42.5681 72.3695 42.5597C72.4237 42.5167 72.4709 42.4834 72.5181 42.4486L72.5362 42.4347C72.5515 42.4222 72.5667 42.4111 72.5834 42.4C72.5931 42.3931 72.6029 42.3875 72.6126 42.3806C72.6723 42.3403 72.7306 42.3056 72.789 42.2695L72.807 42.2584C72.8223 42.2486 72.839 42.2375 72.8556 42.2278C72.8612 42.225 72.8737 42.2181 72.8792 42.2153C72.9667 42.1653 73.064 42.1167 73.1598 42.0722C73.1598 42.0722 73.1723 42.0667 73.1723 42.0653C73.2445 42.0334 73.3181 42.0028 73.3917 41.975C73.4042 41.9709 73.4181 41.9653 73.4306 41.9611L73.4695 41.9472C73.507 41.9333 73.5445 41.9208 73.582 41.9083C73.5945 41.9042 73.607 41.9014 73.6195 41.8986C73.7418 41.8611 73.8515 41.8333 73.9542 41.8125C74.189 41.7653 74.4209 41.7403 74.6445 41.7403C75.3598 41.7403 76.0293 41.9806 76.5293 42.4167C76.6695 42.5403 76.7973 42.6778 76.9056 42.8264L79.907 46.9181L79.9084 46.9195C79.9987 47.0431 79.9723 47.2167 79.8487 47.3084C79.7251 47.3986 79.5515 47.3722 79.4598 47.2486C79.3751 47.1334 79.2765 47.025 79.1654 46.9292C78.7668 46.5806 78.2279 46.3889 77.6459 46.3889C77.4584 46.3889 77.264 46.4097 77.0668 46.45C76.982 46.4681 76.889 46.4917 76.7834 46.5236C76.7334 46.5389 76.6848 46.5542 76.6362 46.5722L76.589 46.5889C76.5223 46.6139 76.4556 46.6417 76.3918 46.6709C76.3098 46.7084 76.2265 46.75 76.1445 46.7972C76.132 46.8042 76.1195 46.8125 76.107 46.8208L76.0737 46.8417C76.0237 46.8722 75.9737 46.9028 75.9251 46.9347C75.9015 46.95 75.8779 46.9667 75.8556 46.9834L75.8418 46.9931C75.8015 47.0222 75.7612 47.0514 75.7223 47.082C75.6945 47.1042 75.6667 47.1264 75.639 47.15C75.6029 47.1806 75.5668 47.2125 75.5306 47.2459L75.5167 47.2584C75.4806 47.2917 75.4445 47.325 75.4098 47.3597C75.3668 47.4042 75.3251 47.45 75.2848 47.4959C75.2459 47.5403 75.2098 47.5847 75.1737 47.6306L75.1515 47.6597C75.1418 47.6709 75.132 47.6834 75.1237 47.6945C75.0681 47.7695 75.0168 47.8458 74.9695 47.9195C74.9334 47.9778 74.8987 48.0375 74.8667 48.0972L74.8501 48.132C74.8251 48.182 74.8001 48.232 74.7779 48.2834L74.7501 48.3486C74.732 48.3917 74.7154 48.4334 74.7001 48.4778C74.6918 48.5014 74.6834 48.5236 74.6765 48.5472C74.6626 48.5917 74.6487 48.6375 74.6362 48.682L74.6195 48.7445C74.6043 48.8097 74.5904 48.875 74.5792 48.9417C74.5501 49.125 74.5417 49.3056 74.5542 49.4792L74.6265 50.5334C74.6348 50.657 74.5612 50.7709 74.4445 50.8125C74.4168 50.8292 74.3848 50.8347 74.3529 50.8347ZM71.6223 46.3639L74.0112 49.6208L74.0043 49.5236C73.9876 49.3097 73.9987 49.0847 74.0348 48.8584C74.0473 48.7834 74.0626 48.7042 74.0834 48.6181C74.0876 48.6 74.0931 48.582 74.0973 48.5639L74.1029 48.5417C74.1181 48.4875 74.1334 48.4333 74.1501 48.3792C74.1598 48.3514 74.1695 48.3222 74.1793 48.2945C74.1973 48.2431 74.2181 48.1917 74.239 48.1403L74.2473 48.1209C74.2556 48.1014 74.264 48.082 74.2723 48.0625C74.2987 48.0014 74.3279 47.9417 74.3584 47.882L74.3793 47.8403C74.4168 47.7695 74.457 47.6986 74.5001 47.6306C74.5543 47.5417 74.6154 47.4528 74.6806 47.3653C74.6931 47.3472 74.707 47.3306 74.7209 47.3125L74.739 47.2889C74.7806 47.2347 74.8237 47.182 74.8695 47.1306C74.9168 47.0764 74.9654 47.0222 75.0168 46.9709C75.0584 46.9292 75.1015 46.8889 75.1445 46.85L75.1584 46.8375C75.2001 46.8 75.2418 46.7625 75.2848 46.7264C75.3168 46.7 75.3487 46.6722 75.382 46.6472C75.4265 46.6111 75.4737 46.5778 75.5209 46.5445L75.5348 46.5347C75.5626 46.5139 75.5904 46.4945 75.6195 46.475C75.6765 46.4375 75.7348 46.4014 75.7931 46.3653L75.8195 46.35C75.839 46.3389 75.857 46.3264 75.8765 46.3153C75.9723 46.2611 76.0695 46.2125 76.1654 46.1681C76.2418 46.1334 76.3181 46.1014 76.3973 46.0709L76.4529 46.0514C76.5098 46.0306 76.5668 46.0125 76.6251 45.9945C76.7473 45.957 76.857 45.9292 76.9598 45.907C77.507 45.7945 78.0362 45.8167 78.5168 45.9584L76.4612 43.157C76.3765 43.0403 76.2765 42.9334 76.1668 42.8375C75.7681 42.4889 75.2279 42.2972 74.6473 42.2972C74.4598 42.2972 74.2654 42.3181 74.0681 42.3584C73.982 42.3764 73.8918 42.4 73.7848 42.432C73.7737 42.4347 73.7626 42.4375 73.7515 42.4403C73.7237 42.4486 73.6931 42.4597 73.6626 42.4709L73.5918 42.4959C73.5279 42.5195 73.4654 42.5459 73.4043 42.5736C73.3112 42.6167 73.2279 42.6597 73.1459 42.7056C73.1404 42.7084 73.1279 42.7153 73.1223 42.7181C73.1251 42.7167 73.1168 42.7222 73.1112 42.7264C73.1001 42.7334 73.0876 42.7417 73.0751 42.7486C73.0237 42.7792 72.9737 42.8097 72.9251 42.8417C72.9168 42.8472 72.907 42.8528 72.8987 42.8583C72.889 42.8653 72.882 42.8709 72.8751 42.8764L72.8418 42.9014C72.8015 42.9306 72.7612 42.9597 72.7223 42.9903C72.714 42.9972 72.7043 43.0042 72.6945 43.0111L72.6695 43.032C72.6598 43.0403 72.6501 43.05 72.639 43.0583C72.6029 43.0889 72.5667 43.1209 72.5306 43.1528L72.4876 43.1903C72.4612 43.2153 72.4348 43.2417 72.4084 43.2681C72.3737 43.3028 72.3404 43.3389 72.307 43.3764C72.2973 43.3889 72.2904 43.3972 72.282 43.4056C72.2445 43.4486 72.207 43.4945 72.1723 43.5389C72.164 43.55 72.1543 43.5611 72.1459 43.5709L72.132 43.5875C72.132 43.5875 72.1279 43.5945 72.1223 43.6014C72.0654 43.6778 72.014 43.7528 71.9681 43.8278C71.9654 43.832 71.9612 43.8389 71.957 43.8431C71.9237 43.8972 71.8945 43.9514 71.8654 44.0056L71.8473 44.0417C71.8251 44.0861 71.8056 44.125 71.7876 44.1625L71.7487 44.2584C71.7306 44.3014 71.714 44.3431 71.6987 44.3875C71.6904 44.4111 71.682 44.4347 71.6751 44.457C71.6612 44.5014 71.6473 44.5472 71.6362 44.5917L71.6195 44.6542C71.6042 44.7195 71.5904 44.7847 71.5793 44.8514C71.5501 45.0347 71.5418 45.2153 71.5543 45.3889L71.6223 46.3639Z" fill="#FFECE5"/>
<path d="M78.0457 48.9194L75.0429 44.8264C75.011 44.7833 74.9749 44.7431 74.9346 44.7083C74.7902 44.5833 74.5985 44.5111 74.386 44.5111C74.318 44.5125 74.2499 44.5194 74.1791 44.5333C74.1416 44.5417 74.1041 44.5514 74.0679 44.5625C74.0568 44.5667 74.0471 44.5708 74.036 44.575C74.0193 44.5806 74.0041 44.5875 73.9888 44.5931C73.9749 44.5986 73.9596 44.6028 73.9457 44.6097C73.9207 44.6208 73.8985 44.6333 73.8749 44.6458C73.8693 44.6486 73.8638 44.6514 73.8596 44.6542C73.8568 44.6556 73.8554 44.6569 73.8527 44.6583C73.8249 44.6736 73.7985 44.6903 73.7721 44.7083C73.7596 44.7167 73.7471 44.7264 73.736 44.7361C73.7305 44.7403 73.7235 44.7458 73.718 44.75C73.7124 44.7542 73.7055 44.7583 73.6999 44.7625C73.6763 44.7819 73.6541 44.8014 73.6318 44.8222C73.6207 44.8319 73.611 44.8431 73.6013 44.8528C73.5888 44.8653 73.5763 44.8792 73.5638 44.8917C73.5416 44.9153 73.5207 44.9417 73.5013 44.9667C73.4999 44.9681 73.4985 44.9708 73.4971 44.9736C73.4929 44.9792 73.4902 44.9847 73.486 44.9903C73.4707 45.0125 73.4555 45.0333 73.4416 45.0569C73.4346 45.0681 73.4291 45.0806 73.4235 45.0917C73.4152 45.1069 73.4068 45.1222 73.3985 45.1375C73.3929 45.1486 73.386 45.1597 73.3805 45.1708C73.3721 45.1903 73.3652 45.2111 73.3582 45.2306C73.3527 45.2444 73.3471 45.2583 73.3416 45.2736C73.3263 45.3194 73.3138 45.3653 73.3068 45.4125C73.2971 45.4764 73.2943 45.5417 73.2985 45.6069L73.3568 46.4653L76.3596 50.5583L76.3013 49.7C76.2971 49.6347 76.2999 49.5694 76.3096 49.5056C76.3166 49.4583 76.3291 49.4125 76.3443 49.3667C76.3485 49.3528 76.3554 49.3389 76.361 49.3236C76.3735 49.2917 76.386 49.2611 76.4013 49.2305C76.4096 49.2153 76.418 49.2 76.4263 49.1847C76.4457 49.15 76.4666 49.1167 76.4902 49.0833C76.4943 49.0778 76.4971 49.0722 76.5013 49.0667C76.5332 49.025 76.5666 48.9833 76.6041 48.9458C76.6402 48.9083 76.6791 48.875 76.7207 48.8417C76.7263 48.8375 76.7332 48.8319 76.7388 48.8278C76.7777 48.7986 76.8193 48.7708 76.8624 48.7458C76.8679 48.7431 76.8735 48.7403 76.8777 48.7375C76.9152 48.7181 76.9527 48.7 76.9929 48.6847C77.0082 48.6778 77.0249 48.6722 77.0402 48.6667C77.086 48.65 77.1332 48.6361 77.1832 48.625C77.2541 48.6111 77.3221 48.6042 77.3902 48.6028C77.6027 48.6028 77.7943 48.675 77.9388 48.8C77.9777 48.8375 78.0138 48.8764 78.0457 48.9194Z" fill="#FA9874"/>
<path d="M76.3583 50.8347C76.2721 50.8347 76.1874 50.7944 76.1346 50.7208L73.1319 46.6264C73.1013 46.5833 73.0819 46.5333 73.0791 46.4805L73.0207 45.6222C73.0152 45.5347 73.018 45.4486 73.0319 45.3653C73.0416 45.3083 73.0555 45.2486 73.0763 45.1833C73.0819 45.168 73.0874 45.1528 73.093 45.1375L73.1013 45.1139C73.1083 45.093 73.1166 45.0722 73.1249 45.0528C73.1305 45.0389 73.1388 45.025 73.1458 45.0125C73.1569 44.9903 73.1666 44.9708 73.1777 44.9514C73.186 44.9347 73.193 44.9208 73.2013 44.9083C73.218 44.8805 73.2374 44.8528 73.2569 44.8264C73.261 44.8194 73.2652 44.8125 73.2707 44.8055C73.3013 44.7653 73.3263 44.7333 73.3541 44.7041C73.3694 44.6875 73.3846 44.6708 73.3999 44.6555C73.411 44.6444 73.4249 44.6305 73.4374 44.618C73.4638 44.593 73.493 44.568 73.5207 44.5444C73.5249 44.5416 73.5388 44.5305 73.543 44.5278L73.5749 44.5028C73.586 44.4944 73.5985 44.4847 73.611 44.4764C73.6444 44.4541 73.6777 44.4333 73.711 44.4139C73.7166 44.4111 73.7249 44.4069 73.7305 44.4041L73.7416 44.3986C73.768 44.3847 73.7971 44.368 73.8277 44.3541C73.843 44.3472 73.8583 44.3416 73.8735 44.3361C73.9013 44.325 73.9207 44.318 73.9416 44.3097C73.9555 44.3041 73.968 44.2986 73.9819 44.2944C74.0277 44.2805 74.0735 44.268 74.1207 44.2583C74.2055 44.2416 74.2888 44.2319 74.3777 44.2305C74.6583 44.2305 74.9166 44.325 75.1138 44.4958C75.1707 44.5458 75.2208 44.6014 75.2638 44.6597L78.2652 48.7528C78.2652 48.7528 78.2652 48.7541 78.2666 48.7541C78.3569 48.8778 78.3305 49.0514 78.2069 49.143C78.0833 49.2333 77.9096 49.2069 77.818 49.0833C77.7985 49.0569 77.7763 49.0319 77.7499 49.0097C77.6541 48.9264 77.5249 48.8805 77.3846 48.8805C77.3346 48.8819 77.2819 48.8875 77.2319 48.8972C77.2041 48.9028 77.1707 48.9125 77.1263 48.9278C77.1138 48.9319 77.1013 48.9375 77.0902 48.9416C77.061 48.9528 77.0319 48.9666 77.0041 48.9819C77.0013 48.9833 76.9902 48.9889 76.9874 48.9903C76.9624 49.0041 76.9319 49.025 76.8985 49.05L76.7152 48.8403L76.8846 49.0597C76.8499 49.0861 76.8221 49.1125 76.7957 49.1375C76.768 49.1666 76.7416 49.1972 76.7166 49.2305L76.7082 49.243C76.6902 49.268 76.6749 49.293 76.661 49.3194C76.6541 49.3305 76.6485 49.3416 76.643 49.3541C76.6319 49.3764 76.6221 49.3986 76.6138 49.4208L76.6069 49.4389C76.5902 49.4875 76.5819 49.5194 76.5777 49.5472C76.5707 49.5875 76.5694 49.6333 76.5721 49.6791L76.6305 50.5375C76.6388 50.6611 76.5652 50.775 76.4485 50.8166C76.4221 50.8291 76.3902 50.8347 76.3583 50.8347ZM73.6277 46.3639L76.0207 49.6264C76.0207 49.5708 76.0263 49.5153 76.0346 49.4611C76.0444 49.4041 76.0583 49.3444 76.0791 49.2791C76.0833 49.2639 76.0902 49.25 76.0958 49.2347C76.1152 49.1847 76.1319 49.1444 76.1513 49.1055C76.161 49.0861 76.1721 49.0666 76.1819 49.0472C76.2069 49.0041 76.2333 48.9611 76.2624 48.9194C76.2666 48.9139 76.2721 48.9055 76.2777 48.8972C76.3166 48.8458 76.3596 48.7944 76.4055 48.7486C76.4471 48.7055 76.4958 48.6639 76.5485 48.6208C76.5499 48.6194 76.5638 48.6097 76.5652 48.6083C76.6235 48.5653 76.6735 48.5319 76.7249 48.5028C76.7291 48.5 76.7416 48.4944 76.7457 48.4916C76.7902 48.468 76.8374 48.4458 76.8874 48.4264C76.9069 48.418 76.9277 48.4111 76.9471 48.4028C77.0138 48.3791 77.0694 48.3639 77.1249 48.3514C77.1735 48.3416 77.2207 48.3347 77.2707 48.3305L74.8194 44.9889C74.7999 44.9625 74.7777 44.9375 74.7513 44.9153C74.6555 44.8333 74.5263 44.7861 74.386 44.7861C74.336 44.7875 74.2832 44.793 74.2332 44.8028C74.2069 44.8083 74.1791 44.8153 74.1527 44.8236C74.1471 44.8264 74.1374 44.8305 74.1291 44.8333C74.1166 44.8375 74.1055 44.843 74.093 44.8472L74.0652 44.8569C74.0416 44.8666 74.0235 44.8764 74.0069 44.8861C74.0041 44.8875 73.993 44.893 73.9888 44.8944C73.9874 44.8958 73.9846 44.8972 73.9832 44.8972C73.9652 44.9083 73.9457 44.9194 73.9291 44.9319L73.9013 44.9528L73.718 44.743L73.8888 44.9625C73.886 44.9639 73.8749 44.9736 73.8721 44.975C73.8569 44.9875 73.8388 45.0028 73.8221 45.018L73.7985 45.0416C73.7874 45.0528 73.7777 45.0625 73.7694 45.0722C73.7541 45.0889 73.7402 45.1055 73.7263 45.1236C73.7235 45.1264 73.7221 45.1291 73.7207 45.1319C73.7194 45.1347 73.7138 45.143 73.711 45.1458C73.6985 45.1625 73.6874 45.1778 73.6777 45.1944L73.6638 45.2208C73.6569 45.2333 73.6513 45.2444 73.6457 45.2555L73.6096 45.3416C73.593 45.3903 73.5846 45.4222 73.5805 45.45C73.5735 45.4903 73.5721 45.5361 73.5749 45.5819L73.6277 46.3639Z" fill="#FFECE5"/>
<path d="M79.1058 49.1236C79.1016 49.0555 79.0919 48.9889 79.0794 48.9236C79.0794 48.9208 79.078 48.918 79.0766 48.9152C79.0613 48.843 79.0432 48.7722 79.0182 48.7041C78.9974 48.6472 78.9738 48.5916 78.946 48.5375C78.9446 48.5333 78.9419 48.5305 78.9391 48.5264C78.9321 48.5125 78.9224 48.4986 78.9155 48.4847C78.8988 48.4555 78.8821 48.425 78.8641 48.3972C78.853 48.3805 78.8405 48.3625 78.828 48.3458L75.8252 44.2527C75.8571 44.2972 75.8849 44.3444 75.9127 44.3916C75.921 44.4055 75.9294 44.418 75.9363 44.4333C75.9669 44.4902 75.9933 44.55 76.0155 44.6111C76.0405 44.6791 76.0585 44.7486 76.0738 44.8222C76.0877 44.8889 76.0974 44.9583 76.1016 45.0291L76.1988 46.4625L79.2016 50.5555L79.1058 49.1236Z" fill="#F77A4A"/>
<path d="M79.2029 50.8347C79.1168 50.8347 79.0321 50.7944 78.9793 50.7208L75.9765 46.6264C75.946 46.5833 75.9265 46.5333 75.9237 46.4805L75.8265 45.0472C75.8223 44.9903 75.8154 44.9347 75.8029 44.8764C75.7904 44.8153 75.7751 44.7569 75.7557 44.7041C75.739 44.6569 75.7182 44.6097 75.6918 44.5611L75.6723 44.5291C75.6501 44.4903 75.6279 44.4514 75.6029 44.418V44.4166C75.5126 44.293 75.539 44.1194 75.6626 44.0278C75.7862 43.9375 75.9598 43.9639 76.0515 44.0875L76.0529 44.0889L79.0543 48.1805C79.0696 48.2 79.0834 48.2208 79.0973 48.2416C79.1168 48.2694 79.1334 48.3 79.1501 48.3291L79.1598 48.3458C79.1709 48.3639 79.1779 48.3764 79.1848 48.3889C79.189 48.3958 79.1932 48.4042 79.1959 48.4083C79.2293 48.4736 79.2584 48.5403 79.2834 48.6083C79.3112 48.6847 79.3334 48.7653 79.3515 48.85C79.3529 48.8583 79.3557 48.8653 79.3571 48.8722C79.3709 48.9444 79.3821 49.0236 79.3862 49.1028L79.4835 50.5361C79.4918 50.6597 79.4182 50.7736 79.3015 50.8153C79.2668 50.8291 79.2348 50.8347 79.2029 50.8347ZM76.4723 46.3639L78.8612 49.6208L78.8293 49.143C78.8251 49.0903 78.8196 49.0375 78.8098 48.9875C78.8084 48.9819 78.8071 48.9764 78.8057 48.9722C78.7932 48.9111 78.7779 48.8541 78.7584 48.8014C78.7432 48.7569 78.7237 48.7139 78.7029 48.6736C78.7001 48.668 78.6959 48.6611 78.6946 48.6583L78.664 48.6055C78.6543 48.5889 78.6446 48.5708 78.6348 48.5555C78.6251 48.5416 78.6154 48.5278 78.6057 48.5153L76.4168 45.5305L76.4723 46.3639Z" fill="#FFECE5"/>
<path d="M59.0277 46.4639H70.418L70.6971 50.5555L57.9583 53.1653L59.0277 46.4639Z" fill="#FFECE5"/>
<path d="M57.9583 53.443C57.8875 53.443 57.818 53.4152 57.7666 53.3666C57.7013 53.3041 57.6694 53.2125 57.6847 53.1222L58.7541 46.4194C58.775 46.2847 58.8916 46.1847 59.0291 46.1847H70.4194C70.5652 46.1847 70.6861 46.2972 70.6972 46.443L70.9763 50.5347C70.9861 50.6736 70.8916 50.7972 70.7555 50.8264L58.0166 53.4375C57.9958 53.4416 57.9763 53.443 57.9583 53.443ZM59.2638 46.7416L58.2958 52.8139L70.4027 50.3319L70.1583 46.7416H59.2638Z" fill="#FFECE5"/>
<path d="M70.6974 50.5556L73.7002 54.6487L60.9613 57.2598L57.9585 53.1653L70.6974 50.5556Z" fill="#787070"/>
<path d="M60.9612 57.5375C60.8737 57.5375 60.7904 57.4959 60.7376 57.4236L57.7348 53.3292C57.6792 53.2528 57.6654 53.1528 57.7001 53.0653C57.7348 52.9764 57.8112 52.9125 57.9029 52.8931L70.6417 50.282C70.7473 50.2597 70.857 50.3028 70.9209 50.3903L73.9237 54.4847C73.9792 54.5611 73.9931 54.6611 73.9584 54.7486C73.9237 54.8375 73.8473 54.9014 73.7556 54.9209L61.0168 57.532C60.9987 57.5361 60.9793 57.5375 60.9612 57.5375ZM58.439 53.3514L61.0806 56.9528L73.2209 54.4653L70.5793 50.8639L58.439 53.3514Z" fill="#FFECE5"/>
<path d="M72.6945 59.7403C72.4028 59.4847 72.2139 59.1236 72.1848 58.6903L71.6167 50.3653L72.675 50.1486L72.9625 54.3541C72.9764 54.5597 73.1417 54.7 73.3514 54.7C73.3834 54.7 73.4167 54.6972 73.4514 54.6889C73.7056 54.6361 73.8986 54.4028 73.882 54.1653L73.5945 49.9597L75.482 49.5722L76.0514 57.8972C76.0598 58.0319 76.0528 58.1639 76.032 58.2958C75.9639 58.7194 75.7473 59.1222 75.4334 59.443C75.1167 59.7639 74.7056 60.0014 74.2417 60.0972C74.1 60.125 73.9584 60.1403 73.8223 60.1403C73.382 60.1416 72.9875 59.9958 72.6945 59.7403Z" fill="#F56630"/>
<path d="M73.8195 60.4194C73.325 60.4194 72.8611 60.2528 72.5125 59.95L72.5111 59.9486C72.15 59.6319 71.9417 59.2028 71.9083 58.7097L71.3403 50.3847C71.3306 50.2458 71.425 50.1222 71.5611 50.0931L72.6194 49.8764C72.6972 49.8597 72.7792 49.8792 72.8431 49.9278C72.9069 49.9764 72.9472 50.05 72.9514 50.1306L73.2389 54.3361C73.2445 54.4139 73.3195 54.4222 73.3514 54.4222C73.3653 54.4222 73.3806 54.4208 73.3958 54.4181C73.5236 54.3917 73.6111 54.2736 73.6056 54.1861L73.3181 49.9806C73.3083 49.8417 73.4028 49.7181 73.5389 49.6889L75.4264 49.3014C75.5056 49.2847 75.5861 49.3042 75.65 49.3528C75.7139 49.4014 75.7542 49.475 75.7583 49.5556L76.3278 57.8806C76.3375 58.0361 76.3292 58.1917 76.3056 58.3417C76.2306 58.8111 75.9903 59.2722 75.6306 59.6403C75.2611 60.0139 74.8 60.2667 74.2972 60.3722C74.1347 60.4042 73.975 60.4194 73.8195 60.4194ZM72.8764 59.5319C73.207 59.8181 73.6875 59.9278 74.1847 59.8278C74.5792 59.7458 74.9417 59.5458 75.2333 59.2514C75.5125 58.9667 75.6986 58.6125 75.7556 58.2556C75.7736 58.1444 75.7792 58.0319 75.7722 57.9181L75.225 49.9125L73.8875 50.1861L74.1583 54.15C74.1847 54.5264 73.8972 54.8833 73.507 54.9639C73.4556 54.975 73.4028 54.9806 73.3514 54.9806C72.9889 54.9806 72.7097 54.7264 72.6847 54.3764L72.4194 50.4875L71.9111 50.5917L72.4625 58.6736C72.4861 59.0167 72.6292 59.3139 72.8764 59.5319Z" fill="#FFECE5"/>
<path d="M71.3501 46.4639H72.4237L72.6751 50.15L71.6168 50.3666L71.3501 46.4639Z" fill="#FFECE5"/>
<path d="M71.6168 50.6444C71.557 50.6444 71.4973 50.625 71.4487 50.5875C71.3848 50.5389 71.3445 50.4653 71.3404 50.3847L71.0737 46.4819C71.0681 46.4055 71.0959 46.3292 71.1473 46.2736C71.2001 46.218 71.2737 46.1861 71.3501 46.1861H72.4223C72.5681 46.1861 72.689 46.2986 72.7001 46.4444L72.9515 50.1305C72.9612 50.2694 72.8667 50.393 72.7306 50.4222L71.6723 50.6389C71.6542 50.643 71.6362 50.6444 71.6168 50.6444ZM71.6473 46.7417L71.8723 50.0305L72.3806 49.9264L72.1626 46.7417H71.6473Z" fill="#FFECE5"/>
<path d="M81.2082 50.8347C81.1221 50.8347 81.0374 50.7944 80.9846 50.7208L77.9818 46.6264C77.9513 46.5833 77.9318 46.5333 77.9291 46.4805L77.7624 44.0416C77.7582 43.9736 77.7513 43.9069 77.7416 43.8403L77.7318 43.7778C77.7249 43.7347 77.718 43.6903 77.7096 43.6472C77.7013 43.6041 77.6902 43.5625 77.6791 43.5208L77.661 43.4458C77.6429 43.3805 77.6221 43.3153 77.5985 43.2528C77.5652 43.1625 77.5249 43.068 77.4735 42.9653L77.4555 42.9278C77.4152 42.8514 77.3707 42.7736 77.3207 42.6986C77.2916 42.6541 77.268 42.618 77.2416 42.5833C77.1513 42.4597 77.1777 42.2861 77.3013 42.1944C77.3513 42.1583 77.4082 42.1403 77.4652 42.1403C77.5513 42.1403 77.6346 42.1791 77.6888 42.2541L80.6916 46.3486C80.7193 46.3861 80.7457 46.425 80.7721 46.4639C80.7763 46.4708 80.7874 46.4889 80.7916 46.4958C80.8457 46.5791 80.8999 46.6694 80.9457 46.7583C80.9513 46.7666 80.9554 46.775 80.9596 46.7847C80.9638 46.793 80.9693 46.8055 80.9749 46.8194C81.0332 46.9347 81.0818 47.0486 81.1221 47.1583C81.1499 47.2347 81.1749 47.3125 81.1971 47.3916C81.2027 47.4111 81.2068 47.4291 81.211 47.4486L81.2166 47.4736C81.2305 47.5264 81.243 47.5791 81.2541 47.6347C81.2541 47.6361 81.2568 47.6444 81.2582 47.6528C81.2652 47.6861 81.2707 47.7208 81.2749 47.7555C81.2749 47.7555 81.2902 47.8472 81.2916 47.8653C81.3027 47.943 81.3096 48.0222 81.3152 48.1028L81.4818 50.5403C81.4902 50.6639 81.4166 50.7778 81.2999 50.8194C81.2721 50.8291 81.2402 50.8347 81.2082 50.8347Z" fill="#FA9874"/>
<path d="M77.4652 42.4208L80.468 46.5153C80.493 46.55 80.518 46.5847 80.5416 46.6208C80.5472 46.6278 80.5499 46.6361 80.5555 46.6431C80.6083 46.725 80.6583 46.8083 80.7041 46.8958C80.7069 46.9014 80.7097 46.9056 80.7124 46.9111C80.7166 46.9195 80.7194 46.9292 80.7249 46.9389C80.7763 47.0417 80.8235 47.1458 80.8624 47.2556C80.8874 47.325 80.9097 47.3972 80.9305 47.4695C80.9374 47.4945 80.943 47.5195 80.9485 47.5445C80.961 47.5931 80.9735 47.6417 80.9833 47.6917C80.9847 47.6972 80.986 47.7028 80.9874 47.7083C80.9958 47.75 81.0013 47.7917 81.0083 47.8333C81.0124 47.857 81.0166 47.8792 81.0194 47.9028C81.0291 47.975 81.036 48.0472 81.0416 48.1208L81.2083 50.5597L78.2055 46.4667L78.0388 44.0278C78.0333 43.9542 78.0263 43.8806 78.0166 43.8097C78.0138 43.7861 78.0083 43.7639 78.0055 43.7403C77.9985 43.6931 77.9902 43.6458 77.9819 43.5986C77.9722 43.5486 77.9597 43.5 77.9472 43.4514C77.9402 43.4264 77.936 43.4014 77.9291 43.3778C77.9083 43.3056 77.886 43.2333 77.861 43.1639C77.8208 43.0542 77.7749 42.95 77.7235 42.8472C77.7166 42.8333 77.7097 42.8195 77.7027 42.8056C77.6569 42.7181 77.6069 42.6347 77.5541 42.5528C77.5235 42.5056 77.4958 42.4625 77.4652 42.4208ZM77.9138 42.0917L77.4652 42.4208L77.0166 42.75C77.0402 42.782 77.0624 42.8153 77.0833 42.8486C77.1305 42.9222 77.1722 42.9903 77.2069 43.057L77.211 43.0653L77.2235 43.0917C77.2708 43.1861 77.3069 43.2695 77.336 43.35C77.3555 43.4056 77.3749 43.4639 77.3916 43.525C77.393 43.532 77.3944 43.5389 77.3972 43.5458C77.3999 43.5597 77.4041 43.5722 77.4069 43.5861C77.418 43.6278 77.4277 43.6681 77.436 43.707C77.4444 43.7445 77.4499 43.7833 77.4555 43.8236L77.461 43.8611C77.4624 43.8681 77.4638 43.875 77.4638 43.882C77.4722 43.9458 77.4777 44.0056 77.4819 44.0639L77.6485 46.5028C77.6555 46.6083 77.693 46.7083 77.7555 46.7931L80.7583 50.8861C80.8652 51.032 81.0333 51.1125 81.2069 51.1125C81.2708 51.1125 81.3347 51.1014 81.3972 51.0792C81.6291 50.9945 81.7777 50.7667 81.761 50.5195L81.5944 48.0806C81.5888 47.9986 81.5805 47.9125 81.5694 47.8264C81.5666 47.8042 81.5624 47.7833 81.5597 47.7625L81.5569 47.7445L81.5527 47.7195C81.5472 47.6792 81.5402 47.6389 81.5319 47.5986C81.5305 47.5903 81.5277 47.5792 81.5249 47.5681C81.5138 47.5125 81.4999 47.4597 81.4874 47.4083L81.4819 47.3861C81.4763 47.3625 81.4708 47.3403 81.4652 47.3181C81.4402 47.2306 81.4138 47.1458 81.3847 47.0653C81.3416 46.9486 81.2916 46.8306 81.2291 46.7042C81.2222 46.6875 81.2152 46.6722 81.2069 46.657C81.2013 46.6472 81.1958 46.6347 81.1888 46.6236C81.1402 46.532 81.0874 46.4417 81.0291 46.3514C81.0208 46.3375 81.0124 46.3236 81.0041 46.3111C80.9763 46.2695 80.9472 46.2278 80.918 46.1875L77.9138 42.0917Z" fill="#FFECE5"/>
<path d="M73.3555 46.4639H75.2694L75.4819 49.575L73.5944 49.9611L73.3555 46.4639Z" fill="#FFECE5"/>
<path d="M73.5944 50.2389C73.5346 50.2389 73.4749 50.2194 73.4263 50.1819C73.3624 50.1333 73.3221 50.0597 73.318 49.9792L73.0791 46.4819C73.0735 46.4055 73.1013 46.3292 73.1527 46.2736C73.2055 46.218 73.2791 46.1861 73.3555 46.1861H75.268C75.4138 46.1861 75.5346 46.2986 75.5457 46.4444L75.7582 49.5555C75.768 49.6944 75.6735 49.818 75.5374 49.8472L73.6499 50.2333C73.6319 50.2375 73.6124 50.2389 73.5944 50.2389ZM73.6527 46.7417L73.8499 49.6264L75.1874 49.3528L75.0096 46.743H73.6527V46.7417Z" fill="#FFECE5"/>
<path d="M76.2 46.4639H77.2736L77.4583 49.1694L76.4 49.3861L76.2 46.4639Z" fill="#FFECE5"/>
<path d="M76.3999 49.6639C76.3402 49.6639 76.2805 49.6444 76.2319 49.6069C76.168 49.5583 76.1277 49.4847 76.1236 49.4041L75.9236 46.4819C75.918 46.4055 75.9458 46.3292 75.9972 46.2736C76.0499 46.218 76.1236 46.1861 76.1999 46.1861H77.2735C77.4194 46.1861 77.5402 46.2986 77.5513 46.4444L77.7361 49.15C77.7458 49.2889 77.6513 49.4125 77.5152 49.4417L76.4569 49.6583C76.4374 49.6625 76.418 49.6639 76.3999 49.6639ZM76.4972 46.7417L76.6555 49.0514L77.1652 48.9472L77.0152 46.743H76.4972V46.7417Z" fill="#FFECE5"/>
<path d="M78.2058 46.4639H104.234L96.8794 92.5764H85.01L83.1836 104.026L82.9461 104.224H81.635C82.5725 103.694 83.1905 102.683 83.0989 101.675L81.1641 80.2792H90.3683C90.7697 80.2792 91.1461 79.9653 91.2072 79.5778C91.2697 79.1889 90.9933 78.8764 90.5919 78.8764H81.0377L80.5183 73.1264H91.51C91.9114 73.1264 92.2878 72.8125 92.3503 72.4237C92.4114 72.0362 92.1364 71.7223 91.735 71.7223H80.3919L79.8725 65.9723H92.6516C93.053 65.9723 93.4294 65.6584 93.4919 65.2695C93.553 64.882 93.278 64.5681 92.8766 64.5681H79.7572C79.7753 63.357 80.7808 62.1986 82.0836 61.9306C83.4544 61.6486 84.4947 60.3861 84.4058 59.1084L84.3864 58.8181H93.7933C94.1947 58.8181 94.5711 58.5042 94.6336 58.1153C94.6947 57.7278 94.4197 57.4139 94.0183 57.4139H84.2905L83.7989 50.2209C83.7239 49.1139 82.828 48.3584 81.7003 48.3584C81.5253 48.3584 81.3447 48.3764 81.1614 48.4139L78.6822 48.9223L78.3808 48.9834L78.2058 46.4639Z" fill="#FFECE5"/>
<path d="M82.946 104.503H81.6349C81.5085 104.503 81.3987 104.418 81.3668 104.296C81.3349 104.174 81.389 104.046 81.4987 103.983C82.3696 103.492 82.9015 102.574 82.8224 101.701L80.8876 80.3056C80.8807 80.2278 80.9071 80.1514 80.9599 80.0931C81.0126 80.0361 81.0862 80.0028 81.1654 80.0028H90.3696C90.6349 80.0028 90.8946 79.7889 90.9349 79.5347C90.9515 79.4306 90.9293 79.3389 90.8696 79.2681C90.8071 79.1945 90.7085 79.1542 90.5932 79.1542H81.039C80.896 79.1542 80.7751 79.0445 80.7626 78.9014L80.2432 73.1514C80.2362 73.0736 80.2626 72.9972 80.3154 72.9389C80.3682 72.882 80.4418 72.8486 80.521 72.8486H91.5126C91.7779 72.8486 92.0376 72.6334 92.0779 72.3792C92.0946 72.2764 92.071 72.182 92.0126 72.1125C91.9501 72.0389 91.8515 71.9986 91.7376 71.9986H80.3946C80.2515 71.9986 80.1307 71.8889 80.1182 71.7459L79.5987 65.9959C79.5918 65.9181 79.6182 65.8417 79.671 65.7834C79.7237 65.7264 79.7974 65.6931 79.8765 65.6931H92.6557C92.921 65.6931 93.1807 65.4778 93.221 65.2236C93.2376 65.1208 93.214 65.0264 93.1557 64.957C93.0932 64.8833 92.9946 64.8431 92.8807 64.8431H79.7612C79.6862 64.8431 79.6154 64.8139 79.564 64.7597C79.5112 64.707 79.4835 64.6347 79.4849 64.5611C79.5057 63.1986 80.6001 61.95 82.0335 61.6556C83.271 61.4014 84.214 60.2667 84.1349 59.125L84.1154 58.8347C84.1099 58.7583 84.1376 58.682 84.189 58.6264C84.2418 58.5708 84.3154 58.5389 84.3918 58.5389H93.7987C94.064 58.5389 94.3237 58.3236 94.364 58.0695C94.3807 57.9667 94.3571 57.8722 94.2987 57.8042C94.2362 57.7306 94.1376 57.6903 94.0237 57.6903H84.296C84.1501 57.6903 84.0293 57.5778 84.0182 57.432L83.5265 50.2389C83.4626 49.2945 82.714 48.6361 81.7043 48.6361C81.546 48.6361 81.3835 48.6528 81.221 48.6861L78.4404 49.257C78.3612 49.2736 78.2807 49.2542 78.2168 49.2056C78.1529 49.157 78.1126 49.0833 78.1085 49.0028L77.9362 46.4847C77.9307 46.4083 77.9585 46.332 78.0099 46.2764C78.0626 46.2208 78.1362 46.1889 78.2126 46.1889H104.24C104.322 46.1889 104.399 46.225 104.452 46.2861C104.504 46.3472 104.528 46.4292 104.514 46.5097L97.1599 92.6222C97.139 92.757 97.0224 92.857 96.8849 92.857H85.2529L83.464 104.074C83.4529 104.14 83.4196 104.2 83.3668 104.243L83.1293 104.44C83.0737 104.479 83.0112 104.503 82.946 104.503ZM82.4626 103.947H82.846L82.9265 103.881L83.0362 103.189C82.8876 103.463 82.6932 103.719 82.4626 103.947ZM81.4682 80.557L83.3418 101.276L84.7362 92.5333C84.7571 92.3986 84.8737 92.2986 85.0112 92.2986H96.6432L103.908 46.7417H78.5029L78.6335 48.6458L81.1029 48.1389C81.3015 48.0986 81.5029 48.0778 81.6974 48.0778C82.9918 48.0778 83.9904 48.9695 84.0737 50.1986L84.5474 57.1333H94.0154C94.2918 57.1333 94.546 57.2458 94.714 57.4431C94.8807 57.6375 94.9487 57.8917 94.9057 58.157C94.8224 58.682 94.3321 59.0945 93.7918 59.0945H84.6821C84.7751 60.5014 83.6349 61.8945 82.1376 62.2014C81.0751 62.4195 80.2126 63.307 80.0571 64.2889H92.8737C93.1501 64.2889 93.4043 64.4014 93.5724 64.5986C93.739 64.7931 93.8071 65.0472 93.764 65.3125C93.6807 65.8375 93.1904 66.25 92.6501 66.25H80.1751L80.6446 71.4445H91.7335C92.0099 71.4445 92.264 71.557 92.4321 71.7542C92.5987 71.9486 92.6668 72.2028 92.6237 72.4681C92.5404 72.9931 92.0501 73.4056 91.5099 73.4056H80.8224L81.2918 78.6H90.5932C90.8696 78.6 91.1237 78.7125 91.2918 78.9084C91.4571 79.1028 91.5251 79.357 91.4835 79.6222C91.4001 80.1472 90.9112 80.5584 90.3696 80.5584H81.4682V80.557Z" fill="#FFECE5"/>
<path d="M94.0154 57.4097C94.4168 57.4097 94.6932 57.7236 94.6307 58.1111C94.5682 58.5 94.1918 58.8139 93.7904 58.8139H84.3834L84.2876 57.4097H94.0154Z" fill="#FA9874"/>
<path d="M93.7918 59.093H84.3848C84.239 59.093 84.1181 58.9805 84.107 58.8347L84.0112 57.4305C84.0056 57.3541 84.0334 57.2778 84.0848 57.2222C84.1376 57.1666 84.2112 57.1347 84.2876 57.1347H94.014C94.2904 57.1347 94.5445 57.2472 94.7126 57.4444C94.8793 57.6389 94.9473 57.893 94.9043 58.1583C94.8209 58.6805 94.332 59.093 93.7918 59.093ZM84.6431 58.5375H93.7904C94.0556 58.5375 94.3154 58.3222 94.3556 58.068C94.3723 57.9653 94.3487 57.8708 94.2904 57.8014C94.2279 57.7278 94.1293 57.6875 94.0154 57.6875H84.5862L84.6431 58.5375Z" fill="#FA9874"/>
<path d="M92.8736 64.5652C93.275 64.5652 93.5514 64.8791 93.4889 65.2666C93.4264 65.6555 93.05 65.9694 92.6486 65.9694H79.8694L79.7597 64.75C79.7555 64.6889 79.7542 64.6264 79.7542 64.5652H92.8736Z" fill="#FA9874"/>
<path d="M92.6501 66.2472H79.8709C79.7279 66.2472 79.607 66.1375 79.5945 65.9944L79.4848 64.775C79.4793 64.7 79.4779 64.6305 79.4793 64.5611C79.482 64.4097 79.6057 64.2875 79.757 64.2875H92.8765C93.1529 64.2875 93.407 64.4 93.5751 64.5972C93.7418 64.7916 93.8098 65.0458 93.7668 65.3111C93.6806 65.8361 93.1918 66.2472 92.6501 66.2472ZM80.1237 65.6916H92.6501C92.9154 65.6916 93.1751 65.4764 93.2154 65.2222C93.232 65.1194 93.2084 65.025 93.1501 64.9555C93.0876 64.8819 92.989 64.8416 92.8751 64.8416H80.0487L80.1237 65.6916Z" fill="#FA9874"/>
<path d="M91.7334 71.7208C92.1348 71.7208 92.4112 72.0347 92.3487 72.4222C92.2862 72.8111 91.9098 73.125 91.5084 73.125H80.5168L80.3904 71.7208H91.7334Z" fill="#FA9874"/>
<path d="M91.5083 73.4028H80.5167C80.3736 73.4028 80.2528 73.2931 80.2403 73.15L80.1139 71.7458C80.1069 71.6681 80.1333 71.5917 80.1861 71.5333C80.2389 71.4764 80.3125 71.4431 80.3917 71.4431H91.7347C92.0111 71.4431 92.2653 71.5556 92.4333 71.7528C92.6 71.9472 92.6681 72.2014 92.625 72.4667C92.5389 72.9917 92.05 73.4028 91.5083 73.4028ZM80.7708 72.8472H91.5083C91.7736 72.8472 92.0333 72.6319 92.0736 72.3778C92.0903 72.275 92.0667 72.1806 92.0083 72.1111C91.9458 72.0375 91.8472 71.9972 91.7333 71.9972H80.6944L80.7708 72.8472Z" fill="#FA9874"/>
<path d="M90.5918 78.8763C90.9932 78.8763 91.2695 79.1888 91.207 79.5777C91.1459 79.9652 90.7695 80.2791 90.3682 80.2791H81.164L81.0376 78.8763H90.5918Z" fill="#FA9874"/>
<path d="M90.3681 80.5569H81.1639C81.0208 80.5569 80.9 80.4472 80.8875 80.3041L80.7611 78.9014C80.7542 78.8236 80.7805 78.7472 80.8333 78.6889C80.8861 78.6319 80.9597 78.5986 81.0389 78.5986H90.5931C90.8694 78.5986 91.1236 78.7111 91.2917 78.9069C91.4569 79.1014 91.525 79.3555 91.4833 79.6208C91.3986 80.1458 90.9083 80.5569 90.3681 80.5569ZM81.4181 80.0014H90.3681C90.6333 80.0014 90.893 79.7875 90.9333 79.5333C90.95 79.4291 90.9278 79.3375 90.868 79.2666C90.8055 79.193 90.7069 79.1527 90.5917 79.1527H81.3417L81.4181 80.0014Z" fill="#FA9874"/>
<path d="M104.234 46.4639L107.236 50.5569L99.8822 96.6708L96.8794 92.5764L104.234 46.4639Z" fill="#FCD2C2"/>
<path d="M99.8821 96.9486C99.7946 96.9486 99.7112 96.907 99.6585 96.8347L96.6557 92.7403C96.6112 92.6806 96.5932 92.6056 96.6057 92.532L103.96 46.4195C103.978 46.3083 104.06 46.2195 104.168 46.1931C104.277 46.1667 104.392 46.2083 104.457 46.2986L107.46 50.3931C107.504 50.4528 107.522 50.5278 107.51 50.6014L100.156 96.7139C100.138 96.825 100.056 96.9139 99.9473 96.9403C99.9251 96.9458 99.9029 96.9486 99.8821 96.9486ZM97.1723 92.5056L99.7126 95.9695L106.945 50.6278L104.404 47.1639L97.1723 92.5056Z" fill="#FFECE5"/>
<path d="M96.879 92.5764L83.1846 104.026L85.0096 92.5764H96.879Z" fill="#FA9874"/>
<path d="M83.1847 104.304C83.1375 104.304 83.0902 104.292 83.0472 104.268C82.9458 104.211 82.8916 104.097 82.9097 103.983L84.7361 92.5333C84.7569 92.3986 84.8736 92.2986 85.0111 92.2986H96.8805C96.9972 92.2986 97.1013 92.3722 97.1416 92.4819C97.1819 92.5916 97.1486 92.7153 97.0583 92.7903L83.3638 104.24C83.3111 104.283 83.2472 104.304 83.1847 104.304ZM85.2472 92.8541L83.575 103.337L96.1139 92.8541H85.2472Z" fill="#FFECE5"/>
<path d="M96.8793 92.5764L99.882 96.6709L86.1862 108.121L83.1848 104.026L96.8793 92.5764Z" fill="#FA9874"/>
<path d="M86.1862 108.399C86.1751 108.399 86.164 108.399 86.1529 108.397C86.0765 108.388 86.0084 108.347 85.9626 108.286L82.9598 104.192C82.8737 104.074 82.8932 103.908 83.0057 103.814L96.7001 92.3639C96.7584 92.3153 96.8362 92.2917 96.9112 92.3014C96.9876 92.3111 97.0557 92.3514 97.1015 92.4125L100.104 96.507C100.19 96.625 100.171 96.7903 100.058 96.8847L86.3654 108.333C86.3154 108.376 86.2515 108.399 86.1862 108.399ZM83.5626 104.072L86.2362 107.717L99.5043 96.6236L96.8306 92.9792L83.5626 104.072Z" fill="#FFECE5"/>
<path d="M83.1849 104.026L86.1863 108.121L82.946 104.225L83.1849 104.026Z" fill="#FCD2C2"/>
<path d="M86.1876 108.399C86.1084 108.399 86.0293 108.364 85.9737 108.299L82.7334 104.403C82.6862 104.346 82.664 104.274 82.6709 104.2C82.6779 104.126 82.714 104.058 82.7695 104.012L83.007 103.815C83.0654 103.767 83.1418 103.743 83.2181 103.753C83.2945 103.762 83.3626 103.803 83.4084 103.864L86.4112 107.957C86.5001 108.078 86.4765 108.247 86.3584 108.34C86.307 108.379 86.2473 108.399 86.1876 108.399Z" fill="#FFECE5"/>
<path d="M82.9459 104.225L86.1861 108.121L84.6375 108.318L81.6348 104.225H82.9459Z" fill="#FCD2C2"/>
<path d="M84.6376 108.596C84.5501 108.596 84.4668 108.554 84.414 108.482L81.4112 104.388C81.3487 104.303 81.3404 104.192 81.3876 104.097C81.4349 104.004 81.5307 103.944 81.6349 103.944H82.946C83.0279 103.944 83.1071 103.981 83.1599 104.044L86.4001 107.94C86.4654 108.018 86.4821 108.125 86.4446 108.219C86.4071 108.314 86.3224 108.381 86.221 108.393L84.671 108.59C84.6612 108.594 84.6487 108.596 84.6376 108.596ZM82.1835 104.503L84.7654 108.022L85.6501 107.91L82.8168 104.503H82.1835Z" fill="#FFECE5"/>
<path d="M82.0542 103.939C81.9917 103.989 81.9265 104.038 81.8598 104.083C81.7903 104.131 81.7181 104.176 81.6445 104.218C81.6403 104.221 81.6376 104.222 81.6334 104.225C81.5556 104.269 81.4765 104.31 81.3945 104.346C81.2903 104.393 81.182 104.435 81.0723 104.469C80.9765 104.5 80.8792 104.525 80.7806 104.546L49.6876 110.919C49.5042 110.957 49.3237 110.975 49.1487 110.975C48.4265 110.975 47.7973 110.665 47.4209 110.15L50.4237 114.243C50.8015 114.758 51.4292 115.068 52.1515 115.068C52.3265 115.068 52.507 115.05 52.6903 115.013L83.7834 108.639C83.882 108.618 83.9806 108.593 84.0751 108.563C84.1848 108.528 84.2931 108.486 84.3973 108.439C84.4792 108.401 84.5584 108.361 84.6362 108.318C84.6403 108.315 84.6431 108.314 84.6473 108.311C84.7209 108.269 84.7931 108.224 84.8626 108.176C84.9292 108.131 84.9945 108.082 85.057 108.032L82.0542 103.939Z" fill="#EB5017"/>
<path d="M52.1515 115.346C51.3487 115.346 50.6362 115.004 50.1987 114.408L47.1959 110.314C47.1056 110.19 47.132 110.017 47.2556 109.925C47.3792 109.835 47.5529 109.861 47.6445 109.985C47.9765 110.436 48.5237 110.696 49.1487 110.696C49.307 110.696 49.4695 110.679 49.632 110.646L80.7251 104.272C80.814 104.254 80.9029 104.231 80.989 104.203C81.0876 104.171 81.1862 104.133 81.2806 104.09C81.3542 104.057 81.4265 104.019 81.4973 103.981C81.5737 103.938 81.639 103.896 81.7029 103.853C81.7626 103.811 81.8223 103.768 81.8792 103.721C81.939 103.674 82.014 103.651 82.0904 103.661C82.1654 103.671 82.2334 103.711 82.2792 103.772L85.282 107.865C85.3695 107.985 85.3487 108.153 85.2334 108.246C85.1654 108.301 85.0945 108.354 85.0223 108.404C84.9459 108.457 84.8667 108.506 84.7876 108.551L84.7751 108.558C84.6904 108.606 84.6029 108.65 84.514 108.69C84.3987 108.742 84.2806 108.788 84.1612 108.825C84.0556 108.858 83.9487 108.886 83.8404 108.908L52.7473 115.282C52.5473 115.325 52.3473 115.346 52.1515 115.346ZM48.5195 111.178L50.6473 114.079C50.9792 114.531 51.5265 114.79 52.1515 114.79C52.3098 114.79 52.4723 114.774 52.6348 114.74L83.7279 108.367C83.8167 108.349 83.9056 108.325 83.9917 108.297C84.0904 108.267 84.189 108.228 84.2834 108.185C84.357 108.151 84.4306 108.114 84.5001 108.075C84.5612 108.04 84.6167 108.007 84.6681 107.972L81.9945 104.326C81.9251 104.372 81.8542 104.417 81.782 104.458C81.7806 104.458 81.7695 104.465 81.7681 104.467C81.6848 104.514 81.5973 104.558 81.5084 104.599C81.3945 104.65 81.2751 104.696 81.1556 104.733C81.0501 104.767 80.9431 104.794 80.8348 104.817L49.7417 111.19C49.3237 111.276 48.9015 111.271 48.5195 111.178Z" fill="#FFECE5"/>
<path d="M83.0987 101.675C83.1904 102.683 82.5723 103.694 81.6348 104.224C81.3723 104.372 81.0848 104.482 80.782 104.544L49.689 110.918C49.5057 110.956 49.3251 110.974 49.1501 110.974C48.0348 110.974 47.1459 110.236 47.0529 109.146L42.7695 58.6264C42.682 57.3486 43.7223 56.0833 45.0932 55.8028L57.9598 53.1653L70.6987 50.5541L71.2668 58.8805C71.3112 59.5139 71.5918 60.0514 72.0209 60.4278C72.4515 60.8028 73.032 61.0194 73.6807 61.0208C73.882 61.0208 74.089 60.9986 74.3001 60.9555C74.9793 60.8166 75.5932 60.4639 76.0584 59.9916C76.5223 59.5194 76.8432 58.925 76.9432 58.2972C76.9737 58.1041 76.9834 57.9069 76.9695 57.7111L76.4015 49.3861L77.4598 49.1694L77.8112 54.3305C77.8251 54.5361 77.9918 54.675 78.2015 54.675C78.5543 54.6125 78.7473 54.3778 78.7306 54.1416L78.3779 48.9805L78.6793 48.9194L81.1584 48.4111C81.3418 48.3736 81.5223 48.3555 81.6973 48.3555C82.8265 48.3555 83.7223 49.1111 83.7959 50.218L84.2876 57.4111L84.3834 58.8153L84.4029 59.1055C84.4904 60.3833 83.4501 61.6472 82.0806 61.9278C80.7779 62.1958 79.7723 63.3528 79.7543 64.5653C79.7529 64.6264 79.7543 64.6889 79.7598 64.75L79.8695 65.9694L80.389 71.7194L80.5154 73.1236L81.0348 78.8736L81.1612 80.2764L83.0987 101.675Z" fill="#F56630"/>
<path d="M49.15 111.251C47.8764 111.251 46.8792 110.376 46.7764 109.169L42.4931 58.65C42.3959 57.2361 43.5375 55.8389 45.0375 55.5305L70.6431 50.2833C70.7222 50.2666 70.8028 50.2861 70.8667 50.3347C70.9306 50.3833 70.9709 50.4569 70.975 50.5375L71.5431 58.8639C71.5806 59.4 71.8153 59.8819 72.2028 60.2208C72.5889 60.5569 73.1139 60.743 73.6806 60.7444C73.8597 60.7444 74.05 60.725 74.2445 60.6847C74.8431 60.5625 75.4167 60.2472 75.8597 59.7986C76.2931 59.3583 76.5792 58.8097 76.6681 58.2555C76.6959 58.0778 76.7042 57.9028 76.6917 57.7333L76.1236 49.4055C76.1139 49.2666 76.2084 49.143 76.3445 49.1139L77.4028 48.8972C77.4806 48.8805 77.5625 48.9 77.6264 48.9486C77.6903 48.9972 77.7306 49.0708 77.7347 49.1514L78.0861 54.3125C78.0903 54.3764 78.1431 54.393 78.1792 54.3972C78.3667 54.3569 78.4584 54.25 78.4514 54.1625L78.0986 49.0014C78.0889 48.8625 78.1834 48.7389 78.3195 48.7097L81.1 48.1389C81.3 48.0986 81.5 48.0778 81.6945 48.0778C82.9889 48.0778 83.9875 48.9694 84.0709 50.1986L84.6778 59.0875C84.775 60.4958 83.6334 61.893 82.1334 62.2014C80.9695 62.4403 80.0459 63.4805 80.0292 64.5708C80.0278 64.625 80.0292 64.6778 80.0334 64.7319L83.3709 101.651C83.4695 102.737 82.825 103.869 81.7667 104.467C81.4722 104.633 81.1584 104.751 80.832 104.818L49.7389 111.192C49.5459 111.231 49.3459 111.251 49.15 111.251ZM70.4417 50.8916L45.1486 56.075C43.9111 56.3291 42.9681 57.4653 43.0472 58.6083L47.3306 109.124C47.4097 110.05 48.157 110.697 49.15 110.697C49.3084 110.697 49.4709 110.681 49.6334 110.647L80.7264 104.274C80.9945 104.218 81.2542 104.121 81.4986 103.983C82.3695 103.492 82.9014 102.575 82.8222 101.701L79.4834 64.7764C79.4778 64.7014 79.4764 64.6319 79.4778 64.5625C79.4986 63.2 80.5945 61.9514 82.0264 61.6569C83.2639 61.4028 84.207 60.268 84.1278 59.1264L83.5209 50.2375C83.457 49.293 82.7084 48.6347 81.6986 48.6347C81.5403 48.6347 81.3778 48.6514 81.2153 48.6847L78.6722 49.2069L79.0084 54.125C79.0361 54.5208 78.7181 54.868 78.25 54.95C78.2348 54.9528 78.2181 54.9541 78.2014 54.9541C77.8389 54.9541 77.557 54.7 77.5334 54.35L77.2028 49.5055L76.6931 49.6097L77.2445 57.693C77.2597 57.9028 77.25 58.1222 77.2153 58.3416C77.1084 59.0083 76.7681 59.6639 76.2542 60.1861C75.7348 60.7139 75.0597 61.0833 74.3542 61.2278C74.1222 61.275 73.8945 61.2986 73.6792 61.2986C72.9778 61.2972 72.3236 61.0625 71.8361 60.6375C71.3361 60.2 71.0347 59.5833 70.9875 58.9L70.4417 50.8916Z" fill="#FFECE5"/>
<path d="M73.6793 61.2986C72.9793 61.2972 72.3251 61.0625 71.8376 60.6375C71.3376 60.2 71.0362 59.5833 70.989 58.9L70.0821 45.6181C70.0626 45.3375 70.0751 45.05 70.121 44.7653C70.2612 43.8847 70.7112 43.0208 71.389 42.3333C72.0737 41.6361 72.9654 41.1472 73.9001 40.9556C74.2001 40.8944 74.4987 40.8639 74.789 40.8639C75.7085 40.8639 76.5682 41.1722 77.2085 41.7306C77.864 42.3028 78.2585 43.1111 78.3168 44.0056L79.0085 54.1222C79.0349 54.4986 78.7487 54.8556 78.3571 54.9361C78.3043 54.9458 78.2529 54.9514 78.2029 54.9514C77.8404 54.9514 77.5599 54.6972 77.5349 54.3472L76.8446 44.2306C76.8057 43.6708 76.5724 43.1889 76.1682 42.8361C75.7696 42.4875 75.2307 42.2958 74.6487 42.2958C74.4612 42.2958 74.2668 42.3167 74.0696 42.3569C73.446 42.4847 72.8724 42.8 72.4112 43.2681C71.9668 43.7194 71.6724 44.2819 71.5821 44.8514C71.5529 45.0347 71.5446 45.2167 71.5571 45.3889L72.464 58.6708C72.4876 59.0153 72.6307 59.3125 72.8793 59.5306C73.1265 59.7444 73.4612 59.8625 73.821 59.8625C73.939 59.8625 74.0626 59.85 74.1862 59.825C74.5807 59.7431 74.9432 59.5431 75.2349 59.2486C75.514 58.9639 75.7001 58.6097 75.7571 58.2528C75.7751 58.1431 75.7807 58.0292 75.7737 57.9153L74.9071 45.2375C74.8974 45.1069 74.846 44.9972 74.7515 44.9153C74.6571 44.8333 74.5265 44.7861 74.3862 44.7861C74.3362 44.7875 74.2835 44.7931 74.2335 44.8028C74.0696 44.8375 73.9182 44.9208 73.7974 45.0444C73.6793 45.1639 73.6029 45.3083 73.5793 45.4528C73.5724 45.4931 73.571 45.5389 73.5737 45.5847L74.1585 54.1458C74.1849 54.5222 73.8974 54.8792 73.5071 54.9597C73.4557 54.9708 73.4029 54.9764 73.3515 54.9764C72.989 54.9764 72.7099 54.7222 72.6849 54.3722L72.1001 45.8125C72.0904 45.6694 72.0974 45.5194 72.121 45.3653C72.1932 44.9097 72.4265 44.4625 72.7751 44.1083C73.1237 43.7514 73.5821 43.5 74.064 43.4C74.2237 43.3694 74.3779 43.3528 74.5251 43.3528C75.0057 43.3528 75.4543 43.5153 75.7918 43.8083C76.139 44.1097 76.3474 44.5361 76.3793 45.0083L77.2446 57.6889C77.2599 57.8986 77.2501 58.1181 77.2154 58.3375C77.1099 59.0042 76.7682 59.6597 76.2543 60.1819C75.7349 60.7083 75.0612 61.0792 74.3543 61.2236C74.1237 61.275 73.896 61.2986 73.6793 61.2986Z" fill="#FA9874"/>
<path d="M74.7876 41.143C75.6626 41.143 76.4446 41.4347 77.0251 41.9417C77.6043 42.4472 77.9835 43.1694 78.039 44.0264L78.2057 46.4653L78.3779 48.9833L78.7307 54.1444C78.7474 54.3792 78.5543 54.6153 78.3001 54.668C78.2668 54.675 78.2335 54.6778 78.2015 54.6778C77.9918 54.6778 77.8251 54.5389 77.8112 54.3333L77.4585 49.1722L77.2737 46.4667L77.1196 44.2167C77.0751 43.5625 76.7904 43.0167 76.3487 42.6319C75.9071 42.2458 75.3099 42.0236 74.6474 42.0236C74.4432 42.0236 74.2293 42.0458 74.0126 42.0903C73.3126 42.2347 72.6904 42.593 72.2112 43.0778C71.7335 43.5625 71.4071 44.1722 71.3057 44.8125C71.2737 45.0097 71.2626 45.2125 71.2779 45.4139L71.3501 46.4667L71.6168 50.3694L72.1848 58.6944C72.214 59.1278 72.4029 59.4875 72.6946 59.743C72.9876 59.9972 73.3821 60.1444 73.8196 60.1444C73.9557 60.1444 74.0974 60.1306 74.239 60.1014C74.7029 60.0056 75.114 59.768 75.4307 59.4472C75.746 59.1264 75.9626 58.7236 76.0293 58.3C76.0501 58.1694 76.0571 58.0361 76.0487 57.9014L75.4793 49.5764L75.2668 46.4653L75.1821 45.2222C75.1668 45.0083 75.0751 44.8347 74.9321 44.7097C74.7876 44.5847 74.596 44.5125 74.3835 44.5125C74.3154 44.5139 74.2474 44.5208 74.1765 44.5347C73.9487 44.5819 73.7515 44.6958 73.596 44.8542C73.4418 45.0111 73.3349 45.2083 73.3015 45.4139C73.2918 45.4778 73.289 45.543 73.2932 45.6083L73.3515 46.4667L73.5904 49.9639L73.8779 54.1694C73.8946 54.4069 73.7015 54.6403 73.4474 54.693C73.4126 54.7 73.3793 54.7028 73.3473 54.7028C73.1376 54.7028 72.9724 54.5625 72.9585 54.3569L72.671 50.1514L72.4196 46.4653L72.3737 45.7972C72.364 45.6694 72.3723 45.5403 72.3918 45.4139C72.4571 45.0042 72.6668 44.6153 72.9696 44.3083C73.271 44 73.6737 43.7694 74.1168 43.6778C74.2543 43.6514 74.389 43.6361 74.521 43.6361C74.946 43.6361 75.3237 43.7778 75.6043 44.0236C75.8862 44.268 76.0696 44.6194 76.0974 45.0333L76.1946 46.4667L76.3946 49.3889L76.9626 57.7139C76.9779 57.9097 76.9668 58.1069 76.9362 58.3C76.8362 58.9278 76.5154 59.5208 76.0515 59.9944C75.5862 60.4667 74.9723 60.8194 74.2932 60.9583C74.0821 61.0014 73.8751 61.0236 73.6737 61.0236C73.0251 61.0222 72.4432 60.8055 72.014 60.4305C71.5835 60.0542 71.3043 59.5167 71.2599 58.8833L70.6974 50.5555L70.4182 46.4639L70.3599 45.6C70.3418 45.3361 70.3543 45.0708 70.396 44.8097C70.5307 43.9653 70.9612 43.1653 71.5876 42.5292C72.214 41.8917 73.0404 41.4167 73.9557 41.2292C74.2376 41.1708 74.5168 41.143 74.7876 41.143ZM74.7876 40.5875C74.4793 40.5875 74.1626 40.6194 73.8446 40.6833C72.8543 40.8861 71.9126 41.4028 71.189 42.1389C70.4724 42.8667 69.9946 43.7833 69.846 44.7208C69.7974 45.0264 69.7835 45.3347 69.8043 45.6375L69.8626 46.5014L70.1418 50.593L70.7099 58.9194C70.764 59.6778 71.0987 60.3611 71.6529 60.8472C72.1918 61.3167 72.9112 61.575 73.6779 61.5778C73.914 61.5778 74.1599 61.5528 74.4085 61.5014C75.1696 61.3458 75.8946 60.9486 76.4529 60.3833C77.0071 59.8194 77.3751 59.1097 77.4904 58.3875C77.5293 58.1458 77.539 57.9055 77.5223 57.6722L77.3154 54.6375C77.4501 54.9903 77.7932 55.2319 78.2015 55.2319C78.2696 55.2319 78.339 55.225 78.4085 55.2111C78.9376 55.1028 79.321 54.6167 79.2848 54.1042L78.9321 48.9444L78.7599 46.4264L78.5932 43.9875C78.5293 43.0194 78.1015 42.143 77.3904 41.5222C76.6987 40.9194 75.7737 40.5875 74.7876 40.5875ZM71.8349 45.4097L71.8321 45.3736C71.821 45.218 71.8279 45.0597 71.8543 44.8972C71.9362 44.3833 72.2043 43.875 72.6071 43.4639C73.0293 43.0361 73.5543 42.7486 74.1237 42.6305C74.3015 42.5944 74.4779 42.575 74.6474 42.575C75.1612 42.575 75.6362 42.743 75.9835 43.0458C76.3321 43.35 76.5335 43.7667 76.5654 44.25L76.5876 44.5847C76.4849 44.2028 76.2737 43.8611 75.9724 43.6C75.5862 43.2625 75.0724 43.0764 74.5251 43.0764C74.3599 43.0764 74.1876 43.093 74.014 43.1278C73.4724 43.2403 72.964 43.518 72.5765 43.9153C72.1876 44.3097 71.9293 44.8097 71.8474 45.3222C71.8432 45.3528 71.839 45.3805 71.8349 45.4097ZM73.3515 55.2555C73.4224 55.2555 73.4932 55.2486 73.5626 55.2333C74.0876 55.125 74.471 54.6403 74.4362 54.1278L74.1487 49.9222L73.9099 46.425L73.8515 45.5667C73.8501 45.543 73.8501 45.518 73.8543 45.4972C73.8682 45.4111 73.9196 45.3167 73.9946 45.2403C74.0779 45.1542 74.1807 45.0986 74.2932 45.075C74.321 45.0694 74.3543 45.0653 74.3918 45.0653C74.464 45.0667 74.5251 45.0875 74.571 45.1264C74.6071 45.1583 74.6265 45.2 74.6307 45.2583L74.7154 46.5L74.9279 49.6111L75.4974 57.9361C75.5029 58.025 75.4987 58.118 75.4835 58.2097C75.4349 58.5097 75.2765 58.8111 75.0362 59.0556C74.7849 59.3111 74.4696 59.4833 74.1279 59.5555C74.0265 59.5764 73.921 59.5861 73.821 59.5861C73.5279 59.5861 73.2571 59.4917 73.0599 59.3208C72.871 59.1542 72.7598 58.9236 72.7404 58.6542L72.4682 54.6639C72.6015 55.0153 72.9446 55.2555 73.3515 55.2555Z" fill="#FFECE5"/>
<path d="M114.19 44.675L114.464 46.3875C114.629 47.4139 115.333 48.218 116.347 48.5347L118.04 49.0625L116.179 49.5903C115.065 49.9069 114.104 50.7111 113.611 51.7375L112.79 53.45L112.515 51.7375C112.35 50.7111 111.646 49.9069 110.632 49.5903L108.94 49.0625L110.8 48.5347C111.914 48.218 112.875 47.4139 113.368 46.3875L114.19 44.675Z" fill="#F56630"/>
<path d="M55.9444 37.9458L56.1542 39.2583C56.2805 40.0458 56.8208 40.6625 57.5986 40.9042L58.8958 41.3083L57.4694 41.7139C56.6153 41.9556 55.8778 42.5722 55.5 43.3583L54.8708 44.6722L54.6611 43.3583C54.5347 42.5708 53.9944 41.9556 53.2167 41.7139L51.9194 41.3083L53.3458 40.9042C54.2 40.6625 54.9375 40.0444 55.3153 39.2583L55.9444 37.9458Z" fill="#F56630"/>
<path d="M91.3792 83.3833L91.4959 84.1152C91.5667 84.5527 91.8681 84.8972 92.3014 85.0319L93.0237 85.2569L92.2292 85.4819C91.7528 85.618 91.3417 85.9611 91.1306 86.3986L90.7792 87.1305L90.6625 86.3986C90.5917 85.9611 90.2917 85.6166 89.8584 85.4819L89.1348 85.2569L89.9306 85.0319C90.407 84.8958 90.8167 84.5527 91.0278 84.1152L91.3792 83.3833Z" fill="#F56630"/>
<path d="M38.7514 93.1889L38.8681 93.9208C38.9389 94.3597 39.2403 94.7028 39.6737 94.8375L40.3959 95.0625L39.6014 95.2875C39.125 95.4236 38.7139 95.7667 38.5028 96.2056L38.1528 96.9375L38.0362 96.2056C37.9667 95.7667 37.6653 95.4236 37.232 95.2875L36.5098 95.0625L37.3042 94.8375C37.7806 94.7028 38.1917 94.3597 38.4014 93.9208L38.7514 93.1889Z" fill="#F56630"/>
</svg>
