<svg width="32" height="32" viewBox="0 0 32 32" fill="none" xmlns="http://www.w3.org/2000/svg">
<circle cx="16" cy="16" r="16" fill="#E7F6EC"/>
<path fill-rule="evenodd" clip-rule="evenodd" d="M16 23.5C20.1421 23.5 23.5 20.1421 23.5 16C23.5 11.8579 20.1421 8.5 16 8.5C11.8579 8.5 8.5 11.8579 8.5 16C8.5 20.1421 11.8579 23.5 16 23.5ZM19.0628 14.9479C19.4022 14.637 19.4254 14.1099 19.1145 13.7705C18.8037 13.4311 18.2766 13.4079 17.9372 13.7188L14.8604 16.5366L14.0628 15.8062C13.7234 15.4953 13.1963 15.5185 12.8855 15.8579C12.5746 16.1973 12.5978 16.7244 12.9372 17.0352L14.2976 18.2812C14.6161 18.5729 15.1047 18.5729 15.4233 18.2812L19.0628 14.9479Z" fill="#0F973D"/>
</svg>
