<svg width="32" height="32" viewBox="0 0 32 32" fill="none" xmlns="http://www.w3.org/2000/svg">
<circle cx="16" cy="16" r="16" fill="#FBEAE9"/>
<path fill-rule="evenodd" clip-rule="evenodd" d="M10.2054 18.7851L14.4129 10.9364C15.0822 9.68788 16.9178 9.68788 17.5871 10.9364L21.7946 18.7851C22.4164 19.9451 21.5517 21.3333 20.2074 21.3333H11.7926C10.4483 21.3333 9.58363 19.9451 10.2054 18.7851ZM16 12C16.3682 12 16.6667 12.2985 16.6667 12.6667V17.3333C16.6667 17.7015 16.3682 18 16 18C15.6318 18 15.3333 17.7015 15.3333 17.3333V12.6667C15.3333 12.2985 15.6318 12 16 12ZM15.1667 19.1667C15.1667 19.6269 15.5398 20 16 20C16.4602 20 16.8333 19.6269 16.8333 19.1667C16.8333 18.7064 16.4602 18.3333 16 18.3333C15.5398 18.3333 15.1667 18.7064 15.1667 19.1667Z" fill="#D42620"/>
</svg>
