<svg width="32" height="32" viewBox="0 0 32 32" fill="none" xmlns="http://www.w3.org/2000/svg">
<circle cx="16" cy="16" r="16" fill="#F0F2F5"/>
<path d="M12 14.3333C12 12.3083 13.6416 10.6666 15.6667 10.6666C17.4605 10.6666 18.9547 11.9554 19.2714 13.6578C19.3158 13.8965 19.4865 14.0922 19.7169 14.1686C21.0441 14.6088 22 15.8603 22 17.3333C22 19.1743 20.5076 20.6666 18.6667 20.6666C18.2985 20.6666 18 20.9651 18 21.3333C18 21.7015 18.2985 22 18.6667 22C21.244 22 23.3334 19.9106 23.3334 17.3333C23.3334 15.405 22.1642 13.7513 20.4976 13.0397C19.9273 10.9053 17.9812 9.33331 15.6667 9.33331C12.9053 9.33331 10.6667 11.5719 10.6667 14.3333C10.6667 14.4002 10.668 14.4667 10.6706 14.533C9.47367 15.2236 8.66669 16.5169 8.66669 18C8.66669 20.2091 10.4575 22 12.6667 22C13.0349 22 13.3334 21.7015 13.3334 21.3333C13.3334 20.9651 13.0349 20.6666 12.6667 20.6666C11.1939 20.6666 10 19.4727 10 18C10 16.8951 10.6721 15.9456 11.6325 15.5411C11.9103 15.424 12.0751 15.135 12.0341 14.8363C12.0117 14.6722 12 14.5043 12 14.3333Z" fill="#475367"/>
<path d="M15.5571 17.5017C15.8097 17.2772 16.1903 17.2772 16.4429 17.5017L17.4429 18.3906C17.7181 18.6352 17.7429 19.0566 17.4983 19.3318C17.2843 19.5725 16.935 19.6216 16.6667 19.4664V22.6666C16.6667 23.0348 16.3682 23.3333 16 23.3333C15.6318 23.3333 15.3334 23.0348 15.3334 22.6666V19.4664C15.065 19.6216 14.7157 19.5725 14.5017 19.3318C14.2571 19.0566 14.2819 18.6352 14.5571 18.3906L15.5571 17.5017Z" fill="#475367"/>
</svg>
