<svg width="32" height="32" viewBox="0 0 32 32" fill="none" xmlns="http://www.w3.org/2000/svg">
<circle cx="16" cy="16" r="16" fill="#FEF6E7"/>
<path fill-rule="evenodd" clip-rule="evenodd" d="M23.5 16C23.5 20.1421 20.1421 23.5 16 23.5C11.8579 23.5 8.5 20.1421 8.5 16C8.5 11.8579 11.8579 8.5 16 8.5C20.1421 8.5 23.5 11.8579 23.5 16ZM16 11C16.4602 11 16.8333 11.3731 16.8333 11.8333V17.6667C16.8333 18.1269 16.4602 18.5 16 18.5C15.5398 18.5 15.1667 18.1269 15.1667 17.6667L15.1667 11.8333C15.1667 11.3731 15.5398 11 16 11ZM14.9583 19.9583C14.9583 20.5336 15.4247 21 16 21C16.5753 21 17.0417 20.5336 17.0417 19.9583C17.0417 19.383 16.5753 18.9167 16 18.9167C15.4247 18.9167 14.9583 19.383 14.9583 19.9583Z" fill="#F3A218"/>
</svg>
